<svg version="1.1" xmlns="http://www.w3.org/2000/svg" xmlns:xlink="http://www.w3.org/1999/xlink" width="756" height="270"><defs/><g><g transform="translate(-336,-150) scale(1,1)"><path fill="#ffffff" stroke="none" d="M 379.1397986505682 253.23 C 379.1397986505682 247.027841696 384.10504162133185 242 390.22998046875 242 C 396.35491931616815 242 401.3201622869318 247.027841696 401.3201622869318 253.23 C 401.3201622869318 259.432158304 396.35491931616815 264.46 390.22998046875 264.46 C 384.10504162133185 264.46 379.1397986505682 259.432158304 379.1397986505682 253.23 Z"/></g><g transform="translate(-336,-150) scale(1,1)"><path fill="none" stroke="#000000" d="M 379.1397986505682 253.23 C 379.1397986505682 247.027841696 384.10504162133185 242 390.22998046875 242 C 396.35491931616815 242 401.3201622869318 247.027841696 401.3201622869318 253.23 C 401.3201622869318 259.432158304 396.35491931616815 264.46 390.22998046875 264.46 C 384.10504162133185 264.46 379.1397986505682 259.432158304 379.1397986505682 253.23 Z" stroke-miterlimit="10"/></g><g transform="translate(-336,-150) scale(1,1)"><path fill="none" stroke="#000000" d="M 390.22998046875 264.46 L 390.22998046875 286.54" stroke-miterlimit="10"/></g><g transform="translate(-336,-150) scale(1,1)"><path fill="none" stroke="#000000" d="M 378.48743501420455 272.74 L 401.97252592329545 272.74" stroke-miterlimit="10"/></g><g transform="translate(-336,-150) scale(1,1)"><path fill="none" stroke="#000000" d="M 390.22998046875 286.54 L 373.9208895596591 309" stroke-miterlimit="10"/></g><g transform="translate(-336,-150) scale(1,1)"><path fill="none" stroke="#000000" d="M 390.22998046875 286.54 L 406.5390713778409 309" stroke-miterlimit="10"/></g><g transform="translate(-336,-150) scale(1,1)"><g><path fill="none" stroke="none"/><text fill="#000000" stroke="none" font-family="Arial" font-size="13px" font-style="normal" font-weight="bold" text-decoration="none" x="350.5" y="328">Quản trị viên</text></g></g><g transform="translate(-336,-150) scale(1,1)"><path fill="#C0C0C0" stroke="none" d="M 513 297 C 513 287.6111584 566.2781088 280 632 280 C 697.7218912 280 751 287.6111584 751 297 C 751 306.3888416 697.7218912 314 632 314 C 566.2781088 314 513 306.3888416 513 297 Z" opacity="0.2"/></g><g transform="translate(-336,-150) scale(1,1)"><path fill="#ffffff" stroke="none" d="M 506 290 C 506 280.6111584 559.2781088 273 625 273 C 690.7218912 273 744 280.6111584 744 290 C 744 299.3888416 690.7218912 307 625 307 C 559.2781088 307 506 299.3888416 506 290 Z"/></g><g transform="translate(-336,-150) scale(1,1)"><path fill="none" stroke="#000000" d="M 506 290 C 506 280.6111584 559.2781088 273 625 273 C 690.7218912 273 744 280.6111584 744 290 C 744 299.3888416 690.7218912 307 625 307 C 559.2781088 307 506 299.3888416 506 290 Z" stroke-miterlimit="10"/></g><g transform="translate(-336,-150) scale(1,1)"><g><path fill="none" stroke="none"/><text fill="#000000" stroke="none" font-family="Arial" font-size="13px" font-style="normal" font-weight="bold" text-decoration="none" x="570.825927734375" y="296">Báo cáo thống kê</text></g></g><g transform="translate(-336,-150) scale(1,1)"><path fill="none" stroke="#000000" d="M 435 288 L 505 289" stroke-miterlimit="10"/></g><g transform="translate(-336,-150) scale(1,1)"><path fill="#C0C0C0" stroke="none" d="M 681 185 C 681 175.6111584 731.8156752 168 794.5 168 C 857.1843248 168 908 175.6111584 908 185 C 908 194.3888416 857.1843248 202 794.5 202 C 731.8156752 202 681 194.3888416 681 185 Z" opacity="0.2"/></g><g transform="translate(-336,-150) scale(1,1)"><path fill="#ffffff" stroke="none" d="M 674 178 C 674 168.6111584 724.8156752 161 787.5 161 C 850.1843248 161 901 168.6111584 901 178 C 901 187.3888416 850.1843248 195 787.5 195 C 724.8156752 195 674 187.3888416 674 178 Z"/></g><g transform="translate(-336,-150) scale(1,1)"><path fill="none" stroke="#000000" d="M 674 178 C 674 168.6111584 724.8156752 161 787.5 161 C 850.1843248 161 901 168.6111584 901 178 C 901 187.3888416 850.1843248 195 787.5 195 C 724.8156752 195 674 187.3888416 674 178 Z" stroke-miterlimit="10"/></g><g transform="translate(-336,-150) scale(1,1)"><g><path fill="none" stroke="none"/><text fill="#000000" stroke="none" font-family="Arial" font-size="13px" font-style="normal" font-weight="bold" text-decoration="none" x="720.67822265625" y="184">Xem thống kê bài viết</text></g></g><g transform="translate(-336,-150) scale(1,1)"><path fill="none" stroke="#000000" d="M 761 196 L 651 272" stroke-miterlimit="10" stroke-dasharray="3"/></g><g transform="translate(-336,-150) scale(1,1)"><path fill="none" stroke="#000000" d="M 656.9683168718826 262.75991376031584 L 651 272 L 661.7539649712076 269.6865096935491" stroke-miterlimit="10"/></g><g transform="translate(-336,-150) scale(1,1)"><g><path fill="none" stroke="none"/><text fill="#000000" stroke="none" font-family="Arial" font-size="13px" font-style="normal" font-weight="normal" text-decoration="none" x="696.5" y="263">«extend»</text></g></g><g transform="translate(-336,-150) scale(1,1)"><path fill="#C0C0C0" stroke="none" d="M 785 313 C 785 303.6111584 853.0527104 296 937 296 C 1020.9472896 296 1089 303.6111584 1089 313 C 1089 322.3888416 1020.9472896 330 937 330 C 853.0527104 330 785 322.3888416 785 313 Z" opacity="0.2"/></g><g transform="translate(-336,-150) scale(1,1)"><path fill="#ffffff" stroke="none" d="M 778 306 C 778 296.6111584 846.0527104 289 930 289 C 1013.9472896 289 1082 296.6111584 1082 306 C 1082 315.3888416 1013.9472896 323 930 323 C 846.0527104 323 778 315.3888416 778 306 Z"/></g><g transform="translate(-336,-150) scale(1,1)"><path fill="none" stroke="#000000" d="M 778 306 C 778 296.6111584 846.0527104 289 930 289 C 1013.9472896 289 1082 296.6111584 1082 306 C 1082 315.3888416 1013.9472896 323 930 323 C 846.0527104 323 778 315.3888416 778 306 Z" stroke-miterlimit="10"/></g><g transform="translate(-336,-150) scale(1,1)"><g><path fill="none" stroke="none"/><text fill="#000000" stroke="none" font-family="Arial" font-size="13px" font-style="normal" font-weight="bold" text-decoration="none" x="864.984130859375" y="311.5">Báo cáo và phân tích</text></g></g><g transform="translate(-336,-150) scale(1,1)"><path fill="none" stroke="#000000" d="M 777 298 L 745 296" stroke-miterlimit="10" stroke-dasharray="3"/></g><g transform="translate(-336,-150) scale(1,1)"><path fill="none" stroke="#000000" d="M 755.405466349095 292.4326101898097 L 745 296 L 754.8803013427749 300.8352502909322" stroke-miterlimit="10"/></g><g transform="translate(-336,-150) scale(1,1)"><g><path fill="none" stroke="none"/><text fill="#000000" stroke="none" font-family="Arial" font-size="13px" font-style="normal" font-weight="normal" text-decoration="none" x="732.5" y="331">«extend»</text></g></g><g transform="translate(-336,-150) scale(1,1)"><path fill="#C0C0C0" stroke="none" d="M 687 400 C 687 390.6111584 738.0395328 383 801 383 C 863.9604672 383 915 390.6111584 915 400 C 915 409.3888416 863.9604672 417 801 417 C 738.0395328 417 687 409.3888416 687 400 Z" opacity="0.2"/></g><g transform="translate(-336,-150) scale(1,1)"><path fill="#ffffff" stroke="none" d="M 680 393 C 680 383.6111584 731.0395328 376 794 376 C 856.9604672 376 908 383.6111584 908 393 C 908 402.3888416 856.9604672 410 794 410 C 731.0395328 410 680 402.3888416 680 393 Z"/></g><g transform="translate(-336,-150) scale(1,1)"><path fill="none" stroke="#000000" d="M 680 393 C 680 383.6111584 731.0395328 376 794 376 C 856.9604672 376 908 383.6111584 908 393 C 908 402.3888416 856.9604672 410 794 410 C 731.0395328 410 680 402.3888416 680 393 Z" stroke-miterlimit="10"/></g><g transform="translate(-336,-150) scale(1,1)"><g><path fill="none" stroke="none"/><text fill="#000000" stroke="none" font-family="Arial" font-size="13px" font-style="normal" font-weight="bold" text-decoration="none" x="717.786865234375" y="399">Xem thống kê công thức</text></g></g><g transform="translate(-336,-150) scale(1,1)"><path fill="none" stroke="#000000" d="M 764 375 L 655 308" stroke-miterlimit="10" stroke-dasharray="3"/></g><g transform="translate(-336,-150) scale(1,1)"><path fill="none" stroke="#000000" d="M 665.8622140892131 309.7355993431952 L 655 308 L 661.4534911761865 316.9079993061789" stroke-miterlimit="10"/></g><g transform="translate(-336,-150) scale(1,1)"><g><path fill="none" stroke="none"/><text fill="#000000" stroke="none" font-family="Arial" font-size="13px" font-style="normal" font-weight="normal" text-decoration="none" x="666.5" y="371">«extend»</text></g></g><g transform="translate(-336,-150) scale(1,1)"><path fill="#C0C0C0" stroke="none" d="M 399 184 C 399 174.6111584 448.02481439999997 167 508.5 167 C 568.9751856 167 618 174.6111584 618 184 C 618 193.3888416 568.9751856 201 508.5 201 C 448.02481439999997 201 399 193.3888416 399 184 Z" opacity="0.2"/></g><g transform="translate(-336,-150) scale(1,1)"><path fill="#ffffff" stroke="none" d="M 392 177 C 392 167.6111584 441.02481439999997 160 501.5 160 C 561.9751856 160 611 167.6111584 611 177 C 611 186.3888416 561.9751856 194 501.5 194 C 441.02481439999997 194 392 186.3888416 392 177 Z"/></g><g transform="translate(-336,-150) scale(1,1)"><path fill="none" stroke="#000000" d="M 392 177 C 392 167.6111584 441.02481439999997 160 501.5 160 C 561.9751856 160 611 167.6111584 611 177 C 611 186.3888416 561.9751856 194 501.5 194 C 441.02481439999997 194 392 186.3888416 392 177 Z" stroke-miterlimit="10"/></g><g transform="translate(-336,-150) scale(1,1)"><g><path fill="none" stroke="none"/><text fill="#000000" stroke="none" font-family="Arial" font-size="13px" font-style="normal" font-weight="bold" text-decoration="none" x="428.543212890625" y="183">Xem thống kê tài khoản</text></g></g><g transform="translate(-336,-150) scale(1,1)"><path fill="none" stroke="#000000" d="M 521 195 L 605 272" stroke-miterlimit="10" stroke-dasharray="3"/></g><g transform="translate(-336,-150) scale(1,1)"><path fill="none" stroke="#000000" d="M 594.6640673312673 268.23589374918504 L 605 272 L 600.3530169751094 262.02976686499363" stroke-miterlimit="10"/></g><g transform="translate(-336,-150) scale(1,1)"><g><path fill="none" stroke="none"/><text fill="#000000" stroke="none" font-family="Arial" font-size="13px" font-style="normal" font-weight="normal" text-decoration="none" x="556.5" y="216">«extend»</text></g></g></g></svg>