<svg version="1.1" xmlns="http://www.w3.org/2000/svg" xmlns:xlink="http://www.w3.org/1999/xlink" width="756" height="269"><defs/><g><g transform="translate(-336,-151) scale(1,1)"><path fill="#ffffff" stroke="none" d="M 379.1397986505682 253.23 C 379.1397986505682 247.027841696 384.10504162133185 242 390.22998046875 242 C 396.35491931616815 242 401.3201622869318 247.027841696 401.3201622869318 253.23 C 401.3201622869318 259.432158304 396.35491931616815 264.46 390.22998046875 264.46 C 384.10504162133185 264.46 379.1397986505682 259.432158304 379.1397986505682 253.23 Z"/></g><g transform="translate(-336,-151) scale(1,1)"><path fill="none" stroke="#000000" d="M 379.1397986505682 253.23 C 379.1397986505682 247.027841696 384.10504162133185 242 390.22998046875 242 C 396.35491931616815 242 401.3201622869318 247.027841696 401.3201622869318 253.23 C 401.3201622869318 259.432158304 396.35491931616815 264.46 390.22998046875 264.46 C 384.10504162133185 264.46 379.1397986505682 259.432158304 379.1397986505682 253.23 Z" stroke-miterlimit="10"/></g><g transform="translate(-336,-151) scale(1,1)"><path fill="none" stroke="#000000" d="M 390.22998046875 264.46 L 390.22998046875 286.54" stroke-miterlimit="10"/></g><g transform="translate(-336,-151) scale(1,1)"><path fill="none" stroke="#000000" d="M 378.48743501420455 272.74 L 401.97252592329545 272.74" stroke-miterlimit="10"/></g><g transform="translate(-336,-151) scale(1,1)"><path fill="none" stroke="#000000" d="M 390.22998046875 286.54 L 373.9208895596591 309" stroke-miterlimit="10"/></g><g transform="translate(-336,-151) scale(1,1)"><path fill="none" stroke="#000000" d="M 390.22998046875 286.54 L 406.5390713778409 309" stroke-miterlimit="10"/></g><g transform="translate(-336,-151) scale(1,1)"><g><path fill="none" stroke="none"/><text fill="#000000" stroke="none" font-family="Arial" font-size="13px" font-style="normal" font-weight="bold" text-decoration="none" x="350.5" y="328">Quản trị viên</text></g></g><g transform="translate(-336,-151) scale(1,1)"><path fill="#C0C0C0" stroke="none" d="M 513 297 C 513 287.6111584 566.2781088 280 632 280 C 697.7218912 280 751 287.6111584 751 297 C 751 306.3888416 697.7218912 314 632 314 C 566.2781088 314 513 306.3888416 513 297 Z" opacity="0.2"/></g><g transform="translate(-336,-151) scale(1,1)"><path fill="#ffffff" stroke="none" d="M 506 290 C 506 280.6111584 559.2781088 273 625 273 C 690.7218912 273 744 280.6111584 744 290 C 744 299.3888416 690.7218912 307 625 307 C 559.2781088 307 506 299.3888416 506 290 Z"/></g><g transform="translate(-336,-151) scale(1,1)"><path fill="none" stroke="#000000" d="M 506 290 C 506 280.6111584 559.2781088 273 625 273 C 690.7218912 273 744 280.6111584 744 290 C 744 299.3888416 690.7218912 307 625 307 C 559.2781088 307 506 299.3888416 506 290 Z" stroke-miterlimit="10"/></g><g transform="translate(-336,-151) scale(1,1)"><g><path fill="none" stroke="none"/><text fill="#000000" stroke="none" font-family="Arial" font-size="13px" font-style="normal" font-weight="bold" text-decoration="none" x="572.6318359375" y="295.5">Quản lý bài đăng</text></g></g><g transform="translate(-336,-151) scale(1,1)"><path fill="none" stroke="#000000" d="M 435 288 L 505 289" stroke-miterlimit="10"/></g><g transform="translate(-336,-151) scale(1,1)"><path fill="#C0C0C0" stroke="none" d="M 681 185 C 681 175.6111584 722.8613712 168 774.5 168 C 826.1386288 168 868 175.6111584 868 185 C 868 194.3888416 826.1386288 202 774.5 202 C 722.8613712 202 681 194.3888416 681 185 Z" opacity="0.2"/></g><g transform="translate(-336,-151) scale(1,1)"><path fill="#ffffff" stroke="none" d="M 674 178 C 674 168.6111584 715.8613712 161 767.5 161 C 819.1386288 161 861 168.6111584 861 178 C 861 187.3888416 819.1386288 195 767.5 195 C 715.8613712 195 674 187.3888416 674 178 Z"/></g><g transform="translate(-336,-151) scale(1,1)"><path fill="none" stroke="#000000" d="M 674 178 C 674 168.6111584 715.8613712 161 767.5 161 C 819.1386288 161 861 168.6111584 861 178 C 861 187.3888416 819.1386288 195 767.5 195 C 715.8613712 195 674 187.3888416 674 178 Z" stroke-miterlimit="10"/></g><g transform="translate(-336,-151) scale(1,1)"><g><path fill="none" stroke="none"/><text fill="#000000" stroke="none" font-family="Arial" font-size="13px" font-style="normal" font-weight="bold" text-decoration="none" x="725.2373046875" y="184">Duyệt bài viết</text></g></g><g transform="translate(-336,-151) scale(1,1)"><path fill="none" stroke="#000000" d="M 744 196 L 648 272" stroke-miterlimit="10" stroke-dasharray="3"/></g><g transform="translate(-336,-151) scale(1,1)"><path fill="none" stroke="#000000" d="M 653.3551427219645 262.39154297364087 L 648 272 L 658.580862853001 268.99245261284483" stroke-miterlimit="10"/></g><g transform="translate(-336,-151) scale(1,1)"><g><path fill="none" stroke="none"/><text fill="#000000" stroke="none" font-family="Arial" font-size="13px" font-style="normal" font-weight="normal" text-decoration="none" x="687.5" y="262">«extend»</text></g></g><g transform="translate(-336,-151) scale(1,1)"><path fill="#C0C0C0" stroke="none" d="M 785 313 C 785 303.6111584 853.0527104 296 937 296 C 1020.9472896 296 1089 303.6111584 1089 313 C 1089 322.3888416 1020.9472896 330 937 330 C 853.0527104 330 785 322.3888416 785 313 Z" opacity="0.2"/></g><g transform="translate(-336,-151) scale(1,1)"><path fill="#ffffff" stroke="none" d="M 778 306 C 778 296.6111584 846.0527104 289 930 289 C 1013.9472896 289 1082 296.6111584 1082 306 C 1082 315.3888416 1013.9472896 323 930 323 C 846.0527104 323 778 315.3888416 778 306 Z"/></g><g transform="translate(-336,-151) scale(1,1)"><path fill="none" stroke="#000000" d="M 778 306 C 778 296.6111584 846.0527104 289 930 289 C 1013.9472896 289 1082 296.6111584 1082 306 C 1082 315.3888416 1013.9472896 323 930 323 C 846.0527104 323 778 315.3888416 778 306 Z" stroke-miterlimit="10"/></g><g transform="translate(-336,-151) scale(1,1)"><g><path fill="none" stroke="none"/><text fill="#000000" stroke="none" font-family="Arial" font-size="13px" font-style="normal" font-weight="bold" text-decoration="none" x="893.13916015625" y="312">Sửa bài viết</text></g></g><g transform="translate(-336,-151) scale(1,1)"><path fill="none" stroke="#000000" d="M 777 298 L 745 296" stroke-miterlimit="10" stroke-dasharray="3"/></g><g transform="translate(-336,-151) scale(1,1)"><path fill="none" stroke="#000000" d="M 755.405466349095 292.4326101898097 L 745 296 L 754.8803013427749 300.8352502909322" stroke-miterlimit="10"/></g><g transform="translate(-336,-151) scale(1,1)"><g><path fill="none" stroke="none"/><text fill="#000000" stroke="none" font-family="Arial" font-size="13px" font-style="normal" font-weight="normal" text-decoration="none" x="732.5" y="331">«extend»</text></g></g><g transform="translate(-336,-151) scale(1,1)"><path fill="#C0C0C0" stroke="none" d="M 687 400 C 687 390.6111584 723.0410736 383 767.5 383 C 811.9589264 383 848 390.6111584 848 400 C 848 409.3888416 811.9589264 417 767.5 417 C 723.0410736 417 687 409.3888416 687 400 Z" opacity="0.2"/></g><g transform="translate(-336,-151) scale(1,1)"><path fill="#ffffff" stroke="none" d="M 680 393 C 680 383.6111584 716.0410736 376 760.5 376 C 804.9589264 376 841 383.6111584 841 393 C 841 402.3888416 804.9589264 410 760.5 410 C 716.0410736 410 680 402.3888416 680 393 Z"/></g><g transform="translate(-336,-151) scale(1,1)"><path fill="none" stroke="#000000" d="M 680 393 C 680 383.6111584 716.0410736 376 760.5 376 C 804.9589264 376 841 383.6111584 841 393 C 841 402.3888416 804.9589264 410 760.5 410 C 716.0410736 410 680 402.3888416 680 393 Z" stroke-miterlimit="10"/></g><g transform="translate(-336,-151) scale(1,1)"><g><path fill="none" stroke="none"/><text fill="#000000" stroke="none" font-family="Arial" font-size="13px" font-style="normal" font-weight="bold" text-decoration="none" x="708.119140625" y="399">Tìm kiếm bài viết</text></g></g><g transform="translate(-336,-151) scale(1,1)"><path fill="none" stroke="#000000" d="M 736 375 L 649 308" stroke-miterlimit="10" stroke-dasharray="3"/></g><g transform="translate(-336,-151) scale(1,1)"><path fill="none" stroke="#000000" d="M 659.6201786670191 310.8656247278026 L 649 308 L 654.4832976754968 317.5359030302269" stroke-miterlimit="10"/></g><g transform="translate(-336,-151) scale(1,1)"><g><path fill="none" stroke="none"/><text fill="#000000" stroke="none" font-family="Arial" font-size="13px" font-style="normal" font-weight="normal" text-decoration="none" x="646.5" y="369">«extend»</text></g></g><g transform="translate(-336,-151) scale(1,1)"><path fill="#C0C0C0" stroke="none" d="M 431 200 C 431 190.6111584 456.743624 183 488.5 183 C 520.256376 183 546 190.6111584 546 200 C 546 209.3888416 520.256376 217 488.5 217 C 456.743624 217 431 209.3888416 431 200 Z" opacity="0.2"/></g><g transform="translate(-336,-151) scale(1,1)"><path fill="#ffffff" stroke="none" d="M 424 193 C 424 183.6111584 449.743624 176 481.5 176 C 513.256376 176 539 183.6111584 539 193 C 539 202.3888416 513.256376 210 481.5 210 C 449.743624 210 424 202.3888416 424 193 Z"/></g><g transform="translate(-336,-151) scale(1,1)"><path fill="none" stroke="#000000" d="M 424 193 C 424 183.6111584 449.743624 176 481.5 176 C 513.256376 176 539 183.6111584 539 193 C 539 202.3888416 513.256376 210 481.5 210 C 449.743624 210 424 202.3888416 424 193 Z" stroke-miterlimit="10"/></g><g transform="translate(-336,-151) scale(1,1)"><g><path fill="none" stroke="none"/><text fill="#000000" stroke="none" font-family="Arial" font-size="13px" font-style="normal" font-weight="bold" text-decoration="none" x="445.37548828125" y="199">Xóa bài viết</text></g></g><g transform="translate(-336,-151) scale(1,1)"><path fill="none" stroke="#000000" d="M 508 211 L 598 272" stroke-miterlimit="10" stroke-dasharray="3"/></g><g transform="translate(-336,-151) scale(1,1)"><path fill="none" stroke="#000000" d="M 587.2257756284756 269.782774438166 L 598 272 L 591.9492881150628 262.8136576546767" stroke-miterlimit="10"/></g><g transform="translate(-336,-151) scale(1,1)"><g><path fill="none" stroke="none"/><text fill="#000000" stroke="none" font-family="Arial" font-size="13px" font-style="normal" font-weight="normal" text-decoration="none" x="543.5" y="221">«extend»</text></g></g></g></svg>