<svg version="1.1" xmlns="http://www.w3.org/2000/svg" xmlns:xlink="http://www.w3.org/1999/xlink" width="426" height="350"><defs/><g><g transform="translate(-406,-247) scale(1,1)"><path fill="#ffffff" stroke="none" d="M 451.55070774147725 409.68 C 451.55070774147725 404.886167936 455.43655006642274 401 460.22998046875 401 C 465.02341087107726 401 468.90925319602275 404.886167936 468.90925319602275 409.68 C 468.90925319602275 414.473832064 465.02341087107726 418.36 460.22998046875 418.36 C 455.43655006642274 418.36 451.55070774147725 414.473832064 451.55070774147725 409.68 Z"/></g><g transform="translate(-406,-247) scale(1,1)"><path fill="none" stroke="#000000" d="M 451.55070774147725 409.68 C 451.55070774147725 404.886167936 455.43655006642274 401 460.22998046875 401 C 465.02341087107726 401 468.90925319602275 404.886167936 468.90925319602275 409.68 C 468.90925319602275 414.473832064 465.02341087107726 418.36 460.22998046875 418.36 C 455.43655006642274 418.36 451.55070774147725 414.473832064 451.55070774147725 409.68 Z" stroke-miterlimit="10"/></g><g transform="translate(-406,-247) scale(1,1)"><path fill="none" stroke="#000000" d="M 460.22998046875 418.36 L 460.22998046875 435.64" stroke-miterlimit="10"/></g><g transform="translate(-406,-247) scale(1,1)"><path fill="none" stroke="#000000" d="M 451.04016228693183 424.84 L 469.41979865056817 424.84" stroke-miterlimit="10"/></g><g transform="translate(-406,-247) scale(1,1)"><path fill="none" stroke="#000000" d="M 460.22998046875 435.64 L 447.46634410511365 453" stroke-miterlimit="10"/></g><g transform="translate(-406,-247) scale(1,1)"><path fill="none" stroke="#000000" d="M 460.22998046875 435.64 L 472.99361683238635 453" stroke-miterlimit="10"/></g><g transform="translate(-406,-247) scale(1,1)"><g><path fill="none" stroke="none"/><text fill="#000000" stroke="none" font-family="Arial" font-size="13px" font-style="normal" font-weight="bold" text-decoration="none" x="420.5" y="472">Quản trị viên</text></g></g><g transform="translate(-406,-247) scale(1,1)"><path fill="#C0C0C0" stroke="none" d="M 623 433 C 623 423.6111584 660.1603616 416 706 416 C 751.8396384 416 789 423.6111584 789 433 C 789 442.3888416 751.8396384 450 706 450 C 660.1603616 450 623 442.3888416 623 433 Z" opacity="0.2"/></g><g transform="translate(-406,-247) scale(1,1)"><path fill="#ffffff" stroke="none" d="M 616 426 C 616 416.6111584 653.1603616 409 699 409 C 744.8396384 409 782 416.6111584 782 426 C 782 435.3888416 744.8396384 443 699 443 C 653.1603616 443 616 435.3888416 616 426 Z"/></g><g transform="translate(-406,-247) scale(1,1)"><path fill="none" stroke="#000000" d="M 616 426 C 616 416.6111584 653.1603616 409 699 409 C 744.8396384 409 782 416.6111584 782 426 C 782 435.3888416 744.8396384 443 699 443 C 653.1603616 443 616 435.3888416 616 426 Z" stroke-miterlimit="10"/></g><g transform="translate(-406,-247) scale(1,1)"><g><path fill="none" stroke="none"/><text fill="#000000" stroke="none" font-family="Arial" font-size="13px" font-style="normal" font-weight="bold" text-decoration="none" x="644.82275390625" y="431.5">Quản lý tài khoản</text></g></g><g transform="translate(-406,-247) scale(1,1)"><path fill="none" stroke="#000000" d="M 505 437 L 615 431" stroke-miterlimit="10"/></g><g transform="translate(-406,-247) scale(1,1)"><path fill="#C0C0C0" stroke="none" d="M 679 521 C 679 511.6111584 712.57864 504 754 504 C 795.42136 504 829 511.6111584 829 521 C 829 530.3888416 795.42136 538 754 538 C 712.57864 538 679 530.3888416 679 521 Z" opacity="0.2"/></g><g transform="translate(-406,-247) scale(1,1)"><path fill="#ffffff" stroke="none" d="M 672 514 C 672 504.6111584 705.57864 497 747 497 C 788.42136 497 822 504.6111584 822 514 C 822 523.3888416 788.42136 531 747 531 C 705.57864 531 672 523.3888416 672 514 Z"/></g><g transform="translate(-406,-247) scale(1,1)"><path fill="none" stroke="#000000" d="M 672 514 C 672 504.6111584 705.57864 497 747 497 C 788.42136 497 822 504.6111584 822 514 C 822 523.3888416 788.42136 531 747 531 C 705.57864 531 672 523.3888416 672 514 Z" stroke-miterlimit="10"/></g><g transform="translate(-406,-247) scale(1,1)"><g><path fill="none" stroke="none"/><text fill="#000000" stroke="none" font-family="Arial" font-size="13px" font-style="normal" font-weight="bold" text-decoration="none" x="698.602294921875" y="519.5">Duyệt tài khoản</text></g></g><g transform="translate(-406,-247) scale(1,1)"><path fill="none" stroke="#000000" d="M 737 496 L 709 444" stroke-miterlimit="10" stroke-dasharray="3"/></g><g transform="translate(-406,-247) scale(1,1)"><path fill="none" stroke="#000000" d="M 717.5244810803433 450.95220988685384 L 709 444 L 710.1117636227807 454.94367313323374" stroke-miterlimit="10"/></g><g transform="translate(-406,-247) scale(1,1)"><g><path fill="none" stroke="none"/><text fill="#000000" stroke="none" font-family="Arial" font-size="13px" font-style="normal" font-weight="normal" text-decoration="none" x="669.5" y="489">«extend»</text></g></g><g transform="translate(-406,-247) scale(1,1)"><path fill="none" stroke="#000000" d="M 705 292 L 700 408" stroke-miterlimit="10" stroke-dasharray="3"/></g><g transform="translate(-406,-247) scale(1,1)"><path fill="none" stroke="#000000" d="M 696.2320272217448 397.6654762498542 L 700 408 L 704.643252721231 398.0280290731079" stroke-miterlimit="10"/></g><g transform="translate(-406,-247) scale(1,1)"><g><path fill="none" stroke="none"/><text fill="#000000" stroke="none" font-family="Arial" font-size="13px" font-style="normal" font-weight="normal" text-decoration="none" x="704.5" y="356">«extend»</text></g></g><g transform="translate(-406,-247) scale(1,1)"><path fill="#C0C0C0" stroke="none" d="M 439 337 C 439 327.6111584 478.8466528 320 528 320 C 577.1533472 320 617 327.6111584 617 337 C 617 346.3888416 577.1533472 354 528 354 C 478.8466528 354 439 346.3888416 439 337 Z" opacity="0.2"/></g><g transform="translate(-406,-247) scale(1,1)"><path fill="#ffffff" stroke="none" d="M 432 330 C 432 320.6111584 471.8466528 313 521 313 C 570.1533472 313 610 320.6111584 610 330 C 610 339.3888416 570.1533472 347 521 347 C 471.8466528 347 432 339.3888416 432 330 Z"/></g><g transform="translate(-406,-247) scale(1,1)"><path fill="none" stroke="#000000" d="M 432 330 C 432 320.6111584 471.8466528 313 521 313 C 570.1533472 313 610 320.6111584 610 330 C 610 339.3888416 570.1533472 347 521 347 C 471.8466528 347 432 339.3888416 432 330 Z" stroke-miterlimit="10"/></g><g transform="translate(-406,-247) scale(1,1)"><g><path fill="none" stroke="none"/><text fill="#000000" stroke="none" font-family="Arial" font-size="13px" font-style="normal" font-weight="bold" text-decoration="none" x="462.484130859375" y="336">Tìm kiếm tài khoản</text></g></g><g transform="translate(-406,-247) scale(1,1)"><path fill="none" stroke="#000000" d="M 554 348 L 666 408" stroke-miterlimit="10" stroke-dasharray="3"/></g><g transform="translate(-406,-247) scale(1,1)"><path fill="none" stroke="#000000" d="M 655.0539812503346 406.91157290920637 L 666 408 L 659.0296300918438 399.4903617383892" stroke-miterlimit="10"/></g><g transform="translate(-406,-247) scale(1,1)"><g><path fill="none" stroke="none"/><text fill="#000000" stroke="none" font-family="Arial" font-size="13px" font-style="normal" font-weight="normal" text-decoration="none" x="597.5" y="356">«extend»</text></g></g><g transform="translate(-406,-247) scale(1,1)"><path fill="#C0C0C0" stroke="none" d="M 439 577 C 439 567.6111584 487.8009568 560 548 560 C 608.1990432 560 657 567.6111584 657 577 C 657 586.3888416 608.1990432 594 548 594 C 487.8009568 594 439 586.3888416 439 577 Z" opacity="0.2"/></g><g transform="translate(-406,-247) scale(1,1)"><path fill="#ffffff" stroke="none" d="M 432 570 C 432 560.6111584 480.8009568 553 541 553 C 601.1990432 553 650 560.6111584 650 570 C 650 579.3888416 601.1990432 587 541 587 C 480.8009568 587 432 579.3888416 432 570 Z"/></g><g transform="translate(-406,-247) scale(1,1)"><path fill="none" stroke="#000000" d="M 432 570 C 432 560.6111584 480.8009568 553 541 553 C 601.1990432 553 650 560.6111584 650 570 C 650 579.3888416 601.1990432 587 541 587 C 480.8009568 587 432 579.3888416 432 570 Z" stroke-miterlimit="10"/></g><g transform="translate(-406,-247) scale(1,1)"><g><path fill="none" stroke="none"/><text fill="#000000" stroke="none" font-family="Arial" font-size="13px" font-style="normal" font-weight="bold" text-decoration="none" x="468.405029296875" y="575.5">Sửa thông tin tài khoản</text></g></g><g transform="translate(-406,-247) scale(1,1)"><path fill="none" stroke="#000000" d="M 561 552 L 679 444" stroke-miterlimit="10" stroke-dasharray="3"/></g><g transform="translate(-406,-247) scale(1,1)"><path fill="none" stroke="#000000" d="M 674.345360718858 453.96666108395635 L 679 444 L 668.6611793620737 447.7561666385808" stroke-miterlimit="10"/></g><g transform="translate(-406,-247) scale(1,1)"><g><path fill="none" stroke="none"/><text fill="#000000" stroke="none" font-family="Arial" font-size="13px" font-style="normal" font-weight="normal" text-decoration="none" x="572.5" y="480">«extend»</text></g></g><g transform="translate(-406,-247) scale(1,1)"><path fill="#C0C0C0" stroke="none" d="M 647 281 C 647 271.6111584 676.5492032 264 713 264 C 749.4507968 264 779 271.6111584 779 281 C 779 290.3888416 749.4507968 298 713 298 C 676.5492032 298 647 290.3888416 647 281 Z" opacity="0.2"/></g><g transform="translate(-406,-247) scale(1,1)"><path fill="#ffffff" stroke="none" d="M 640 274 C 640 264.6111584 669.5492032 257 706 257 C 742.4507968 257 772 264.6111584 772 274 C 772 283.3888416 742.4507968 291 706 291 C 669.5492032 291 640 283.3888416 640 274 Z"/></g><g transform="translate(-406,-247) scale(1,1)"><path fill="none" stroke="#000000" d="M 640 274 C 640 264.6111584 669.5492032 257 706 257 C 742.4507968 257 772 264.6111584 772 274 C 772 283.3888416 742.4507968 291 706 291 C 669.5492032 291 640 283.3888416 640 274 Z" stroke-miterlimit="10"/></g><g transform="translate(-406,-247) scale(1,1)"><g><path fill="none" stroke="none"/><text fill="#000000" stroke="none" font-family="Arial" font-size="13px" font-style="normal" font-weight="bold" text-decoration="none" x="663.740478515625" y="279.5">Xóa tài khoản</text></g></g></g></svg>