<svg version="1.1" xmlns="http://www.w3.org/2000/svg" xmlns:xlink="http://www.w3.org/1999/xlink" width="235" height="268"><defs/><g><g transform="translate(-634,-342) scale(1,1)"><path fill="#ffffff" stroke="none" d="M 679.5507077414773 361.68 C 679.5507077414773 356.886167936 683.4365500664227 353 688.22998046875 353 C 693.0234108710773 353 696.9092531960227 356.886167936 696.9092531960227 361.68 C 696.9092531960227 366.473832064 693.0234108710773 370.36 688.22998046875 370.36 C 683.4365500664227 370.36 679.5507077414773 366.473832064 679.5507077414773 361.68 Z"/></g><g transform="translate(-634,-342) scale(1,1)"><path fill="none" stroke="#000000" d="M 679.5507077414773 361.68 C 679.5507077414773 356.886167936 683.4365500664227 353 688.22998046875 353 C 693.0234108710773 353 696.9092531960227 356.886167936 696.9092531960227 361.68 C 696.9092531960227 366.473832064 693.0234108710773 370.36 688.22998046875 370.36 C 683.4365500664227 370.36 679.5507077414773 366.473832064 679.5507077414773 361.68 Z" stroke-miterlimit="10"/></g><g transform="translate(-634,-342) scale(1,1)"><path fill="none" stroke="#000000" d="M 688.22998046875 370.36 L 688.22998046875 387.64" stroke-miterlimit="10"/></g><g transform="translate(-634,-342) scale(1,1)"><path fill="none" stroke="#000000" d="M 679.0401622869318 376.84 L 697.4197986505682 376.84" stroke-miterlimit="10"/></g><g transform="translate(-634,-342) scale(1,1)"><path fill="none" stroke="#000000" d="M 688.22998046875 387.64 L 675.4663441051136 405" stroke-miterlimit="10"/></g><g transform="translate(-634,-342) scale(1,1)"><path fill="none" stroke="#000000" d="M 688.22998046875 387.64 L 700.9936168323864 405" stroke-miterlimit="10"/></g><g transform="translate(-634,-342) scale(1,1)"><g><path fill="none" stroke="none"/><text fill="#000000" stroke="none" font-family="Arial" font-size="13px" font-style="normal" font-weight="bold" text-decoration="none" x="648.5" y="424">Quản trị viên</text></g></g><g transform="translate(-634,-342) scale(1,1)"><path fill="none" stroke="#000000" d="M 733 432 L 766 461" stroke-miterlimit="10"/></g><g transform="translate(-634,-342) scale(1,1)"><path fill="#C0C0C0" stroke="none" d="M 723 486 C 723 476.6111584 754.340064 469 793 469 C 831.659936 469 863 476.6111584 863 486 C 863 495.3888416 831.659936 503 793 503 C 754.340064 503 723 495.3888416 723 486 Z" opacity="0.2"/></g><g transform="translate(-634,-342) scale(1,1)"><path fill="#ffffff" stroke="none" d="M 716 479 C 716 469.6111584 747.340064 462 786 462 C 824.659936 462 856 469.6111584 856 479 C 856 488.3888416 824.659936 496 786 496 C 747.340064 496 716 488.3888416 716 479 Z"/></g><g transform="translate(-634,-342) scale(1,1)"><path fill="none" stroke="#000000" d="M 716 479 C 716 469.6111584 747.340064 462 786 462 C 824.659936 462 856 469.6111584 856 479 C 856 488.3888416 824.659936 496 786 496 C 747.340064 496 716 488.3888416 716 479 Z" stroke-miterlimit="10"/></g><g transform="translate(-634,-342) scale(1,1)"><g><path fill="none" stroke="none"/><text fill="#000000" stroke="none" font-family="Arial" font-size="13px" font-style="normal" font-weight="bold" text-decoration="none" x="740.84912109375" y="484.5">Tạo công thức</text></g></g><g transform="translate(-634,-342) scale(1,1)"><path fill="none" stroke="#000000" d="M 787 565 L 786 497" stroke-miterlimit="10" stroke-dasharray="3"/></g><g transform="translate(-634,-342) scale(1,1)"><path fill="none" stroke="#000000" d="M 790.3584975915118 507.0996781505544 L 786 497 L 781.9403722946846 507.2234741108019" stroke-miterlimit="10"/></g><g transform="translate(-634,-342) scale(1,1)"><g><path fill="none" stroke="none"/><text fill="#000000" stroke="none" font-family="Arial" font-size="13px" font-style="normal" font-weight="normal" text-decoration="none" x="729.5" y="535">«extend»</text></g></g><g transform="translate(-634,-342) scale(1,1)"><path fill="#C0C0C0" stroke="none" d="M 723 590 C 723 580.6111584 755.0116368 573 794.5 573 C 833.9883632 573 866 580.6111584 866 590 C 866 599.3888416 833.9883632 607 794.5 607 C 755.0116368 607 723 599.3888416 723 590 Z" opacity="0.2"/></g><g transform="translate(-634,-342) scale(1,1)"><path fill="#ffffff" stroke="none" d="M 716 583 C 716 573.6111584 748.0116368 566 787.5 566 C 826.9883632 566 859 573.6111584 859 583 C 859 592.3888416 826.9883632 600 787.5 600 C 748.0116368 600 716 592.3888416 716 583 Z"/></g><g transform="translate(-634,-342) scale(1,1)"><path fill="none" stroke="#000000" d="M 716 583 C 716 573.6111584 748.0116368 566 787.5 566 C 826.9883632 566 859 573.6111584 859 583 C 859 592.3888416 826.9883632 600 787.5 600 C 748.0116368 600 716 592.3888416 716 583 Z" stroke-miterlimit="10"/></g><g transform="translate(-634,-342) scale(1,1)"><g><path fill="none" stroke="none"/><text fill="#000000" stroke="none" font-family="Arial" font-size="13px" font-style="normal" font-weight="bold" text-decoration="none" x="741.247802734375" y="588.5">Sửa công thức</text></g></g></g></svg>