<svg version="1.1" xmlns="http://www.w3.org/2000/svg" xmlns:xlink="http://www.w3.org/1999/xlink" width="1314" height="902"><defs/><g><g transform="translate(2,-54) scale(1,1)"><path fill="#ffffff" stroke="none" d="M 435.55070774147725 425.68 C 435.55070774147725 420.886167936 439.43655006642274 417 444.22998046875 417 C 449.02341087107726 417 452.90925319602275 420.886167936 452.90925319602275 425.68 C 452.90925319602275 430.473832064 449.02341087107726 434.36 444.22998046875 434.36 C 439.43655006642274 434.36 435.55070774147725 430.473832064 435.55070774147725 425.68 Z"/></g><g transform="translate(2,-54) scale(1,1)"><path fill="none" stroke="#000000" d="M 435.55070774147725 425.68 C 435.55070774147725 420.886167936 439.43655006642274 417 444.22998046875 417 C 449.02341087107726 417 452.90925319602275 420.886167936 452.90925319602275 425.68 C 452.90925319602275 430.473832064 449.02341087107726 434.36 444.22998046875 434.36 C 439.43655006642274 434.36 435.55070774147725 430.473832064 435.55070774147725 425.68 Z" stroke-miterlimit="10"/></g><g transform="translate(2,-54) scale(1,1)"><path fill="none" stroke="#000000" d="M 444.22998046875 434.36 L 444.22998046875 451.64" stroke-miterlimit="10"/></g><g transform="translate(2,-54) scale(1,1)"><path fill="none" stroke="#000000" d="M 435.04016228693183 440.84 L 453.41979865056817 440.84" stroke-miterlimit="10"/></g><g transform="translate(2,-54) scale(1,1)"><path fill="none" stroke="#000000" d="M 444.22998046875 451.64 L 431.46634410511365 469" stroke-miterlimit="10"/></g><g transform="translate(2,-54) scale(1,1)"><path fill="none" stroke="#000000" d="M 444.22998046875 451.64 L 456.99361683238635 469" stroke-miterlimit="10"/></g><g transform="translate(2,-54) scale(1,1)"><g><path fill="none" stroke="none"/><text fill="#000000" stroke="none" font-family="Arial" font-size="13px" font-style="normal" font-weight="bold" text-decoration="none" x="404.5" y="488">Quản trị viên</text></g></g><g transform="translate(2,-54) scale(1,1)"><path fill="#ffffff" stroke="none" d="M 433.30681125710225 265.68 C 433.30681125710225 260.886167936 437.19265358204774 257 441.986083984375 257 C 446.77951438670226 257 450.66535671164775 260.886167936 450.66535671164775 265.68 C 450.66535671164775 270.473832064 446.77951438670226 274.36 441.986083984375 274.36 C 437.19265358204774 274.36 433.30681125710225 270.473832064 433.30681125710225 265.68 Z"/></g><g transform="translate(2,-54) scale(1,1)"><path fill="none" stroke="#000000" d="M 433.30681125710225 265.68 C 433.30681125710225 260.886167936 437.19265358204774 257 441.986083984375 257 C 446.77951438670226 257 450.66535671164775 260.886167936 450.66535671164775 265.68 C 450.66535671164775 270.473832064 446.77951438670226 274.36 441.986083984375 274.36 C 437.19265358204774 274.36 433.30681125710225 270.473832064 433.30681125710225 265.68 Z" stroke-miterlimit="10"/></g><g transform="translate(2,-54) scale(1,1)"><path fill="none" stroke="#000000" d="M 441.986083984375 274.36 L 441.986083984375 291.64" stroke-miterlimit="10"/></g><g transform="translate(2,-54) scale(1,1)"><path fill="none" stroke="#000000" d="M 432.79626580255683 280.84 L 451.17590216619317 280.84" stroke-miterlimit="10"/></g><g transform="translate(2,-54) scale(1,1)"><path fill="none" stroke="#000000" d="M 441.986083984375 291.64 L 429.22244762073865 309" stroke-miterlimit="10"/></g><g transform="translate(2,-54) scale(1,1)"><path fill="none" stroke="#000000" d="M 441.986083984375 291.64 L 454.74972034801135 309" stroke-miterlimit="10"/></g><g transform="translate(2,-54) scale(1,1)"><g><path fill="none" stroke="none"/><text fill="#000000" stroke="none" font-family="Arial" font-size="13px" font-style="normal" font-weight="bold" text-decoration="none" x="404.5" y="328">Người dùng</text></g></g><g transform="translate(2,-54) scale(1,1)"><path fill="#C0C0C0" stroke="none" d="M 399 128 C 399 118.6111584 423.1766208 111 453 111 C 482.8233792 111 507 118.6111584 507 128 C 507 137.3888416 482.8233792 145 453 145 C 423.1766208 145 399 137.3888416 399 128 Z" opacity="0.2"/></g><g transform="translate(2,-54) scale(1,1)"><path fill="#ffffff" stroke="none" d="M 392 121 C 392 111.6111584 416.1766208 104 446 104 C 475.8233792 104 500 111.6111584 500 121 C 500 130.3888416 475.8233792 138 446 138 C 416.1766208 138 392 130.3888416 392 121 Z"/></g><g transform="translate(2,-54) scale(1,1)"><path fill="none" stroke="#000000" d="M 392 121 C 392 111.6111584 416.1766208 104 446 104 C 475.8233792 104 500 111.6111584 500 121 C 500 130.3888416 475.8233792 138 446 138 C 416.1766208 138 392 130.3888416 392 121 Z" stroke-miterlimit="10"/></g><g transform="translate(2,-54) scale(1,1)"><g><path fill="none" stroke="none"/><text fill="#000000" stroke="none" font-family="Arial" font-size="13px" font-style="normal" font-weight="bold" text-decoration="none" x="412.417724609375" y="126.5">Đăng nhập</text></g></g><g transform="translate(2,-54) scale(1,1)"><path fill="none" stroke="#000000" d="M 445 256 L 445 138" stroke-miterlimit="10"/></g><g transform="translate(2,-54) scale(1,1)"><path fill="#C0C0C0" stroke="none" d="M 215 624 C 215 614.6111584 251.0410736 607 295.5 607 C 339.9589264 607 376 614.6111584 376 624 C 376 633.3888416 339.9589264 641 295.5 641 C 251.0410736 641 215 633.3888416 215 624 Z" opacity="0.2"/></g><g transform="translate(2,-54) scale(1,1)"><path fill="#ffffff" stroke="none" d="M 208 617 C 208 607.6111584 244.0410736 600 288.5 600 C 332.9589264 600 369 607.6111584 369 617 C 369 626.3888416 332.9589264 634 288.5 634 C 244.0410736 634 208 626.3888416 208 617 Z"/></g><g transform="translate(2,-54) scale(1,1)"><path fill="none" stroke="#000000" d="M 208 617 C 208 607.6111584 244.0410736 600 288.5 600 C 332.9589264 600 369 607.6111584 369 617 C 369 626.3888416 332.9589264 634 288.5 634 C 244.0410736 634 208 626.3888416 208 617 Z" stroke-miterlimit="10"/></g><g transform="translate(2,-54) scale(1,1)"><g><path fill="none" stroke="none"/><text fill="#000000" stroke="none" font-family="Arial" font-size="13px" font-style="normal" font-weight="bold" text-decoration="none" x="236.1318359375" y="622.5">Quản lý bài đăng</text></g></g><g transform="translate(2,-54) scale(1,1)"><path fill="none" stroke="#000000" d="M 405 496 L 305 599" stroke-miterlimit="10"/></g><g transform="translate(2,-54) scale(1,1)"><path fill="#C0C0C0" stroke="none" d="M 487 632 C 487 622.6111584 509.6096176 615 537.5 615 C 565.3903824 615 588 622.6111584 588 632 C 588 641.3888416 565.3903824 649 537.5 649 C 509.6096176 649 487 641.3888416 487 632 Z" opacity="0.2"/></g><g transform="translate(2,-54) scale(1,1)"><path fill="#ffffff" stroke="none" d="M 480 625 C 480 615.6111584 502.6096176 608 530.5 608 C 558.3903824 608 581 615.6111584 581 625 C 581 634.3888416 558.3903824 642 530.5 642 C 502.6096176 642 480 634.3888416 480 625 Z"/></g><g transform="translate(2,-54) scale(1,1)"><path fill="none" stroke="#000000" d="M 480 625 C 480 615.6111584 502.6096176 608 530.5 608 C 558.3903824 608 581 615.6111584 581 625 C 581 634.3888416 558.3903824 642 530.5 642 C 502.6096176 642 480 634.3888416 480 625 Z" stroke-miterlimit="10"/></g><g transform="translate(2,-54) scale(1,1)"><g><path fill="none" stroke="none"/><text fill="#000000" stroke="none" font-family="Arial" font-size="13px" font-style="normal" font-weight="bold" text-decoration="none" x="503.052734375" y="630.5">Đăng bài</text></g></g><g transform="translate(2,-54) scale(1,1)"><path fill="none" stroke="#000000" d="M 479 623 L 370 620" stroke-miterlimit="10" stroke-dasharray="3"/></g><g transform="translate(2,-54) scale(1,1)"><path fill="none" stroke="#000000" d="M 380.27464229880064 616.0716764858663 L 370 620 L 380.04301343928665 624.4875250482096" stroke-miterlimit="10"/></g><g transform="translate(2,-54) scale(1,1)"><g><path fill="none" stroke="none"/><text fill="#000000" stroke="none" font-family="Arial" font-size="13px" font-style="normal" font-weight="normal" text-decoration="none" x="396.5" y="655">«extend»</text></g></g><g transform="translate(2,-54) scale(1,1)"><path fill="#C0C0C0" stroke="none" d="M 447 720 C 447 710.6111584 475.8776304 703 511.5 703 C 547.1223696 703 576 710.6111584 576 720 C 576 729.3888416 547.1223696 737 511.5 737 C 475.8776304 737 447 729.3888416 447 720 Z" opacity="0.2"/></g><g transform="translate(2,-54) scale(1,1)"><path fill="#ffffff" stroke="none" d="M 440 713 C 440 703.6111584 468.8776304 696 504.5 696 C 540.1223696 696 569 703.6111584 569 713 C 569 722.3888416 540.1223696 730 504.5 730 C 468.8776304 730 440 722.3888416 440 713 Z"/></g><g transform="translate(2,-54) scale(1,1)"><path fill="none" stroke="#000000" d="M 440 713 C 440 703.6111584 468.8776304 696 504.5 696 C 540.1223696 696 569 703.6111584 569 713 C 569 722.3888416 540.1223696 730 504.5 730 C 468.8776304 730 440 722.3888416 440 713 Z" stroke-miterlimit="10"/></g><g transform="translate(2,-54) scale(1,1)"><g><path fill="none" stroke="none"/><text fill="#000000" stroke="none" font-family="Arial" font-size="13px" font-style="normal" font-weight="bold" text-decoration="none" x="463.313232421875" y="718.5">Sửa bài đăng</text></g></g><g transform="translate(2,-54) scale(1,1)"><path fill="none" stroke="#000000" d="M 464 695 L 329 635" stroke-miterlimit="10" stroke-dasharray="3"/></g><g transform="translate(2,-54) scale(1,1)"><path fill="none" stroke="#000000" d="M 339.9964167340228 635.280747238106 L 329 635 L 336.5771225655166 642.9741591172449" stroke-miterlimit="10"/></g><g transform="translate(2,-54) scale(1,1)"><g><path fill="none" stroke="none"/><text fill="#000000" stroke="none" font-family="Arial" font-size="13px" font-style="normal" font-weight="normal" text-decoration="none" x="356.5" y="697">«extend»</text></g></g><g transform="translate(2,-54) scale(1,1)"><path fill="#C0C0C0" stroke="none" d="M 79 712 C 79 702.6111584 101.6096176 695 129.5 695 C 157.3903824 695 180 702.6111584 180 712 C 180 721.3888416 157.3903824 729 129.5 729 C 101.6096176 729 79 721.3888416 79 712 Z" opacity="0.2"/></g><g transform="translate(2,-54) scale(1,1)"><path fill="#ffffff" stroke="none" d="M 72 705 C 72 695.6111584 94.6096176 688 122.5 688 C 150.3903824 688 173 695.6111584 173 705 C 173 714.3888416 150.3903824 722 122.5 722 C 94.6096176 722 72 714.3888416 72 705 Z"/></g><g transform="translate(2,-54) scale(1,1)"><path fill="none" stroke="#000000" d="M 72 705 C 72 695.6111584 94.6096176 688 122.5 688 C 150.3903824 688 173 695.6111584 173 705 C 173 714.3888416 150.3903824 722 122.5 722 C 94.6096176 722 72 714.3888416 72 705 Z" stroke-miterlimit="10"/></g><g transform="translate(2,-54) scale(1,1)"><g><path fill="none" stroke="none"/><text fill="#000000" stroke="none" font-family="Arial" font-size="13px" font-style="normal" font-weight="bold" text-decoration="none" x="99.3818359375" y="710.5">Xóa bài</text></g></g><g transform="translate(2,-54) scale(1,1)"><path fill="none" stroke="#000000" d="M 156 687 L 254 635" stroke-miterlimit="10" stroke-dasharray="3"/></g><g transform="translate(2,-54) scale(1,1)"><path fill="none" stroke="#000000" d="M 246.9958786285449 643.4818797335217 L 254 635 L 243.04974360520853 636.0449329587724" stroke-miterlimit="10"/></g><g transform="translate(2,-54) scale(1,1)"><g><path fill="none" stroke="none"/><text fill="#000000" stroke="none" font-family="Arial" font-size="13px" font-style="normal" font-weight="normal" text-decoration="none" x="163.5" y="639">«extend»</text></g></g><g transform="translate(2,-54) scale(1,1)"><path fill="#C0C0C0" stroke="none" d="M 255 769 C 255 754.6405952 281.862912 743 315 743 C 348.137088 743 375 754.6405952 375 769 C 375 783.3594048 348.137088 795 315 795 C 281.862912 795 255 783.3594048 255 769 Z" opacity="0.2"/></g><g transform="translate(2,-54) scale(1,1)"><path fill="#ffffff" stroke="none" d="M 248 762 C 248 747.6405952 274.862912 736 308 736 C 341.137088 736 368 747.6405952 368 762 C 368 776.3594048 341.137088 788 308 788 C 274.862912 788 248 776.3594048 248 762 Z"/></g><g transform="translate(2,-54) scale(1,1)"><path fill="none" stroke="#000000" d="M 248 762 C 248 747.6405952 274.862912 736 308 736 C 341.137088 736 368 747.6405952 368 762 C 368 776.3594048 341.137088 788 308 788 C 274.862912 788 248 776.3594048 248 762 Z" stroke-miterlimit="10"/></g><g transform="translate(2,-54) scale(1,1)"><g><path fill="none" stroke="none"/><text fill="#000000" stroke="none" font-family="Arial" font-size="13px" font-style="normal" font-weight="bold" text-decoration="none" x="279.82275390625" y="761.5">Tìm kiếm</text><text fill="#000000" stroke="none" font-family="Arial" font-size="13px" font-style="normal" font-weight="bold" text-decoration="none" x="281.2763671875" y="774">bài đăng</text></g></g><g transform="translate(2,-54) scale(1,1)"><path fill="none" stroke="#000000" d="M 304 735 L 290 635" stroke-miterlimit="10" stroke-dasharray="3"/></g><g transform="translate(2,-54) scale(1,1)"><path fill="none" stroke="#000000" d="M 295.57789413086306 644.4808806059818 L 290 635 L 287.2401717965641 645.6481617327837" stroke-miterlimit="10"/></g><g transform="translate(2,-54) scale(1,1)"><g><path fill="none" stroke="none"/><text fill="#000000" stroke="none" font-family="Arial" font-size="13px" font-style="normal" font-weight="normal" text-decoration="none" x="240.5" y="694">«extend»</text></g></g><g transform="translate(2,-54) scale(1,1)"><path fill="none" stroke="#000000" d="M 174 721 L 247 743" stroke-miterlimit="10" stroke-dasharray="3"/></g><g transform="translate(2,-54) scale(1,1)"><path fill="none" stroke="#000000" d="M 236.05493881577752 744.0980144232324 L 247 743 L 238.4842595716264 736.0370864606429" stroke-miterlimit="10"/></g><g transform="translate(2,-54) scale(1,1)"><g><path fill="none" stroke="none"/><text fill="#000000" stroke="none" font-family="Arial" font-size="13px" font-style="normal" font-weight="normal" text-decoration="none" x="174.5" y="752">«include»</text></g></g><g transform="translate(2,-54) scale(1,1)"><path fill="none" stroke="#000000" d="M 439 729 L 369 747" stroke-miterlimit="10" stroke-dasharray="3"/></g><g transform="translate(2,-54) scale(1,1)"><path fill="none" stroke="#000000" d="M 377.7941360968292 740.3921886898577 L 369 747 L 379.8908214549482 748.5459650825425" stroke-miterlimit="10"/></g><g transform="translate(2,-54) scale(1,1)"><g><path fill="none" stroke="none"/><text fill="#000000" stroke="none" font-family="Arial" font-size="13px" font-style="normal" font-weight="normal" text-decoration="none" x="383.5" y="772">«include»</text></g></g><g transform="translate(2,-54) scale(1,1)"><path fill="none" stroke="#000000" d="M 442 416 L 442 335" stroke-miterlimit="10"/></g><g transform="translate(2,-54) scale(1,1)"><path fill="#FFFFFF" stroke="none" d="M 450.419035512032 355.3253497152483 L 442 335 L 433.580964487968 355.3253497152483"/></g><g transform="translate(2,-54) scale(1,1)"><path fill="none" stroke="#000000" d="M 450.419035512032 355.3253497152483 L 442 335 L 433.580964487968 355.3253497152483 L 450.419035512032 355.3253497152483" stroke-miterlimit="10"/></g><g transform="translate(2,-54) scale(1,1)"><path fill="#C0C0C0" stroke="none" d="M 599 192 C 599 182.6111584 638.17508 175 686.5 175 C 734.82492 175 774 182.6111584 774 192 C 774 201.3888416 734.82492 209 686.5 209 C 638.17508 209 599 201.3888416 599 192 Z" opacity="0.2"/></g><g transform="translate(2,-54) scale(1,1)"><path fill="#ffffff" stroke="none" d="M 592 185 C 592 175.6111584 631.17508 168 679.5 168 C 727.82492 168 767 175.6111584 767 185 C 767 194.3888416 727.82492 202 679.5 202 C 631.17508 202 592 194.3888416 592 185 Z"/></g><g transform="translate(2,-54) scale(1,1)"><path fill="none" stroke="#000000" d="M 592 185 C 592 175.6111584 631.17508 168 679.5 168 C 727.82492 168 767 175.6111584 767 185 C 767 194.3888416 727.82492 202 679.5 202 C 631.17508 202 592 194.3888416 592 185 Z" stroke-miterlimit="10"/></g><g transform="translate(2,-54) scale(1,1)"><g><path fill="none" stroke="none"/><text fill="#000000" stroke="none" font-family="Arial" font-size="13px" font-style="normal" font-weight="bold" text-decoration="none" x="622.06640625" y="190.5">Quản lý công thức</text></g></g><g transform="translate(2,-54) scale(1,1)"><path fill="none" stroke="#000000" d="M 485 275 L 640 203" stroke-miterlimit="10"/></g><g transform="translate(2,-54) scale(1,1)"><path fill="#C0C0C0" stroke="none" d="M 615 88 C 615 78.6111584 647.6832096 71 688 71 C 728.3167904 71 761 78.6111584 761 88 C 761 97.3888416 728.3167904 105 688 105 C 647.6832096 105 615 97.3888416 615 88 Z" opacity="0.2"/></g><g transform="translate(2,-54) scale(1,1)"><path fill="#ffffff" stroke="none" d="M 608 81 C 608 71.6111584 640.6832096 64 681 64 C 721.3167904 64 754 71.6111584 754 81 C 754 90.3888416 721.3167904 98 681 98 C 640.6832096 98 608 90.3888416 608 81 Z"/></g><g transform="translate(2,-54) scale(1,1)"><path fill="none" stroke="#000000" d="M 608 81 C 608 71.6111584 640.6832096 64 681 64 C 721.3167904 64 754 71.6111584 754 81 C 754 90.3888416 721.3167904 98 681 98 C 640.6832096 98 608 90.3888416 608 81 Z" stroke-miterlimit="10"/></g><g transform="translate(2,-54) scale(1,1)"><g><path fill="none" stroke="none"/><text fill="#000000" stroke="none" font-family="Arial" font-size="13px" font-style="normal" font-weight="bold" text-decoration="none" x="633.675048828125" y="86.5">Xem công thức</text></g></g><g transform="translate(2,-54) scale(1,1)"><path fill="none" stroke="#000000" d="M 681 99 L 679 167" stroke-miterlimit="10" stroke-dasharray="3"/></g><g transform="translate(2,-54) scale(1,1)"><path fill="none" stroke="#000000" d="M 675.0910747917939 156.71796208348508 L 679 167 L 683.5064712133113 156.96547374294147" stroke-miterlimit="10"/></g><g transform="translate(2,-54) scale(1,1)"><g><path fill="none" stroke="none"/><text fill="#000000" stroke="none" font-family="Arial" font-size="13px" font-style="normal" font-weight="normal" text-decoration="none" x="682.5" y="138">«extend»</text></g></g><g transform="translate(2,-54) scale(1,1)"><path fill="#C0C0C0" stroke="none" d="M 871 112 C 871 102.6111584 903.0116368 95 942.5 95 C 981.9883632 95 1014 102.6111584 1014 112 C 1014 121.3888416 981.9883632 129 942.5 129 C 903.0116368 129 871 121.3888416 871 112 Z" opacity="0.2"/></g><g transform="translate(2,-54) scale(1,1)"><path fill="#ffffff" stroke="none" d="M 864 105 C 864 95.6111584 896.0116368 88 935.5 88 C 974.9883632 88 1007 95.6111584 1007 105 C 1007 114.3888416 974.9883632 122 935.5 122 C 896.0116368 122 864 114.3888416 864 105 Z"/></g><g transform="translate(2,-54) scale(1,1)"><path fill="none" stroke="#000000" d="M 864 105 C 864 95.6111584 896.0116368 88 935.5 88 C 974.9883632 88 1007 95.6111584 1007 105 C 1007 114.3888416 974.9883632 122 935.5 122 C 896.0116368 122 864 114.3888416 864 105 Z" stroke-miterlimit="10"/></g><g transform="translate(2,-54) scale(1,1)"><g><path fill="none" stroke="none"/><text fill="#000000" stroke="none" font-family="Arial" font-size="13px" font-style="normal" font-weight="bold" text-decoration="none" x="889.25732421875" y="110.5">Lưu công thức</text></g></g><g transform="translate(2,-54) scale(1,1)"><path fill="none" stroke="#000000" d="M 877 123 L 737 167" stroke-miterlimit="10" stroke-dasharray="3"/></g><g transform="translate(2,-54) scale(1,1)"><path fill="none" stroke="#000000" d="M 745.4330025783793 159.93710629323584 L 737 167 L 747.9572533437884 167.9688132740829" stroke-miterlimit="10"/></g><g transform="translate(2,-54) scale(1,1)"><g><path fill="none" stroke="none"/><text fill="#000000" stroke="none" font-family="Arial" font-size="13px" font-style="normal" font-weight="normal" text-decoration="none" x="795.5" y="158">«extend»</text></g></g><g transform="translate(2,-54) scale(1,1)"><path fill="#C0C0C0" stroke="none" d="M 903 209 C 903 194.6405952 931.6537728 183 967 183 C 1002.3462272 183 1031 194.6405952 1031 209 C 1031 223.3594048 1002.3462272 235 967 235 C 931.6537728 235 903 223.3594048 903 209 Z" opacity="0.2"/></g><g transform="translate(2,-54) scale(1,1)"><path fill="#ffffff" stroke="none" d="M 896 202 C 896 187.6405952 924.6537728 176 960 176 C 995.3462272 176 1024 187.6405952 1024 202 C 1024 216.3594048 995.3462272 228 960 228 C 924.6537728 228 896 216.3594048 896 202 Z"/></g><g transform="translate(2,-54) scale(1,1)"><path fill="none" stroke="#000000" d="M 896 202 C 896 187.6405952 924.6537728 176 960 176 C 995.3462272 176 1024 187.6405952 1024 202 C 1024 216.3594048 995.3462272 228 960 228 C 924.6537728 228 896 216.3594048 896 202 Z" stroke-miterlimit="10"/></g><g transform="translate(2,-54) scale(1,1)"><g><path fill="none" stroke="none"/><text fill="#000000" stroke="none" font-family="Arial" font-size="13px" font-style="normal" font-weight="bold" text-decoration="none" x="931.82275390625" y="201.5">Tìm kiếm</text><text fill="#000000" stroke="none" font-family="Arial" font-size="13px" font-style="normal" font-weight="bold" text-decoration="none" x="928.2109375" y="214">công thức</text></g></g><g transform="translate(2,-54) scale(1,1)"><path fill="none" stroke="#000000" d="M 895 198 L 768 190" stroke-miterlimit="10" stroke-dasharray="3"/></g><g transform="translate(2,-54) scale(1,1)"><path fill="none" stroke="#000000" d="M 778.4072138192042 186.43771133660331 L 768 190 L 777.8779299352494 194.84009299438588" stroke-miterlimit="10"/></g><g transform="translate(2,-54) scale(1,1)"><g><path fill="none" stroke="none"/><text fill="#000000" stroke="none" font-family="Arial" font-size="13px" font-style="normal" font-weight="normal" text-decoration="none" x="802.5" y="211">«extend»</text></g></g><g transform="translate(2,-54) scale(1,1)"><path fill="#C0C0C0" stroke="none" d="M 599 353 C 599 338.6405952 631.2354944 327 671 327 C 710.7645056 327 743 338.6405952 743 353 C 743 367.3594048 710.7645056 379 671 379 C 631.2354944 379 599 367.3594048 599 353 Z" opacity="0.2"/></g><g transform="translate(2,-54) scale(1,1)"><path fill="#ffffff" stroke="none" d="M 592 346 C 592 331.6405952 624.2354944 320 664 320 C 703.7645056 320 736 331.6405952 736 346 C 736 360.3594048 703.7645056 372 664 372 C 624.2354944 372 592 360.3594048 592 346 Z"/></g><g transform="translate(2,-54) scale(1,1)"><path fill="none" stroke="#000000" d="M 592 346 C 592 331.6405952 624.2354944 320 664 320 C 703.7645056 320 736 331.6405952 736 346 C 736 360.3594048 703.7645056 372 664 372 C 624.2354944 372 592 360.3594048 592 346 Z" stroke-miterlimit="10"/></g><g transform="translate(2,-54) scale(1,1)"><g><path fill="none" stroke="none"/><text fill="#000000" stroke="none" font-family="Arial" font-size="13px" font-style="normal" font-weight="bold" text-decoration="none" x="620.30908203125" y="345">Quản lý thông</text><text fill="#000000" stroke="none" font-family="Arial" font-size="13px" font-style="normal" font-weight="bold" text-decoration="none" x="629.69091796875" y="358">tin cá nhân</text></g></g><g transform="translate(2,-54) scale(1,1)"><path fill="none" stroke="#000000" d="M 485 305 L 591 329" stroke-miterlimit="10"/></g><g transform="translate(2,-54) scale(1,1)"><path fill="#C0C0C0" stroke="none" d="M 807 273 C 807 258.6405952 848.1897984 247 899 247 C 949.8102016 247 991 258.6405952 991 273 C 991 287.3594048 949.8102016 299 899 299 C 848.1897984 299 807 287.3594048 807 273 Z" opacity="0.2"/></g><g transform="translate(2,-54) scale(1,1)"><path fill="#ffffff" stroke="none" d="M 800 266 C 800 251.6405952 841.1897984 240 892 240 C 942.8102016 240 984 251.6405952 984 266 C 984 280.3594048 942.8102016 292 892 292 C 841.1897984 292 800 280.3594048 800 266 Z"/></g><g transform="translate(2,-54) scale(1,1)"><path fill="none" stroke="#000000" d="M 800 266 C 800 251.6405952 841.1897984 240 892 240 C 942.8102016 240 984 251.6405952 984 266 C 984 280.3594048 942.8102016 292 892 292 C 841.1897984 292 800 280.3594048 800 266 Z" stroke-miterlimit="10"/></g><g transform="translate(2,-54) scale(1,1)"><g><path fill="none" stroke="none"/><text fill="#000000" stroke="none" font-family="Arial" font-size="13px" font-style="normal" font-weight="bold" text-decoration="none" x="834.594970703125" y="265">Cập nhật thông tin</text><text fill="#000000" stroke="none" font-family="Arial" font-size="13px" font-style="normal" font-weight="bold" text-decoration="none" x="867.437744140625" y="278">cá nhân</text></g></g><g transform="translate(2,-54) scale(1,1)"><path fill="none" stroke="#000000" d="M 815 293 L 737 320" stroke-miterlimit="10" stroke-dasharray="3"/></g><g transform="translate(2,-54) scale(1,1)"><path fill="none" stroke="#000000" d="M 745.2266084825097 312.6977460414267 L 737 320 L 747.9805639362029 320.65361735209586" stroke-miterlimit="10"/></g><g transform="translate(2,-54) scale(1,1)"><g><path fill="none" stroke="none"/><text fill="#000000" stroke="none" font-family="Arial" font-size="13px" font-style="normal" font-weight="normal" text-decoration="none" x="726.5" y="300">«extend»</text></g></g><g transform="translate(2,-54) scale(1,1)"><path fill="#C0C0C0" stroke="none" d="M 1031 401 C 1031 386.6405952 1068.6080768 375 1115 375 C 1161.3919232 375 1199 386.6405952 1199 401 C 1199 415.3594048 1161.3919232 427 1115 427 C 1068.6080768 427 1031 415.3594048 1031 401 Z" opacity="0.2"/></g><g transform="translate(2,-54) scale(1,1)"><path fill="#ffffff" stroke="none" d="M 1024 394 C 1024 379.6405952 1061.6080768 368 1108 368 C 1154.3919232 368 1192 379.6405952 1192 394 C 1192 408.3594048 1154.3919232 420 1108 420 C 1061.6080768 420 1024 408.3594048 1024 394 Z"/></g><g transform="translate(2,-54) scale(1,1)"><path fill="none" stroke="#000000" d="M 1024 394 C 1024 379.6405952 1061.6080768 368 1108 368 C 1154.3919232 368 1192 379.6405952 1192 394 C 1192 408.3594048 1154.3919232 420 1108 420 C 1061.6080768 420 1024 408.3594048 1024 394 Z" stroke-miterlimit="10"/></g><g transform="translate(2,-54) scale(1,1)"><g><path fill="none" stroke="none"/><text fill="#000000" stroke="none" font-family="Arial" font-size="13px" font-style="normal" font-weight="bold" text-decoration="none" x="1060.31640625" y="393">Xem danh sách</text><text fill="#000000" stroke="none" font-family="Arial" font-size="13px" font-style="normal" font-weight="bold" text-decoration="none" x="1054.530517578125" y="406">công thức đã lưu</text></g></g><g transform="translate(2,-54) scale(1,1)"><path fill="none" stroke="#000000" d="M 1023 385 L 737 354" stroke-miterlimit="10" stroke-dasharray="3"/></g><g transform="translate(2,-54) scale(1,1)"><path fill="none" stroke="#000000" d="M 747.5571159399584 350.9101289621934 L 737 354 L 746.6498770347421 359.28013950709226" stroke-miterlimit="10"/></g><g transform="translate(2,-54) scale(1,1)"><g><path fill="none" stroke="none"/><text fill="#000000" stroke="none" font-family="Arial" font-size="13px" font-style="normal" font-weight="normal" text-decoration="none" x="874.5" y="361">«extend»</text></g></g><g transform="translate(2,-54) scale(1,1)"><path fill="#C0C0C0" stroke="none" d="M 815 449 C 815 434.6405952 859.77152 423 915 423 C 970.22848 423 1015 434.6405952 1015 449 C 1015 463.3594048 970.22848 475 915 475 C 859.77152 475 815 463.3594048 815 449 Z" opacity="0.2"/></g><g transform="translate(2,-54) scale(1,1)"><path fill="#ffffff" stroke="none" d="M 808 442 C 808 427.6405952 852.77152 416 908 416 C 963.22848 416 1008 427.6405952 1008 442 C 1008 456.3594048 963.22848 468 908 468 C 852.77152 468 808 456.3594048 808 442 Z"/></g><g transform="translate(2,-54) scale(1,1)"><path fill="none" stroke="#000000" d="M 808 442 C 808 427.6405952 852.77152 416 908 416 C 963.22848 416 1008 427.6405952 1008 442 C 1008 456.3594048 963.22848 468 908 468 C 852.77152 468 808 456.3594048 808 442 Z" stroke-miterlimit="10"/></g><g transform="translate(2,-54) scale(1,1)"><g><path fill="none" stroke="none"/><text fill="#000000" stroke="none" font-family="Arial" font-size="13px" font-style="normal" font-weight="bold" text-decoration="none" x="842.984130859375" y="441">Xem danh sách công</text><text fill="#000000" stroke="none" font-family="Arial" font-size="13px" font-style="normal" font-weight="bold" text-decoration="none" x="863.20458984375" y="454">thức yêu thích</text></g></g><g transform="translate(2,-54) scale(1,1)"><path fill="none" stroke="#000000" d="M 839 415 L 733 373" stroke-miterlimit="10" stroke-dasharray="3"/></g><g transform="translate(2,-54) scale(1,1)"><path fill="none" stroke="#000000" d="M 743.9986871586168 372.83005651857655 L 733 373 L 740.8974144621403 380.65707808587433" stroke-miterlimit="10"/></g><g transform="translate(2,-54) scale(1,1)"><g><path fill="none" stroke="none"/><text fill="#000000" stroke="none" font-family="Arial" font-size="13px" font-style="normal" font-weight="normal" text-decoration="none" x="746.5" y="412">«extend»</text></g></g><g transform="translate(2,-54) scale(1,1)"><path fill="#C0C0C0" stroke="none" d="M 719 832 C 719 822.6111584 756.1603616 815 802 815 C 847.8396384 815 885 822.6111584 885 832 C 885 841.3888416 847.8396384 849 802 849 C 756.1603616 849 719 841.3888416 719 832 Z" opacity="0.2"/></g><g transform="translate(2,-54) scale(1,1)"><path fill="#ffffff" stroke="none" d="M 712 825 C 712 815.6111584 749.1603616 808 795 808 C 840.8396384 808 878 815.6111584 878 825 C 878 834.3888416 840.8396384 842 795 842 C 749.1603616 842 712 834.3888416 712 825 Z"/></g><g transform="translate(2,-54) scale(1,1)"><path fill="none" stroke="#000000" d="M 712 825 C 712 815.6111584 749.1603616 808 795 808 C 840.8396384 808 878 815.6111584 878 825 C 878 834.3888416 840.8396384 842 795 842 C 749.1603616 842 712 834.3888416 712 825 Z" stroke-miterlimit="10"/></g><g transform="translate(2,-54) scale(1,1)"><g><path fill="none" stroke="none"/><text fill="#000000" stroke="none" font-family="Arial" font-size="13px" font-style="normal" font-weight="bold" text-decoration="none" x="740.825927734375" y="831">Báo cáo thống kê</text></g></g><g transform="translate(2,-54) scale(1,1)"><path fill="none" stroke="#000000" d="M 483 496 L 778 807" stroke-miterlimit="10"/></g><g transform="translate(2,-54) scale(1,1)"><path fill="#C0C0C0" stroke="none" d="M 719 936 C 719 926.6111584 764.2192352 919 820 919 C 875.7807648 919 921 926.6111584 921 936 C 921 945.3888416 875.7807648 953 820 953 C 764.2192352 953 719 945.3888416 719 936 Z" opacity="0.2"/></g><g transform="translate(2,-54) scale(1,1)"><path fill="#ffffff" stroke="none" d="M 712 929 C 712 919.6111584 757.2192352 912 813 912 C 868.7807648 912 914 919.6111584 914 929 C 914 938.3888416 868.7807648 946 813 946 C 757.2192352 946 712 938.3888416 712 929 Z"/></g><g transform="translate(2,-54) scale(1,1)"><path fill="none" stroke="#000000" d="M 712 929 C 712 919.6111584 757.2192352 912 813 912 C 868.7807648 912 914 919.6111584 914 929 C 914 938.3888416 868.7807648 946 813 946 C 757.2192352 946 712 938.3888416 712 929 Z" stroke-miterlimit="10"/></g><g transform="translate(2,-54) scale(1,1)"><g><path fill="none" stroke="none"/><text fill="#000000" stroke="none" font-family="Arial" font-size="13px" font-style="normal" font-weight="bold" text-decoration="none" x="746.17822265625" y="935">Xem thống kê bài viết</text></g></g><g transform="translate(2,-54) scale(1,1)"><path fill="none" stroke="#000000" d="M 810 911 L 798 843" stroke-miterlimit="10" stroke-dasharray="3"/></g><g transform="translate(2,-54) scale(1,1)"><path fill="none" stroke="#000000" d="M 803.911587720218 852.2764826645754 L 798 843 L 795.6206599668645 853.739587562226" stroke-miterlimit="10"/></g><g transform="translate(2,-54) scale(1,1)"><g><path fill="none" stroke="none"/><text fill="#000000" stroke="none" font-family="Arial" font-size="13px" font-style="normal" font-weight="normal" text-decoration="none" x="747.5" y="887">«extend»</text></g></g><g transform="translate(2,-54) scale(1,1)"><path fill="#C0C0C0" stroke="none" d="M 967 928 C 967 918.6111584 1011.0999472 911 1065.5 911 C 1119.9000528 911 1164 918.6111584 1164 928 C 1164 937.3888416 1119.9000528 945 1065.5 945 C 1011.0999472 945 967 937.3888416 967 928 Z" opacity="0.2"/></g><g transform="translate(2,-54) scale(1,1)"><path fill="#ffffff" stroke="none" d="M 960 921 C 960 911.6111584 1004.0999472 904 1058.5 904 C 1112.9000528 904 1157 911.6111584 1157 921 C 1157 930.3888416 1112.9000528 938 1058.5 938 C 1004.0999472 938 960 930.3888416 960 921 Z"/></g><g transform="translate(2,-54) scale(1,1)"><path fill="none" stroke="#000000" d="M 960 921 C 960 911.6111584 1004.0999472 904 1058.5 904 C 1112.9000528 904 1157 911.6111584 1157 921 C 1157 930.3888416 1112.9000528 938 1058.5 938 C 1004.0999472 938 960 930.3888416 960 921 Z" stroke-miterlimit="10"/></g><g transform="translate(2,-54) scale(1,1)"><g><path fill="none" stroke="none"/><text fill="#000000" stroke="none" font-family="Arial" font-size="13px" font-style="normal" font-weight="bold" text-decoration="none" x="993.484130859375" y="926.5">Báo cáo và phân tích</text></g></g><g transform="translate(2,-54) scale(1,1)"><path fill="none" stroke="#000000" d="M 1009 903 L 844 843" stroke-miterlimit="10" stroke-dasharray="3"/></g><g transform="translate(2,-54) scale(1,1)"><path fill="none" stroke="#000000" d="M 854.9893884883053 842.5169465318371 L 844 843 L 852.1122415041878 850.4291007381603" stroke-miterlimit="10"/></g><g transform="translate(2,-54) scale(1,1)"><g><path fill="none" stroke="none"/><text fill="#000000" stroke="none" font-family="Arial" font-size="13px" font-style="normal" font-weight="normal" text-decoration="none" x="888.5" y="906">«extend»</text></g></g><g transform="translate(2,-54) scale(1,1)"><path fill="#C0C0C0" stroke="none" d="M 1015 816 C 1015 806.6111584 1066.0395328 799 1129 799 C 1191.9604672 799 1243 806.6111584 1243 816 C 1243 825.3888416 1191.9604672 833 1129 833 C 1066.0395328 833 1015 825.3888416 1015 816 Z" opacity="0.2"/></g><g transform="translate(2,-54) scale(1,1)"><path fill="#ffffff" stroke="none" d="M 1008 809 C 1008 799.6111584 1059.0395328 792 1122 792 C 1184.9604672 792 1236 799.6111584 1236 809 C 1236 818.3888416 1184.9604672 826 1122 826 C 1059.0395328 826 1008 818.3888416 1008 809 Z"/></g><g transform="translate(2,-54) scale(1,1)"><path fill="none" stroke="#000000" d="M 1008 809 C 1008 799.6111584 1059.0395328 792 1122 792 C 1184.9604672 792 1236 799.6111584 1236 809 C 1236 818.3888416 1184.9604672 826 1122 826 C 1059.0395328 826 1008 818.3888416 1008 809 Z" stroke-miterlimit="10"/></g><g transform="translate(2,-54) scale(1,1)"><g><path fill="none" stroke="none"/><text fill="#000000" stroke="none" font-family="Arial" font-size="13px" font-style="normal" font-weight="bold" text-decoration="none" x="1045.786865234375" y="815">Xem thống kê công thức</text></g></g><g transform="translate(2,-54) scale(1,1)"><path fill="none" stroke="#000000" d="M 1007 815 L 879 821" stroke-miterlimit="10" stroke-dasharray="3"/></g><g transform="translate(2,-54) scale(1,1)"><path fill="none" stroke="#000000" d="M 888.954423457445 816.319246467729 L 879 821 L 889.3486328932936 824.7290477658302" stroke-miterlimit="10"/></g><g transform="translate(2,-54) scale(1,1)"><g><path fill="none" stroke="none"/><text fill="#000000" stroke="none" font-family="Arial" font-size="13px" font-style="normal" font-weight="normal" text-decoration="none" x="917.5" y="852">«extend»</text></g></g><g transform="translate(2,-54) scale(1,1)"><path fill="#C0C0C0" stroke="none" d="M 1007 736 C 1007 726.6111584 1056.0248144 719 1116.5 719 C 1176.9751856 719 1226 726.6111584 1226 736 C 1226 745.3888416 1176.9751856 753 1116.5 753 C 1056.0248144 753 1007 745.3888416 1007 736 Z" opacity="0.2"/></g><g transform="translate(2,-54) scale(1,1)"><path fill="#ffffff" stroke="none" d="M 1000 729 C 1000 719.6111584 1049.0248144 712 1109.5 712 C 1169.9751856 712 1219 719.6111584 1219 729 C 1219 738.3888416 1169.9751856 746 1109.5 746 C 1049.0248144 746 1000 738.3888416 1000 729 Z"/></g><g transform="translate(2,-54) scale(1,1)"><path fill="none" stroke="#000000" d="M 1000 729 C 1000 719.6111584 1049.0248144 712 1109.5 712 C 1169.9751856 712 1219 719.6111584 1219 729 C 1219 738.3888416 1169.9751856 746 1109.5 746 C 1049.0248144 746 1000 738.3888416 1000 729 Z" stroke-miterlimit="10"/></g><g transform="translate(2,-54) scale(1,1)"><g><path fill="none" stroke="none"/><text fill="#000000" stroke="none" font-family="Arial" font-size="13px" font-style="normal" font-weight="bold" text-decoration="none" x="1036.543212890625" y="735">Xem thống kê tài khoản</text></g></g><g transform="translate(2,-54) scale(1,1)"><path fill="none" stroke="#000000" d="M 1050 747 L 854 807" stroke-miterlimit="10" stroke-dasharray="3"/></g><g transform="translate(2,-54) scale(1,1)"><path fill="none" stroke="#000000" d="M 862.4853633208772 800.0000993355112 L 854 807 L 864.9497351725162 808.0503807175317" stroke-miterlimit="10"/></g><g transform="translate(2,-54) scale(1,1)"><g><path fill="none" stroke="none"/><text fill="#000000" stroke="none" font-family="Arial" font-size="13px" font-style="normal" font-weight="normal" text-decoration="none" x="933.5" y="810">«extend»</text></g></g><g transform="translate(2,-54) scale(1,1)"><path fill="#C0C0C0" stroke="none" d="M 1135 296 C 1135 286.6111584 1173.9512224 279 1222 279 C 1270.0487776 279 1309 286.6111584 1309 296 C 1309 305.3888416 1270.0487776 313 1222 313 C 1173.9512224 313 1135 305.3888416 1135 296 Z" opacity="0.2"/></g><g transform="translate(2,-54) scale(1,1)"><path fill="#ffffff" stroke="none" d="M 1128 289 C 1128 279.6111584 1166.9512224 272 1215 272 C 1263.0487776 272 1302 279.6111584 1302 289 C 1302 298.3888416 1263.0487776 306 1215 306 C 1166.9512224 306 1128 298.3888416 1128 289 Z"/></g><g transform="translate(2,-54) scale(1,1)"><path fill="none" stroke="#000000" d="M 1128 289 C 1128 279.6111584 1166.9512224 272 1215 272 C 1263.0487776 272 1302 279.6111584 1302 289 C 1302 298.3888416 1263.0487776 306 1215 306 C 1166.9512224 306 1128 298.3888416 1128 289 Z" stroke-miterlimit="10"/></g><g transform="translate(2,-54) scale(1,1)"><g><path fill="none" stroke="none"/><text fill="#000000" stroke="none" font-family="Arial" font-size="13px" font-style="normal" font-weight="bold" text-decoration="none" x="1157.947265625" y="294.5">Quản lý hoạt động</text></g></g><g transform="translate(2,-54) scale(1,1)"><path fill="none" stroke="#000000" d="M 1127 298 L 737 338" stroke-miterlimit="10" stroke-dasharray="3"/></g><g transform="translate(2,-54) scale(1,1)"><path fill="none" stroke="#000000" d="M 746.6801479940614 332.7755636846574 L 737 338 L 747.5391326359461 341.15066394303415" stroke-miterlimit="10"/></g><g transform="translate(2,-54) scale(1,1)"><g><path fill="none" stroke="none"/><text fill="#000000" stroke="none" font-family="Arial" font-size="13px" font-style="normal" font-weight="normal" text-decoration="none" x="908.5" y="352">«extend»</text></g></g><g transform="translate(2,-54) scale(1,1)"><path fill="#C0C0C0" stroke="none" d="M 151 288 C 151 278.6111584 197.3385232 271 254.5 271 C 311.6614768 271 358 278.6111584 358 288 C 358 297.3888416 311.6614768 305 254.5 305 C 197.3385232 305 151 297.3888416 151 288 Z" opacity="0.2"/></g><g transform="translate(2,-54) scale(1,1)"><path fill="#ffffff" stroke="none" d="M 144 281 C 144 271.6111584 190.3385232 264 247.5 264 C 304.6614768 264 351 271.6111584 351 281 C 351 290.3888416 304.6614768 298 247.5 298 C 190.3385232 298 144 290.3888416 144 281 Z"/></g><g transform="translate(2,-54) scale(1,1)"><path fill="none" stroke="#000000" d="M 144 281 C 144 271.6111584 190.3385232 264 247.5 264 C 304.6614768 264 351 271.6111584 351 281 C 351 290.3888416 304.6614768 298 247.5 298 C 190.3385232 298 144 290.3888416 144 281 Z" stroke-miterlimit="10"/></g><g transform="translate(2,-54) scale(1,1)"><g><path fill="none" stroke="none"/><text fill="#000000" stroke="none" font-family="Arial" font-size="13px" font-style="normal" font-weight="bold" text-decoration="none" x="178.8818359375" y="287">Tạo kế hoạch ăn uống</text></g></g><g transform="translate(2,-54) scale(1,1)"><path fill="none" stroke="#000000" d="M 399 292 L 352 289" stroke-miterlimit="10"/></g><g transform="translate(2,-54) scale(1,1)"><path fill="#C0C0C0" stroke="none" d="M 271 392 C 271 382.6111584 301.4446336 375 339 375 C 376.5553664 375 407 382.6111584 407 392 C 407 401.3888416 376.5553664 409 339 409 C 301.4446336 409 271 401.3888416 271 392 Z" opacity="0.2"/></g><g transform="translate(2,-54) scale(1,1)"><path fill="#ffffff" stroke="none" d="M 264 385 C 264 375.6111584 294.4446336 368 332 368 C 369.5553664 368 400 375.6111584 400 385 C 400 394.3888416 369.5553664 402 332 402 C 294.4446336 402 264 394.3888416 264 385 Z"/></g><g transform="translate(2,-54) scale(1,1)"><path fill="none" stroke="#000000" d="M 264 385 C 264 375.6111584 294.4446336 368 332 368 C 369.5553664 368 400 375.6111584 400 385 C 400 394.3888416 369.5553664 402 332 402 C 294.4446336 402 264 394.3888416 264 385 Z" stroke-miterlimit="10"/></g><g transform="translate(2,-54) scale(1,1)"><g><path fill="none" stroke="none"/><text fill="#000000" stroke="none" font-family="Arial" font-size="13px" font-style="normal" font-weight="bold" text-decoration="none" x="288.286865234375" y="390.5">Xem mealplan</text></g></g><g transform="translate(2,-54) scale(1,1)"><path fill="none" stroke="#000000" d="M 317 367 L 262 299" stroke-miterlimit="10" stroke-dasharray="3"/></g><g transform="translate(2,-54) scale(1,1)"><path fill="none" stroke="#000000" d="M 271.663940373111 304.25435595148963 L 262 299 L 265.1180470467431 309.54882849487547" stroke-miterlimit="10"/></g><g transform="translate(2,-54) scale(1,1)"><g><path fill="none" stroke="none"/><text fill="#000000" stroke="none" font-family="Arial" font-size="13px" font-style="normal" font-weight="normal" text-decoration="none" x="238.5" y="356">«extend»</text></g></g><g transform="translate(2,-54) scale(1,1)"><path fill="#C0C0C0" stroke="none" d="M 247 176 C 247 166.6111584 276.101488 159 312 159 C 347.898512 159 377 166.6111584 377 176 C 377 185.3888416 347.898512 193 312 193 C 276.101488 193 247 185.3888416 247 176 Z" opacity="0.2"/></g><g transform="translate(2,-54) scale(1,1)"><path fill="#ffffff" stroke="none" d="M 240 169 C 240 159.6111584 269.101488 152 305 152 C 340.898512 152 370 159.6111584 370 169 C 370 178.3888416 340.898512 186 305 186 C 269.101488 186 240 178.3888416 240 169 Z"/></g><g transform="translate(2,-54) scale(1,1)"><path fill="none" stroke="#000000" d="M 240 169 C 240 159.6111584 269.101488 152 305 152 C 340.898512 152 370 159.6111584 370 169 C 370 178.3888416 340.898512 186 305 186 C 269.101488 186 240 178.3888416 240 169 Z" stroke-miterlimit="10"/></g><g transform="translate(2,-54) scale(1,1)"><g><path fill="none" stroke="none"/><text fill="#000000" stroke="none" font-family="Arial" font-size="13px" font-style="normal" font-weight="bold" text-decoration="none" x="263.4609375" y="174.5">Tạo mealplan</text></g></g><g transform="translate(2,-54) scale(1,1)"><path fill="none" stroke="#000000" d="M 296 187 L 256 263" stroke-miterlimit="10" stroke-dasharray="3"/></g><g transform="translate(2,-54) scale(1,1)"><path fill="none" stroke="#000000" d="M 257.0081505932372 252.04629595153514 L 256 263 L 264.4583085327153 255.9674317091552" stroke-miterlimit="10"/></g><g transform="translate(2,-54) scale(1,1)"><g><path fill="none" stroke="none"/><text fill="#000000" stroke="none" font-family="Arial" font-size="13px" font-style="normal" font-weight="normal" text-decoration="none" x="275.5" y="243">«extend»</text></g></g><g transform="translate(2,-54) scale(1,1)"><path fill="#C0C0C0" stroke="none" d="M 31 168 C 31 158.6111584 60.773060799999996 151 97.5 151 C 134.2269392 151 164 158.6111584 164 168 C 164 177.3888416 134.2269392 185 97.5 185 C 60.773060799999996 185 31 177.3888416 31 168 Z" opacity="0.2"/></g><g transform="translate(2,-54) scale(1,1)"><path fill="#ffffff" stroke="none" d="M 24 161 C 24 151.6111584 53.773060799999996 144 90.5 144 C 127.2269392 144 157 151.6111584 157 161 C 157 170.3888416 127.2269392 178 90.5 178 C 53.773060799999996 178 24 170.3888416 24 161 Z"/></g><g transform="translate(2,-54) scale(1,1)"><path fill="none" stroke="#000000" d="M 24 161 C 24 151.6111584 53.773060799999996 144 90.5 144 C 127.2269392 144 157 151.6111584 157 161 C 157 170.3888416 127.2269392 178 90.5 178 C 53.773060799999996 178 24 170.3888416 24 161 Z" stroke-miterlimit="10"/></g><g transform="translate(2,-54) scale(1,1)"><g><path fill="none" stroke="none"/><text fill="#000000" stroke="none" font-family="Arial" font-size="13px" font-style="normal" font-weight="bold" text-decoration="none" x="47.859619140625" y="166.5">Sửa mealplan</text></g></g><g transform="translate(2,-54) scale(1,1)"><path fill="none" stroke="#000000" d="M 114 179 L 223 263" stroke-miterlimit="10" stroke-dasharray="3"/></g><g transform="translate(2,-54) scale(1,1)"><path fill="none" stroke="#000000" d="M 212.38077010592733 260.13086137371624 L 223 263 L 217.51985790973183 253.46228315211283" stroke-miterlimit="10"/></g><g transform="translate(2,-54) scale(1,1)"><g><path fill="none" stroke="none"/><text fill="#000000" stroke="none" font-family="Arial" font-size="13px" font-style="normal" font-weight="normal" text-decoration="none" x="159.5" y="202">«extend»</text></g></g><g transform="translate(2,-54) scale(1,1)"><path fill="#C0C0C0" stroke="none" d="M 15 440 C 15 430.6111584 54.6227952 423 103.5 423 C 152.37720480000002 423 192 430.6111584 192 440 C 192 449.3888416 152.37720480000002 457 103.5 457 C 54.6227952 457 15 449.3888416 15 440 Z" opacity="0.2"/></g><g transform="translate(2,-54) scale(1,1)"><path fill="#ffffff" stroke="none" d="M 8 433 C 8 423.6111584 47.6227952 416 96.5 416 C 145.37720480000002 416 185 423.6111584 185 433 C 185 442.3888416 145.37720480000002 450 96.5 450 C 47.6227952 450 8 442.3888416 8 433 Z"/></g><g transform="translate(2,-54) scale(1,1)"><path fill="none" stroke="#000000" d="M 8 433 C 8 423.6111584 47.6227952 416 96.5 416 C 145.37720480000002 416 185 423.6111584 185 433 C 185 442.3888416 145.37720480000002 450 96.5 450 C 47.6227952 450 8 442.3888416 8 433 Z" stroke-miterlimit="10"/></g><g transform="translate(2,-54) scale(1,1)"><g><path fill="none" stroke="none"/><text fill="#000000" stroke="none" font-family="Arial" font-size="13px" font-style="normal" font-weight="bold" text-decoration="none" x="38.339599609375" y="439">Tìm kiếm mealplan</text></g></g><g transform="translate(2,-54) scale(1,1)"><path fill="none" stroke="#000000" d="M 114 415 L 229 299" stroke-miterlimit="10" stroke-dasharray="3"/></g><g transform="translate(2,-54) scale(1,1)"><path fill="none" stroke="#000000" d="M 224.8345155384235 309.18080248312305 L 229 299 L 218.85564321655488 303.2534721640292" stroke-miterlimit="10"/></g><g transform="translate(2,-54) scale(1,1)"><g><path fill="none" stroke="none"/><text fill="#000000" stroke="none" font-family="Arial" font-size="13px" font-style="normal" font-weight="normal" text-decoration="none" x="122.5" y="340">«extend»</text></g></g><g transform="translate(2,-54) scale(1,1)"><path fill="#C0C0C0" stroke="none" d="M 559 528 C 559 518.6111584 610.0395328 511 673 511 C 735.9604672 511 787 518.6111584 787 528 C 787 537.3888416 735.9604672 545 673 545 C 610.0395328 545 559 537.3888416 559 528 Z" opacity="0.2"/></g><g transform="translate(2,-54) scale(1,1)"><path fill="#ffffff" stroke="none" d="M 552 521 C 552 511.6111584 603.0395328 504 666 504 C 728.9604672 504 780 511.6111584 780 521 C 780 530.3888416 728.9604672 538 666 538 C 603.0395328 538 552 530.3888416 552 521 Z"/></g><g transform="translate(2,-54) scale(1,1)"><path fill="none" stroke="#000000" d="M 552 521 C 552 511.6111584 603.0395328 504 666 504 C 728.9604672 504 780 511.6111584 780 521 C 780 530.3888416 728.9604672 538 666 538 C 603.0395328 538 552 530.3888416 552 521 Z" stroke-miterlimit="10"/></g><g transform="translate(2,-54) scale(1,1)"><g><path fill="none" stroke="none"/><text fill="#000000" stroke="none" font-family="Arial" font-size="13px" font-style="normal" font-weight="bold" text-decoration="none" x="589.786865234375" y="526.5">Đăng bài chia sẻ món ăn</text></g></g><g transform="translate(2,-54) scale(1,1)"><path fill="none" stroke="#000000" d="M 482 336 L 648 503" stroke-miterlimit="10"/></g><g transform="translate(2,-54) scale(1,1)"><path fill="#C0C0C0" stroke="none" d="M 671 624 C 671 614.6111584 697.862912 607 731 607 C 764.137088 607 791 614.6111584 791 624 C 791 633.3888416 764.137088 641 731 641 C 697.862912 641 671 633.3888416 671 624 Z" opacity="0.2"/></g><g transform="translate(2,-54) scale(1,1)"><path fill="#ffffff" stroke="none" d="M 664 617 C 664 607.6111584 690.862912 600 724 600 C 757.137088 600 784 607.6111584 784 617 C 784 626.3888416 757.137088 634 724 634 C 690.862912 634 664 626.3888416 664 617 Z"/></g><g transform="translate(2,-54) scale(1,1)"><path fill="none" stroke="#000000" d="M 664 617 C 664 607.6111584 690.862912 600 724 600 C 757.137088 600 784 607.6111584 784 617 C 784 626.3888416 757.137088 634 724 634 C 690.862912 634 664 626.3888416 664 617 Z" stroke-miterlimit="10"/></g><g transform="translate(2,-54) scale(1,1)"><g><path fill="none" stroke="none"/><text fill="#000000" stroke="none" font-family="Arial" font-size="13px" font-style="normal" font-weight="bold" text-decoration="none" x="686.06640625" y="623">Xem bài viết</text></g></g><g transform="translate(2,-54) scale(1,1)"><path fill="none" stroke="#000000" d="M 713 599 L 677 539" stroke-miterlimit="10" stroke-dasharray="3"/></g><g transform="translate(2,-54) scale(1,1)"><path fill="none" stroke="#000000" d="M 685.8382847744828 545.5486427788625 L 677 539 L 678.6190213815926 549.8802008145965" stroke-miterlimit="10"/></g><g transform="translate(2,-54) scale(1,1)"><g><path fill="none" stroke="none"/><text fill="#000000" stroke="none" font-family="Arial" font-size="13px" font-style="normal" font-weight="normal" text-decoration="none" x="642.5" y="589">«extend»</text></g></g><g transform="translate(2,-54) scale(1,1)"><path fill="#C0C0C0" stroke="none" d="M 887 624 C 887 614.6111584 949.4562704 607 1026.5 607 C 1103.5437296 607 1166 614.6111584 1166 624 C 1166 633.3888416 1103.5437296 641 1026.5 641 C 949.4562704 641 887 633.3888416 887 624 Z" opacity="0.2"/></g><g transform="translate(2,-54) scale(1,1)"><path fill="#ffffff" stroke="none" d="M 880 617 C 880 607.6111584 942.4562704 600 1019.5 600 C 1096.5437296 600 1159 607.6111584 1159 617 C 1159 626.3888416 1096.5437296 634 1019.5 634 C 942.4562704 634 880 626.3888416 880 617 Z"/></g><g transform="translate(2,-54) scale(1,1)"><path fill="none" stroke="#000000" d="M 880 617 C 880 607.6111584 942.4562704 600 1019.5 600 C 1096.5437296 600 1159 607.6111584 1159 617 C 1159 626.3888416 1096.5437296 634 1019.5 634 C 942.4562704 634 880 626.3888416 880 617 Z" stroke-miterlimit="10"/></g><g transform="translate(2,-54) scale(1,1)"><g><path fill="none" stroke="none"/><text fill="#000000" stroke="none" font-family="Arial" font-size="13px" font-style="normal" font-weight="bold" text-decoration="none" x="925.227783203125" y="623">Thả cảm xúc bình luận bài viết</text></g></g><g transform="translate(2,-54) scale(1,1)"><path fill="none" stroke="#000000" d="M 953 599 L 732 539" stroke-miterlimit="10" stroke-dasharray="3"/></g><g transform="translate(2,-54) scale(1,1)"><path fill="none" stroke="#000000" d="M 742.9105773314232 537.6002492025236 L 732 539 L 740.7047164985763 545.7251699368427" stroke-miterlimit="10"/></g><g transform="translate(2,-54) scale(1,1)"><g><path fill="none" stroke="none"/><text fill="#000000" stroke="none" font-family="Arial" font-size="13px" font-style="normal" font-weight="normal" text-decoration="none" x="807.5" y="602">«extend»</text></g></g><g transform="translate(2,-54) scale(1,1)"><path fill="#C0C0C0" stroke="none" d="M 943 520 C 943 510.6111584 969.1913392 503 1001.5 503 C 1033.8086608 503 1060 510.6111584 1060 520 C 1060 529.3888416 1033.8086608 537 1001.5 537 C 969.1913392 537 943 529.3888416 943 520 Z" opacity="0.2"/></g><g transform="translate(2,-54) scale(1,1)"><path fill="#ffffff" stroke="none" d="M 936 513 C 936 503.6111584 962.1913392 496 994.5 496 C 1026.8086608 496 1053 503.6111584 1053 513 C 1053 522.3888416 1026.8086608 530 994.5 530 C 962.1913392 530 936 522.3888416 936 513 Z"/></g><g transform="translate(2,-54) scale(1,1)"><path fill="none" stroke="#000000" d="M 936 513 C 936 503.6111584 962.1913392 496 994.5 496 C 1026.8086608 496 1053 503.6111584 1053 513 C 1053 522.3888416 1026.8086608 530 994.5 530 C 962.1913392 530 936 522.3888416 936 513 Z" stroke-miterlimit="10"/></g><g transform="translate(2,-54) scale(1,1)"><g><path fill="none" stroke="none"/><text fill="#000000" stroke="none" font-family="Arial" font-size="13px" font-style="normal" font-weight="bold" text-decoration="none" x="957.648681640625" y="519">Lưu bài viết</text></g></g><g transform="translate(2,-54) scale(1,1)"><path fill="none" stroke="#000000" d="M 935 514 L 781 518" stroke-miterlimit="10" stroke-dasharray="3"/></g><g transform="translate(2,-54) scale(1,1)"><path fill="none" stroke="#000000" d="M 791.0499472071123 513.5280249179744 L 781 518 L 791.2685497265134 521.9442219149183" stroke-miterlimit="10"/></g><g transform="translate(2,-54) scale(1,1)"><g><path fill="none" stroke="none"/><text fill="#000000" stroke="none" font-family="Arial" font-size="13px" font-style="normal" font-weight="normal" text-decoration="none" x="831.5" y="550">«extend»</text></g></g></g></svg>