<svg width="60" height="60" viewBox="0 0 60 60" fill="none" xmlns="http://www.w3.org/2000/svg" xmlns:xlink="http://www.w3.org/1999/xlink">
<path d="M7.5,23.5C7.5,15.958 7.5,12.186 9.843,9.843C12.186,7.5 15.958,7.5 23.5,7.5L36.5,7.5C44.042,7.5 47.814,7.5 50.157,9.843C52.5,12.186 52.5,15.958 52.5,23.5L52.5,36.5C52.5,44.042 52.5,47.814 50.157,50.157C47.814,52.5 44.042,52.5 36.5,52.5L23.5,52.5C15.958,52.5 12.186,52.5 9.843,50.157C7.5,47.814 7.5,44.042 7.5,36.5L7.5,23.5Z" stroke="#000000" stroke-width="1" stroke-miterlimit="3.999327"/>
<line x1="40" y1="29" x2="20" y2="29" stroke="#000000" stroke-width="1" stroke-miterlimit="3.999327" stroke-linejoin="round"/>
</svg>
