<svg width="60" height="70" viewBox="0 0 60 70" fill="none" xmlns="http://www.w3.org/2000/svg" xmlns:xlink="http://www.w3.org/1999/xlink">
<path d="M5.929,28.491C5.873,28.773 6.055,29.047 6.337,29.104C6.619,29.161 6.894,28.979 6.95,28.697L5.929,28.491ZM29.858,6.891L29.858,7.412L29.858,6.891ZM52.765,28.697C52.822,28.979 53.097,29.161 53.379,29.104C53.661,29.047 53.843,28.773 53.787,28.491L52.765,28.697ZM6.95,28.697C8.177,22.616 11.118,17.213 15.281,13.355L14.573,12.591C10.235,16.611 7.195,22.216 5.929,28.491L6.95,28.697ZM15.281,13.355C19.442,9.499 24.579,7.412 29.858,7.412L29.858,6.37C24.297,6.37 18.912,8.57 14.573,12.591L15.281,13.355ZM29.858,7.412C35.137,7.412 40.274,9.499 44.435,13.355L45.143,12.591C40.804,8.57 35.419,6.37 29.858,6.37L29.858,7.412ZM44.435,13.355C48.598,17.213 51.539,22.616 52.765,28.697L53.787,28.491C52.521,22.216 49.481,16.611 45.143,12.591L44.435,13.355Z" fill="#000000"/>
<line x1="-0.22" y1="28.073" x2="59.721" y2="28.073" stroke="#000000" stroke-width="0.521" stroke-miterlimit="3.999327" stroke-linecap="round" stroke-linejoin="round"/>
<line x1="22.123" y1="39.396" x2="37.377" y2="39.396" stroke="#000000" stroke-width="0.521" stroke-miterlimit="3.999327" stroke-linecap="round" stroke-linejoin="round"/>
<path d="M13.119,58.297C13.265,58.05 13.183,57.73 12.935,57.584C12.687,57.438 12.368,57.521 12.222,57.768L13.119,58.297ZM5.992,68.336C5.845,68.584 5.928,68.904 6.176,69.05C6.423,69.196 6.743,69.113 6.889,68.865L5.992,68.336ZM12.222,57.768L5.992,68.336L6.889,68.865L13.119,58.297L12.222,57.768Z" fill="#000000"/>
<path d="M47.275,57.762C47.126,57.516 46.805,57.439 46.56,57.588C46.314,57.738 46.236,58.059 46.386,58.304L47.275,57.762ZM52.831,68.872C52.981,69.118 53.302,69.195 53.547,69.046C53.793,68.896 53.871,68.575 53.721,68.33L52.831,68.872ZM46.386,58.304L52.831,68.872L53.721,68.33L47.275,57.762L46.386,58.304Z" fill="#000000"/>
</svg>
