<svg width="60" height="70" viewBox="0 0 60 70" fill="none" xmlns="http://www.w3.org/2000/svg" xmlns:xlink="http://www.w3.org/1999/xlink">
<path d="M5.926,28.491C5.869,28.773 6.051,29.047 6.333,29.104C6.615,29.161 6.89,28.979 6.947,28.697L5.926,28.491ZM29.854,6.891L29.854,7.412L29.854,6.891ZM52.762,28.697C52.819,28.979 53.093,29.161 53.375,29.104C53.657,29.047 53.84,28.773 53.783,28.491L52.762,28.697ZM6.947,28.697C8.173,22.616 11.114,17.213 15.277,13.355L14.569,12.591C10.231,16.611 7.191,22.216 5.926,28.491L6.947,28.697ZM15.277,13.355C19.438,9.499 24.575,7.412 29.854,7.412L29.854,6.37C24.293,6.37 18.908,8.57 14.569,12.591L15.277,13.355ZM29.854,7.412C35.133,7.412 40.27,9.499 44.432,13.355L45.14,12.591C40.8,8.57 35.415,6.37 29.854,6.37L29.854,7.412ZM44.432,13.355C48.595,17.213 51.535,22.616 52.762,28.697L53.783,28.491C52.517,22.216 49.477,16.611 45.14,12.591L44.432,13.355Z" fill="#000000"/>
<line x1="-0.224" y1="28.073" x2="59.717" y2="28.073" stroke="#000000" stroke-width="0.521" stroke-miterlimit="3.999327" stroke-linecap="round" stroke-linejoin="round"/>
<line x1="22.12" y1="39.396" x2="37.374" y2="39.396" stroke="#000000" stroke-width="0.521" stroke-miterlimit="3.999327" stroke-linecap="round" stroke-linejoin="round"/>
<path d="M13.116,58.297C13.262,58.05 13.179,57.73 12.932,57.584C12.684,57.438 12.365,57.521 12.219,57.768L13.116,58.297ZM5.988,68.336C5.842,68.584 5.924,68.904 6.172,69.05C6.42,69.196 6.739,69.113 6.885,68.865L5.988,68.336ZM12.219,57.768L5.988,68.336L6.885,68.865L13.116,58.297L12.219,57.768Z" fill="#000000"/>
<path d="M47.272,57.762C47.122,57.516 46.802,57.439 46.556,57.588C46.311,57.738 46.233,58.059 46.383,58.304L47.272,57.762ZM52.828,68.872C52.978,69.118 53.298,69.195 53.544,69.046C53.789,68.896 53.867,68.575 53.717,68.33L52.828,68.872ZM46.383,58.304L52.828,68.872L53.717,68.33L47.272,57.762L46.383,58.304Z" fill="#000000"/>
</svg>
