<svg width="62" height="70" viewBox="0 0 62 70" fill="none" xmlns="http://www.w3.org/2000/svg" xmlns:xlink="http://www.w3.org/1999/xlink">
<path d="M6.32,28.532C6.262,28.814 6.444,29.089 6.726,29.146C7.007,29.204 7.283,29.022 7.34,28.74L6.32,28.532ZM30.557,6.934L30.557,7.454L30.557,6.934ZM53.774,28.74C53.831,29.022 54.106,29.204 54.388,29.146C54.67,29.089 54.852,28.814 54.794,28.532L53.774,28.74ZM7.34,28.74C8.583,22.661 11.561,17.258 15.78,13.4L15.077,12.631C10.683,16.65 7.602,22.255 6.32,28.532L7.34,28.74ZM15.78,13.4C19.997,9.543 25.204,7.454 30.557,7.454L30.557,6.413C24.927,6.413 19.473,8.61 15.077,12.631L15.78,13.4ZM30.557,7.454C35.909,7.454 41.117,9.543 45.334,13.4L46.037,12.631C41.641,8.61 36.187,6.413 30.557,6.413L30.557,7.454ZM45.334,13.4C49.552,17.258 52.531,22.661 53.774,28.74L54.794,28.532C53.511,22.255 50.431,16.65 46.037,12.631L45.334,13.4Z" fill="#000000"/>
<line x1="0.082" y1="28.115" x2="60.814" y2="28.115" stroke="#000000" stroke-width="0.521" stroke-miterlimit="3.999327" stroke-linecap="round" stroke-linejoin="round"/>
<line x1="22.721" y1="39.439" x2="38.176" y2="39.439" stroke="#000000" stroke-width="0.521" stroke-miterlimit="3.999327" stroke-linecap="round" stroke-linejoin="round"/>
<path d="M13.591,58.344C13.739,58.097 13.658,57.777 13.411,57.63C13.164,57.482 12.844,57.563 12.697,57.81L13.591,58.344ZM6.384,68.378C6.237,68.625 6.317,68.944 6.564,69.092C6.811,69.239 7.131,69.159 7.278,68.912L6.384,68.378ZM12.697,57.81L6.384,68.378L7.278,68.912L13.591,58.344L12.697,57.81Z" fill="#000000"/>
<path d="M48.198,57.803C48.047,57.559 47.726,57.483 47.481,57.634C47.236,57.785 47.161,58.106 47.312,58.351L48.198,57.803ZM53.842,68.919C53.993,69.164 54.314,69.239 54.559,69.088C54.804,68.937 54.879,68.616 54.728,68.371L53.842,68.919ZM47.312,58.351L53.842,68.919L54.728,68.371L48.198,57.803L47.312,58.351Z" fill="#000000"/>
</svg>
