<svg width="60" height="72" viewBox="0 0 60 72" fill="none" xmlns="http://www.w3.org/2000/svg" xmlns:xlink="http://www.w3.org/1999/xlink">
<path d="M5.362,29.406C5.304,29.688 5.486,29.963 5.768,30.02C6.05,30.078 6.325,29.896 6.383,29.614L5.362,29.406ZM29.599,7.808L29.599,8.328L29.599,7.808ZM52.816,29.614C52.874,29.896 53.149,30.078 53.43,30.02C53.712,29.963 53.894,29.688 53.837,29.406L52.816,29.614ZM6.383,29.614C7.625,23.535 10.604,18.132 14.822,14.274L14.119,13.505C9.725,17.524 6.645,23.13 5.362,29.406L6.383,29.614ZM14.822,14.274C19.039,10.417 24.247,8.328 29.599,8.328L29.599,7.287C23.969,7.287 18.515,9.485 14.119,13.505L14.822,14.274ZM29.599,8.328C34.952,8.328 40.159,10.417 44.376,14.274L45.079,13.505C40.683,9.485 35.229,7.287 29.599,7.287L29.599,8.328ZM44.376,14.274C48.595,18.132 51.574,23.535 52.816,29.614L53.837,29.406C52.554,23.13 49.473,17.524 45.079,13.505L44.376,14.274Z" fill="#000000"/>
<line x1="-0.876" y1="28.989" x2="59.857" y2="28.989" stroke="#000000" stroke-width="0.521" stroke-miterlimit="3.999327" stroke-linecap="round" stroke-linejoin="round"/>
<line x1="21.763" y1="40.312" x2="37.218" y2="40.312" stroke="#000000" stroke-width="0.521" stroke-miterlimit="3.999327" stroke-linecap="round" stroke-linejoin="round"/>
<path d="M12.633,59.217C12.78,58.97 12.7,58.651 12.453,58.503C12.206,58.356 11.886,58.436 11.738,58.683L12.633,59.217ZM5.426,69.251C5.278,69.498 5.359,69.818 5.606,69.965C5.853,70.113 6.173,70.032 6.32,69.785L5.426,69.251ZM11.738,58.683L5.426,69.251L6.32,69.785L12.633,59.217L11.738,58.683Z" fill="#000000"/>
<path d="M47.24,58.676C47.088,58.432 46.767,58.356 46.523,58.507C46.278,58.658 46.202,58.979 46.353,59.224L47.24,58.676ZM52.884,69.792C53.035,70.037 53.356,70.112 53.601,69.961C53.845,69.81 53.921,69.489 53.77,69.244L52.884,69.792ZM46.353,59.224L52.884,69.792L53.77,69.244L47.24,58.676L46.353,59.224Z" fill="#000000"/>
</svg>
