<svg width="60" height="60" viewBox="0 0 60 60" fill="none" xmlns="http://www.w3.org/2000/svg" xmlns:xlink="http://www.w3.org/1999/xlink">
<path d="M47.657,47.657L46.243,46.243L47.657,47.657ZM10.586,49.414L9.172,50.828L10.586,49.414ZM8,26L8,46L12,46L12,26L8,26ZM14,52L34,52L34,48L14,48L14,52ZM30,8L26,8L26,12L30,12L30,8ZM52,34L52,30L48,30L48,34L52,34ZM34,52C37.715,52 40.702,52.004 43.045,51.689C45.445,51.367 47.466,50.676 49.071,49.071L46.243,46.243C45.505,46.981 44.468,47.462 42.512,47.725C40.497,47.996 37.828,48 34,48L34,52ZM48,34C48,37.828 47.996,40.497 47.725,42.512C47.462,44.468 46.981,45.505 46.243,46.243L49.071,49.071C50.676,47.466 51.367,45.445 51.689,43.045C52.004,40.702 52,37.715 52,34L48,34ZM8,46C8,46.886 7.996,47.752 8.091,48.461C8.194,49.227 8.445,50.102 9.172,50.828L12,48C12.141,48.141 12.099,48.251 12.055,47.928C12.004,47.548 12,46.999 12,46L8,46ZM14,48C13.001,48 12.452,47.996 12.072,47.945C11.749,47.901 11.859,47.859 12,48L9.172,50.828C9.898,51.555 10.773,51.806 11.539,51.909C12.248,52.004 13.114,52 14,52L14,48ZM12,26C12,22.172 12.004,19.503 12.275,17.488C12.538,15.532 13.019,14.495 13.757,13.757L10.929,10.929C9.324,12.534 8.633,14.555 8.311,16.955C7.996,19.298 8,22.285 8,26L12,26ZM26,8C22.285,8 19.298,7.996 16.955,8.311C14.555,8.633 12.534,9.324 10.929,10.929L13.757,13.757C14.495,13.019 15.532,12.538 17.488,12.275C19.503,12.004 22.172,12 26,12L26,8Z" fill="#000000"/>
<line x1="22.5" y1="23" x2="37.5" y2="23" stroke="#000000" stroke-width="2" stroke-miterlimit="3.999327" stroke-linecap="round" stroke-linejoin="round"/>
<line x1="22.5" y1="33" x2="30" y2="33" stroke="#000000" stroke-width="2" stroke-miterlimit="3.999327" stroke-linecap="round" stroke-linejoin="round"/>
<path d="M45.5,20C45.5,21.105 46.395,22 47.5,22C48.605,22 49.5,21.105 49.5,20L45.5,20ZM49.5,5C49.5,3.895 48.605,3 47.5,3C46.395,3 45.5,3.895 45.5,5L49.5,5ZM40,10.5C38.895,10.5 38,11.395 38,12.5C38,13.605 38.895,14.5 40,14.5L40,10.5ZM55,14.5C56.105,14.5 57,13.605 57,12.5C57,11.395 56.105,10.5 55,10.5L55,14.5ZM49.5,20L49.5,12.5L45.5,12.5L45.5,20L49.5,20ZM49.5,12.5L49.5,5L45.5,5L45.5,12.5L49.5,12.5ZM40,14.5L47.5,14.5L47.5,10.5L40,10.5L40,14.5ZM47.5,14.5L55,14.5L55,10.5L47.5,10.5L47.5,14.5Z" fill="#000000"/>
</svg>
