<svg width="20" height="14" viewBox="0 0 20 14" fill="none" xmlns="http://www.w3.org/2000/svg" xmlns:xlink="http://www.w3.org/1999/xlink">
<path d="M18.241,-0.202C18.413,-0.332 18.449,-0.576 18.319,-0.749C18.19,-0.922 17.945,-0.957 17.772,-0.828L18.241,-0.202ZM0.343,12.224C0.17,12.354 0.135,12.598 0.264,12.771C0.394,12.944 0.638,12.979 0.811,12.85L0.343,12.224ZM17.772,-0.828L0.343,12.224L0.811,12.85L18.241,-0.202L17.772,-0.828Z" fill="#000000"/>
<path d="M17.779,12.858C17.952,12.987 18.197,12.952 18.326,12.779C18.456,12.607 18.42,12.362 18.248,12.233L17.779,12.858ZM0.804,-0.833C0.631,-0.962 0.386,-0.927 0.257,-0.754C0.127,-0.582 0.162,-0.337 0.335,-0.208L0.804,-0.833ZM18.248,12.233L0.804,-0.833L0.335,-0.208L17.779,12.858L18.248,12.233Z" fill="#000000"/>
</svg>
