<svg width="88" height="88" viewBox="0 0 88 88" fill="none" xmlns="http://www.w3.org/2000/svg" xmlns:xlink="http://www.w3.org/1999/xlink">
<path d="M87,44C87,68.301 67.301,88 43,88C32.714,88 23.254,84.47 15.762,78.556C13.617,75.84 11.16,73.383 8.444,71.238C2.53,63.746 -1,54.286 -1,44C-1,19.699 18.699,0 43,0C67.301,0 87,19.699 87,44Z" fill="#6DCCE4"/>
<path d="M18.696,72.852L14.148,68.304L34.613,47.839L39.161,52.387L18.696,72.852Z" fill="#AB2A3E"/>
<path d="M29.453,60.871C30.796,62.214 30.796,64.39 29.453,65.732L16.251,78.935C13.177,76.577 10.423,73.823 8.066,70.749L21.268,57.546C22.61,56.204 24.787,56.204 26.129,57.546L29.453,60.871Z" fill="#F7B95F"/>
<path d="M29.453,60.87C30.796,62.213 30.796,64.39 29.453,65.732L16.251,78.934C14.404,77.517 12.671,75.96 11.072,74.273L25.133,60.212C25.864,59.481 26.843,59.151 27.8,59.217L29.453,60.87Z" fill="#FAD39C"/>
<path d="M77.817,53.525C65.572,65.77 45.72,65.77 33.476,53.525C21.232,41.281 21.232,21.43 33.476,9.185C45.72,-3.059 65.572,-3.059 77.817,9.185C90.061,21.43 90.061,41.281 77.817,53.525ZM16.545,62.271L24.731,70.457L27.161,68.027L18.976,59.841L16.545,62.271Z" fill="#EC3C52"/>
<path d="M33.477,9.183C43.46,-0.8 58.502,-2.643 70.354,3.655C59.864,2.363 48.213,6.271 39.388,15.096C30.564,23.919 26.656,35.572 27.949,46.06C21.651,34.209 23.493,19.167 33.477,9.183L33.477,9.183Z" fill="#D73247"/>
<path d="M73.512,13.487C83.38,23.355 83.38,39.353 73.512,49.22C63.645,59.087 47.647,59.087 37.78,49.22C27.913,39.353 27.913,23.355 37.78,13.487C47.647,3.62 63.645,3.62 73.512,13.487L73.512,13.487Z" fill="#AB2A3E"/>
<path d="M59.838,47.407C59.496,50.884 56.368,53.447 52.902,53.011C48.262,52.426 43.774,50.353 40.211,46.789C31.541,38.119 31.688,23.97 40.655,15.486C49.242,7.36 62.873,7.605 71.181,16.017C71.319,16.158 71.455,16.299 71.589,16.442C77.518,22.774 75.339,33.062 67.46,36.693C66.079,37.33 64.786,38.217 63.648,39.355C61.396,41.607 60.126,44.468 59.838,47.407L59.838,47.407Z" fill="#FFF5F5"/>
<path d="M41.571,48.04C41.105,47.646 40.65,47.229 40.211,46.789C31.541,38.119 31.688,23.97 40.655,15.486C46.385,10.064 54.36,8.37 61.501,10.341C55.308,10.043 49.012,12.159 44.19,16.721C35.322,25.112 34.45,38.638 41.571,48.04L41.571,48.04Z" fill="#FBF1D1"/>
<circle cx="56.578" cy="24.922" r="7.734" fill="#F5CF51"/>
<path d="M52.552,31.526C50.328,30.168 48.844,27.718 48.844,24.922C48.844,20.651 52.307,17.188 56.578,17.188C59.374,17.188 61.824,18.672 63.183,20.896C62.01,20.179 60.631,19.766 59.156,19.766C54.885,19.766 51.422,23.229 51.422,27.5C51.422,28.975 51.835,30.353 52.552,31.526Z" fill="#F7C32A"/>
<path d="M55.26,19.135C55.494,18.566 57.264,18.675 58.469,19.192C60.809,20.198 61.752,23.064 61.219,23.547C60.385,24.301 54.793,20.272 55.26,19.135L55.26,19.135Z" fill="#F8DF92"/>
</svg>
