<svg width="88" height="88" viewBox="0 0 88 88" fill="none" xmlns="http://www.w3.org/2000/svg" xmlns:xlink="http://www.w3.org/1999/xlink">
<circle cx="44" cy="43" r="44" fill="#B7E3EF"/>
<path d="M22.853,64.147C23.246,69.624 22.731,75.226 21.319,80.712C18.315,78.902 15.479,76.704 12.887,74.113C10.295,71.521 8.098,68.685 6.288,65.681C11.774,64.269 17.376,63.754 22.853,64.147L22.853,64.147ZM68.096,39.429L64.537,42.988C60.51,47.015 60.51,53.545 64.537,57.572L68.096,54.013C72.124,49.986 72.124,43.456 68.096,39.429Z" fill="#F45751"/>
<path d="M74.814,8.748C76.712,8.758 78.241,10.288 78.251,12.186C78.325,25.913 72.792,40.117 61.816,51.093C50.526,62.383 35.821,67.914 21.733,67.509C20.511,67.474 19.527,66.488 19.491,65.267C19.087,51.179 24.617,36.474 35.907,25.184C46.883,14.208 61.087,8.675 74.814,8.748L74.814,8.748Z" fill="#F77B68"/>
<path d="M33.935,66.387C34.115,66.35 34.294,66.313 34.473,66.273C34.294,66.313 34.114,66.35 33.935,66.387ZM46.772,61.919C46.895,61.858 47.018,61.798 47.141,61.736C47.018,61.798 46.895,61.858 46.772,61.919ZM45.677,62.448C45.792,62.394 45.907,62.338 46.021,62.284C45.907,62.338 45.792,62.394 45.677,62.448ZM33.252,66.53C33.077,66.565 32.902,66.596 32.727,66.63C32.902,66.597 33.077,66.565 33.252,66.53ZM48.485,61.034C48.357,61.103 48.228,61.173 48.1,61.241C48.228,61.173 48.357,61.103 48.485,61.034ZM30.309,67.027C30.454,67.007 30.6,66.986 30.745,66.963C30.6,66.986 30.455,67.007 30.309,67.027ZM32.007,66.761C31.847,66.788 31.687,66.815 31.526,66.841C31.687,66.815 31.847,66.788 32.007,66.761ZM39.74,64.813C39.643,64.844 39.548,64.878 39.451,64.91C39.548,64.878 39.644,64.844 39.74,64.813ZM40.984,64.383C40.844,64.433 40.703,64.483 40.562,64.532C40.703,64.483 40.843,64.434 40.984,64.383ZM69.2,42.044C69.082,42.223 68.963,42.401 68.843,42.579C68.963,42.401 69.082,42.223 69.2,42.044ZM68.748,42.718C68.487,43.102 68.221,43.484 67.949,43.863C68.221,43.484 68.487,43.102 68.748,42.718L68.748,42.718ZM67.948,43.865C66.138,46.391 64.097,48.812 61.816,51.093C61.45,51.459 61.08,51.818 60.707,52.171C60.649,52.079 60.571,51.998 60.47,51.94C59.81,51.564 59.136,51.051 58.504,50.418C57.872,49.787 57.359,49.112 56.982,48.452C56.811,48.154 56.445,48.032 56.127,48.161C55.88,48.261 55.657,48.405 55.465,48.596C54.459,49.603 54.731,51.507 56.073,52.849C56.829,53.605 57.763,54.022 58.615,54.061C59.181,53.575 59.738,53.072 60.29,52.559C56.731,55.869 52.87,58.635 48.818,60.852C48.689,60.735 48.56,60.615 48.434,60.488C47.801,59.857 47.288,59.181 46.912,58.522C46.741,58.224 46.375,58.102 46.056,58.231C45.811,58.331 45.586,58.474 45.395,58.666C44.495,59.566 44.62,61.183 45.616,62.475C44.361,63.06 43.092,63.594 41.812,64.077C41.894,64.046 41.977,64.017 42.06,63.985C42.056,63.749 41.935,63.522 41.719,63.4C41.059,63.023 40.385,62.509 39.753,61.878C39.12,61.245 38.607,60.57 38.231,59.911C38.06,59.613 37.694,59.491 37.375,59.62C37.129,59.72 36.905,59.863 36.714,60.055C35.708,61.061 35.98,62.966 37.322,64.308C37.704,64.69 38.131,64.982 38.571,65.186C37.225,65.599 35.87,65.96 34.51,66.264C34.452,66.158 34.365,66.068 34.254,66.004C33.594,65.627 32.919,65.114 32.287,64.482C31.655,63.849 31.142,63.175 30.765,62.515C30.594,62.217 30.228,62.096 29.91,62.224C29.664,62.323 29.44,62.468 29.248,62.659C28.242,63.665 28.514,65.57 29.857,66.912C29.91,66.966 29.965,67.015 30.02,67.065C27.581,67.392 25.137,67.549 22.709,67.527C22.117,67.521 21.678,66.972 21.803,66.393C22.232,64.4 22.767,62.402 23.406,60.408C23.52,60.555 23.643,60.699 23.78,60.836C25.122,62.178 27.027,62.45 28.033,61.444C28.224,61.253 28.369,61.028 28.468,60.783C28.596,60.464 28.475,60.098 28.177,59.927C27.517,59.551 26.843,59.037 26.21,58.405C25.62,57.815 25.135,57.188 24.767,56.57C25.235,55.366 25.742,54.165 26.285,52.971C27.428,53.552 28.673,53.511 29.422,52.763C29.614,52.572 29.757,52.347 29.857,52.102C29.986,51.783 29.864,51.417 29.566,51.246C28.967,50.904 28.357,50.449 27.777,49.896C28.473,48.543 29.218,47.201 30.012,45.872C30.787,45.985 31.52,45.803 32.027,45.297C32.218,45.106 32.362,44.882 32.461,44.636C32.59,44.317 32.468,43.951 32.17,43.78C31.967,43.665 31.763,43.535 31.559,43.394C32.348,42.184 33.18,40.988 34.051,39.807C34.156,40.584 34.56,41.406 35.238,42.085C36.581,43.427 38.485,43.699 39.492,42.693C39.684,42.501 39.827,42.278 39.927,42.031C40.056,41.713 39.934,41.347 39.636,41.176C38.976,40.799 38.301,40.286 37.669,39.654C37.037,39.022 36.523,38.348 36.147,37.688C36.082,37.573 35.988,37.485 35.878,37.428C36.582,36.548 37.306,35.677 38.057,34.817C39.381,35.985 41.142,36.182 42.097,35.227C42.287,35.036 42.432,34.812 42.531,34.566C42.659,34.247 42.538,33.881 42.24,33.71C41.614,33.353 40.974,32.871 40.371,32.282C40.822,31.809 41.277,31.338 41.743,30.872C42.565,30.049 43.4,29.25 44.246,28.475C43.851,29.519 44.238,30.945 45.308,32.015C46.651,33.357 48.555,33.629 49.562,32.623C49.753,32.431 49.897,32.207 49.996,31.961C50.125,31.643 50.003,31.276 49.705,31.106C49.045,30.73 48.371,30.216 47.739,29.584C47.106,28.952 46.594,28.277 46.217,27.618C46.085,27.388 45.837,27.264 45.584,27.278C46.501,26.475 47.431,25.698 48.371,24.948C49.661,25.933 51.269,26.054 52.166,25.157C52.357,24.965 52.501,24.742 52.6,24.495C52.729,24.177 52.608,23.811 52.31,23.641C51.922,23.419 51.53,23.15 51.144,22.838C52.232,22.049 53.332,21.295 54.443,20.574C54.647,21.057 54.961,21.528 55.378,21.945C56.721,23.288 58.625,23.559 59.632,22.552C59.823,22.362 59.967,22.137 60.066,21.891C60.195,21.573 60.074,21.206 59.776,21.036C59.116,20.66 58.441,20.146 57.809,19.514C57.596,19.302 57.399,19.085 57.214,18.864C61.825,16.156 66.59,14.03 71.381,12.506C72.486,12.155 73.592,13.06 73.463,14.212C73.217,16.422 72.847,18.632 72.355,20.831C72.142,21.786 73.464,22.261 73.91,21.39C75.618,18.055 77.007,14.611 78.071,11.108C78.185,11.446 78.249,11.809 78.251,12.186C78.304,22.114 75.423,32.29 69.673,41.315C69.675,41.312 69.677,41.308 69.679,41.305C69.304,41.026 68.932,40.707 68.573,40.349C67.942,39.716 67.428,39.042 67.051,38.382C66.881,38.084 66.514,37.963 66.196,38.091C65.95,38.19 65.726,38.335 65.535,38.526C64.528,39.532 64.8,41.437 66.143,42.779C66.685,43.321 67.319,43.685 67.948,43.865L67.948,43.865ZM67.532,34.098C68.874,35.441 70.779,35.713 71.786,34.706C71.977,34.515 72.121,34.291 72.22,34.045C72.349,33.726 72.227,33.36 71.929,33.19C71.27,32.813 70.595,32.3 69.962,31.668C69.331,31.036 68.817,30.361 68.44,29.701C68.271,29.403 67.904,29.282 67.586,29.411C67.339,29.51 67.115,29.654 66.924,29.845C65.917,30.851 66.19,32.756 67.532,34.098ZM61.455,28.021C62.797,29.364 64.702,29.636 65.709,28.629C65.901,28.438 66.044,28.214 66.144,27.968C66.273,27.65 66.151,27.283 65.853,27.113C65.193,26.736 64.518,26.223 63.886,25.591C63.254,24.959 62.74,24.284 62.364,23.625C62.194,23.326 61.827,23.205 61.509,23.334C61.263,23.433 61.039,23.577 60.848,23.768C59.841,24.775 60.113,26.679 61.455,28.021L61.455,28.021ZM35.643,57.323C34.983,56.946 34.309,56.433 33.676,55.801C33.044,55.169 32.531,54.494 32.154,53.834C31.984,53.536 31.617,53.415 31.299,53.544C31.053,53.643 30.829,53.787 30.638,53.978C29.631,54.984 29.903,56.889 31.246,58.232C32.588,59.574 34.493,59.847 35.499,58.84C35.69,58.648 35.835,58.425 35.934,58.178C36.062,57.859 35.941,57.493 35.643,57.323L35.643,57.323ZM38.247,49.857C37.588,49.48 36.913,48.967 36.28,48.335C35.649,47.703 35.135,47.029 34.758,46.369C34.589,46.07 34.222,45.949 33.904,46.078C33.657,46.177 33.434,46.321 33.242,46.512C32.235,47.519 32.508,49.423 33.85,50.766C35.193,52.108 37.097,52.38 38.104,51.374C38.295,51.182 38.439,50.959 38.538,50.712C38.667,50.394 38.545,50.028 38.247,49.857L38.247,49.857ZM44.324,55.934C43.664,55.557 42.99,55.044 42.357,54.412C41.725,53.78 41.212,53.105 40.835,52.445C40.665,52.147 40.299,52.026 39.98,52.155C39.734,52.254 39.51,52.398 39.319,52.589C38.312,53.595 38.585,55.5 39.927,56.842C41.269,58.185 43.173,58.457 44.181,57.45C44.372,57.259 44.516,57.035 44.615,56.789C44.743,56.471 44.622,56.104 44.324,55.934ZM45.713,47.253C45.053,46.877 44.378,46.363 43.746,45.731C43.114,45.099 42.601,44.424 42.224,43.764C42.054,43.467 41.687,43.345 41.369,43.474C41.123,43.573 40.899,43.717 40.708,43.908C39.701,44.915 39.973,46.819 41.316,48.162C42.658,49.505 44.563,49.777 45.569,48.769C45.76,48.578 45.904,48.355 46.003,48.108C46.132,47.79 46.011,47.423 45.713,47.253L45.713,47.253ZM48.173,41.304C48.365,41.112 48.508,40.889 48.608,40.642C48.737,40.324 48.615,39.957 48.317,39.787C47.657,39.411 46.982,38.897 46.35,38.265C45.718,37.633 45.205,36.958 44.828,36.299C44.658,36.001 44.291,35.879 43.973,36.008C43.727,36.107 43.503,36.251 43.312,36.442C42.305,37.449 42.577,39.353 43.919,40.696C45.262,42.038 47.167,42.311 48.173,41.304L48.173,41.304ZM51.789,53.329C51.129,52.954 50.455,52.44 49.823,51.807C49.19,51.176 48.677,50.501 48.301,49.842C48.13,49.544 47.764,49.422 47.445,49.55C47.199,49.65 46.976,49.794 46.784,49.985C45.778,50.992 46.05,52.896 47.392,54.239C48.735,55.581 50.639,55.853 51.646,54.846C51.837,54.655 51.981,54.431 52.08,54.185C52.209,53.867 52.087,53.5 51.789,53.329L51.789,53.329ZM54.394,45.864C53.734,45.488 53.06,44.974 52.427,44.342C51.795,43.71 51.282,43.035 50.905,42.375C50.735,42.078 50.368,41.956 50.05,42.084C49.804,42.184 49.58,42.328 49.388,42.519C48.382,43.526 48.654,45.43 49.997,46.773C51.339,48.116 53.244,48.387 54.25,47.38C54.441,47.189 54.586,46.965 54.684,46.719C54.813,46.401 54.692,46.034 54.394,45.864L54.394,45.864ZM55.783,37.183C55.123,36.807 54.448,36.293 53.816,35.661C53.184,35.029 52.67,34.354 52.294,33.695C52.124,33.397 51.757,33.275 51.439,33.403C51.193,33.503 50.969,33.647 50.778,33.838C49.771,34.845 50.043,36.75 51.385,38.092C52.728,39.434 54.632,39.706 55.639,38.699C55.83,38.509 55.974,38.284 56.073,38.038C56.202,37.72 56.081,37.353 55.783,37.183L55.783,37.183ZM58.243,31.233C58.435,31.043 58.578,30.818 58.678,30.572C58.807,30.254 58.685,29.887 58.387,29.717C57.727,29.341 57.052,28.827 56.421,28.195C55.788,27.564 55.275,26.888 54.898,26.229C54.728,25.931 54.361,25.809 54.043,25.938C53.797,26.038 53.573,26.181 53.382,26.373C52.375,27.379 52.647,29.284 53.99,30.626C55.332,31.969 57.236,32.241 58.243,31.233L58.243,31.233ZM61.859,43.26C61.2,42.883 60.525,42.37 59.893,41.738C59.261,41.106 58.747,40.431 58.37,39.772C58.2,39.473 57.834,39.352 57.516,39.48C57.269,39.579 57.046,39.724 56.854,39.915C55.847,40.922 56.12,42.826 57.462,44.168C58.805,45.511 60.709,45.783 61.716,44.776C61.907,44.585 62.051,44.361 62.15,44.115C62.279,43.796 62.158,43.43 61.859,43.26L61.859,43.26ZM64.464,35.794C63.804,35.418 63.129,34.904 62.497,34.272C61.865,33.64 61.351,32.965 60.975,32.306C60.805,32.008 60.438,31.886 60.12,32.015C59.874,32.114 59.65,32.258 59.459,32.449C58.452,33.456 58.723,35.361 60.066,36.703C61.408,38.045 63.313,38.317 64.32,37.311C64.511,37.12 64.655,36.895 64.755,36.65C64.883,36.331 64.762,35.964 64.464,35.794Z" fill="#F9A29B"/>
<path d="M24.995,28.022L33.503,19.514C37.53,15.487 44.059,15.487 48.087,19.514L39.579,28.022C35.552,32.049 29.023,32.049 24.995,28.022L24.995,28.022Z" fill="#F45751"/>
<path d="M68.095,14.909C68.095,15.859 67.326,16.628 66.377,16.628C65.427,16.628 64.658,15.859 64.658,14.909C64.658,13.96 65.427,13.19 66.377,13.19C67.326,13.19 68.095,13.96 68.095,14.909Z" fill="#C0293E"/>
</svg>
