<svg width="60" height="60" viewBox="0 0 60 60" fill="none" xmlns="http://www.w3.org/2000/svg" xmlns:xlink="http://www.w3.org/1999/xlink">
<line x1="22.5" y1="50.5" x2="37.5" y2="50.5" stroke="#000000" stroke-width="2" stroke-miterlimit="3.999327" stroke-linecap="round"/>
<line x1="28" y1="40" x2="28" y2="52.5" stroke="#000000" stroke-width="2" stroke-miterlimit="3.999327" stroke-linecap="round"/>
<path d="M14.5,24C14.5,22.895 15.395,22 16.5,22L43.5,22C44.605,22 45.5,22.895 45.5,24L45.5,28.5C45.5,35.127 40.127,40.5 33.5,40.5L26.5,40.5C19.873,40.5 14.5,35.127 14.5,28.5Z" stroke="#000000" stroke-width="2" stroke-miterlimit="3.999327" stroke-linecap="round"/>
<path d="M28.077,29.451C27.774,30.513 28.388,31.62 29.451,31.923C30.513,32.226 31.62,31.612 31.923,30.549L28.077,29.451ZM34.461,14.386L36.384,14.936L36.384,14.936L34.461,14.386ZM36.822,11.771L37.564,13.628L37.564,13.628L36.822,11.771ZM35.169,12.653L33.684,11.312L33.684,11.312L35.169,12.653ZM31.923,30.549L36.384,14.936L32.538,13.837L28.077,29.451L31.923,30.549ZM37.564,13.628L48.243,9.357L46.757,5.643L36.079,9.914L37.564,13.628ZM36.384,14.936C36.526,14.44 36.599,14.19 36.666,14.016C36.719,13.877 36.72,13.919 36.654,13.993L33.684,11.312C32.989,12.082 32.749,13.1 32.538,13.837L36.384,14.936ZM36.079,9.914C35.367,10.199 34.379,10.543 33.684,11.312L36.654,13.993C36.587,14.066 36.545,14.069 36.678,14.002C36.845,13.918 37.086,13.82 37.564,13.628L36.079,9.914Z" fill="#000000"/>
</svg>
