<svg width="52" height="56" viewBox="0 0 52 56" fill="none" xmlns="http://www.w3.org/2000/svg" xmlns:xlink="http://www.w3.org/1999/xlink">
<path d="M35,51.75C42.042,51.75 47.75,46.042 47.75,39C47.75,31.958 42.042,26.25 35,26.25C27.958,26.25 22.25,31.958 22.25,39C22.25,46.042 27.958,51.75 35,51.75ZM42.203,36.03C42.91,35.182 42.796,33.921 41.947,33.214C41.098,32.506 39.837,32.621 39.13,33.47L34.851,38.605C34.158,39.437 33.768,39.898 33.456,40.181L33.445,40.191L33.432,40.182C33.096,39.928 32.666,39.504 31.9,38.739L30.748,37.586C29.966,36.805 28.7,36.805 27.919,37.586C27.138,38.367 27.138,39.633 27.919,40.414L29.072,41.567L29.154,41.649C29.807,42.302 30.435,42.93 31.019,43.372C31.674,43.867 32.531,44.333 33.63,44.283C34.729,44.233 35.541,43.692 36.148,43.14C36.69,42.647 37.259,41.964 37.85,41.254L37.924,41.165L42.203,36.03Z" clip-rule="evenodd" fill-rule="evenodd" fill="#FFFFFF"/>
<circle cx="24" cy="16" r="8" fill="#7E869E" fill-opacity="0.25" stroke="#000000" stroke-width="1.2" stroke-miterlimit="3.999327" stroke-linecap="round"/>
<path d="M31.182,32C30.28,31.683 29.341,31.426 28.378,31.232C25.509,30.656 22.492,30.656 19.623,31.232C16.755,31.809 14.111,32.946 11.966,34.555C9.821,36.164 8.233,38.202 7.415,40.49C7.192,41.114 7.517,41.801 8.142,42.024C8.766,42.247 9.452,41.922 9.675,41.298C10.312,39.516 11.58,37.844 13.406,36.475C15.234,35.104 17.538,34.099 20.095,33.585C21.735,33.256 23.433,33.137 25.114,33.231C25.842,32.472 26.866,32 28,32L31.182,32Z" clip-rule="evenodd" fill-rule="evenodd" fill="#000000"/>
</svg>
