<svg width="28" height="28" viewBox="0 0 28 28" fill="none" xmlns="http://www.w3.org/2000/svg" xmlns:xlink="http://www.w3.org/1999/xlink">
<path d="M2,26.242L0.5,26.242C0.5,27.071 1.172,27.742 2,27.742L2,26.242ZM8,26.242L8,27.742C8.398,27.742 8.779,27.584 9.061,27.303L8,26.242ZM25,9.242L23.939,8.182L23.939,8.182L25,9.242ZM26.243,6.242L27.743,6.242L26.243,6.242ZM22,2L22,0.5L22,2ZM19,3.242L17.939,2.182L17.939,2.182L19,3.242ZM2,20.242L0.939,19.182C0.658,19.463 0.5,19.844 0.5,20.242L2,20.242ZM2,27.742L8,27.742L8,24.742L2,24.742L2,27.742ZM9.061,27.303L26.061,10.303L23.939,8.182L6.939,25.182L9.061,27.303ZM26.061,10.303C27.138,9.226 27.743,7.765 27.743,6.242L24.743,6.242C24.743,6.97 24.454,7.667 23.939,8.182L26.061,10.303ZM27.743,6.242C27.743,4.719 27.138,3.258 26.061,2.182L23.939,4.303C24.454,4.817 24.743,5.515 24.743,6.242L27.743,6.242ZM26.061,2.182C24.984,1.105 23.523,0.5 22,0.5L22,3.5C22.727,3.5 23.425,3.788 23.939,4.303L26.061,2.182ZM22,0.5C20.477,0.5 19.016,1.105 17.939,2.182L20.061,4.303C20.575,3.788 21.273,3.5 22,3.5L22,0.5ZM17.939,2.182L0.939,19.182L3.061,21.303L20.061,4.303L17.939,2.182ZM0.5,20.242L0.5,26.242L3.5,26.242L3.5,20.242L0.5,20.242Z" fill="#FFFFFF"/>
<path d="M17.061,5.181C16.475,4.595 15.525,4.595 14.939,5.181C14.354,5.767 14.354,6.717 14.939,7.302L17.061,5.181ZM20.939,13.302C21.525,13.888 22.475,13.888 23.061,13.302C23.646,12.717 23.646,11.767 23.061,11.181L20.939,13.302ZM14.939,7.302L20.939,13.302L23.061,11.181L17.061,5.181L14.939,7.302Z" fill="#FFFFFF"/>
</svg>
