<svg width="52" height="58" viewBox="0 0 52 58" fill="none" xmlns="http://www.w3.org/2000/svg" xmlns:xlink="http://www.w3.org/1999/xlink">
<path d="M50.8,26.6L50.8,57.2L0,57.2L0,26.6L3,26.6C5.807,26.585 8.517,25.57 10.643,23.737C12.769,21.904 14.172,19.374 14.6,16.6L36.2,16.6C36.665,19.357 38.079,21.865 40.197,23.691C42.315,25.517 45.004,26.545 47.8,26.6L50.8,26.6Z" fill="url(#pf_0_3602_2240)" stroke="#000000" stroke-width="2" stroke-miterlimit="3.999327" stroke-linecap="round" stroke-linejoin="round"/>
<path d="M36.2,16.6L36.2,18.6C37.304,18.6 38.2,17.705 38.2,16.6L36.2,16.6ZM14.6,16.6L12.6,16.6C12.6,17.705 13.495,18.6 14.6,18.6L14.6,16.6ZM25.4,4C27.733,4 29.972,4.927 31.622,6.577L34.451,3.749C32.05,1.349 28.794,0 25.4,0L25.4,4ZM31.622,6.577C33.272,8.228 34.2,10.466 34.2,12.8L38.2,12.8C38.2,9.405 36.851,6.15 34.451,3.749L31.622,6.577ZM34.2,12.8L34.2,16.6L38.2,16.6L38.2,12.8L34.2,12.8ZM36.2,14.6L14.6,14.6L14.6,18.6L36.2,18.6L36.2,14.6ZM16.6,16.6L16.6,12.8L12.6,12.8L12.6,16.6L16.6,16.6ZM16.6,12.8C16.6,10.466 17.527,8.228 19.177,6.577L16.349,3.749C13.948,6.149 12.6,9.405 12.6,12.8L16.6,12.8ZM19.177,6.577C20.827,4.927 23.066,4 25.4,4L25.4,0C22.005,0 18.749,1.349 16.349,3.749L19.177,6.577Z" fill="#000000"/>
<path d="M33.4,46.4L33.4,48.4C34.505,48.4 35.4,47.505 35.4,46.4L33.4,46.4ZM17.4,46.4L15.4,46.4C15.4,47.505 16.296,48.4 17.4,48.4L17.4,46.4ZM25.4,37.6C26.992,37.6 28.518,38.232 29.643,39.358L32.471,36.529C30.596,34.654 28.053,33.6 25.4,33.6L25.4,37.6ZM29.643,39.358C30.768,40.483 31.4,42.009 31.4,43.6L35.4,43.6C35.4,40.948 34.347,38.405 32.471,36.529L29.643,39.358ZM31.4,43.6L31.4,46.4L35.4,46.4L35.4,43.6L31.4,43.6ZM33.4,44.4L17.4,44.4L17.4,48.4L33.4,48.4L33.4,44.4ZM19.4,46.4L19.4,43.6L15.4,43.6L15.4,46.4L19.4,46.4ZM19.4,43.6C19.4,42.009 20.033,40.483 21.158,39.358L18.329,36.529C16.454,38.405 15.4,40.948 15.4,43.6L19.4,43.6ZM21.158,39.358C22.283,38.232 23.809,37.6 25.4,37.6L25.4,33.6C22.748,33.6 20.205,34.654 18.329,36.529L21.158,39.358Z" transform="rotate(360 25.4 41)" fill="#000000"/>
<defs>
<linearGradient id="pf_0_3602_2240" x1="23" y1="2" x2="41" y2="56" gradientUnits="userSpaceOnUse">
<stop stop-color="#0083DA" stop-opacity="0"/>
<stop offset="1" stop-color="#3BADF5"/>
</linearGradient>
</defs>
</svg>
