<svg width="56" height="70" viewBox="0 0 56 70" fill="none" xmlns="http://www.w3.org/2000/svg" xmlns:xlink="http://www.w3.org/1999/xlink">
<path d="M55.411,30.607L55.411,69.104L0.841,69.104L0.841,30.607L4.064,30.607C7.079,30.588 9.99,29.311 12.274,27.005C14.558,24.7 16.065,21.516 16.525,18.026L39.728,18.026C40.228,21.495 41.747,24.65 44.022,26.947C46.297,29.244 49.186,30.538 52.189,30.607L55.411,30.607Z" fill="url(#pf_0_i_3500_416;3494_577)" stroke="#000000" stroke-width="0.521" stroke-miterlimit="3.999327" stroke-linecap="round" stroke-linejoin="round"/>
<path d="M39.728,18.026L39.728,18.546C40.015,18.546 40.249,18.313 40.249,18.026L39.728,18.026ZM16.525,18.026L16.004,18.026C16.004,18.313 16.237,18.546 16.525,18.546L16.525,18.026ZM28.126,0.178C31.036,0.178 33.847,1.531 35.934,3.975L36.726,3.299C34.461,0.647 31.37,-0.863 28.126,-0.863L28.126,0.178ZM35.934,3.975C38.023,6.422 39.207,9.755 39.207,13.245L40.249,13.245C40.249,9.527 38.988,5.949 36.726,3.299L35.934,3.975ZM39.207,13.245L39.207,18.026L40.249,18.026L40.249,13.245L39.207,13.245ZM39.728,17.505L16.525,17.505L16.525,18.546L39.728,18.546L39.728,17.505ZM17.045,18.026L17.045,13.245L16.004,13.245L16.004,18.026L17.045,18.026ZM17.045,13.245C17.045,9.755 18.23,6.422 20.319,3.975L19.527,3.299C17.264,5.949 16.004,9.527 16.004,13.245L17.045,13.245ZM20.319,3.975C22.406,1.531 25.216,0.178 28.126,0.178L28.126,-0.863C24.882,-0.863 21.791,0.647 19.527,3.299L20.319,3.975Z" fill="#000000"/>
<path d="M36.72,55.517L36.72,56.038C37.008,56.038 37.241,55.804 37.241,55.517L36.72,55.517ZM19.532,55.517L19.012,55.517C19.012,55.804 19.245,56.038 19.532,56.038L19.532,55.517ZM28.126,42.45C30.238,42.45 32.284,43.432 33.807,45.215L34.599,44.539C32.898,42.547 30.573,41.409 28.126,41.409L28.126,42.45ZM33.807,45.215C35.332,47.001 36.199,49.439 36.199,51.994L37.241,51.994C37.241,49.211 36.297,46.528 34.599,44.539L33.807,45.215ZM36.199,51.994L36.199,55.517L37.241,55.517L37.241,51.994L36.199,51.994ZM36.72,54.996L19.532,54.996L19.532,56.038L36.72,56.038L36.72,54.996ZM20.053,55.517L20.053,51.994L19.012,51.994L19.012,55.517L20.053,55.517ZM20.053,51.994C20.053,49.439 20.921,47.001 22.446,45.215L21.653,44.539C19.955,46.528 19.012,49.211 19.012,51.994L20.053,51.994ZM22.446,45.215C23.968,43.432 26.014,42.45 28.126,42.45L28.126,41.409C25.68,41.409 23.354,42.547 21.653,44.539L22.446,45.215Z" transform="rotate(360 28.126 48.723)" fill="#000000"/>
<defs>
<linearGradient id="pf_0_i_3500_416;3494_577" x1="25.548" y1="-0.343" x2="44.884" y2="67.594" gradientUnits="userSpaceOnUse">
<stop stop-color="#0083DA" stop-opacity="0"/>
<stop offset="1" stop-color="#3BADF5"/>
</linearGradient>
</defs>
</svg>
