<svg width="26" height="26" viewBox="0 0 26 26" fill="none" xmlns="http://www.w3.org/2000/svg" xmlns:xlink="http://www.w3.org/1999/xlink">
<path d="M0.261,11.538L-0.111,11.657L-0.111,11.658L0.261,11.538ZM5.076,0.715L5.196,1.087L5.196,1.087L5.076,0.715ZM12.146,1.903L11.911,2.215C12.052,2.321 12.246,2.319 12.385,2.212L12.146,1.903ZM19.203,0.715L19.323,0.343L19.323,0.343L19.203,0.715ZM24.03,11.538L23.658,11.419L23.657,11.421L24.03,11.538ZM12.146,23.778L11.959,24.121C12.076,24.184 12.217,24.184 12.334,24.12L12.146,23.778ZM0.633,11.419C-0.719,7.198 0.88,2.477 5.196,1.087L4.956,0.343C0.113,1.903 -1.554,7.154 -0.111,11.657L0.633,11.419ZM5.196,1.087C7.483,0.349 10.01,0.784 11.911,2.215L12.381,1.59C10.277,0.008 7.486,-0.473 4.956,0.343L5.196,1.087ZM12.385,2.212C14.176,0.827 16.798,0.353 19.084,1.087L19.323,0.343C16.796,-0.468 13.905,0.049 11.907,1.594L12.385,2.212ZM19.084,1.087C23.4,2.478 25.008,7.199 23.658,11.419L24.402,11.657C25.844,7.153 24.165,1.903 19.323,0.343L19.084,1.087ZM23.657,11.421C22.606,14.764 19.712,17.763 17.026,19.948C15.69,21.034 14.421,21.907 13.486,22.509C13.018,22.809 12.635,23.042 12.369,23.199C12.236,23.277 12.133,23.337 12.063,23.376C12.028,23.396 12.001,23.411 11.984,23.421C11.975,23.426 11.968,23.429 11.964,23.432C11.962,23.433 11.96,23.434 11.959,23.434C11.959,23.435 11.959,23.435 11.958,23.435C11.958,23.435 11.958,23.435 11.958,23.435C11.958,23.435 11.958,23.435 12.146,23.778C12.334,24.12 12.334,24.12 12.334,24.12C12.334,24.12 12.334,24.12 12.335,24.12C12.335,24.119 12.336,24.119 12.336,24.119C12.338,24.118 12.34,24.117 12.342,24.115C12.347,24.113 12.355,24.109 12.364,24.103C12.384,24.092 12.412,24.077 12.449,24.056C12.522,24.014 12.629,23.952 12.766,23.872C13.04,23.71 13.432,23.473 13.908,23.166C14.862,22.553 16.156,21.663 17.519,20.554C20.232,18.347 23.28,15.226 24.403,11.655L23.657,11.421ZM12.146,23.778C12.333,23.434 12.333,23.434 12.333,23.434C12.333,23.434 12.333,23.434 12.333,23.434C12.332,23.434 12.332,23.434 12.332,23.434C12.331,23.433 12.329,23.432 12.327,23.431C12.323,23.429 12.316,23.425 12.308,23.421C12.29,23.411 12.264,23.396 12.229,23.377C12.16,23.338 12.057,23.279 11.925,23.202C11.661,23.047 11.28,22.817 10.816,22.52C9.886,21.925 8.624,21.059 7.292,19.978C4.617,17.804 1.72,14.804 0.633,11.419L-0.111,11.658C1.048,15.267 4.095,18.387 6.8,20.584C8.159,21.688 9.447,22.571 10.394,23.178C10.868,23.481 11.258,23.716 11.53,23.875C11.666,23.955 11.772,24.016 11.845,24.057C11.882,24.078 11.91,24.093 11.929,24.104C11.939,24.109 11.946,24.113 11.951,24.116C11.954,24.118 11.956,24.119 11.957,24.119C11.958,24.12 11.958,24.12 11.959,24.12C11.959,24.12 11.959,24.12 11.959,24.12C11.959,24.121 11.959,24.121 12.146,23.778Z" fill="#FFFFFF"/>
<path d="M17.475,4.788C17.269,4.722 17.049,4.834 16.983,5.04C16.916,5.245 17.029,5.465 17.234,5.532L17.475,4.788ZM19.461,8.345C19.479,8.56 19.667,8.72 19.882,8.703C20.097,8.685 20.257,8.497 20.24,8.282L19.461,8.345ZM17.234,5.532C18.477,5.934 19.356,7.043 19.461,8.345L20.24,8.282C20.109,6.665 19.018,5.287 17.475,4.788L17.234,5.532Z" fill="#FFFFFF"/>
</svg>
