<svg width="50" height="50" viewBox="0 0 50 50" fill="none" xmlns="http://www.w3.org/2000/svg" xmlns:xlink="http://www.w3.org/1999/xlink">
<path d="M1.5,-0.5C0.395,-0.5 -0.5,0.395 -0.5,1.5C-0.5,2.605 0.395,3.5 1.5,3.5L1.5,-0.5ZM6.5,1.5L8.461,1.108C8.274,0.173 7.453,-0.5 6.5,-0.5L6.5,1.5ZM36.5,26.5L36.5,28.5C37.258,28.5 37.95,28.072 38.289,27.394L36.5,26.5ZM46.5,6.5L48.289,7.394C48.599,6.774 48.566,6.038 48.201,5.449C47.837,4.859 47.193,4.5 46.5,4.5L46.5,6.5ZM5.768,32.232L4.354,30.818L4.354,30.818L5.768,32.232ZM1.5,3.5L6.5,3.5L6.5,-0.5L1.5,-0.5L1.5,3.5ZM11.5,28.5L36.5,28.5L36.5,24.5L11.5,24.5L11.5,28.5ZM38.289,27.394L48.289,7.394L44.711,5.606L34.711,25.606L38.289,27.394ZM4.539,1.892L5.539,6.892L9.461,6.108L8.461,1.108L4.539,1.892ZM5.539,6.892L9.539,26.892L13.461,26.108L9.461,6.108L5.539,6.892ZM7.5,8.5L46.5,8.5L46.5,4.5L7.5,4.5L7.5,8.5ZM39.5,41.5C39.5,43.157 38.157,44.5 36.5,44.5L36.5,48.5C40.366,48.5 43.5,45.366 43.5,41.5L39.5,41.5ZM36.5,44.5C34.843,44.5 33.5,43.157 33.5,41.5L29.5,41.5C29.5,45.366 32.634,48.5 36.5,48.5L36.5,44.5ZM33.5,41.5C33.5,39.843 34.843,38.5 36.5,38.5L36.5,34.5C32.634,34.5 29.5,37.634 29.5,41.5L33.5,41.5ZM36.5,38.5C38.157,38.5 39.5,39.843 39.5,41.5L43.5,41.5C43.5,37.634 40.366,34.5 36.5,34.5L36.5,38.5ZM14.5,41.5C14.5,43.157 13.157,44.5 11.5,44.5L11.5,48.5C15.366,48.5 18.5,45.366 18.5,41.5L14.5,41.5ZM11.5,44.5C9.843,44.5 8.5,43.157 8.5,41.5L4.5,41.5C4.5,45.366 7.634,48.5 11.5,48.5L11.5,44.5ZM8.5,41.5C8.5,39.843 9.843,38.5 11.5,38.5L11.5,34.5C7.634,34.5 4.5,37.634 4.5,41.5L8.5,41.5ZM11.5,38.5C13.157,38.5 14.5,39.843 14.5,41.5L18.5,41.5C18.5,37.634 15.366,34.5 11.5,34.5L11.5,38.5ZM7.536,38.5L36.5,38.5L36.5,34.5L7.536,34.5L7.536,38.5ZM7.182,33.646L12.914,27.914L10.086,25.086L4.354,30.818L7.182,33.646ZM7.536,34.5C7.09,34.5 6.867,33.961 7.182,33.646L4.354,30.818C1.519,33.653 3.526,38.5 7.536,38.5L7.536,34.5Z" fill="#0F172A"/>
</svg>
