<svg width="36" height="34" viewBox="0 0 36 34" fill="none" xmlns="http://www.w3.org/2000/svg" xmlns:xlink="http://www.w3.org/1999/xlink">
<path d="M17.998,2.416C19.862,0.539 22.266,-0.129 24.572,-0.096C30.115,-0.016 35.71,4.507 35.71,11.06C35.71,17.363 31.678,22.61 27.691,26.178C25.674,27.983 23.604,29.416 21.924,30.403C21.084,30.896 20.327,31.286 19.71,31.558C19.402,31.693 19.113,31.806 18.856,31.887C18.633,31.958 18.317,32.044 18.001,32.044C17.685,32.044 17.369,31.958 17.145,31.887C16.888,31.806 16.6,31.693 16.292,31.558C15.674,31.286 14.917,30.896 14.078,30.403C12.397,29.416 10.328,27.983 8.311,26.178C4.323,22.61 0.292,17.363 0.292,11.06C0.292,4.523 5.873,-0.096 11.449,-0.096C13.692,-0.096 16.12,0.543 17.998,2.416ZM24.534,2.56C22.413,2.529 20.436,3.249 19.106,5.245C18.86,5.614 18.445,5.836 18.001,5.836C17.557,5.836 17.142,5.614 16.896,5.245C15.574,3.261 13.561,2.56 11.449,2.56C7.195,2.56 2.948,6.131 2.948,11.06C2.948,16.223 6.288,20.804 10.082,24.198C11.955,25.874 13.878,27.205 15.423,28.112C16.196,28.566 16.859,28.905 17.362,29.126C17.614,29.237 17.81,29.311 17.948,29.355C17.968,29.362 17.986,29.367 18.001,29.371C18.016,29.367 18.033,29.362 18.053,29.355C18.192,29.311 18.388,29.237 18.64,29.126C19.142,28.905 19.806,28.566 20.579,28.112C22.123,27.205 24.047,25.874 25.92,24.198C29.713,20.804 33.053,16.223 33.053,11.06C33.053,6.146 28.819,2.622 24.534,2.56Z" clip-rule="evenodd" fill-rule="evenodd" fill="#040509"/>
</svg>
