<svg width="26" height="26" viewBox="0 0 26 26" fill="none" xmlns="http://www.w3.org/2000/svg" xmlns:xlink="http://www.w3.org/1999/xlink">
<line x1="13" y1="20.667" x2="22.75" y2="20.667" stroke="#000000" stroke-width="1" stroke-miterlimit="3.999327" stroke-linecap="round" stroke-linejoin="round"/>
<path d="M17.875,3.792L17.168,3.085L17.875,3.792ZM19.5,3.119L19.5,2.119L19.5,3.119ZM21.798,5.417L20.798,5.417L21.798,5.417ZM21.125,7.042L20.418,6.335L21.125,7.042ZM7.583,20.583L7.826,21.554C8.002,21.51 8.162,21.419 8.29,21.291L7.583,20.583ZM3.25,21.667L2.28,21.424C2.195,21.765 2.295,22.125 2.543,22.374C2.791,22.622 3.152,22.722 3.493,22.637L3.25,21.667ZM4.333,17.333L3.626,16.626C3.498,16.754 3.407,16.915 3.363,17.091L4.333,17.333ZM18.582,4.499C18.826,4.255 19.156,4.119 19.5,4.119L19.5,2.119C18.625,2.119 17.786,2.466 17.168,3.085L18.582,4.499ZM19.5,4.119C19.67,4.119 19.839,4.152 19.997,4.217L20.762,2.37C20.362,2.204 19.933,2.119 19.5,2.119L19.5,4.119ZM19.997,4.217C20.154,4.283 20.297,4.378 20.418,4.499L21.832,3.085C21.526,2.778 21.162,2.535 20.762,2.37L19.997,4.217ZM20.418,4.499C20.538,4.619 20.634,4.762 20.699,4.92L22.547,4.155C22.381,3.754 22.138,3.391 21.832,3.085L20.418,4.499ZM20.699,4.92C20.765,5.077 20.798,5.246 20.798,5.417L22.798,5.417C22.798,4.984 22.713,4.555 22.547,4.155L20.699,4.92ZM20.798,5.417C20.798,5.587 20.765,5.756 20.699,5.914L22.547,6.679C22.713,6.279 22.798,5.85 22.798,5.417L20.798,5.417ZM20.699,5.914C20.634,6.071 20.538,6.214 20.418,6.335L21.832,7.749C22.138,7.443 22.381,7.079 22.547,6.679L20.699,5.914ZM20.418,6.335L6.876,19.876L8.29,21.291L21.832,7.749L20.418,6.335ZM7.341,19.613L3.007,20.697L3.493,22.637L7.826,21.554L7.341,19.613ZM4.22,21.909L5.303,17.576L3.363,17.091L2.28,21.424L4.22,21.909ZM5.04,18.041L18.582,4.499L17.168,3.085L3.626,16.626L5.04,18.041Z" fill="#000000"/>
</svg>
