<svg width="50" height="50" viewBox="0 0 50 50" fill="none" xmlns="http://www.w3.org/2000/svg" xmlns:xlink="http://www.w3.org/1999/xlink">
<path d="M6.5,23.5L41.5,23.5L41.5,19.5L6.5,19.5L6.5,23.5ZM44.5,26.5L44.5,41.5L48.5,41.5L48.5,26.5L44.5,26.5ZM41.5,44.5L6.5,44.5L6.5,48.5L41.5,48.5L41.5,44.5ZM3.5,41.5L3.5,26.5L-0.5,26.5L-0.5,41.5L3.5,41.5ZM6.5,44.5C4.843,44.5 3.5,43.157 3.5,41.5L-0.5,41.5C-0.5,45.366 2.634,48.5 6.5,48.5L6.5,44.5ZM44.5,41.5C44.5,43.157 43.157,44.5 41.5,44.5L41.5,48.5C45.366,48.5 48.5,45.366 48.5,41.5L44.5,41.5ZM41.5,23.5C43.157,23.5 44.5,24.843 44.5,26.5L48.5,26.5C48.5,22.634 45.366,19.5 41.5,19.5L41.5,23.5ZM6.5,19.5C2.634,19.5 -0.5,22.634 -0.5,26.5L3.5,26.5C3.5,24.843 4.843,23.5 6.5,23.5L6.5,19.5ZM16.5,3.5L31.5,3.5L31.5,-0.5L16.5,-0.5L16.5,3.5ZM4.5,16.5L4.5,21.5L8.5,21.5L8.5,16.5L4.5,16.5ZM39.5,16.5L39.5,21.5L43.5,21.5L43.5,16.5L39.5,16.5ZM9.5,6.5L9.5,11.5L13.5,11.5L13.5,6.5L9.5,6.5ZM11.5,13.5L36.5,13.5L36.5,9.5L11.5,9.5L11.5,13.5ZM34.5,6.5L34.5,11.5L38.5,11.5L38.5,6.5L34.5,6.5ZM31.5,3.5C33.157,3.5 34.5,4.843 34.5,6.5L38.5,6.5C38.5,2.634 35.366,-0.5 31.5,-0.5L31.5,3.5ZM16.5,-0.5C12.634,-0.5 9.5,2.634 9.5,6.5L13.5,6.5C13.5,4.843 14.843,3.5 16.5,3.5L16.5,-0.5ZM43.5,16.5C43.5,12.634 40.366,9.5 36.5,9.5L36.5,13.5C38.157,13.5 39.5,14.843 39.5,16.5L43.5,16.5ZM8.5,16.5C8.5,14.843 9.843,13.5 11.5,13.5L11.5,9.5C7.634,9.5 4.5,12.634 4.5,16.5L8.5,16.5Z" fill="#0F172A"/>
</svg>
