<svg width="36" height="32" viewBox="0 0 36 32" fill="none" xmlns="http://www.w3.org/2000/svg" xmlns:xlink="http://www.w3.org/1999/xlink">
<path d="M17.998,2.256C19.862,0.379 22.266,-0.29 24.572,-0.256C30.115,-0.176 35.71,4.347 35.71,10.9C35.71,17.203 31.678,22.45 27.691,26.018C25.674,27.823 23.604,29.256 21.924,30.242C21.084,30.736 20.327,31.126 19.71,31.397C19.402,31.533 19.113,31.646 18.856,31.727C18.633,31.798 18.317,31.884 18.001,31.884C17.685,31.884 17.369,31.798 17.145,31.727C16.888,31.646 16.6,31.533 16.292,31.397C15.674,31.126 14.917,30.736 14.078,30.242C12.397,29.256 10.328,27.823 8.311,26.018C4.323,22.45 0.292,17.203 0.292,10.9C0.292,4.363 5.873,-0.256 11.449,-0.256C13.692,-0.256 16.12,0.383 17.998,2.256ZM24.534,2.4C22.413,2.369 20.436,3.089 19.106,5.085C18.86,5.454 18.445,5.676 18.001,5.676C17.557,5.676 17.142,5.454 16.896,5.085C15.574,3.101 13.561,2.4 11.449,2.4C7.195,2.4 2.948,5.971 2.948,10.9C2.948,16.063 6.288,20.644 10.082,24.038C11.955,25.714 13.878,27.045 15.423,27.952C16.196,28.406 16.859,28.745 17.362,28.966C17.614,29.077 17.81,29.151 17.948,29.195C17.968,29.202 17.986,29.207 18.001,29.211C18.016,29.207 18.033,29.202 18.053,29.195C18.192,29.151 18.388,29.077 18.64,28.966C19.142,28.745 19.806,28.406 20.579,27.952C22.123,27.045 24.047,25.714 25.92,24.038C29.713,20.644 33.053,16.063 33.053,10.9C33.053,5.986 28.819,2.462 24.534,2.4Z" clip-rule="evenodd" fill-rule="evenodd" fill="#040509"/>
</svg>
