<svg width="88" height="88" viewBox="0 0 88 88" fill="none" xmlns="http://www.w3.org/2000/svg" xmlns:xlink="http://www.w3.org/1999/xlink">
<path d="M86.973,44.027C86.973,67.609 67.891,87 44,87C20.171,87 1.026,67.668 1.026,44.027C1.026,20.293 20.266,1.053 44,1.053C67.778,1.053 86.973,20.333 86.973,44.027Z" fill="#FF5A5F"/>
<path d="M84.56,35.828C84.422,27.919 82.926,26.221 82.054,13.227C81.848,10.171 80.561,7.894 78.627,6.323C78.627,6.323 69.171,-0.573 66.442,-1C66.442,-1 60.978,0.38 58.003,1.345C57.035,1.659 56.332,2.48 56.16,3.463C56.138,3.579 56.126,3.699 56.119,3.819C55.98,6.964 55.955,5.999 57.574,11.454C57.574,11.454 59.79,14.669 63.258,13.108C65.222,14.5 65.771,13.211 72.602,14.434C72.823,15.541 73.274,16.943 73.413,17.816C73.699,19.387 73.445,20.71 73.4,20.809C71.87,31.217 66.743,38.276 65.683,42.578C65.584,42.942 65.004,42.96 64.86,42.544C63.817,39.536 61.03,38.02 60.336,37.599C57.349,35.784 52.379,35.246 48.87,35.104L48.477,34.886C47.586,34.061 46.069,31.572 43.503,29.195C40.912,26.797 37.214,24.457 31.871,23.857L28.557,23.484L7.022,29.85C7.017,29.88 7.012,29.909 7.01,29.938C6.84,31.016 6.707,32.101 6.615,33.192L27.792,49.749L27.681,49.828C34.529,54.826 44.928,65.111 63.68,64.018L65.824,63.71C65.824,63.711 65.823,63.712 65.823,63.712C74.396,64.21 71.869,64.156 77.203,64.018C80.077,63.643 82.232,61.203 82.247,58.306C82.268,53.699 84.721,44.919 84.56,35.828Z" fill="#FFC396"/>
<path d="M82.271,57.522C82.516,52.91 84.566,44.986 84.567,36.7C82.63,43.509 81.401,50.58 78.048,57.044C77.525,58.052 76.505,58.706 75.37,58.757C73.527,58.84 69.468,58.949 66.344,58.516C65.639,58.418 64.919,58.462 64.238,58.672C56.727,60.993 44.149,54.644 39.915,50.127C27.814,43.339 18.9,33.968 13.871,27.826L7.022,29.85C7.017,29.88 7.012,29.909 7.009,29.938C6.839,31.016 6.707,32.101 6.615,33.192L27.792,49.749L27.681,49.828C34.528,54.826 44.927,65.111 63.679,64.018L65.823,63.71C65.824,63.712 65.822,63.712 65.822,63.712C74.395,64.21 71.869,64.156 77.202,64.018C80.076,63.643 82.231,61.203 82.246,58.306C82.246,58.176 82.25,58.042 82.254,57.905C82.258,57.78 82.264,57.653 82.271,57.522Z" fill="#FFAF82"/>
<path d="M37.693,25.043L27.377,54.79C24.213,63.91 23.941,74.631 23.854,81.999C10.246,74.766 1.026,60.433 1.026,44.027C1.026,32.904 5.251,22.769 12.184,15.14C17.366,15.799 23.674,16.158 31.74,19.906L36.437,22.086C37.552,22.605 38.095,23.881 37.693,25.043Z" fill="#1E8CE6"/>
<path d="M28.472,51.633L27.377,54.79C25.322,60.714 24.488,67.315 24.13,73.23C11.729,64.501 3.626,50.075 3.626,33.757C3.626,31.988 3.721,30.243 3.907,28.526C5.43,24.591 7.515,20.935 10.065,17.66C12.334,32.563 19.226,44.976 28.472,51.633Z" fill="#1478D2"/>
<path d="M65.682,42.577C66.162,40.629 67.477,38.115 68.913,34.982C70.649,31.195 72.563,26.504 73.4,20.81C73.444,20.709 73.699,19.388 73.413,17.815C73.275,16.942 72.822,15.541 72.601,14.434C71.612,14.257 70.756,14.133 70.008,14.045L73.888,13.414C81.581,23.936 65.674,42.61 65.682,42.577Z" fill="#FF9B69"/>
<path d="M76.304,12.412C74.59,14.359 72.602,14.434 72.602,14.434C65.771,13.211 65.222,14.499 63.259,13.108C59.79,14.669 57.575,11.454 57.575,11.454C55.956,5.999 55.98,6.964 56.12,3.818C56.126,3.699 56.138,3.579 56.16,3.463C58.366,5.451 61.483,7.784 65.322,9.405C65.782,9.599 66.125,9.996 66.25,10.479C66.303,10.598 66.334,11.317 67.065,11.63C68.467,12.229 72.18,13.487 76.039,12.033C76.271,11.945 76.468,12.226 76.304,12.412Z" fill="#FFAF82"/>
</svg>
