<svg width="88" height="88" viewBox="0 0 88 88" fill="none" xmlns="http://www.w3.org/2000/svg" xmlns:xlink="http://www.w3.org/1999/xlink">
<path d="M10,33L8.772,31.421C8.285,31.8 8,32.383 8,33L10,33ZM43,7.333L44.228,5.755C43.506,5.193 42.494,5.193 41.772,5.755L43,7.333ZM76,33L78,33C78,32.383 77.715,31.8 77.228,31.421L76,33ZM73.852,78.519L72.438,77.105L73.852,78.519ZM10,73.333L8,73.333L10,73.333ZM11.228,34.579L44.228,8.912L41.772,5.755L8.772,31.421L11.228,34.579ZM41.772,8.912L74.772,34.579L77.228,31.421L44.228,5.755L41.772,8.912ZM74,33L74,73.333L78,73.333L78,33L74,33ZM74,73.333C74,74.748 73.438,76.104 72.438,77.105L75.266,79.933C77.017,78.183 78,75.809 78,73.333L74,73.333ZM72.438,77.105C71.438,78.105 70.081,78.667 68.667,78.667L68.667,82.667C71.142,82.667 73.516,81.683 75.266,79.933L72.438,77.105ZM68.667,78.667L17.333,78.667L17.333,82.667L68.667,82.667L68.667,78.667ZM17.333,78.667C15.919,78.667 14.562,78.105 13.562,77.105L10.734,79.933C12.484,81.683 14.858,82.667 17.333,82.667L17.333,78.667ZM13.562,77.105C12.562,76.104 12,74.748 12,73.333L8,73.333C8,75.809 8.983,78.183 10.734,79.933L13.562,77.105ZM12,73.333L12,33L8,33L8,73.333L12,73.333Z" fill="#8C8CA1"/>
<path d="M30,80.667C30,81.771 30.895,82.667 32,82.667C33.105,82.667 34,81.771 34,80.667L30,80.667ZM32,44L32,42C30.895,42 30,42.895 30,44L32,44ZM54,44L56,44C56,42.895 55.105,42 54,42L54,44ZM52,80.667C52,81.771 52.895,82.667 54,82.667C55.105,82.667 56,81.771 56,80.667L52,80.667ZM34,80.667L34,44L30,44L30,80.667L34,80.667ZM32,46L54,46L54,42L32,42L32,46ZM52,44L52,80.667L56,80.667L56,44L52,44Z" fill="#8C8CA1"/>
</svg>
