<svg width="40" height="48" viewBox="0 0 40 48" fill="none" xmlns="http://www.w3.org/2000/svg" xmlns:xlink="http://www.w3.org/1999/xlink">
<path d="M20,6L20,4L20,6ZM8,18L6,18L8,18ZM2,36L0.891,34.336C0.157,34.825 -0.17,35.736 0.086,36.58C0.341,37.423 1.119,38 2,38L2,36ZM38,36L38,38C38.881,38 39.659,37.423 39.914,36.58C40.17,35.736 39.843,34.825 39.109,34.336L38,36ZM34,18C34,14.287 32.525,10.726 29.899,8.101L27.071,10.929C28.946,12.804 30,15.348 30,18L34,18ZM29.899,8.101C27.274,5.475 23.713,4 20,4L20,8C22.652,8 25.196,9.054 27.071,10.929L29.899,8.101ZM20,4C16.287,4 12.726,5.475 10.1,8.101L12.929,10.929C14.804,9.054 17.348,8 20,8L20,4ZM10.1,8.101C7.475,10.726 6,14.287 6,18L10,18C10,15.348 11.054,12.804 12.929,10.929L10.1,8.101ZM6,18C6,24.705 4.566,28.869 3.244,31.292C2.581,32.509 1.934,33.307 1.486,33.781C1.261,34.018 1.084,34.176 0.977,34.264C0.924,34.309 0.888,34.336 0.873,34.347C0.865,34.353 0.863,34.355 0.866,34.353C0.867,34.352 0.87,34.35 0.874,34.347C0.876,34.346 0.878,34.344 0.881,34.342C0.883,34.341 0.884,34.34 0.886,34.339C0.886,34.339 0.888,34.338 0.888,34.338C0.889,34.337 0.891,34.336 2,36C3.109,37.664 3.111,37.663 3.112,37.662C3.113,37.662 3.114,37.661 3.115,37.66C3.117,37.659 3.119,37.658 3.121,37.656C3.125,37.653 3.13,37.65 3.135,37.647C3.145,37.64 3.156,37.632 3.169,37.623C3.194,37.605 3.225,37.583 3.262,37.556C3.334,37.502 3.427,37.43 3.538,37.337C3.76,37.152 4.052,36.888 4.389,36.532C5.066,35.818 5.919,34.741 6.756,33.208C8.434,30.131 10,25.295 10,18L6,18ZM2,38L38,38L38,34L2,34L2,38ZM38,36C39.109,34.336 39.111,34.337 39.112,34.338C39.112,34.338 39.114,34.339 39.114,34.339C39.116,34.34 39.117,34.341 39.119,34.342C39.122,34.344 39.124,34.346 39.126,34.347C39.13,34.35 39.133,34.352 39.134,34.353C39.137,34.355 39.135,34.353 39.127,34.347C39.112,34.336 39.076,34.309 39.023,34.264C38.916,34.176 38.739,34.018 38.514,33.781C38.066,33.307 37.419,32.509 36.756,31.292C35.434,28.869 34,24.705 34,18L30,18C30,25.295 31.566,30.131 33.244,33.208C34.081,34.741 34.934,35.818 35.611,36.532C35.948,36.888 36.24,37.152 36.462,37.337C36.573,37.43 36.666,37.502 36.738,37.556C36.775,37.583 36.806,37.605 36.831,37.623C36.844,37.632 36.855,37.64 36.865,37.647C36.87,37.65 36.875,37.653 36.879,37.656C36.881,37.658 36.883,37.659 36.885,37.66C36.886,37.661 36.887,37.662 36.888,37.662C36.889,37.663 36.891,37.664 38,36Z" fill="url(#ps_0_3665_1362)"/>
<path d="M25.189,45.004C25.743,44.048 25.418,42.824 24.463,42.27C23.507,41.716 22.283,42.041 21.729,42.996L25.189,45.004ZM18.269,42.996C17.715,42.041 16.491,41.716 15.536,42.27C14.58,42.824 14.255,44.048 14.809,45.004L18.269,42.996ZM21.729,42.996C21.553,43.3 21.301,43.551 20.997,43.726L22.994,47.192C23.905,46.668 24.662,45.913 25.189,45.004L21.729,42.996ZM20.997,43.726C20.694,43.901 20.349,43.993 19.999,43.993L19.999,47.993C21.05,47.993 22.083,47.717 22.994,47.192L20.997,43.726ZM19.999,43.993C19.649,43.993 19.304,43.901 19.001,43.726L17.004,47.192C17.915,47.717 18.948,47.993 19.999,47.993L19.999,43.993ZM19.001,43.726C18.697,43.551 18.445,43.3 18.269,42.996L14.809,45.004C15.336,45.913 16.094,46.668 17.004,47.192L19.001,43.726Z" fill="url(#ps_0_3665_1363)"/>
<circle cx="32" cy="8" r="8" fill="#FF4545" stroke="#FFFFFF" stroke-width="1" stroke-miterlimit="3.999327"/>
<defs>
<linearGradient id="ps_0_3665_1362" x1="2" y1="4.158" x2="38" y2="39.421" gradientUnits="userSpaceOnUse">
<stop stop-color="#D61355"/>
<stop offset="1" stop-color="#FF0000"/>
</linearGradient>
<linearGradient id="ps_0_3665_1363" x1="16.539" y1="43.878" x2="23.459" y2="46.22" gradientUnits="userSpaceOnUse">
<stop stop-color="#D61355"/>
<stop offset="1" stop-color="#FF0000"/>
</linearGradient>
</defs>
</svg>
