<svg width="44" height="44" viewBox="0 0 44 44" fill="none" xmlns="http://www.w3.org/2000/svg" xmlns:xlink="http://www.w3.org/1999/xlink">
<path d="M36.5,27C36.5,25.895 35.605,25 34.5,25C33.395,25 32.5,25.895 32.5,27L36.5,27ZM32.5,42C32.5,43.105 33.395,44 34.5,44C35.605,44 36.5,43.105 36.5,42L32.5,42ZM27,32.5C25.895,32.5 25,33.395 25,34.5C25,35.605 25.895,36.5 27,36.5L27,32.5ZM42,36.5C43.105,36.5 44,35.605 44,34.5C44,33.395 43.105,32.5 42,32.5L42,36.5ZM7,4L12,4L12,0L7,0L7,4ZM15,7L15,12L19,12L19,7L15,7ZM12,15L7,15L7,19L12,19L12,15ZM4,12L4,7L0,7L0,12L4,12ZM7,15C5.343,15 4,13.657 4,12L0,12C0,15.866 3.134,19 7,19L7,15ZM15,12C15,13.657 13.657,15 12,15L12,19C15.866,19 19,15.866 19,12L15,12ZM12,4C13.657,4 15,5.343 15,7L19,7C19,3.134 15.866,0 12,0L12,4ZM7,0C3.134,0 0,3.134 0,7L4,7C4,5.343 5.343,4 7,4L7,0ZM32,4L37,4L37,0L32,0L32,4ZM40,7L40,12L44,12L44,7L40,7ZM37,15L32,15L32,19L37,19L37,15ZM29,12L29,7L25,7L25,12L29,12ZM32,15C30.343,15 29,13.657 29,12L25,12C25,15.866 28.134,19 32,19L32,15ZM40,12C40,13.657 38.657,15 37,15L37,19C40.866,19 44,15.866 44,12L40,12ZM37,4C38.657,4 40,5.343 40,7L44,7C44,3.134 40.866,0 37,0L37,4ZM32,0C28.134,0 25,3.134 25,7L29,7C29,5.343 30.343,4 32,4L32,0ZM7,29L12,29L12,25L7,25L7,29ZM15,32L15,37L19,37L19,32L15,32ZM12,40L7,40L7,44L12,44L12,40ZM4,37L4,32L0,32L0,37L4,37ZM7,40C5.343,40 4,38.657 4,37L0,37C0,40.866 3.134,44 7,44L7,40ZM15,37C15,38.657 13.657,40 12,40L12,44C15.866,44 19,40.866 19,37L15,37ZM12,29C13.657,29 15,30.343 15,32L19,32C19,28.134 15.866,25 12,25L12,29ZM7,25C3.134,25 0,28.134 0,32L4,32C4,30.343 5.343,29 7,29L7,25ZM32.5,27L32.5,42L36.5,42L36.5,27L32.5,27ZM27,36.5L42,36.5L42,32.5L27,32.5L27,36.5Z" fill="#0F172A"/>
</svg>
