<svg width="754" height="800" viewBox="0 0 754 800" fill="none" xmlns="http://www.w3.org/2000/svg" xmlns:xlink="http://www.w3.org/1999/xlink">
<g opacity="0.21">
<path d="M693.271,310.344C693.271,486.586 532.395,647.566 358.705,647.566C185.014,647.566 55.363,574.852 55.363,398.61C55.363,222.367 158.249,151.918 331.939,151.918C505.629,151.918 693.271,134.101 693.271,310.344Z" transform="rotate(120 374.317 399.49)" fill="#FF785B"/>
</g>
<g opacity="0.21">
<path d="M745.989,667.107C745.989,695.956 708.777,722.306 668.602,722.306C628.426,722.306 598.817,698.585 598.437,681.555C598.057,664.525 622.235,641.175 662.411,641.175C702.586,641.175 745.989,638.259 745.989,667.107Z" transform="rotate(-90 672.211 681.699)" fill="url(#pf_0_3562_1095)"/>
</g>
<g opacity="0.21">
<path d="M153.806,561.754C153.806,590.603 116.594,616.953 76.419,616.953C36.243,616.953 6.634,593.232 6.254,576.202C5.874,559.172 30.052,535.822 70.228,535.822C110.403,535.822 153.806,532.906 153.806,561.754Z" transform="rotate(-210 80.028 576.346)" fill="#FF785B"/>
</g>
<path d="M241.803,176.729L229.579,339.316C229.579,339.316 271.732,368.038 304.145,357.78L361.637,206.201C361.637,206.201 273.9,192.392 241.803,176.729Z" transform="rotate(-75.55 295.608 268.362)" fill="#BA5F49"/>
<g opacity="0.75" style="mix-blend-mode:multiply">
<path d="M313.173,236.089L320.429,216.954C320.429,216.954 232.693,203.145 200.595,187.482L197.992,222.043C236.675,238.969 263.607,242.52 313.173,236.089Z" transform="rotate(-75.55 259.211 213.287)" fill="#8F5243"/>
</g>
<path d="M290.366,312.218C308.734,312.218 323.624,296.77 323.624,277.714C323.624,258.659 308.734,243.211 290.366,243.211C271.998,243.211 257.108,258.659 257.108,277.714C257.108,296.77 271.998,312.218 290.366,312.218Z" transform="rotate(-230.623 290.366 277.715)" fill="#CCB1B1"/>
<path d="M315.706,282.752C314.073,289.389 309.878,295.108 304.039,298.657C298.201,302.206 291.195,303.297 284.555,301.689C281.202,301.09 278.005,299.818 275.157,297.95C272.309,296.082 269.868,293.656 267.981,290.819C266.095,287.982 264.802,284.792 264.18,281.442C263.558,278.091 263.621,274.649 264.364,271.324C265.107,267.998 266.515,264.858 268.504,262.091C270.492,259.324 273.02,256.989 275.934,255.226C278.848,253.462 282.089,252.308 285.462,251.831C288.834,251.354 292.268,251.565 295.557,252.452C302.236,253.813 308.105,257.764 311.88,263.442C315.656,269.12 317.032,276.062 315.706,282.752L315.706,282.752Z" transform="rotate(-75.55 289.977 276.998)" fill="#F0E1DD"/>
<path d="M277.474,283.246C278.227,281.392 279.505,279.8 281.152,278.664C282.798,277.529 284.741,276.9 286.74,276.855C289.382,276.46 292.063,277.17 294.626,276.855C297.19,276.539 298.57,274.053 299.871,271.805C300.941,269.888 301.902,267.912 302.749,265.887C297.86,262.572 289.697,263.046 282.56,267.622C273.846,273.185 269.942,282.694 273.885,288.848C274.395,289.634 275.02,290.339 275.739,290.939C276.018,288.316 276.6,285.735 277.474,283.246L277.474,283.246Z" transform="rotate(-75.55 287.548 277.338)" fill="#8F4B46"/>
<path d="M306.627,264.343C305.917,265.947 305.128,267.565 304.261,269.196C303.627,270.813 302.634,272.264 301.356,273.44C300.079,274.615 298.55,275.485 296.887,275.982C292.944,276.652 286.28,274.561 283.125,278.23C281.148,281.319 280.17,284.942 280.326,288.607C283.306,289.466 286.442,289.642 289.5,289.123C292.558,288.604 295.46,287.403 297.991,285.608C306.627,280.006 310.531,270.537 306.627,264.343Z" transform="rotate(-75.55 294.226 276.879)" fill="#8F4B46"/>
<g style="mix-blend-mode:screen">
<path d="M288.655,339.7C291.77,339.7 295.555,339.7 299.419,339.7C307.74,313.897 334.908,229.901 344.806,200.548C339.354,199.722 333.956,198.576 328.639,197.116C319.648,225.956 294.845,308.137 286.801,339.503C287.432,339.7 288.024,339.739 288.655,339.7Z" transform="rotate(-75.55 315.803 268.415)" fill="#8F524D"/>
</g>
<g opacity="0.55" style="mix-blend-mode:multiply">
<path d="M274.456,283.889C271.222,263.374 271.972,241.95 270.986,221.198C270.652,216.483 270.652,211.75 270.986,207.034C264.233,205.055 257.642,202.562 251.27,199.578L239.756,348.869C239.756,348.869 277.61,375.105 307.066,365.597L313.454,348.672C292.2,334.468 278.754,310.994 274.456,283.889Z" transform="rotate(-75.55 276.605 283.625)" fill="#8B4B3A"/>
</g>
<g opacity="0.55" style="mix-blend-mode:multiply">
<path d="M286.179,217.985C281.053,216.683 271.116,212.698 266.463,211.278C262.874,238.895 251.045,357.255 250.69,360.648C255.892,363.41 261.266,365.835 266.778,367.908C267.646,358.241 284.68,224.85 286.179,217.985Z" transform="rotate(-75.55 268.434 289.593)" fill="#A75640"/>
</g>
<g style="mix-blend-mode:screen">
<path d="M312.139,244.61C311.504,246.238 310.402,247.643 308.972,248.647C307.542,249.652 305.847,250.211 304.101,250.256C302.354,250.301 300.633,249.829 299.154,248.899C297.674,247.969 296.502,246.622 295.785,245.028C295.067,243.434 294.836,241.664 295.12,239.939C295.404,238.214 296.19,236.612 297.381,235.332C298.572,234.053 300.114,233.154 301.813,232.748C303.512,232.342 305.294,232.447 306.934,233.05C308.035,233.466 309.043,234.095 309.901,234.902C310.759,235.708 311.449,236.676 311.933,237.75C312.416,238.823 312.683,239.982 312.719,241.159C312.754,242.336 312.557,243.509 312.139,244.61Z" transform="rotate(-75.55 303.862 241.382)" fill="#B28784"/>
</g>
<g style="mix-blend-mode:screen">
<path d="M310.988,226.014C310.575,226.94 309.902,227.725 309.05,228.273C308.198,228.822 307.205,229.109 306.192,229.101C305.18,229.093 304.191,228.79 303.348,228.228C302.505,227.666 301.844,226.871 301.447,225.939C301.049,225.007 300.932,223.979 301.109,222.981C301.287,221.984 301.751,221.059 302.446,220.322C303.14,219.584 304.035,219.066 305.02,218.829C306.005,218.593 307.037,218.65 307.991,218.992C308.651,219.252 309.253,219.641 309.762,220.137C310.271,220.632 310.677,221.223 310.956,221.876C311.235,222.53 311.381,223.232 311.386,223.942C311.392,224.653 311.256,225.357 310.988,226.014L310.988,226.014Z" transform="rotate(-75.55 306.208 223.894)" fill="#B28784"/>
</g>
<path d="M188.022,177.224L175.207,194.426C175.207,194.426 203.992,218.097 253.558,225.081C303.124,232.064 324.536,229.855 324.536,229.855L323.471,205.433C323.471,205.433 294.015,175.843 188.022,177.224Z" transform="rotate(-75.55 249.871 203.682)" fill="#F2F2F2"/>
<g opacity="0.9" style="mix-blend-mode:screen">
<path d="M198.204,232.635C203.325,227.017 208.748,221.683 214.45,216.656L216.776,214.486C208.89,214.21 200.333,214.092 191.303,214.21L178.488,231.293C182.485,234.385 186.702,237.181 191.106,239.657C193.352,237.198 195.721,234.855 198.204,232.635L198.204,232.635Z" transform="rotate(-75.55 197.632 226.911)" fill="#F2F2F2"/>
</g>
<g opacity="0.9" style="mix-blend-mode:screen">
<path d="M260.173,197.458C302.129,202.745 320.425,200.812 320.425,200.812L319.44,176.39C313.873,171.694 307.554,167.972 300.749,165.383C287.933,176.785 273.698,186.648 260.173,197.458Z" transform="rotate(-75.55 290.299 183.27)" fill="#F2F2F2"/>
</g>
<path d="M188.036,177.219L175.221,194.42C175.221,194.42 204.006,218.092 253.572,225.076C303.138,232.059 324.55,229.849 324.55,229.849L323.485,205.428C323.485,205.428 270.843,217.106 188.036,177.219Z" transform="rotate(-75.55 249.885 203.7)" fill="#DEDEDE"/>
<g opacity="0.65" style="mix-blend-mode:screen">
<path d="M299.336,182.109C294.013,182.109 287.901,181.557 281.04,180.728C278.832,187.238 277.097,194.261 275.44,198.956C274.967,200.218 274.534,201.481 274.06,202.901C283.879,204.006 292.12,204.677 299.021,205.032C298.584,197.393 298.689,189.733 299.336,182.109L299.336,182.109Z" transform="rotate(-75.55 286.698 192.88)" fill="#C7CBC9"/>
</g>
<g opacity="0.35" style="mix-blend-mode:multiply">
<path d="M248.524,220.873C233.212,216.519 218.241,211.047 203.73,204.5C203.256,205.249 202.783,205.999 202.271,206.709C198.327,212.311 193.911,217.44 190.441,223.358C208.298,234.357 227.943,242.142 248.485,246.36C245.631,238.102 245.645,229.122 248.524,220.873L248.524,220.873Z" transform="rotate(-75.55 219.483 225.43)" fill="#8F838D"/>
</g>
<path d="M201.438,163.345L190.909,181.927C208.528,190.151 227.241,195.786 246.469,198.656C278.646,203.469 289.844,201.22 289.844,201.22L290.436,181.493C290.436,181.493 274.269,166.738 238.662,162.319C226.275,160.736 213.718,161.082 201.438,163.345L201.438,163.345Z" transform="rotate(-75.55 240.673 181.544)" fill="#F2F2F2"/>
<g opacity="0.9" style="mix-blend-mode:screen">
<path d="M277.285,162.932C278.192,162.616 279.099,162.222 280.006,161.827C280.653,161.504 281.344,161.278 282.056,161.157L282.056,157.961C278.748,155.227 275.136,152.884 271.291,150.978C269.359,153.147 267.348,155.317 265.337,157.369C263.326,159.421 261.394,161.314 259.225,163.366C265.248,163.601 271.28,163.456 277.285,162.932Z" transform="rotate(-75.55 270.641 157.226)" fill="#F2F2F2"/>
</g>
<g opacity="0.9" style="mix-blend-mode:screen">
<path d="M237.737,178.277C239.906,178.829 242.114,179.263 244.283,179.697C244.356,177.814 245.081,176.015 246.333,174.608C249.961,170.347 254.22,166.481 258.163,162.575C255.679,161.746 252.997,160.957 250.277,160.247C244.046,165.376 238.21,171.018 232.335,176.581C233.952,177.212 235.845,177.764 237.737,178.277Z" transform="rotate(-75.55 245.249 169.972)" fill="#F2F2F2"/>
</g>
<g opacity="0.9" style="mix-blend-mode:screen">
<path d="M204.69,192.053C205.689,191.317 206.715,190.607 207.766,189.923C210.29,187.95 212.853,185.978 215.416,184.084C209.615,184.247 203.838,184.894 198.145,186.017L196.37,189.055C199.17,189.962 201.93,190.949 204.69,192.053Z" transform="rotate(-75.55 205.893 188.069)" fill="#F2F2F2"/>
</g>
<path d="M251.948,178.452C234.964,175.458 218.438,170.286 202.776,163.065L202.027,163.065L191.498,181.726C209.116,189.95 227.83,195.584 247.058,198.454C279.235,203.268 290.433,201.019 290.433,201.019L291.025,181.568C277.93,181.753 264.847,180.71 251.948,178.452L251.948,178.452Z" transform="rotate(-75.55 241.262 182.304)" fill="#DEDEDE"/>
<g opacity="0.65" style="mix-blend-mode:screen">
<path d="M275.295,161.542C271.352,161.305 267.645,161.069 263.899,160.635C262.125,167.144 261.179,173.93 259.956,180.361C268.237,181.269 274.546,181.584 279.16,181.663C278.134,175.035 276.636,168.289 275.295,161.542Z" transform="rotate(-75.55 269.558 171.149)" fill="#C7CBC9"/>
</g>
<g opacity="0.35" style="mix-blend-mode:multiply">
<path d="M242.262,198.94C242.262,196.612 242.262,194.206 242.46,191.799C230.229,188.924 218.335,184.772 206.971,179.411L206.222,179.411L195.575,198.072C210.76,205.176 226.776,210.346 243.248,213.459C242.504,208.657 242.174,203.799 242.262,198.94L242.262,198.94Z" transform="rotate(-75.55 219.412 196.435)" fill="#8F838D"/>
</g>
<path d="M207.816,164.534C218.688,164.239 229.563,165.058 240.268,166.98C249.633,169.212 258.749,172.384 267.476,176.449C257.363,176.035 247.287,174.968 237.311,173.253C227.279,171.072 217.421,168.157 207.816,164.534L207.816,164.534Z" transform="rotate(-75.55 237.646 170.462)" fill="#A1A8A6"/>
<g style="mix-blend-mode:multiply">
<path d="M232.139,174.631C230.325,174.434 228.196,174.868 226.382,174.631C222.561,174.858 218.764,175.385 215.026,176.209C218.969,177.55 224.568,179.365 231.548,181.141C234.978,175.381 233.086,174.907 232.139,174.631Z" transform="rotate(-75.55 224.272 177.859)" fill="#A1A8A6"/>
</g>
<path d="M215.951,176.627C215.083,176.193 214.886,174.891 215.32,173.589C216.7,169.644 219.263,163.173 220.604,162.976C222.694,161.358 229.082,175.364 228.687,175.759C227.504,176.864 224.744,179.31 223.6,179.231C220.944,178.716 218.37,177.84 215.951,176.627L215.951,176.627Z" transform="rotate(-75.55 221.901 171.039)" fill="#DEDEDE"/>
<g opacity="0.65" style="mix-blend-mode:screen">
<path d="M221.169,161.159C223.535,163.921 224.008,169.642 222.943,177.177C224.165,177.177 226.886,174.81 228.03,173.705C228.503,173.311 223.101,161.948 221.169,161.159Z" transform="rotate(-75.55 224.614 169.168)" fill="#DEDEDE"/>
</g>
<path d="M614.523,222.086C603.586,210.14 527.031,212.549 489.957,240.106C477.315,249.492 469.89,263.296 459.857,273.586C410.442,325.236 428,362.631 468.887,384.666C491.964,397.064 540.225,396.412 581.161,373.172C622.098,349.932 637.249,329.804 641.363,306.463C649.339,256.369 614.523,222.086 614.523,222.086ZM587.984,308.873C581.864,307.567 572.934,304.606 563.753,302.899C563.47,302.924 563.184,302.924 562.9,302.899C556.983,303.109 551.085,303.696 545.242,304.656C542.915,306.468 540.487,308.144 537.967,309.676C533.084,311.597 528.925,315.003 526.078,319.413C525.072,321.112 523.742,322.595 522.164,323.78C520.064,327.072 518.203,330.511 516.596,334.07C508.218,352.592 500.141,325.236 491.914,318.66C487.499,311.332 529.138,265.755 555.074,270.173C558.477,270.237 561.855,270.778 565.108,271.779L566.161,272.18C575.643,273.536 585.074,275.895 594.406,277.903C614.322,282.32 607.85,313.39 587.984,309.023L587.984,308.873Z" fill="#EE9843"/>
<g opacity="0.65" style="mix-blend-mode:multiply">
<path d="M612.818,220.831C597.216,210.391 525.526,213.654 489.958,240.106C477.315,249.492 469.891,263.296 459.857,273.586C421.228,313.741 423.586,345.565 445.81,367.951L447.867,369.758C457.901,371.415 469.038,369.758 477.566,370.461C492.617,372.118 507.667,387.828 522.717,379.998C536.914,372.569 547.299,372.419 562.851,370.963C576.848,369.608 581.262,352.993 595.159,349.63C600.778,348.325 612.416,348.677 613.069,340.595C613.081,336.737 613.955,332.93 615.627,329.452C622.149,318.359 639.005,319.012 634.891,303.953C631.379,291.355 633.437,277.752 639.909,270.323C635.593,243.168 618.035,226.654 612.818,220.831ZM587.734,309.023C581.614,307.718 572.684,304.757 563.503,303.05C563.219,303.074 562.934,303.074 562.65,303.05C556.733,303.26 550.834,303.847 544.991,304.807C542.665,306.619 540.236,308.295 537.717,309.826C532.833,311.748 528.675,315.154 525.827,319.564C524.822,321.262 523.492,322.746 521.914,323.931C519.814,327.223 517.953,330.662 516.346,334.221C512.282,343.155 508.369,341.449 504.406,336.53C498.988,333.317 493.62,319.815 488.152,315.448C483.737,308.17 525.376,262.543 551.312,266.96C554.713,267.049 558.087,267.589 561.346,268.566C561.726,268.686 562.095,268.838 562.45,269.018C571.931,270.323 581.363,272.682 590.694,274.74C594.329,275.412 597.574,277.439 599.774,280.412C612.717,288.895 605.694,312.938 587.985,309.023L587.734,309.023Z" fill="#D98B43"/>
</g>
<path d="M444.607,337.534C445.811,338.788 447.015,340.043 448.269,341.248L452.132,339.642C462.867,335.225 472.5,328.499 483.286,324.081L493.319,320.016C492.972,319.626 492.585,319.272 492.165,318.962C487.751,311.633 529.389,266.057 555.326,270.474C558.729,270.538 562.106,271.079 565.36,272.08L566.413,272.482C571.831,273.285 577.249,274.389 582.667,275.543C587.182,269.821 591.647,263.898 596.564,258.327C604.233,248.656 612.763,239.702 622.049,231.573C619.73,228.265 617.217,225.097 614.524,222.086C603.587,210.14 527.032,212.549 489.958,240.106C477.316,249.492 469.891,263.296 459.857,273.586C438.888,295.471 430.76,315.599 431.413,333.167C433.8,332.582 436.303,332.682 438.636,333.454C440.97,334.226 443.039,335.64 444.607,337.534Z" fill="#822A00"/>
<path d="M635.495,307.116C634.691,301.544 628.119,291.806 628.973,286.536C629.825,281.266 636.649,276.497 639.007,272.03C643.471,264.149 639.007,254.914 636.247,246.933C625.361,215.511 601.13,193.827 545.193,197.14C516.246,198.796 459.908,213.202 430.61,267.412C413.052,299.838 417.918,323.027 433.721,345.565C439.691,354.098 457.35,368.604 469.992,367.299C476.163,366.596 479.273,363.183 486.146,364.588C491.321,365.781 496.158,368.132 500.293,371.465C511.38,379.546 519.106,377.89 531.096,371.465C537.718,367.801 540.277,365.392 547.852,367.048C553.287,368.528 559.053,368.229 564.307,366.195C576.146,361.175 573.889,343.256 590.594,346.117C596.665,347.071 602.584,348.677 606.899,343.105C611.213,337.534 606.297,331.962 609.207,326.39C615.377,314.745 638.405,326.692 635.495,307.116ZM488.203,279.86C509.424,234.986 550.31,255.415 554.173,263.597C569.474,295.471 467.233,324.433 488.203,279.86Z" fill="#A73D22"/>
<g opacity="0.75" style="mix-blend-mode:screen">
<path d="M476.011,281.868C477.76,267.676 482.925,254.121 491.061,242.365C495.248,236.516 500.89,231.864 507.429,228.87C513.967,225.876 521.175,224.645 528.336,225.299C547.199,228.06 560.894,247.184 579.908,248.891C583.805,249.353 587.756,248.833 591.401,247.378C595.046,245.923 598.269,243.578 600.777,240.558C603.162,237.444 604.361,233.582 604.158,229.664C603.956,225.745 602.366,222.027 599.674,219.175C597.134,217.076 594.2,215.506 591.045,214.557C564.561,204.915 535.536,204.873 509.025,214.44C482.514,224.006 460.197,242.574 445.961,266.91C440.42,274.957 437.848,284.681 438.686,294.417C440.292,303.954 449.472,312.688 458.753,310.68C461.621,309.864 464.261,308.398 466.471,306.396C468.681,304.393 470.4,301.909 471.496,299.135C473.735,293.597 475.252,287.794 476.011,281.868Z" fill="#B1523A"/>
</g>
<g opacity="0.75" style="mix-blend-mode:screen">
<path d="M547.599,309.826C530.141,318.008 509.924,317.456 490.71,319.112C485.99,319.322 481.348,320.394 477.014,322.275C474.859,323.242 472.984,324.738 471.563,326.625C470.142,328.512 469.222,330.728 468.887,333.066C468.285,341.248 477.114,346.97 485.141,348.627C501.295,351.889 517.85,346.519 533.352,340.947C548.395,336.222 562.725,329.467 575.944,320.869C589.232,312.074 598.696,298.569 602.432,283.073C603.527,278.543 603.248,273.79 601.63,269.42C599.774,265.153 595.359,260.736 590.894,261.991C574.84,266.308 575.944,296.575 547.599,309.826Z" fill="#B1523A"/>
</g>
<path d="M574.639,217.067C573.128,216.973 571.623,217.34 570.325,218.121L561.094,222.488L563.753,227.206C568.346,224.17 573.659,222.404 579.154,222.086C578.151,219.928 576.897,217.619 574.639,217.067Z" fill="#CC3131"/>
<path d="M625.409,257.524C623.9,257.38 622.385,257.733 621.095,258.528L611.864,262.895L614.523,267.613C619.085,264.516 624.377,262.664 629.874,262.242C628.921,260.234 627.666,257.925 625.409,257.524Z" fill="#CC3131"/>
<path d="M621.998,275.041L611.614,271.678C607.076,276.863 602.234,281.774 597.115,286.385C601.647,287.136 605.855,289.215 609.206,292.359C612.713,286.063 617.012,280.243 621.998,275.041L621.998,275.041Z" fill="url(#pf_0_3562_1135)"/>
<path d="M455.794,304.355L445.409,301.042C440.883,306.223 436.041,311.118 430.911,315.699C435.449,316.412 439.674,318.456 443.051,321.572C446.562,315.322 450.843,309.538 455.794,304.355L455.794,304.355Z" fill="url(#pf_0_3562_1136)"/>
<path d="M560.292,325.537C558.844,324.771 557.211,324.424 555.576,324.533L546.145,324.533C545.342,327.896 544.489,331.209 543.636,334.572C550.038,332.568 556.776,331.868 563.453,332.514C563.469,331.191 563.194,329.88 562.648,328.674C562.102,327.468 561.298,326.397 560.292,325.537L560.292,325.537Z" fill="#FFCC00"/>
<path d="M584.221,264.149C582.68,263.34 580.938,262.992 579.204,263.145L569.823,263.145L567.265,273.184C573.627,271.243 580.317,270.611 586.93,271.327C587.022,270.006 586.828,268.681 586.361,267.442C585.893,266.203 585.163,265.08 584.221,264.149L584.221,264.149Z" fill="#FFCC00"/>
<path d="M459.355,277.802C459.355,280.613 459.807,283.424 460.008,286.285L479.372,281.968C478.274,279.854 477.854,277.453 478.168,275.092C472.017,276.688 465.707,277.597 459.355,277.802Z" fill="#14B661"/>
<path d="M491.463,237.496L475.911,244.172C475.312,246.806 475.193,249.527 475.56,252.203C481.191,248.763 487.315,246.207 493.72,244.624C492.31,242.509 491.527,240.038 491.463,237.496L491.463,237.496Z" fill="#CC3131"/>
<path d="M518.302,239.052L525.978,235.739C524.707,235.02 523.603,234.04 522.738,232.864C521.874,231.687 521.268,230.34 520.961,228.913C520.419,226.085 519.078,223.472 517.098,221.383L511.228,222.688C513.636,228.16 515.894,233.581 518.302,239.052Z" fill="#FFCC00"/>
<path d="M475.91,306.012L483.636,302.699C482.353,301.996 481.239,301.02 480.373,299.841C479.506,298.662 478.908,297.307 478.619,295.872C478.078,293.045 476.737,290.432 474.757,288.343L468.887,289.648L475.91,306.012Z" fill="#FFCC00"/>
<path d="M555.577,238.349L550.561,235.739L539.373,244.473L547.701,248.187L555.577,238.349Z" fill="url(#pf_0_3562_1143)"/>
<path d="M504.807,346.518L499.791,343.908L488.603,352.592L496.981,356.306L504.807,346.518Z" fill="url(#pf_0_3562_1144)"/>
<path d="M586.479,239.604C586.352,238.859 586.016,238.166 585.51,237.606C585.003,237.046 584.347,236.642 583.619,236.442C582.886,236.243 582.109,236.288 581.404,236.568C580.698,236.849 580.102,237.35 579.706,237.998C579.479,238.449 579.294,238.919 579.154,239.404C577.851,244.139 577.748,249.124 578.853,253.91C581.241,252.772 583.917,252.387 586.529,252.806C585.457,250.288 585.194,247.499 585.776,244.825C586.374,243.153 586.613,241.374 586.479,239.604L586.479,239.604Z" fill="#14B661"/>
<path d="M550.009,339.441C549.857,338.699 549.506,338.013 548.993,337.455C548.481,336.898 547.826,336.492 547.1,336.279C546.369,336.105 545.601,336.166 544.908,336.455C544.214,336.743 543.629,337.244 543.237,337.885C542.952,338.307 542.763,338.787 542.685,339.29C541.382,344.026 541.278,349.011 542.384,353.797C544.753,352.599 547.438,352.177 550.059,352.592C548.987,350.057 548.724,347.252 549.307,344.561C549.873,342.917 550.112,341.177 550.009,339.441L550.009,339.441Z" fill="#14B661"/>
<path d="M490.661,333.669L498.286,334.823C499.089,329.804 499.892,325.035 500.744,320.116L494.825,322.475C493.47,326.089 492.065,329.904 490.661,333.669Z" fill="#CC3131"/>
<path d="M450.175,327.093C450.608,327.367 451.125,327.474 451.63,327.394L461.212,326.641C460.661,320.783 461.309,314.873 463.118,309.274C460.351,310.728 457.308,311.583 454.189,311.784C452.884,316.251 451.53,320.718 450.225,325.186C449.874,325.838 449.724,326.641 450.175,327.093Z" fill="#FFCC00"/>
<path d="M601.73,313.791C601.931,313.935 602.16,314.036 602.401,314.088C602.643,314.14 602.893,314.141 603.135,314.093L612.717,313.34C612.168,307.491 612.764,301.592 614.473,295.972C611.725,297.433 608.698,298.288 605.593,298.482C604.289,302.949 602.934,307.467 601.58,311.934C601.429,312.436 601.279,313.34 601.73,313.791Z" fill="#FFCC00"/>
<path d="M590.895,323.278C590.855,318.079 591.968,312.936 594.156,308.22L586.43,308.22L581.413,322.074L590.895,323.278Z" fill="#14B661"/>
<path d="M515.544,358.164L524.223,358.565C524.827,353.264 525.884,348.024 527.384,342.904C526.922,342.559 526.379,342.341 525.807,342.27C525.235,342.2 524.655,342.28 524.123,342.503L515.544,358.164Z" fill="#6BC3C3"/>
<path d="M437.131,282.922L433.018,296.475L440.693,297.077L443.202,282.019L437.131,282.922Z" fill="#CC3131"/>
<path d="M459.959,256.369C458.257,256.594 456.646,257.27 455.293,258.326L447.919,263.346L452.935,269.52C456.366,265.134 460.928,261.767 466.13,259.782C464.584,257.897 462.376,256.676 459.959,256.369Z" fill="#6BC3C3"/>
<path d="M481.679,321.471C479.977,321.696 478.367,322.372 477.013,323.429L469.639,328.448L474.656,334.622C478.176,330.131 482.861,326.693 488.201,324.684C486.526,322.806 484.187,321.654 481.679,321.471L481.679,321.471Z" fill="#6BC3C3"/>
<path d="M611.113,248.94C611.933,249.253 612.796,249.439 613.672,249.492C614.319,249.465 614.947,249.267 615.493,248.918C616.039,248.569 616.482,248.081 616.778,247.504C617.074,246.928 617.211,246.283 617.177,245.636C617.142,244.988 616.937,244.362 616.581,243.82C612.221,242.203 608.049,240.116 604.14,237.596C602.083,239.805 600.026,242.013 598.019,244.272L611.113,248.94Z" fill="#6BC3C3"/>
<path d="M572.081,314.695C572.889,315.045 573.759,315.233 574.639,315.247C575.294,315.237 575.933,315.048 576.488,314.702C577.044,314.357 577.495,313.866 577.794,313.284C578.092,312.702 578.228,312.049 578.184,311.396C578.141,310.743 577.922,310.113 577.549,309.575C573.193,307.948 569.022,305.862 565.108,303.351L558.987,310.027L572.081,314.695Z" fill="#6BC3C3"/>
<path d="M550.76,233.28C551.569,233.633 552.436,233.837 553.318,233.882C553.95,233.878 554.571,233.715 555.123,233.408C555.676,233.101 556.142,232.66 556.479,232.125C556.81,231.562 556.984,230.921 556.984,230.268C556.984,229.615 556.81,228.974 556.479,228.411C552.037,226.757 547.782,224.637 543.787,222.086L537.666,228.611L550.76,233.28Z" fill="#6BC3C3"/>
<path d="M495.827,264.952C496.632,265.313 497.504,265.501 498.386,265.505C499.039,265.49 499.677,265.301 500.233,264.957C500.788,264.613 501.242,264.126 501.546,263.547C501.867,262.981 502.036,262.341 502.036,261.69C502.036,261.039 501.867,260.399 501.546,259.833C497.186,258.216 493.014,256.129 489.105,253.609L482.984,260.284L495.827,264.952Z" fill="#6BC3C3"/>
<path d="M546.094,209.538C542.378,211.854 538.231,213.391 533.903,214.055C534.204,216.264 534.505,218.472 534.756,220.681C539.641,218.001 544.9,216.072 550.358,214.959C548.359,213.693 546.853,211.78 546.094,209.538L546.094,209.538Z" fill="#14B661"/>
<path d="M513.285,313.139C510.91,312.985 508.596,312.328 506.494,311.211C504.393,310.095 502.552,308.545 501.094,306.664L495.325,312.788C500.705,314.696 505.776,317.385 510.375,320.769C511.429,318.259 512.382,315.699 513.285,313.139Z" fill="url(#pf_0_3562_1160)"/>
<path d="M502.399,226.453C500.026,226.292 497.714,225.632 495.613,224.517C493.513,223.401 491.671,221.854 490.208,219.978L484.439,226.051C489.803,228.019 494.868,230.722 499.489,234.082C500.392,231.522 501.396,229.013 502.399,226.453Z" fill="url(#pf_0_3562_1161)"/>
<path d="M587.282,336.128C584.911,335.962 582.601,335.299 580.501,334.184C578.401,333.069 576.559,331.525 575.092,329.653L569.323,335.727C574.691,337.684 579.758,340.387 584.373,343.758L587.282,336.128Z" fill="url(#pf_0_3562_1162)"/>
<path d="M564.957,300.189C565.345,300.668 565.847,301.042 566.416,301.279C566.985,301.516 567.604,301.607 568.218,301.544C568.833,301.461 569.417,301.218 569.91,300.839C570.402,300.46 570.788,299.959 571.027,299.386C570.726,295.169 570.475,290.953 570.174,286.737C568.058,287.327 566.02,288.17 564.104,289.246C563.076,292.29 563.076,295.588 564.104,298.633C564.336,299.179 564.621,299.7 564.957,300.189L564.957,300.189Z" fill="#CC3131"/>
<path d="M535.209,306.112C534.758,305.51 533.754,305.66 533.052,306.112L527.634,307.417C526.48,312.085 525.376,316.753 524.222,321.471L531.447,321.471C532.751,316.954 534.005,312.386 535.259,307.818C535.392,307.552 535.457,307.257 535.448,306.959C535.44,306.661 535.357,306.37 535.209,306.112L535.209,306.112Z" fill="#14B661"/>
<path d="M459.307,347.572C464.998,347.193 470.71,347.856 476.163,349.53C476.715,346.418 477.317,343.306 477.919,340.194C472.912,340.642 467.875,340.642 462.869,340.194C461.665,342.854 460.46,345.213 459.307,347.572Z" fill="#14B661"/>
<path d="M372.671,424.105C365.451,432.444 368.21,446.07 363.397,455.995C358.584,465.921 347.314,471.03 344.555,481.367C341.796,491.703 349.838,503.038 353.418,513.844C355.924,524.576 356.853,535.616 356.177,546.615C356.471,557.48 358.584,569.109 366.449,575.98C371.085,579.551 376.629,581.747 382.451,582.318C388.273,582.889 394.139,581.812 399.379,579.211C409.973,573.71 419.465,566.304 427.378,557.363C451.752,534.302 474.191,509.278 494.47,482.541C499.349,476.786 502.951,470.06 505.036,462.808C505.974,459.242 505.87,455.482 504.736,451.974C503.602,448.465 501.486,445.356 498.638,443.016C493.707,439.844 487.25,440.432 481.967,437.906C472.4,433.384 468.643,422.578 457.432,419.759C448.028,418.416 438.446,419.077 429.315,421.697C423.537,422.967 417.601,423.363 411.706,422.871C405.836,422.108 400.318,419.348 394.096,418.408C390.334,417.486 386.4,417.525 382.657,418.521C378.914,419.516 375.48,421.436 372.671,424.105L372.671,424.105Z" transform="rotate(29.829 424.83 500.106)" fill="#D2923D"/>
<g opacity="0.32" style="mix-blend-mode:screen">
<path d="M397.267,500.134C411.531,489.68 404.781,480.225 407.892,465.895C409.401,457.623 413.252,449.959 418.986,443.812C424.822,437.103 432.853,432.69 441.643,431.361C451.798,430.539 461.014,435.531 470.992,435.179C475.979,434.894 480.765,433.113 484.728,430.069C479.386,425.077 475.16,418.911 467.118,416.855C457.714,415.513 448.133,416.173 439.002,418.793C433.224,420.063 427.288,420.459 421.392,419.968C415.522,419.204 410.005,416.444 403.783,415.504C400.023,414.626 396.104,414.704 392.382,415.729C388.661,416.755 385.255,418.697 382.475,421.377C375.255,429.717 378.014,443.342 373.201,453.268C368.388,463.193 357.118,468.303 354.359,478.639C351.6,488.975 358.409,498.607 362.283,508.533C374.59,510.338 387.119,507.33 397.267,500.134L397.267,500.134Z" transform="rotate(29.829 419.223 461.972)" fill="#A24B27"/>
</g>
<g opacity="0.55" style="mix-blend-mode:multiply">
<path d="M366.266,512.252C375.306,506.849 390.45,498.979 387.163,486.704C382.881,494.229 376.297,500.179 368.38,503.677C362.863,505.519 356.86,505.247 351.533,502.914C352.796,508.7 353.406,514.61 353.353,520.533C357.579,518.125 361.747,514.836 366.266,512.252Z" transform="rotate(29.829 369.577 503.618)" fill="#B9866E"/>
</g>
<g opacity="0.55" style="mix-blend-mode:multiply">
<path d="M407.339,454.256C409.321,451.94 411.459,449.762 413.737,447.737C419.327,444.254 424.627,440.326 429.585,435.991C433.051,431.261 435.089,425.635 435.455,419.781C432.917,420.016 430.363,420.016 427.824,419.781C425.838,419.472 423.876,419.021 421.955,418.43L421.955,418.43C421.718,423.295 420.789,428.1 419.196,432.702C416.378,440.454 407.221,446.386 407.339,454.256Z" transform="rotate(29.829 421.396 436.343)" fill="#B9866E"/>
</g>
<g opacity="0.55" style="mix-blend-mode:multiply">
<path d="M454.817,479.936C446.952,485.809 435.858,485.281 435.212,498.671C435.327,504.171 433.926,509.596 431.162,514.352C430.634,515.174 429.988,515.996 429.401,516.819C441.141,515.116 444.839,498.847 451.237,489.979C455.299,485.513 458.574,480.39 460.922,474.827C458.98,476.638 456.942,478.344 454.817,479.936L454.817,479.936Z" transform="rotate(29.829 445.162 495.823)" fill="#B9866E"/>
</g>
<g opacity="0.55" style="mix-blend-mode:multiply">
<path d="M448.607,458.473C448.585,458.864 448.585,459.257 448.607,459.648C452.527,456.851 456.739,454.488 461.168,452.6C470.08,448.437 477.321,441.378 481.713,432.573C479.199,430.469 476.253,428.945 473.084,428.11C468.67,427.15 464.124,426.951 459.642,427.523C460.562,432.447 460.011,437.534 458.057,442.146C455.651,448.019 449.957,452.6 448.607,458.473Z" transform="rotate(29.829 465.152 443.426)" fill="#B9866E"/>
</g>
<g opacity="0.55" style="mix-blend-mode:multiply">
<path d="M494.76,444.596C496.932,454.815 493.175,464.858 479.557,471.671C465.939,478.483 468.639,493.46 458.132,502.445C447.625,511.431 434.653,511.078 430.075,523.647C428.594,527.741 426.153,531.419 422.955,534.373C419.758,537.327 415.899,539.469 411.702,540.62C403.367,543.028 403.484,555.126 398.612,560.823C395.691,564.256 392.337,567.297 388.634,569.867C376.131,578.383 365.683,574.859 356.056,567.224C357.466,571.248 359.821,574.873 362.924,577.796C367.582,581.329 373.139,583.482 378.96,584.012C384.782,584.541 390.635,583.425 395.854,580.791C406.448,575.29 415.939,567.884 423.853,558.943C448.226,535.883 470.666,510.858 490.945,484.121C495.824,478.367 499.425,471.641 501.51,464.388C502.449,460.823 502.345,457.062 501.211,453.554C500.077,450.046 497.96,446.937 495.112,444.596L494.76,444.596Z" transform="rotate(29.829 429.101 514.368)" fill="#B9866E"/>
</g>
<path d="M478.414,482.913C478.707,487.377 479.294,490.959 475.89,494.131C472.263,497.555 467.433,499.412 462.448,499.299C463.328,505.172 465.324,508.519 459.924,512.689C456.16,515.594 451.784,517.603 447.128,518.562C447.128,522.967 448.184,525.022 444.78,528.253C440.562,532.406 435.054,534.996 429.166,535.594C427.699,546.811 421.3,555.151 411.909,554.681C411.982,558.062 410.716,561.334 408.387,563.784C403.807,568.216 397.877,570.987 391.54,571.654C387.842,582.225 385.142,587.746 375.164,590.448L468.318,635.611C496.644,620.357 520.422,597.863 537.229,570.421L488.979,475.689C486.488,479.338 482.716,481.916 478.414,482.913L478.414,482.913Z" transform="rotate(29.829 456.196 555.65)" fill="#BE4C1B"/>
<path d="M382.172,571.817C403.604,593.268 429.469,609.765 457.951,620.152C457.951,620.152 416.804,573.99 382.172,571.817Z" transform="rotate(29.829 420.061 595.984)" fill="#8F3300"/>
<path d="M407.621,558.641C407.621,558.641 433.566,598.871 476.709,615.139C476.709,615.139 439.671,564.866 407.621,558.641Z" transform="rotate(29.829 442.165 586.89)" fill="#8F3300"/>
<path d="M430.076,544C445.34,570.353 467.718,591.868 494.644,606.078C494.644,606.078 458.721,553.984 430.076,544Z" transform="rotate(29.829 462.361 575.039)" fill="#8F3300"/>
<path d="M451.549,531.249C451.549,531.249 472.211,576.53 508.252,597.966C508.252,597.966 479.079,546.107 451.549,531.249Z" transform="rotate(29.829 479.9 564.607)" fill="#8F3300"/>
<path d="M472.004,519.418C481.679,546.882 498.087,571.477 519.726,590.951C519.726,590.951 499.533,541.794 472.004,519.418Z" transform="rotate(29.829 495.865 555.184)" fill="#8F3300"/>
<path d="M488.929,505.542C497.315,534.283 511.454,561.019 530.488,584.122C530.488,584.122 512.937,526.743 488.929,505.542Z" transform="rotate(29.829 509.709 544.832)" fill="#8F3300"/>
<g opacity="0.5" style="mix-blend-mode:multiply">
<path d="M476.213,571.466C461.597,578.931 444.997,581.582 428.784,579.042C420.391,578.103 411.997,576.928 403.662,575.342C398.79,574.461 393.976,572.934 389.104,571.584C385.641,581.392 383.234,586.501 373.843,589.203L460.54,630.783C486.804,616.552 508.838,595.621 524.404,570.115L508.555,539.106C500.513,552.323 489.422,563.42 476.213,571.466Z" transform="rotate(29.829 449.123 584.945)" fill="#9E5838"/>
</g>
<g opacity="0.32" style="mix-blend-mode:screen">
<path d="M446.503,428.068C445.96,428.07 445.423,428.186 444.928,428.408C444.432,428.631 443.989,428.955 443.627,429.36L427.426,443.044C424.936,444.939 422.723,447.172 420.852,449.681C418.95,452.264 418.129,455.487 418.563,458.666C418.776,460.148 419.463,461.521 420.521,462.58C421.579,463.639 422.951,464.326 424.433,464.539C425.804,464.419 427.117,463.93 428.233,463.123C429.349,462.317 430.227,461.223 430.772,459.958C431.923,457.402 432.694,454.692 433.061,451.912C433.478,449.112 434.478,446.431 435.996,444.043C439.401,439.52 446.268,438.17 447.736,432.297C448.734,430.828 448.264,428.303 446.503,428.068Z" transform="rotate(29.829 433.351 446.304)" fill="#B27B60"/>
</g>
<g opacity="0.32" style="mix-blend-mode:screen">
<path d="M361.069,478.183L361.773,486.816C361.756,488.707 362.286,490.563 363.299,492.16C364.554,493.262 366.189,493.829 367.856,493.742C369.523,493.654 371.09,492.918 372.222,491.691C376.389,487.756 376.8,481.295 378.091,475.598C379.582,469.489 382.454,463.803 386.485,458.978C387.98,457.424 389.299,455.711 390.418,453.868C390.995,452.928 391.353,451.869 391.465,450.771C391.577,449.673 391.44,448.563 391.064,447.526C390.398,446.332 389.362,445.389 388.112,444.837C386.862,444.286 385.467,444.158 384.137,444.472C381.47,445.143 378.998,446.431 376.917,448.23C373.298,450.795 369.954,453.727 366.939,456.981C363.967,460.3 361.94,464.357 361.069,468.727C360.673,471.866 360.673,475.043 361.069,478.183L361.069,478.183Z" transform="rotate(29.829 376.137 469.027)" fill="#B27B60"/>
</g>
<g opacity="0.32" style="mix-blend-mode:screen">
<path d="M469.122,472.526C467.292,474.319 465.641,476.286 464.191,478.399C460.504,482.942 455.467,486.192 449.81,487.678C453.938,482.093 457.112,475.861 459.202,469.237C461.298,462.581 465.553,456.815 471.294,452.851C472.843,451.942 474.579,451.4 476.37,451.268C478.162,451.136 479.959,451.416 481.625,452.088C483.267,452.94 484.579,454.314 485.355,455.994C486.13,457.674 486.326,459.564 485.91,461.367C485.271,462.985 484.282,464.44 483.013,465.628C481.744,466.816 480.227,467.708 478.572,468.239C475.216,469.16 472.026,470.607 469.122,472.526L469.122,472.526Z" transform="rotate(29.829 467.967 469.457)" fill="#B27B60"/>
</g>
<g opacity="0.32" style="mix-blend-mode:screen">
<path d="M406.621,497.302C407.414,498.112 408.408,498.697 409.502,498.996C410.595,499.295 411.748,499.298 412.843,499.005C415.061,498.398 417.084,497.225 418.713,495.599C425.4,488.372 430.27,479.655 432.917,470.169C433.622,468.29 434.091,465.588 432.389,464.649C431.858,464.393 431.276,464.261 430.687,464.261C430.098,464.261 429.516,464.393 428.985,464.649C419.458,469.08 411.718,476.618 407.032,486.026C406.065,487.858 405.429,489.846 405.153,491.899C405.026,492.852 405.091,493.821 405.343,494.749C405.595,495.677 406.029,496.545 406.621,497.302L406.621,497.302Z" transform="rotate(29.829 419.323 481.742)" fill="#B27B60"/>
</g>
<g opacity="0.32" style="mix-blend-mode:screen">
<path d="M373.293,520.584C371.302,522.777 369.078,524.746 366.66,526.457C363.323,528.2 360.242,530.393 357.503,532.976C356.279,534.495 355.478,536.31 355.179,538.238C354.88,540.166 355.095,542.139 355.801,543.958C356.55,545.713 357.768,547.228 359.321,548.337C360.874,549.445 362.703,550.105 364.605,550.242C366.719,550.223 368.803,549.74 370.71,548.827C372.617,547.913 374.3,546.592 375.641,544.957C378.311,541.614 380.577,537.967 382.391,534.092C384.196,530.186 386.726,526.658 389.846,523.696C392.428,521.523 395.715,520.055 398.181,517.823C399.551,516.805 400.631,515.445 401.311,513.878C401.991,512.311 402.247,510.593 402.055,508.896C401.686,507.562 400.933,506.366 399.889,505.457C398.845,504.549 397.557,503.968 396.185,503.787C393.402,503.513 390.613,504.242 388.319,505.842C385.981,507.541 383.853,509.513 381.98,511.715C379.163,514.652 376.228,517.647 373.293,520.584Z" transform="rotate(29.829 378.582 526.986)" fill="#B27B60"/>
</g>
<path d="M410.127,423.214L408.953,423.214C408.261,422.868 407.497,422.688 406.723,422.688C405.948,422.688 405.185,422.868 404.492,423.214C403.145,423.993 401.984,425.055 401.088,426.327C399.383,428.489 398.072,430.934 397.214,433.551C396.785,434.494 396.613,435.535 396.716,436.566C396.819,437.598 397.193,438.584 397.801,439.424C398.237,439.802 398.759,440.069 399.321,440.202C399.883,440.335 400.469,440.33 401.029,440.187C402.142,439.929 403.184,439.428 404.081,438.719C406.686,436.944 408.87,434.618 410.479,431.906C411.615,430.17 412.132,428.1 411.947,426.033C411.419,424.154 412.006,422.921 410.127,423.214Z" transform="rotate(29.829 404.335 431.493)" fill="#652700"/>
<path d="M356.898,478.979C358.659,478.979 360.244,477.745 361.359,476.277C362.644,474.812 363.605,473.09 364.177,471.226C364.487,470.26 364.595,469.239 364.494,468.229C364.393,467.218 364.085,466.24 363.59,465.353C363.105,464.521 362.358,463.873 361.466,463.511C360.573,463.15 359.586,463.096 358.659,463.357C358.563,463.306 358.458,463.274 358.349,463.265C358.241,463.255 358.132,463.267 358.028,463.3C357.924,463.332 357.828,463.385 357.745,463.456C357.662,463.526 357.593,463.612 357.544,463.709L355.666,464.59C354.235,466.073 353.281,467.951 352.926,469.981C352.57,472.011 352.829,474.102 353.67,475.983C353.913,476.714 354.336,477.371 354.901,477.895C355.465,478.418 356.152,478.791 356.898,478.979Z" transform="rotate(29.829 358.651 471.086)" fill="#B27B60"/>
<path d="M456.769,460.815C454.883,460.412 452.928,460.48 451.075,461.013C449.222,461.546 447.528,462.527 446.144,463.869C445.093,464.842 444.323,466.079 443.914,467.452C443.382,468.75 443.382,470.206 443.914,471.504C444.475,472.516 445.355,473.312 446.418,473.769C447.48,474.226 448.664,474.318 449.783,474.03C452.024,473.41 454.053,472.192 455.653,470.506C456.606,469.831 457.4,468.956 457.978,467.941C458.556,466.926 458.904,465.797 458.999,464.633C459.058,461.579 458.999,461.579 456.769,460.815Z" transform="rotate(29.829 451.263 467.375)" fill="#652700"/>
<path d="M415.141,451.933C413.588,451.957 412.085,452.478 410.849,453.418C409.614,454.359 408.711,455.67 408.273,457.16C407.413,460.222 407.312,463.447 407.979,466.557C407.988,467.458 408.205,468.346 408.612,469.151C409.019,469.955 409.606,470.655 410.327,471.196C412.264,472.195 414.495,470.726 416.197,469.082C418.89,466.13 420.665,462.456 421.304,458.511C421.634,457.408 421.661,456.238 421.382,455.121C421.103,454.005 420.528,452.985 419.719,452.168C417.606,450.641 417.43,451.933 415.141,451.933Z" transform="rotate(29.829 414.558 461.472)" fill="#652700"/>
<path d="M362.006,530.845C362.417,528.219 362.417,525.544 362.006,522.917C362.021,522.314 361.908,521.714 361.676,521.158C361.443,520.601 361.096,520.1 360.656,519.687C360.353,519.524 360.017,519.43 359.674,519.411C359.33,519.392 358.986,519.449 358.667,519.578C358.348,519.707 358.061,519.904 357.826,520.157C357.592,520.409 357.416,520.71 357.31,521.038L356.078,521.507L355.784,521.507L355.491,521.86C354.046,522.453 352.875,523.562 352.204,524.972C351.551,526.391 351.097,527.893 350.853,529.436C350.495,530.574 350.382,531.775 350.524,532.96C350.666,534.145 351.058,535.286 351.675,536.307C352.506,537.222 353.635,537.813 354.86,537.974C356.085,538.135 357.327,537.857 358.367,537.188C359.387,536.448 360.238,535.5 360.866,534.407C361.493,533.314 361.882,532.1 362.006,530.845L362.006,530.845Z" transform="rotate(29.829 356.389 528.713)" fill="#652700"/>
<path d="M388.833,544.923C390.281,545.132 391.759,544.967 393.126,544.443C394.493,543.918 395.702,543.053 396.64,541.928C398.536,539.622 400.007,536.997 400.983,534.176C401.432,533.317 401.711,532.38 401.805,531.415C401.831,530.949 401.73,530.484 401.513,530.07C401.296,529.657 400.971,529.31 400.572,529.066C400.187,528.883 399.766,528.788 399.34,528.788C398.913,528.788 398.492,528.883 398.107,529.066C397.344,529.477 396.64,530.064 395.877,530.417C394.072,530.866 392.218,531.083 390.359,531.063C388.783,531.335 387.331,532.093 386.205,533.229C385.079,534.366 384.336,535.826 384.078,537.406C383.813,539.024 384.151,540.683 385.027,542.069C385.904,543.454 387.258,544.47 388.833,544.923L388.833,544.923Z" transform="rotate(29.829 392.9 536.9)" fill="#652700"/>
<path d="M423.775,503.359C424.325,501.881 424.699,500.343 424.89,498.778C425.004,498.318 425.004,497.837 424.892,497.377C424.779,496.917 424.557,496.491 424.244,496.135C423.247,495.371 421.838,496.135 420.781,496.781L415.675,500.305C414.394,501.101 413.228,502.069 412.211,503.183C411.198,504.328 410.672,505.824 410.744,507.352C410.886,508.407 411.381,509.382 412.149,510.118C412.916,510.854 413.911,511.308 414.97,511.405C416.067,511.473 417.164,511.291 418.181,510.874C419.198,510.457 420.107,509.815 420.84,508.997C422.191,507.337 423.19,505.418 423.775,503.359L423.775,503.359Z" transform="rotate(29.829 417.856 503.617)" fill="#652700"/>
<path d="M454.451,502.553C453.813,501.478 452.783,500.694 451.579,500.365C450.374,500.037 449.088,500.189 447.994,500.791C446.869,501.465 445.921,502.397 445.227,503.51C444.533,504.623 444.114,505.885 444.003,507.192C443.743,509.761 444.084,512.355 445,514.769C445.06,515.182 445.212,515.576 445.446,515.922C445.68,516.268 445.989,516.556 446.35,516.765C446.851,516.888 447.375,516.876 447.869,516.732C448.364,516.588 448.812,516.316 449.168,515.943C451.874,513.807 453.794,510.832 454.627,507.486C455.159,505.873 455.097,504.123 454.451,502.553Z" transform="rotate(29.829 449.452 508.523)" fill="#652700"/>
<path d="M494.293,475.964C495.355,475.256 496.239,474.311 496.876,473.204C497.526,472.039 497.712,470.671 497.396,469.375C497.081,468.079 496.287,466.95 495.174,466.215C494.258,465.773 493.255,465.543 492.239,465.543C491.222,465.543 490.219,465.773 489.304,466.215C486.88,467.228 484.728,468.797 483.023,470.796C481.716,472.212 480.876,473.996 480.617,475.906C480.478,476.82 480.623,477.756 481.032,478.585C481.442,479.415 482.096,480.099 482.906,480.545C483.755,480.798 484.65,480.856 485.524,480.713C486.398,480.571 487.229,480.232 487.954,479.723C490.18,478.672 492.303,477.414 494.293,475.964L494.293,475.964Z" transform="rotate(29.829 489.056 473.166)" fill="#652700"/>
<path d="M384.089,477.251C382.767,477.203 381.449,477.423 380.215,477.897C378.265,479.112 376.714,480.872 375.754,482.96C374.794,485.048 374.467,487.372 374.814,489.643C374.869,490.482 375.135,491.293 375.586,492.001C376.038,492.71 376.661,493.292 377.397,493.696C377.985,493.925 378.622,494.002 379.248,493.92C379.873,493.838 380.468,493.599 380.978,493.226C382.044,492.473 382.927,491.489 383.561,490.348C384.682,488.516 385.551,486.54 386.143,484.475C386.533,483.242 386.692,481.948 386.613,480.658C386.552,480.028 386.364,479.418 386.062,478.863C385.759,478.308 385.348,477.82 384.852,477.428C383.737,476.488 384.969,476.429 384.089,477.251Z" transform="rotate(29.829 380.656 485.314)" fill="#652700"/>
<path d="M359.21,479.383C361.638,477.962 363.66,475.939 365.08,473.51C365.743,472.262 366.089,470.87 366.089,469.457C366.089,468.044 365.743,466.653 365.08,465.405C364.399,464.37 363.431,463.557 362.294,463.066C361.157,462.576 359.901,462.429 358.682,462.645L358.153,462.645C357.006,463.383 356.055,464.388 355.38,465.575C354.705,466.761 354.328,468.093 354.279,469.457C354.198,472.194 354.534,474.927 355.277,477.562C355.322,478.072 355.483,478.564 355.747,479.002C356.012,479.44 356.373,479.811 356.803,480.087C357.625,480.616 358.388,480.029 359.21,479.383Z" transform="rotate(29.829 360.178 471.42)" fill="#652700"/>
<path d="M275.531,420.183C270.009,419.316 265.224,424.263 259.702,424.906C254.179,425.549 248.785,422.079 243.647,423.717C238.51,425.356 235.973,432.102 232.377,436.568C228.473,440.756 223.959,444.331 218.987,447.17C214.332,450.382 209.804,454.816 208.905,460.47C208.68,463.657 209.341,466.845 210.814,469.68C212.287,472.515 214.516,474.887 217.254,476.533C222.776,479.792 228.867,481.972 235.202,482.958C252.374,487.161 269.873,489.891 287.508,491.119C291.344,491.511 295.22,491.028 298.843,489.705C300.64,489.026 302.193,487.826 303.303,486.257C304.413,484.689 305.029,482.824 305.072,480.902C304.879,477.69 302.696,475.023 302.118,471.875C301.122,466.285 304.397,461.466 302.118,455.812C299.895,451.294 296.782,447.273 292.967,443.989C290.748,441.813 288.846,439.337 287.315,436.632C285.87,433.837 285.389,430.721 284.105,427.862C283.405,425.982 282.259,424.301 280.765,422.964C279.272,421.626 277.475,420.672 275.531,420.183L275.531,420.183Z" transform="rotate(14.446 256.967 455.666)" fill="#993A12"/>
<g opacity="0.32" style="mix-blend-mode:screen">
<path d="M248.364,450.268C256.969,453.48 258.992,447.923 265.927,445.192C269.854,443.513 274.191,443.043 278.386,443.843C282.937,444.56 287.1,446.83 290.17,450.268C293.381,454.541 294.215,460.066 297.298,464.275C298.861,466.383 301.003,467.99 303.463,468.901C303.912,465.078 305.165,461.416 303.463,457.271C301.24,452.754 298.127,448.732 294.312,445.449C292.094,443.273 290.191,440.797 288.661,438.092C287.216,435.297 286.734,432.181 285.45,429.322C284.747,427.462 283.607,425.798 282.126,424.473C280.645,423.148 278.866,422.199 276.941,421.708C271.418,420.84 266.634,425.788 261.111,426.43C255.588,427.073 250.194,423.603 245.057,425.241C239.919,426.88 237.736,432.598 234.653,437.096C237.407,443.055 242.302,447.757 248.364,450.268L248.364,450.268Z" transform="rotate(14.446 269.491 445.254)" fill="#A24B27"/>
</g>
<g opacity="0.55" style="mix-blend-mode:multiply">
<path d="M233.125,444.692C238.102,447.166 245.969,451.663 250.207,446.652C245.627,446.897 241.093,445.633 237.299,443.053C234.879,441.135 233.255,438.389 232.74,435.343C230.585,437.614 228.158,439.61 225.515,441.286C228.116,442.475 230.653,443.471 233.125,444.692Z" transform="rotate(14.446 237.861 442.132)" fill="#8C3A12"/>
</g>
<g opacity="0.55" style="mix-blend-mode:multiply">
<path d="M269.281,440.139C270.83,440.365 272.364,440.687 273.873,441.103C276.907,442.581 280.053,443.816 283.281,444.798C286.192,444.963 289.087,444.258 291.597,442.774C290.788,441.761 290.058,440.687 289.414,439.561C288.947,438.602 288.539,437.615 288.194,436.605L288.194,436.605C286.119,437.834 283.881,438.764 281.547,439.368C277.63,440.204 272.492,437.891 269.281,440.139Z" transform="rotate(14.446 280.439 440.713)" fill="#8C3A12"/>
</g>
<g opacity="0.55" style="mix-blend-mode:multiply">
<path d="M276.49,471.245C271.738,469.414 268.591,464.306 262.747,468.032C260.448,469.701 257.717,470.672 254.881,470.827L253.307,470.827C257.514,475.646 265.541,472.498 271.192,472.755C274.26,473.318 277.404,473.318 280.472,472.755C279.11,472.346 277.78,471.842 276.49,471.245L276.49,471.245Z" transform="rotate(14.446 266.889 470.117)" fill="#8C3A12"/>
</g>
<g opacity="0.55" style="mix-blend-mode:multiply">
<path d="M282.198,458.056L281.653,458.313C284.014,459.277 286.264,460.494 288.363,461.943C292.612,464.671 297.665,465.862 302.684,465.316C302.816,463.577 302.553,461.831 301.913,460.208C301,457.983 299.731,455.922 298.157,454.104C296.438,455.913 294.189,457.128 291.735,457.574C288.652,458.152 285.088,456.931 282.198,458.056Z" transform="rotate(14.446 292.185 459.775)" fill="#8C3A12"/>
</g>
<path d="M302.901,480.763C299.337,484.779 294.039,486.096 287.104,481.952C280.168,477.807 274.645,483.526 267.838,481.406C261.416,479.478 257.146,473.31 250.371,474.98C248.131,475.55 245.786,475.554 243.544,474.993C241.303,474.433 239.235,473.324 237.527,471.768C234.027,468.555 228.794,472.346 224.684,471.768C222.3,471.454 219.968,470.828 217.748,469.904C210.299,466.692 208.822,460.909 209.4,454.291C208.019,456.125 207.094,458.261 206.702,460.524C206.477,463.711 207.138,466.899 208.611,469.734C210.085,472.569 212.313,474.941 215.051,476.587C220.574,479.845 226.664,482.026 233,483.012C250.171,487.215 267.67,489.945 285.305,491.172C289.142,491.565 293.017,491.081 296.64,489.758C298.473,489.073 300.055,487.845 301.173,486.238C302.292,484.631 302.895,482.721 302.901,480.763Z" transform="rotate(14.446 254.78 472.798)" fill="#792C12"/>
<path d="M284.165,486.216C282.399,487.693 280.954,489.043 278.706,488.464C276.112,487.801 273.878,486.153 272.477,483.87C270.294,486.023 269.459,487.983 266.055,486.762C263.644,485.931 261.45,484.57 259.634,482.778C257.675,483.967 257.193,485.188 254.753,484.609C251.658,483.915 248.899,482.166 246.951,479.662C241.62,482.393 236.098,482.007 233.529,477.542C232.805,478.052 231.985,478.412 231.119,478.6C230.253,478.787 229.358,478.799 228.488,478.634C225.159,477.845 222.187,475.969 220.043,473.301C214.296,474.779 211.053,475.196 206.911,471.405L214.52,529.554C229.856,538.198 247.317,542.34 264.9,541.505L290.587,488.978C289.387,488.963 288.203,488.711 287.101,488.237C285.999,487.763 285.001,487.076 284.165,486.216L284.165,486.216Z" transform="rotate(14.446 248.749 506.508)" fill="#BE4C1B"/>
<path d="M218.009,472.883C214.759,489.738 215.098,507.089 219.004,523.803C219.004,523.803 227.32,489.589 218.009,472.883Z" transform="rotate(14.446 219.111 498.343)" fill="#8F3300"/>
<path d="M232.137,478.983C232.137,478.983 222.055,503.624 227.802,529.325C227.802,529.325 239.072,495.785 232.137,478.983Z" transform="rotate(14.446 230.212 504.154)" fill="#8F3300"/>
<path d="M245.754,483.228C238.713,498.865 236.007,516.109 237.92,533.153C237.92,533.153 250.057,499.581 245.754,483.228Z" transform="rotate(14.446 242 508.19)" fill="#8F3300"/>
<path d="M258.179,487.792C258.179,487.792 244.758,511.469 246.299,535.532C246.299,535.532 260.106,505.14 258.179,487.792Z" transform="rotate(14.446 252.27 511.662)" fill="#8F3300"/>
<path d="M269.777,492.265C260.719,505.689 255.096,521.134 253.401,537.242C253.401,537.242 268.621,511.958 269.777,492.265Z" transform="rotate(14.446 261.589 514.753)" fill="#8F3300"/>
<path d="M281.003,494.558C271.099,507.751 263.957,522.808 260.003,538.828C260.003,538.828 279.558,512.163 281.003,494.558Z" transform="rotate(14.446 270.503 516.693)" fill="#8F3300"/>
<g opacity="0.5" style="mix-blend-mode:multiply">
<path d="M247.603,515.46C239.768,510.822 233.581,503.845 229.911,495.509C227.824,491.301 225.834,487.028 224.035,482.659C223.008,480.121 222.237,477.454 221.403,474.788C216.072,476.169 213.054,476.555 209.201,473.053L216.265,527.057C230.52,535.079 246.744,538.92 263.08,538.141L271.685,520.536C263.358,520.913 255.071,519.166 247.603,515.46L247.603,515.46Z" transform="rotate(14.446 240.443 505.646)" fill="#9E5838"/>
</g>
<g opacity="0.32" style="mix-blend-mode:screen">
<path d="M292.653,450.131C292.321,449.67 291.829,449.349 291.272,449.232L280.869,446.019C279.361,445.467 277.783,445.132 276.181,445.023C275.381,444.96 274.577,445.065 273.819,445.331C273.062,445.596 272.368,446.017 271.782,446.565C271.208,447.127 270.836,447.865 270.726,448.661C270.615,449.458 270.772,450.269 271.172,450.966C271.616,451.518 272.196,451.944 272.855,452.203C273.514,452.462 274.228,452.545 274.929,452.444C276.334,452.222 277.698,451.788 278.975,451.159C280.254,450.533 281.661,450.214 283.085,450.227C285.942,450.42 288.543,453.055 291.305,452.219C292.204,451.834 293.071,450.966 292.653,450.131Z" transform="rotate(14.446 281.726 448.746)" fill="#B27B60"/>
</g>
<g opacity="0.32" style="mix-blend-mode:screen">
<path d="M244.985,430.423L241.517,433.154C240.685,433.662 240.042,434.429 239.687,435.338C239.173,437.009 240.746,438.551 242.448,439.129C245.442,439.333 248.432,438.664 251.053,437.201C254.078,436.133 257.312,435.792 260.493,436.206C261.55,436.42 262.626,436.528 263.704,436.527C264.258,436.504 264.8,436.356 265.289,436.094C265.778,435.833 266.202,435.465 266.53,435.017C266.825,434.367 266.912,433.642 266.78,432.94C266.648,432.239 266.302,431.595 265.791,431.097C264.74,430.14 263.49,429.427 262.131,429.009C260.012,428.14 257.805,427.504 255.549,427.114C253.287,426.727 250.962,426.983 248.838,427.853C247.446,428.536 246.15,429.4 244.985,430.423L244.985,430.423Z" transform="rotate(14.446 253.214 433.052)" fill="#B27B60"/>
</g>
<g opacity="0.32" style="mix-blend-mode:screen">
<path d="M283.599,472.75C282.312,472.459 281,472.298 279.681,472.268C276.587,471.909 273.692,470.556 271.429,468.413C274.97,468.635 278.522,468.244 281.929,467.256C285.355,466.252 289.024,466.479 292.3,467.899C293.157,468.327 293.908,468.941 294.497,469.697C295.086,470.453 295.498,471.332 295.704,472.268C295.876,473.213 295.721,474.189 295.266,475.036C294.811,475.882 294.083,476.548 293.199,476.926C292.317,477.111 291.404,477.091 290.53,476.869C289.656,476.646 288.845,476.226 288.158,475.641C286.78,474.471 285.245,473.498 283.599,472.75L283.599,472.75Z" transform="rotate(14.446 283.601 471.845)" fill="#B27B60"/>
</g>
<g opacity="0.32" style="mix-blend-mode:screen">
<path d="M252.767,455.024C252.678,455.611 252.733,456.211 252.929,456.771C253.125,457.331 253.455,457.834 253.891,458.237C254.802,459.044 255.909,459.598 257.102,459.843C262.076,460.752 267.198,460.399 272,458.815C273.028,458.59 274.28,458.012 274.184,456.984C274.11,456.676 273.968,456.389 273.768,456.144C273.568,455.899 273.315,455.703 273.028,455.571C268.455,452.61 262.993,451.337 257.583,451.972C256.578,452.035 255.596,452.297 254.693,452.743C254.231,452.969 253.821,453.288 253.49,453.68C253.158,454.073 252.912,454.531 252.767,455.024L252.767,455.024Z" transform="rotate(14.446 263.457 456.074)" fill="#B27B60"/>
</g>
<g opacity="0.32" style="mix-blend-mode:screen">
<path d="M232.873,451.327C231.304,451.079 229.766,450.67 228.281,450.106C226.57,449.109 224.735,448.342 222.823,447.825C221.801,447.697 220.763,447.856 219.826,448.284C218.888,448.712 218.089,449.392 217.516,450.249C216.943,451.105 216.619,452.105 216.581,453.135C216.543,454.165 216.792,455.185 217.3,456.082C217.911,457.019 218.719,457.812 219.667,458.406C220.615,458.999 221.681,459.379 222.791,459.519C225.03,459.792 227.294,459.792 229.534,459.519C231.769,459.175 234.052,459.284 236.244,459.84C237.946,460.354 239.455,461.35 241.189,461.864C242.024,462.191 242.932,462.282 243.814,462.129C244.697,461.976 245.522,461.585 246.198,460.997C246.665,460.417 246.956,459.715 247.035,458.975C247.115,458.234 246.98,457.487 246.648,456.821C245.955,455.491 244.819,454.445 243.437,453.865C242.063,453.309 240.63,452.91 239.166,452.676L232.873,451.327Z" transform="rotate(14.446 231.817 454.992)" fill="#B27B60"/>
</g>
<path d="M281.804,433.155L281.547,432.544C281.48,432.151 281.324,431.778 281.09,431.455C280.856,431.132 280.551,430.867 280.199,430.681C279.489,430.318 278.714,430.1 277.919,430.038C276.551,429.919 275.173,430.027 273.841,430.36C272.749,430.649 271.561,431.259 271.433,432.351C271.417,432.65 271.466,432.948 271.577,433.225C271.688,433.503 271.858,433.753 272.075,433.958C272.512,434.364 273.025,434.681 273.584,434.889C275.075,435.472 276.674,435.724 278.272,435.628C279.28,435.663 280.265,435.319 281.033,434.665C281.772,433.99 282.446,433.894 281.804,433.155Z" transform="rotate(14.446 276.746 432.82)" fill="#652700"/>
<path d="M242.559,429.591C242.84,429.979 243.213,430.29 243.645,430.498C244.077,430.705 244.553,430.802 245.031,430.78C246.018,430.925 247.025,430.859 247.985,430.587C248.467,430.455 248.914,430.219 249.297,429.898C249.679,429.576 249.987,429.176 250.201,428.724C250.406,428.274 250.463,427.771 250.365,427.286C250.267,426.801 250.019,426.36 249.655,426.025C249.639,425.912 249.58,425.808 249.491,425.737C249.401,425.665 249.288,425.63 249.173,425.64L248.242,425.061C247.214,424.85 246.147,424.958 245.182,425.371C244.218,425.785 243.403,426.484 242.848,427.375C242.629,427.695 242.489,428.063 242.439,428.448C242.389,428.833 242.43,429.225 242.559,429.591L242.559,429.591Z" transform="rotate(14.446 246.415 427.905)" fill="#B27B60"/>
<path d="M283.933,464.571C283.554,463.622 282.955,462.778 282.184,462.107C281.413,461.437 280.494,460.96 279.502,460.716C278.827,460.555 278.123,460.555 277.447,460.716C277.108,460.802 276.788,460.954 276.507,461.163C276.226,461.373 275.989,461.636 275.81,461.937C275.588,462.478 275.533,463.074 275.654,463.647C275.774,464.22 276.063,464.743 276.484,465.15C277.39,465.971 278.498,466.536 279.695,466.788C280.258,467.02 280.868,467.118 281.475,467.074C282.083,467.029 282.672,466.843 283.195,466.531C284.222,465.888 284.351,465.728 283.933,464.571Z" transform="rotate(14.446 279.874 463.84)" fill="#652700"/>
<path d="M273.336,444.717C272.899,444.045 272.257,443.532 271.505,443.254C270.753,442.976 269.931,442.949 269.162,443.175C267.633,443.656 266.252,444.518 265.149,445.681C264.781,445.963 264.478,446.322 264.262,446.732C264.046,447.143 263.921,447.595 263.896,448.058C264.057,449.183 265.309,449.793 266.433,449.986C268.435,450.313 270.489,450.045 272.341,449.215C273.401,448.733 274.492,447.866 274.524,446.709C274.557,445.553 273.914,445.81 273.336,444.717Z" transform="rotate(14.446 269.211 446.572)" fill="#652700"/>
<path d="M223.92,450.266C225.154,449.63 226.289,448.819 227.291,447.857C227.558,447.679 227.785,447.447 227.957,447.176C228.128,446.905 228.241,446.6 228.287,446.283C228.28,446.1 228.231,445.921 228.145,445.76C228.058,445.599 227.935,445.461 227.786,445.355C227.637,445.249 227.465,445.18 227.285,445.151C227.104,445.122 226.92,445.136 226.745,445.19L226.167,444.773L226.167,444.484L225.943,444.484C225.256,444.016 224.424,443.811 223.599,443.905C222.798,444.028 222.019,444.266 221.287,444.612C220.678,444.786 220.114,445.088 219.633,445.498C219.151,445.908 218.762,446.417 218.493,446.989C218.363,447.624 218.447,448.283 218.731,448.865C219.016,449.446 219.486,449.916 220.067,450.202C220.669,450.481 221.323,450.631 221.986,450.643C222.65,450.654 223.309,450.525 223.92,450.266Z" transform="rotate(14.446 223.36 447.263)" fill="#652700"/>
<path d="M228.014,465.573C228.34,466.294 228.844,466.921 229.479,467.393C230.114,467.865 230.858,468.168 231.642,468.272C233.212,468.436 234.798,468.328 236.33,467.951C236.819,467.887 237.289,467.723 237.711,467.469C237.926,467.349 238.104,467.171 238.223,466.955C238.342,466.739 238.398,466.494 238.385,466.248C238.355,466.017 238.273,465.796 238.145,465.601C238.017,465.406 237.847,465.243 237.647,465.124C237.229,464.899 236.78,464.77 236.362,464.513C235.945,464.256 235.142,462.939 234.468,462.168C233.905,461.538 233.154,461.107 232.327,460.94C231.499,460.772 230.64,460.876 229.876,461.236C229.096,461.613 228.477,462.26 228.135,463.057C227.793,463.853 227.75,464.747 228.014,465.573L228.014,465.573Z" transform="rotate(14.446 233.115 464.604)" fill="#652700"/>
<path d="M256.1,465.876C256.894,465.699 257.66,465.419 258.38,465.041C258.83,464.784 259.279,464.463 259.311,463.949C259.343,463.435 258.605,462.856 257.995,462.567L254.977,461.378C254.278,461.033 253.531,460.795 252.761,460.672C252.369,460.605 251.967,460.619 251.581,460.713C251.194,460.807 250.831,460.978 250.513,461.218C250.081,461.62 249.8,462.159 249.718,462.744C249.636,463.329 249.758,463.925 250.064,464.43C250.344,464.925 250.732,465.349 251.199,465.672C251.666,465.995 252.2,466.207 252.761,466.294C253.891,466.381 255.027,466.239 256.1,465.876L256.1,465.876Z" transform="rotate(14.446 254.503 463.474)" fill="#652700"/>
<path d="M267.487,478.377C267.74,477.753 267.76,477.058 267.541,476.42C267.323,475.783 266.882,475.245 266.299,474.908C265.697,474.6 265.032,474.44 264.356,474.44C263.681,474.44 263.015,474.6 262.414,474.908C261.23,475.563 260.226,476.501 259.492,477.638C259.332,477.803 259.209,478 259.131,478.216C259.054,478.432 259.023,478.662 259.042,478.891C259.124,479.151 259.275,479.384 259.479,479.565C259.682,479.746 259.931,479.868 260.198,479.919C261.9,480.53 263.762,480.53 265.464,479.919C265.888,479.814 266.287,479.622 266.635,479.357C266.982,479.092 267.272,478.758 267.487,478.377Z" transform="rotate(14.446 263.364 477.408)" fill="#652700"/>
<path d="M290.957,484.538C291.566,484.794 292.223,484.914 292.884,484.891C293.577,484.826 294.217,484.489 294.662,483.953C295.107,483.417 295.322,482.726 295.26,482.032C295.149,481.5 294.93,480.997 294.615,480.555C294.299,480.112 293.896,479.74 293.43,479.462C292.301,478.683 291.001,478.187 289.641,478.016C288.668,477.847 287.667,477.993 286.783,478.434C286.353,478.66 286.003,479.011 285.779,479.442C285.555,479.873 285.469,480.362 285.531,480.843C285.688,481.298 285.938,481.715 286.264,482.069C286.59,482.423 286.985,482.705 287.425,482.899C288.555,483.542 289.737,484.09 290.957,484.538L290.957,484.538Z" transform="rotate(14.446 290.391 481.421)" fill="#652700"/>
<path d="M252.811,441.187C252.466,440.58 251.995,440.054 251.43,439.645C250.39,439.148 249.226,438.968 248.084,439.128C246.942,439.288 245.873,439.781 245.008,440.544C244.665,440.818 244.394,441.172 244.221,441.576C244.047,441.98 243.976,442.42 244.013,442.857C244.1,443.182 244.261,443.482 244.484,443.733C244.707,443.984 244.985,444.179 245.297,444.303C245.874,444.452 246.474,444.485 247.063,444.4C248.156,444.386 249.239,444.202 250.274,443.853C250.909,443.678 251.499,443.371 252.008,442.954C252.26,442.743 252.466,442.483 252.615,442.191C252.764,441.898 252.852,441.579 252.875,441.251C253.068,440.705 253.485,441.187 252.811,441.187Z" transform="rotate(14.446 248.592 441.759)" fill="#652700"/>
<path d="M243.093,430.718C244.408,431.323 245.857,431.578 247.3,431.457C248.021,431.392 248.713,431.142 249.309,430.731C249.905,430.32 250.386,429.762 250.703,429.112C250.932,428.518 250.99,427.873 250.871,427.248C250.751,426.624 250.46,426.045 250.029,425.578L249.772,425.417C249.137,425.123 248.44,424.986 247.742,425.02C247.043,425.053 246.362,425.256 245.758,425.61C244.545,426.337 243.46,427.26 242.547,428.34C242.194,428.726 241.809,429.176 241.905,429.69C242.002,430.204 242.612,430.493 243.093,430.718Z" transform="rotate(14.446 246.411 428.251)" fill="#652700"/>
<path d="M289.778,656.382C289.778,671.245 276.295,684.821 261.738,684.821C247.18,684.821 236.314,678.689 236.314,663.826C236.314,648.963 244.937,643.022 259.494,643.022C274.052,643.022 289.778,641.519 289.778,656.382Z" transform="rotate(95.594 263.046 663.9)" fill="#D61355"/>
<path d="M414.117,295.333C414.117,306.053 407.983,315.844 401.359,315.844C394.736,315.844 389.792,311.421 389.792,300.702C389.792,289.982 393.716,285.697 400.339,285.697C406.962,285.697 414.117,284.614 414.117,295.333Z" transform="rotate(95.594 401.955 300.755)" fill="#D56C48"/>
<path d="M342.151,494.644C342.151,500.468 338.818,505.788 335.219,505.788C331.62,505.788 328.934,503.385 328.934,497.56C328.934,491.736 331.066,489.408 334.664,489.408C338.263,489.408 342.151,488.819 342.151,494.644Z" transform="rotate(-34.439 335.542 497.59)" fill="#D56C48"/>
<circle cx="359.563" cy="385.771" r="6.452" fill="#A73D22"/>
<path d="M270.949,361.266C271.087,365.69 263.328,367.938 258.14,367.938C252.952,367.938 244.562,366.112 244.562,358.553C244.562,350.993 254.852,351.165 260.04,351.165C265.228,351.165 270.811,356.842 270.949,361.266Z" transform="rotate(90 257.756 359.551)" fill="#E3AB5C"/>
<path d="M125.924,275.327C125.924,290.555 112.023,304.464 97.016,304.464C82.009,304.464 70.806,298.181 70.806,282.953C70.806,267.725 79.696,261.638 94.703,261.638C109.711,261.638 125.924,260.099 125.924,275.327Z" transform="rotate(350.949 98.365 283.029)" fill="#FF785B"/>
<path d="M624.515,156.088C624.515,161.618 619.467,166.67 614.017,166.67C608.567,166.67 604.498,164.388 604.498,158.858C604.498,153.327 607.727,151.117 613.177,151.117C618.627,151.117 624.515,150.558 624.515,156.088Z" transform="rotate(-23.453 614.507 158.885)" fill="#FF785B"/>
<defs>
<linearGradient id="pf_0_3562_1095" x1="587.802" y1="701.629" x2="759.642" y2="664.792" gradientUnits="userSpaceOnUse">
<stop stop-color="#FF785B"/>
<stop offset="1" stop-color="#FF0000"/>
</linearGradient>
<linearGradient id="pf_0_3562_1135" x1="597.115" y1="270.409" x2="621.998" y2="294.717" gradientUnits="userSpaceOnUse">
<stop stop-color="#D61355"/>
<stop offset="1" stop-color="#FF0000"/>
</linearGradient>
<linearGradient id="pf_0_3562_1136" x1="430.911" y1="299.781" x2="455.794" y2="323.913" gradientUnits="userSpaceOnUse">
<stop stop-color="#D61355"/>
<stop offset="1" stop-color="#FF0000"/>
</linearGradient>
<linearGradient id="pf_0_3562_1143" x1="539.373" y1="234.975" x2="555.577" y2="249.607" gradientUnits="userSpaceOnUse">
<stop stop-color="#D61355"/>
<stop offset="1" stop-color="#FF0000"/>
</linearGradient>
<linearGradient id="pf_0_3562_1144" x1="488.603" y1="343.147" x2="504.807" y2="357.72" gradientUnits="userSpaceOnUse">
<stop stop-color="#D61355"/>
<stop offset="1" stop-color="#FF0000"/>
</linearGradient>
<linearGradient id="pf_0_3562_1160" x1="495.325" y1="305.798" x2="513.285" y2="322.377" gradientUnits="userSpaceOnUse">
<stop stop-color="#D61355"/>
<stop offset="1" stop-color="#FF0000"/>
</linearGradient>
<linearGradient id="pf_0_3562_1161" x1="484.439" y1="219.112" x2="502.399" y2="235.691" gradientUnits="userSpaceOnUse">
<stop stop-color="#D61355"/>
<stop offset="1" stop-color="#FF0000"/>
</linearGradient>
<linearGradient id="pf_0_3562_1162" x1="569.323" y1="328.787" x2="587.282" y2="345.366" gradientUnits="userSpaceOnUse">
<stop stop-color="#D61355"/>
<stop offset="1" stop-color="#FF0000"/>
</linearGradient>
</defs>
</svg>
