<svg width="46" height="40" viewBox="0 0 46 40" fill="none" xmlns="http://www.w3.org/2000/svg" xmlns:xlink="http://www.w3.org/1999/xlink">
<path d="M2.934,1.686L2.48,0.795L2.48,0.795L2.934,1.686ZM1.186,3.434L0.295,2.98L0.295,2.98L1.186,3.434ZM0.754,13.31L1.746,13.19L1.746,13.19L0.754,13.31ZM1.19,13.746L1.31,12.754L1.31,12.754L1.19,13.746ZM2.446,13.753L2.414,14.753L2.414,14.753L2.446,13.753ZM8.247,19.554L9.246,19.521L8.247,19.554ZM8.247,20.446L9.246,20.479L8.247,20.446ZM2.446,26.247L2.479,27.246L2.479,27.246L2.446,26.247ZM1.19,26.254L1.069,25.261L1.069,25.261L1.19,26.254ZM0.754,26.69L1.746,26.81L1.746,26.81L0.754,26.69ZM1.186,36.566L0.295,37.02L0.295,37.02L1.186,36.566ZM2.934,38.314L3.388,37.423L3.388,37.423L2.934,38.314ZM41.066,38.314L40.612,37.423L41.066,38.314ZM42.814,36.566L41.923,36.112L42.814,36.566ZM43.248,26.497L44.243,26.4L44.243,26.4L43.248,26.497ZM42.784,26.046L42.716,27.044L42.716,27.044L42.784,26.046ZM42.673,26.047L42.644,25.047L42.632,25.048L42.673,26.047ZM42.673,26.047L42.702,27.047L42.715,27.046L42.673,26.047ZM42.089,26.064L42.115,27.064L42.118,27.064L42.089,26.064ZM42.088,26.064L42.062,25.064L42.059,25.064L42.088,26.064ZM41.799,26.071L41.808,27.071L41.808,27.071L41.799,26.071ZM35.751,20.198L34.752,20.219L34.752,20.219L35.751,20.198ZM35.751,19.626L36.751,19.646L36.751,19.646L35.751,19.626ZM41.626,13.751L41.605,12.752L41.626,13.751ZM42.81,13.746L42.69,12.754L42.69,12.754L42.81,13.746ZM43.246,13.31L42.254,13.19L42.254,13.19L43.246,13.31ZM42.814,3.434L41.923,3.888L41.923,3.888L42.814,3.434ZM41.066,1.686L41.52,0.795L41.52,0.795L41.066,1.686ZM20.4,1.428L19.7,0.714L20.4,1.428ZM17.6,1.428L16.899,2.142L17.6,1.428ZM7.15,2.25L17.199,2.25L17.199,0.25L7.15,0.25L7.15,2.25ZM3.388,2.577C3.651,2.443 3.999,2.351 4.604,2.301C5.221,2.251 6.013,2.25 7.15,2.25L7.15,0.25C6.046,0.25 5.159,0.249 4.441,0.308C3.713,0.367 3.072,0.493 2.48,0.795L3.388,2.577ZM2.077,3.888C2.365,3.324 2.824,2.865 3.388,2.577L2.48,0.795C1.539,1.274 0.774,2.039 0.295,2.98L2.077,3.888ZM1.75,7.65C1.75,6.513 1.751,5.721 1.801,5.104C1.851,4.499 1.943,4.151 2.077,3.888L0.295,2.98C-0.007,3.572 -0.133,4.213 -0.192,4.941C-0.251,5.659 -0.25,6.546 -0.25,7.65L1.75,7.65ZM1.75,13.173L1.75,7.65L-0.25,7.65L-0.25,13.173L1.75,13.173ZM1.746,13.19C1.75,13.222 1.75,13.242 1.75,13.236C1.75,13.233 1.75,13.228 1.75,13.216C1.75,13.205 1.75,13.192 1.75,13.173L-0.25,13.173C-0.25,13.215 -0.252,13.326 -0.239,13.431L1.746,13.19ZM1.31,12.754C1.539,12.781 1.719,12.961 1.746,13.19L-0.239,13.431C-0.156,14.116 0.384,14.656 1.069,14.739L1.31,12.754ZM1.327,12.75C1.308,12.75 1.295,12.75 1.284,12.75C1.272,12.75 1.267,12.75 1.264,12.75C1.258,12.75 1.278,12.75 1.31,12.754L1.069,14.739C1.174,14.752 1.285,14.75 1.327,14.75L1.327,12.75ZM2,12.75L1.327,12.75L1.327,14.75L2,14.75L2,12.75ZM2.479,12.754C2.36,12.75 2.224,12.75 2,12.75L2,14.75C2.24,14.75 2.336,14.75 2.414,14.753L2.479,12.754ZM9.246,19.521C9.126,15.835 6.165,12.874 2.479,12.754L2.414,14.753C5.047,14.839 7.161,16.953 7.247,19.586L9.246,19.521ZM9.25,20C9.25,19.776 9.25,19.64 9.246,19.521L7.247,19.586C7.25,19.664 7.25,19.76 7.25,20L9.25,20ZM9.246,20.479C9.25,20.36 9.25,20.224 9.25,20L7.25,20C7.25,20.24 7.25,20.336 7.247,20.414L9.246,20.479ZM2.479,27.246C6.165,27.126 9.126,24.165 9.246,20.479L7.247,20.414C7.161,23.047 5.047,25.161 2.414,25.247L2.479,27.246ZM2,27.25C2.224,27.25 2.36,27.25 2.479,27.246L2.414,25.247C2.336,25.25 2.24,25.25 2,25.25L2,27.25ZM1.327,27.25L2,27.25L2,25.25L1.327,25.25L1.327,27.25ZM1.31,27.246C1.278,27.25 1.258,27.25 1.264,27.25C1.267,27.25 1.272,27.25 1.284,27.25C1.295,27.25 1.308,27.25 1.327,27.25L1.327,25.25C1.285,25.25 1.174,25.248 1.069,25.261L1.31,27.246ZM1.746,26.81C1.719,27.039 1.539,27.219 1.31,27.246L1.069,25.261C0.384,25.344 -0.156,25.884 -0.239,26.569L1.746,26.81ZM1.75,26.827C1.75,26.808 1.75,26.795 1.75,26.784C1.75,26.772 1.75,26.767 1.75,26.764C1.75,26.758 1.75,26.778 1.746,26.81L-0.239,26.569C-0.252,26.674 -0.25,26.785 -0.25,26.827L1.75,26.827ZM1.75,32.35L1.75,26.827L-0.25,26.827L-0.25,32.35L1.75,32.35ZM2.077,36.112C1.943,35.849 1.851,35.501 1.801,34.896C1.751,34.279 1.75,33.487 1.75,32.35L-0.25,32.35C-0.25,33.454 -0.251,34.341 -0.192,35.059C-0.133,35.787 -0.007,36.428 0.295,37.02L2.077,36.112ZM3.388,37.423C2.824,37.135 2.365,36.676 2.077,36.112L0.295,37.02C0.774,37.961 1.539,38.726 2.48,39.205L3.388,37.423ZM7.15,37.75C6.013,37.75 5.221,37.749 4.604,37.699C3.999,37.649 3.651,37.557 3.388,37.423L2.48,39.205C3.072,39.507 3.713,39.633 4.441,39.692C5.159,39.751 6.046,39.75 7.15,39.75L7.15,37.75ZM36.85,37.75L7.15,37.75L7.15,39.75L36.85,39.75L36.85,37.75ZM40.612,37.423C40.349,37.557 40.001,37.649 39.396,37.699C38.779,37.749 37.987,37.75 36.85,37.75L36.85,39.75C37.954,39.75 38.841,39.751 39.559,39.692C40.287,39.633 40.928,39.507 41.52,39.205L40.612,37.423ZM41.923,36.112C41.635,36.676 41.176,37.135 40.612,37.423L41.52,39.205C42.461,38.726 43.226,37.961 43.705,37.02L41.923,36.112ZM42.25,32.35C42.25,33.487 42.249,34.279 42.199,34.896C42.149,35.501 42.057,35.849 41.923,36.112L43.705,37.02C44.007,36.428 44.133,35.787 44.192,35.059C44.251,34.341 44.25,33.454 44.25,32.35L42.25,32.35ZM42.25,26.607L42.25,32.35L44.25,32.35L44.25,26.607L42.25,26.607ZM42.252,26.593C42.25,26.567 42.25,26.551 42.25,26.556C42.25,26.558 42.25,26.563 42.25,26.572C42.25,26.581 42.25,26.592 42.25,26.607L44.25,26.607C44.25,26.573 44.251,26.484 44.243,26.4L42.252,26.593ZM42.716,27.044C42.472,27.027 42.276,26.837 42.252,26.593L44.243,26.4C44.172,25.67 43.583,25.098 42.851,25.048L42.716,27.044ZM42.702,27.046C42.717,27.046 42.728,27.046 42.737,27.045C42.747,27.045 42.751,27.045 42.754,27.045C42.759,27.045 42.742,27.045 42.716,27.044L42.851,25.048C42.766,25.043 42.678,25.046 42.644,25.047L42.702,27.046ZM42.715,27.046L42.715,27.046L42.632,25.048L42.631,25.048L42.715,27.046ZM42.118,27.064L42.702,27.046L42.644,25.047L42.06,25.064L42.118,27.064ZM42.114,27.064L42.115,27.064L42.063,25.064L42.062,25.064L42.114,27.064ZM41.808,27.071C41.884,27.07 41.972,27.068 42.118,27.064L42.059,25.064C41.903,25.069 41.841,25.071 41.791,25.071L41.808,27.071ZM34.752,20.219C34.832,24.049 37.977,27.103 41.808,27.071L41.791,25.071C39.055,25.094 36.809,22.913 36.751,20.177L34.752,20.219ZM34.75,19.908C34.75,20.054 34.75,20.143 34.752,20.219L36.751,20.177C36.75,20.127 36.75,20.064 36.75,19.908L34.75,19.908ZM34.752,19.605C34.75,19.68 34.75,19.766 34.75,19.908L36.75,19.908C36.75,19.756 36.75,19.696 36.751,19.646L34.752,19.605ZM41.605,12.752C37.853,12.829 34.829,15.853 34.752,19.605L36.751,19.646C36.807,16.966 38.966,14.807 41.646,14.751L41.605,12.752ZM41.908,12.75C41.766,12.75 41.68,12.75 41.605,12.752L41.646,14.751C41.696,14.75 41.756,14.75 41.908,14.75L41.908,12.75ZM42.673,12.75L41.908,12.75L41.908,14.75L42.673,14.75L42.673,12.75ZM42.69,12.754C42.722,12.75 42.742,12.75 42.736,12.75C42.733,12.75 42.728,12.75 42.716,12.75C42.705,12.75 42.692,12.75 42.673,12.75L42.673,14.75C42.715,14.75 42.826,14.752 42.931,14.739L42.69,12.754ZM42.254,13.19C42.281,12.961 42.461,12.781 42.69,12.754L42.931,14.739C43.616,14.656 44.156,14.116 44.239,13.431L42.254,13.19ZM42.25,13.173C42.25,13.192 42.25,13.205 42.25,13.216C42.25,13.228 42.25,13.233 42.25,13.236C42.25,13.242 42.25,13.222 42.254,13.19L44.239,13.431C44.252,13.326 44.25,13.215 44.25,13.173L42.25,13.173ZM42.25,7.65L42.25,13.173L44.25,13.173L44.25,7.65L42.25,7.65ZM41.923,3.888C42.057,4.151 42.149,4.499 42.199,5.104C42.249,5.721 42.25,6.513 42.25,7.65L44.25,7.65C44.25,6.546 44.251,5.659 44.192,4.941C44.133,4.213 44.007,3.572 43.705,2.98L41.923,3.888ZM40.612,2.577C41.176,2.865 41.635,3.324 41.923,3.888L43.705,2.98C43.226,2.039 42.461,1.274 41.52,0.795L40.612,2.577ZM36.85,2.25C37.987,2.25 38.779,2.251 39.396,2.301C40.001,2.351 40.349,2.443 40.612,2.577L41.52,0.795C40.928,0.493 40.287,0.367 39.559,0.308C38.841,0.249 37.954,0.25 36.85,0.25L36.85,2.25ZM20.801,2.25L36.85,2.25L36.85,0.25L20.801,0.25L20.801,2.25ZM19.7,0.714C19.519,0.892 19.273,1 19,1L19,3C19.818,3 20.561,2.672 21.101,2.142L19.7,0.714ZM19,1C18.727,1 18.481,0.892 18.3,0.714L16.899,2.142C17.439,2.672 18.182,3 19,3L19,1ZM19,7C19.552,7 20,7.448 20,8L22,8C22,6.343 20.657,5 19,5L19,7ZM18,8C18,7.448 18.448,7 19,7L19,5C17.343,5 16,6.343 16,8L18,8ZM18,10L18,8L16,8L16,10L18,10ZM19,11C18.448,11 18,10.552 18,10L16,10C16,11.657 17.343,13 19,13L19,11ZM20,10C20,10.552 19.552,11 19,11L19,13C20.657,13 22,11.657 22,10L20,10ZM20,8L20,10L22,10L22,8L20,8ZM19,17C19.552,17 20,17.448 20,18L22,18C22,16.343 20.657,15 19,15L19,17ZM18,18C18,17.448 18.448,17 19,17L19,15C17.343,15 16,16.343 16,18L18,18ZM18,20L18,18L16,18L16,20L18,20ZM19,21C18.448,21 18,20.552 18,20L16,20C16,21.657 17.343,23 19,23L19,21ZM20,20C20,20.552 19.552,21 19,21L19,23C20.657,23 22,21.657 22,20L20,20ZM20,18L20,20L22,20L22,18L20,18ZM19,27C19.552,27 20,27.448 20,28L22,28C22,26.343 20.657,25 19,25L19,27ZM18,28C18,27.448 18.448,27 19,27L19,25C17.343,25 16,26.343 16,28L18,28ZM18,30L18,28L16,28L16,30L18,30ZM19,31C18.448,31 18,30.552 18,30L16,30C16,31.657 17.343,33 19,33L19,31ZM20,30C20,30.552 19.552,31 19,31L19,33C20.657,33 22,31.657 22,30L20,30ZM20,28L20,30L22,30L22,28L20,28ZM20.801,0.25C20.328,0.25 19.948,0.471 19.7,0.714L21.101,2.142C21.069,2.173 20.971,2.25 20.801,2.25L20.801,0.25ZM17.199,2.25C17.029,2.25 16.931,2.173 16.899,2.142L18.3,0.714C18.052,0.471 17.672,0.25 17.199,0.25L17.199,2.25Z" fill="#000000"/>
</svg>
