<svg width="62" height="62" viewBox="0 0 62 62" fill="none" xmlns="http://www.w3.org/2000/svg" xmlns:xlink="http://www.w3.org/1999/xlink">
<path d="M61.443,0.385L0.857,0.385L0.857,61.629L61.443,61.629L61.443,0.385Z" fill="url(#pf_0_i_3505_784;3494_558)" stroke="#000000" stroke-width="0.521" stroke-miterlimit="3.999327" stroke-linecap="round" stroke-linejoin="round"/>
<path d="M14.608,52.218C18.642,52.218 21.913,48.388 21.913,43.663C21.913,38.938 18.642,35.108 14.608,35.108C10.574,35.108 7.303,38.938 7.303,43.663C7.303,48.388 10.574,52.218 14.608,52.218Z" fill="#FFFFFF" stroke="#000000" stroke-width="0.521" stroke-miterlimit="3.999327" stroke-linecap="round" stroke-linejoin="round"/>
<path d="M36.307,52.218C40.341,52.218 43.612,48.388 43.612,43.663C43.612,38.938 40.341,35.108 36.307,35.108C32.273,35.108 29.002,38.938 29.002,43.663C29.002,48.388 32.273,52.218 36.307,52.218Z" fill="#FFFFFF" stroke="#000000" stroke-width="0.521" stroke-miterlimit="3.999327" stroke-linecap="round" stroke-linejoin="round"/>
<line x1="50.272" y1="38.11" x2="54.354" y2="38.11" stroke="#000000" stroke-width="0.521" stroke-miterlimit="3.999327" stroke-linecap="round" stroke-linejoin="round"/>
<line x1="50.272" y1="48.175" x2="54.354" y2="48.175" stroke="#000000" stroke-width="0.521" stroke-miterlimit="3.999327" stroke-linecap="round" stroke-linejoin="round"/>
<path d="M14.608,27.056C18.642,27.056 21.913,23.226 21.913,18.501C21.913,13.776 18.642,9.946 14.608,9.946C10.574,9.946 7.303,13.776 7.303,18.501C7.303,23.226 10.574,27.056 14.608,27.056Z" fill="#FFFFFF" stroke="#000000" stroke-width="0.521" stroke-miterlimit="3.999327" stroke-linecap="round" stroke-linejoin="round"/>
<path d="M36.307,27.056C40.341,27.056 43.612,23.226 43.612,18.501C43.612,13.776 40.341,9.946 36.307,9.946C32.273,9.946 29.002,13.776 29.002,18.501C29.002,23.226 32.273,27.056 36.307,27.056Z" fill="#FFFFFF" stroke="#000000" stroke-width="0.521" stroke-miterlimit="3.999327" stroke-linecap="round" stroke-linejoin="round"/>
<line x1="50.272" y1="12.948" x2="54.354" y2="12.948" stroke="#000000" stroke-width="0.521" stroke-miterlimit="3.999327" stroke-linecap="round" stroke-linejoin="round"/>
<line x1="50.272" y1="23.013" x2="54.354" y2="23.013" stroke="#000000" stroke-width="0.521" stroke-miterlimit="3.999327" stroke-linecap="round" stroke-linejoin="round"/>
<defs>
<linearGradient id="pf_0_i_3505_784;3494_558" x1="10.167" y1="80.075" x2="56.49" y2="13.462" gradientUnits="userSpaceOnUse">
<stop stop-color="#3BADF5"/>
<stop offset="1" stop-color="#0083DA"/>
</linearGradient>
</defs>
</svg>
