<svg width="62" height="62" viewBox="0 0 62 62" fill="none" xmlns="http://www.w3.org/2000/svg" xmlns:xlink="http://www.w3.org/1999/xlink">
<path d="M61.44,0.385L0.854,0.385L0.854,61.629L61.44,61.629L61.44,0.385Z" fill="url(#pf_0_i_3500_416;3494_558)" stroke="#000000" stroke-width="0.521" stroke-miterlimit="3.999327" stroke-linecap="round" stroke-linejoin="round"/>
<path d="M14.604,52.218C18.638,52.218 21.909,48.388 21.909,43.663C21.909,38.938 18.638,35.108 14.604,35.108C10.57,35.108 7.299,38.938 7.299,43.663C7.299,48.388 10.57,52.218 14.604,52.218Z" fill="#FFFFFF" stroke="#000000" stroke-width="0.521" stroke-miterlimit="3.999327" stroke-linecap="round" stroke-linejoin="round"/>
<path d="M36.303,52.218C40.338,52.218 43.608,48.388 43.608,43.663C43.608,38.938 40.338,35.108 36.303,35.108C32.269,35.108 28.999,38.938 28.999,43.663C28.999,48.388 32.269,52.218 36.303,52.218Z" fill="#FFFFFF" stroke="#000000" stroke-width="0.521" stroke-miterlimit="3.999327" stroke-linecap="round" stroke-linejoin="round"/>
<line x1="50.268" y1="38.11" x2="54.35" y2="38.11" stroke="#000000" stroke-width="0.521" stroke-miterlimit="3.999327" stroke-linecap="round" stroke-linejoin="round"/>
<line x1="50.268" y1="48.175" x2="54.35" y2="48.175" stroke="#000000" stroke-width="0.521" stroke-miterlimit="3.999327" stroke-linecap="round" stroke-linejoin="round"/>
<path d="M14.604,27.056C18.638,27.056 21.909,23.226 21.909,18.501C21.909,13.777 18.638,9.946 14.604,9.946C10.57,9.946 7.299,13.777 7.299,18.501C7.299,23.226 10.57,27.056 14.604,27.056Z" fill="#FFFFFF" stroke="#000000" stroke-width="0.521" stroke-miterlimit="3.999327" stroke-linecap="round" stroke-linejoin="round"/>
<path d="M36.303,27.056C40.338,27.056 43.608,23.226 43.608,18.501C43.608,13.777 40.338,9.946 36.303,9.946C32.269,9.946 28.999,13.777 28.999,18.501C28.999,23.226 32.269,27.056 36.303,27.056Z" fill="#FFFFFF" stroke="#000000" stroke-width="0.521" stroke-miterlimit="3.999327" stroke-linecap="round" stroke-linejoin="round"/>
<line x1="50.268" y1="12.948" x2="54.35" y2="12.948" stroke="#000000" stroke-width="0.521" stroke-miterlimit="3.999327" stroke-linecap="round" stroke-linejoin="round"/>
<line x1="50.268" y1="23.013" x2="54.35" y2="23.013" stroke="#000000" stroke-width="0.521" stroke-miterlimit="3.999327" stroke-linecap="round" stroke-linejoin="round"/>
<defs>
<linearGradient id="pf_0_i_3500_416;3494_558" x1="10.164" y1="80.075" x2="56.488" y2="13.462" gradientUnits="userSpaceOnUse">
<stop stop-color="#3BADF5"/>
<stop offset="1" stop-color="#0083DA"/>
</linearGradient>
</defs>
</svg>
