<svg width="62" height="62" viewBox="0 0 62 62" fill="none" xmlns="http://www.w3.org/2000/svg" xmlns:xlink="http://www.w3.org/1999/xlink">
<path d="M61.44,0.634L0.854,0.634L0.854,61.878L61.44,61.878L61.44,0.634Z" fill="url(#pf_0_i_3494_587;3494_558)" stroke="#000000" stroke-width="0.521" stroke-miterlimit="3.999327" stroke-linecap="round" stroke-linejoin="round"/>
<path d="M14.604,52.468C18.638,52.468 21.909,48.638 21.909,43.913C21.909,39.188 18.638,35.358 14.604,35.358C10.57,35.358 7.299,39.188 7.299,43.913C7.299,48.638 10.57,52.468 14.604,52.468Z" fill="#FFFFFF" stroke="#000000" stroke-width="0.521" stroke-miterlimit="3.999327" stroke-linecap="round" stroke-linejoin="round"/>
<path d="M36.303,52.468C40.338,52.468 43.608,48.638 43.608,43.913C43.608,39.188 40.338,35.358 36.303,35.358C32.269,35.358 28.999,39.188 28.999,43.913C28.999,48.638 32.269,52.468 36.303,52.468Z" fill="#FFFFFF" stroke="#000000" stroke-width="0.521" stroke-miterlimit="3.999327" stroke-linecap="round" stroke-linejoin="round"/>
<line x1="50.268" y1="38.36" x2="54.35" y2="38.36" stroke="#000000" stroke-width="0.521" stroke-miterlimit="3.999327" stroke-linecap="round" stroke-linejoin="round"/>
<line x1="50.268" y1="48.424" x2="54.35" y2="48.424" stroke="#000000" stroke-width="0.521" stroke-miterlimit="3.999327" stroke-linecap="round" stroke-linejoin="round"/>
<path d="M14.604,27.306C18.638,27.306 21.909,23.476 21.909,18.751C21.909,14.026 18.638,10.196 14.604,10.196C10.57,10.196 7.299,14.026 7.299,18.751C7.299,23.476 10.57,27.306 14.604,27.306Z" fill="#FFFFFF" stroke="#000000" stroke-width="0.521" stroke-miterlimit="3.999327" stroke-linecap="round" stroke-linejoin="round"/>
<path d="M36.303,27.306C40.338,27.306 43.608,23.476 43.608,18.751C43.608,14.026 40.338,10.196 36.303,10.196C32.269,10.196 28.999,14.026 28.999,18.751C28.999,23.476 32.269,27.306 36.303,27.306Z" fill="#FFFFFF" stroke="#000000" stroke-width="0.521" stroke-miterlimit="3.999327" stroke-linecap="round" stroke-linejoin="round"/>
<line x1="50.268" y1="13.198" x2="54.35" y2="13.198" stroke="#000000" stroke-width="0.521" stroke-miterlimit="3.999327" stroke-linecap="round" stroke-linejoin="round"/>
<line x1="50.268" y1="23.262" x2="54.35" y2="23.262" stroke="#000000" stroke-width="0.521" stroke-miterlimit="3.999327" stroke-linecap="round" stroke-linejoin="round"/>
<defs>
<linearGradient id="pf_0_i_3494_587;3494_558" x1="10.164" y1="80.324" x2="56.488" y2="13.712" gradientUnits="userSpaceOnUse">
<stop stop-color="#3BADF5"/>
<stop offset="1" stop-color="#0083DA"/>
</linearGradient>
</defs>
</svg>
