<svg width="62" height="62" viewBox="0 0 62 62" fill="none" xmlns="http://www.w3.org/2000/svg" xmlns:xlink="http://www.w3.org/1999/xlink">
<path d="M61.439,-0.407L0.853,-0.407L0.853,60.837L61.439,60.837L61.439,-0.407Z" fill="url(#pf_0_i_3548_633;3494_558)" stroke="#000000" stroke-width="0.521" stroke-miterlimit="3.999327" stroke-linecap="round" stroke-linejoin="round"/>
<path d="M14.603,51.426C18.637,51.426 21.907,47.596 21.907,42.871C21.907,38.146 18.637,34.316 14.603,34.316C10.568,34.316 7.298,38.146 7.298,42.871C7.298,47.596 10.568,51.426 14.603,51.426Z" fill="#FFFFFF" stroke="#000000" stroke-width="0.521" stroke-miterlimit="3.999327" stroke-linecap="round" stroke-linejoin="round"/>
<path d="M36.302,51.426C40.336,51.426 43.606,47.596 43.606,42.871C43.606,38.146 40.336,34.316 36.302,34.316C32.267,34.316 28.997,38.146 28.997,42.871C28.997,47.596 32.267,51.426 36.302,51.426Z" fill="#FFFFFF" stroke="#000000" stroke-width="0.521" stroke-miterlimit="3.999327" stroke-linecap="round" stroke-linejoin="round"/>
<line x1="50.266" y1="37.318" x2="54.348" y2="37.318" stroke="#000000" stroke-width="0.521" stroke-miterlimit="3.999327" stroke-linecap="round" stroke-linejoin="round"/>
<line x1="50.266" y1="47.382" x2="54.348" y2="47.382" stroke="#000000" stroke-width="0.521" stroke-miterlimit="3.999327" stroke-linecap="round" stroke-linejoin="round"/>
<path d="M14.603,26.264C18.637,26.264 21.907,22.434 21.907,17.709C21.907,12.984 18.637,9.154 14.603,9.154C10.568,9.154 7.298,12.984 7.298,17.709C7.298,22.434 10.568,26.264 14.603,26.264Z" fill="#FFFFFF" stroke="#000000" stroke-width="0.521" stroke-miterlimit="3.999327" stroke-linecap="round" stroke-linejoin="round"/>
<path d="M36.302,26.264C40.336,26.264 43.606,22.433 43.606,17.709C43.606,12.984 40.336,9.154 36.302,9.154C32.267,9.154 28.997,12.984 28.997,17.709C28.997,22.433 32.267,26.264 36.302,26.264Z" fill="#FFFFFF" stroke="#000000" stroke-width="0.521" stroke-miterlimit="3.999327" stroke-linecap="round" stroke-linejoin="round"/>
<line x1="50.266" y1="12.155" x2="54.348" y2="12.155" stroke="#000000" stroke-width="0.521" stroke-miterlimit="3.999327" stroke-linecap="round" stroke-linejoin="round"/>
<line x1="50.266" y1="22.22" x2="54.348" y2="22.22" stroke="#000000" stroke-width="0.521" stroke-miterlimit="3.999327" stroke-linecap="round" stroke-linejoin="round"/>
<defs>
<linearGradient id="pf_0_i_3548_633;3494_558" x1="10.163" y1="79.283" x2="56.487" y2="12.67" gradientUnits="userSpaceOnUse">
<stop stop-color="#3BADF5"/>
<stop offset="1" stop-color="#0083DA"/>
</linearGradient>
</defs>
</svg>
