<svg width="60" height="60" viewBox="0 0 60 60" fill="none" xmlns="http://www.w3.org/2000/svg" xmlns:xlink="http://www.w3.org/1999/xlink">
<path d="M33.914,31.414L35.328,30L35.328,30L33.914,31.414ZM43.586,43.914C44.367,44.695 45.633,44.695 46.414,43.914C47.195,43.133 47.195,41.867 46.414,41.086L43.586,43.914ZM26.414,6.086C25.633,5.305 24.367,5.305 23.586,6.086C22.805,6.867 22.805,8.133 23.586,8.914L26.414,6.086ZM38.586,21.086L37.172,22.5L37.172,22.5L38.586,21.086ZM38.586,23.914L40,25.328L40,25.328L38.586,23.914ZM33.914,28.586L32.5,27.172L32.5,27.172L33.914,28.586ZM32.5,32.828L43.586,43.914L46.414,41.086L35.328,30L32.5,32.828ZM23.586,8.914L37.172,22.5L40,19.672L26.414,6.086L23.586,8.914ZM37.172,22.5L32.5,27.172L35.328,30L40,25.328L37.172,22.5ZM37.172,22.5L37.172,22.5L40,25.328C41.562,23.766 41.562,21.234 40,19.672L37.172,22.5ZM35.328,30L35.328,30L32.5,27.172C30.938,28.734 30.938,31.266 32.5,32.828L35.328,30Z" transform="rotate(180 35 25)" fill="#000000"/>
<path d="M9.5,7.5C9.5,6.395 8.605,5.5 7.5,5.5C6.395,5.5 5.5,6.395 5.5,7.5L9.5,7.5ZM52.5,54.5C53.605,54.5 54.5,53.605 54.5,52.5C54.5,51.395 53.605,50.5 52.5,50.5L52.5,54.5ZM9.684,52.064L10.592,50.282L9.684,52.064ZM7.936,50.316L6.154,51.224L7.936,50.316ZM52.5,50.5L13.9,50.5L13.9,54.5L52.5,54.5L52.5,50.5ZM9.5,46.1L9.5,7.5L5.5,7.5L5.5,46.1L9.5,46.1ZM13.9,50.5C12.747,50.5 12.002,50.498 11.436,50.452C10.892,50.408 10.691,50.332 10.592,50.282L8.776,53.846C9.533,54.232 10.319,54.374 11.11,54.439C11.877,54.502 12.813,54.5 13.9,54.5L13.9,50.5ZM5.5,46.1C5.5,47.187 5.498,48.123 5.561,48.89C5.626,49.681 5.768,50.467 6.154,51.224L9.718,49.408C9.668,49.309 9.592,49.108 9.548,48.564C9.502,47.998 9.5,47.253 9.5,46.1L5.5,46.1ZM10.592,50.282C10.216,50.09 9.91,49.784 9.718,49.408L6.154,51.224C6.729,52.353 7.647,53.271 8.776,53.846L10.592,50.282Z" fill="#000000"/>
</svg>
