<svg width="14" height="16" viewBox="0 0 14 16" fill="none" xmlns="http://www.w3.org/2000/svg" xmlns:xlink="http://www.w3.org/1999/xlink">
<path d="M11.902,0.286C12.082,0.168 12.133,-0.074 12.015,-0.255C11.897,-0.436 11.655,-0.487 11.475,-0.369L11.902,0.286ZM1.271,6.753L1.058,6.425C0.95,6.496 0.883,6.616 0.881,6.745C0.879,6.875 0.94,6.997 1.046,7.072L1.271,6.753ZM11.463,14.424C11.639,14.548 11.883,14.506 12.007,14.33C12.132,14.153 12.09,13.91 11.913,13.785L11.463,14.424ZM11.475,-0.369L1.058,6.425L1.485,7.08L11.902,0.286L11.475,-0.369ZM1.046,7.072L11.463,14.424L11.913,13.785L1.497,6.433L1.046,7.072Z" fill="#111719"/>
</svg>
