<svg width="26" height="28" viewBox="0 0 26 28" fill="none" xmlns="http://www.w3.org/2000/svg" xmlns:xlink="http://www.w3.org/1999/xlink">
<path d="M20.714,11.287L21.033,11.514L21.035,11.51L20.714,11.287ZM18.745,16.238L19.133,16.283L19.133,16.279L18.745,16.238ZM14.761,22.623L14.964,22.957L14.967,22.955L14.761,22.623ZM3.169,19.338L3.514,19.155L3.513,19.154L3.169,19.338ZM6.033,7.91L5.823,7.581L5.822,7.581L6.033,7.91ZM9.032,6.707L8.968,6.321L8.966,6.322L9.032,6.707ZM13.239,4.763L13.018,4.442L13.006,4.45L13.239,4.763ZM13.642,4.486L13.451,4.145L13.436,4.154L13.421,4.164L13.642,4.486ZM21.251,5.735L20.909,5.923L20.914,5.931L21.251,5.735ZM20.396,11.061C19.244,12.68 18.543,14.409 18.356,16.197L19.133,16.279C19.304,14.643 19.947,13.04 21.033,11.514L20.396,11.061ZM18.357,16.193C18.057,18.763 16.688,20.969 14.555,22.291L14.967,22.955C17.311,21.502 18.806,19.08 19.133,16.283L18.357,16.193ZM14.559,22.289C13.32,23.04 11.913,23.436 10.509,23.436L10.509,24.217C12.059,24.217 13.606,23.78 14.964,22.957L14.559,22.289ZM10.509,23.436C7.614,23.436 4.925,21.807 3.514,19.155L2.824,19.522C4.367,22.421 7.317,24.217 10.509,24.217L10.509,23.436ZM3.513,19.154C1.503,15.396 2.75,10.485 6.244,8.238L5.822,7.581C1.976,10.054 0.627,15.415 2.824,19.522L3.513,19.154ZM6.244,8.239C7.147,7.66 8.084,7.267 9.098,7.092L8.966,6.322C7.832,6.517 6.799,6.956 5.823,7.581L6.244,8.239ZM9.096,7.092C10.561,6.848 12.005,6.167 13.472,5.077L13.006,4.45C11.609,5.488 10.279,6.103 8.968,6.321L9.096,7.092ZM13.461,5.085C13.528,5.039 13.595,4.993 13.663,4.946C13.73,4.9 13.797,4.854 13.864,4.807L13.421,4.164C13.353,4.21 13.286,4.257 13.219,4.303C13.152,4.349 13.085,4.396 13.018,4.442L13.461,5.085ZM13.833,4.827C14.86,4.252 16.004,3.905 17.134,3.905L17.134,3.124C15.846,3.124 14.573,3.517 13.451,4.145L13.833,4.827ZM17.134,3.905C18.807,3.905 20.228,4.681 20.909,5.923L21.594,5.547C20.753,4.013 19.04,3.124 17.134,3.124L17.134,3.905ZM20.914,5.931C21.76,7.39 21.582,9.354 20.393,11.064L21.035,11.51C22.353,9.612 22.622,7.319 21.589,5.539L20.914,5.931Z" fill="#0A2533"/>
<path d="M11.36,12.166C11.136,12.12 10.867,12.259 10.823,12.49C10.778,12.722 10.912,12.999 11.136,13.045C12.21,13.323 12.881,14.48 12.613,15.59C12.568,15.822 12.702,16.099 12.926,16.145C12.971,16.145 13.016,16.145 13.016,16.145C13.195,16.145 13.419,16.007 13.463,15.775C13.911,14.248 12.926,12.583 11.36,12.166Z" fill="#0A2533"/>
<path d="M15.258,15.104C15.258,17.746 13.19,19.865 10.666,19.865L10.666,20.646C13.646,20.646 16.039,18.153 16.039,15.104L15.258,15.104ZM10.666,19.865C8.141,19.865 6.073,17.746 6.073,15.104L5.292,15.104C5.292,18.153 7.686,20.646 10.666,20.646L10.666,19.865ZM6.073,15.104C6.073,12.463 8.141,10.344 10.666,10.344L10.666,9.563C7.686,9.563 5.292,12.056 5.292,15.104L6.073,15.104ZM10.666,10.344C13.19,10.344 15.258,12.463 15.258,15.104L16.039,15.104C16.039,12.056 13.646,9.563 10.666,9.563L10.666,10.344Z" fill="#0A2533"/>
</svg>
