<svg width="26" height="28" viewBox="0 0 26 28" fill="none" xmlns="http://www.w3.org/2000/svg" xmlns:xlink="http://www.w3.org/1999/xlink">
<path d="M20.714,11.287L21.033,11.514L21.035,11.51L20.714,11.287ZM18.745,16.238L19.133,16.283L19.134,16.279L18.745,16.238ZM14.762,22.623L14.964,22.957L14.967,22.955L14.762,22.623ZM3.169,19.338L3.514,19.155L3.513,19.154L3.169,19.338ZM6.034,7.91L5.823,7.581L5.822,7.581L6.034,7.91ZM9.032,6.707L8.968,6.321L8.966,6.322L9.032,6.707ZM13.24,4.763L13.018,4.442L13.007,4.45L13.24,4.763ZM13.643,4.486L13.452,4.145L13.436,4.154L13.421,4.164L13.643,4.486ZM21.252,5.735L20.909,5.923L20.914,5.931L21.252,5.735ZM20.396,11.061C19.244,12.68 18.544,14.409 18.357,16.197L19.134,16.279C19.305,14.643 19.947,13.04 21.033,11.514L20.396,11.061ZM18.357,16.193C18.057,18.763 16.688,20.969 14.556,22.291L14.967,22.955C17.311,21.502 18.807,19.08 19.133,16.283L18.357,16.193ZM14.559,22.289C13.321,23.04 11.913,23.436 10.509,23.436L10.509,24.217C12.06,24.217 13.606,23.78 14.964,22.957L14.559,22.289ZM10.509,23.436C7.614,23.436 4.925,21.807 3.514,19.155L2.824,19.522C4.367,22.421 7.317,24.217 10.509,24.217L10.509,23.436ZM3.513,19.154C1.503,15.396 2.75,10.485 6.245,8.238L5.822,7.581C1.976,10.054 0.627,15.415 2.824,19.522L3.513,19.154ZM6.244,8.239C7.148,7.66 8.084,7.267 9.099,7.092L8.966,6.322C7.832,6.517 6.799,6.956 5.823,7.581L6.244,8.239ZM9.097,7.092C10.561,6.848 12.005,6.167 13.473,5.077L13.007,4.45C11.61,5.488 10.279,6.103 8.968,6.321L9.097,7.092ZM13.461,5.085C13.529,5.039 13.596,4.993 13.663,4.946C13.73,4.9 13.797,4.854 13.864,4.807L13.421,4.164C13.354,4.21 13.287,4.257 13.219,4.303C13.152,4.349 13.085,4.396 13.018,4.442L13.461,5.085ZM13.833,4.827C14.861,4.252 16.004,3.905 17.134,3.905L17.134,3.124C15.847,3.124 14.573,3.517 13.452,4.145L13.833,4.827ZM17.134,3.905C18.808,3.905 20.228,4.681 20.909,5.923L21.594,5.547C20.753,4.013 19.041,3.124 17.134,3.124L17.134,3.905ZM20.914,5.931C21.76,7.39 21.582,9.354 20.394,11.064L21.035,11.51C22.354,9.612 22.623,7.319 21.589,5.539L20.914,5.931Z" fill="#0A2533"/>
<path d="M11.359,12.166C11.136,12.12 10.867,12.259 10.822,12.49C10.778,12.722 10.912,12.999 11.136,13.045C12.21,13.323 12.881,14.48 12.613,15.59C12.568,15.822 12.702,16.099 12.926,16.145C12.971,16.145 13.016,16.145 13.016,16.145C13.195,16.145 13.418,16.007 13.463,15.775C13.911,14.248 12.926,12.583 11.359,12.166Z" fill="#0A2533"/>
<path d="M15.259,15.104C15.259,17.746 13.19,19.865 10.666,19.865L10.666,20.646C13.646,20.646 16.04,18.153 16.04,15.104L15.259,15.104ZM10.666,19.865C8.142,19.865 6.074,17.746 6.074,15.104L5.292,15.104C5.292,18.153 7.686,20.646 10.666,20.646L10.666,19.865ZM6.074,15.104C6.074,12.463 8.142,10.344 10.666,10.344L10.666,9.563C7.686,9.563 5.292,12.056 5.292,15.104L6.074,15.104ZM10.666,10.344C13.19,10.344 15.259,12.463 15.259,15.104L16.04,15.104C16.04,12.056 13.646,9.563 10.666,9.563L10.666,10.344Z" fill="#0A2533"/>
</svg>
