<svg width="18" height="18" viewBox="0 0 18 18" fill="none" xmlns="http://www.w3.org/2000/svg" xmlns:xlink="http://www.w3.org/1999/xlink">
<path d="M17.521,7.701C17.521,7.078 17.016,6.573 16.392,6.573L3.81,6.573L9.311,1.072C9.761,0.622 9.754,-0.109 9.297,-0.55L9.297,-0.55C8.851,-0.981 8.142,-0.975 7.703,-0.536L-0.445,7.612C-0.495,7.661 -0.495,7.741 -0.445,7.791L7.701,15.937C8.139,16.375 8.848,16.375 9.285,15.937L9.285,15.937C9.721,15.502 9.722,14.796 9.288,14.358L3.81,8.83L16.392,8.83C17.016,8.83 17.521,8.325 17.521,7.701L17.521,7.701Z" transform="rotate(360 8.493 7.701)" fill="#FFFFFF"/>
</svg>
