<svg width="42" height="42" viewBox="0 0 42 42" fill="none" xmlns="http://www.w3.org/2000/svg" xmlns:xlink="http://www.w3.org/1999/xlink">
<path d="M7,-0.8L33,-0.8C37.308,-0.8 40.8,2.692 40.8,7L40.8,33C40.8,37.308 37.308,40.8 33,40.8L7,40.8C2.692,40.8 -0.8,37.308 -0.8,33L-0.8,7C-0.8,2.692 2.692,-0.8 7,-0.8ZM7,1.8C4.128,1.8 1.8,4.128 1.8,7L1.8,33C1.8,35.872 4.128,38.2 7,38.2L33,38.2C35.872,38.2 38.2,35.872 38.2,33L38.2,7C38.2,4.128 35.872,1.8 33,1.8L7,1.8Z" clip-rule="evenodd" fill-rule="evenodd" fill="#B5B5BE"/>
</svg>
