<svg width="60" height="60" viewBox="0 0 60 60" fill="none" xmlns="http://www.w3.org/2000/svg" xmlns:xlink="http://www.w3.org/1999/xlink">
<circle cx="30" cy="30" r="20" stroke="#000000" stroke-width="2" stroke-miterlimit="3.999327"/>
<path d="M41.25,32C42.355,32 43.25,31.105 43.25,30C43.25,28.895 42.355,28 41.25,28L41.25,32ZM32,21.25C32,20.145 31.105,19.25 30,19.25C28.895,19.25 28,20.145 28,21.25L32,21.25ZM41.25,28L30.5,28L30.5,32L41.25,32L41.25,28ZM32,29.5L32,21.25L28,21.25L28,29.5L32,29.5ZM30.5,28C31.328,28 32,28.672 32,29.5L28,29.5C28,30.881 29.119,32 30.5,32L30.5,28Z" fill="#000000"/>
</svg>
