<svg width="44" height="42" viewBox="0 0 44 42" fill="none" xmlns="http://www.w3.org/2000/svg" xmlns:xlink="http://www.w3.org/1999/xlink">
<path d="M15.816,39.561L16.132,40.51L16.132,40.51L15.816,39.561ZM28.816,35.228L29.132,36.177L29.132,36.177L28.816,35.228ZM41.414,8.086L42.121,8.793L41.414,8.086ZM4,1L40,1L40,-1L4,-1L4,1ZM3,6.672L3,2L1,2L1,6.672L3,6.672ZM14.621,18.707L3.293,7.379L1.879,8.793L13.207,20.121L14.621,18.707ZM13.5,20.828L13.5,38.613L15.5,38.613L15.5,20.828L13.5,20.828ZM13.5,38.613C13.5,39.978 14.837,40.942 16.132,40.51L15.5,38.613L13.5,38.613ZM16.132,40.51L29.132,36.177L28.5,34.279L15.5,38.613L16.132,40.51ZM29.132,36.177C29.949,35.904 30.5,35.14 30.5,34.279L28.5,34.279L28.5,34.279L29.132,36.177ZM30.5,34.279L30.5,20.828L28.5,20.828L28.5,34.279L30.5,34.279ZM40.707,7.379L29.379,18.707L30.793,20.121L42.121,8.793L40.707,7.379ZM41,2L41,6.672L43,6.672L43,2L41,2ZM42.121,8.793C42.684,8.23 43,7.467 43,6.672L41,6.672C41,6.937 40.895,7.191 40.707,7.379L42.121,8.793ZM30.5,20.828C30.5,20.563 30.605,20.309 30.793,20.121L29.379,18.707C28.816,19.27 28.5,20.033 28.5,20.828L30.5,20.828ZM13.207,20.121C13.395,20.309 13.5,20.563 13.5,20.828L15.5,20.828C15.5,20.033 15.184,19.27 14.621,18.707L13.207,20.121ZM1,6.672C1,7.467 1.316,8.23 1.879,8.793L3.293,7.379C3.105,7.191 3,6.937 3,6.672L1,6.672ZM40,1C40.552,1 41,1.448 41,2L43,2C43,0.343 41.657,-1 40,-1L40,1ZM4,-1C2.343,-1 1,0.343 1,2L3,2C3,1.448 3.448,1 4,1L4,-1Z" fill="#000000"/>
</svg>
