<svg width="6" height="16" viewBox="0 0 6 16" fill="none" xmlns="http://www.w3.org/2000/svg" xmlns:xlink="http://www.w3.org/1999/xlink">
<path d="M1.188,15.729L1.188,6.312L-0.625,6.312L-0.625,4.687L1.188,4.687L1.188,3.333C1.188,2.75 1.292,2.18 1.5,1.625C1.708,1.055 2.056,0.59 2.542,0.229C3.028,-0.132 3.688,-0.313 4.521,-0.313C4.924,-0.313 5.243,-0.278 5.479,-0.208C5.729,-0.153 5.854,-0.125 5.854,-0.125L5.854,1.437C5.854,1.437 5.743,1.417 5.521,1.375C5.313,1.319 5.069,1.292 4.792,1.292C4.153,1.292 3.722,1.486 3.5,1.875C3.278,2.264 3.167,2.75 3.167,3.333L3.167,4.687L5.729,4.687L5.729,6.312L3.167,6.312L3.167,15.729L1.188,15.729Z" fill="#48525F"/>
</svg>
