<svg width="36" height="38" viewBox="0 0 36 38" fill="none" xmlns="http://www.w3.org/2000/svg" xmlns:xlink="http://www.w3.org/1999/xlink">
<path d="M17.989,36.241C16.344,36.241 7.01,26.822 3.31,20.987C2.775,20.27 2.282,19.349 1.83,18.325L1.706,18.018C1.624,17.762 1.501,17.506 1.418,17.148C1.336,16.892 1.254,16.585 1.172,16.277C0.884,15.049 0.719,13.923 0.719,12.848C0.719,6.193 5.078,0.768 10.423,0.768C13.384,0.768 16.18,2.457 17.989,5.323C19.798,2.457 22.594,0.768 25.555,0.768C30.9,0.768 35.259,6.193 35.259,12.848C35.259,14.025 35.053,15.1 34.807,16.226C34.765,16.585 34.642,16.892 34.56,17.199L34.519,17.301C34.478,17.404 34.437,17.506 34.395,17.608C34.354,17.711 34.313,17.864 34.231,18.018L34.231,18.069L34.149,18.325C33.696,19.4 33.203,20.27 32.668,21.038C28.968,26.822 19.634,36.241 17.989,36.241ZM3.721,17.301C4.091,18.12 4.461,18.786 4.831,19.297L4.872,19.4C8.655,25.286 16.344,32.555 17.989,33.579C19.634,32.504 27.323,25.286 31.065,19.349L31.106,19.246C31.517,18.734 31.887,18.069 32.216,17.25L32.216,17.148L32.381,16.84C32.422,16.738 32.463,16.636 32.504,16.482C32.545,16.38 32.586,16.226 32.627,16.073C32.668,15.868 32.751,15.714 32.751,15.561L32.751,15.51C32.956,14.537 33.121,13.667 33.121,12.745C33.121,7.473 29.708,3.225 25.473,3.225C22.677,3.225 20.168,5.067 18.811,8.139L17.989,10.288L17.084,8.292C15.728,5.221 13.219,3.378 10.423,3.378C6.188,3.327 2.775,7.576 2.775,12.848C2.775,13.667 2.899,14.588 3.145,15.51L3.186,15.663C3.228,15.817 3.269,16.021 3.351,16.226L3.392,16.277C3.433,16.482 3.515,16.687 3.639,16.892L3.803,17.199L3.803,17.301L3.721,17.301Z" fill="#FFC6BA"/>
</svg>
