<svg width="36" height="36" viewBox="0 0 36 36" fill="none" xmlns="http://www.w3.org/2000/svg" xmlns:xlink="http://www.w3.org/1999/xlink">
<path d="M17.989,35.699C16.344,35.699 7.01,26.28 3.31,20.445C2.775,19.729 2.282,18.807 1.83,17.783L1.706,17.476C1.624,17.22 1.501,16.964 1.418,16.606C1.336,16.35 1.254,16.043 1.172,15.736C0.884,14.507 0.719,13.381 0.719,12.306C0.719,5.652 5.078,0.226 10.423,0.226C13.384,0.226 16.18,1.915 17.989,4.782C19.798,1.915 22.594,0.226 25.555,0.226C30.9,0.226 35.259,5.652 35.259,12.306C35.259,13.484 35.053,14.559 34.807,15.685C34.765,16.043 34.642,16.35 34.56,16.657L34.519,16.76C34.478,16.862 34.437,16.964 34.395,17.067C34.354,17.169 34.313,17.323 34.231,17.476L34.231,17.527L34.149,17.783C33.696,18.858 33.203,19.729 32.668,20.496C28.968,26.28 19.634,35.699 17.989,35.699ZM3.721,16.76C4.091,17.579 4.461,18.244 4.831,18.756L4.872,18.858C8.655,24.745 16.344,32.013 17.989,33.037C19.634,31.962 27.323,24.745 31.065,18.807L31.106,18.705C31.517,18.193 31.887,17.527 32.216,16.708L32.216,16.606L32.381,16.299C32.422,16.197 32.463,16.094 32.504,15.941C32.545,15.838 32.586,15.685 32.627,15.531C32.668,15.326 32.751,15.173 32.751,15.019L32.751,14.968C32.956,13.996 33.121,13.125 33.121,12.204C33.121,6.932 29.708,2.683 25.473,2.683C22.677,2.683 20.168,4.526 18.811,7.597L17.989,9.747L17.084,7.751C15.728,4.679 13.219,2.837 10.423,2.837C6.188,2.785 2.775,7.034 2.775,12.306C2.775,13.125 2.899,14.047 3.145,14.968L3.186,15.122C3.228,15.275 3.269,15.48 3.351,15.685L3.392,15.736C3.433,15.941 3.515,16.145 3.639,16.35L3.803,16.657L3.803,16.76L3.721,16.76Z" fill="#FFC6BA"/>
</svg>
