<svg width="4" height="16" viewBox="0 0 4 16" fill="none" xmlns="http://www.w3.org/2000/svg" xmlns:xlink="http://www.w3.org/1999/xlink">
<path d="M1.163,2.583C0.788,2.583 0.476,2.458 0.226,2.208C-0.01,1.958 -0.128,1.66 -0.128,1.312C-0.128,0.951 -0.01,0.646 0.226,0.396C0.476,0.146 0.788,0.021 1.163,0.021C1.524,0.021 1.83,0.146 2.08,0.396C2.33,0.646 2.455,0.951 2.455,1.312C2.455,1.66 2.33,1.958 2.08,2.208C1.83,2.458 1.524,2.583 1.163,2.583ZM0.184,15.729L0.184,4.687L2.163,4.687L2.163,15.729L0.184,15.729Z" fill="#48525F"/>
</svg>
