<svg width="12" height="14" viewBox="0 0 12 14" fill="none" xmlns="http://www.w3.org/2000/svg" xmlns:xlink="http://www.w3.org/1999/xlink">
<path d="M5.534,12.292C4.631,12.292 3.846,12.132 3.18,11.812C2.527,11.479 1.985,11.035 1.555,10.479C1.138,9.924 0.826,9.312 0.617,8.646C0.409,7.965 0.305,7.271 0.305,6.562C0.305,5.868 0.402,5.18 0.596,4.5C0.805,3.819 1.117,3.201 1.534,2.646C1.964,2.09 2.499,1.653 3.138,1.333C3.791,1 4.562,0.833 5.451,0.833C6.395,0.833 7.228,1.049 7.951,1.479C8.673,1.91 9.242,2.549 9.659,3.396C10.076,4.243 10.284,5.305 10.284,6.583L10.284,7.167L2.305,7.167C2.346,7.792 2.492,8.368 2.742,8.896C3.006,9.41 3.374,9.826 3.846,10.146C4.319,10.451 4.881,10.604 5.534,10.604C6.103,10.604 6.562,10.514 6.909,10.333C7.27,10.139 7.555,9.917 7.763,9.667C7.971,9.417 8.11,9.201 8.18,9.021C8.263,8.826 8.305,8.729 8.305,8.729L10.159,8.729C10.159,8.729 10.124,8.854 10.055,9.104C9.985,9.34 9.86,9.632 9.68,9.979C9.499,10.326 9.235,10.68 8.888,11.042C8.541,11.389 8.096,11.687 7.555,11.937C7.013,12.174 6.339,12.292 5.534,12.292ZM2.326,5.625L8.346,5.625C8.319,4.903 8.166,4.319 7.888,3.875C7.61,3.417 7.256,3.076 6.826,2.854C6.395,2.632 5.937,2.521 5.451,2.521C4.576,2.521 3.86,2.805 3.305,3.375C2.749,3.93 2.423,4.68 2.326,5.625Z" fill="#48525F"/>
</svg>
