<svg width="42" height="34" viewBox="0 0 42 34" fill="none" xmlns="http://www.w3.org/2000/svg" xmlns:xlink="http://www.w3.org/1999/xlink">
<path d="M1,14C-0.105,14 -1,14.895 -1,16C-1,17.105 -0.105,18 1,18L1,14ZM40,16L41.414,17.414C42.195,16.633 42.195,15.367 41.414,14.586L40,16ZM26.414,-0.414C25.633,-1.195 24.367,-1.195 23.586,-0.414C22.805,0.367 22.805,1.633 23.586,2.414L26.414,-0.414ZM23.586,29.586C22.805,30.367 22.805,31.633 23.586,32.414C24.367,33.195 25.633,33.195 26.414,32.414L23.586,29.586ZM1,18L40,18L40,14L1,14L1,18ZM41.414,14.586L26.414,-0.414L23.586,2.414L38.586,17.414L41.414,14.586ZM38.586,14.586L23.586,29.586L26.414,32.414L41.414,17.414L38.586,14.586Z" transform="rotate(-360 20.5 16)" fill="#FFFFFF"/>
</svg>
