<svg width="12" height="12" viewBox="0 0 12 12" fill="none" xmlns="http://www.w3.org/2000/svg" xmlns:xlink="http://www.w3.org/1999/xlink">
<path d="M5.76,0.479C6.455,0.479 7.038,0.59 7.51,0.812C7.982,1.035 8.364,1.298 8.656,1.604C8.948,1.896 9.17,2.173 9.323,2.437L9.448,2.437L9.448,0.687L11.427,0.687L11.427,11.729L9.448,11.729L9.448,9.979L9.323,9.979C9.17,10.243 8.948,10.528 8.656,10.833C8.364,11.139 7.982,11.403 7.51,11.625C7.038,11.833 6.455,11.937 5.76,11.937C4.927,11.937 4.198,11.778 3.573,11.458C2.948,11.125 2.427,10.687 2.01,10.146C1.594,9.59 1.281,8.972 1.073,8.292C0.864,7.611 0.76,6.917 0.76,6.208C0.76,5.5 0.864,4.805 1.073,4.125C1.281,3.444 1.594,2.833 2.01,2.292C2.427,1.736 2.948,1.298 3.573,0.979C4.198,0.646 4.927,0.479 5.76,0.479ZM6.094,2.167C5.357,2.167 4.739,2.368 4.239,2.771C3.739,3.16 3.364,3.66 3.114,4.271C2.878,4.882 2.76,5.528 2.76,6.208C2.76,6.875 2.878,7.521 3.114,8.146C3.364,8.757 3.739,9.264 4.239,9.667C4.739,10.055 5.357,10.25 6.094,10.25C6.83,10.25 7.441,10.055 7.927,9.667C8.427,9.264 8.795,8.757 9.031,8.146C9.281,7.521 9.406,6.875 9.406,6.208C9.406,5.528 9.281,4.882 9.031,4.271C8.795,3.66 8.427,3.16 7.927,2.771C7.441,2.368 6.83,2.167 6.094,2.167Z" fill="#48525F"/>
</svg>
