<svg width="18" height="12" viewBox="0 0 18 12" fill="none" xmlns="http://www.w3.org/2000/svg" xmlns:xlink="http://www.w3.org/1999/xlink">
<path d="M0.754,11.729L0.754,0.687L2.734,0.687L2.734,2.292L2.817,2.292C2.928,2.083 3.102,1.84 3.338,1.562C3.574,1.271 3.893,1.021 4.296,0.812C4.713,0.59 5.234,0.479 5.859,0.479C6.678,0.479 7.365,0.68 7.921,1.083C8.49,1.472 8.914,2 9.192,2.667L9.213,2.667C9.518,2.055 9.949,1.542 10.504,1.125C11.074,0.694 11.81,0.479 12.713,0.479C13.907,0.479 14.824,0.889 15.463,1.708C16.115,2.514 16.442,3.555 16.442,4.833L16.442,11.729L14.463,11.729L14.463,4.937C14.463,4.118 14.268,3.458 13.879,2.958C13.491,2.444 12.928,2.187 12.192,2.187C11.553,2.187 11.039,2.361 10.65,2.708C10.275,3.055 10.004,3.486 9.838,4C9.671,4.514 9.588,5.028 9.588,5.542L9.588,11.729L7.609,11.729L7.609,4.937C7.609,4.118 7.414,3.458 7.025,2.958C6.65,2.444 6.088,2.187 5.338,2.187C4.699,2.187 4.185,2.361 3.796,2.708C3.421,3.055 3.15,3.493 2.984,4.021C2.817,4.535 2.734,5.042 2.734,5.542L2.734,11.729L0.754,11.729Z" fill="#48525F"/>
</svg>
