<svg width="36" height="36" viewBox="0 0 36 36" fill="none" xmlns="http://www.w3.org/2000/svg" xmlns:xlink="http://www.w3.org/1999/xlink">
<path d="M17.989,35.323C16.344,35.323 7.01,25.904 3.31,20.069C2.775,19.353 2.282,18.431 1.83,17.407L1.706,17.1C1.624,16.844 1.501,16.588 1.418,16.23C1.336,15.974 1.254,15.667 1.172,15.36C0.884,14.131 0.719,13.005 0.719,11.93C0.719,5.276 5.078,-0.15 10.423,-0.15C13.384,-0.15 16.18,1.539 17.989,4.406C19.798,1.539 22.594,-0.15 25.555,-0.15C30.9,-0.15 35.259,5.276 35.259,11.93C35.259,13.108 35.053,14.183 34.807,15.309C34.765,15.667 34.642,15.974 34.56,16.281L34.519,16.384C34.478,16.486 34.437,16.588 34.395,16.691C34.354,16.793 34.313,16.947 34.231,17.1L34.231,17.151L34.149,17.407C33.696,18.482 33.203,19.353 32.668,20.12C28.968,25.904 19.634,35.323 17.989,35.323ZM3.721,16.384C4.091,17.203 4.461,17.868 4.831,18.38L4.872,18.482C8.655,24.369 16.344,31.637 17.989,32.661C19.634,31.586 27.323,24.369 31.065,18.431L31.106,18.329C31.517,17.817 31.887,17.151 32.216,16.332L32.216,16.23L32.381,15.923C32.422,15.821 32.463,15.718 32.504,15.565C32.545,15.462 32.586,15.309 32.627,15.155C32.668,14.95 32.751,14.797 32.751,14.643L32.751,14.592C32.956,13.62 33.121,12.749 33.121,11.828C33.121,6.556 29.708,2.307 25.473,2.307C22.677,2.307 20.168,4.15 18.811,7.221L17.989,9.371L17.084,7.375C15.728,4.303 13.219,2.461 10.423,2.461C6.188,2.409 2.775,6.658 2.775,11.93C2.775,12.749 2.899,13.671 3.145,14.592L3.186,14.746C3.228,14.899 3.269,15.104 3.351,15.309L3.392,15.36C3.433,15.565 3.515,15.769 3.639,15.974L3.803,16.281L3.803,16.384L3.721,16.384Z" fill="#FFC6BA"/>
</svg>
