<svg width="36" height="36" viewBox="0 0 36 36" fill="none" xmlns="http://www.w3.org/2000/svg" xmlns:xlink="http://www.w3.org/1999/xlink">
<path d="M17.281,35.865C15.636,35.865 6.302,26.447 2.602,20.611C2.067,19.895 1.574,18.973 1.121,17.95L0.998,17.643C0.916,17.387 0.792,17.131 0.71,16.772C0.628,16.516 0.546,16.209 0.463,15.902C0.176,14.674 0.011,13.548 0.011,12.473C0.011,5.818 4.37,0.392 9.715,0.392C12.676,0.392 15.472,2.082 17.281,4.948C19.09,2.082 21.886,0.392 24.847,0.392C30.192,0.392 34.55,5.818 34.55,12.473C34.55,13.65 34.345,14.725 34.098,15.851C34.057,16.209 33.934,16.516 33.851,16.824L33.81,16.926C33.769,17.028 33.728,17.131 33.687,17.233C33.646,17.335 33.605,17.489 33.523,17.643L33.523,17.694L33.44,17.95C32.988,19.025 32.495,19.895 31.96,20.663C28.259,26.447 18.926,35.865 17.281,35.865ZM3.013,16.926C3.383,17.745 3.753,18.41 4.123,18.922L4.164,19.025C7.947,24.911 15.636,32.18 17.281,33.204C18.926,32.129 26.615,24.911 30.356,18.973L30.398,18.871C30.809,18.359 31.179,17.694 31.508,16.875L31.508,16.772L31.672,16.465C31.713,16.363 31.754,16.26 31.796,16.107C31.837,16.005 31.878,15.851 31.919,15.697C31.96,15.493 32.042,15.339 32.042,15.186L32.042,15.134C32.248,14.162 32.412,13.292 32.412,12.37C32.412,7.098 28.999,2.849 24.764,2.849C21.968,2.849 19.46,4.692 18.103,7.763L17.281,9.913L16.376,7.917C15.019,4.846 12.511,3.003 9.715,3.003C5.48,2.952 2.067,7.2 2.067,12.473C2.067,13.292 2.19,14.213 2.437,15.134L2.478,15.288C2.519,15.441 2.56,15.646 2.643,15.851L2.684,15.902C2.725,16.107 2.807,16.312 2.93,16.516L3.095,16.824L3.095,16.926L3.013,16.926Z" fill="#FFC6BA"/>
</svg>
