<svg width="12" height="12" viewBox="0 0 12 12" fill="none" xmlns="http://www.w3.org/2000/svg" xmlns:xlink="http://www.w3.org/1999/xlink">
<path d="M6.152,11.937C5.249,11.937 4.465,11.778 3.798,11.458C3.145,11.125 2.603,10.68 2.173,10.125C1.756,9.569 1.444,8.958 1.235,8.292C1.027,7.611 0.923,6.917 0.923,6.208C0.923,5.514 1.02,4.826 1.215,4.146C1.423,3.465 1.735,2.847 2.152,2.292C2.583,1.736 3.117,1.298 3.756,0.979C4.409,0.646 5.18,0.479 6.069,0.479C7.013,0.479 7.846,0.694 8.569,1.125C9.291,1.555 9.86,2.194 10.277,3.042C10.694,3.889 10.902,4.951 10.902,6.229L10.902,6.812L2.923,6.812C2.965,7.437 3.11,8.014 3.36,8.542C3.624,9.055 3.992,9.472 4.465,9.792C4.937,10.097 5.499,10.25 6.152,10.25C6.721,10.25 7.18,10.16 7.527,9.979C7.888,9.785 8.173,9.562 8.381,9.312C8.59,9.062 8.728,8.847 8.798,8.667C8.881,8.472 8.923,8.375 8.923,8.375L10.777,8.375C10.777,8.375 10.742,8.5 10.673,8.75C10.603,8.986 10.478,9.278 10.298,9.625C10.117,9.972 9.853,10.326 9.506,10.687C9.159,11.035 8.715,11.333 8.173,11.583C7.631,11.819 6.958,11.937 6.152,11.937ZM2.944,5.271L8.965,5.271C8.937,4.548 8.784,3.965 8.506,3.521C8.228,3.062 7.874,2.722 7.444,2.5C7.013,2.278 6.555,2.167 6.069,2.167C5.194,2.167 4.478,2.451 3.923,3.021C3.367,3.576 3.041,4.326 2.944,5.271Z" fill="#48525F"/>
</svg>
