<svg width="12" height="12" viewBox="0 0 12 12" fill="none" xmlns="http://www.w3.org/2000/svg" xmlns:xlink="http://www.w3.org/1999/xlink">
<path d="M5.646,11.937C4.743,11.937 3.951,11.778 3.271,11.458C2.59,11.125 2.02,10.687 1.562,10.146C1.118,9.59 0.777,8.972 0.541,8.292C0.319,7.611 0.208,6.917 0.208,6.208C0.208,5.5 0.319,4.812 0.541,4.146C0.764,3.465 1.097,2.847 1.541,2.292C2,1.736 2.569,1.298 3.25,0.979C3.93,0.646 4.729,0.479 5.646,0.479C6.534,0.479 7.271,0.611 7.854,0.875C8.437,1.139 8.902,1.472 9.25,1.875C9.611,2.264 9.875,2.66 10.041,3.062C10.222,3.451 10.34,3.778 10.396,4.042C10.451,4.305 10.479,4.437 10.479,4.437L8.562,4.437C8.562,4.437 8.527,4.326 8.458,4.104C8.389,3.868 8.257,3.604 8.062,3.312C7.868,3.021 7.576,2.764 7.187,2.542C6.798,2.305 6.284,2.187 5.646,2.187C4.882,2.187 4.236,2.382 3.708,2.771C3.194,3.146 2.805,3.639 2.541,4.25C2.291,4.861 2.166,5.514 2.166,6.208C2.166,6.903 2.291,7.555 2.541,8.167C2.805,8.778 3.194,9.278 3.708,9.667C4.236,10.042 4.882,10.229 5.646,10.229C6.284,10.229 6.798,10.118 7.187,9.896C7.576,9.66 7.868,9.396 8.062,9.104C8.257,8.812 8.389,8.555 8.458,8.333C8.527,8.097 8.562,7.979 8.562,7.979L10.479,7.979C10.479,7.979 10.451,8.111 10.396,8.375C10.34,8.639 10.222,8.972 10.041,9.375C9.875,9.764 9.611,10.16 9.25,10.562C8.902,10.951 8.437,11.278 7.854,11.542C7.271,11.805 6.534,11.937 5.646,11.937Z" fill="#48525F"/>
</svg>
