<svg width="32" height="28" viewBox="0 0 32 28" fill="none" xmlns="http://www.w3.org/2000/svg" xmlns:xlink="http://www.w3.org/1999/xlink">
<path d="M26.513,1.211C25.226,0.394 23.734,-0.041 22.21,-0.042C20.892,-0.029 19.597,0.294 18.426,0.899C17.256,1.504 16.243,2.375 15.47,3.443C14.697,2.374 13.685,1.502 12.514,0.897C11.344,0.291 10.047,-0.03 8.73,-0.042C7.199,-0.044 5.699,0.391 4.404,1.211C0.272,3.791 -1.143,9.509 1.242,13.973C3.19,17.621 11.404,23.954 14.374,26.164C14.684,26.395 15.061,26.52 15.448,26.52C15.834,26.52 16.211,26.395 16.521,26.164C19.484,23.939 27.705,17.621 29.653,13.973C32.038,9.501 30.623,3.784 26.513,1.211ZM28.446,13.32C26.965,16.049 20.914,21.166 15.714,25.044C15.643,25.097 15.558,25.125 15.47,25.126C15.384,25.125 15.301,25.097 15.233,25.044C10.048,21.166 3.96,16.049 2.501,13.32C0.457,9.486 1.657,4.592 5.167,2.397C6.234,1.723 7.469,1.363 8.73,1.359C9.83,1.369 10.913,1.638 11.89,2.146C12.867,2.654 13.71,3.385 14.351,4.281L15.47,5.764L16.588,4.281C17.229,3.385 18.073,2.654 19.049,2.146C20.026,1.638 21.109,1.369 22.21,1.359C23.471,1.363 24.706,1.723 25.772,2.397C29.268,4.585 30.468,9.479 28.424,13.313L28.446,13.32Z" fill="#4D4D4F"/>
</svg>
