<svg width="12" height="14" viewBox="0 0 12 14" fill="none" xmlns="http://www.w3.org/2000/svg" xmlns:xlink="http://www.w3.org/1999/xlink">
<path d="M5.76,0.833C6.455,0.833 7.038,0.944 7.51,1.167C7.982,1.389 8.364,1.653 8.656,1.958C8.948,2.25 9.17,2.528 9.323,2.792L9.448,2.792L9.448,1.042L11.427,1.042L11.427,12.083L9.448,12.083L9.448,10.333L9.323,10.333C9.17,10.597 8.948,10.882 8.656,11.187C8.364,11.493 7.982,11.757 7.51,11.979C7.038,12.187 6.455,12.292 5.76,12.292C4.927,12.292 4.198,12.132 3.573,11.812C2.948,11.479 2.427,11.042 2.01,10.5C1.594,9.944 1.281,9.326 1.073,8.646C0.864,7.965 0.76,7.271 0.76,6.562C0.76,5.854 0.864,5.16 1.073,4.479C1.281,3.799 1.594,3.187 2.01,2.646C2.427,2.09 2.948,1.653 3.573,1.333C4.198,1 4.927,0.833 5.76,0.833ZM6.094,2.521C5.357,2.521 4.739,2.722 4.239,3.125C3.739,3.514 3.364,4.014 3.114,4.625C2.878,5.236 2.76,5.882 2.76,6.562C2.76,7.229 2.878,7.875 3.114,8.5C3.364,9.111 3.739,9.618 4.239,10.021C4.739,10.41 5.357,10.604 6.094,10.604C6.83,10.604 7.441,10.41 7.927,10.021C8.427,9.618 8.795,9.111 9.031,8.5C9.281,7.875 9.406,7.229 9.406,6.562C9.406,5.882 9.281,5.236 9.031,4.625C8.795,4.014 8.427,3.514 7.927,3.125C7.441,2.722 6.83,2.521 6.094,2.521Z" fill="#48525F"/>
</svg>
