<svg width="12" height="14" viewBox="0 0 12 14" fill="none" xmlns="http://www.w3.org/2000/svg" xmlns:xlink="http://www.w3.org/1999/xlink">
<path d="M4.614,12.292C3.433,12.292 2.44,12.021 1.635,11.479C0.829,10.924 0.218,10.208 -0.199,9.333C-0.615,8.458 -0.824,7.535 -0.824,6.562C-0.824,5.576 -0.615,4.653 -0.199,3.792C0.218,2.917 0.829,2.208 1.635,1.667C2.44,1.111 3.433,0.833 4.614,0.833C5.794,0.833 6.787,1.111 7.593,1.667C8.398,2.208 9.01,2.917 9.426,3.792C9.843,4.653 10.051,5.576 10.051,6.562C10.051,7.535 9.843,8.458 9.426,9.333C9.01,10.208 8.398,10.924 7.593,11.479C6.787,12.021 5.794,12.292 4.614,12.292ZM4.614,10.562C5.364,10.562 5.989,10.375 6.489,10C7.003,9.611 7.385,9.111 7.635,8.5C7.898,7.889 8.03,7.243 8.03,6.562C8.03,5.868 7.898,5.222 7.635,4.625C7.385,4.014 7.003,3.521 6.489,3.146C5.989,2.757 5.364,2.562 4.614,2.562C3.878,2.562 3.253,2.757 2.739,3.146C2.225,3.521 1.836,4.014 1.572,4.625C1.322,5.222 1.197,5.868 1.197,6.562C1.197,7.243 1.322,7.889 1.572,8.5C1.836,9.111 2.225,9.611 2.739,10C3.253,10.375 3.878,10.562 4.614,10.562Z" fill="#48525F"/>
</svg>
