<svg width="12" height="16" viewBox="0 0 12 16" fill="none" xmlns="http://www.w3.org/2000/svg" xmlns:xlink="http://www.w3.org/1999/xlink">
<path d="M2.009,14.146C1.69,14.146 1.419,14.132 1.197,14.104C0.974,14.076 0.863,14.062 0.863,14.062L0.863,12.375C0.863,12.375 0.974,12.382 1.197,12.396C1.433,12.423 1.683,12.437 1.947,12.437C2.766,12.437 3.433,12.264 3.947,11.917C4.474,11.583 4.919,11.028 5.28,10.25L1.009,-0.958L3.072,-0.958L6.259,7.667L9.467,-0.958L11.551,-0.958L7.28,10.104C6.738,11.493 6.037,12.514 5.176,13.167C4.329,13.819 3.273,14.146 2.009,14.146Z" fill="#48525F"/>
</svg>
