<svg width="10" height="14" viewBox="0 0 10 14" fill="none" xmlns="http://www.w3.org/2000/svg" xmlns:xlink="http://www.w3.org/1999/xlink">
<path d="M0.579,12.083L0.579,1.042L2.558,1.042L2.558,2.646L2.683,2.646C2.78,2.479 2.94,2.25 3.162,1.958C3.399,1.667 3.732,1.41 4.162,1.187C4.593,0.951 5.135,0.833 5.787,0.833C6.593,0.833 7.28,1.021 7.85,1.396C8.419,1.757 8.85,2.25 9.142,2.875C9.447,3.5 9.6,4.201 9.6,4.979L9.6,12.083L7.621,12.083L7.621,5.104C7.621,4.368 7.412,3.757 6.996,3.271C6.593,2.785 6.003,2.542 5.225,2.542C4.6,2.542 4.093,2.701 3.704,3.021C3.315,3.326 3.024,3.736 2.829,4.25C2.649,4.75 2.558,5.285 2.558,5.854L2.558,12.083L0.579,12.083Z" fill="#48525F"/>
</svg>
