<svg width="10" height="18" viewBox="0 0 10 18" fill="none" xmlns="http://www.w3.org/2000/svg" xmlns:xlink="http://www.w3.org/1999/xlink">
<path d="M4.287,16.291C3.454,16.291 2.725,16.132 2.1,15.812C1.475,15.479 0.954,15.041 0.537,14.5C0.12,13.944 -0.192,13.326 -0.4,12.646C-0.609,11.965 -0.713,11.271 -0.713,10.562C-0.713,9.854 -0.609,9.159 -0.4,8.479C-0.192,7.798 0.12,7.187 0.537,6.646C0.954,6.09 1.475,5.653 2.1,5.333C2.725,5 3.454,4.833 4.287,4.833C4.982,4.833 5.565,4.944 6.037,5.166C6.509,5.389 6.891,5.653 7.183,5.958C7.475,6.25 7.697,6.528 7.85,6.791L7.975,6.791L7.975,0.25L9.954,0.25L9.954,16.083L7.975,16.083L7.975,14.333L7.85,14.333C7.697,14.597 7.475,14.882 7.183,15.187C6.891,15.493 6.509,15.757 6.037,15.979C5.565,16.187 4.982,16.291 4.287,16.291ZM4.62,14.604C5.357,14.604 5.968,14.409 6.454,14.021C6.954,13.618 7.322,13.111 7.558,12.5C7.808,11.875 7.933,11.229 7.933,10.562C7.933,9.882 7.808,9.236 7.558,8.625C7.322,8.014 6.954,7.514 6.454,7.125C5.968,6.722 5.357,6.521 4.62,6.521C3.884,6.521 3.266,6.722 2.766,7.125C2.266,7.514 1.891,8.014 1.641,8.625C1.405,9.236 1.287,9.882 1.287,10.562C1.287,11.229 1.405,11.875 1.641,12.5C1.891,13.111 2.266,13.618 2.766,14.021C3.266,14.409 3.884,14.604 4.62,14.604Z" fill="#48525F"/>
</svg>
