<svg width="12" height="14" viewBox="0 0 12 14" fill="none" xmlns="http://www.w3.org/2000/svg" xmlns:xlink="http://www.w3.org/1999/xlink">
<path d="M5.782,12.292C4.88,12.292 4.095,12.132 3.428,11.812C2.775,11.479 2.234,11.035 1.803,10.479C1.387,9.924 1.074,9.312 0.866,8.646C0.657,7.965 0.553,7.271 0.553,6.562C0.553,5.868 0.65,5.18 0.845,4.5C1.053,3.819 1.366,3.201 1.782,2.646C2.213,2.09 2.748,1.653 3.387,1.333C4.039,1 4.81,0.833 5.699,0.833C6.644,0.833 7.477,1.049 8.199,1.479C8.921,1.91 9.491,2.549 9.907,3.396C10.324,4.243 10.532,5.305 10.532,6.583L10.532,7.167L2.553,7.167C2.595,7.792 2.741,8.368 2.991,8.896C3.255,9.41 3.623,9.826 4.095,10.146C4.567,10.451 5.13,10.604 5.782,10.604C6.352,10.604 6.81,10.514 7.157,10.333C7.519,10.139 7.803,9.917 8.012,9.667C8.22,9.417 8.359,9.201 8.428,9.021C8.512,8.826 8.553,8.729 8.553,8.729L10.407,8.729C10.407,8.729 10.373,8.854 10.303,9.104C10.234,9.34 10.109,9.632 9.928,9.979C9.748,10.326 9.484,10.68 9.137,11.042C8.789,11.389 8.345,11.687 7.803,11.937C7.262,12.174 6.588,12.292 5.782,12.292ZM2.574,5.625L8.595,5.625C8.567,4.903 8.414,4.319 8.137,3.875C7.859,3.417 7.505,3.076 7.074,2.854C6.644,2.632 6.185,2.521 5.699,2.521C4.824,2.521 4.109,2.805 3.553,3.375C2.998,3.93 2.671,4.68 2.574,5.625Z" fill="#48525F"/>
</svg>
