<svg width="34" height="36" viewBox="0 0 34 36" fill="none" xmlns="http://www.w3.org/2000/svg" xmlns:xlink="http://www.w3.org/1999/xlink">
<path d="M16.406,35.699C14.761,35.699 5.428,26.28 1.727,20.445C1.192,19.729 0.699,18.807 0.247,17.783L0.123,17.476C0.041,17.22 -0.082,16.964 -0.165,16.606C-0.247,16.35 -0.329,16.043 -0.411,15.736C-0.699,14.507 -0.864,13.381 -0.864,12.306C-0.864,5.652 3.495,0.226 8.84,0.226C11.801,0.226 14.597,1.915 16.406,4.782C18.215,1.915 21.011,0.226 23.972,0.226C29.317,0.226 33.676,5.652 33.676,12.306C33.676,13.484 33.47,14.559 33.224,15.685C33.182,16.043 33.059,16.35 32.977,16.657L32.936,16.76C32.895,16.862 32.854,16.964 32.812,17.067C32.771,17.169 32.73,17.323 32.648,17.476L32.648,17.527L32.566,17.783C32.113,18.858 31.62,19.729 31.085,20.496C27.385,26.28 18.051,35.699 16.406,35.699ZM2.138,16.76C2.508,17.579 2.878,18.244 3.248,18.756L3.289,18.858C7.072,24.745 14.761,32.013 16.406,33.037C18.051,31.962 25.74,24.745 29.482,18.807L29.523,18.705C29.934,18.193 30.304,17.527 30.633,16.708L30.633,16.606L30.798,16.299C30.839,16.197 30.88,16.094 30.921,15.941C30.962,15.838 31.003,15.685 31.044,15.531C31.085,15.326 31.168,15.173 31.168,15.019L31.168,14.968C31.373,13.996 31.538,13.125 31.538,12.204C31.538,6.932 28.125,2.683 23.89,2.683C21.094,2.683 18.585,4.526 17.229,7.597L16.406,9.747L15.502,7.751C14.145,4.679 11.636,2.837 8.84,2.837C4.605,2.785 1.192,7.034 1.192,12.306C1.192,13.125 1.316,14.047 1.562,14.968L1.604,15.122C1.645,15.275 1.686,15.48 1.768,15.685L1.809,15.736C1.85,15.941 1.932,16.145 2.056,16.35L2.22,16.657L2.22,16.76L2.138,16.76Z" fill="#FFC6BA"/>
</svg>
