<svg width="4" height="18" viewBox="0 0 4 18" fill="none" xmlns="http://www.w3.org/2000/svg" xmlns:xlink="http://www.w3.org/1999/xlink">
<path d="M0.966,2.937C0.591,2.937 0.279,2.812 0.029,2.562C-0.207,2.312 -0.325,2.014 -0.325,1.666C-0.325,1.305 -0.207,1 0.029,0.75C0.279,0.5 0.591,0.375 0.966,0.375C1.328,0.375 1.633,0.5 1.883,0.75C2.133,1 2.258,1.305 2.258,1.666C2.258,2.014 2.133,2.312 1.883,2.562C1.633,2.812 1.328,2.937 0.966,2.937ZM-0.013,16.083L-0.013,5.041L1.966,5.041L1.966,16.083L-0.013,16.083Z" fill="#48525F"/>
</svg>
