<svg width="12" height="16" viewBox="0 0 12 16" fill="none" xmlns="http://www.w3.org/2000/svg" xmlns:xlink="http://www.w3.org/1999/xlink">
<path d="M1.372,14.146C1.052,14.146 0.782,14.132 0.559,14.104C0.337,14.076 0.226,14.062 0.226,14.062L0.226,12.375C0.226,12.375 0.337,12.382 0.559,12.396C0.796,12.423 1.046,12.437 1.309,12.437C2.129,12.437 2.796,12.264 3.309,11.917C3.837,11.583 4.282,11.028 4.643,10.25L0.372,-0.958L2.434,-0.958L5.622,7.667L8.83,-0.958L10.914,-0.958L6.643,10.104C6.101,11.493 5.4,12.514 4.539,13.167C3.691,13.819 2.636,14.146 1.372,14.146Z" fill="#48525F"/>
</svg>
