<svg width="12" height="12" viewBox="0 0 12 12" fill="none" xmlns="http://www.w3.org/2000/svg" xmlns:xlink="http://www.w3.org/1999/xlink">
<path d="M4.617,11.937C3.436,11.937 2.443,11.667 1.638,11.125C0.832,10.569 0.221,9.854 -0.196,8.979C-0.612,8.104 -0.821,7.18 -0.821,6.208C-0.821,5.222 -0.612,4.298 -0.196,3.437C0.221,2.562 0.832,1.854 1.638,1.312C2.443,0.757 3.436,0.479 4.617,0.479C5.797,0.479 6.79,0.757 7.596,1.312C8.401,1.854 9.013,2.562 9.429,3.437C9.846,4.298 10.054,5.222 10.054,6.208C10.054,7.18 9.846,8.104 9.429,8.979C9.013,9.854 8.401,10.569 7.596,11.125C6.79,11.667 5.797,11.937 4.617,11.937ZM4.617,10.208C5.367,10.208 5.992,10.021 6.492,9.646C7.006,9.257 7.388,8.757 7.638,8.146C7.901,7.535 8.033,6.889 8.033,6.208C8.033,5.514 7.901,4.868 7.638,4.271C7.388,3.66 7.006,3.167 6.492,2.792C5.992,2.403 5.367,2.208 4.617,2.208C3.881,2.208 3.256,2.403 2.742,2.792C2.228,3.167 1.839,3.66 1.575,4.271C1.325,4.868 1.2,5.514 1.2,6.208C1.2,6.889 1.325,7.535 1.575,8.146C1.839,8.757 2.228,9.257 2.742,9.646C3.256,10.021 3.881,10.208 4.617,10.208Z" fill="#48525F"/>
</svg>
