<svg width="12" height="16" viewBox="0 0 12 16" fill="none" xmlns="http://www.w3.org/2000/svg" xmlns:xlink="http://www.w3.org/1999/xlink">
<path d="M5.326,15.375C4.368,15.375 3.521,15.167 2.785,14.75C2.048,14.319 1.43,13.743 0.93,13.021C0.444,12.285 0.069,11.437 -0.195,10.479C-0.445,9.521 -0.57,8.514 -0.57,7.458C-0.57,6.389 -0.445,5.382 -0.195,4.437C0.069,3.479 0.444,2.632 0.93,1.896C1.43,1.16 2.048,0.583 2.785,0.167C3.521,-0.25 4.368,-0.458 5.326,-0.458C6.285,-0.458 7.132,-0.25 7.868,0.167C8.604,0.583 9.215,1.16 9.701,1.896C10.201,2.632 10.576,3.479 10.826,4.437C11.09,5.382 11.222,6.389 11.222,7.458C11.222,8.514 11.09,9.521 10.826,10.479C10.576,11.437 10.201,12.285 9.701,13.021C9.215,13.743 8.604,14.319 7.868,14.75C7.132,15.167 6.285,15.375 5.326,15.375ZM5.326,13.5C6.423,13.5 7.326,12.993 8.035,11.979C8.757,10.951 9.118,9.444 9.118,7.458C9.118,5.472 8.757,3.972 8.035,2.958C7.326,1.944 6.423,1.437 5.326,1.437C4.229,1.437 3.319,1.944 2.597,2.958C1.889,3.972 1.535,5.472 1.535,7.458C1.535,9.43 1.889,10.93 2.597,11.958C3.319,12.986 4.229,13.5 5.326,13.5Z" fill="#48525F"/>
</svg>
