<svg width="10" height="12" viewBox="0 0 10 12" fill="none" xmlns="http://www.w3.org/2000/svg" xmlns:xlink="http://www.w3.org/1999/xlink">
<path d="M5.022,11.937C4.12,11.937 3.335,11.778 2.668,11.458C2.015,11.125 1.474,10.68 1.043,10.125C0.627,9.569 0.314,8.958 0.106,8.292C-0.103,7.611 -0.207,6.917 -0.207,6.208C-0.207,5.514 -0.11,4.826 0.085,4.146C0.293,3.465 0.606,2.847 1.022,2.292C1.453,1.736 1.988,1.298 2.627,0.979C3.279,0.646 4.05,0.479 4.939,0.479C5.883,0.479 6.717,0.694 7.439,1.125C8.161,1.555 8.731,2.194 9.147,3.042C9.564,3.889 9.772,4.951 9.772,6.229L9.772,6.812L1.793,6.812C1.835,7.437 1.981,8.014 2.231,8.542C2.495,9.055 2.863,9.472 3.335,9.792C3.807,10.097 4.37,10.25 5.022,10.25C5.592,10.25 6.05,10.16 6.397,9.979C6.758,9.785 7.043,9.562 7.252,9.312C7.46,9.062 7.599,8.847 7.668,8.667C7.752,8.472 7.793,8.375 7.793,8.375L9.647,8.375C9.647,8.375 9.613,8.5 9.543,8.75C9.474,8.986 9.349,9.278 9.168,9.625C8.988,9.972 8.724,10.326 8.377,10.687C8.029,11.035 7.585,11.333 7.043,11.583C6.502,11.819 5.828,11.937 5.022,11.937ZM1.814,5.271L7.835,5.271C7.807,4.548 7.654,3.965 7.377,3.521C7.099,3.062 6.745,2.722 6.314,2.5C5.883,2.278 5.425,2.167 4.939,2.167C4.064,2.167 3.349,2.451 2.793,3.021C2.238,3.576 1.911,4.326 1.814,5.271Z" fill="#48525F"/>
</svg>
