<svg width="10" height="14" viewBox="0 0 10 14" fill="none" xmlns="http://www.w3.org/2000/svg" xmlns:xlink="http://www.w3.org/1999/xlink">
<path d="M4.894,12.292C3.991,12.292 3.206,12.132 2.54,11.812C1.887,11.479 1.345,11.035 0.915,10.479C0.498,9.924 0.186,9.312 -0.023,8.646C-0.231,7.965 -0.335,7.271 -0.335,6.562C-0.335,5.868 -0.238,5.18 -0.044,4.5C0.165,3.819 0.477,3.201 0.894,2.646C1.325,2.09 1.859,1.653 2.498,1.333C3.151,1 3.922,0.833 4.811,0.833C5.755,0.833 6.588,1.049 7.311,1.479C8.033,1.91 8.602,2.549 9.019,3.396C9.436,4.243 9.644,5.305 9.644,6.583L9.644,7.167L1.665,7.167C1.706,7.792 1.852,8.368 2.102,8.896C2.366,9.41 2.734,9.826 3.206,10.146C3.679,10.451 4.241,10.604 4.894,10.604C5.463,10.604 5.922,10.514 6.269,10.333C6.63,10.139 6.915,9.917 7.123,9.667C7.331,9.417 7.47,9.201 7.54,9.021C7.623,8.826 7.665,8.729 7.665,8.729L9.519,8.729C9.519,8.729 9.484,8.854 9.415,9.104C9.345,9.34 9.22,9.632 9.04,9.979C8.859,10.326 8.595,10.68 8.248,11.042C7.901,11.389 7.456,11.687 6.915,11.937C6.373,12.174 5.7,12.292 4.894,12.292ZM1.686,5.625L7.706,5.625C7.679,4.903 7.526,4.319 7.248,3.875C6.97,3.417 6.616,3.076 6.186,2.854C5.755,2.632 5.297,2.521 4.811,2.521C3.936,2.521 3.22,2.805 2.665,3.375C2.109,3.93 1.783,4.68 1.686,5.625Z" fill="#48525F"/>
</svg>
