<svg width="12" height="14" viewBox="0 0 12 14" fill="none" xmlns="http://www.w3.org/2000/svg" xmlns:xlink="http://www.w3.org/1999/xlink">
<path d="M5.646,12.292C4.743,12.292 3.951,12.132 3.271,11.812C2.59,11.479 2.02,11.042 1.562,10.5C1.118,9.944 0.777,9.326 0.541,8.646C0.319,7.965 0.208,7.271 0.208,6.562C0.208,5.854 0.319,5.167 0.541,4.5C0.764,3.819 1.097,3.201 1.541,2.646C2,2.09 2.569,1.653 3.25,1.333C3.93,1 4.729,0.833 5.646,0.833C6.534,0.833 7.271,0.965 7.854,1.229C8.437,1.493 8.902,1.826 9.25,2.229C9.611,2.618 9.875,3.014 10.041,3.417C10.222,3.805 10.34,4.132 10.396,4.396C10.451,4.66 10.479,4.792 10.479,4.792L8.562,4.792C8.562,4.792 8.527,4.68 8.458,4.458C8.389,4.222 8.257,3.958 8.062,3.667C7.868,3.375 7.576,3.118 7.187,2.896C6.798,2.66 6.284,2.542 5.646,2.542C4.882,2.542 4.236,2.736 3.708,3.125C3.194,3.5 2.805,3.993 2.541,4.604C2.291,5.215 2.166,5.868 2.166,6.562C2.166,7.257 2.291,7.91 2.541,8.521C2.805,9.132 3.194,9.632 3.708,10.021C4.236,10.396 4.882,10.583 5.646,10.583C6.284,10.583 6.798,10.472 7.187,10.25C7.576,10.014 7.868,9.75 8.062,9.458C8.257,9.167 8.389,8.91 8.458,8.687C8.527,8.451 8.562,8.333 8.562,8.333L10.479,8.333C10.479,8.333 10.451,8.465 10.396,8.729C10.34,8.993 10.222,9.326 10.041,9.729C9.875,10.118 9.611,10.514 9.25,10.917C8.902,11.305 8.437,11.632 7.854,11.896C7.271,12.16 6.534,12.292 5.646,12.292Z" fill="#48525F"/>
</svg>
