<svg width="2" height="18" viewBox="0 0 2 18" fill="none" xmlns="http://www.w3.org/2000/svg" xmlns:xlink="http://www.w3.org/1999/xlink">
<path d="M0.378,2.937C0.003,2.937 -0.31,2.812 -0.56,2.562C-0.796,2.312 -0.914,2.014 -0.914,1.666C-0.914,1.305 -0.796,1 -0.56,0.75C-0.31,0.5 0.003,0.375 0.378,0.375C0.739,0.375 1.044,0.5 1.294,0.75C1.544,1 1.669,1.305 1.669,1.666C1.669,2.014 1.544,2.312 1.294,2.562C1.044,2.812 0.739,2.937 0.378,2.937ZM-0.602,16.083L-0.602,5.041L1.378,5.041L1.378,16.083L-0.602,16.083Z" fill="#48525F"/>
</svg>
