<svg width="4" height="4" viewBox="0 0 4 4" fill="none" xmlns="http://www.w3.org/2000/svg" xmlns:xlink="http://www.w3.org/1999/xlink">
<path d="M3.792,1.707C3.796,2.119 3.663,2.524 3.409,2.869C3.155,3.214 2.792,3.484 2.365,3.646C1.938,3.807 1.467,3.852 1.011,3.775C0.556,3.698 0.136,3.503 -0.195,3.214C-0.526,2.925 -0.753,2.555 -0.847,2.151C-0.941,1.748 -0.898,1.328 -0.724,0.946C-0.55,0.564 -0.252,0.236 0.132,0.005C0.515,-0.227 0.968,-0.352 1.432,-0.355C2.052,-0.359 2.649,-0.144 3.091,0.243C3.533,0.629 3.785,1.156 3.792,1.707L3.792,1.707Z" fill="#F05161"/>
</svg>
