<svg width="6" height="16" viewBox="0 0 6 16" fill="none" xmlns="http://www.w3.org/2000/svg" xmlns:xlink="http://www.w3.org/1999/xlink">
<path d="M1.319,15.729L1.319,6.312L-0.494,6.312L-0.494,4.687L1.319,4.687L1.319,3.333C1.319,2.75 1.423,2.18 1.631,1.625C1.84,1.055 2.187,0.59 2.673,0.229C3.159,-0.132 3.819,-0.313 4.652,-0.313C5.055,-0.313 5.374,-0.278 5.611,-0.208C5.861,-0.153 5.986,-0.125 5.986,-0.125L5.986,1.437C5.986,1.437 5.874,1.417 5.652,1.375C5.444,1.319 5.201,1.292 4.923,1.292C4.284,1.292 3.854,1.486 3.631,1.875C3.409,2.264 3.298,2.75 3.298,3.333L3.298,4.687L5.861,4.687L5.861,6.312L3.298,6.312L3.298,15.729L1.319,15.729Z" fill="#48525F"/>
</svg>
