<svg width="10" height="14" viewBox="0 0 10 14" fill="none" xmlns="http://www.w3.org/2000/svg" xmlns:xlink="http://www.w3.org/1999/xlink">
<path d="M0.163,12.083L0.163,1.042L2.142,1.042L2.142,2.646L2.267,2.646C2.364,2.479 2.524,2.25 2.746,1.958C2.983,1.667 3.316,1.41 3.746,1.187C4.177,0.951 4.719,0.833 5.371,0.833C6.177,0.833 6.864,1.021 7.434,1.396C8.003,1.757 8.434,2.25 8.726,2.875C9.031,3.5 9.184,4.201 9.184,4.979L9.184,12.083L7.205,12.083L7.205,5.104C7.205,4.368 6.996,3.757 6.58,3.271C6.177,2.785 5.587,2.542 4.809,2.542C4.184,2.542 3.677,2.701 3.288,3.021C2.899,3.326 2.608,3.736 2.413,4.25C2.233,4.75 2.142,5.285 2.142,5.854L2.142,12.083L0.163,12.083Z" fill="#48525F"/>
</svg>
