<svg width="10" height="12" viewBox="0 0 10 12" fill="none" xmlns="http://www.w3.org/2000/svg" xmlns:xlink="http://www.w3.org/1999/xlink">
<path d="M5.07,11.937C4.167,11.937 3.382,11.778 2.715,11.458C2.063,11.125 1.521,10.68 1.09,10.125C0.674,9.569 0.361,8.958 0.153,8.292C-0.056,7.611 -0.16,6.917 -0.16,6.208C-0.16,5.514 -0.062,4.826 0.132,4.146C0.34,3.465 0.653,2.847 1.07,2.292C1.5,1.736 2.035,1.298 2.674,0.979C3.326,0.646 4.097,0.479 4.986,0.479C5.931,0.479 6.764,0.694 7.486,1.125C8.208,1.555 8.778,2.194 9.195,3.042C9.611,3.889 9.82,4.951 9.82,6.229L9.82,6.812L1.84,6.812C1.882,7.437 2.028,8.014 2.278,8.542C2.542,9.055 2.91,9.472 3.382,9.792C3.854,10.097 4.417,10.25 5.07,10.25C5.639,10.25 6.097,10.16 6.445,9.979C6.806,9.785 7.09,9.562 7.299,9.312C7.507,9.062 7.646,8.847 7.715,8.667C7.799,8.472 7.84,8.375 7.84,8.375L9.695,8.375C9.695,8.375 9.66,8.5 9.59,8.75C9.521,8.986 9.396,9.278 9.215,9.625C9.035,9.972 8.771,10.326 8.424,10.687C8.076,11.035 7.632,11.333 7.09,11.583C6.549,11.819 5.875,11.937 5.07,11.937ZM1.861,5.271L7.882,5.271C7.854,4.548 7.701,3.965 7.424,3.521C7.146,3.062 6.792,2.722 6.361,2.5C5.931,2.278 5.472,2.167 4.986,2.167C4.111,2.167 3.396,2.451 2.84,3.021C2.285,3.576 1.958,4.326 1.861,5.271Z" fill="#48525F"/>
</svg>
