<svg width="12" height="16" viewBox="0 0 12 16" fill="none" xmlns="http://www.w3.org/2000/svg" xmlns:xlink="http://www.w3.org/1999/xlink">
<path d="M0.721,15.812L0.721,0.687L2.7,0.687L2.7,2.437L2.825,2.437C2.992,2.173 3.214,1.889 3.492,1.583C3.784,1.278 4.166,1.021 4.638,0.812C5.11,0.59 5.693,0.479 6.388,0.479C7.221,0.479 7.95,0.646 8.575,0.979C9.2,1.298 9.721,1.736 10.138,2.292C10.555,2.833 10.867,3.444 11.075,4.125C11.284,4.805 11.388,5.5 11.388,6.208C11.388,6.917 11.284,7.611 11.075,8.292C10.867,8.972 10.555,9.59 10.138,10.146C9.721,10.687 9.2,11.125 8.575,11.458C7.95,11.778 7.221,11.937 6.388,11.937C5.693,11.937 5.11,11.826 4.638,11.604C4.166,11.382 3.784,11.118 3.492,10.812C3.214,10.507 2.992,10.229 2.825,9.979L2.7,9.979L2.7,15.812L0.721,15.812ZM2.742,6.208C2.742,6.875 2.86,7.521 3.096,8.146C3.346,8.757 3.714,9.264 4.2,9.667C4.7,10.055 5.318,10.25 6.055,10.25C6.805,10.25 7.423,10.055 7.909,9.667C8.409,9.264 8.777,8.757 9.013,8.146C9.263,7.521 9.388,6.875 9.388,6.208C9.388,5.528 9.263,4.882 9.013,4.271C8.777,3.66 8.409,3.16 7.909,2.771C7.423,2.368 6.805,2.167 6.055,2.167C5.318,2.167 4.7,2.368 4.2,2.771C3.714,3.16 3.346,3.66 3.096,4.271C2.86,4.882 2.742,5.528 2.742,6.208Z" fill="#48525F"/>
</svg>
