<svg width="36" height="36" viewBox="0 0 36 36" fill="none" xmlns="http://www.w3.org/2000/svg" xmlns:xlink="http://www.w3.org/1999/xlink">
<path d="M17.989,34.949C16.344,34.949 7.01,25.53 3.31,19.695C2.775,18.978 2.282,18.057 1.83,17.033L1.706,16.726C1.624,16.47 1.501,16.214 1.418,15.856C1.336,15.6 1.254,15.293 1.172,14.985C0.884,13.757 0.719,12.631 0.719,11.556C0.719,4.901 5.078,-0.524 10.423,-0.524C13.384,-0.524 16.18,1.165 17.989,4.031C19.798,1.165 22.594,-0.524 25.555,-0.524C30.9,-0.524 35.259,4.901 35.259,11.556C35.259,12.733 35.053,13.808 34.807,14.934C34.765,15.293 34.642,15.6 34.56,15.907L34.519,16.009C34.478,16.112 34.437,16.214 34.395,16.316C34.354,16.419 34.313,16.572 34.231,16.726L34.231,16.777L34.149,17.033C33.696,18.108 33.203,18.978 32.668,19.746C28.968,25.53 19.634,34.949 17.989,34.949ZM3.721,16.009C4.091,16.828 4.461,17.494 4.831,18.005L4.872,18.108C8.655,23.994 16.344,31.263 17.989,32.287C19.634,31.212 27.323,23.994 31.065,18.057L31.106,17.954C31.517,17.442 31.887,16.777 32.216,15.958L32.216,15.856L32.381,15.548C32.422,15.446 32.463,15.344 32.504,15.19C32.545,15.088 32.586,14.934 32.627,14.781C32.668,14.576 32.751,14.422 32.751,14.269L32.751,14.218C32.956,13.245 33.121,12.375 33.121,11.453C33.121,6.181 29.708,1.933 25.473,1.933C22.677,1.933 20.168,3.775 18.811,6.847L17.989,8.996L17.084,7C15.728,3.929 13.219,2.086 10.423,2.086C6.188,2.035 2.775,6.284 2.775,11.556C2.775,12.375 2.899,13.296 3.145,14.218L3.186,14.371C3.228,14.525 3.269,14.729 3.351,14.934L3.392,14.985C3.433,15.19 3.515,15.395 3.639,15.6L3.803,15.907L3.803,16.009L3.721,16.009Z" fill="#FFC6BA"/>
</svg>
