<svg width="12" height="12" viewBox="0 0 12 12" fill="none" xmlns="http://www.w3.org/2000/svg" xmlns:xlink="http://www.w3.org/1999/xlink">
<path d="M5.346,0.479C6.04,0.479 6.623,0.59 7.096,0.812C7.568,1.035 7.95,1.298 8.242,1.604C8.533,1.896 8.755,2.173 8.908,2.437L9.033,2.437L9.033,0.687L11.012,0.687L11.012,11.729L9.033,11.729L9.033,9.979L8.908,9.979C8.755,10.243 8.533,10.528 8.242,10.833C7.95,11.139 7.568,11.403 7.096,11.625C6.623,11.833 6.04,11.937 5.346,11.937C4.512,11.937 3.783,11.778 3.158,11.458C2.533,11.125 2.012,10.687 1.596,10.146C1.179,9.59 0.867,8.972 0.658,8.292C0.45,7.611 0.346,6.917 0.346,6.208C0.346,5.5 0.45,4.805 0.658,4.125C0.867,3.444 1.179,2.833 1.596,2.292C2.012,1.736 2.533,1.298 3.158,0.979C3.783,0.646 4.512,0.479 5.346,0.479ZM5.679,2.167C4.943,2.167 4.325,2.368 3.825,2.771C3.325,3.16 2.95,3.66 2.7,4.271C2.464,4.882 2.346,5.528 2.346,6.208C2.346,6.875 2.464,7.521 2.7,8.146C2.95,8.757 3.325,9.264 3.825,9.667C4.325,10.055 4.943,10.25 5.679,10.25C6.415,10.25 7.026,10.055 7.512,9.667C8.012,9.264 8.38,8.757 8.617,8.146C8.867,7.521 8.992,6.875 8.992,6.208C8.992,5.528 8.867,4.882 8.617,4.271C8.38,3.66 8.012,3.16 7.512,2.771C7.026,2.368 6.415,2.167 5.679,2.167Z" fill="#48525F"/>
</svg>
