<svg width="12" height="18" viewBox="0 0 12 18" fill="none" xmlns="http://www.w3.org/2000/svg" xmlns:xlink="http://www.w3.org/1999/xlink">
<path d="M0.039,16.167L0.039,1.042L2.018,1.042L2.018,2.792L2.143,2.792C2.309,2.528 2.532,2.243 2.809,1.937C3.101,1.632 3.483,1.375 3.955,1.167C4.427,0.944 5.011,0.833 5.705,0.833C6.539,0.833 7.268,1 7.893,1.333C8.518,1.653 9.039,2.09 9.455,2.646C9.872,3.187 10.184,3.799 10.393,4.479C10.601,5.16 10.705,5.854 10.705,6.562C10.705,7.271 10.601,7.965 10.393,8.646C10.184,9.326 9.872,9.944 9.455,10.5C9.039,11.042 8.518,11.479 7.893,11.812C7.268,12.132 6.539,12.292 5.705,12.292C5.011,12.292 4.427,12.18 3.955,11.958C3.483,11.736 3.101,11.472 2.809,11.167C2.532,10.861 2.309,10.583 2.143,10.333L2.018,10.333L2.018,16.167L0.039,16.167ZM2.059,6.562C2.059,7.229 2.177,7.875 2.414,8.5C2.664,9.111 3.032,9.618 3.518,10.021C4.018,10.41 4.636,10.604 5.372,10.604C6.122,10.604 6.74,10.41 7.226,10.021C7.726,9.618 8.094,9.111 8.33,8.5C8.58,7.875 8.705,7.229 8.705,6.562C8.705,5.882 8.58,5.236 8.33,4.625C8.094,4.014 7.726,3.514 7.226,3.125C6.74,2.722 6.122,2.521 5.372,2.521C4.636,2.521 4.018,2.722 3.518,3.125C3.032,3.514 2.664,4.014 2.414,4.625C2.177,5.236 2.059,5.882 2.059,6.562Z" fill="#48525F"/>
</svg>
