<svg width="12" height="14" viewBox="0 0 12 14" fill="none" xmlns="http://www.w3.org/2000/svg" xmlns:xlink="http://www.w3.org/1999/xlink">
<path d="M5.472,12.292C4.569,12.292 3.778,12.132 3.097,11.812C2.417,11.479 1.847,11.042 1.389,10.5C0.944,9.944 0.604,9.326 0.368,8.646C0.146,7.965 0.035,7.271 0.035,6.562C0.035,5.854 0.146,5.167 0.368,4.5C0.59,3.819 0.924,3.201 1.368,2.646C1.826,2.09 2.396,1.653 3.076,1.333C3.757,1 4.556,0.833 5.472,0.833C6.361,0.833 7.097,0.965 7.681,1.229C8.264,1.493 8.729,1.826 9.076,2.229C9.437,2.618 9.701,3.014 9.868,3.417C10.049,3.805 10.167,4.132 10.222,4.396C10.278,4.66 10.306,4.792 10.306,4.792L8.389,4.792C8.389,4.792 8.354,4.68 8.285,4.458C8.215,4.222 8.083,3.958 7.889,3.667C7.694,3.375 7.403,3.118 7.014,2.896C6.625,2.66 6.111,2.542 5.472,2.542C4.708,2.542 4.062,2.736 3.535,3.125C3.021,3.5 2.632,3.993 2.368,4.604C2.118,5.215 1.993,5.868 1.993,6.562C1.993,7.257 2.118,7.91 2.368,8.521C2.632,9.132 3.021,9.632 3.535,10.021C4.062,10.396 4.708,10.583 5.472,10.583C6.111,10.583 6.625,10.472 7.014,10.25C7.403,10.014 7.694,9.75 7.889,9.458C8.083,9.167 8.215,8.91 8.285,8.687C8.354,8.451 8.389,8.333 8.389,8.333L10.306,8.333C10.306,8.333 10.278,8.465 10.222,8.729C10.167,8.993 10.049,9.326 9.868,9.729C9.701,10.118 9.437,10.514 9.076,10.917C8.729,11.305 8.264,11.632 7.681,11.896C7.097,12.16 6.361,12.292 5.472,12.292Z" fill="#48525F"/>
</svg>
