<svg width="50" height="50" viewBox="0 0 50 50" fill="none" xmlns="http://www.w3.org/2000/svg" xmlns:xlink="http://www.w3.org/1999/xlink">
<path d="M3.74,48.847L8.804,48.847C10.759,48.847 12.349,47.257 12.349,45.303L12.349,44.561C15.411,46.121 22.367,48.847 33.679,48.847L36.919,48.847C41.614,48.847 45.601,45.489 46.397,40.863L48.665,27.697C49.147,24.888 48.371,22.032 46.54,19.857C44.711,17.685 42.03,16.44 39.188,16.44L30,16.44C30.574,14.9 31.147,12.656 31.147,9.857C31.147,2.247 26.841,0.236 24.564,0.236C20.359,0.236 20.007,4.157 20.007,7.832C20.007,12.316 14.978,16.043 12.322,17.7C12.187,15.869 10.669,14.414 8.804,14.414L3.74,14.414C1.786,14.414 0.196,16.004 0.196,17.959L0.196,45.303C0.196,47.257 1.786,48.847 3.74,48.847L3.74,48.847ZM23.045,7.832C23.045,3.274 23.817,3.274 24.564,3.274C25.99,3.274 28.109,5.028 28.109,9.857C28.109,14.345 26.351,17.096 26.338,17.116C26.029,17.582 25.998,18.182 26.264,18.676C26.527,19.17 27.043,19.478 27.602,19.478L39.188,19.478C41.132,19.478 42.965,20.329 44.217,21.813C45.471,23.3 46.002,25.257 45.671,27.179L43.403,40.344C42.858,43.508 40.132,45.807 36.919,45.807L33.679,45.807C19.9,45.809 12.997,41.499 12.349,41.072L12.349,21.202C14.036,20.307 23.045,15.182 23.045,7.832L23.045,7.832ZM3.234,17.959C3.234,17.679 3.461,17.453 3.74,17.453L8.804,17.453C9.084,17.453 9.31,17.679 9.31,17.959L9.31,45.303C9.31,45.578 9.079,45.809 8.804,45.809L3.74,45.809C3.461,45.809 3.234,45.582 3.234,45.303L3.234,17.959Z" fill="#FFFFFF"/>
</svg>
