<svg width="8" height="12" viewBox="0 0 8 12" fill="none" xmlns="http://www.w3.org/2000/svg" xmlns:xlink="http://www.w3.org/1999/xlink">
<path d="M0.751,11.729L0.751,0.687L2.731,0.687L2.731,2.062L2.814,2.062C3.05,1.646 3.397,1.278 3.856,0.958C4.314,0.639 4.96,0.479 5.793,0.479C6.029,0.479 6.245,0.493 6.439,0.521C6.633,0.535 6.731,0.542 6.731,0.542L6.731,2.437C6.731,2.437 6.62,2.43 6.397,2.417C6.189,2.389 5.967,2.375 5.731,2.375C4.772,2.375 4.029,2.653 3.501,3.208C2.988,3.75 2.731,4.639 2.731,5.875L2.731,11.729L0.751,11.729Z" fill="#48525F"/>
</svg>
