<svg width="4" height="18" viewBox="0 0 4 18" fill="none" xmlns="http://www.w3.org/2000/svg" xmlns:xlink="http://www.w3.org/1999/xlink">
<path d="M1.163,2.937C0.788,2.937 0.476,2.812 0.226,2.562C-0.01,2.312 -0.128,2.014 -0.128,1.666C-0.128,1.305 -0.01,1 0.226,0.75C0.476,0.5 0.788,0.375 1.163,0.375C1.524,0.375 1.83,0.5 2.08,0.75C2.33,1 2.455,1.305 2.455,1.666C2.455,2.014 2.33,2.312 2.08,2.562C1.83,2.812 1.524,2.937 1.163,2.937ZM0.184,16.083L0.184,5.041L2.163,5.041L2.163,16.083L0.184,16.083Z" fill="#48525F"/>
</svg>
