<svg width="12" height="14" viewBox="0 0 12 14" fill="none" xmlns="http://www.w3.org/2000/svg" xmlns:xlink="http://www.w3.org/1999/xlink">
<path d="M4.913,12.292C3.733,12.292 2.739,12.021 1.934,11.479C1.128,10.924 0.517,10.208 0.101,9.333C-0.316,8.458 -0.524,7.535 -0.524,6.562C-0.524,5.576 -0.316,4.653 0.101,3.792C0.517,2.917 1.128,2.208 1.934,1.667C2.739,1.111 3.733,0.833 4.913,0.833C6.094,0.833 7.087,1.111 7.892,1.667C8.698,2.208 9.309,2.917 9.726,3.792C10.142,4.653 10.351,5.576 10.351,6.562C10.351,7.535 10.142,8.458 9.726,9.333C9.309,10.208 8.698,10.924 7.892,11.479C7.087,12.021 6.094,12.292 4.913,12.292ZM4.913,10.562C5.663,10.562 6.288,10.375 6.788,10C7.302,9.611 7.684,9.111 7.934,8.5C8.198,7.889 8.33,7.243 8.33,6.562C8.33,5.868 8.198,5.222 7.934,4.625C7.684,4.014 7.302,3.521 6.788,3.146C6.288,2.757 5.663,2.562 4.913,2.562C4.177,2.562 3.552,2.757 3.038,3.146C2.524,3.521 2.135,4.014 1.871,4.625C1.621,5.222 1.496,5.868 1.496,6.562C1.496,7.243 1.621,7.889 1.871,8.5C2.135,9.111 2.524,9.611 3.038,10C3.552,10.375 4.177,10.562 4.913,10.562Z" fill="#48525F"/>
</svg>
