<svg width="12" height="12" viewBox="0 0 12 12" fill="none" xmlns="http://www.w3.org/2000/svg" xmlns:xlink="http://www.w3.org/1999/xlink">
<path d="M4.614,11.937C3.433,11.937 2.44,11.667 1.635,11.125C0.829,10.569 0.218,9.854 -0.199,8.979C-0.615,8.104 -0.824,7.18 -0.824,6.208C-0.824,5.222 -0.615,4.298 -0.199,3.437C0.218,2.562 0.829,1.854 1.635,1.312C2.44,0.757 3.433,0.479 4.614,0.479C5.794,0.479 6.787,0.757 7.593,1.312C8.398,1.854 9.01,2.562 9.426,3.437C9.843,4.298 10.051,5.222 10.051,6.208C10.051,7.18 9.843,8.104 9.426,8.979C9.01,9.854 8.398,10.569 7.593,11.125C6.787,11.667 5.794,11.937 4.614,11.937ZM4.614,10.208C5.364,10.208 5.989,10.021 6.489,9.646C7.003,9.257 7.385,8.757 7.635,8.146C7.898,7.535 8.03,6.889 8.03,6.208C8.03,5.514 7.898,4.868 7.635,4.271C7.385,3.66 7.003,3.167 6.489,2.792C5.989,2.403 5.364,2.208 4.614,2.208C3.878,2.208 3.253,2.403 2.739,2.792C2.225,3.167 1.836,3.66 1.572,4.271C1.322,4.868 1.197,5.514 1.197,6.208C1.197,6.889 1.322,7.535 1.572,8.146C1.836,8.757 2.225,9.257 2.739,9.646C3.253,10.021 3.878,10.208 4.614,10.208Z" fill="#48525F"/>
</svg>
