<svg width="10" height="12" viewBox="0 0 10 12" fill="none" xmlns="http://www.w3.org/2000/svg" xmlns:xlink="http://www.w3.org/1999/xlink">
<path d="M4.688,11.937C3.841,11.937 3.139,11.819 2.584,11.583C2.042,11.347 1.611,11.055 1.292,10.708C0.973,10.347 0.736,9.993 0.584,9.646C0.431,9.285 0.334,8.986 0.292,8.75C0.25,8.514 0.229,8.396 0.229,8.396L2.229,8.396C2.229,8.396 2.25,8.493 2.292,8.687C2.348,8.868 2.452,9.083 2.604,9.333C2.771,9.569 3.021,9.785 3.354,9.979C3.702,10.16 4.16,10.25 4.729,10.25C5.382,10.25 5.889,10.097 6.25,9.792C6.611,9.472 6.792,9.083 6.792,8.625C6.792,8.222 6.646,7.903 6.354,7.667C6.077,7.43 5.674,7.25 5.146,7.125L3.646,6.771C3.091,6.632 2.57,6.444 2.084,6.208C1.598,5.972 1.202,5.653 0.896,5.25C0.605,4.833 0.459,4.319 0.459,3.708C0.459,2.764 0.813,1.993 1.521,1.396C2.23,0.785 3.153,0.479 4.292,0.479C5.056,0.479 5.688,0.59 6.188,0.812C6.688,1.021 7.084,1.285 7.375,1.604C7.681,1.923 7.903,2.243 8.042,2.562C8.195,2.882 8.292,3.153 8.334,3.375C8.375,3.583 8.396,3.687 8.396,3.687L6.479,3.687C6.479,3.687 6.459,3.611 6.417,3.458C6.375,3.292 6.278,3.111 6.125,2.917C5.986,2.708 5.771,2.528 5.479,2.375C5.188,2.208 4.799,2.125 4.313,2.125C3.646,2.125 3.16,2.278 2.854,2.583C2.549,2.889 2.396,3.222 2.396,3.583C2.396,3.93 2.535,4.215 2.813,4.437C3.105,4.646 3.48,4.805 3.938,4.917L5.459,5.271C6.403,5.493 7.181,5.861 7.792,6.375C8.417,6.875 8.729,7.597 8.729,8.542C8.729,9.153 8.57,9.722 8.25,10.25C7.931,10.764 7.473,11.173 6.875,11.479C6.278,11.785 5.549,11.937 4.688,11.937Z" fill="#48525F"/>
</svg>
