<svg width="12" height="16" viewBox="0 0 12 16" fill="none" xmlns="http://www.w3.org/2000/svg" xmlns:xlink="http://www.w3.org/1999/xlink">
<path d="M4.655,15.937C3.822,15.937 3.093,15.778 2.468,15.458C1.843,15.125 1.322,14.687 0.905,14.146C0.489,13.59 0.176,12.972 -0.032,12.292C-0.241,11.611 -0.345,10.917 -0.345,10.208C-0.345,9.5 -0.241,8.805 -0.032,8.125C0.176,7.444 0.489,6.833 0.905,6.292C1.322,5.736 1.843,5.299 2.468,4.979C3.093,4.646 3.822,4.479 4.655,4.479C5.35,4.479 5.933,4.59 6.405,4.812C6.877,5.035 7.259,5.299 7.551,5.604C7.843,5.896 8.065,6.174 8.218,6.437L8.343,6.437L8.343,-0.104L10.322,-0.104L10.322,15.729L8.343,15.729L8.343,13.979L8.218,13.979C8.065,14.243 7.843,14.528 7.551,14.833C7.259,15.139 6.877,15.403 6.405,15.625C5.933,15.833 5.35,15.937 4.655,15.937ZM4.989,14.25C5.725,14.25 6.336,14.055 6.822,13.667C7.322,13.264 7.69,12.757 7.926,12.146C8.176,11.521 8.301,10.875 8.301,10.208C8.301,9.528 8.176,8.882 7.926,8.271C7.69,7.66 7.322,7.16 6.822,6.771C6.336,6.368 5.725,6.167 4.989,6.167C4.252,6.167 3.634,6.368 3.134,6.771C2.634,7.16 2.259,7.66 2.009,8.271C1.773,8.882 1.655,9.528 1.655,10.208C1.655,10.875 1.773,11.521 2.009,12.146C2.259,12.757 2.634,13.264 3.134,13.667C3.634,14.055 4.252,14.25 4.989,14.25Z" fill="#48525F"/>
</svg>
