<svg width="12" height="14" viewBox="0 0 12 14" fill="none" xmlns="http://www.w3.org/2000/svg" xmlns:xlink="http://www.w3.org/1999/xlink">
<path d="M5.46,12.292C4.28,12.292 3.287,12.021 2.481,11.479C1.676,10.924 1.065,10.208 0.648,9.333C0.231,8.458 0.023,7.535 0.023,6.562C0.023,5.576 0.231,4.653 0.648,3.792C1.065,2.917 1.676,2.208 2.481,1.667C3.287,1.111 4.28,0.833 5.46,0.833C6.641,0.833 7.634,1.111 8.44,1.667C9.245,2.208 9.856,2.917 10.273,3.792C10.69,4.653 10.898,5.576 10.898,6.562C10.898,7.535 10.69,8.458 10.273,9.333C9.856,10.208 9.245,10.924 8.44,11.479C7.634,12.021 6.641,12.292 5.46,12.292ZM5.46,10.562C6.21,10.562 6.835,10.375 7.335,10C7.849,9.611 8.231,9.111 8.481,8.5C8.745,7.889 8.877,7.243 8.877,6.562C8.877,5.868 8.745,5.222 8.481,4.625C8.231,4.014 7.849,3.521 7.335,3.146C6.835,2.757 6.21,2.562 5.46,2.562C4.724,2.562 4.099,2.757 3.585,3.146C3.072,3.521 2.683,4.014 2.419,4.625C2.169,5.222 2.044,5.868 2.044,6.562C2.044,7.243 2.169,7.889 2.419,8.5C2.683,9.111 3.072,9.611 3.585,10C4.099,10.375 4.724,10.562 5.46,10.562Z" fill="#48525F"/>
</svg>
