<svg width="10" height="16" viewBox="0 0 10 16" fill="none" xmlns="http://www.w3.org/2000/svg" xmlns:xlink="http://www.w3.org/1999/xlink">
<path d="M-0.263,15.729L-0.263,-0.104L1.716,-0.104L1.716,6.292L1.841,6.292C1.939,6.125 2.098,5.896 2.321,5.604C2.557,5.312 2.89,5.055 3.321,4.833C3.751,4.597 4.293,4.479 4.946,4.479C5.751,4.479 6.439,4.667 7.008,5.042C7.578,5.403 8.008,5.896 8.3,6.521C8.605,7.146 8.758,7.847 8.758,8.625L8.758,15.729L6.779,15.729L6.779,8.75C6.779,8.014 6.571,7.403 6.154,6.917C5.751,6.43 5.161,6.187 4.383,6.187C3.758,6.187 3.251,6.347 2.862,6.667C2.473,6.972 2.182,7.382 1.987,7.896C1.807,8.396 1.716,8.93 1.716,9.5L1.716,15.729L-0.263,15.729Z" fill="#48525F"/>
</svg>
