<svg width="10" height="18" viewBox="0 0 10 18" fill="none" xmlns="http://www.w3.org/2000/svg" xmlns:xlink="http://www.w3.org/1999/xlink">
<path d="M0.111,16.083L0.111,0.25L2.09,0.25L2.09,6.646L2.215,6.646C2.312,6.479 2.472,6.25 2.694,5.958C2.931,5.666 3.264,5.409 3.694,5.187C4.125,4.951 4.667,4.833 5.319,4.833C6.125,4.833 6.812,5.021 7.382,5.396C7.951,5.757 8.382,6.25 8.674,6.875C8.979,7.5 9.132,8.201 9.132,8.979L9.132,16.083L7.153,16.083L7.153,9.104C7.153,8.368 6.944,7.757 6.528,7.271C6.125,6.784 5.535,6.541 4.757,6.541C4.132,6.541 3.625,6.701 3.236,7.021C2.847,7.326 2.556,7.736 2.361,8.25C2.181,8.75 2.09,9.284 2.09,9.854L2.09,16.083L0.111,16.083Z" fill="#48525F"/>
</svg>
