<svg width="6" height="12" viewBox="0 0 6 12" fill="none" xmlns="http://www.w3.org/2000/svg" xmlns:xlink="http://www.w3.org/1999/xlink">
<path d="M-0.726,11.729L-0.726,0.687L1.254,0.687L1.254,2.062L1.337,2.062C1.573,1.646 1.92,1.278 2.379,0.958C2.837,0.639 3.483,0.479 4.316,0.479C4.552,0.479 4.767,0.493 4.962,0.521C5.156,0.535 5.254,0.542 5.254,0.542L5.254,2.437C5.254,2.437 5.142,2.43 4.92,2.417C4.712,2.389 4.49,2.375 4.254,2.375C3.295,2.375 2.552,2.653 2.024,3.208C1.511,3.75 1.254,4.639 1.254,5.875L1.254,11.729L-0.726,11.729Z" fill="#48525F"/>
</svg>
