<svg width="8" height="12" viewBox="0 0 8 12" fill="none" xmlns="http://www.w3.org/2000/svg" xmlns:xlink="http://www.w3.org/1999/xlink">
<path d="M0.659,11.062L0.659,0.021L3.034,0.021L3.034,1.479L3.118,1.479C3.326,1.048 3.652,0.667 4.097,0.333C4.555,-0.014 5.215,-0.188 6.076,-0.188C6.34,-0.188 6.562,-0.174 6.743,-0.146C6.937,-0.118 7.034,-0.104 7.034,-0.104L7.034,2.187C7.034,2.187 6.93,2.173 6.722,2.146C6.514,2.118 6.277,2.104 6.014,2.104C5.041,2.104 4.298,2.382 3.784,2.937C3.284,3.479 3.034,4.361 3.034,5.583L3.034,11.062L0.659,11.062Z" fill="#0A2533"/>
</svg>
