<svg width="38" height="40" viewBox="0 0 38 40" fill="none" xmlns="http://www.w3.org/2000/svg" xmlns:xlink="http://www.w3.org/1999/xlink">
<path d="M18.333,38.062C16.595,38.062 6.727,28.105 2.815,21.936C2.25,21.179 1.729,20.205 1.25,19.123L1.12,18.798C1.033,18.527 0.903,18.257 0.816,17.878C0.729,17.607 0.642,17.283 0.555,16.958C0.251,15.659 0.077,14.469 0.077,13.333C0.077,6.298 4.684,0.562 10.335,0.562C13.465,0.562 16.421,2.348 18.333,5.378C20.246,2.348 23.202,0.562 26.331,0.562C31.982,0.562 36.59,6.298 36.59,13.333C36.59,14.577 36.373,15.714 36.112,16.904C36.068,17.283 35.938,17.607 35.851,17.932L35.808,18.04C35.764,18.149 35.721,18.257 35.677,18.365C35.634,18.473 35.59,18.636 35.503,18.798L35.503,18.852L35.416,19.123C34.938,20.259 34.417,21.179 33.851,21.991C29.939,28.105 20.072,38.062 18.333,38.062ZM3.25,18.04C3.641,18.906 4.032,19.61 4.424,20.151L4.467,20.259C8.466,26.482 16.595,34.166 18.333,35.248C20.072,34.112 28.201,26.482 32.156,20.205L32.2,20.097C32.634,19.556 33.026,18.852 33.373,17.986L33.373,17.878L33.547,17.553C33.591,17.445 33.634,17.337 33.678,17.175C33.721,17.066 33.765,16.904 33.808,16.742C33.851,16.525 33.938,16.363 33.938,16.201L33.938,16.146C34.156,15.118 34.33,14.198 34.33,13.224C34.33,7.651 30.722,3.159 26.245,3.159C23.289,3.159 20.637,5.107 19.203,8.354L18.333,10.627L17.377,8.517C15.943,5.27 13.291,3.322 10.335,3.322C5.858,3.268 2.25,7.759 2.25,13.333C2.25,14.198 2.381,15.172 2.641,16.146L2.685,16.309C2.728,16.471 2.772,16.688 2.859,16.904L2.902,16.958C2.946,17.175 3.033,17.391 3.163,17.607L3.337,17.932L3.337,18.04L3.25,18.04Z" fill="#FFC6BA"/>
</svg>
