<svg width="10" height="14" viewBox="0 0 10 14" fill="none" xmlns="http://www.w3.org/2000/svg" xmlns:xlink="http://www.w3.org/1999/xlink">
<path d="M4.53,12.292C3.35,12.292 2.357,12.021 1.551,11.479C0.746,10.924 0.134,10.208 -0.282,9.333C-0.699,8.458 -0.907,7.535 -0.907,6.562C-0.907,5.576 -0.699,4.653 -0.282,3.792C0.134,2.917 0.746,2.208 1.551,1.667C2.357,1.111 3.35,0.833 4.53,0.833C5.711,0.833 6.704,1.111 7.509,1.667C8.315,2.208 8.926,2.917 9.343,3.792C9.759,4.653 9.968,5.576 9.968,6.562C9.968,7.535 9.759,8.458 9.343,9.333C8.926,10.208 8.315,10.924 7.509,11.479C6.704,12.021 5.711,12.292 4.53,12.292ZM4.53,10.562C5.28,10.562 5.905,10.375 6.405,10C6.919,9.611 7.301,9.111 7.551,8.5C7.815,7.889 7.947,7.243 7.947,6.562C7.947,5.868 7.815,5.222 7.551,4.625C7.301,4.014 6.919,3.521 6.405,3.146C5.905,2.757 5.28,2.562 4.53,2.562C3.794,2.562 3.169,2.757 2.655,3.146C2.141,3.521 1.753,4.014 1.489,4.625C1.239,5.222 1.114,5.868 1.114,6.562C1.114,7.243 1.239,7.889 1.489,8.5C1.753,9.111 2.141,9.611 2.655,10C3.169,10.375 3.794,10.562 4.53,10.562Z" fill="#48525F"/>
</svg>
