<svg width="6" height="18" viewBox="0 0 6 18" fill="none" xmlns="http://www.w3.org/2000/svg" xmlns:xlink="http://www.w3.org/1999/xlink">
<path d="M1.188,16.083L1.188,6.667L-0.625,6.667L-0.625,5.042L1.188,5.042L1.188,3.687C1.188,3.104 1.292,2.535 1.5,1.979C1.708,1.41 2.056,0.944 2.542,0.583C3.028,0.222 3.688,0.042 4.521,0.042C4.924,0.042 5.243,0.076 5.479,0.146C5.729,0.201 5.854,0.229 5.854,0.229L5.854,1.792C5.854,1.792 5.743,1.771 5.521,1.729C5.313,1.673 5.069,1.646 4.792,1.646C4.153,1.646 3.722,1.84 3.5,2.229C3.278,2.618 3.167,3.104 3.167,3.687L3.167,5.042L5.729,5.042L5.729,6.667L3.167,6.667L3.167,16.083L1.188,16.083Z" fill="#48525F"/>
</svg>
