<svg width="12" height="14" viewBox="0 0 12 14" fill="none" xmlns="http://www.w3.org/2000/svg" xmlns:xlink="http://www.w3.org/1999/xlink">
<path d="M5.62,12.292C4.717,12.292 3.932,12.132 3.265,11.812C2.613,11.479 2.071,11.035 1.64,10.479C1.224,9.924 0.911,9.312 0.703,8.646C0.495,7.965 0.39,7.271 0.39,6.562C0.39,5.868 0.488,5.18 0.682,4.5C0.89,3.819 1.203,3.201 1.62,2.646C2.05,2.09 2.585,1.653 3.224,1.333C3.877,1 4.647,0.833 5.536,0.833C6.481,0.833 7.314,1.049 8.036,1.479C8.758,1.91 9.328,2.549 9.745,3.396C10.161,4.243 10.37,5.305 10.37,6.583L10.37,7.167L2.39,7.167C2.432,7.792 2.578,8.368 2.828,8.896C3.092,9.41 3.46,9.826 3.932,10.146C4.404,10.451 4.967,10.604 5.62,10.604C6.189,10.604 6.647,10.514 6.995,10.333C7.356,10.139 7.64,9.917 7.849,9.667C8.057,9.417 8.196,9.201 8.265,9.021C8.349,8.826 8.39,8.729 8.39,8.729L10.245,8.729C10.245,8.729 10.21,8.854 10.14,9.104C10.071,9.34 9.946,9.632 9.765,9.979C9.585,10.326 9.321,10.68 8.974,11.042C8.627,11.389 8.182,11.687 7.64,11.937C7.099,12.174 6.425,12.292 5.62,12.292ZM2.411,5.625L8.432,5.625C8.404,4.903 8.252,4.319 7.974,3.875C7.696,3.417 7.342,3.076 6.911,2.854C6.481,2.632 6.022,2.521 5.536,2.521C4.661,2.521 3.946,2.805 3.39,3.375C2.835,3.93 2.508,4.68 2.411,5.625Z" fill="#48525F"/>
</svg>
