<svg width="6" height="18" viewBox="0 0 6 18" fill="none" xmlns="http://www.w3.org/2000/svg" xmlns:xlink="http://www.w3.org/1999/xlink">
<path d="M1.271,16.083L1.271,6.667L-0.542,6.667L-0.542,5.042L1.271,5.042L1.271,3.687C1.271,3.104 1.375,2.535 1.583,1.979C1.792,1.41 2.139,0.944 2.625,0.583C3.111,0.222 3.771,0.042 4.604,0.042C5.007,0.042 5.326,0.076 5.562,0.146C5.812,0.201 5.937,0.229 5.937,0.229L5.937,1.792C5.937,1.792 5.826,1.771 5.604,1.729C5.396,1.673 5.153,1.646 4.875,1.646C4.236,1.646 3.805,1.84 3.583,2.229C3.361,2.618 3.25,3.104 3.25,3.687L3.25,5.042L5.812,5.042L5.812,6.667L3.25,6.667L3.25,16.083L1.271,16.083Z" fill="#48525F"/>
</svg>
