<svg width="12" height="16" viewBox="0 0 12 16" fill="none" xmlns="http://www.w3.org/2000/svg" xmlns:xlink="http://www.w3.org/1999/xlink">
<path d="M1.372,15.792C1.052,15.792 0.782,15.778 0.559,15.75C0.337,15.722 0.226,15.708 0.226,15.708L0.226,14.021C0.226,14.021 0.337,14.028 0.559,14.042C0.796,14.069 1.046,14.083 1.309,14.083C2.129,14.083 2.796,13.91 3.309,13.562C3.837,13.229 4.282,12.673 4.643,11.896L0.372,0.687L2.434,0.687L5.622,9.312L8.83,0.687L10.914,0.687L6.643,11.75C6.101,13.139 5.4,14.16 4.539,14.812C3.691,15.465 2.636,15.792 1.372,15.792Z" fill="#48525F"/>
</svg>
