<svg width="16" height="12" viewBox="0 0 16 12" fill="none" xmlns="http://www.w3.org/2000/svg" xmlns:xlink="http://www.w3.org/1999/xlink">
<path d="M-0.372,11.729L-0.372,0.687L1.607,0.687L1.607,2.292L1.69,2.292C1.802,2.083 1.975,1.84 2.211,1.562C2.447,1.271 2.767,1.021 3.17,0.812C3.586,0.59 4.107,0.479 4.732,0.479C5.552,0.479 6.239,0.68 6.795,1.083C7.364,1.472 7.788,2 8.065,2.667L8.086,2.667C8.392,2.055 8.822,1.542 9.378,1.125C9.947,0.694 10.683,0.479 11.586,0.479C12.781,0.479 13.697,0.889 14.336,1.708C14.989,2.514 15.315,3.555 15.315,4.833L15.315,11.729L13.336,11.729L13.336,4.937C13.336,4.118 13.142,3.458 12.753,2.958C12.364,2.444 11.802,2.187 11.065,2.187C10.427,2.187 9.913,2.361 9.524,2.708C9.149,3.055 8.878,3.486 8.711,4C8.545,4.514 8.461,5.028 8.461,5.542L8.461,11.729L6.482,11.729L6.482,4.937C6.482,4.118 6.288,3.458 5.899,2.958C5.524,2.444 4.961,2.187 4.211,2.187C3.572,2.187 3.058,2.361 2.67,2.708C2.295,3.055 2.024,3.493 1.857,4.021C1.69,4.535 1.607,5.042 1.607,5.542L1.607,11.729L-0.372,11.729Z" fill="#48525F"/>
</svg>
