<svg width="22" height="22" viewBox="0 0 22 22" fill="none" xmlns="http://www.w3.org/2000/svg" xmlns:xlink="http://www.w3.org/1999/xlink">
<path d="M20.26,7.528C19.758,5.428 18.624,3.533 17.011,2.098C15.399,0.662 13.385,-0.245 11.241,-0.501C9.097,-0.757 6.926,-0.35 5.021,0.665C3.115,1.68 1.567,3.255 0.584,5.177C-0.399,7.099 -0.77,9.277 -0.478,11.416C-0.186,13.555 0.755,15.553 2.217,17.142C3.679,18.73 5.593,19.832 7.701,20.299C9.809,20.767 12.01,20.577 14.006,19.756C14.296,19.63 14.62,19.608 14.924,19.694L17.897,20.543C18.045,20.592 18.2,20.617 18.356,20.619C18.586,20.618 18.812,20.566 19.02,20.468C19.228,20.369 19.411,20.226 19.557,20.049C19.704,19.872 19.809,19.665 19.867,19.443C19.925,19.22 19.932,18.988 19.89,18.762L19.267,15.577C19.225,15.284 19.275,14.984 19.411,14.721C20.539,12.5 20.84,9.951 20.26,7.528ZM18.315,14.2C18.051,14.703 17.962,15.279 18.061,15.837L18.664,19.036C18.674,19.093 18.669,19.151 18.649,19.205C18.63,19.259 18.598,19.307 18.555,19.344C18.513,19.385 18.461,19.413 18.404,19.427C18.347,19.44 18.288,19.438 18.233,19.42L15.287,18.488C15.066,18.417 14.835,18.38 14.602,18.379C14.245,18.383 13.891,18.455 13.561,18.591C11.536,19.418 9.285,19.507 7.201,18.842C5.118,18.178 3.333,16.803 2.16,14.957C0.987,13.111 0.5,10.911 0.784,8.743C1.068,6.574 2.104,4.574 3.713,3.092C5.321,1.61 7.399,0.74 9.584,0.634C11.768,0.529 13.921,1.194 15.665,2.514C17.409,3.833 18.634,5.724 19.126,7.855C19.618,9.986 19.345,12.222 18.356,14.173L18.315,14.2Z" fill="#4D4D4F"/>
</svg>
