<svg width="12" height="16" viewBox="0 0 12 16" fill="none" xmlns="http://www.w3.org/2000/svg" xmlns:xlink="http://www.w3.org/1999/xlink">
<path d="M0.25,15.062L0.25,-0.354L6.583,-0.354C7.569,-0.354 8.41,-0.174 9.104,0.187C9.813,0.535 10.347,1 10.708,1.583C11.083,2.167 11.271,2.805 11.271,3.5C11.271,4.236 11.132,4.84 10.854,5.312C10.59,5.771 10.285,6.125 9.938,6.375C9.59,6.625 9.292,6.799 9.042,6.896L9.042,7.021C9.389,7.118 9.785,7.305 10.229,7.583C10.674,7.847 11.056,8.236 11.375,8.75C11.708,9.25 11.875,9.903 11.875,10.708C11.875,11.43 11.701,12.125 11.354,12.792C11.007,13.458 10.451,14.007 9.688,14.437C8.938,14.854 7.951,15.062 6.729,15.062L0.25,15.062ZM6.354,1.729L2.688,1.729L2.688,6.187L6.354,6.187C7.243,6.187 7.889,5.958 8.292,5.5C8.694,5.042 8.896,4.528 8.896,3.958C8.896,3.389 8.694,2.875 8.292,2.417C7.889,1.958 7.243,1.729 6.354,1.729ZM6.542,8.104L2.688,8.104L2.688,12.979L6.542,12.979C7.222,12.979 7.778,12.868 8.208,12.646C8.639,12.41 8.951,12.104 9.146,11.729C9.34,11.354 9.438,10.958 9.438,10.542C9.438,10.125 9.34,9.736 9.146,9.375C8.951,9 8.639,8.694 8.208,8.458C7.778,8.222 7.222,8.104 6.542,8.104Z" fill="#0A2533"/>
</svg>
