<svg width="8" height="12" viewBox="0 0 8 12" fill="none" xmlns="http://www.w3.org/2000/svg" xmlns:xlink="http://www.w3.org/1999/xlink">
<path d="M0.936,11.729L0.936,0.687L2.915,0.687L2.915,2.062L2.999,2.062C3.235,1.646 3.582,1.278 4.04,0.958C4.499,0.639 5.144,0.479 5.978,0.479C6.214,0.479 6.429,0.493 6.624,0.521C6.818,0.535 6.915,0.542 6.915,0.542L6.915,2.437C6.915,2.437 6.804,2.43 6.582,2.417C6.374,2.389 6.151,2.375 5.915,2.375C4.957,2.375 4.214,2.653 3.686,3.208C3.172,3.75 2.915,4.639 2.915,5.875L2.915,11.729L0.936,11.729Z" fill="#48525F"/>
</svg>
