<svg width="10" height="12" viewBox="0 0 10 12" fill="none" xmlns="http://www.w3.org/2000/svg" xmlns:xlink="http://www.w3.org/1999/xlink">
<path d="M4.53,11.937C3.35,11.937 2.357,11.667 1.551,11.125C0.746,10.569 0.134,9.854 -0.282,8.979C-0.699,8.104 -0.907,7.18 -0.907,6.208C-0.907,5.222 -0.699,4.298 -0.282,3.437C0.134,2.562 0.746,1.854 1.551,1.312C2.357,0.757 3.35,0.479 4.53,0.479C5.711,0.479 6.704,0.757 7.509,1.312C8.315,1.854 8.926,2.562 9.343,3.437C9.759,4.298 9.968,5.222 9.968,6.208C9.968,7.18 9.759,8.104 9.343,8.979C8.926,9.854 8.315,10.569 7.509,11.125C6.704,11.667 5.711,11.937 4.53,11.937ZM4.53,10.208C5.28,10.208 5.905,10.021 6.405,9.646C6.919,9.257 7.301,8.757 7.551,8.146C7.815,7.535 7.947,6.889 7.947,6.208C7.947,5.514 7.815,4.868 7.551,4.271C7.301,3.66 6.919,3.167 6.405,2.792C5.905,2.403 5.28,2.208 4.53,2.208C3.794,2.208 3.169,2.403 2.655,2.792C2.141,3.167 1.753,3.66 1.489,4.271C1.239,4.868 1.114,5.514 1.114,6.208C1.114,6.889 1.239,7.535 1.489,8.146C1.753,8.757 2.141,9.257 2.655,9.646C3.169,10.021 3.794,10.208 4.53,10.208Z" fill="#48525F"/>
</svg>
