<svg width="10" height="8" viewBox="0 0 10 8" fill="none" xmlns="http://www.w3.org/2000/svg" xmlns:xlink="http://www.w3.org/1999/xlink">
<path d="M9.195,5.779C9.738,4.935 9.955,3.954 9.811,2.988C9.667,2.022 9.172,1.126 8.401,0.438C7.63,-0.25 6.627,-0.692 5.547,-0.818C4.467,-0.944 3.371,-0.748 2.429,-0.26C1.486,0.228 0.75,0.98 0.334,1.881C-0.082,2.781 -0.155,3.779 0.128,4.72C0.41,5.661 1.031,6.492 1.895,7.085C2.76,7.678 3.818,7.999 4.907,7.999C5.787,7.998 6.651,7.786 7.408,7.384L9.573,7.827L9.195,5.779Z" fill="#FFFFFF"/>
</svg>
