<svg width="12" height="12" viewBox="0 0 12 12" fill="none" xmlns="http://www.w3.org/2000/svg" xmlns:xlink="http://www.w3.org/1999/xlink">
<path d="M5.534,11.937C4.631,11.937 3.846,11.778 3.18,11.458C2.527,11.125 1.985,10.68 1.555,10.125C1.138,9.569 0.826,8.958 0.617,8.292C0.409,7.611 0.305,6.917 0.305,6.208C0.305,5.514 0.402,4.826 0.596,4.146C0.805,3.465 1.117,2.847 1.534,2.292C1.964,1.736 2.499,1.298 3.138,0.979C3.791,0.646 4.562,0.479 5.451,0.479C6.395,0.479 7.228,0.694 7.951,1.125C8.673,1.555 9.242,2.194 9.659,3.042C10.076,3.889 10.284,4.951 10.284,6.229L10.284,6.812L2.305,6.812C2.346,7.437 2.492,8.014 2.742,8.542C3.006,9.055 3.374,9.472 3.846,9.792C4.319,10.097 4.881,10.25 5.534,10.25C6.103,10.25 6.562,10.16 6.909,9.979C7.27,9.785 7.555,9.562 7.763,9.312C7.971,9.062 8.11,8.847 8.18,8.667C8.263,8.472 8.305,8.375 8.305,8.375L10.159,8.375C10.159,8.375 10.124,8.5 10.055,8.75C9.985,8.986 9.86,9.278 9.68,9.625C9.499,9.972 9.235,10.326 8.888,10.687C8.541,11.035 8.096,11.333 7.555,11.583C7.013,11.819 6.339,11.937 5.534,11.937ZM2.326,5.271L8.346,5.271C8.319,4.548 8.166,3.965 7.888,3.521C7.61,3.062 7.256,2.722 6.826,2.5C6.395,2.278 5.937,2.167 5.451,2.167C4.576,2.167 3.86,2.451 3.305,3.021C2.749,3.576 2.423,4.326 2.326,5.271Z" fill="#48525F"/>
</svg>
