<svg width="10" height="16" viewBox="0 0 10 16" fill="none" xmlns="http://www.w3.org/2000/svg" xmlns:xlink="http://www.w3.org/1999/xlink">
<path d="M4.287,15.937C3.454,15.937 2.725,15.778 2.1,15.458C1.475,15.125 0.954,14.687 0.537,14.146C0.12,13.59 -0.192,12.972 -0.4,12.292C-0.609,11.611 -0.713,10.917 -0.713,10.208C-0.713,9.5 -0.609,8.805 -0.4,8.125C-0.192,7.444 0.12,6.833 0.537,6.292C0.954,5.736 1.475,5.299 2.1,4.979C2.725,4.646 3.454,4.479 4.287,4.479C4.982,4.479 5.565,4.59 6.037,4.812C6.509,5.035 6.891,5.299 7.183,5.604C7.475,5.896 7.697,6.174 7.85,6.437L7.975,6.437L7.975,-0.104L9.954,-0.104L9.954,15.729L7.975,15.729L7.975,13.979L7.85,13.979C7.697,14.243 7.475,14.528 7.183,14.833C6.891,15.139 6.509,15.403 6.037,15.625C5.565,15.833 4.982,15.937 4.287,15.937ZM4.62,14.25C5.357,14.25 5.968,14.055 6.454,13.667C6.954,13.264 7.322,12.757 7.558,12.146C7.808,11.521 7.933,10.875 7.933,10.208C7.933,9.528 7.808,8.882 7.558,8.271C7.322,7.66 6.954,7.16 6.454,6.771C5.968,6.368 5.357,6.167 4.62,6.167C3.884,6.167 3.266,6.368 2.766,6.771C2.266,7.16 1.891,7.66 1.641,8.271C1.405,8.882 1.287,9.528 1.287,10.208C1.287,10.875 1.405,11.521 1.641,12.146C1.891,12.757 2.266,13.264 2.766,13.667C3.266,14.055 3.884,14.25 4.62,14.25Z" fill="#48525F"/>
</svg>
