<svg width="12" height="12" viewBox="0 0 12 12" fill="none" xmlns="http://www.w3.org/2000/svg" xmlns:xlink="http://www.w3.org/1999/xlink">
<path d="M5.051,11.937C3.871,11.937 2.878,11.667 2.072,11.125C1.267,10.569 0.655,9.854 0.239,8.979C-0.178,8.104 -0.386,7.18 -0.386,6.208C-0.386,5.222 -0.178,4.298 0.239,3.437C0.655,2.562 1.267,1.854 2.072,1.312C2.878,0.757 3.871,0.479 5.051,0.479C6.232,0.479 7.225,0.757 8.03,1.312C8.836,1.854 9.447,2.562 9.864,3.437C10.28,4.298 10.489,5.222 10.489,6.208C10.489,7.18 10.28,8.104 9.864,8.979C9.447,9.854 8.836,10.569 8.03,11.125C7.225,11.667 6.232,11.937 5.051,11.937ZM5.051,10.208C5.801,10.208 6.426,10.021 6.926,9.646C7.44,9.257 7.822,8.757 8.072,8.146C8.336,7.535 8.468,6.889 8.468,6.208C8.468,5.514 8.336,4.868 8.072,4.271C7.822,3.66 7.44,3.167 6.926,2.792C6.426,2.403 5.801,2.208 5.051,2.208C4.315,2.208 3.69,2.403 3.176,2.792C2.662,3.167 2.273,3.66 2.01,4.271C1.76,4.868 1.635,5.514 1.635,6.208C1.635,6.889 1.76,7.535 2.01,8.146C2.273,8.757 2.662,9.257 3.176,9.646C3.69,10.021 4.315,10.208 5.051,10.208Z" fill="#48525F"/>
</svg>
