<svg width="6" height="16" viewBox="0 0 6 16" fill="none" xmlns="http://www.w3.org/2000/svg" xmlns:xlink="http://www.w3.org/1999/xlink">
<path d="M1.271,15.729L1.271,6.312L-0.542,6.312L-0.542,4.687L1.271,4.687L1.271,3.333C1.271,2.75 1.375,2.18 1.583,1.625C1.792,1.055 2.139,0.59 2.625,0.229C3.111,-0.132 3.771,-0.313 4.604,-0.313C5.007,-0.313 5.326,-0.278 5.562,-0.208C5.812,-0.153 5.937,-0.125 5.937,-0.125L5.937,1.437C5.937,1.437 5.826,1.417 5.604,1.375C5.396,1.319 5.153,1.292 4.875,1.292C4.236,1.292 3.805,1.486 3.583,1.875C3.361,2.264 3.25,2.75 3.25,3.333L3.25,4.687L5.812,4.687L5.812,6.312L3.25,6.312L3.25,15.729L1.271,15.729Z" fill="#48525F"/>
</svg>
