<svg width="70" height="176" viewBox="0 0 70 176" fill="none" xmlns="http://www.w3.org/2000/svg" xmlns:xlink="http://www.w3.org/1999/xlink">
<path d="M35.652,0.904C34.762,2.911 34.207,6.728 34.207,10.879L34.207,75.518L3.677,75.518C2.136,75.518 0.885,80.627 0.885,86.923C0.885,93.218 2.136,98.327 3.677,98.327L34.207,98.327L34.207,162.966C34.207,167.133 34.762,170.949 35.652,172.941C36.542,174.964 37.629,174.827 38.489,172.622L68.039,96.578C68.851,94.48 69.343,90.846 69.343,86.923C69.343,83 68.851,79.365 68.039,77.267L38.489,1.223C38.035,0.068 37.517,-0.525 37,-0.525C36.538,-0.525 36.072,-0.039 35.652,0.904Z" fill="#FFFFFF"/>
</svg>
