<svg width="10" height="14" viewBox="0 0 10 14" fill="none" xmlns="http://www.w3.org/2000/svg" xmlns:xlink="http://www.w3.org/1999/xlink">
<path d="M4.688,12.292C3.841,12.292 3.139,12.174 2.584,11.937C2.042,11.701 1.611,11.41 1.292,11.062C0.973,10.701 0.736,10.347 0.584,10C0.431,9.639 0.334,9.34 0.292,9.104C0.25,8.868 0.229,8.75 0.229,8.75L2.229,8.75C2.229,8.75 2.25,8.847 2.292,9.042C2.348,9.222 2.452,9.437 2.604,9.687C2.771,9.924 3.021,10.139 3.354,10.333C3.702,10.514 4.16,10.604 4.729,10.604C5.382,10.604 5.889,10.451 6.25,10.146C6.611,9.826 6.792,9.437 6.792,8.979C6.792,8.576 6.646,8.257 6.354,8.021C6.077,7.785 5.674,7.604 5.146,7.479L3.646,7.125C3.091,6.986 2.57,6.799 2.084,6.562C1.598,6.326 1.202,6.007 0.896,5.604C0.605,5.187 0.459,4.674 0.459,4.062C0.459,3.118 0.813,2.347 1.521,1.75C2.23,1.139 3.153,0.833 4.292,0.833C5.056,0.833 5.688,0.944 6.188,1.167C6.688,1.375 7.084,1.639 7.375,1.958C7.681,2.278 7.903,2.597 8.042,2.917C8.195,3.236 8.292,3.507 8.334,3.729C8.375,3.937 8.396,4.042 8.396,4.042L6.479,4.042C6.479,4.042 6.459,3.965 6.417,3.812C6.375,3.646 6.278,3.465 6.125,3.271C5.986,3.062 5.771,2.882 5.479,2.729C5.188,2.562 4.799,2.479 4.313,2.479C3.646,2.479 3.16,2.632 2.854,2.937C2.549,3.243 2.396,3.576 2.396,3.937C2.396,4.285 2.535,4.569 2.813,4.792C3.105,5 3.48,5.16 3.938,5.271L5.459,5.625C6.403,5.847 7.181,6.215 7.792,6.729C8.417,7.229 8.729,7.951 8.729,8.896C8.729,9.507 8.57,10.076 8.25,10.604C7.931,11.118 7.473,11.528 6.875,11.833C6.278,12.139 5.549,12.292 4.688,12.292Z" fill="#48525F"/>
</svg>
