<svg width="10" height="12" viewBox="0 0 10 12" fill="none" xmlns="http://www.w3.org/2000/svg" xmlns:xlink="http://www.w3.org/1999/xlink">
<path d="M5.21,11.937C4.363,11.937 3.661,11.819 3.106,11.583C2.564,11.347 2.133,11.055 1.814,10.708C1.495,10.347 1.258,9.993 1.106,9.646C0.953,9.285 0.856,8.986 0.814,8.75C0.772,8.514 0.751,8.396 0.751,8.396L2.751,8.396C2.751,8.396 2.772,8.493 2.814,8.687C2.87,8.868 2.974,9.083 3.126,9.333C3.293,9.569 3.543,9.785 3.876,9.979C4.224,10.16 4.682,10.25 5.251,10.25C5.904,10.25 6.411,10.097 6.772,9.792C7.133,9.472 7.314,9.083 7.314,8.625C7.314,8.222 7.168,7.903 6.876,7.667C6.599,7.43 6.196,7.25 5.668,7.125L4.168,6.771C3.613,6.632 3.092,6.444 2.606,6.208C2.12,5.972 1.724,5.653 1.418,5.25C1.126,4.833 0.981,4.319 0.981,3.708C0.981,2.764 1.335,1.993 2.043,1.396C2.751,0.785 3.675,0.479 4.814,0.479C5.578,0.479 6.21,0.59 6.71,0.812C7.21,1.021 7.606,1.285 7.897,1.604C8.203,1.923 8.425,2.243 8.564,2.562C8.717,2.882 8.814,3.153 8.856,3.375C8.897,3.583 8.918,3.687 8.918,3.687L7.001,3.687C7.001,3.687 6.981,3.611 6.939,3.458C6.897,3.292 6.8,3.111 6.647,2.917C6.508,2.708 6.293,2.528 6.001,2.375C5.71,2.208 5.321,2.125 4.835,2.125C4.168,2.125 3.682,2.278 3.376,2.583C3.071,2.889 2.918,3.222 2.918,3.583C2.918,3.93 3.057,4.215 3.335,4.437C3.626,4.646 4.001,4.805 4.46,4.917L5.981,5.271C6.925,5.493 7.703,5.861 8.314,6.375C8.939,6.875 9.251,7.597 9.251,8.542C9.251,9.153 9.092,9.722 8.772,10.25C8.453,10.764 7.995,11.173 7.397,11.479C6.8,11.785 6.071,11.937 5.21,11.937Z" fill="#48525F"/>
</svg>
