<svg width="10" height="12" viewBox="0 0 10 12" fill="none" xmlns="http://www.w3.org/2000/svg" xmlns:xlink="http://www.w3.org/1999/xlink">
<path d="M5.195,11.937C4.293,11.937 3.508,11.778 2.841,11.458C2.189,11.125 1.647,10.68 1.216,10.125C0.8,9.569 0.487,8.958 0.279,8.292C0.07,7.611 -0.034,6.917 -0.034,6.208C-0.034,5.514 0.064,4.826 0.258,4.146C0.466,3.465 0.779,2.847 1.195,2.292C1.626,1.736 2.161,1.298 2.8,0.979C3.452,0.646 4.223,0.479 5.112,0.479C6.057,0.479 6.89,0.694 7.612,1.125C8.334,1.555 8.904,2.194 9.32,3.042C9.737,3.889 9.945,4.951 9.945,6.229L9.945,6.812L1.966,6.812C2.008,7.437 2.154,8.014 2.404,8.542C2.668,9.055 3.036,9.472 3.508,9.792C3.98,10.097 4.543,10.25 5.195,10.25C5.765,10.25 6.223,10.16 6.57,9.979C6.932,9.785 7.216,9.562 7.425,9.312C7.633,9.062 7.772,8.847 7.841,8.667C7.925,8.472 7.966,8.375 7.966,8.375L9.82,8.375C9.82,8.375 9.786,8.5 9.716,8.75C9.647,8.986 9.522,9.278 9.341,9.625C9.161,9.972 8.897,10.326 8.55,10.687C8.202,11.035 7.758,11.333 7.216,11.583C6.675,11.819 6.001,11.937 5.195,11.937ZM1.987,5.271L8.008,5.271C7.98,4.548 7.827,3.965 7.55,3.521C7.272,3.062 6.918,2.722 6.487,2.5C6.057,2.278 5.598,2.167 5.112,2.167C4.237,2.167 3.522,2.451 2.966,3.021C2.411,3.576 2.084,4.326 1.987,5.271Z" fill="#48525F"/>
</svg>
