<svg width="10" height="14" viewBox="0 0 10 14" fill="none" xmlns="http://www.w3.org/2000/svg" xmlns:xlink="http://www.w3.org/1999/xlink">
<path d="M0.522,12.083L0.522,1.042L2.501,1.042L2.501,2.646L2.626,2.646C2.723,2.479 2.883,2.25 3.105,1.958C3.341,1.667 3.675,1.41 4.105,1.187C4.536,0.951 5.078,0.833 5.73,0.833C6.536,0.833 7.223,1.021 7.793,1.396C8.362,1.757 8.793,2.25 9.084,2.875C9.39,3.5 9.543,4.201 9.543,4.979L9.543,12.083L7.564,12.083L7.564,5.104C7.564,4.368 7.355,3.757 6.939,3.271C6.536,2.785 5.946,2.542 5.168,2.542C4.543,2.542 4.036,2.701 3.647,3.021C3.258,3.326 2.966,3.736 2.772,4.25C2.591,4.75 2.501,5.285 2.501,5.854L2.501,12.083L0.522,12.083Z" fill="#48525F"/>
</svg>
