<svg width="10" height="12" viewBox="0 0 10 12" fill="none" xmlns="http://www.w3.org/2000/svg" xmlns:xlink="http://www.w3.org/1999/xlink">
<path d="M4.528,11.937C3.68,11.937 2.979,11.819 2.423,11.583C1.882,11.347 1.451,11.055 1.132,10.708C0.812,10.347 0.576,9.993 0.423,9.646C0.271,9.285 0.174,8.986 0.132,8.75C0.09,8.514 0.069,8.396 0.069,8.396L2.069,8.396C2.069,8.396 2.09,8.493 2.132,8.687C2.187,8.868 2.292,9.083 2.444,9.333C2.611,9.569 2.861,9.785 3.194,9.979C3.542,10.16 4,10.25 4.569,10.25C5.222,10.25 5.729,10.097 6.09,9.792C6.451,9.472 6.632,9.083 6.632,8.625C6.632,8.222 6.486,7.903 6.194,7.667C5.917,7.43 5.514,7.25 4.986,7.125L3.486,6.771C2.93,6.632 2.41,6.444 1.923,6.208C1.437,5.972 1.042,5.653 0.736,5.25C0.444,4.833 0.298,4.319 0.298,3.708C0.298,2.764 0.653,1.993 1.361,1.396C2.069,0.785 2.993,0.479 4.132,0.479C4.896,0.479 5.528,0.59 6.028,0.812C6.528,1.021 6.923,1.285 7.215,1.604C7.521,1.923 7.743,2.243 7.882,2.562C8.035,2.882 8.132,3.153 8.173,3.375C8.215,3.583 8.236,3.687 8.236,3.687L6.319,3.687C6.319,3.687 6.298,3.611 6.257,3.458C6.215,3.292 6.118,3.111 5.965,2.917C5.826,2.708 5.611,2.528 5.319,2.375C5.028,2.208 4.639,2.125 4.153,2.125C3.486,2.125 3,2.278 2.694,2.583C2.389,2.889 2.236,3.222 2.236,3.583C2.236,3.93 2.375,4.215 2.653,4.437C2.944,4.646 3.319,4.805 3.778,4.917L5.298,5.271C6.243,5.493 7.021,5.861 7.632,6.375C8.257,6.875 8.569,7.597 8.569,8.542C8.569,9.153 8.41,9.722 8.09,10.25C7.771,10.764 7.312,11.173 6.715,11.479C6.118,11.785 5.389,11.937 4.528,11.937Z" fill="#48525F"/>
</svg>
