<svg width="12" height="12" viewBox="0 0 12 12" fill="none" xmlns="http://www.w3.org/2000/svg" xmlns:xlink="http://www.w3.org/1999/xlink">
<path d="M7.666,5C7.666,5.921 6.92,6.667 6,6.667L6,10.667C9.129,10.667 11.666,8.13 11.666,5L7.666,5ZM6,6.667C5.079,6.667 4.333,5.921 4.333,5L0.333,5C0.333,8.13 2.87,10.667 6,10.667L6,6.667ZM4.333,5C4.333,4.08 5.079,3.333 6,3.333L6,-0.667C2.87,-0.667 0.333,1.871 0.333,5L4.333,5ZM6,3.333C6.92,3.333 7.666,4.08 7.666,5L11.666,5C11.666,1.871 9.129,-0.667 6,-0.667L6,3.333Z" fill="#C00033"/>
</svg>
