<svg width="60" height="60" viewBox="0 0 60 60" fill="none" xmlns="http://www.w3.org/2000/svg" xmlns:xlink="http://www.w3.org/1999/xlink">
<path d="M39.589,32.846C39.856,31.944 40,30.989 40,30C40,24.477 35.523,20 30,20C29.011,20 28.056,20.144 27.154,20.411L28.828,22.085C29.211,22.029 29.602,22 30,22C34.418,22 38,25.582 38,30C38,30.398 37.971,30.789 37.915,31.172L39.589,32.846ZM23.539,25.281C22.571,26.604 22,28.235 22,30C22,34.418 25.582,38 30,38C31.765,38 33.396,37.429 34.719,36.461L36.146,37.889C34.451,39.212 32.317,40 30,40C24.477,40 20,35.523 20,30C20,27.683 20.788,25.549 22.111,23.854L23.539,25.281Z" clip-rule="evenodd" fill-rule="evenodd" fill="#000000"/>
<path d="M40.867,42.61L39.409,41.152C36.525,42.845 33.332,44 30,44C25.568,44 21.383,41.956 17.843,39.323C14.313,36.697 11.518,33.555 9.887,31.518C9.044,30.465 8.953,30.279 8.953,30C8.953,29.721 9.044,29.535 9.887,28.482C11.518,26.445 14.313,23.303 17.843,20.677C18.052,20.522 18.263,20.369 18.475,20.218L17.042,18.784C16.91,18.88 16.779,18.976 16.65,19.072C12.931,21.838 10.014,25.124 8.326,27.232L8.207,27.38C7.555,28.19 6.953,28.939 6.953,30C6.953,31.061 7.555,31.81 8.207,32.62L8.326,32.768C10.014,34.876 12.931,38.162 16.65,40.928C20.359,43.687 24.962,46 30,46C33.967,46 37.664,44.566 40.867,42.61ZM22.417,15.674C24.776,14.651 27.327,14 30,14C35.039,14 39.641,16.313 43.35,19.072C47.07,21.838 49.986,25.124 51.674,27.232L51.793,27.38C52.445,28.19 53.047,28.939 53.047,30C53.047,31.061 52.445,31.81 51.793,32.62L51.674,32.768C50.367,34.4 48.323,36.739 45.739,38.997L44.322,37.579C46.832,35.401 48.832,33.118 50.113,31.518C50.956,30.465 51.047,30.279 51.047,30C51.047,29.721 50.956,29.535 50.113,28.482C48.482,26.445 45.687,23.303 42.157,20.677C38.617,18.044 34.432,16 30,16C27.914,16 25.884,16.453 23.949,17.206L22.417,15.674Z" clip-rule="evenodd" fill-rule="evenodd" fill="#000000"/>
<path d="M11.793,5.707L51.793,45.707L53.207,44.293L13.207,4.293L11.793,5.707Z" fill="#000000"/>
</svg>
