<svg width="70" height="82" viewBox="0 0 70 82" fill="none" xmlns="http://www.w3.org/2000/svg" xmlns:xlink="http://www.w3.org/1999/xlink">
<path d="M32.181,50.802C31.907,50.891 31.757,51.185 31.846,51.458C31.935,51.732 32.229,51.882 32.502,51.793L32.181,50.802ZM68.197,18.491L67.676,18.491L67.676,18.505L68.197,18.491ZM52.83,0.432L52.812,0.953L52.83,0.953L52.83,0.432ZM24.152,42.447C24.084,42.726 24.256,43.008 24.536,43.076C24.815,43.143 25.097,42.971 25.165,42.692L24.152,42.447ZM32.502,51.793C47.408,46.961 56.527,41.128 61.891,35.245C67.264,29.351 68.849,23.426 68.717,18.477L67.676,18.505C67.8,23.187 66.312,28.85 61.121,34.543C55.92,40.248 46.983,46.004 32.181,50.802L32.502,51.793ZM68.717,18.491C68.717,13.588 67.061,8.872 64.093,5.384L63.299,6.059C66.094,9.344 67.676,13.815 67.676,18.491L68.717,18.491ZM64.093,5.384C61.122,1.893 57.073,-0.089 52.83,-0.089L52.83,0.953C56.738,0.953 60.506,2.776 63.299,6.059L64.093,5.384ZM52.849,-0.089C48.429,-0.246 43.35,1.658 38.336,7.971C33.338,14.264 28.386,24.958 24.152,42.447L25.165,42.692C29.383,25.267 34.29,14.741 39.152,8.619C43.999,2.516 48.78,0.809 52.812,0.952L52.849,-0.089Z" fill="#000000"/>
<path d="M29.012,46.482L28.526,46.296C28.448,46.498 28.504,46.728 28.667,46.872C28.829,47.016 29.064,47.044 29.256,46.942L29.012,46.482ZM56.16,3.743L56.35,4.228L56.364,4.222L56.16,3.743ZM63.587,5.85L63.178,6.173C63.189,6.186 63.2,6.199 63.212,6.211L63.587,5.85ZM65.379,14.578L64.885,14.413L64.878,14.436L65.379,14.578ZM29.499,46.669C34.742,32.991 39.593,23.097 44.078,16.256C48.571,9.403 52.658,5.674 56.35,4.228L55.97,3.258C51.978,4.822 47.742,8.768 43.207,15.685C38.664,22.613 33.783,32.584 28.526,46.296L29.499,46.669ZM56.364,4.222C57.533,3.723 58.796,3.641 60.001,3.982L60.285,2.98C58.848,2.573 57.34,2.672 55.955,3.264L56.364,4.222ZM60.001,3.982C61.207,4.325 62.315,5.081 63.178,6.173L63.995,5.527C63.009,4.279 61.721,3.387 60.285,2.98L60.001,3.982ZM63.212,6.211C64.163,7.197 64.841,8.513 65.144,9.986L66.164,9.777C65.825,8.127 65.06,6.628 63.961,5.488L63.212,6.211ZM65.144,9.986C65.446,11.459 65.356,13.006 64.885,14.413L65.873,14.743C66.402,13.16 66.503,11.427 66.164,9.777L65.144,9.986ZM64.878,14.436C63.634,18.823 60.443,23.635 54.625,28.903C48.81,34.168 40.399,39.863 28.768,46.022L29.256,46.942C40.931,40.761 49.423,35.019 55.325,29.675C61.224,24.333 64.564,19.362 65.88,14.72L64.878,14.436Z" fill="#000000"/>
</svg>
