<svg width="70" height="82" viewBox="0 0 70 82" fill="none" xmlns="http://www.w3.org/2000/svg" xmlns:xlink="http://www.w3.org/1999/xlink">
<path d="M32.181,50.553C31.907,50.641 31.757,50.935 31.846,51.209C31.935,51.482 32.229,51.632 32.502,51.544L32.181,50.553ZM68.197,18.241L67.676,18.241L67.676,18.255L68.197,18.241ZM52.83,0.182L52.812,0.703L52.83,0.703L52.83,0.182ZM24.152,42.197C24.084,42.477 24.256,42.758 24.536,42.826C24.815,42.893 25.097,42.722 25.165,42.442L24.152,42.197ZM32.502,51.544C47.408,46.711 56.527,40.878 61.891,34.995C67.264,29.101 68.849,23.176 68.717,18.227L67.676,18.255C67.8,22.937 66.312,28.6 61.121,34.294C55.92,39.998 46.983,45.754 32.181,50.553L32.502,51.544ZM68.717,18.241C68.717,13.338 67.061,8.622 64.093,5.134L63.299,5.809C66.094,9.094 67.676,13.565 67.676,18.241L68.717,18.241ZM64.093,5.134C61.122,1.643 57.073,-0.339 52.83,-0.339L52.83,0.703C56.738,0.703 60.506,2.527 63.299,5.809L64.093,5.134ZM52.849,-0.338C48.429,-0.496 43.35,1.408 38.336,7.721C33.339,14.014 28.386,24.708 24.152,42.197L25.165,42.442C29.383,25.017 34.29,14.492 39.152,8.369C43.999,2.267 48.78,0.559 52.812,0.703L52.849,-0.338Z" fill="#000000"/>
<path d="M29.012,46.232L28.526,46.046C28.448,46.249 28.504,46.478 28.667,46.622C28.829,46.766 29.064,46.794 29.256,46.693L29.012,46.232ZM56.16,3.493L56.35,3.978L56.364,3.972L56.16,3.493ZM63.587,5.6L63.178,5.923C63.189,5.936 63.2,5.949 63.212,5.961L63.587,5.6ZM65.379,14.328L64.885,14.163L64.878,14.186L65.379,14.328ZM29.499,46.419C34.742,32.741 39.593,22.847 44.078,16.006C48.571,9.153 52.658,5.424 56.35,3.978L55.97,3.008C51.978,4.572 47.742,8.518 43.207,15.435C38.664,22.363 33.783,32.334 28.526,46.046L29.499,46.419ZM56.364,3.972C57.533,3.473 58.796,3.391 60.001,3.733L60.285,2.73C58.848,2.323 57.34,2.422 55.955,3.014L56.364,3.972ZM60.001,3.733C61.207,4.075 62.315,4.831 63.178,5.923L63.995,5.277C63.009,4.029 61.721,3.138 60.285,2.73L60.001,3.733ZM63.212,5.961C64.163,6.947 64.841,8.264 65.144,9.737L66.164,9.527C65.825,7.877 65.06,6.378 63.961,5.238L63.212,5.961ZM65.144,9.737C65.446,11.209 65.356,12.756 64.885,14.163L65.873,14.493C66.402,12.91 66.503,11.177 66.164,9.527L65.144,9.737ZM64.878,14.186C63.634,18.573 60.443,23.385 54.625,28.653C48.81,33.918 40.399,39.614 28.769,45.772L29.256,46.693C40.931,40.511 49.423,34.769 55.325,29.425C61.224,24.083 64.564,19.113 65.88,14.47L64.878,14.186Z" fill="#000000"/>
</svg>
