<svg width="70" height="82" viewBox="0 0 70 82" fill="none" xmlns="http://www.w3.org/2000/svg" xmlns:xlink="http://www.w3.org/1999/xlink">
<path d="M32.181,51.5C31.907,51.588 31.757,51.882 31.846,52.156C31.935,52.429 32.229,52.579 32.502,52.491L32.181,51.5ZM68.197,19.174L67.676,19.174L67.676,19.188L68.197,19.174ZM52.83,1.108L52.812,1.629L52.83,1.629L52.83,1.108ZM24.152,43.14C24.085,43.42 24.256,43.701 24.536,43.769C24.816,43.837 25.097,43.665 25.165,43.385L24.152,43.14ZM32.502,52.491C47.408,47.656 56.527,41.821 61.891,35.935C67.264,30.039 68.849,24.112 68.717,19.16L67.676,19.188C67.8,23.872 66.312,29.538 61.121,35.234C55.92,40.941 46.983,46.699 32.181,51.5L32.502,52.491ZM68.717,19.174C68.717,14.269 67.061,9.552 64.093,6.062L63.299,6.737C66.094,10.023 67.676,14.496 67.676,19.174L68.717,19.174ZM64.093,6.062C61.122,2.569 57.073,0.587 52.83,0.587L52.83,1.629C56.738,1.629 60.506,3.453 63.299,6.737L64.093,6.062ZM52.849,0.587C48.429,0.43 43.35,2.335 38.336,8.65C33.339,14.946 28.386,25.644 24.152,43.14L25.165,43.385C29.383,25.953 34.29,15.423 39.152,9.298C43.999,3.193 48.78,1.485 52.812,1.628L52.849,0.587Z" fill="#000000"/>
<path d="M29.012,47.177L28.526,46.991C28.448,47.194 28.504,47.423 28.667,47.567C28.829,47.711 29.064,47.739 29.256,47.638L29.012,47.177ZM56.16,4.42L56.35,4.905L56.364,4.899L56.16,4.42ZM63.587,6.528L63.178,6.851C63.189,6.864 63.2,6.877 63.212,6.889L63.587,6.528ZM65.379,15.26L64.885,15.095L64.878,15.118L65.379,15.26ZM29.499,47.364C34.742,33.681 39.593,23.782 44.078,16.938C48.571,10.082 52.658,6.351 56.35,4.905L55.969,3.935C51.978,5.499 47.741,9.447 43.207,16.367C38.664,23.298 33.783,33.273 28.526,46.991L29.499,47.364ZM56.364,4.899C57.533,4.4 58.796,4.318 60.001,4.659L60.285,3.657C58.848,3.25 57.34,3.349 55.955,3.941L56.364,4.899ZM60.001,4.659C61.207,5.002 62.315,5.758 63.178,6.851L63.995,6.205C63.009,4.956 61.721,4.065 60.285,3.657L60.001,4.659ZM63.212,6.889C64.163,7.876 64.841,9.193 65.144,10.666L66.164,10.457C65.825,8.806 65.061,7.306 63.962,6.166L63.212,6.889ZM65.144,10.666C65.447,12.14 65.356,13.687 64.885,15.095L65.873,15.425C66.402,13.841 66.503,12.108 66.164,10.457L65.144,10.666ZM64.878,15.118C63.634,19.507 60.443,24.321 54.625,29.591C48.81,34.858 40.399,40.556 28.768,46.717L29.256,47.638C40.931,41.453 49.423,35.709 55.325,30.363C61.224,25.018 64.564,20.046 65.88,15.402L64.878,15.118Z" fill="#000000"/>
</svg>
