<svg width="70" height="82" viewBox="0 0 70 82" fill="none" xmlns="http://www.w3.org/2000/svg" xmlns:xlink="http://www.w3.org/1999/xlink">
<path d="M32.18,50.553C31.906,50.641 31.756,50.935 31.845,51.209C31.934,51.482 32.228,51.632 32.501,51.544L32.18,50.553ZM68.196,18.241L67.675,18.241L67.675,18.255L68.196,18.241ZM52.829,0.182L52.811,0.703L52.829,0.703L52.829,0.182ZM24.151,42.197C24.083,42.477 24.255,42.758 24.535,42.826C24.814,42.893 25.096,42.722 25.164,42.442L24.151,42.197ZM32.501,51.544C47.407,46.711 56.526,40.878 61.89,34.995C67.263,29.101 68.848,23.176 68.716,18.227L67.675,18.255C67.799,22.937 66.311,28.6 61.12,34.294C55.919,39.998 46.982,45.754 32.18,50.553L32.501,51.544ZM68.716,18.241C68.716,13.338 67.06,8.622 64.092,5.134L63.298,5.809C66.093,9.094 67.675,13.565 67.675,18.241L68.716,18.241ZM64.092,5.134C61.121,1.643 57.072,-0.339 52.829,-0.339L52.829,0.703C56.737,0.703 60.505,2.527 63.298,5.809L64.092,5.134ZM52.848,-0.338C48.428,-0.496 43.349,1.408 38.335,7.721C33.337,14.014 28.385,24.708 24.151,42.197L25.164,42.442C29.382,25.017 34.289,14.492 39.151,8.369C43.998,2.267 48.779,0.559 52.811,0.703L52.848,-0.338Z" fill="#000000"/>
<path d="M29.011,46.232L28.525,46.046C28.447,46.249 28.503,46.478 28.666,46.622C28.828,46.766 29.063,46.794 29.255,46.693L29.011,46.232ZM56.159,3.493L56.349,3.978L56.363,3.972L56.159,3.493ZM63.586,5.6L63.177,5.923C63.188,5.936 63.199,5.949 63.211,5.961L63.586,5.6ZM65.378,14.328L64.884,14.163L64.877,14.186L65.378,14.328ZM29.498,46.419C34.741,32.741 39.592,22.847 44.077,16.006C48.57,9.153 52.657,5.424 56.349,3.978L55.969,3.008C51.977,4.572 47.741,8.518 43.206,15.435C38.663,22.363 33.782,32.334 28.525,46.046L29.498,46.419ZM56.363,3.972C57.532,3.473 58.795,3.391 60,3.733L60.284,2.73C58.847,2.323 57.339,2.422 55.954,3.014L56.363,3.972ZM60,3.733C61.206,4.075 62.314,4.831 63.177,5.923L63.994,5.277C63.008,4.029 61.72,3.138 60.284,2.73L60,3.733ZM63.211,5.961C64.162,6.947 64.84,8.264 65.143,9.737L66.163,9.527C65.824,7.877 65.059,6.378 63.96,5.238L63.211,5.961ZM65.143,9.737C65.445,11.209 65.355,12.756 64.884,14.163L65.872,14.493C66.401,12.91 66.502,11.177 66.163,9.527L65.143,9.737ZM64.877,14.186C63.633,18.573 60.442,23.385 54.624,28.653C48.809,33.918 40.398,39.614 28.768,45.772L29.255,46.693C40.93,40.511 49.422,34.769 55.324,29.425C61.223,24.083 64.563,19.113 65.879,14.47L64.877,14.186Z" fill="#000000"/>
</svg>
