<svg width="70" height="82" viewBox="0 0 70 82" fill="none" xmlns="http://www.w3.org/2000/svg" xmlns:xlink="http://www.w3.org/1999/xlink">
<path d="M32.18,51.761C31.906,51.849 31.756,52.143 31.845,52.417C31.934,52.69 32.228,52.84 32.501,52.752L32.18,51.761ZM68.196,19.449L67.675,19.449L67.675,19.463L68.196,19.449ZM52.829,1.39L52.811,1.911L52.829,1.911L52.829,1.39ZM24.151,43.405C24.083,43.685 24.255,43.966 24.535,44.034C24.814,44.101 25.096,43.93 25.164,43.65L24.151,43.405ZM32.501,52.752C47.407,47.919 56.526,42.086 61.89,36.203C67.263,30.309 68.848,24.384 68.716,19.435L67.675,19.463C67.799,24.145 66.311,29.808 61.12,35.502C55.919,41.206 46.982,46.962 32.18,51.761L32.501,52.752ZM68.716,19.449C68.716,14.546 67.06,9.83 64.092,6.342L63.298,7.017C66.093,10.302 67.675,14.773 67.675,19.449L68.716,19.449ZM64.092,6.342C61.121,2.851 57.072,0.869 52.829,0.869L52.829,1.911C56.737,1.911 60.505,3.735 63.298,7.017L64.092,6.342ZM52.848,0.87C48.428,0.712 43.349,2.616 38.335,8.929C33.338,15.222 28.385,25.916 24.151,43.405L25.164,43.65C29.382,26.225 34.289,15.7 39.151,9.577C43.998,3.475 48.779,1.767 52.811,1.911L52.848,0.87Z" fill="#000000"/>
<path d="M29.011,47.44L28.525,47.254C28.447,47.457 28.503,47.686 28.666,47.83C28.828,47.974 29.063,48.002 29.255,47.901L29.011,47.44ZM56.159,4.701L56.349,5.186L56.363,5.18L56.159,4.701ZM63.586,6.808L63.177,7.131C63.188,7.144 63.199,7.157 63.211,7.169L63.586,6.808ZM65.378,15.536L64.884,15.371L64.877,15.394L65.378,15.536ZM29.498,47.627C34.741,33.949 39.592,24.055 44.077,17.214C48.57,10.361 52.657,6.632 56.349,5.186L55.969,4.216C51.977,5.78 47.741,9.726 43.206,16.643C38.663,23.571 33.782,33.542 28.525,47.254L29.498,47.627ZM56.363,5.18C57.532,4.681 58.795,4.599 60,4.941L60.284,3.939C58.847,3.531 57.339,3.63 55.954,4.222L56.363,5.18ZM60,4.941C61.206,5.283 62.314,6.039 63.177,7.131L63.994,6.485C63.008,5.237 61.72,4.346 60.284,3.939L60,4.941ZM63.211,7.169C64.162,8.155 64.84,9.472 65.143,10.945L66.163,10.735C65.824,9.085 65.059,7.586 63.96,6.446L63.211,7.169ZM65.143,10.945C65.445,12.417 65.355,13.964 64.884,15.371L65.872,15.701C66.401,14.118 66.502,12.385 66.163,10.735L65.143,10.945ZM64.877,15.394C63.633,19.782 60.442,24.593 54.624,29.861C48.809,35.126 40.398,40.822 28.767,46.98L29.255,47.901C40.93,41.719 49.422,35.977 55.324,30.633C61.223,25.291 64.563,20.321 65.879,15.679L64.877,15.394Z" fill="#000000"/>
</svg>
