<svg width="70" height="82" viewBox="0 0 70 82" fill="none" xmlns="http://www.w3.org/2000/svg" xmlns:xlink="http://www.w3.org/1999/xlink">
<path d="M32.464,50.596C32.19,50.683 32.039,50.976 32.127,51.25C32.215,51.524 32.508,51.675 32.782,51.588L32.464,50.596ZM68.951,18.285L68.43,18.285L68.431,18.299L68.951,18.285ZM53.382,0.226L53.364,0.747L53.382,0.747L53.382,0.226ZM24.333,42.239C24.264,42.518 24.435,42.8 24.714,42.869C24.994,42.937 25.276,42.767 25.344,42.487L24.333,42.239ZM32.782,51.588C47.883,46.756 57.121,40.924 62.555,35.042C67.999,29.148 69.605,23.222 69.472,18.271L68.431,18.299C68.557,22.979 67.049,28.641 61.79,34.335C56.519,40.04 47.464,45.796 32.464,50.596L32.782,51.588ZM69.472,18.285C69.472,13.38 67.793,8.663 64.786,5.175L63.997,5.855C66.829,9.14 68.43,13.61 68.43,18.285L69.472,18.285ZM64.786,5.175C61.776,1.684 57.676,-0.295 53.382,-0.295L53.382,0.747C57.346,0.747 61.167,2.573 63.997,5.855L64.786,5.175ZM53.4,-0.295C48.928,-0.452 43.784,1.449 38.704,7.762C33.641,14.056 28.622,24.75 24.333,42.239L25.344,42.487C29.618,25.063 34.59,14.538 39.516,8.415C44.426,2.313 49.273,0.603 53.364,0.746L53.4,-0.295Z" fill="#000000"/>
<path d="M29.25,46.276L28.764,46.088C28.686,46.29 28.741,46.52 28.903,46.664C29.064,46.809 29.299,46.838 29.491,46.738L29.25,46.276ZM56.755,3.537L56.943,4.023L56.958,4.017L56.755,3.537ZM64.28,5.644L63.874,5.969C63.885,5.983 63.896,5.995 63.908,6.008L64.28,5.644ZM66.097,14.372L65.603,14.205L65.596,14.228L66.097,14.372ZM29.735,46.465C35.048,32.788 39.962,22.893 44.507,16.052C49.059,9.2 53.201,5.469 56.943,4.022L56.567,3.051C52.526,4.614 48.234,8.558 43.639,15.476C39.037,22.405 34.091,32.375 28.764,46.088L29.735,46.465ZM56.958,4.017C58.144,3.517 59.427,3.434 60.651,3.777L60.932,2.774C59.479,2.367 57.954,2.466 56.553,3.057L56.958,4.017ZM60.651,3.777C61.876,4.12 62.999,4.877 63.874,5.969L64.687,5.318C63.687,4.07 62.384,3.18 60.932,2.774L60.651,3.777ZM63.908,6.008C64.872,6.994 65.559,8.31 65.865,9.782L66.885,9.569C66.542,7.918 65.766,6.419 64.653,5.28L63.908,6.008ZM65.865,9.782C66.172,11.253 66.08,12.799 65.603,14.205L66.59,14.539C67.126,12.955 67.229,11.221 66.885,9.569L65.865,9.782ZM65.596,14.228C64.336,18.614 61.103,23.426 55.208,28.694C49.316,33.96 40.793,39.656 29.009,45.815L29.491,46.738C41.319,40.556 49.923,34.815 55.902,29.471C61.879,24.129 65.263,19.159 66.597,14.516L65.596,14.228Z" fill="#000000"/>
</svg>
