<svg width="48" height="48" viewBox="0 0 48 48" fill="none" xmlns="http://www.w3.org/2000/svg" xmlns:xlink="http://www.w3.org/1999/xlink">
<circle cx="24" cy="26" r="14" fill="#7E869E" fill-opacity="0.25" stroke="#FFFFFF" stroke-width="1.2" stroke-miterlimit="3.999327"/>
<path d="M10.849,10.849C11.317,10.38 11.317,9.62 10.849,9.151C10.38,8.683 9.62,8.683 9.151,9.151L10.849,10.849ZM5.151,13.151C4.683,13.62 4.683,14.38 5.151,14.849C5.62,15.317 6.38,15.317 6.849,14.849L5.151,13.151ZM9.151,9.151L5.151,13.151L6.849,14.849L10.849,10.849L9.151,9.151Z" fill="#FFFFFF"/>
<path d="M42.849,10.849C43.317,10.38 43.317,9.62 42.849,9.151C42.38,8.683 41.62,8.683 41.151,9.151L42.849,10.849ZM37.151,13.151C36.683,13.62 36.683,14.38 37.151,14.849C37.62,15.317 38.38,15.317 38.849,14.849L37.151,13.151ZM41.151,9.151L37.151,13.151L38.849,14.849L42.849,10.849L41.151,9.151Z" transform="rotate(360 40 12)" fill="#FFFFFF"/>
<path d="M18.666,21.002C18.114,20.634 17.369,20.783 17.002,21.334C16.634,21.886 16.783,22.631 17.334,22.998L18.666,21.002ZM28.937,21.75C29.351,21.232 29.267,20.477 28.75,20.063C28.232,19.649 27.477,19.733 27.063,20.25L28.937,21.75ZM23.619,25.746L22.953,26.744L23.619,25.746ZM17.334,22.998L22.953,26.744L24.284,24.747L18.666,21.002L17.334,22.998ZM25.223,26.392L28.937,21.75L27.063,20.25L23.349,24.892L25.223,26.392ZM22.953,26.744C23.687,27.233 24.673,27.08 25.223,26.392L23.349,24.892C23.576,24.609 23.982,24.546 24.284,24.747L22.953,26.744Z" fill="#FFFFFF"/>
</svg>
