<svg width="56" height="58" viewBox="0 0 56 58" fill="none" xmlns="http://www.w3.org/2000/svg" xmlns:xlink="http://www.w3.org/1999/xlink">
<path d="M4.254,22.54C4,23.615 4.665,24.693 5.74,24.947C6.815,25.201 7.893,24.535 8.147,23.46L4.254,22.54ZM28,5.75L28,7.75L28,5.75ZM47.854,23.46C48.108,24.535 49.185,25.201 50.26,24.947C51.335,24.693 52.001,23.615 51.747,22.54L47.854,23.46ZM8.147,23.46C9.203,18.988 11.738,15.004 15.342,12.153L12.859,9.016C8.55,12.426 5.517,17.192 4.254,22.54L8.147,23.46ZM15.342,12.153C18.945,9.301 23.405,7.75 28,7.75L28,3.75C22.504,3.75 17.169,5.605 12.859,9.016L15.342,12.153ZM28,7.75C32.595,7.75 37.056,9.301 40.659,12.153L43.141,9.016C38.831,5.605 33.496,3.75 28,3.75L28,7.75ZM40.659,12.153C44.262,15.004 46.797,18.988 47.854,23.46L51.747,22.54C50.483,17.192 47.451,12.426 43.141,9.016L40.659,12.153Z" fill="#000000"/>
<line x1="0" y1="21" x2="55.8" y2="21" stroke="#000000" stroke-width="2" stroke-miterlimit="3.999327" stroke-linecap="round" stroke-linejoin="round"/>
<line x1="20.8" y1="30" x2="35" y2="30" stroke="#000000" stroke-width="2" stroke-miterlimit="3.999327" stroke-linecap="round" stroke-linejoin="round"/>
<path d="M13.646,47.537C14.274,46.628 14.046,45.382 13.137,44.755C12.228,44.127 10.982,44.355 10.354,45.264L13.646,47.537ZM4.554,53.664C3.927,54.573 4.155,55.819 5.064,56.446C5.973,57.074 7.218,56.846 7.846,55.937L4.554,53.664ZM10.354,45.264L4.554,53.664L7.846,55.937L13.646,47.537L10.354,45.264Z" fill="#000000"/>
<path d="M45.428,45.238C44.786,44.339 43.537,44.131 42.638,44.773C41.739,45.415 41.531,46.664 42.173,47.563L45.428,45.238ZM48.173,55.963C48.815,56.862 50.064,57.07 50.963,56.428C51.862,55.786 52.07,54.537 51.428,53.638L48.173,55.963ZM42.173,47.563L48.173,55.963L51.428,53.638L45.428,45.238L42.173,47.563Z" fill="#000000"/>
</svg>
