<svg width="60" height="60" viewBox="0 0 60 60" fill="none" xmlns="http://www.w3.org/2000/svg" xmlns:xlink="http://www.w3.org/1999/xlink">
<path d="M15.256,27.452L17.227,27.788L15.256,27.452ZM12.717,33.806L11.002,32.777L12.717,33.806ZM13.659,32.182L11.887,31.255L13.659,32.182ZM44.744,27.452L42.773,27.788L44.744,27.452ZM47.283,33.806L45.568,34.835L47.283,33.806ZM46.341,32.182L44.569,33.11L46.341,32.182ZM11.135,36.442L9.42,35.413L11.135,36.442ZM9.292,41.485L7.552,42.471L9.292,41.485ZM48.865,36.442L50.58,35.413L48.865,36.442ZM50.708,41.485L52.448,42.471L50.708,41.485ZM43.88,19.924L41.893,20.144L43.88,19.924ZM45.435,40.5L14.565,40.5L14.565,44.5L45.435,44.5L45.435,40.5ZM41.893,20.144L42.522,25.81L46.498,25.368L45.868,19.703L41.893,20.144ZM17.478,25.81L18.107,20.144L14.132,19.703L13.502,25.368L17.478,25.81ZM12.85,37.471L14.432,34.835L11.002,32.777L9.42,35.413L12.85,37.471ZM45.568,34.835L47.15,37.471L50.58,35.413L48.998,32.777L45.568,34.835ZM13.502,25.368C13.396,26.326 13.351,26.727 13.284,27.115L17.227,27.788C17.318,27.258 17.376,26.723 17.478,25.81L13.502,25.368ZM14.432,34.835C14.905,34.046 15.182,33.586 15.431,33.11L11.887,31.255C11.704,31.604 11.497,31.95 11.002,32.777L14.432,34.835ZM13.284,27.115C13.038,28.56 12.567,29.957 11.887,31.255L15.431,33.11C16.305,31.441 16.911,29.645 17.227,27.788L13.284,27.115ZM42.522,25.81C42.624,26.723 42.682,27.258 42.773,27.788L46.716,27.115C46.649,26.727 46.604,26.326 46.498,25.368L42.522,25.81ZM48.998,32.777C48.503,31.95 48.296,31.604 48.113,31.255L44.569,33.11C44.818,33.586 45.096,34.046 45.568,34.835L48.998,32.777ZM42.773,27.788C43.089,29.645 43.695,31.441 44.569,33.11L48.113,31.255C47.433,29.957 46.962,28.56 46.716,27.115L42.773,27.788ZM14.565,40.5C12.931,40.5 11.936,40.495 11.263,40.395C10.604,40.297 10.857,40.19 11.032,40.5L7.552,42.471C8.301,43.795 9.625,44.196 10.676,44.352C11.712,44.505 13.066,44.5 14.565,44.5L14.565,40.5ZM9.42,35.413C8.649,36.698 7.948,37.856 7.546,38.824C7.139,39.806 6.802,41.146 7.552,42.471L11.032,40.5C11.208,40.81 10.986,40.972 11.241,40.357C11.502,39.728 12.009,38.872 12.85,37.471L9.42,35.413ZM45.435,44.5C46.934,44.5 48.288,44.505 49.324,44.352C50.375,44.196 51.699,43.795 52.448,42.471L48.968,40.5C49.143,40.19 49.396,40.297 48.737,40.395C48.064,40.495 47.069,40.5 45.435,40.5L45.435,44.5ZM47.15,37.471C47.991,38.872 48.498,39.728 48.759,40.357C49.014,40.972 48.792,40.81 48.968,40.5L52.448,42.471C53.198,41.146 52.861,39.806 52.454,38.824C52.052,37.856 51.351,36.698 50.58,35.413L47.15,37.471ZM30,9.5C36.097,9.5 41.219,14.085 41.893,20.144L45.868,19.703C44.97,11.617 38.135,5.5 30,5.5L30,9.5ZM30,5.5C21.865,5.5 15.03,11.617 14.132,19.703L18.107,20.144C18.781,14.085 23.903,9.5 30,9.5L30,5.5Z" fill="#000000"/>
<path d="M35.276,38.69C35.47,39.777 36.509,40.501 37.596,40.307C38.684,40.113 39.408,39.074 39.213,37.987L35.276,38.69ZM34.566,32.325L33.056,33.636L34.566,32.325ZM30,30L30,32L30,30ZM20.787,37.987C20.592,39.074 21.317,40.113 22.404,40.307C23.491,40.501 24.53,39.777 24.724,38.69L20.787,37.987ZM39.213,37.987C38.736,35.316 37.669,32.847 36.075,31.013L33.056,33.636C34.082,34.818 34.898,36.576 35.276,38.69L39.213,37.987ZM36.075,31.013C34.473,29.168 32.351,28 30,28L30,32C30.951,32 32.039,32.466 33.056,33.636L36.075,31.013ZM30,28C27.649,28 25.527,29.168 23.925,31.013L26.944,33.636C27.961,32.466 29.049,32 30,32L30,28ZM23.925,31.013C22.331,32.847 21.264,35.316 20.787,37.987L24.724,38.69C25.102,36.576 25.918,34.818 26.944,33.636L23.925,31.013Z" transform="rotate(360 30 41.25)" fill="#000000"/>
</svg>
