<svg width="40" height="34" viewBox="0 0 40 34" fill="none" xmlns="http://www.w3.org/2000/svg" xmlns:xlink="http://www.w3.org/1999/xlink">
<path d="M-0.188,29.5C-0.188,30.605 0.708,31.5 1.813,31.5C2.917,31.5 3.813,30.605 3.813,29.5L-0.188,29.5ZM1.813,20.125L1.813,18.125C0.708,18.125 -0.188,19.02 -0.188,20.125L1.813,20.125ZM11.188,22.125C12.292,22.125 13.188,21.23 13.188,20.125C13.188,19.02 12.292,18.125 11.188,18.125L11.188,22.125ZM3.813,29.5L3.813,20.125L-0.188,20.125L-0.188,29.5L3.813,29.5ZM1.813,22.125L11.188,22.125L11.188,18.125L1.813,18.125L1.813,22.125Z" fill="#FFFFFF"/>
<path d="M3.849,11.646C3.48,12.687 4.026,13.83 5.067,14.198C6.108,14.567 7.251,14.021 7.62,12.98L3.849,11.646ZM28.938,7.063L27.523,8.477C27.538,8.491 27.553,8.506 27.568,8.52L28.938,7.063ZM34.818,15.333C35.623,16.089 36.889,16.05 37.645,15.245C38.401,14.44 38.362,13.174 37.557,12.418L34.818,15.333ZM3.182,18.668C2.377,17.911 1.111,17.951 0.355,18.756C-0.401,19.561 -0.362,20.826 0.443,21.583L3.182,18.668ZM9.063,26.938L10.477,25.524C10.462,25.509 10.447,25.495 10.432,25.48L9.063,26.938ZM34.151,22.355C34.519,21.314 33.974,20.171 32.933,19.802C31.892,19.434 30.749,19.979 30.38,21.021L34.151,22.355ZM7.62,12.98C8.3,11.059 9.455,9.342 10.978,7.988L8.32,4.998C6.292,6.801 4.754,9.088 3.849,11.646L7.62,12.98ZM10.978,7.988C12.501,6.634 14.342,5.688 16.329,5.239L15.447,1.337C12.8,1.936 10.349,3.196 8.32,4.998L10.978,7.988ZM16.329,5.239C18.317,4.789 20.386,4.85 22.343,5.416L23.454,1.574C20.848,0.82 18.093,0.739 15.447,1.337L16.329,5.239ZM22.343,5.416C24.3,5.983 26.082,7.035 27.523,8.477L30.352,5.649C28.434,3.73 26.061,2.328 23.454,1.574L22.343,5.416ZM27.568,8.52L34.818,15.333L37.557,12.418L30.307,5.605L27.568,8.52ZM0.443,21.583L7.693,28.395L10.432,25.48L3.182,18.668L0.443,21.583ZM7.648,28.352C9.566,30.271 11.939,31.673 14.546,32.426L15.657,28.584C13.7,28.018 11.918,26.965 10.477,25.524L7.648,28.352ZM14.546,32.426C17.152,33.18 19.907,33.262 22.553,32.663L21.671,28.762C19.683,29.211 17.614,29.15 15.657,28.584L14.546,32.426ZM22.553,32.663C25.2,32.064 27.651,30.805 29.68,29.002L27.022,26.012C25.499,27.366 23.658,28.312 21.671,28.762L22.553,32.663ZM29.68,29.002C31.707,27.2 33.246,24.913 34.151,22.355L30.38,21.021C29.7,22.941 28.545,24.659 27.022,26.012L29.68,29.002Z" fill="#FFFFFF"/>
</svg>
