<svg width="82" height="50" viewBox="0 0 82 50" fill="none" xmlns="http://www.w3.org/2000/svg" xmlns:xlink="http://www.w3.org/1999/xlink">
<path d="M4,-1C1.239,-1 -1,1.239 -1,4C-1,6.761 1.239,9 4,9L4,-1ZM44.949,14.514L47.358,10.132L44.949,14.514ZM71.546,46.134C73.026,48.465 76.115,49.156 78.447,47.676C80.779,46.197 81.469,43.107 79.99,40.776L71.546,46.134ZM4,9C17.475,9 30.732,12.404 42.54,18.895L47.358,10.132C34.073,2.829 19.16,-1 4,-1L4,9ZM42.54,18.895C54.349,25.387 64.326,34.756 71.546,46.134L79.99,40.776C71.867,27.976 60.642,17.436 47.358,10.132L42.54,18.895Z" fill="#FF917A"/>
</svg>
