<svg width="140" height="180" viewBox="0 0 140 180" fill="none" xmlns="http://www.w3.org/2000/svg" xmlns:xlink="http://www.w3.org/1999/xlink">
<path d="M50,-1C47.239,-1 45,1.239 45,4C45,6.761 47.239,9 50,9L50,-1ZM117.973,37.964L113.975,40.966L117.973,37.964ZM133.617,73.729L128.698,74.627L133.617,73.729ZM131.625,112.714L126.824,111.319L131.625,112.714ZM112.417,146.698L108.746,143.304L112.417,146.698ZM80.045,168.513L78.278,163.836L80.045,168.513ZM41.336,173.557L41.846,168.583L41.336,173.557ZM7.134,156.546C4.802,155.067 1.713,155.757 0.233,158.089C-1.247,160.42 -0.556,163.51 1.776,164.99L7.134,156.546ZM50,9C62.413,9 74.655,11.888 85.758,17.436L90.228,8.491C77.737,2.249 63.964,-1 50,-1L50,9ZM85.758,17.436C96.862,22.985 106.522,31.04 113.975,40.966L121.972,34.962C113.587,23.795 102.72,14.733 90.228,8.491L85.758,17.436ZM113.975,40.966C121.427,50.892 126.468,62.417 128.698,74.627L138.536,72.831C136.027,59.094 130.356,46.129 121.972,34.962L113.975,40.966ZM128.698,74.627C130.928,86.838 130.286,99.4 126.824,111.319L136.426,114.109C140.322,100.7 141.044,86.567 138.536,72.831L128.698,74.627ZM126.824,111.319C123.361,123.239 117.171,134.189 108.746,143.304L116.089,150.092C125.568,139.838 132.531,127.519 136.426,114.109L126.824,111.319ZM108.746,143.304C100.32,152.419 89.889,159.448 78.278,163.836L81.813,173.19C94.875,168.254 106.61,160.346 116.089,150.092L108.746,143.304ZM78.278,163.836C66.667,168.223 54.194,169.849 41.846,168.583L40.827,178.531C54.718,179.955 68.75,178.126 81.813,173.19L78.278,163.836ZM41.846,168.583C29.498,167.318 17.614,163.197 7.134,156.546L1.776,164.99C13.566,172.472 26.935,177.108 40.827,178.531L41.846,168.583Z" fill="#FF917A"/>
</svg>
