<svg width="76" height="78" viewBox="0 0 76 78" fill="none" xmlns="http://www.w3.org/2000/svg" xmlns:xlink="http://www.w3.org/1999/xlink">
<path d="M76,39.151C76,60.255 58.987,77.363 38,77.363C17.013,77.363 0,60.255 0,39.151C0,18.047 17.013,0.938 38,0.938C58.987,0.938 76,18.047 76,39.151Z" fill="#FFFFFF" stroke="#FF785B" stroke-width="2" stroke-miterlimit="3.999327"/>
<path d="M38,58.773C36.286,58.773 26.557,48.902 22.7,42.786C22.143,42.034 21.629,41.069 21.157,39.996L21.029,39.674C20.943,39.406 20.814,39.137 20.729,38.762C20.643,38.494 20.557,38.172 20.471,37.85C20.171,36.562 20,35.382 20,34.255C20,27.281 24.543,21.594 30.114,21.594C33.2,21.594 36.114,23.364 38,26.369C39.886,23.364 42.8,21.594 45.886,21.594C51.457,21.594 56,27.281 56,34.255C56,35.489 55.786,36.616 55.529,37.796C55.486,38.172 55.357,38.494 55.271,38.815L55.229,38.923C55.186,39.03 55.143,39.137 55.1,39.245C55.057,39.352 55.014,39.513 54.929,39.674L54.929,39.727L54.843,39.996C54.371,41.122 53.857,42.034 53.3,42.839C49.443,48.902 39.714,58.773 38,58.773ZM23.129,38.923C23.514,39.781 23.9,40.479 24.286,41.015L24.329,41.122C28.271,47.292 36.286,54.911 38,55.984C39.714,54.857 47.729,47.292 51.629,41.069L51.671,40.961C52.1,40.425 52.486,39.727 52.829,38.869L52.829,38.762L53,38.44C53.043,38.333 53.086,38.225 53.129,38.064C53.171,37.957 53.214,37.796 53.257,37.635C53.3,37.421 53.386,37.26 53.386,37.099L53.386,37.045C53.6,36.026 53.771,35.114 53.771,34.148C53.771,28.622 50.214,24.169 45.8,24.169C42.886,24.169 40.271,26.1 38.857,29.319L38,31.573L37.057,29.48C35.643,26.261 33.029,24.33 30.114,24.33C25.7,24.276 22.143,28.729 22.143,34.255C22.143,35.114 22.271,36.079 22.529,37.045L22.571,37.206C22.614,37.367 22.657,37.581 22.743,37.796L22.786,37.85C22.829,38.064 22.914,38.279 23.043,38.494L23.214,38.815L23.214,38.923L23.129,38.923Z" fill="#FF785B"/>
</svg>
