<svg width="76" height="78" viewBox="0 0 76 78" fill="none" xmlns="http://www.w3.org/2000/svg" xmlns:xlink="http://www.w3.org/1999/xlink">
<path d="M76,38.212C76,59.316 58.987,76.425 38,76.425C17.013,76.425 0,59.316 0,38.212C0,17.108 17.013,0 38,0C58.987,0 76,17.108 76,38.212Z" fill="#FFFFFF" stroke="#FF785B" stroke-width="2" stroke-miterlimit="3.999327"/>
<path d="M38,57.835C36.286,57.835 26.557,47.963 22.7,41.847C22.143,41.096 21.629,40.13 21.157,39.057L21.029,38.735C20.943,38.467 20.814,38.199 20.729,37.823C20.643,37.555 20.557,37.233 20.471,36.911C20.171,35.624 20,34.443 20,33.317C20,26.342 24.543,20.655 30.114,20.655C33.2,20.655 36.114,22.426 38,25.43C39.886,22.426 42.8,20.655 45.886,20.655C51.457,20.655 56,26.342 56,33.317C56,34.551 55.786,35.677 55.529,36.858C55.486,37.233 55.357,37.555 55.271,37.877L55.229,37.984C55.186,38.092 55.143,38.199 55.1,38.306C55.057,38.413 55.014,38.574 54.929,38.735L54.929,38.789L54.843,39.057C54.371,40.184 53.857,41.096 53.3,41.901C49.443,47.963 39.714,57.835 38,57.835ZM23.129,37.984C23.514,38.843 23.9,39.54 24.286,40.077L24.329,40.184C28.271,46.354 36.286,53.972 38,55.045C39.714,53.918 47.729,46.354 51.629,40.13L51.671,40.023C52.1,39.486 52.486,38.789 52.829,37.931L52.829,37.823L53,37.501C53.043,37.394 53.086,37.287 53.129,37.126C53.171,37.019 53.214,36.858 53.257,36.697C53.3,36.482 53.386,36.321 53.386,36.16L53.386,36.107C53.6,35.087 53.771,34.175 53.771,33.209C53.771,27.683 50.214,23.23 45.8,23.23C42.886,23.23 40.271,25.162 38.857,28.381L38,30.634L37.057,28.542C35.643,25.323 33.029,23.391 30.114,23.391C25.7,23.338 22.143,27.791 22.143,33.317C22.143,34.175 22.271,35.141 22.529,36.107L22.571,36.267C22.614,36.428 22.657,36.643 22.743,36.858L22.786,36.911C22.829,37.126 22.914,37.34 23.043,37.555L23.214,37.877L23.214,37.984L23.129,37.984Z" fill="#FF785B"/>
</svg>
