<svg width="56" height="72" viewBox="0 0 56 72" fill="none" xmlns="http://www.w3.org/2000/svg" xmlns:xlink="http://www.w3.org/1999/xlink">
<path d="M54.429,31.523L54.429,70.021L-0.862,70.021L-0.862,31.523L2.403,31.523C5.459,31.505 8.408,30.228 10.722,27.922C13.036,25.616 14.563,22.433 15.029,18.942L38.538,18.942C39.045,22.411 40.584,25.567 42.889,27.864C45.194,30.161 48.121,31.455 51.164,31.523L54.429,31.523Z" fill="url(#pf_0_i_3720_2123;3494_577)" stroke="#000000" stroke-width="0.521" stroke-miterlimit="3.999327" stroke-linecap="round" stroke-linejoin="round"/>
<path d="M38.538,18.942L38.538,19.463C38.826,19.463 39.059,19.23 39.059,18.942L38.538,18.942ZM15.029,18.942L14.508,18.942C14.508,19.23 14.741,19.463 15.029,19.463L15.029,18.942ZM26.783,1.095C29.736,1.095 32.587,2.45 34.701,4.895L35.489,4.213C33.195,1.561 30.065,0.053 26.783,0.053L26.783,1.095ZM34.701,4.895C36.818,7.341 38.017,10.674 38.017,14.162L39.059,14.162C39.059,10.442 37.781,6.863 35.489,4.213L34.701,4.895ZM38.017,14.162L38.017,18.942L39.059,18.942L39.059,14.162L38.017,14.162ZM38.538,18.422L15.029,18.422L15.029,19.463L38.538,19.463L38.538,18.422ZM15.55,18.942L15.55,14.162L14.508,14.162L14.508,18.942L15.55,18.942ZM15.55,14.162C15.55,10.674 16.749,7.341 18.866,4.895L18.078,4.213C15.786,6.863 14.508,10.442 14.508,14.162L15.55,14.162ZM18.866,4.895C20.98,2.45 23.83,1.095 26.783,1.095L26.783,0.053C23.501,0.053 20.372,1.561 18.078,4.213L18.866,4.895Z" fill="#000000"/>
<path d="M35.491,56.434L35.491,56.954C35.778,56.954 36.011,56.721 36.011,56.434L35.491,56.434ZM18.076,56.434L17.556,56.434C17.556,56.721 17.789,56.954 18.076,56.954L18.076,56.434ZM26.784,43.367C28.928,43.367 31.003,44.351 32.547,46.135L33.334,45.453C31.611,43.462 29.257,42.325 26.784,42.325L26.784,43.367ZM32.547,46.135C34.092,47.921 34.97,50.357 34.97,52.911L36.011,52.911C36.011,50.126 35.055,47.442 33.334,45.453L32.547,46.135ZM34.97,52.911L34.97,56.434L36.011,56.434L36.011,52.911L34.97,52.911ZM35.491,55.913L18.076,55.913L18.076,56.954L35.491,56.954L35.491,55.913ZM18.597,56.434L18.597,52.911L17.556,52.911L17.556,56.434L18.597,56.434ZM18.597,52.911C18.597,50.357 19.475,47.921 21.021,46.135L20.233,45.453C18.512,47.442 17.556,50.126 17.556,52.911L18.597,52.911ZM21.021,46.135C22.564,44.351 24.639,43.367 26.784,43.367L26.784,42.325C24.31,42.325 21.956,43.462 20.233,45.453L21.021,46.135Z" transform="rotate(360 26.784 49.64)" fill="#000000"/>
<defs>
<linearGradient id="pf_0_i_3720_2123;3494_577" x1="24.171" y1="0.574" x2="43.762" y2="68.511" gradientUnits="userSpaceOnUse">
<stop stop-color="#0083DA" stop-opacity="0"/>
<stop offset="1" stop-color="#3BADF5"/>
</linearGradient>
</defs>
</svg>
