<svg width="56" height="72" viewBox="0 0 56 72" fill="none" xmlns="http://www.w3.org/2000/svg" xmlns:xlink="http://www.w3.org/1999/xlink">
<path d="M55.408,31.813L55.408,70.311L0.838,70.311L0.838,31.813L4.061,31.813C7.076,31.795 9.987,30.518 12.271,28.212C14.555,25.906 16.062,22.723 16.522,19.232L39.725,19.232C40.225,22.701 41.744,25.857 44.019,28.154C46.294,30.451 49.183,31.745 52.186,31.813L55.408,31.813Z" fill="url(#pf_0_i_3647_1565;3494_577)" stroke="#000000" stroke-width="0.521" stroke-miterlimit="3.999327" stroke-linecap="round" stroke-linejoin="round"/>
<path d="M39.725,19.232L39.725,19.753C40.012,19.753 40.246,19.52 40.246,19.232L39.725,19.232ZM16.522,19.232L16.001,19.232C16.001,19.52 16.234,19.753 16.522,19.753L16.522,19.232ZM28.123,1.385C31.033,1.385 33.844,2.738 35.931,5.182L36.723,4.506C34.458,1.853 31.367,0.343 28.123,0.343L28.123,1.385ZM35.931,5.182C38.02,7.629 39.204,10.962 39.204,14.452L40.246,14.452C40.246,10.734 38.985,7.156 36.723,4.506L35.931,5.182ZM39.204,14.452L39.204,19.232L40.246,19.232L40.246,14.452L39.204,14.452ZM39.725,18.712L16.522,18.712L16.522,19.753L39.725,19.753L39.725,18.712ZM17.042,19.232L17.042,14.452L16.001,14.452L16.001,19.232L17.042,19.232ZM17.042,14.452C17.042,10.962 18.227,7.629 20.316,5.182L19.524,4.506C17.261,7.156 16.001,10.734 16.001,14.452L17.042,14.452ZM20.316,5.182C22.402,2.738 25.213,1.385 28.123,1.385L28.123,0.343C24.879,0.343 21.788,1.853 19.524,4.506L20.316,5.182Z" fill="#000000"/>
<path d="M36.718,56.724L36.718,57.245C37.005,57.245 37.239,57.012 37.239,56.724L36.718,56.724ZM19.53,56.724L19.009,56.724C19.009,57.012 19.243,57.245 19.53,57.245L19.53,56.724ZM28.124,43.657C30.236,43.657 32.282,44.639 33.805,46.423L34.597,45.746C32.896,43.754 30.57,42.616 28.124,42.616L28.124,43.657ZM33.805,46.423C35.329,48.208 36.197,50.646 36.197,53.201L37.239,53.201C37.239,50.418 36.295,47.735 34.597,45.746L33.805,46.423ZM36.197,53.201L36.197,56.724L37.239,56.724L37.239,53.201L36.197,53.201ZM36.718,56.203L19.53,56.203L19.53,57.245L36.718,57.245L36.718,56.203ZM20.051,56.724L20.051,53.201L19.009,53.201L19.009,56.724L20.051,56.724ZM20.051,53.201C20.051,50.646 20.919,48.208 22.443,46.423L21.651,45.746C19.953,47.735 19.009,50.418 19.009,53.201L20.051,53.201ZM22.443,46.423C23.966,44.639 26.012,43.657 28.124,43.657L28.124,42.616C25.678,42.616 23.352,43.754 21.651,45.746L22.443,46.423Z" transform="rotate(360 28.124 49.93)" fill="#000000"/>
<defs>
<linearGradient id="pf_0_i_3647_1565;3494_577" x1="25.545" y1="0.864" x2="44.881" y2="68.801" gradientUnits="userSpaceOnUse">
<stop stop-color="#0083DA" stop-opacity="0"/>
<stop offset="1" stop-color="#3BADF5"/>
</linearGradient>
</defs>
</svg>
