<svg width="50" height="50" viewBox="0 0 50 50" fill="none" xmlns="http://www.w3.org/2000/svg" xmlns:xlink="http://www.w3.org/1999/xlink">
<line x1="25" y1="39.667" x2="43.75" y2="39.667" stroke="#FF917A" stroke-width="2" stroke-miterlimit="3.999327" stroke-linecap="round" stroke-linejoin="round"/>
<path d="M34.375,7.291L32.961,5.877L34.375,7.291ZM37.5,5.997L37.5,3.997L37.5,5.997ZM41.919,10.416L39.919,10.416L41.919,10.416ZM40.625,13.541L39.211,12.127L40.625,13.541ZM14.583,39.583L15.068,41.523C15.42,41.435 15.741,41.254 15.998,40.997L14.583,39.583ZM6.25,41.666L4.31,41.181C4.139,41.863 4.339,42.584 4.836,43.081C5.333,43.577 6.054,43.777 6.735,43.607L6.25,41.666ZM8.333,33.333L6.919,31.919C6.663,32.175 6.481,32.496 6.393,32.848L8.333,33.333ZM35.789,8.706C36.243,8.252 36.858,7.997 37.5,7.997L37.5,3.997C35.797,3.997 34.165,4.673 32.961,5.877L35.789,8.706ZM37.5,7.997C37.818,7.997 38.132,8.06 38.426,8.181L39.957,4.486C39.178,4.163 38.343,3.997 37.5,3.997L37.5,7.997ZM38.426,8.181C38.719,8.303 38.986,8.481 39.211,8.706L42.039,5.877C41.443,5.281 40.735,4.808 39.957,4.486L38.426,8.181ZM39.211,8.706C39.435,8.93 39.614,9.197 39.735,9.491L43.431,7.96C43.108,7.181 42.635,6.473 42.039,5.877L39.211,8.706ZM39.735,9.491C39.857,9.784 39.919,10.099 39.919,10.416L43.919,10.416C43.919,9.573 43.753,8.739 43.431,7.96L39.735,9.491ZM39.919,10.416C39.919,10.734 39.857,11.049 39.735,11.342L43.431,12.873C43.753,12.094 43.919,11.259 43.919,10.416L39.919,10.416ZM39.735,11.342C39.614,11.636 39.435,11.903 39.211,12.127L42.039,14.956C42.635,14.36 43.108,13.652 43.431,12.873L39.735,11.342ZM39.211,12.127L13.169,38.169L15.998,40.997L42.039,14.956L39.211,12.127ZM14.098,37.643L5.765,39.726L6.735,43.607L15.068,41.523L14.098,37.643ZM8.19,42.151L10.274,33.818L6.393,32.848L4.31,41.181L8.19,42.151ZM9.748,34.747L35.789,8.706L32.961,5.877L6.919,31.919L9.748,34.747Z" fill="#FF917A"/>
</svg>
