<svg width="48" height="48" viewBox="0 0 48 48" fill="none" xmlns="http://www.w3.org/2000/svg" xmlns:xlink="http://www.w3.org/1999/xlink">
<path d="M42,23C42,32.941 33.941,41 24,41L24,45C36.15,45 46,35.15 46,23L42,23ZM24,41C14.059,41 6,32.941 6,23L2,23C2,35.15 11.85,45 24,45L24,41ZM6,23C6,13.059 14.059,5 24,5L24,1C11.85,1 2,10.85 2,23L6,23ZM24,5C33.941,5 42,13.059 42,23L46,23C46,10.85 36.15,1 24,1L24,5Z" fill="#8C8CA1"/>
<path d="M26,11C26,9.895 25.105,9 24,9C22.895,9 22,9.895 22,11L26,11ZM24,23L22,23C22,23.758 22.428,24.45 23.106,24.789L24,23ZM31.106,28.789C32.094,29.283 33.295,28.882 33.789,27.894C34.283,26.906 33.882,25.705 32.894,25.211L31.106,28.789ZM22,11L22,23L26,23L26,11L22,11ZM23.106,24.789L31.106,28.789L32.894,25.211L24.894,21.211L23.106,24.789Z" fill="#8C8CA1"/>
</svg>
