<svg width="50" height="50" viewBox="0 0 50 50" fill="none" xmlns="http://www.w3.org/2000/svg" xmlns:xlink="http://www.w3.org/1999/xlink">
<path d="M21.5,1.637L23.5,1.637C23.5,1.069 23.258,0.527 22.834,0.147C22.411,-0.232 21.845,-0.413 21.28,-0.351L21.5,1.637ZM46.363,26.5L48.351,26.72C48.413,26.154 48.232,25.589 47.853,25.166C47.473,24.742 46.931,24.5 46.363,24.5L46.363,26.5ZM21.5,26.5L19.5,26.5C19.5,27.604 20.395,28.5 21.5,28.5L21.5,26.5ZM45.22,16.5L45.22,18.5C45.869,18.5 46.478,18.185 46.853,17.655C47.227,17.125 47.322,16.445 47.105,15.833L45.22,16.5ZM31.5,16.5L29.5,16.5C29.5,17.604 30.395,18.5 31.5,18.5L31.5,16.5ZM31.5,2.781L32.166,0.895C31.554,0.679 30.875,0.773 30.345,1.148C29.815,1.523 29.5,2.131 29.5,2.781L31.5,2.781ZM3.5,24C3.5,13.449 11.472,4.758 21.72,3.625L21.28,-0.351C9.028,1.004 -0.5,11.388 -0.5,24L3.5,24ZM24,44.5C12.678,44.5 3.5,35.322 3.5,24L-0.5,24C-0.5,37.531 10.469,48.5 24,48.5L24,44.5ZM44.375,26.28C43.242,36.528 34.551,44.5 24,44.5L24,48.5C36.612,48.5 46.996,38.972 48.351,26.72L44.375,26.28ZM46.363,24.5L21.5,24.5L21.5,28.5L46.363,28.5L46.363,24.5ZM23.5,26.5L23.5,1.637L19.5,1.637L19.5,26.5L23.5,26.5ZM45.22,14.5L31.5,14.5L31.5,18.5L45.22,18.5L45.22,14.5ZM33.5,16.5L33.5,2.781L29.5,2.781L29.5,16.5L33.5,16.5ZM30.834,4.666C36.657,6.725 41.276,11.343 43.334,17.166L47.105,15.833C44.644,8.871 39.129,3.356 32.166,0.895L30.834,4.666Z" fill="#0F172A"/>
</svg>
