<svg width="50" height="40" viewBox="0 0 50 40" fill="none" xmlns="http://www.w3.org/2000/svg" xmlns:xlink="http://www.w3.org/1999/xlink">
<path d="M46.5,15L46.5,17C47.605,17 48.5,16.105 48.5,15L46.5,15ZM46.5,25L48.5,25C48.5,23.895 47.605,23 46.5,23L46.5,25ZM1.5,25L1.5,23C0.395,23 -0.5,23.895 -0.5,25L1.5,25ZM1.5,15L-0.5,15C-0.5,16.105 0.395,17 1.5,17L1.5,15ZM33.5,2.5C33.5,1.395 32.605,0.5 31.5,0.5C30.395,0.5 29.5,1.395 29.5,2.5L33.5,2.5ZM29.5,7.5C29.5,8.605 30.395,9.5 31.5,9.5C32.605,9.5 33.5,8.605 33.5,7.5L29.5,7.5ZM33.5,17.5C33.5,16.395 32.605,15.5 31.5,15.5C30.395,15.5 29.5,16.395 29.5,17.5L33.5,17.5ZM29.5,22.5C29.5,23.605 30.395,24.5 31.5,24.5C32.605,24.5 33.5,23.605 33.5,22.5L29.5,22.5ZM33.5,32.5C33.5,31.395 32.605,30.5 31.5,30.5C30.395,30.5 29.5,31.395 29.5,32.5L33.5,32.5ZM29.5,37.5C29.5,38.605 30.395,39.5 31.5,39.5C32.605,39.5 33.5,38.605 33.5,37.5L29.5,37.5ZM6.5,0.5C2.634,0.5 -0.5,3.634 -0.5,7.5L3.5,7.5C3.5,5.843 4.843,4.5 6.5,4.5L6.5,0.5ZM41.5,0.5L6.5,0.5L6.5,4.5L41.5,4.5L41.5,0.5ZM48.5,7.5C48.5,3.634 45.366,0.5 41.5,0.5L41.5,4.5C43.157,4.5 44.5,5.843 44.5,7.5L48.5,7.5ZM48.5,15L48.5,7.5L44.5,7.5L44.5,15L48.5,15ZM43.5,20C43.5,18.343 44.843,17 46.5,17L46.5,13C42.634,13 39.5,16.134 39.5,20L43.5,20ZM46.5,23C44.843,23 43.5,21.657 43.5,20L39.5,20C39.5,23.866 42.634,27 46.5,27L46.5,23ZM48.5,32.5L48.5,25L44.5,25L44.5,32.5L48.5,32.5ZM41.5,39.5C45.366,39.5 48.5,36.366 48.5,32.5L44.5,32.5C44.5,34.157 43.157,35.5 41.5,35.5L41.5,39.5ZM6.5,39.5L41.5,39.5L41.5,35.5L6.5,35.5L6.5,39.5ZM-0.5,32.5C-0.5,36.366 2.634,39.5 6.5,39.5L6.5,35.5C4.843,35.5 3.5,34.157 3.5,32.5L-0.5,32.5ZM-0.5,25L-0.5,32.5L3.5,32.5L3.5,25L-0.5,25ZM4.5,20C4.5,21.657 3.157,23 1.5,23L1.5,27C5.366,27 8.5,23.866 8.5,20L4.5,20ZM1.5,17C3.157,17 4.5,18.343 4.5,20L8.5,20C8.5,16.134 5.366,13 1.5,13L1.5,17ZM-0.5,7.5L-0.5,15L3.5,15L3.5,7.5L-0.5,7.5ZM29.5,2.5L29.5,7.5L33.5,7.5L33.5,2.5L29.5,2.5ZM29.5,17.5L29.5,22.5L33.5,22.5L33.5,17.5L29.5,17.5ZM29.5,32.5L29.5,37.5L33.5,37.5L33.5,32.5L29.5,32.5Z" fill="#0F172A"/>
</svg>
