<svg width="18" height="18" viewBox="0 0 18 18" fill="none" xmlns="http://www.w3.org/2000/svg" xmlns:xlink="http://www.w3.org/1999/xlink">
<path d="M17.563,9.014C17.563,8.391 17.057,7.885 16.434,7.885L3.852,7.885L9.353,2.384C9.802,1.935 9.796,1.204 9.339,0.762L9.339,0.762C8.892,0.331 8.183,0.338 7.745,0.776L-0.404,8.925C-0.453,8.974 -0.453,9.054 -0.404,9.103L7.743,17.25C8.18,17.687 8.889,17.687 9.326,17.25L9.326,17.25C9.762,16.814 9.764,16.108 9.33,15.67L3.852,10.142L16.434,10.142C17.057,10.142 17.563,9.637 17.563,9.014L17.563,9.014Z" transform="rotate(360 8.535 9.014)" fill="#FFFFFF"/>
</svg>
