<svg width="50" height="52" viewBox="0 0 50 52" fill="none" xmlns="http://www.w3.org/2000/svg" xmlns:xlink="http://www.w3.org/1999/xlink">
<path d="M24.758,10.578C28.357,10.523 31.838,11.864 34.469,14.319L41.558,7.388C37.01,3.127 30.99,0.79 24.758,0.867C20.102,0.866 15.537,2.161 11.575,4.605C7.612,7.05 4.408,10.549 2.32,14.711L10.442,21.017C11.435,17.997 13.351,15.365 15.919,13.492C18.488,11.62 21.579,10.6 24.758,10.578L24.758,10.578Z" fill="#EA4335"/>
<path d="M48.871,26.543C48.9,24.816 48.722,23.092 48.34,21.408L24.759,21.408L24.759,30.73L38.602,30.73C38.339,32.365 37.749,33.929 36.866,35.329C35.983,36.73 34.826,37.937 33.465,38.879L41.391,45.018C43.862,42.633 45.804,39.756 47.094,36.574C48.383,33.392 48.991,29.974 48.878,26.543L48.871,26.543Z" fill="#4285F4"/>
<path d="M10.471,30.952C9.922,29.353 9.638,27.674 9.633,25.984C9.643,24.296 9.916,22.62 10.442,21.016L2.32,14.71C0.558,18.208 -0.359,22.069 -0.359,25.985C-0.359,29.901 0.558,33.763 2.32,37.26L10.471,30.952Z" fill="#FBBC05"/>
<path d="M24.759,51.101C30.877,51.274 36.829,49.097 41.392,45.017L33.465,38.878C30.895,40.601 27.852,41.479 24.759,41.39C21.583,41.371 18.493,40.353 15.929,38.479C13.364,36.605 11.455,33.972 10.471,30.952L2.349,37.26C4.431,41.42 7.631,44.918 11.589,47.363C15.546,49.807 20.107,51.102 24.759,51.101Z" fill="#34A853"/>
</svg>
