<svg width="36" height="38" viewBox="0 0 36 38" fill="none" xmlns="http://www.w3.org/2000/svg" xmlns:xlink="http://www.w3.org/1999/xlink">
<path d="M17.333,36.687C15.594,36.687 5.727,26.73 1.815,20.561C1.25,19.804 0.728,18.83 0.25,17.748L0.12,17.423C0.033,17.152 -0.098,16.882 -0.185,16.503C-0.272,16.232 -0.359,15.908 -0.446,15.583C-0.75,14.284 -0.924,13.094 -0.924,11.958C-0.924,4.923 3.684,-0.813 9.335,-0.813C12.464,-0.813 15.42,0.973 17.333,4.003C19.245,0.973 22.201,-0.813 25.331,-0.813C30.982,-0.813 35.589,4.923 35.589,11.958C35.589,13.202 35.372,14.339 35.111,15.529C35.068,15.908 34.937,16.232 34.85,16.557L34.807,16.665C34.763,16.774 34.72,16.882 34.677,16.99C34.633,17.098 34.59,17.261 34.503,17.423L34.503,17.477L34.416,17.748C33.938,18.884 33.416,19.804 32.851,20.616C28.939,26.73 19.072,36.687 17.333,36.687ZM2.249,16.665C2.641,17.531 3.032,18.235 3.423,18.776L3.467,18.884C7.466,25.107 15.594,32.791 17.333,33.873C19.072,32.737 27.2,25.107 31.156,18.83L31.199,18.722C31.634,18.181 32.025,17.477 32.373,16.611L32.373,16.503L32.547,16.178C32.59,16.07 32.634,15.962 32.677,15.8C32.72,15.691 32.764,15.529 32.807,15.367C32.851,15.15 32.938,14.988 32.938,14.826L32.938,14.771C33.155,13.743 33.329,12.823 33.329,11.849C33.329,6.276 29.721,1.784 25.244,1.784C22.288,1.784 19.637,3.732 18.202,6.979L17.333,9.252L16.377,7.142C14.942,3.895 12.291,1.947 9.335,1.947C4.858,1.893 1.25,6.384 1.25,11.958C1.25,12.823 1.38,13.797 1.641,14.771L1.684,14.934C1.728,15.096 1.771,15.313 1.858,15.529L1.902,15.583C1.945,15.8 2.032,16.016 2.163,16.232L2.336,16.557L2.336,16.665L2.249,16.665Z" fill="#FFC6BA"/>
</svg>
