<svg width="38" height="38" viewBox="0 0 38 38" fill="none" xmlns="http://www.w3.org/2000/svg" xmlns:xlink="http://www.w3.org/1999/xlink">
<path d="M18.333,36.813C16.595,36.813 6.727,26.856 2.815,20.687C2.25,19.93 1.729,18.956 1.25,17.874L1.12,17.549C1.033,17.278 0.903,17.008 0.816,16.629C0.729,16.358 0.642,16.034 0.555,15.709C0.251,14.41 0.077,13.22 0.077,12.084C0.077,5.049 4.684,-0.687 10.335,-0.687C13.465,-0.687 16.421,1.099 18.333,4.129C20.246,1.099 23.202,-0.687 26.331,-0.687C31.982,-0.687 36.59,5.049 36.59,12.084C36.59,13.328 36.373,14.465 36.112,15.655C36.068,16.034 35.938,16.358 35.851,16.683L35.808,16.791C35.764,16.9 35.721,17.008 35.677,17.116C35.634,17.224 35.59,17.387 35.503,17.549L35.503,17.603L35.416,17.874C34.938,19.01 34.417,19.93 33.851,20.742C29.939,26.856 20.072,36.813 18.333,36.813ZM3.25,16.791C3.641,17.657 4.032,18.361 4.424,18.902L4.467,19.01C8.466,25.233 16.595,32.917 18.333,33.999C20.072,32.863 28.201,25.233 32.156,18.956L32.2,18.848C32.634,18.306 33.026,17.603 33.373,16.737L33.373,16.629L33.547,16.304C33.591,16.196 33.634,16.088 33.678,15.926C33.721,15.817 33.765,15.655 33.808,15.493C33.851,15.276 33.938,15.114 33.938,14.952L33.938,14.897C34.156,13.869 34.33,12.949 34.33,11.975C34.33,6.402 30.722,1.91 26.245,1.91C23.289,1.91 20.637,3.858 19.203,7.105L18.333,9.378L17.377,7.268C15.943,4.021 13.291,2.073 10.335,2.073C5.858,2.019 2.25,6.51 2.25,12.084C2.25,12.949 2.381,13.923 2.641,14.897L2.685,15.06C2.728,15.222 2.772,15.439 2.859,15.655L2.902,15.709C2.946,15.926 3.033,16.142 3.163,16.358L3.337,16.683L3.337,16.791L3.25,16.791Z" fill="#FFC6BA"/>
</svg>
