<svg width="52" height="32" viewBox="0 0 52 32" fill="none" xmlns="http://www.w3.org/2000/svg" xmlns:xlink="http://www.w3.org/1999/xlink">
<path d="M44.299,0.02L6.597,0.02C4.897,0.02 3.267,0.62 2.065,1.687C0.863,2.755 0.188,4.203 0.188,5.713L0.188,19.948C0.188,23.093 3.055,25.641 6.193,25.641L16.214,25.641C20.239,25.641 22.901,31.27 25.246,31.27C27.591,31.27 30.689,25.641 34.301,25.641L44.299,25.641C45.999,25.641 47.629,25.041 48.831,23.973C50.033,22.906 50.708,21.458 50.708,19.948L50.708,5.713C50.708,4.203 50.033,2.755 48.831,1.687C47.629,0.62 45.999,0.02 44.299,0.02Z" clip-rule="evenodd" fill-rule="evenodd" fill="#F05161"/>
</svg>
