<svg width="36" height="40" viewBox="0 0 36 40" fill="none" xmlns="http://www.w3.org/2000/svg" xmlns:xlink="http://www.w3.org/1999/xlink">
<path d="M17.333,38.062C15.594,38.062 5.727,28.105 1.815,21.936C1.25,21.179 0.728,20.205 0.25,19.123L0.12,18.798C0.033,18.527 -0.098,18.257 -0.185,17.878C-0.272,17.607 -0.359,17.283 -0.446,16.958C-0.75,15.659 -0.924,14.469 -0.924,13.333C-0.924,6.298 3.684,0.562 9.335,0.562C12.464,0.562 15.42,2.348 17.333,5.378C19.245,2.348 22.201,0.562 25.331,0.562C30.982,0.562 35.589,6.298 35.589,13.333C35.589,14.577 35.372,15.714 35.111,16.904C35.068,17.283 34.937,17.607 34.85,17.932L34.807,18.04C34.763,18.149 34.72,18.257 34.677,18.365C34.633,18.473 34.59,18.636 34.503,18.798L34.503,18.852L34.416,19.123C33.938,20.259 33.416,21.179 32.851,21.991C28.939,28.105 19.072,38.062 17.333,38.062ZM2.249,18.04C2.641,18.906 3.032,19.61 3.423,20.151L3.467,20.259C7.466,26.482 15.594,34.166 17.333,35.248C19.072,34.112 27.2,26.482 31.156,20.205L31.199,20.097C31.634,19.556 32.025,18.852 32.373,17.986L32.373,17.878L32.547,17.553C32.59,17.445 32.634,17.337 32.677,17.175C32.72,17.066 32.764,16.904 32.807,16.742C32.851,16.525 32.938,16.363 32.938,16.201L32.938,16.146C33.155,15.118 33.329,14.198 33.329,13.224C33.329,7.651 29.721,3.159 25.244,3.159C22.288,3.159 19.637,5.107 18.202,8.354L17.333,10.627L16.377,8.517C14.942,5.27 12.291,3.322 9.335,3.322C4.858,3.268 1.25,7.759 1.25,13.333C1.25,14.198 1.38,15.172 1.641,16.146L1.684,16.309C1.728,16.471 1.771,16.688 1.858,16.904L1.902,16.958C1.945,17.175 2.032,17.391 2.163,17.607L2.336,17.932L2.336,18.04L2.249,18.04Z" fill="#FFC6BA"/>
</svg>
