<svg width="36" height="38" viewBox="0 0 36 38" fill="none" xmlns="http://www.w3.org/2000/svg" xmlns:xlink="http://www.w3.org/1999/xlink">
<path d="M18.239,36.407C16.594,36.407 7.26,26.988 3.56,21.153C3.025,20.437 2.532,19.515 2.079,18.491L1.956,18.184C1.874,17.928 1.751,17.672 1.668,17.314C1.586,17.058 1.504,16.751 1.422,16.444C1.134,15.215 0.969,14.089 0.969,13.014C0.969,6.36 5.328,0.934 10.673,0.934C13.634,0.934 16.43,2.623 18.239,5.49C20.048,2.623 22.844,0.934 25.805,0.934C31.15,0.934 35.509,6.36 35.509,13.014C35.509,14.192 35.303,15.267 35.056,16.393C35.015,16.751 34.892,17.058 34.81,17.365L34.769,17.468C34.727,17.57 34.686,17.672 34.645,17.775C34.604,17.877 34.563,18.031 34.481,18.184L34.481,18.235L34.398,18.491C33.946,19.566 33.453,20.437 32.918,21.204C29.218,26.988 19.884,36.407 18.239,36.407ZM3.971,17.468C4.341,18.287 4.711,18.952 5.081,19.464L5.122,19.566C8.905,25.453 16.594,32.721 18.239,33.745C19.884,32.67 27.573,25.453 31.315,19.515L31.356,19.413C31.767,18.901 32.137,18.235 32.466,17.416L32.466,17.314L32.63,17.007C32.671,16.905 32.713,16.802 32.754,16.649C32.795,16.546 32.836,16.393 32.877,16.239C32.918,16.034 33,15.881 33,15.727L33,15.676C33.206,14.704 33.371,13.833 33.371,12.912C33.371,7.64 29.958,3.391 25.722,3.391C22.926,3.391 20.418,5.234 19.061,8.305L18.239,10.455L17.334,8.459C15.978,5.387 13.469,3.545 10.673,3.545C6.438,3.493 3.025,7.742 3.025,13.014C3.025,13.833 3.149,14.755 3.395,15.676L3.436,15.83C3.478,15.983 3.519,16.188 3.601,16.393L3.642,16.444C3.683,16.649 3.765,16.853 3.889,17.058L4.053,17.365L4.053,17.468L3.971,17.468Z" fill="#FFC6BA"/>
</svg>
