<svg width="34" height="42" viewBox="0 0 34 42" fill="none" xmlns="http://www.w3.org/2000/svg" xmlns:xlink="http://www.w3.org/1999/xlink">
<path d="M31.098,18.994C30.188,16.946 28.866,15.107 27.212,13.594L25.848,12.342C25.802,12.301 25.746,12.272 25.686,12.257C25.626,12.242 25.563,12.242 25.503,12.258C25.442,12.273 25.387,12.303 25.341,12.344C25.295,12.386 25.26,12.439 25.239,12.497L24.63,14.245C24.25,15.342 23.552,16.463 22.562,17.564C22.497,17.634 22.422,17.653 22.37,17.658C22.319,17.663 22.239,17.653 22.169,17.588C22.103,17.531 22.07,17.447 22.075,17.363C22.248,14.541 21.405,11.358 19.558,7.894C18.03,5.016 15.906,2.77 13.253,1.205L11.317,0.066C11.064,-0.084 10.741,0.113 10.755,0.408L10.858,2.658C10.928,4.195 10.75,5.555 10.328,6.684C9.813,8.067 9.072,9.352 8.125,10.505C7.466,11.306 6.719,12.031 5.898,12.666C3.922,14.185 2.314,16.132 1.197,18.361C0.082,20.609 -0.499,23.084 -0.5,25.594C-0.5,27.806 -0.064,29.948 0.798,31.969C1.631,33.914 2.833,35.679 4.337,37.167C5.856,38.667 7.619,39.848 9.583,40.669C11.617,41.522 13.773,41.953 16,41.953C18.227,41.953 20.383,41.522 22.417,40.673C24.376,39.858 26.158,38.669 27.662,37.172C29.181,35.672 30.372,33.919 31.202,31.973C32.063,29.959 32.505,27.79 32.5,25.598C32.5,23.311 32.031,21.089 31.098,18.994ZM25.422,34.898C22.905,37.392 19.562,38.761 16,38.761C12.438,38.761 9.095,37.392 6.578,34.898C4.07,32.409 2.688,29.109 2.688,25.598C2.688,23.559 3.147,21.605 4.052,19.786C4.933,18.009 6.245,16.42 7.839,15.197C8.855,14.42 9.777,13.526 10.586,12.534C11.758,11.105 12.677,9.511 13.314,7.8C13.576,7.094 13.766,6.364 13.881,5.62C15.011,6.661 15.958,7.917 16.75,9.389C18.316,12.323 19.038,14.934 18.897,17.156C18.863,17.68 18.949,18.204 19.147,18.689C19.345,19.175 19.651,19.609 20.041,19.959C20.379,20.265 20.774,20.5 21.204,20.651C21.633,20.803 22.089,20.867 22.544,20.841C23.467,20.794 24.316,20.386 24.934,19.697C25.558,18.998 26.097,18.286 26.547,17.559C27.203,18.398 27.752,19.313 28.187,20.297C28.933,21.975 29.312,23.761 29.312,25.598C29.312,29.109 27.93,32.414 25.422,34.898Z" fill="#8C8CA1"/>
</svg>
