<svg width="24" height="24" viewBox="0 0 24 24" fill="none" xmlns="http://www.w3.org/2000/svg" xmlns:xlink="http://www.w3.org/1999/xlink">
<path d="M1.75,24L4.25,24C5.215,24 6,23.215 6,22.25L6,21.884C7.512,22.654 10.946,24 16.531,24L18.131,24C20.449,24 22.417,22.342 22.81,20.058L23.93,13.558C24.168,12.171 23.785,10.761 22.881,9.687C21.978,8.615 20.654,8 19.251,8L14.715,8C14.998,7.24 15.281,6.132 15.281,4.75C15.281,0.993 13.155,0 12.031,0C9.955,0 9.781,1.936 9.781,3.75C9.781,5.964 7.298,7.804 5.987,8.622C5.92,7.718 5.171,7 4.25,7L1.75,7C0.785,7 0,7.785 0,8.75L0,22.25C0,23.215 0.785,24 1.75,24L1.75,24ZM11.281,3.75C11.281,1.5 11.662,1.5 12.031,1.5C12.735,1.5 13.781,2.366 13.781,4.75C13.781,6.966 12.913,8.324 12.907,8.334C12.754,8.564 12.739,8.86 12.87,9.104C13,9.348 13.255,9.5 13.531,9.5L19.251,9.5C20.211,9.5 21.116,9.92 21.734,10.653C22.353,11.387 22.615,12.353 22.452,13.302L21.332,19.802C21.063,21.364 19.717,22.499 18.131,22.499L16.531,22.499C9.728,22.5 6.32,20.372 6,20.161L6,10.351C6.833,9.909 11.281,7.379 11.281,3.75L11.281,3.75ZM1.5,8.75C1.5,8.612 1.612,8.5 1.75,8.5L4.25,8.5C4.388,8.5 4.5,8.612 4.5,8.75L4.5,22.25C4.5,22.386 4.386,22.5 4.25,22.5L1.75,22.5C1.612,22.5 1.5,22.388 1.5,22.25L1.5,8.75Z" transform="rotate(0 12 12)" fill="#34495E"/>
</svg>
