<svg width="16" height="14" viewBox="0 0 16 14" fill="none" xmlns="http://www.w3.org/2000/svg" xmlns:xlink="http://www.w3.org/1999/xlink">
<path d="M14.188,2.5C14.188,1.395 13.292,0.5 12.188,0.5C11.083,0.5 10.188,1.395 10.188,2.5L14.188,2.5ZM12.188,11.875L12.188,13.875C13.292,13.875 14.188,12.98 14.188,11.875L12.188,11.875ZM2.813,9.875C1.708,9.875 0.813,10.77 0.813,11.875C0.813,12.98 1.708,13.875 2.813,13.875L2.813,9.875ZM10.188,2.5L10.188,11.875L14.188,11.875L14.188,2.5L10.188,2.5ZM12.188,9.875L2.813,9.875L2.813,13.875L12.188,13.875L12.188,9.875Z" fill="#FFFFFF"/>
</svg>
