<svg width="52" height="32" viewBox="0 0 52 32" fill="none" xmlns="http://www.w3.org/2000/svg" xmlns:xlink="http://www.w3.org/1999/xlink">
<path d="M44.201,0.02L5.729,0.02C3.994,0.02 2.33,0.62 1.103,1.687C-0.123,2.755 -0.813,4.203 -0.813,5.713L-0.813,19.948C-0.813,23.093 2.115,25.641 5.316,25.641L15.545,25.641C19.652,25.641 22.369,31.27 24.762,31.27C27.156,31.27 30.317,25.641 34.005,25.641L44.201,25.641C45.936,25.641 47.601,25.041 48.829,23.974C50.057,22.906 50.748,21.458 50.75,19.948L50.75,5.713C50.748,4.202 50.057,2.754 48.829,1.687C47.601,0.62 45.936,0.02 44.201,0.02L44.201,0.02Z" clip-rule="evenodd" fill-rule="evenodd" fill="#F05161"/>
</svg>
