<svg width="8" height="8" viewBox="0 0 8 8" fill="none" xmlns="http://www.w3.org/2000/svg" xmlns:xlink="http://www.w3.org/1999/xlink">
<path d="M5.792,0.119C6.143,0.122 6.486,0.225 6.781,0.416C7.262,0.746 7.603,1.243 7.74,1.81C7.876,2.378 7.798,2.975 7.521,3.488C7.12,4.259 5.437,5.697 3.984,6.791C3.964,6.799 3.942,6.799 3.922,6.791C3.9,6.8 3.876,6.8 3.854,6.791C2.406,5.697 0.729,4.259 0.318,3.488C0.041,2.975 -0.036,2.378 0.1,1.811C0.237,1.244 0.577,0.747 1.057,0.416C1.352,0.225 1.695,0.122 2.047,0.119C2.333,0.093 2.62,0.129 2.89,0.227C3.16,0.324 3.406,0.479 3.609,0.681L3.922,1.103L4.229,0.681C4.43,0.475 4.675,0.317 4.945,0.22C5.216,0.122 5.506,0.088 5.792,0.119Z" fill="#FFFFFF"/>
</svg>
