<svg width="36" height="38" viewBox="0 0 36 38" fill="none" xmlns="http://www.w3.org/2000/svg" xmlns:xlink="http://www.w3.org/1999/xlink">
<path d="M17.333,36.813C15.594,36.813 5.727,26.856 1.815,20.687C1.25,19.93 0.728,18.956 0.25,17.874L0.12,17.549C0.033,17.278 -0.098,17.008 -0.185,16.629C-0.272,16.358 -0.359,16.034 -0.445,15.709C-0.75,14.41 -0.924,13.22 -0.924,12.084C-0.924,5.049 3.684,-0.687 9.335,-0.687C12.465,-0.687 15.42,1.099 17.333,4.129C19.246,1.099 22.201,-0.687 25.331,-0.687C30.982,-0.687 35.59,5.049 35.59,12.084C35.59,13.328 35.372,14.465 35.111,15.655C35.068,16.034 34.938,16.358 34.851,16.683L34.807,16.791C34.764,16.9 34.72,17.008 34.677,17.116C34.633,17.224 34.59,17.387 34.503,17.549L34.503,17.603L34.416,17.874C33.938,19.01 33.416,19.93 32.851,20.742C28.939,26.856 19.072,36.813 17.333,36.813ZM2.25,16.791C2.641,17.657 3.032,18.361 3.423,18.902L3.467,19.01C7.466,25.233 15.594,32.917 17.333,33.999C19.072,32.863 27.2,25.233 31.156,18.956L31.199,18.848C31.634,18.306 32.025,17.603 32.373,16.737L32.373,16.629L32.547,16.304C32.59,16.196 32.634,16.088 32.677,15.926C32.721,15.817 32.764,15.655 32.808,15.493C32.851,15.276 32.938,15.114 32.938,14.952L32.938,14.897C33.155,13.869 33.329,12.949 33.329,11.975C33.329,6.402 29.721,1.91 25.244,1.91C22.288,1.91 19.637,3.858 18.202,7.105L17.333,9.378L16.377,7.268C14.942,4.021 12.291,2.073 9.335,2.073C4.858,2.019 1.25,6.51 1.25,12.084C1.25,12.949 1.38,13.923 1.641,14.897L1.684,15.06C1.728,15.222 1.771,15.439 1.858,15.655L1.902,15.709C1.945,15.926 2.032,16.142 2.163,16.358L2.336,16.683L2.336,16.791L2.25,16.791Z" fill="#FFC6BA"/>
</svg>
