<svg width="38" height="38" viewBox="0 0 38 38" fill="none" xmlns="http://www.w3.org/2000/svg" xmlns:xlink="http://www.w3.org/1999/xlink">
<path d="M18.333,36.687C16.595,36.687 6.727,26.73 2.815,20.561C2.25,19.804 1.729,18.83 1.25,17.748L1.12,17.423C1.033,17.152 0.903,16.882 0.816,16.503C0.729,16.232 0.642,15.908 0.555,15.583C0.251,14.284 0.077,13.094 0.077,11.958C0.077,4.923 4.684,-0.813 10.335,-0.813C13.465,-0.813 16.421,0.973 18.333,4.003C20.246,0.973 23.202,-0.813 26.331,-0.813C31.982,-0.813 36.59,4.923 36.59,11.958C36.59,13.202 36.373,14.339 36.112,15.529C36.068,15.908 35.938,16.232 35.851,16.557L35.808,16.665C35.764,16.774 35.721,16.882 35.677,16.99C35.634,17.098 35.59,17.261 35.503,17.423L35.503,17.477L35.416,17.748C34.938,18.884 34.417,19.804 33.851,20.616C29.939,26.73 20.072,36.687 18.333,36.687ZM3.25,16.665C3.641,17.531 4.032,18.235 4.424,18.776L4.467,18.884C8.466,25.107 16.595,32.791 18.333,33.873C20.072,32.737 28.201,25.107 32.156,18.83L32.2,18.722C32.634,18.181 33.026,17.477 33.373,16.611L33.373,16.503L33.547,16.178C33.591,16.07 33.634,15.962 33.678,15.8C33.721,15.691 33.765,15.529 33.808,15.367C33.851,15.15 33.938,14.988 33.938,14.826L33.938,14.771C34.156,13.743 34.33,12.823 34.33,11.849C34.33,6.276 30.722,1.784 26.245,1.784C23.289,1.784 20.637,3.732 19.203,6.979L18.333,9.252L17.377,7.142C15.943,3.895 13.291,1.947 10.335,1.947C5.858,1.893 2.25,6.384 2.25,11.958C2.25,12.823 2.381,13.797 2.641,14.771L2.685,14.934C2.728,15.096 2.772,15.313 2.859,15.529L2.902,15.583C2.946,15.8 3.033,16.016 3.163,16.232L3.337,16.557L3.337,16.665L3.25,16.665Z" fill="#FFC6BA"/>
</svg>
