<svg width="266" height="314" viewBox="0 0 266 314" fill="none" xmlns="http://www.w3.org/2000/svg" xmlns:xlink="http://www.w3.org/1999/xlink">
<path d="M124.695,196.442C123.644,196.783 123.069,197.911 123.409,198.961C123.75,200.012 124.878,200.588 125.928,200.247L124.695,196.442ZM262.995,72.366L260.995,72.366C260.995,72.383 260.995,72.401 260.995,72.419L262.995,72.366ZM203.988,3.019L203.917,5.018C203.94,5.019 203.964,5.019 203.988,5.019L203.988,3.019ZM93.864,164.356C93.604,165.43 94.264,166.511 95.338,166.771C96.411,167.031 97.492,166.371 97.752,165.298L93.864,164.356ZM125.928,200.247C183.168,181.69 218.184,159.293 238.78,136.702C259.415,114.069 265.499,91.317 264.994,72.312L260.995,72.419C261.473,90.398 255.757,112.144 235.824,134.008C215.853,155.914 181.536,178.014 124.695,196.442L125.928,200.247ZM264.995,72.366C264.995,53.538 258.634,35.43 247.235,22.035L244.189,24.627C254.922,37.241 260.995,54.409 260.995,72.366L264.995,72.366ZM247.235,22.035C235.828,8.629 220.282,1.019 203.988,1.019L203.988,5.019C218.993,5.019 233.464,12.022 244.189,24.627L247.235,22.035ZM204.059,1.021C187.087,0.416 167.584,7.728 148.332,31.97C129.14,56.136 110.121,97.199 93.864,164.356L97.752,165.298C113.949,98.386 132.793,57.967 151.464,34.458C170.075,11.024 188.435,4.467 203.917,5.018L204.059,1.021Z" fill="#000000"/>
<path d="M112.527,179.852L110.659,179.136C110.361,179.914 110.577,180.796 111.201,181.349C111.825,181.902 112.726,182.009 113.463,181.619L112.527,179.852ZM216.773,15.733L217.502,17.595C217.521,17.588 217.54,17.58 217.558,17.572L216.773,15.733ZM245.293,23.823L243.724,25.063C243.764,25.115 243.808,25.164 243.853,25.212L245.293,23.823ZM252.177,57.341L250.28,56.707C250.27,56.736 250.261,56.765 250.253,56.795L252.177,57.341ZM114.394,180.568C134.53,128.047 153.156,90.053 170.379,63.782C187.632,37.467 203.328,23.148 217.502,17.595L216.043,13.87C200.714,19.875 184.448,35.029 167.034,61.589C149.591,88.195 130.846,126.482 110.659,179.136L114.394,180.568ZM217.558,17.572C222.047,15.656 226.897,15.34 231.524,16.653L232.616,12.805C227.098,11.239 221.308,11.622 215.987,13.893L217.558,17.572ZM231.524,16.653C236.157,17.967 240.409,20.871 243.724,25.063L246.862,22.583C243.073,17.79 238.128,14.368 232.616,12.805L231.524,16.653ZM243.853,25.212C247.505,28.998 250.111,34.052 251.273,39.708L255.191,38.903C253.89,32.567 250.952,26.81 246.732,22.435L243.853,25.212ZM251.273,39.708C252.435,45.364 252.085,51.303 250.28,56.707L254.074,57.975C256.105,51.895 256.493,45.241 255.191,38.903L251.273,39.708ZM250.253,56.795C245.474,73.642 233.22,92.119 210.882,112.346C188.552,132.566 156.254,154.436 111.591,178.084L113.463,181.619C158.294,157.881 190.904,135.832 213.567,115.311C236.221,94.798 249.045,75.713 254.101,57.886L250.253,56.795Z" fill="#000000"/>
</svg>
