<svg width="70" height="82" viewBox="0 0 70 82" fill="none" xmlns="http://www.w3.org/2000/svg" xmlns:xlink="http://www.w3.org/1999/xlink">
<path d="M32.184,50.553C31.91,50.641 31.76,50.935 31.849,51.209C31.938,51.482 32.232,51.632 32.505,51.544L32.184,50.553ZM68.2,18.241L67.679,18.241L67.679,18.255L68.2,18.241ZM52.833,0.182L52.815,0.703L52.833,0.703L52.833,0.182ZM24.155,42.197C24.087,42.477 24.259,42.758 24.539,42.826C24.818,42.893 25.1,42.722 25.168,42.442L24.155,42.197ZM32.505,51.544C47.411,46.711 56.53,40.878 61.894,34.995C67.267,29.101 68.852,23.176 68.72,18.227L67.679,18.255C67.803,22.937 66.315,28.6 61.124,34.294C55.923,39.998 46.986,45.754 32.184,50.553L32.505,51.544ZM68.72,18.241C68.72,13.338 67.064,8.622 64.096,5.134L63.302,5.809C66.097,9.094 67.679,13.565 67.679,18.241L68.72,18.241ZM64.096,5.134C61.125,1.643 57.076,-0.339 52.833,-0.339L52.833,0.703C56.741,0.703 60.509,2.527 63.302,5.809L64.096,5.134ZM52.852,-0.338C48.432,-0.496 43.353,1.408 38.339,7.721C33.342,14.014 28.389,24.708 24.155,42.197L25.168,42.442C29.386,25.017 34.293,14.492 39.155,8.369C44.002,2.267 48.783,0.559 52.815,0.703L52.852,-0.338Z" fill="#000000"/>
<path d="M29.015,46.232L28.529,46.046C28.451,46.249 28.508,46.478 28.67,46.622C28.833,46.766 29.067,46.794 29.259,46.693L29.015,46.232ZM56.163,3.493L56.353,3.978L56.367,3.972L56.163,3.493ZM63.59,5.6L63.181,5.923C63.192,5.936 63.203,5.949 63.215,5.961L63.59,5.6ZM65.383,14.328L64.888,14.163L64.881,14.186L65.383,14.328ZM29.502,46.419C34.745,32.741 39.596,22.847 44.081,16.006C48.574,9.153 52.661,5.424 56.353,3.978L55.973,3.008C51.981,4.572 47.745,8.518 43.21,15.435C38.667,22.363 33.786,32.334 28.529,46.046L29.502,46.419ZM56.367,3.972C57.536,3.473 58.799,3.391 60.004,3.733L60.288,2.73C58.852,2.323 57.344,2.422 55.958,3.014L56.367,3.972ZM60.004,3.733C61.211,4.075 62.318,4.831 63.181,5.923L63.998,5.277C63.012,4.029 61.724,3.138 60.288,2.73L60.004,3.733ZM63.215,5.961C64.166,6.947 64.845,8.264 65.147,9.737L66.168,9.527C65.829,7.877 65.064,6.378 63.965,5.238L63.215,5.961ZM65.147,9.737C65.45,11.209 65.359,12.756 64.889,14.163L65.876,14.493C66.405,12.91 66.507,11.177 66.168,9.527L65.147,9.737ZM64.881,14.186C63.637,18.573 60.446,23.385 54.629,28.653C48.813,33.918 40.403,39.614 28.772,45.772L29.259,46.693C40.934,40.511 49.426,34.769 55.328,29.425C61.227,24.083 64.567,19.113 65.884,14.47L64.881,14.186Z" fill="#000000"/>
</svg>
