<svg width="5" height="8" viewBox="0 0 5 8" fill="none" xmlns="http://www.w3.org/2000/svg">
<path d="M0 8.00004V0H1V3.2316H1.06316C1.11229 3.14738 1.19299 3.03159 1.30527 2.88423C1.42457 2.73686 1.59299 2.60703 1.81053 2.49475C2.02808 2.37545 2.30177 2.3158 2.63159 2.3158C3.03861 2.3158 3.38598 2.41054 3.6737 2.60001C3.96142 2.78247 4.17897 3.0316 4.32634 3.34739C4.48072 3.66318 4.55792 4.01756 4.55792 4.41055V8.00004H3.55791V4.47371C3.55791 4.10178 3.45265 3.793 3.24212 3.54739C3.03861 3.30177 2.74036 3.17896 2.34738 3.17896C2.03159 3.17896 1.77545 3.25967 1.57896 3.42107C1.38246 3.57546 1.23509 3.78248 1.13685 4.04213C1.04562 4.29476 1 4.56494 1 4.85266V8.00004H0Z" fill="#48525F"/>
</svg>
