<svg width="8" height="6" viewBox="0 0 8 6" fill="none" xmlns="http://www.w3.org/2000/svg">
<path d="M0 5.73705V0.106242H1.0093V0.924303H1.05179C1.10845 0.818061 1.19699 0.694112 1.3174 0.552457C1.43781 0.403719 1.60071 0.276229 1.80611 0.169987C2.01859 0.0566623 2.2842 0 2.60292 0C3.02081 0 3.37141 0.102701 3.65472 0.308101C3.94511 0.506419 4.16113 0.775565 4.30279 1.11554H4.31342C4.46924 0.803896 4.6888 0.541833 4.97211 0.32935C5.26251 0.109783 5.6379 0 6.09828 0C6.7074 0 7.17486 0.208942 7.50067 0.626826C7.83356 1.03763 8 1.56884 8 2.22045V5.73705H6.99071V2.27357C6.99071 1.85569 6.89155 1.51926 6.69323 1.26428C6.49491 1.00221 6.20806 0.871182 5.83267 0.871182C5.50686 0.871182 5.2448 0.959717 5.04649 1.13679C4.85525 1.31386 4.71714 1.53342 4.63214 1.79548C4.54715 2.05755 4.50465 2.31961 4.50465 2.58167V5.73705H3.49535V2.27357C3.49535 1.85569 3.3962 1.51926 3.19788 1.26428C3.00665 1.00221 2.71979 0.871182 2.33732 0.871182C2.01151 0.871182 1.74945 0.959717 1.55113 1.13679C1.3599 1.31386 1.22178 1.53696 1.13679 1.80611C1.0518 2.06817 1.0093 2.32669 1.0093 2.58167V5.73705H0Z" fill="#48525F"/>
</svg>
