<svg width="64" height="11" viewBox="0 0 64 11" fill="none" xmlns="http://www.w3.org/2000/svg">
<path d="M61.2923 8.82125C60.834 8.82125 60.3968 8.73311 59.9808 8.55683C59.5718 8.38054 59.2369 8.11259 58.976 7.75297C58.7221 7.38631 58.5952 6.92444 58.5952 6.36739H59.5789C59.5789 6.72701 59.6599 7.02316 59.8221 7.25586C59.9914 7.48855 60.2064 7.66131 60.4673 7.77413C60.7353 7.88695 61.0103 7.94336 61.2923 7.94336C61.5955 7.94336 61.8741 7.88695 62.1279 7.77413C62.3818 7.65426 62.5862 7.4815 62.7414 7.25586C62.8965 7.03021 62.9741 6.75874 62.9741 6.44143C62.9741 6.0254 62.8366 5.69751 62.5616 5.45777C62.2866 5.21097 61.9199 5.08757 61.4616 5.08757H60.4039V4.27315H61.4616C61.8423 4.27315 62.1667 4.16032 62.4346 3.93468C62.7096 3.70904 62.8471 3.40231 62.8471 3.01448C62.8471 2.73243 62.7731 2.49269 62.625 2.29525C62.484 2.09076 62.2936 1.9321 62.0539 1.81928C61.8212 1.70646 61.5673 1.65005 61.2923 1.65005C61.0314 1.65005 60.7776 1.70999 60.5308 1.82986C60.291 1.94268 60.0936 2.11544 59.9385 2.34813C59.7833 2.58083 59.7058 2.87698 59.7058 3.2366H58.7433C58.7433 2.6866 58.8667 2.23179 59.1135 1.87217C59.3673 1.5055 59.6882 1.23402 60.076 1.05774C60.4709 0.874406 60.8834 0.782739 61.3135 0.782739C61.7507 0.782739 62.1596 0.87088 62.5404 1.04716C62.9282 1.2164 63.242 1.46319 63.4818 1.78755C63.7215 2.10486 63.8414 2.48563 63.8414 2.92987C63.8414 3.35295 63.7356 3.71256 63.5241 4.00872C63.3125 4.29783 63.0446 4.50584 62.7202 4.63276V4.68565C63.0939 4.81257 63.4007 5.02764 63.6404 5.33084C63.8802 5.63405 64 6.01482 64 6.47316C64 6.9597 63.8731 7.37925 63.6193 7.73182C63.3654 8.08439 63.034 8.35586 62.625 8.54625C62.2161 8.72958 61.7718 8.82125 61.2923 8.82125Z" fill="#48525F"/>
<path d="M51.822 8.71548V7.98567L53.5355 6.39912C54.015 5.95489 54.4346 5.56706 54.7942 5.23565C55.1608 4.89719 55.4464 4.5693 55.6509 4.25199C55.8554 3.93468 55.9576 3.58564 55.9576 3.20487C55.9576 2.88756 55.8801 2.61961 55.725 2.40102C55.5769 2.18243 55.383 2.01672 55.1432 1.9039C54.9105 1.78403 54.6673 1.72409 54.4134 1.72409C54.082 1.72409 53.8105 1.7805 53.599 1.89332C53.3874 2.00614 53.2253 2.14717 53.1124 2.3164C52.9996 2.47858 52.9185 2.64429 52.8692 2.81352C52.8198 2.9757 52.7916 3.1132 52.7846 3.22602C52.7775 3.33884 52.774 3.39526 52.774 3.39526H51.7797C51.7797 3.39526 51.7833 3.33179 51.7903 3.20487C51.7974 3.07795 51.822 2.91576 51.8644 2.71833C51.9137 2.52089 51.9913 2.31288 52.097 2.09429C52.2028 1.86864 52.3509 1.6571 52.5413 1.45967C52.7387 1.26223 52.989 1.10005 53.2922 0.973125C53.6025 0.846201 53.9797 0.782739 54.424 0.782739C54.8753 0.782739 55.2948 0.877932 55.6826 1.06832C56.0775 1.25165 56.3948 1.52313 56.6346 1.88275C56.8743 2.23531 56.9942 2.66897 56.9942 3.18372C56.9942 3.65615 56.8743 4.08629 56.6346 4.47411C56.4019 4.85488 56.0916 5.2286 55.7038 5.59527C55.316 5.96194 54.8929 6.35681 54.4346 6.77989L53.3557 7.77413H57.1634V8.71548H51.822Z" fill="#48525F"/>
<path d="M47.3926 8.81059C46.9061 8.81059 46.4759 8.70482 46.1022 8.49328C45.7285 8.27469 45.4147 7.98206 45.1609 7.61539C44.9141 7.24167 44.7237 6.81154 44.5897 6.325C44.4628 5.83846 44.3993 5.32724 44.3993 4.79133C44.3993 4.24838 44.4628 3.73716 44.5897 3.25767C44.7237 2.77113 44.9141 2.341 45.1609 1.96728C45.4147 1.59356 45.7285 1.30093 46.1022 1.08939C46.4759 0.877849 46.9061 0.772079 47.3926 0.772079C47.8791 0.772079 48.3093 0.877849 48.683 1.08939C49.0567 1.30093 49.367 1.59356 49.6138 1.96728C49.8676 2.341 50.058 2.77113 50.1849 3.25767C50.3189 3.73716 50.3859 4.24838 50.3859 4.79133C50.3859 5.32724 50.3189 5.83846 50.1849 6.325C50.058 6.81154 49.8676 7.24167 49.6138 7.61539C49.367 7.98206 49.0567 8.27469 48.683 8.49328C48.3093 8.70482 47.8791 8.81059 47.3926 8.81059ZM47.3926 7.85866C47.9497 7.85866 48.408 7.60129 48.7676 7.08654C49.1343 6.56474 49.3176 5.79967 49.3176 4.79133C49.3176 3.783 49.1343 3.02145 48.7676 2.50671C48.408 1.99196 47.9497 1.73459 47.3926 1.73459C46.8355 1.73459 46.3737 1.99196 46.007 2.50671C45.6474 3.02145 45.4676 3.783 45.4676 4.79133C45.4676 5.79262 45.6474 6.55417 46.007 7.07597C46.3737 7.59776 46.8355 7.85866 47.3926 7.85866Z" fill="#48525F"/>
<path d="M37.7848 8.71548V7.98567L39.4983 6.39912C39.9778 5.95489 40.3973 5.56706 40.7569 5.23565C41.1236 4.89719 41.4092 4.5693 41.6137 4.25199C41.8182 3.93468 41.9204 3.58564 41.9204 3.20487C41.9204 2.88756 41.8428 2.61961 41.6877 2.40102C41.5396 2.18243 41.3457 2.01672 41.106 1.9039C40.8733 1.78403 40.63 1.72409 40.3762 1.72409C40.0448 1.72409 39.7733 1.7805 39.5617 1.89332C39.3502 2.00614 39.188 2.14717 39.0752 2.3164C38.9624 2.47858 38.8813 2.64429 38.8319 2.81352C38.7826 2.9757 38.7544 3.1132 38.7473 3.22602C38.7403 3.33884 38.7367 3.39526 38.7367 3.39526H37.7425C37.7425 3.39526 37.746 3.33179 37.7531 3.20487C37.7601 3.07795 37.7848 2.91576 37.8271 2.71833C37.8765 2.52089 37.954 2.31288 38.0598 2.09429C38.1656 1.86864 38.3137 1.6571 38.504 1.45967C38.7015 1.26223 38.9518 1.10005 39.255 0.973125C39.5653 0.846201 39.9425 0.782739 40.3867 0.782739C40.838 0.782739 41.2576 0.877932 41.6454 1.06832C42.0403 1.25165 42.3576 1.52313 42.5973 1.88275C42.8371 2.23531 42.957 2.66897 42.957 3.18372C42.957 3.65615 42.8371 4.08629 42.5973 4.47411C42.3646 4.85488 42.0544 5.2286 41.6666 5.59527C41.2787 5.96194 40.8557 6.35681 40.3973 6.77989L39.3185 7.77413H43.1262V8.71548H37.7848Z" fill="#48525F"/>
<path d="M32.5585 10.3126L36.2287 0H37.1912L33.521 10.3126H32.5585Z" fill="#48525F"/>
<path d="M28.7847 8.82125C28.2347 8.82125 27.7552 8.72253 27.3462 8.52509C26.9443 8.32061 26.6305 8.04913 26.4048 7.71067C26.1792 7.36515 26.0664 6.97733 26.0664 6.5472C26.0664 6.16643 26.1334 5.85264 26.2673 5.60585C26.4013 5.352 26.5564 5.15104 26.7327 5.00296C26.9161 4.84783 27.0747 4.73853 27.2087 4.67507C27.3427 4.61161 27.4096 4.57988 27.4096 4.57988V4.52699C27.4096 4.52699 27.3532 4.50231 27.2404 4.45295C27.1276 4.39654 26.9936 4.30488 26.8385 4.17795C26.6904 4.05103 26.56 3.8818 26.4471 3.67026C26.3343 3.45872 26.2779 3.19782 26.2779 2.88756C26.2779 2.48563 26.3802 2.12602 26.5846 1.80871C26.7891 1.4914 27.0782 1.24108 27.452 1.05774C27.8327 0.874406 28.277 0.782739 28.7847 0.782739C29.2924 0.782739 29.7331 0.874406 30.1068 1.05774C30.4876 1.24108 30.7802 1.4914 30.9847 1.80871C31.1892 2.12602 31.2914 2.48563 31.2914 2.88756C31.2914 3.19782 31.235 3.45872 31.1222 3.67026C31.0093 3.8818 30.8754 4.05103 30.7202 4.17795C30.5722 4.30488 30.4417 4.39654 30.3289 4.45295C30.2161 4.50231 30.1597 4.52699 30.1597 4.52699V4.57988C30.1597 4.57988 30.2267 4.61161 30.3606 4.67507C30.4946 4.73853 30.6497 4.84783 30.826 5.00296C31.0094 5.15104 31.168 5.352 31.302 5.60585C31.436 5.85264 31.5029 6.16643 31.5029 6.5472C31.5029 6.97733 31.3901 7.36515 31.1645 7.71067C30.9388 8.04913 30.6215 8.32061 30.2126 8.52509C29.8106 8.72253 29.3347 8.82125 28.7847 8.82125ZM28.7847 4.17795C29.1231 4.17795 29.4052 4.11449 29.6308 3.98757C29.8565 3.86064 30.0257 3.69846 30.1385 3.50103C30.2513 3.30359 30.3077 3.10263 30.3077 2.89814C30.3077 2.67955 30.2513 2.47153 30.1385 2.27409C30.0257 2.07666 29.8565 1.918 29.6308 1.79813C29.4052 1.67121 29.1231 1.60774 28.7847 1.60774C28.4532 1.60774 28.1712 1.67121 27.9385 1.79813C27.7129 1.918 27.5436 2.07666 27.4308 2.27409C27.318 2.47153 27.2616 2.67955 27.2616 2.89814C27.2616 3.10263 27.318 3.30359 27.4308 3.50103C27.5436 3.69846 27.7129 3.86064 27.9385 3.98757C28.1712 4.11449 28.4532 4.17795 28.7847 4.17795ZM28.7847 7.98567C29.1654 7.98567 29.4827 7.91163 29.7366 7.76355C29.9975 7.61547 30.1914 7.42509 30.3183 7.19239C30.4523 6.95265 30.5193 6.70585 30.5193 6.452C30.5193 6.20521 30.4558 5.97252 30.3289 5.75392C30.202 5.52828 30.0081 5.34495 29.7472 5.20392C29.4933 5.05584 29.1725 4.9818 28.7847 4.9818C28.3968 4.9818 28.0725 5.05584 27.8116 5.20392C27.5577 5.34495 27.3673 5.52828 27.2404 5.75392C27.1135 5.97252 27.05 6.20521 27.05 6.452C27.05 6.70585 27.1135 6.95265 27.2404 7.19239C27.3744 7.42509 27.5683 7.61547 27.8222 7.76355C28.083 7.91163 28.4039 7.98567 28.7847 7.98567Z" fill="#48525F"/>
<path d="M21.8591 8.81059C21.3725 8.81059 20.9424 8.70482 20.5687 8.49328C20.195 8.27469 19.8812 7.98206 19.6273 7.61539C19.3805 7.24167 19.1902 6.81154 19.0562 6.325C18.9293 5.83846 18.8658 5.32724 18.8658 4.79133C18.8658 4.24838 18.9293 3.73716 19.0562 3.25767C19.1902 2.77113 19.3805 2.341 19.6273 1.96728C19.8812 1.59356 20.195 1.30093 20.5687 1.08939C20.9424 0.877849 21.3725 0.772079 21.8591 0.772079C22.3456 0.772079 22.7758 0.877849 23.1495 1.08939C23.5232 1.30093 23.8335 1.59356 24.0803 1.96728C24.3341 2.341 24.5245 2.77113 24.6514 3.25767C24.7854 3.73716 24.8524 4.24838 24.8524 4.79133C24.8524 5.32724 24.7854 5.83846 24.6514 6.325C24.5245 6.81154 24.3341 7.24167 24.0803 7.61539C23.8335 7.98206 23.5232 8.27469 23.1495 8.49328C22.7758 8.70482 22.3456 8.81059 21.8591 8.81059ZM21.8591 7.85866C22.4161 7.85866 22.8745 7.60129 23.2341 7.08654C23.6008 6.56474 23.7841 5.79967 23.7841 4.79133C23.7841 3.783 23.6008 3.02145 23.2341 2.50671C22.8745 1.99196 22.4161 1.73459 21.8591 1.73459C21.302 1.73459 20.8402 1.99196 20.4735 2.50671C20.1139 3.02145 19.9341 3.783 19.9341 4.79133C19.9341 5.79262 20.1139 6.55417 20.4735 7.07597C20.8402 7.59776 21.302 7.85866 21.8591 7.85866Z" fill="#48525F"/>
<path d="M13.3876 10.3126L17.0578 0H18.0203L14.3501 10.3126H13.3876Z" fill="#48525F"/>
<path d="M6.93177 8.71548V7.98567L8.64524 6.39912C9.12473 5.95489 9.54429 5.56706 9.9039 5.23565C10.2706 4.89719 10.5562 4.5693 10.7606 4.25199C10.9651 3.93468 11.0674 3.58564 11.0674 3.20487C11.0674 2.88756 10.9898 2.61961 10.8347 2.40102C10.6866 2.18243 10.4927 2.01672 10.2529 1.9039C10.0203 1.78403 9.77698 1.72409 9.52313 1.72409C9.19172 1.72409 8.92024 1.7805 8.7087 1.89332C8.49716 2.00614 8.33498 2.14717 8.22216 2.3164C8.10934 2.47858 8.02825 2.64429 7.97889 2.81352C7.92953 2.9757 7.90133 3.1132 7.89428 3.22602C7.88723 3.33884 7.8837 3.39526 7.8837 3.39526H6.88946C6.88946 3.39526 6.89299 3.33179 6.90004 3.20487C6.90709 3.07795 6.93177 2.91576 6.97408 2.71833C7.02344 2.52089 7.101 2.31288 7.20677 2.09429C7.31254 1.86864 7.46062 1.6571 7.65101 1.45967C7.84844 1.26223 8.09877 1.10005 8.40197 0.973125C8.71223 0.846201 9.08948 0.782739 9.53371 0.782739C9.98499 0.782739 10.4045 0.877932 10.7924 1.06832C11.1872 1.25165 11.5046 1.52313 11.7443 1.88275C11.984 2.23531 12.1039 2.66897 12.1039 3.18372C12.1039 3.65615 11.984 4.08629 11.7443 4.47411C11.5116 4.85488 11.2013 5.2286 10.8135 5.59527C10.4257 5.96194 10.0026 6.35681 9.54429 6.77989L8.46543 7.77413H12.2732V8.71548H6.93177Z" fill="#48525F"/>
<path d="M0.0423079 8.71548V7.98567L1.75578 6.39912C2.23527 5.95489 2.65482 5.56706 3.01444 5.23565C3.38111 4.89719 3.66669 4.5693 3.87118 4.25199C4.07567 3.93468 4.17791 3.58564 4.17791 3.20487C4.17791 2.88756 4.10035 2.61961 3.94522 2.40102C3.79714 2.18243 3.60323 2.01672 3.36348 1.9039C3.13079 1.78403 2.88752 1.72409 2.63367 1.72409C2.30226 1.72409 2.03078 1.7805 1.81924 1.89332C1.6077 2.00614 1.44552 2.14717 1.3327 2.3164C1.21988 2.47858 1.13879 2.64429 1.08943 2.81352C1.04007 2.9757 1.01187 3.1132 1.00481 3.22602C0.997763 3.33884 0.994237 3.39526 0.994237 3.39526H0C0 3.39526 0.0035256 3.33179 0.0105769 3.20487C0.0176282 3.07795 0.0423079 2.91576 0.0846158 2.71833C0.133975 2.52089 0.21154 2.31288 0.31731 2.09429C0.42308 1.86864 0.571157 1.6571 0.761543 1.45967C0.95898 1.26223 1.2093 1.10005 1.51251 0.973125C1.82277 0.846201 2.20001 0.782739 2.64425 0.782739C3.09553 0.782739 3.51509 0.877932 3.90291 1.06832C4.29778 1.25165 4.61509 1.52313 4.85484 1.88275C5.09458 2.23531 5.21446 2.66897 5.21446 3.18372C5.21446 3.65615 5.09458 4.08629 4.85484 4.47411C4.62214 4.85488 4.31189 5.2286 3.92406 5.59527C3.53624 5.96194 3.11316 6.35681 2.65482 6.77989L1.57597 7.77413H5.38369V8.71548H0.0423079Z" fill="#48525F"/>
</svg>
