<svg width="332" height="26" viewBox="0 0 332 26" fill="none" xmlns="http://www.w3.org/2000/svg">
<path d="M228.311 21.058L228.269 15.3396H229.261L229.198 21.058H228.311ZM228.77 23.1555C228.582 23.1555 228.426 23.0929 228.301 22.9677C228.182 22.8424 228.123 22.6929 228.123 22.519C228.123 22.3381 228.182 22.185 228.301 22.0598C228.426 21.9346 228.582 21.872 228.77 21.872C228.951 21.872 229.104 21.9346 229.229 22.0598C229.354 22.185 229.417 22.3381 229.417 22.519C229.417 22.6929 229.354 22.8424 229.229 22.9677C229.104 23.0929 228.951 23.1555 228.77 23.1555Z" fill="#48525F"/>
<path d="M223.934 23.1659C223.385 23.1659 222.947 22.9955 222.62 22.6546C222.293 22.3137 222.129 21.8407 222.129 21.2354V17.531H223.12V21.1833C223.12 21.545 223.218 21.8233 223.413 22.0181C223.614 22.2129 223.879 22.3102 224.206 22.3102C224.54 22.3102 224.807 22.2233 225.009 22.0494C225.211 21.8755 225.357 21.6528 225.447 21.3815C225.538 21.1102 225.583 20.8319 225.583 20.5467V17.531H226.574V23.0616H225.583V22.2685H225.521C225.479 22.352 225.399 22.4668 225.281 22.6129C225.162 22.752 224.995 22.8807 224.78 22.999C224.564 23.1103 224.282 23.1659 223.934 23.1659Z" fill="#48525F"/>
<path d="M218.053 23.1659C217.462 23.1659 216.964 23.0303 216.561 22.7589C216.157 22.4807 215.851 22.1224 215.643 21.6841C215.434 21.2458 215.33 20.7832 215.33 20.2963C215.33 19.8023 215.434 19.3397 215.643 18.9084C215.851 18.4701 216.157 18.1153 216.561 17.844C216.964 17.5657 217.462 17.4266 218.053 17.4266C218.644 17.4266 219.142 17.5657 219.545 17.844C219.949 18.1153 220.255 18.4701 220.464 18.9084C220.672 19.3397 220.777 19.8023 220.777 20.2963C220.777 20.7832 220.672 21.2458 220.464 21.6841C220.255 22.1224 219.949 22.4807 219.545 22.7589C219.142 23.0303 218.644 23.1659 218.053 23.1659ZM218.053 22.2998C218.429 22.2998 218.742 22.2059 218.992 22.018C219.25 21.8233 219.441 21.5728 219.566 21.2667C219.698 20.9606 219.764 20.6371 219.764 20.2963C219.764 19.9484 219.698 19.6249 219.566 19.3258C219.441 19.0197 219.25 18.7727 218.992 18.5849C218.742 18.3901 218.429 18.2927 218.053 18.2927C217.684 18.2927 217.371 18.3901 217.114 18.5849C216.857 18.7727 216.662 19.0197 216.53 19.3258C216.404 19.6249 216.342 19.9484 216.342 20.2963C216.342 20.6371 216.404 20.9606 216.53 21.2667C216.662 21.5728 216.857 21.8233 217.114 22.018C217.371 22.2059 217.684 22.2998 218.053 22.2998Z" fill="#48525F"/>
<path d="M209.926 25.0964C209.766 25.0964 209.63 25.0895 209.519 25.0756C209.407 25.0616 209.352 25.0547 209.352 25.0547V24.2094C209.352 24.2094 209.407 24.2129 209.519 24.2199C209.637 24.2338 209.762 24.2407 209.894 24.2407C210.305 24.2407 210.639 24.1538 210.896 23.9799C211.16 23.8129 211.383 23.5346 211.564 23.1451L209.425 17.531H210.458L212.054 21.8511L213.661 17.531H214.705L212.566 23.072C212.294 23.7677 211.943 24.279 211.512 24.606C211.087 24.9329 210.559 25.0964 209.926 25.0964Z" fill="#48525F"/>
<path d="M197.998 23.0616V17.531H198.989V18.3345H199.031C199.087 18.2301 199.174 18.1084 199.292 17.9692C199.41 17.8231 199.57 17.6979 199.772 17.5936C199.981 17.4823 200.241 17.4266 200.554 17.4266C200.965 17.4266 201.309 17.5275 201.588 17.7292C201.873 17.924 202.085 18.1884 202.224 18.5223H202.235C202.388 18.2162 202.603 17.9588 202.882 17.7501C203.167 17.5344 203.535 17.4266 203.988 17.4266C204.586 17.4266 205.045 17.6318 205.365 18.0423C205.692 18.4458 205.856 18.9675 205.856 19.6075V23.0616H204.864V19.6597C204.864 19.2493 204.767 18.9188 204.572 18.6684C204.377 18.411 204.095 18.2823 203.727 18.2823C203.407 18.2823 203.149 18.3692 202.955 18.5432C202.767 18.7171 202.631 18.9327 202.548 19.1901C202.464 19.4475 202.422 19.7049 202.422 19.9623V23.0616H201.431V19.6597C201.431 19.2493 201.334 18.9188 201.139 18.6684C200.951 18.411 200.669 18.2823 200.294 18.2823C199.974 18.2823 199.716 18.3692 199.521 18.5432C199.334 18.7171 199.198 18.9362 199.114 19.2006C199.031 19.458 198.989 19.7119 198.989 19.9623V23.0616H197.998Z" fill="#48525F"/>
<path d="M193.922 23.1659C193.331 23.1659 192.833 23.0303 192.43 22.7589C192.026 22.4807 191.72 22.1224 191.511 21.6841C191.303 21.2458 191.198 20.7832 191.198 20.2963C191.198 19.8023 191.303 19.3397 191.511 18.9084C191.72 18.4701 192.026 18.1153 192.43 17.844C192.833 17.5657 193.331 17.4266 193.922 17.4266C194.513 17.4266 195.011 17.5657 195.414 17.844C195.818 18.1153 196.124 18.4701 196.332 18.9084C196.541 19.3397 196.645 19.8023 196.645 20.2963C196.645 20.7832 196.541 21.2458 196.332 21.6841C196.124 22.1224 195.818 22.4807 195.414 22.7589C195.011 23.0303 194.513 23.1659 193.922 23.1659ZM193.922 22.2998C194.297 22.2998 194.611 22.2059 194.861 22.018C195.118 21.8233 195.31 21.5728 195.435 21.2667C195.567 20.9606 195.633 20.6371 195.633 20.2963C195.633 19.9484 195.567 19.6249 195.435 19.3258C195.31 19.0197 195.118 18.7727 194.861 18.5849C194.611 18.3901 194.297 18.2927 193.922 18.2927C193.553 18.2927 193.24 18.3901 192.983 18.5849C192.725 18.7727 192.53 19.0197 192.398 19.3258C192.273 19.6249 192.21 19.9484 192.21 20.2963C192.21 20.6371 192.273 20.9606 192.398 21.2667C192.53 21.5728 192.725 21.8233 192.983 22.018C193.24 22.2059 193.553 22.2998 193.922 22.2998Z" fill="#48525F"/>
<path d="M187.634 23.0616V17.531H188.625V18.2197H188.667C188.785 18.011 188.959 17.8266 189.189 17.6666C189.419 17.5066 189.742 17.4266 190.159 17.4266C190.278 17.4266 190.385 17.4336 190.483 17.4475C190.58 17.4544 190.629 17.4579 190.629 17.4579V18.4075C190.629 18.4075 190.573 18.404 190.462 18.3971C190.358 18.3832 190.246 18.3762 190.128 18.3762C189.648 18.3762 189.276 18.5153 189.012 18.7936C188.754 19.0649 188.625 19.5101 188.625 20.1293V23.0616H187.634Z" fill="#48525F"/>
<path d="M184.256 23.0616V18.3449H183.348V17.531H184.256V16.8527C184.256 16.5605 184.308 16.2753 184.412 15.997C184.517 15.7118 184.691 15.4787 184.934 15.2979C185.178 15.117 185.508 15.0265 185.925 15.0265C186.127 15.0265 186.287 15.0439 186.405 15.0787C186.531 15.1066 186.593 15.1205 186.593 15.1205V15.9031C186.593 15.9031 186.538 15.8927 186.426 15.8718C186.322 15.844 186.2 15.8301 186.061 15.8301C185.741 15.8301 185.525 15.9274 185.414 16.1222C185.303 16.317 185.247 16.5605 185.247 16.8527V17.531H186.531V18.3449H185.247V23.0616H184.256Z" fill="#48525F"/>
<path d="M177.929 23.1659C177.505 23.1659 177.154 23.1068 176.875 22.9885C176.604 22.8702 176.388 22.7242 176.228 22.5502C176.068 22.3694 175.95 22.192 175.874 22.018C175.797 21.8372 175.748 21.6876 175.727 21.5693C175.707 21.4511 175.696 21.3919 175.696 21.3919H176.698C176.698 21.3919 176.708 21.4406 176.729 21.538C176.757 21.6285 176.809 21.7363 176.886 21.8615C176.969 21.9798 177.094 22.0876 177.261 22.185C177.435 22.2754 177.665 22.3207 177.95 22.3207C178.277 22.3207 178.531 22.2441 178.712 22.0911C178.893 21.9311 178.983 21.7363 178.983 21.5067C178.983 21.305 178.91 21.145 178.764 21.0267C178.625 20.9084 178.423 20.818 178.159 20.7554L177.408 20.578C177.129 20.5084 176.868 20.4145 176.625 20.2963C176.381 20.178 176.183 20.018 176.03 19.8162C175.884 19.6075 175.811 19.3501 175.811 19.044C175.811 18.571 175.988 18.1849 176.343 17.8857C176.698 17.5796 177.161 17.4266 177.731 17.4266C178.114 17.4266 178.43 17.4823 178.681 17.5936C178.931 17.6979 179.129 17.8301 179.275 17.9901C179.428 18.1501 179.54 18.3101 179.609 18.4701C179.686 18.6301 179.735 18.7658 179.755 18.8771C179.776 18.9814 179.787 19.0336 179.787 19.0336H178.827C178.827 19.0336 178.816 18.9953 178.795 18.9188C178.775 18.8353 178.726 18.7449 178.649 18.6475C178.58 18.5432 178.472 18.4527 178.326 18.3762C178.18 18.2927 177.985 18.251 177.741 18.251C177.408 18.251 177.164 18.3275 177.011 18.4805C176.858 18.6336 176.781 18.8006 176.781 18.9814C176.781 19.1554 176.851 19.298 176.99 19.4093C177.136 19.5136 177.324 19.5936 177.554 19.6493L178.315 19.8267C178.788 19.938 179.178 20.1223 179.484 20.3797C179.797 20.6302 179.954 20.9919 179.954 21.465C179.954 21.7711 179.874 22.0563 179.714 22.3207C179.554 22.5781 179.324 22.7833 179.025 22.9363C178.726 23.0894 178.361 23.1659 177.929 23.1659Z" fill="#48525F"/>
<path d="M172.173 23.1659C171.721 23.1659 171.328 23.0859 170.994 22.9259C170.667 22.7589 170.395 22.5363 170.18 22.2581C169.971 21.9798 169.815 21.6737 169.71 21.3398C169.606 20.9989 169.554 20.651 169.554 20.2963C169.554 19.9484 169.602 19.6041 169.7 19.2632C169.804 18.9223 169.961 18.6127 170.169 18.3345C170.385 18.0562 170.653 17.837 170.973 17.677C171.3 17.5101 171.686 17.4266 172.131 17.4266C172.604 17.4266 173.022 17.5344 173.383 17.7501C173.745 17.9657 174.03 18.2858 174.239 18.7101C174.448 19.1345 174.552 19.6667 174.552 20.3067V20.5989H170.555C170.576 20.9119 170.649 21.2006 170.775 21.465C170.907 21.7224 171.091 21.9311 171.328 22.0911C171.564 22.2441 171.846 22.3207 172.173 22.3207C172.458 22.3207 172.688 22.2754 172.862 22.185C173.043 22.0876 173.185 21.9763 173.289 21.8511C173.394 21.7259 173.463 21.618 173.498 21.5276C173.54 21.4302 173.561 21.3815 173.561 21.3815H174.49C174.49 21.3815 174.472 21.4441 174.437 21.5693C174.403 21.6876 174.34 21.8337 174.249 22.0076C174.159 22.1815 174.027 22.3589 173.853 22.5398C173.679 22.7137 173.456 22.8633 173.185 22.9885C172.914 23.1068 172.576 23.1659 172.173 23.1659ZM170.566 19.8267H173.582C173.568 19.4649 173.491 19.1727 173.352 18.9501C173.213 18.7206 173.036 18.5501 172.82 18.4388C172.604 18.3275 172.375 18.2718 172.131 18.2718C171.693 18.2718 171.335 18.4145 171.056 18.6997C170.778 18.978 170.615 19.3536 170.566 19.8267Z" fill="#48525F"/>
<path d="M163.006 25.1068V17.531H163.997V18.4075H164.06C164.144 18.2753 164.255 18.1327 164.394 17.9797C164.54 17.8266 164.731 17.6979 164.968 17.5936C165.204 17.4823 165.497 17.4266 165.844 17.4266C166.262 17.4266 166.627 17.5101 166.94 17.677C167.253 17.837 167.514 18.0562 167.723 18.3345C167.932 18.6058 168.088 18.9119 168.192 19.2527C168.297 19.5936 168.349 19.9415 168.349 20.2963C168.349 20.651 168.297 20.9989 168.192 21.3398C168.088 21.6806 167.932 21.9902 167.723 22.2685C167.514 22.5398 167.253 22.7589 166.94 22.9259C166.627 23.0859 166.262 23.1659 165.844 23.1659C165.497 23.1659 165.204 23.1103 164.968 22.9989C164.731 22.8876 164.54 22.7555 164.394 22.6024C164.255 22.4494 164.144 22.3102 164.06 22.185H163.997V25.1068H163.006ZM164.018 20.2963C164.018 20.6302 164.077 20.9537 164.196 21.2667C164.321 21.5728 164.505 21.8267 164.749 22.0285C164.999 22.2233 165.309 22.3207 165.678 22.3207C166.053 22.3207 166.363 22.2233 166.606 22.0285C166.857 21.8267 167.041 21.5728 167.159 21.2667C167.285 20.9537 167.347 20.6302 167.347 20.2963C167.347 19.9554 167.285 19.6319 167.159 19.3258C167.041 19.0197 166.857 18.7693 166.606 18.5745C166.363 18.3727 166.053 18.2718 165.678 18.2718C165.309 18.2718 164.999 18.3727 164.749 18.5745C164.505 18.7693 164.321 19.0197 164.196 19.3258C164.077 19.6319 164.018 19.9554 164.018 20.2963Z" fill="#48525F"/>
<path d="M160.797 16.477C160.609 16.477 160.453 16.4144 160.328 16.2892C160.209 16.164 160.15 16.0144 160.15 15.8405C160.15 15.6596 160.209 15.5066 160.328 15.3814C160.453 15.2561 160.609 15.1935 160.797 15.1935C160.978 15.1935 161.131 15.2561 161.256 15.3814C161.382 15.5066 161.444 15.6596 161.444 15.8405C161.444 16.0144 161.382 16.164 161.256 16.2892C161.131 16.4144 160.978 16.477 160.797 16.477ZM160.307 23.0616V17.531H161.298V23.0616H160.307Z" fill="#48525F"/>
<path d="M156.37 23.1659C155.918 23.1659 155.521 23.0859 155.18 22.9259C154.839 22.7589 154.554 22.5398 154.325 22.2685C154.102 21.9902 153.932 21.6806 153.813 21.3398C153.702 20.9989 153.646 20.651 153.646 20.2963C153.646 19.9415 153.702 19.5971 153.813 19.2632C153.925 18.9223 154.092 18.6127 154.314 18.3345C154.544 18.0562 154.829 17.837 155.17 17.677C155.511 17.5101 155.911 17.4266 156.37 17.4266C156.815 17.4266 157.184 17.4927 157.476 17.6249C157.768 17.757 158.001 17.924 158.175 18.1258C158.356 18.3205 158.488 18.5188 158.572 18.7206C158.662 18.9153 158.721 19.0788 158.749 19.211C158.777 19.3432 158.791 19.4093 158.791 19.4093H157.831C157.831 19.4093 157.813 19.3536 157.779 19.2423C157.744 19.124 157.678 18.9919 157.58 18.8458C157.483 18.6997 157.337 18.571 157.142 18.4597C156.947 18.3414 156.69 18.2823 156.37 18.2823C155.987 18.2823 155.664 18.3797 155.399 18.5745C155.142 18.7623 154.947 19.0093 154.815 19.3154C154.69 19.6215 154.627 19.9484 154.627 20.2963C154.627 20.6441 154.69 20.9711 154.815 21.2772C154.947 21.5832 155.142 21.8337 155.399 22.0285C155.664 22.2163 155.987 22.3102 156.37 22.3102C156.69 22.3102 156.947 22.2546 157.142 22.1433C157.337 22.025 157.483 21.8928 157.58 21.7467C157.678 21.6006 157.744 21.4719 157.779 21.3606C157.813 21.2424 157.831 21.1832 157.831 21.1832H158.791C158.791 21.1832 158.777 21.2493 158.749 21.3815C158.721 21.5137 158.662 21.6806 158.572 21.8824C158.488 22.0772 158.356 22.2754 158.175 22.4772C158.001 22.672 157.768 22.8355 157.476 22.9676C157.184 23.0998 156.815 23.1659 156.37 23.1659Z" fill="#48525F"/>
<path d="M150.07 23.1659C149.617 23.1659 149.224 23.0859 148.89 22.9259C148.564 22.7589 148.292 22.5363 148.077 22.2581C147.868 21.9798 147.711 21.6737 147.607 21.3398C147.503 20.9989 147.45 20.651 147.45 20.2963C147.45 19.9484 147.499 19.6041 147.597 19.2632C147.701 18.9223 147.857 18.6127 148.066 18.3345C148.282 18.0562 148.55 17.837 148.87 17.677C149.197 17.5101 149.583 17.4266 150.028 17.4266C150.501 17.4266 150.918 17.5344 151.28 17.7501C151.642 17.9657 151.927 18.2858 152.136 18.7101C152.345 19.1345 152.449 19.6667 152.449 20.3067V20.5989H148.452C148.473 20.9119 148.546 21.2006 148.671 21.465C148.804 21.7224 148.988 21.9311 149.224 22.0911C149.461 22.2441 149.743 22.3207 150.07 22.3207C150.355 22.3207 150.584 22.2754 150.758 22.185C150.939 22.0876 151.082 21.9763 151.186 21.8511C151.291 21.7259 151.36 21.618 151.395 21.5276C151.437 21.4302 151.458 21.3815 151.458 21.3815H152.386C152.386 21.3815 152.369 21.4441 152.334 21.5693C152.299 21.6876 152.237 21.8337 152.146 22.0076C152.056 22.1815 151.924 22.3589 151.75 22.5398C151.576 22.7137 151.353 22.8633 151.082 22.9885C150.811 23.1068 150.473 23.1659 150.07 23.1659ZM148.463 19.8267H151.478C151.464 19.4649 151.388 19.1727 151.249 18.9501C151.11 18.7206 150.932 18.5501 150.717 18.4388C150.501 18.3275 150.271 18.2718 150.028 18.2718C149.59 18.2718 149.231 18.4145 148.953 18.6997C148.675 18.978 148.511 19.3536 148.463 19.8267Z" fill="#48525F"/>
<path d="M143.886 23.0616V17.531H144.877V18.2197H144.919C145.038 18.011 145.211 17.8266 145.441 17.6666C145.671 17.5066 145.994 17.4266 146.411 17.4266C146.53 17.4266 146.638 17.4336 146.735 17.4475C146.832 17.4544 146.881 17.4579 146.881 17.4579V18.4075C146.881 18.4075 146.825 18.404 146.714 18.3971C146.61 18.3832 146.498 18.3762 146.38 18.3762C145.9 18.3762 145.528 18.5153 145.264 18.7936C145.006 19.0649 144.877 19.5101 144.877 20.1293V23.0616H143.886Z" fill="#48525F"/>
<path d="M133.821 23.0616L132.036 17.531H133.048L134.363 21.7259L135.741 17.531H136.68L138.047 21.7259L139.372 17.531H140.384L138.589 23.0616H137.525L136.21 18.9815L134.895 23.0616H133.821Z" fill="#48525F"/>
<path d="M128.873 23.1659C128.421 23.1659 128.028 23.0859 127.694 22.9259C127.367 22.7589 127.096 22.5363 126.88 22.2581C126.672 21.9798 126.515 21.6737 126.411 21.3398C126.306 20.9989 126.254 20.651 126.254 20.2963C126.254 19.9484 126.303 19.6041 126.4 19.2632C126.505 18.9223 126.661 18.6127 126.87 18.3345C127.086 18.0562 127.353 17.837 127.673 17.677C128 17.5101 128.386 17.4266 128.832 17.4266C129.305 17.4266 129.722 17.5344 130.084 17.7501C130.446 17.9657 130.731 18.2858 130.94 18.7101C131.148 19.1345 131.253 19.6667 131.253 20.3067V20.5989H127.256C127.277 20.9119 127.35 21.2006 127.475 21.465C127.607 21.7224 127.792 21.9311 128.028 22.0911C128.265 22.2441 128.546 22.3207 128.873 22.3207C129.159 22.3207 129.388 22.2754 129.562 22.185C129.743 22.0876 129.886 21.9763 129.99 21.8511C130.094 21.7259 130.164 21.618 130.199 21.5276C130.24 21.4302 130.261 21.3815 130.261 21.3815H131.19C131.19 21.3815 131.173 21.4441 131.138 21.5693C131.103 21.6876 131.04 21.8337 130.95 22.0076C130.86 22.1815 130.727 22.3589 130.553 22.5398C130.38 22.7137 130.157 22.8633 129.886 22.9885C129.614 23.1068 129.277 23.1659 128.873 23.1659ZM127.266 19.8267H130.282C130.268 19.4649 130.192 19.1727 130.053 18.9501C129.913 18.7206 129.736 18.5501 129.52 18.4388C129.305 18.3275 129.075 18.2718 128.832 18.2718C128.393 18.2718 128.035 18.4145 127.757 18.6997C127.479 18.978 127.315 19.3536 127.266 19.8267Z" fill="#48525F"/>
<path d="M120.377 23.0616V17.531H121.368V18.3345H121.431C121.479 18.251 121.559 18.1362 121.671 17.9901C121.789 17.844 121.956 17.7153 122.171 17.604C122.387 17.4857 122.658 17.4266 122.985 17.4266C123.389 17.4266 123.733 17.5205 124.018 17.7083C124.304 17.8892 124.519 18.1362 124.665 18.4492C124.818 18.7623 124.895 19.1136 124.895 19.5032V23.0616H123.904V19.5658C123.904 19.1971 123.799 18.891 123.591 18.6475C123.389 18.404 123.093 18.2823 122.704 18.2823C122.391 18.2823 122.137 18.3623 121.942 18.5223C121.747 18.6753 121.601 18.8806 121.504 19.138C121.413 19.3884 121.368 19.6562 121.368 19.9415V23.0616H120.377Z" fill="#48525F"/>
<path d="M114.24 23.1659C113.788 23.1659 113.395 23.0859 113.061 22.9259C112.734 22.7589 112.462 22.5363 112.247 22.2581C112.038 21.9798 111.881 21.6737 111.777 21.3398C111.673 20.9989 111.621 20.651 111.621 20.2963C111.621 19.9484 111.669 19.6041 111.767 19.2632C111.871 18.9223 112.028 18.6127 112.236 18.3345C112.452 18.0562 112.72 17.837 113.04 17.677C113.367 17.5101 113.753 17.4266 114.198 17.4266C114.671 17.4266 115.088 17.5344 115.45 17.7501C115.812 17.9657 116.097 18.2858 116.306 18.7101C116.515 19.1345 116.619 19.6667 116.619 20.3067V20.5989H112.622C112.643 20.9119 112.716 21.2006 112.841 21.465C112.974 21.7224 113.158 21.9311 113.395 22.0911C113.631 22.2441 113.913 22.3207 114.24 22.3207C114.525 22.3207 114.755 22.2754 114.928 22.185C115.109 22.0876 115.252 21.9763 115.356 21.8511C115.461 21.7259 115.53 21.618 115.565 21.5276C115.607 21.4302 115.628 21.3815 115.628 21.3815H116.556C116.556 21.3815 116.539 21.4441 116.504 21.5693C116.469 21.6876 116.407 21.8337 116.316 22.0076C116.226 22.1815 116.094 22.3589 115.92 22.5398C115.746 22.7137 115.523 22.8633 115.252 22.9885C114.981 23.1068 114.643 23.1659 114.24 23.1659ZM112.633 19.8267H115.648C115.635 19.4649 115.558 19.1727 115.419 18.9501C115.28 18.7206 115.102 18.5501 114.887 18.4388C114.671 18.3275 114.441 18.2718 114.198 18.2718C113.76 18.2718 113.401 18.4145 113.123 18.6997C112.845 18.978 112.681 19.3536 112.633 19.8267Z" fill="#48525F"/>
<path d="M108.056 23.0616V17.531H109.048V18.2197H109.089C109.208 18.011 109.382 17.8266 109.611 17.6666C109.841 17.5066 110.164 17.4266 110.582 17.4266C110.7 17.4266 110.808 17.4336 110.905 17.4475C111.002 17.4544 111.051 17.4579 111.051 17.4579V18.4075C111.051 18.4075 110.995 18.404 110.884 18.3971C110.78 18.3832 110.669 18.3762 110.55 18.3762C110.07 18.3762 109.698 18.5153 109.434 18.7936C109.176 19.0649 109.048 19.5101 109.048 20.1293V23.0616H108.056Z" fill="#48525F"/>
<path d="M103.98 23.1659C103.389 23.1659 102.892 23.0303 102.488 22.7589C102.085 22.4807 101.779 22.1224 101.57 21.6841C101.361 21.2458 101.257 20.7832 101.257 20.2963C101.257 19.8023 101.361 19.3397 101.57 18.9084C101.779 18.4701 102.085 18.1153 102.488 17.844C102.892 17.5657 103.389 17.4266 103.98 17.4266C104.572 17.4266 105.069 17.5657 105.473 17.844C105.876 18.1153 106.182 18.4701 106.391 18.9084C106.6 19.3397 106.704 19.8023 106.704 20.2963C106.704 20.7832 106.6 21.2458 106.391 21.6841C106.182 22.1224 105.876 22.4807 105.473 22.7589C105.069 23.0303 104.572 23.1659 103.98 23.1659ZM103.98 22.2998C104.356 22.2998 104.669 22.2059 104.919 22.018C105.177 21.8233 105.368 21.5728 105.493 21.2667C105.626 20.9606 105.692 20.6371 105.692 20.2963C105.692 19.9484 105.626 19.6249 105.493 19.3258C105.368 19.0197 105.177 18.7727 104.919 18.5849C104.669 18.3901 104.356 18.2927 103.98 18.2927C103.612 18.2927 103.299 18.3901 103.041 18.5849C102.784 18.7727 102.589 19.0197 102.457 19.3258C102.332 19.6249 102.269 19.9484 102.269 20.2963C102.269 20.6371 102.332 20.9606 102.457 21.2667C102.589 21.5728 102.784 21.8233 103.041 22.018C103.299 22.2059 103.612 22.2998 103.98 22.2998Z" fill="#48525F"/>
<path d="M92.047 23.0616V17.531H93.0384V18.3345H93.0801C93.1357 18.2301 93.2227 18.1084 93.341 17.9692C93.4592 17.8231 93.6192 17.6979 93.821 17.5936C94.0297 17.4823 94.2906 17.4266 94.6036 17.4266C95.0141 17.4266 95.3584 17.5275 95.6367 17.7292C95.9219 17.924 96.1341 18.1884 96.2732 18.5223H96.2837C96.4367 18.2162 96.6524 17.9588 96.9306 17.7501C97.2159 17.5344 97.5846 17.4266 98.0368 17.4266C98.6351 17.4266 99.0942 17.6318 99.4142 18.0423C99.7412 18.4458 99.9047 18.9675 99.9047 19.6075V23.0616H98.9133V19.6597C98.9133 19.2493 98.8159 18.9188 98.6211 18.6684C98.4263 18.411 98.1446 18.2823 97.7759 18.2823C97.4559 18.2823 97.1985 18.3692 97.0037 18.5432C96.8159 18.7171 96.6802 18.9327 96.5967 19.1901C96.5132 19.4475 96.4715 19.7049 96.4715 19.9623V23.0616H95.4802V19.6597C95.4802 19.2493 95.3828 18.9188 95.188 18.6684C95.0002 18.411 94.7184 18.2823 94.3427 18.2823C94.0227 18.2823 93.7653 18.3692 93.5705 18.5432C93.3827 18.7171 93.2471 18.9362 93.1636 19.2006C93.0801 19.458 93.0384 19.7119 93.0384 19.9623V23.0616H92.047Z" fill="#48525F"/>
<path d="M85.5976 25.2529C85.1384 25.2529 84.7558 25.1903 84.4497 25.0651C84.1436 24.9468 83.8966 24.7938 83.7088 24.606C83.5279 24.4251 83.3923 24.2442 83.3018 24.0633C83.2114 23.8825 83.1523 23.7294 83.1244 23.6042C83.0966 23.4859 83.0827 23.4268 83.0827 23.4268H84.074C84.074 23.4268 84.0914 23.4755 84.1262 23.5729C84.161 23.6703 84.2271 23.7816 84.3245 23.9068C84.4288 24.032 84.5819 24.1433 84.7836 24.2407C84.9854 24.3381 85.2567 24.3868 85.5976 24.3868C86.001 24.3868 86.3176 24.3068 86.5472 24.1468C86.7767 23.9938 86.9402 23.792 87.0376 23.5416C87.1419 23.2911 87.1941 23.0268 87.1941 22.7485V22.112H87.142C87.0724 22.2302 86.9611 22.3659 86.808 22.5189C86.6619 22.665 86.4671 22.7937 86.2237 22.905C85.9802 23.0094 85.681 23.0616 85.3262 23.0616C84.9088 23.0616 84.5436 22.9816 84.2306 22.8215C83.9175 22.6615 83.6566 22.4459 83.4479 22.1746C83.2462 21.9033 83.0931 21.6006 82.9888 21.2667C82.8844 20.9328 82.8323 20.5919 82.8323 20.2441C82.8323 19.8962 82.8844 19.5554 82.9888 19.2214C83.0931 18.8875 83.2462 18.5849 83.4479 18.3136C83.6566 18.0423 83.9175 17.8266 84.2306 17.6666C84.5436 17.5066 84.9088 17.4266 85.3262 17.4266C85.681 17.4266 85.9802 17.4823 86.2237 17.5936C86.4671 17.6979 86.6619 17.8231 86.808 17.9692C86.9611 18.1153 87.0724 18.251 87.142 18.3762H87.1941V17.531H88.1855V22.7381C88.1855 23.5103 87.9594 24.1225 87.5072 24.5746C87.0619 25.0268 86.4254 25.2529 85.5976 25.2529ZM85.5141 22.2163C85.8828 22.2163 86.1889 22.1224 86.4324 21.9346C86.6828 21.7398 86.8672 21.4928 86.9854 21.1937C87.1106 20.8945 87.1733 20.578 87.1733 20.2441C87.1733 19.9102 87.1106 19.5936 86.9854 19.2945C86.8672 18.9884 86.6828 18.7414 86.4324 18.5536C86.1889 18.3658 85.8828 18.2718 85.5141 18.2718C85.1454 18.2718 84.8358 18.3658 84.5854 18.5536C84.3349 18.7414 84.1471 18.9884 84.0219 19.2945C83.9036 19.5936 83.8445 19.9102 83.8445 20.2441C83.8445 20.578 83.9036 20.8945 84.0219 21.1937C84.1471 21.4928 84.3349 21.7398 84.5854 21.9346C84.8358 22.1224 85.1454 22.2163 85.5141 22.2163Z" fill="#48525F"/>
<path d="M76.9548 23.0616V17.531H77.9461V18.3345H78.0088C78.0574 18.251 78.1375 18.1362 78.2488 17.9901C78.367 17.844 78.534 17.7153 78.7496 17.604C78.9653 17.4857 79.2366 17.4266 79.5636 17.4266C79.9671 17.4266 80.3114 17.5205 80.5967 17.7083C80.8819 17.8892 81.0975 18.1362 81.2436 18.4492C81.3967 18.7623 81.4732 19.1136 81.4732 19.5032V23.0616H80.4819V19.5658C80.4819 19.1971 80.3775 18.891 80.1688 18.6475C79.9671 18.404 79.6714 18.2823 79.2818 18.2823C78.9688 18.2823 78.7149 18.3623 78.5201 18.5223C78.3253 18.6753 78.1792 18.8806 78.0818 19.138C77.9914 19.3884 77.9461 19.6562 77.9461 19.9415V23.0616H76.9548Z" fill="#48525F"/>
<path d="M74.8503 16.477C74.6625 16.477 74.506 16.4144 74.3808 16.2892C74.2625 16.164 74.2034 16.0144 74.2034 15.8405C74.2034 15.6596 74.2625 15.5066 74.3808 15.3814C74.506 15.2561 74.6625 15.1935 74.8503 15.1935C75.0312 15.1935 75.1843 15.2561 75.3095 15.3814C75.4347 15.5066 75.4973 15.6596 75.4973 15.8405C75.4973 16.0144 75.4347 16.164 75.3095 16.2892C75.1843 16.4144 75.0312 16.477 74.8503 16.477ZM74.3599 23.0616V17.531H75.3512V23.0616H74.3599Z" fill="#48525F"/>
<path d="M70.4714 23.1659C70.0192 23.1659 69.6261 23.0859 69.2922 22.9259C68.9653 22.7589 68.6939 22.5363 68.4783 22.2581C68.2696 21.9798 68.1131 21.6737 68.0087 21.3398C67.9044 20.9989 67.8522 20.651 67.8522 20.2963C67.8522 19.9484 67.9009 19.6041 67.9983 19.2632C68.1026 18.9223 68.2591 18.6127 68.4678 18.3345C68.6835 18.0562 68.9513 17.837 69.2713 17.677C69.5983 17.5101 69.9844 17.4266 70.4296 17.4266C70.9027 17.4266 71.3201 17.5344 71.6819 17.7501C72.0436 17.9657 72.3288 18.2858 72.5375 18.7101C72.7462 19.1345 72.8506 19.6667 72.8506 20.3067V20.5989H68.8539C68.8748 20.9119 68.9479 21.2006 69.0731 21.465C69.2053 21.7224 69.3896 21.9311 69.6261 22.0911C69.8627 22.2441 70.1444 22.3207 70.4714 22.3207C70.7566 22.3207 70.9862 22.2754 71.1601 22.185C71.341 22.0876 71.4836 21.9763 71.5879 21.8511C71.6923 21.7259 71.7619 21.618 71.7966 21.5276C71.8384 21.4302 71.8593 21.3815 71.8593 21.3815H72.788C72.788 21.3815 72.7706 21.4441 72.7358 21.5693C72.701 21.6876 72.6384 21.8337 72.548 22.0076C72.4575 22.1815 72.3254 22.3589 72.1514 22.5398C71.9775 22.7137 71.7549 22.8633 71.4836 22.9885C71.2123 23.1068 70.8749 23.1659 70.4714 23.1659ZM68.8644 19.8267H71.8801C71.8662 19.4649 71.7897 19.1727 71.6505 18.9501C71.5114 18.7206 71.334 18.5501 71.1184 18.4388C70.9027 18.3275 70.6731 18.2718 70.4296 18.2718C69.9914 18.2718 69.6331 18.4145 69.3548 18.6997C69.0766 18.978 68.9131 19.3536 68.8644 19.8267Z" fill="#48525F"/>
<path d="M64.2756 23.1659C63.8234 23.1659 63.4304 23.0859 63.0965 22.9259C62.7695 22.7589 62.4982 22.5363 62.2825 22.2581C62.0738 21.9798 61.9173 21.6737 61.8129 21.3398C61.7086 20.9989 61.6564 20.651 61.6564 20.2963C61.6564 19.9484 61.7051 19.6041 61.8025 19.2632C61.9069 18.9223 62.0634 18.6127 62.2721 18.3345C62.4877 18.0562 62.7556 17.837 63.0756 17.677C63.4026 17.5101 63.7887 17.4266 64.2339 17.4266C64.7069 17.4266 65.1243 17.5344 65.4861 17.7501C65.8478 17.9657 66.1331 18.2858 66.3418 18.7101C66.5505 19.1345 66.6548 19.6667 66.6548 20.3067V20.5989H62.6582C62.6791 20.9119 62.7521 21.2006 62.8773 21.465C63.0095 21.7224 63.1939 21.9311 63.4304 22.0911C63.6669 22.2441 63.9487 22.3207 64.2756 22.3207C64.5609 22.3207 64.7904 22.2754 64.9643 22.185C65.1452 22.0876 65.2878 21.9763 65.3922 21.8511C65.4965 21.7259 65.5661 21.618 65.6009 21.5276C65.6426 21.4302 65.6635 21.3815 65.6635 21.3815H66.5922C66.5922 21.3815 66.5748 21.4441 66.54 21.5693C66.5053 21.6876 66.4426 21.8337 66.3522 22.0076C66.2618 22.1815 66.1296 22.3589 65.9557 22.5398C65.7818 22.7137 65.5591 22.8633 65.2878 22.9885C65.0165 23.1068 64.6791 23.1659 64.2756 23.1659ZM62.6686 19.8267H65.6844C65.6705 19.4649 65.5939 19.1727 65.4548 18.9501C65.3157 18.7206 65.1383 18.5501 64.9226 18.4388C64.7069 18.3275 64.4774 18.2718 64.2339 18.2718C63.7956 18.2718 63.4373 18.4145 63.1591 18.6997C62.8808 18.978 62.7173 19.3536 62.6686 19.8267Z" fill="#48525F"/>
<path d="M58.5879 23.1659C58.1636 23.1659 57.8123 23.1068 57.534 22.9885C57.2627 22.8702 57.047 22.7242 56.887 22.5502C56.727 22.3694 56.6087 22.192 56.5322 22.018C56.4557 21.8372 56.407 21.6876 56.3861 21.5693C56.3652 21.4511 56.3548 21.3919 56.3548 21.3919H57.3566C57.3566 21.3919 57.367 21.4406 57.3879 21.538C57.4157 21.6285 57.4679 21.7363 57.5444 21.8615C57.6279 21.9798 57.7531 22.0876 57.9201 22.185C58.094 22.2754 58.3236 22.3207 58.6088 22.3207C58.9358 22.3207 59.1897 22.2441 59.3706 22.0911C59.5514 21.9311 59.6419 21.7363 59.6419 21.5067C59.6419 21.305 59.5688 21.145 59.4227 21.0267C59.2836 20.9084 59.0819 20.818 58.8175 20.7554L58.0662 20.578C57.7879 20.5084 57.527 20.4145 57.2835 20.2963C57.0401 20.178 56.8418 20.018 56.6887 19.8162C56.5426 19.6075 56.4696 19.3501 56.4696 19.044C56.4696 18.571 56.647 18.1849 57.0018 17.8857C57.3566 17.5796 57.8192 17.4266 58.3897 17.4266C58.7723 17.4266 59.0888 17.4823 59.3393 17.5936C59.5897 17.6979 59.788 17.8301 59.9341 17.9901C60.0871 18.1501 60.1984 18.3101 60.268 18.4701C60.3445 18.6301 60.3932 18.7658 60.4141 18.8771C60.4349 18.9814 60.4454 19.0336 60.4454 19.0336H59.4853C59.4853 19.0336 59.4749 18.9953 59.454 18.9188C59.4332 18.8353 59.3845 18.7449 59.3079 18.6475C59.2384 18.5432 59.1305 18.4527 58.9845 18.3762C58.8384 18.2927 58.6436 18.251 58.4001 18.251C58.0662 18.251 57.8227 18.3275 57.6696 18.4805C57.5166 18.6336 57.4401 18.8006 57.4401 18.9814C57.4401 19.1554 57.5096 19.298 57.6488 19.4093C57.7949 19.5136 57.9827 19.5936 58.2123 19.6493L58.974 19.8267C59.4471 19.938 59.8367 20.1223 60.1428 20.3797C60.4558 20.6302 60.6123 20.9919 60.6123 21.465C60.6123 21.7711 60.5323 22.0563 60.3723 22.3207C60.2123 22.5781 59.9828 22.7833 59.6836 22.9363C59.3845 23.0894 59.0192 23.1659 58.5879 23.1659Z" fill="#48525F"/>
<path d="M50.0826 23.1659C49.4913 23.1659 48.9939 23.0303 48.5904 22.7589C48.1869 22.4807 47.8808 22.1224 47.6721 21.6841C47.4634 21.2458 47.3591 20.7832 47.3591 20.2963C47.3591 19.8023 47.4634 19.3397 47.6721 18.9084C47.8808 18.4701 48.1869 18.1153 48.5904 17.844C48.9939 17.5657 49.4913 17.4266 50.0826 17.4266C50.6739 17.4266 51.1713 17.5657 51.5748 17.844C51.9783 18.1153 52.2844 18.4701 52.4931 18.9084C52.7018 19.3397 52.8062 19.8023 52.8062 20.2963C52.8062 20.7832 52.7018 21.2458 52.4931 21.6841C52.2844 22.1224 51.9783 22.4807 51.5748 22.7589C51.1713 23.0303 50.6739 23.1659 50.0826 23.1659ZM50.0826 22.2998C50.4583 22.2998 50.7713 22.2059 51.0218 22.018C51.2792 21.8233 51.4705 21.5728 51.5957 21.2667C51.7279 20.9606 51.794 20.6371 51.794 20.2963C51.794 19.9484 51.7279 19.6249 51.5957 19.3258C51.4705 19.0197 51.2792 18.7727 51.0218 18.5849C50.7713 18.3901 50.4583 18.2927 50.0826 18.2927C49.7139 18.2927 49.4009 18.3901 49.1435 18.5849C48.8861 18.7727 48.6913 19.0197 48.5591 19.3258C48.4339 19.6249 48.3713 19.9484 48.3713 20.2963C48.3713 20.6371 48.4339 20.9606 48.5591 21.2667C48.6913 21.5728 48.8861 21.8233 49.1435 22.018C49.4009 22.2059 49.7139 22.2998 50.0826 22.2998Z" fill="#48525F"/>
<path d="M45.5516 23.1659C44.9812 23.1659 44.5499 23.0198 44.2577 22.7276C43.9724 22.4354 43.8298 22.025 43.8298 21.4963V18.3449H42.8385V17.531H43.8298V16.1431H44.8212V17.531H46.1673V18.3449H44.8212V21.4963C44.8212 21.7746 44.8977 21.9798 45.0507 22.112C45.2038 22.2372 45.4264 22.2998 45.7186 22.2998C45.8716 22.2998 46.0177 22.2894 46.1569 22.2685C46.296 22.2476 46.3656 22.2372 46.3656 22.2372V23.0824C46.3656 23.0824 46.2856 23.0963 46.1256 23.1242C45.9656 23.152 45.7742 23.1659 45.5516 23.1659Z" fill="#48525F"/>
<path d="M36.3916 23.1659C35.9742 23.1659 35.6089 23.0859 35.2959 22.9259C34.9828 22.759 34.7219 22.5398 34.5132 22.2685C34.3045 21.9903 34.148 21.6807 34.0437 21.3398C33.9393 20.9989 33.8871 20.6511 33.8871 20.2963C33.8871 19.9415 33.9393 19.5937 34.0437 19.2528C34.148 18.9119 34.3045 18.6058 34.5132 18.3345C34.7219 18.0562 34.9828 17.8371 35.2959 17.6771C35.6089 17.5101 35.9742 17.4266 36.3916 17.4266C36.7394 17.4266 37.0316 17.4823 37.2681 17.5936C37.5046 17.7049 37.696 17.8371 37.842 17.9901C37.9881 18.1362 38.0994 18.2754 38.176 18.4075H38.2386V15.1309H39.2299V23.0616H38.2386V22.185H38.176C38.0994 22.3172 37.9881 22.4598 37.842 22.6129C37.696 22.7659 37.5046 22.8981 37.2681 23.0094C37.0316 23.1138 36.7394 23.1659 36.3916 23.1659ZM36.5585 22.3207C36.9272 22.3207 37.2333 22.2233 37.4768 22.0285C37.7273 21.8268 37.9116 21.5729 38.0299 21.2668C38.1551 20.9537 38.2177 20.6302 38.2177 20.2963C38.2177 19.9554 38.1551 19.6319 38.0299 19.3258C37.9116 19.0197 37.7273 18.7693 37.4768 18.5745C37.2333 18.3728 36.9272 18.2719 36.5585 18.2719C36.1898 18.2719 35.8802 18.3728 35.6298 18.5745C35.3794 18.7693 35.1915 19.0197 35.0663 19.3258C34.948 19.6319 34.8889 19.9554 34.8889 20.2963C34.8889 20.6302 34.948 20.9537 35.0663 21.2668C35.1915 21.5729 35.3794 21.8268 35.6298 22.0285C35.8802 22.2233 36.1898 22.3207 36.5585 22.3207Z" fill="#48525F"/>
<path d="M30.323 23.0616V17.531H31.3143V18.2197H31.3561C31.4743 18.011 31.6482 17.8266 31.8778 17.6666C32.1074 17.5066 32.4309 17.4266 32.8483 17.4266C32.9665 17.4266 33.0744 17.4336 33.1718 17.4475C33.2692 17.4544 33.3179 17.4579 33.3179 17.4579V18.4075C33.3179 18.4075 33.2622 18.404 33.1509 18.3971C33.0465 18.3832 32.9352 18.3762 32.817 18.3762C32.337 18.3762 31.9648 18.5153 31.7004 18.7936C31.443 19.0649 31.3143 19.5101 31.3143 20.1293V23.0616H30.323Z" fill="#48525F"/>
<path d="M26.0278 17.4266C26.3756 17.4266 26.6678 17.4823 26.9043 17.5936C27.1409 17.7049 27.3322 17.837 27.4783 17.9901C27.6244 18.1362 27.7357 18.2753 27.8122 18.4075H27.8748V17.531H28.8661V23.0616H27.8748V22.185H27.8122C27.7357 22.3172 27.6244 22.4598 27.4783 22.6128C27.3322 22.7659 27.1409 22.8981 26.9043 23.0094C26.6678 23.1137 26.3756 23.1659 26.0278 23.1659C25.6104 23.1659 25.2452 23.0859 24.9321 22.9259C24.6191 22.7589 24.3582 22.5398 24.1495 22.2685C23.9408 21.9902 23.7842 21.6806 23.6799 21.3398C23.5755 20.9989 23.5234 20.651 23.5234 20.2963C23.5234 19.9415 23.5755 19.5936 23.6799 19.2527C23.7842 18.9119 23.9408 18.6058 24.1495 18.3345C24.3582 18.0562 24.6191 17.837 24.9321 17.677C25.2452 17.5101 25.6104 17.4266 26.0278 17.4266ZM26.1948 18.2718C25.826 18.2718 25.5165 18.3727 25.266 18.5745C25.0156 18.7693 24.8278 19.0197 24.7025 19.3258C24.5843 19.6319 24.5251 19.9554 24.5251 20.2963C24.5251 20.6302 24.5843 20.9537 24.7025 21.2667C24.8278 21.5728 25.0156 21.8267 25.266 22.0285C25.5165 22.2233 25.826 22.3207 26.1948 22.3207C26.5635 22.3207 26.8696 22.2233 27.113 22.0285C27.3635 21.8267 27.5478 21.5728 27.6661 21.2667C27.7913 20.9537 27.8539 20.6302 27.8539 20.2963C27.8539 19.9554 27.7913 19.6319 27.6661 19.3258C27.5478 19.0197 27.3635 18.7693 27.113 18.5745C26.8696 18.3727 26.5635 18.2718 26.1948 18.2718Z" fill="#48525F"/>
<path d="M16.171 23.0616L14.3866 17.531H15.3988L16.7137 21.7259L18.0911 17.531H19.0302L20.3972 21.7259L21.7225 17.531H22.7347L20.9399 23.0616H19.8755L18.5607 18.9815L17.2458 23.0616H16.171Z" fill="#48525F"/>
<path d="M10.6654 23.0616V17.531H11.6568V18.2197H11.6985C11.8168 18.011 11.9907 17.8266 12.2203 17.6666C12.4499 17.5066 12.7733 17.4266 13.1907 17.4266C13.309 17.4266 13.4168 17.4336 13.5142 17.4475C13.6116 17.4544 13.6603 17.4579 13.6603 17.4579V18.4075C13.6603 18.4075 13.6047 18.404 13.4934 18.3971C13.389 18.3832 13.2777 18.3762 13.1594 18.3762C12.6794 18.3762 12.3072 18.5153 12.0429 18.7936C11.7855 19.0649 11.6568 19.5101 11.6568 20.1293V23.0616H10.6654Z" fill="#48525F"/>
<path d="M6.5894 23.1659C5.99808 23.1659 5.50067 23.0303 5.09718 22.7589C4.69369 22.4807 4.38759 22.1224 4.17889 21.6841C3.97019 21.2458 3.86584 20.7832 3.86584 20.2963C3.86584 19.8023 3.97019 19.3397 4.17889 18.9084C4.38759 18.4701 4.69369 18.1153 5.09718 17.844C5.50067 17.5657 5.99808 17.4266 6.5894 17.4266C7.18072 17.4266 7.67813 17.5657 8.08162 17.844C8.48511 18.1153 8.79121 18.4701 8.99991 18.9084C9.20861 19.3397 9.31296 19.8023 9.31296 20.2963C9.31296 20.7832 9.20861 21.2458 8.99991 21.6841C8.79121 22.1224 8.48511 22.4807 8.08162 22.7589C7.67813 23.0303 7.18072 23.1659 6.5894 23.1659ZM6.5894 22.2998C6.96506 22.2998 7.27812 22.2059 7.52856 22.018C7.78596 21.8233 7.97727 21.5728 8.10249 21.2667C8.23467 20.9606 8.30076 20.6371 8.30076 20.2963C8.30076 19.9484 8.23467 19.6249 8.10249 19.3258C7.97727 19.0197 7.78596 18.7727 7.52856 18.5849C7.27812 18.3901 6.96506 18.2927 6.5894 18.2927C6.22069 18.2927 5.90764 18.3901 5.65024 18.5849C5.39284 18.7727 5.19805 19.0197 5.06588 19.3258C4.94065 19.6249 4.87804 19.9484 4.87804 20.2963C4.87804 20.6371 4.94065 20.9606 5.06588 21.2667C5.19805 21.5728 5.39284 21.8233 5.65024 22.018C5.90764 22.2059 6.22069 22.2998 6.5894 22.2998Z" fill="#48525F"/>
<path d="M0.907854 23.0616V18.3449H0V17.531H0.907854V16.8527C0.907854 16.5605 0.960029 16.2753 1.06438 15.997C1.16873 15.7118 1.34265 15.4787 1.58614 15.2979C1.82962 15.117 2.16007 15.0265 2.57747 15.0265C2.77922 15.0265 2.93922 15.0439 3.05749 15.0787C3.18271 15.1066 3.24532 15.1205 3.24532 15.1205V15.9031C3.24532 15.9031 3.18966 15.8927 3.07836 15.8718C2.974 15.844 2.85226 15.8301 2.71313 15.8301C2.39312 15.8301 2.17746 15.9274 2.06615 16.1222C1.95484 16.317 1.89919 16.5605 1.89919 16.8527V17.531H3.18271V18.3449H1.89919V23.0616H0.907854Z" fill="#48525F"/>
<path d="M327.461 8.03505V0.104371H328.452V4.71669L330.654 2.50444H331.948L329.402 5.0193L332 8.03505H330.737L328.452 5.3741V8.03505H327.461Z" fill="#48525F"/>
<path d="M323.28 8.13936C322.689 8.13936 322.192 8.0037 321.788 7.73239C321.385 7.45412 321.079 7.09585 320.87 6.65757C320.661 6.2193 320.557 5.75668 320.557 5.26971C320.557 4.77578 320.661 4.31316 320.87 3.88184C321.079 3.44356 321.385 3.08877 321.788 2.81746C322.192 2.53919 322.689 2.40005 323.28 2.40005C323.872 2.40005 324.369 2.53919 324.773 2.81746C325.176 3.08877 325.482 3.44356 325.691 3.88184C325.9 4.31316 326.004 4.77578 326.004 5.26971C326.004 5.75668 325.9 6.2193 325.691 6.65757C325.482 7.09585 325.176 7.45412 324.773 7.73239C324.369 8.0037 323.872 8.13936 323.28 8.13936ZM323.28 7.27325C323.656 7.27325 323.969 7.17933 324.22 6.9915C324.477 6.79671 324.668 6.54627 324.794 6.24017C324.926 5.93407 324.992 5.61059 324.992 5.26971C324.992 4.92187 324.926 4.59838 324.794 4.29924C324.668 3.99315 324.477 3.74618 324.22 3.55835C323.969 3.36356 323.656 3.26617 323.28 3.26617C322.912 3.26617 322.599 3.36356 322.341 3.55835C322.084 3.74618 321.889 3.99315 321.757 4.29924C321.632 4.59838 321.569 4.92187 321.569 5.26971C321.569 5.61059 321.632 5.93407 321.757 6.24017C321.889 6.54627 322.084 6.79671 322.341 6.9915C322.599 7.17933 322.912 7.27325 323.28 7.27325Z" fill="#48525F"/>
<path d="M316.636 8.13936C316.045 8.13936 315.547 8.0037 315.144 7.73239C314.74 7.45412 314.434 7.09585 314.226 6.65757C314.017 6.2193 313.913 5.75668 313.913 5.26971C313.913 4.77578 314.017 4.31316 314.226 3.88184C314.434 3.44356 314.74 3.08877 315.144 2.81746C315.547 2.53919 316.045 2.40005 316.636 2.40005C317.228 2.40005 317.725 2.53919 318.128 2.81746C318.532 3.08877 318.838 3.44356 319.047 3.88184C319.255 4.31316 319.36 4.77578 319.36 5.26971C319.36 5.75668 319.255 6.2193 319.047 6.65757C318.838 7.09585 318.532 7.45412 318.128 7.73239C317.725 8.0037 317.228 8.13936 316.636 8.13936ZM316.636 7.27325C317.012 7.27325 317.325 7.17933 317.575 6.9915C317.833 6.79671 318.024 6.54627 318.149 6.24017C318.281 5.93407 318.348 5.61059 318.348 5.26971C318.348 4.92187 318.281 4.59838 318.149 4.29924C318.024 3.99315 317.833 3.74618 317.575 3.55835C317.325 3.36356 317.012 3.26617 316.636 3.26617C316.267 3.26617 315.954 3.36356 315.697 3.55835C315.44 3.74618 315.245 3.99315 315.113 4.29924C314.987 4.59838 314.925 4.92187 314.925 5.26971C314.925 5.61059 314.987 5.93407 315.113 6.24017C315.245 6.54627 315.44 6.79671 315.697 6.9915C315.954 7.17933 316.267 7.27325 316.636 7.27325Z" fill="#48525F"/>
<path d="M308.027 8.03503V0.313053H309.05V7.13761H313.026V8.03503H308.027Z" fill="#48525F"/>
<path d="M303.294 8.13936C303.099 8.13936 302.936 8.07327 302.804 7.94109C302.678 7.80196 302.616 7.64195 302.616 7.46108C302.616 7.27325 302.678 7.11324 302.804 6.98106C302.936 6.84889 303.099 6.7828 303.294 6.7828C303.489 6.7828 303.649 6.84889 303.774 6.98106C303.906 7.11324 303.972 7.27325 303.972 7.46108C303.972 7.64891 303.906 7.80891 303.774 7.94109C303.649 8.07327 303.489 8.13936 303.294 8.13936Z" fill="#48525F"/>
<path d="M298.125 8.1394C297.708 8.1394 297.343 8.0594 297.03 7.89939C296.716 7.73243 296.456 7.51329 296.247 7.24198C296.038 6.96371 295.882 6.65414 295.777 6.31326C295.673 5.97238 295.621 5.62454 295.621 5.26975C295.621 4.91495 295.673 4.56712 295.777 4.22624C295.882 3.88536 296.038 3.57926 296.247 3.30795C296.456 3.02968 296.716 2.81054 297.03 2.65054C297.343 2.48358 297.708 2.40009 298.125 2.40009C298.473 2.40009 298.765 2.45575 299.002 2.56706C299.238 2.67836 299.43 2.81054 299.576 2.96359C299.722 3.10968 299.833 3.24882 299.91 3.38099H299.972V0.104371H300.964V8.03505H299.972V7.1585H299.91C299.833 7.29068 299.722 7.43329 299.576 7.58634C299.43 7.73939 299.238 7.87157 299.002 7.98287C298.765 8.08723 298.473 8.1394 298.125 8.1394ZM298.292 7.29416C298.661 7.29416 298.967 7.19676 299.21 7.00197C299.461 6.80023 299.645 6.54631 299.764 6.24021C299.889 5.92716 299.951 5.60367 299.951 5.26975C299.951 4.92887 299.889 4.60538 299.764 4.29928C299.645 3.99319 299.461 3.74274 299.21 3.54796C298.967 3.34621 298.661 3.24534 298.292 3.24534C297.923 3.24534 297.614 3.34621 297.363 3.54796C297.113 3.74274 296.925 3.99319 296.8 4.29928C296.682 4.60538 296.623 4.92887 296.623 5.26975C296.623 5.60367 296.682 5.92716 296.8 6.24021C296.925 6.54631 297.113 6.80023 297.363 7.00197C297.614 7.19676 297.923 7.29416 298.292 7.29416Z" fill="#48525F"/>
<path d="M289.743 8.03501V2.5044H290.735V3.30791H290.797C290.846 3.22443 290.926 3.10964 291.037 2.96355C291.155 2.81746 291.322 2.68876 291.538 2.57745C291.754 2.45919 292.025 2.40005 292.352 2.40005C292.756 2.40005 293.1 2.49397 293.385 2.6818C293.67 2.86268 293.886 3.10964 294.032 3.42269C294.185 3.73575 294.262 4.08706 294.262 4.47664V8.03501H293.27V4.53925C293.27 4.17054 293.166 3.86445 292.957 3.62096C292.755 3.37747 292.46 3.25573 292.07 3.25573C291.757 3.25573 291.503 3.33573 291.308 3.49574C291.114 3.64879 290.968 3.85401 290.87 4.11141C290.78 4.36185 290.735 4.62969 290.735 4.91491V8.03501H289.743Z" fill="#48525F"/>
<path d="M285.448 2.40005C285.796 2.40005 286.088 2.45571 286.325 2.56701C286.561 2.67832 286.752 2.8105 286.898 2.96355C287.045 3.10964 287.156 3.24878 287.232 3.38095H287.295V2.5044H288.286V8.03501H287.295V7.15846H287.232C287.156 7.29064 287.045 7.43325 286.898 7.5863C286.752 7.73935 286.561 7.87153 286.325 7.98283C286.088 8.08718 285.796 8.13936 285.448 8.13936C285.031 8.13936 284.665 8.05936 284.352 7.89935C284.039 7.73239 283.778 7.51325 283.57 7.24194C283.361 6.96367 283.204 6.6541 283.1 6.31322C282.996 5.97234 282.944 5.6245 282.944 5.26971C282.944 4.91491 282.996 4.56708 283.1 4.2262C283.204 3.88532 283.361 3.57922 283.57 3.30791C283.778 3.02964 284.039 2.8105 284.352 2.6505C284.665 2.48353 285.031 2.40005 285.448 2.40005ZM285.615 3.2453C285.246 3.2453 284.937 3.34617 284.686 3.54791C284.436 3.7427 284.248 3.99315 284.123 4.29924C284.005 4.60534 283.945 4.92883 283.945 5.26971C283.945 5.60363 284.005 5.92712 284.123 6.24017C284.248 6.54627 284.436 6.80019 284.686 7.00193C284.937 7.19672 285.246 7.29412 285.615 7.29412C285.984 7.29412 286.29 7.19672 286.533 7.00193C286.784 6.80019 286.968 6.54627 287.086 6.24017C287.212 5.92712 287.274 5.60363 287.274 5.26971C287.274 4.92883 287.212 4.60534 287.086 4.29924C286.968 3.99315 286.784 3.7427 286.533 3.54791C286.29 3.34617 285.984 3.2453 285.615 3.2453Z" fill="#48525F"/>
<path d="M279.234 8.1394C278.887 8.1394 278.594 8.08375 278.358 7.97244C278.121 7.86113 277.93 7.72895 277.784 7.57591C277.645 7.42286 277.534 7.28372 277.45 7.1585H277.387V8.03505H276.396V0.104371H277.387V3.38099H277.45C277.534 3.24882 277.645 3.1062 277.784 2.95315C277.93 2.80011 278.121 2.67141 278.358 2.56706C278.594 2.45575 278.887 2.40009 279.234 2.40009C279.652 2.40009 280.017 2.48358 280.33 2.65054C280.643 2.81054 280.904 3.02968 281.113 3.30795C281.321 3.57926 281.478 3.88536 281.582 4.22624C281.687 4.56712 281.739 4.91495 281.739 5.26975C281.739 5.62454 281.687 5.97238 281.582 6.31326C281.478 6.65414 281.321 6.96371 281.113 7.24198C280.904 7.51329 280.643 7.73243 280.33 7.89939C280.017 8.0594 279.652 8.1394 279.234 8.1394ZM279.068 7.29416C279.443 7.29416 279.753 7.19676 279.996 7.00197C280.247 6.80023 280.431 6.54631 280.549 6.24021C280.675 5.92716 280.737 5.60367 280.737 5.26975C280.737 4.92887 280.675 4.60538 280.549 4.29928C280.431 3.99319 280.247 3.74274 279.996 3.54796C279.753 3.34621 279.443 3.24534 279.068 3.24534C278.699 3.24534 278.389 3.34621 278.139 3.54796C277.895 3.74274 277.711 3.99319 277.586 4.29928C277.467 4.60538 277.408 4.92887 277.408 5.26975C277.408 5.60367 277.467 5.92716 277.586 6.24021C277.711 6.54631 277.895 6.80023 278.139 7.00197C278.389 7.19676 278.699 7.29416 279.068 7.29416Z" fill="#48525F"/>
<path d="M273.017 8.13936C272.593 8.13936 272.241 8.08023 271.963 7.96196C271.692 7.8437 271.476 7.69761 271.316 7.52369C271.156 7.34281 271.038 7.16542 270.961 6.9915C270.885 6.81062 270.836 6.66105 270.815 6.54279C270.794 6.42452 270.784 6.36539 270.784 6.36539H271.786C271.786 6.36539 271.796 6.41409 271.817 6.51148C271.845 6.60192 271.897 6.70975 271.974 6.83497C272.057 6.95324 272.182 7.06107 272.349 7.15846C272.523 7.2489 272.753 7.29412 273.038 7.29412C273.365 7.29412 273.619 7.21759 273.8 7.06454C273.981 6.90454 274.071 6.70975 274.071 6.48018C274.071 6.27843 273.998 6.11843 273.852 6.00016C273.713 5.8819 273.511 5.79146 273.247 5.72885L272.495 5.55145C272.217 5.48189 271.956 5.38797 271.713 5.26971C271.469 5.15144 271.271 4.99144 271.118 4.78969C270.972 4.58099 270.899 4.32359 270.899 4.01749C270.899 3.54444 271.076 3.15834 271.431 2.8592C271.786 2.5531 272.248 2.40005 272.819 2.40005C273.201 2.40005 273.518 2.45571 273.768 2.56701C274.019 2.67137 274.217 2.80354 274.363 2.96355C274.516 3.12355 274.628 3.28356 274.697 3.44356C274.774 3.60357 274.822 3.73922 274.843 3.85053C274.864 3.95488 274.874 4.00706 274.874 4.00706H273.914C273.914 4.00706 273.904 3.9688 273.883 3.89227C273.862 3.80879 273.814 3.71835 273.737 3.62096C273.667 3.51661 273.56 3.42617 273.414 3.34965C273.267 3.26617 273.073 3.22443 272.829 3.22443C272.495 3.22443 272.252 3.30095 272.099 3.454C271.946 3.60705 271.869 3.77401 271.869 3.95488C271.869 4.1288 271.939 4.27141 272.078 4.38272C272.224 4.48707 272.412 4.56708 272.641 4.62273L273.403 4.80013C273.876 4.91143 274.266 5.09579 274.572 5.35319C274.885 5.60363 275.041 5.96538 275.041 6.43844C275.041 6.74453 274.961 7.02976 274.801 7.29412C274.641 7.55152 274.412 7.75674 274.113 7.90979C273.814 8.06284 273.448 8.13936 273.017 8.13936Z" fill="#48525F"/>
<path d="M266.887 8.13938C266.338 8.13938 265.9 7.96894 265.573 7.62806C265.246 7.28718 265.082 6.81412 265.082 6.20889V2.50442H266.074V6.15671C266.074 6.51846 266.171 6.79673 266.366 6.99152C266.567 7.18631 266.832 7.2837 267.159 7.2837C267.493 7.2837 267.761 7.19674 267.962 7.02282C268.164 6.84891 268.31 6.62629 268.401 6.35498C268.491 6.08367 268.536 5.8054 268.536 5.52017V2.50442H269.528V8.03503H268.536V7.24196H268.474C268.432 7.32544 268.352 7.44023 268.234 7.58632C268.115 7.72545 267.948 7.85415 267.733 7.97242C267.517 8.08373 267.235 8.13938 266.887 8.13938Z" fill="#48525F"/>
<path d="M259.103 8.03505V0.104371H260.094V3.30795H260.157C260.205 3.22447 260.285 3.10968 260.397 2.96359C260.515 2.8175 260.682 2.6888 260.897 2.57749C261.113 2.45923 261.384 2.40009 261.711 2.40009C262.115 2.40009 262.459 2.49401 262.744 2.68184C263.03 2.86272 263.245 3.10968 263.391 3.42273C263.545 3.73579 263.621 4.0871 263.621 4.47668V8.03505H262.63V4.53929C262.63 4.17058 262.525 3.86449 262.317 3.621C262.115 3.37752 261.819 3.25577 261.43 3.25577C261.117 3.25577 260.863 3.33577 260.668 3.49578C260.473 3.64883 260.327 3.85405 260.23 4.11145C260.139 4.36189 260.094 4.62973 260.094 4.91495V8.03505H259.103Z" fill="#48525F"/>
<path d="M250.718 10.0699C250.558 10.0699 250.423 10.0629 250.311 10.049C250.2 10.0351 250.144 10.0281 250.144 10.0281V9.18289C250.144 9.18289 250.2 9.18637 250.311 9.19333C250.43 9.20724 250.555 9.2142 250.687 9.2142C251.098 9.2142 251.431 9.12724 251.689 8.95332C251.953 8.78636 252.176 8.50809 252.357 8.11851L250.217 2.50442H251.251L252.847 6.82456L254.454 2.50442H255.498L253.358 8.04546C253.087 8.74114 252.736 9.25246 252.305 9.57942C251.88 9.90639 251.351 10.0699 250.718 10.0699Z" fill="#48525F"/>
<path d="M241.512 8.03501V2.5044H242.503V3.30791H242.545C242.6 3.20356 242.687 3.08181 242.805 2.94268C242.924 2.79659 243.084 2.67137 243.285 2.56701C243.494 2.45571 243.755 2.40005 244.068 2.40005C244.479 2.40005 244.823 2.50093 245.101 2.70267C245.386 2.89746 245.599 3.16182 245.738 3.49574H245.748C245.901 3.18964 246.117 2.93224 246.395 2.72354C246.68 2.50788 247.049 2.40005 247.501 2.40005C248.1 2.40005 248.559 2.60528 248.879 3.01572C249.206 3.41922 249.369 3.94097 249.369 4.58099V8.03501H248.378V4.63317C248.378 4.22272 248.28 3.89227 248.086 3.64183C247.891 3.38443 247.609 3.25573 247.24 3.25573C246.92 3.25573 246.663 3.34269 246.468 3.51661C246.28 3.69053 246.145 3.90619 246.061 4.16359C245.978 4.42098 245.936 4.67838 245.936 4.93578V8.03501H244.945V4.63317C244.945 4.22272 244.847 3.89227 244.652 3.64183C244.465 3.38443 244.183 3.25573 243.807 3.25573C243.487 3.25573 243.23 3.34269 243.035 3.51661C242.847 3.69053 242.712 3.90966 242.628 4.17402C242.545 4.43142 242.503 4.68534 242.503 4.93578V8.03501H241.512Z" fill="#48525F"/>
<path d="M235.02 8.03501V2.5044H236.011V3.19312H236.053C236.171 2.98442 236.345 2.80007 236.575 2.64006C236.804 2.48006 237.128 2.40005 237.545 2.40005C237.664 2.40005 237.771 2.40701 237.869 2.42092C237.966 2.42788 238.015 2.43136 238.015 2.43136V3.38095C238.015 3.38095 237.959 3.37747 237.848 3.37052C237.744 3.3566 237.632 3.34965 237.514 3.34965C237.034 3.34965 236.662 3.48878 236.398 3.76705C236.14 4.03836 236.011 4.4836 236.011 5.10275V8.03501H235.02Z" fill="#48525F"/>
<path d="M230.944 8.13936C230.353 8.13936 229.855 8.0037 229.452 7.73239C229.048 7.45412 228.742 7.09585 228.534 6.65757C228.325 6.2193 228.22 5.75668 228.22 5.26971C228.22 4.77578 228.325 4.31316 228.534 3.88184C228.742 3.44356 229.048 3.08877 229.452 2.81746C229.855 2.53919 230.353 2.40005 230.944 2.40005C231.535 2.40005 232.033 2.53919 232.436 2.81746C232.84 3.08877 233.146 3.44356 233.355 3.88184C233.563 4.31316 233.668 4.77578 233.668 5.26971C233.668 5.75668 233.563 6.2193 233.355 6.65757C233.146 7.09585 232.84 7.45412 232.436 7.73239C232.033 8.0037 231.535 8.13936 230.944 8.13936ZM230.944 7.27325C231.32 7.27325 231.633 7.17933 231.883 6.9915C232.141 6.79671 232.332 6.54627 232.457 6.24017C232.589 5.93407 232.655 5.61059 232.655 5.26971C232.655 4.92187 232.589 4.59838 232.457 4.29924C232.332 3.99315 232.141 3.74618 231.883 3.55835C231.633 3.36356 231.32 3.26617 230.944 3.26617C230.575 3.26617 230.262 3.36356 230.005 3.55835C229.747 3.74618 229.553 3.99315 229.421 4.29924C229.295 4.59838 229.233 4.92187 229.233 5.26971C229.233 5.61059 229.295 5.93407 229.421 6.24017C229.553 6.54627 229.747 6.79671 230.005 6.9915C230.262 7.17933 230.575 7.27325 230.944 7.27325Z" fill="#48525F"/>
<path d="M225.263 8.03503V3.31836H224.355V2.50442H225.263V1.82614C225.263 1.53396 225.315 1.24873 225.419 0.970464C225.523 0.685238 225.697 0.452188 225.941 0.271313C226.184 0.0904376 226.515 0 226.932 0C227.134 0 227.294 0.0173918 227.412 0.0521754C227.537 0.0800024 227.6 0.0939159 227.6 0.0939159V0.876548C227.6 0.876548 227.544 0.866113 227.433 0.845244C227.329 0.817417 227.207 0.803503 227.068 0.803503C226.748 0.803503 226.532 0.900897 226.421 1.09569C226.31 1.29047 226.254 1.53396 226.254 1.82614V2.50442H227.537V3.31836H226.254V8.03503H225.263Z" fill="#48525F"/>
<path d="M218.124 8.03501V2.5044H219.116V3.19312H219.157C219.276 2.98442 219.45 2.80007 219.679 2.64006C219.909 2.48006 220.232 2.40005 220.65 2.40005C220.768 2.40005 220.876 2.40701 220.973 2.42092C221.07 2.42788 221.119 2.43136 221.119 2.43136V3.38095C221.119 3.38095 221.063 3.37747 220.952 3.37052C220.848 3.3566 220.737 3.34965 220.618 3.34965C220.138 3.34965 219.766 3.48878 219.502 3.76705C219.244 4.03836 219.116 4.4836 219.116 5.10275V8.03501H218.124Z" fill="#48525F"/>
<path d="M214.392 8.13936C213.94 8.13936 213.547 8.05936 213.213 7.89935C212.886 7.73239 212.615 7.50978 212.399 7.23151C212.19 6.95324 212.034 6.64714 211.929 6.31322C211.825 5.97234 211.773 5.6245 211.773 5.26971C211.773 4.92187 211.822 4.57751 211.919 4.23663C212.023 3.89575 212.18 3.58618 212.389 3.30791C212.604 3.02964 212.872 2.8105 213.192 2.6505C213.519 2.48353 213.905 2.40005 214.35 2.40005C214.823 2.40005 215.241 2.50788 215.603 2.72354C215.964 2.9392 216.25 3.25921 216.458 3.68357C216.667 4.10793 216.771 4.64012 216.771 5.28014V5.57232H212.775C212.796 5.88538 212.869 6.17408 212.994 6.43844C213.126 6.69584 213.31 6.90454 213.547 7.06454C213.783 7.21759 214.065 7.29412 214.392 7.29412C214.677 7.29412 214.907 7.2489 215.081 7.15846C215.262 7.06107 215.404 6.94976 215.509 6.82454C215.613 6.69932 215.683 6.59149 215.717 6.50105C215.759 6.40365 215.78 6.35496 215.78 6.35496H216.709C216.709 6.35496 216.691 6.41757 216.657 6.54279C216.622 6.66105 216.559 6.80715 216.469 6.98106C216.378 7.15498 216.246 7.33238 216.072 7.51325C215.898 7.68717 215.676 7.83674 215.404 7.96196C215.133 8.08023 214.796 8.13936 214.392 8.13936ZM212.785 4.80013H215.801C215.787 4.43838 215.71 4.14619 215.571 3.92358C215.432 3.69401 215.255 3.52357 215.039 3.41226C214.823 3.30095 214.594 3.2453 214.35 3.2453C213.912 3.2453 213.554 3.38791 213.276 3.67314C212.997 3.95141 212.834 4.32707 212.785 4.80013Z" fill="#48525F"/>
<path d="M205.896 8.03501V2.5044H206.887V3.30791H206.95C206.998 3.22443 207.078 3.10964 207.19 2.96355C207.308 2.81746 207.475 2.68876 207.69 2.57745C207.906 2.45919 208.177 2.40005 208.504 2.40005C208.908 2.40005 209.252 2.49397 209.537 2.6818C209.823 2.86268 210.038 3.10964 210.184 3.42269C210.337 3.73575 210.414 4.08706 210.414 4.47664V8.03501H209.423V4.53925C209.423 4.17054 209.318 3.86445 209.11 3.62096C208.908 3.37747 208.612 3.25573 208.223 3.25573C207.91 3.25573 207.656 3.33573 207.461 3.49574C207.266 3.64879 207.12 3.85401 207.023 4.11141C206.932 4.36185 206.887 4.62969 206.887 4.91491V8.03501H205.896Z" fill="#48525F"/>
<path d="M199.914 8.03501V2.5044H200.905V3.30791H200.968C201.016 3.22443 201.096 3.10964 201.208 2.96355C201.326 2.81746 201.493 2.68876 201.708 2.57745C201.924 2.45919 202.195 2.40005 202.522 2.40005C202.926 2.40005 203.27 2.49397 203.555 2.6818C203.841 2.86268 204.056 3.10964 204.202 3.42269C204.355 3.73575 204.432 4.08706 204.432 4.47664V8.03501H203.441V4.53925C203.441 4.17054 203.336 3.86445 203.128 3.62096C202.926 3.37747 202.63 3.25573 202.241 3.25573C201.928 3.25573 201.674 3.33573 201.479 3.49574C201.284 3.64879 201.138 3.85401 201.041 4.11141C200.95 4.36185 200.905 4.62969 200.905 4.91491V8.03501H199.914Z" fill="#48525F"/>
<path d="M197.809 1.4505C197.621 1.4505 197.465 1.38789 197.34 1.26267C197.221 1.13745 197.162 0.987876 197.162 0.813958C197.162 0.633083 197.221 0.480035 197.34 0.354813C197.465 0.229593 197.621 0.166982 197.809 0.166982C197.99 0.166982 198.143 0.229593 198.268 0.354813C198.394 0.480035 198.456 0.633083 198.456 0.813958C198.456 0.987876 198.394 1.13745 198.268 1.26267C198.143 1.38789 197.99 1.4505 197.809 1.4505ZM197.319 8.03505V2.50444H198.31V8.03505H197.319Z" fill="#48525F"/>
<path d="M192.755 8.1394C192.338 8.1394 191.972 8.0594 191.659 7.89939C191.346 7.73243 191.085 7.51329 190.877 7.24198C190.668 6.96371 190.511 6.65414 190.407 6.31326C190.303 5.97238 190.251 5.62454 190.251 5.26975C190.251 4.91495 190.303 4.56712 190.407 4.22624C190.511 3.88536 190.668 3.57926 190.877 3.30795C191.085 3.02968 191.346 2.81054 191.659 2.65054C191.972 2.48358 192.338 2.40009 192.755 2.40009C193.103 2.40009 193.395 2.45575 193.632 2.56706C193.868 2.67836 194.059 2.81054 194.205 2.96359C194.352 3.10968 194.463 3.24882 194.539 3.38099H194.602V0.104371H195.593V8.03505H194.602V7.1585H194.539C194.463 7.29068 194.352 7.43329 194.205 7.58634C194.059 7.73939 193.868 7.87157 193.632 7.98287C193.395 8.08723 193.103 8.1394 192.755 8.1394ZM192.922 7.29416C193.291 7.29416 193.597 7.19676 193.84 7.00197C194.091 6.80023 194.275 6.54631 194.393 6.24021C194.519 5.92716 194.581 5.60367 194.581 5.26975C194.581 4.92887 194.519 4.60538 194.393 4.29928C194.275 3.99319 194.091 3.74274 193.84 3.54796C193.597 3.34621 193.291 3.24534 192.922 3.24534C192.553 3.24534 192.244 3.34621 191.993 3.54796C191.743 3.74274 191.555 3.99319 191.43 4.29928C191.311 4.60538 191.252 4.92887 191.252 5.26975C191.252 5.60367 191.311 5.92716 191.43 6.24021C191.555 6.54631 191.743 6.80023 191.993 7.00197C192.244 7.19676 192.553 7.29416 192.922 7.29416Z" fill="#48525F"/>
<path d="M183.906 10.2264C183.446 10.2264 183.064 10.1638 182.758 10.0385C182.452 9.92028 182.205 9.76724 182.017 9.5794C181.836 9.39853 181.7 9.21765 181.61 9.03678C181.519 8.8559 181.46 8.70286 181.433 8.57763C181.405 8.45937 181.391 8.40024 181.391 8.40024H182.382C182.382 8.40024 182.4 8.44893 182.434 8.54633C182.469 8.64372 182.535 8.75503 182.633 8.88025C182.737 9.00547 182.89 9.11678 183.092 9.21417C183.293 9.31157 183.565 9.36027 183.906 9.36027C184.309 9.36027 184.626 9.28026 184.855 9.12026C185.085 8.96721 185.248 8.76547 185.346 8.51502C185.45 8.26458 185.502 8.00022 185.502 7.72196V7.08541H185.45C185.38 7.20368 185.269 7.33933 185.116 7.49238C184.97 7.63847 184.775 7.76717 184.532 7.87848C184.288 7.98283 183.989 8.03501 183.634 8.03501C183.217 8.03501 182.852 7.95501 182.539 7.795C182.226 7.635 181.965 7.41934 181.756 7.14802C181.554 6.87671 181.401 6.57409 181.297 6.24017C181.193 5.90625 181.14 5.56537 181.14 5.21753C181.14 4.86969 181.193 4.52881 181.297 4.19489C181.401 3.86097 181.554 3.55835 181.756 3.28704C181.965 3.01572 182.226 2.80007 182.539 2.64006C182.852 2.48006 183.217 2.40005 183.634 2.40005C183.989 2.40005 184.288 2.45571 184.532 2.56701C184.775 2.67137 184.97 2.79659 185.116 2.94268C185.269 3.08877 185.38 3.22443 185.45 3.34965H185.502V2.5044H186.494V7.71152C186.494 8.48372 186.267 9.09591 185.815 9.5481C185.37 10.0003 184.733 10.2264 183.906 10.2264ZM183.822 7.18977C184.191 7.18977 184.497 7.09585 184.74 6.90802C184.991 6.71323 185.175 6.46627 185.294 6.16713C185.419 5.86799 185.481 5.55145 185.481 5.21753C185.481 4.88361 185.419 4.56708 185.294 4.26794C185.175 3.96184 184.991 3.71488 184.74 3.52704C184.497 3.33921 184.191 3.2453 183.822 3.2453C183.453 3.2453 183.144 3.33921 182.893 3.52704C182.643 3.71488 182.455 3.96184 182.33 4.26794C182.212 4.56708 182.153 4.88361 182.153 5.21753C182.153 5.55145 182.212 5.86799 182.33 6.16713C182.455 6.46627 182.643 6.71323 182.893 6.90802C183.144 7.09585 183.453 7.18977 183.822 7.18977Z" fill="#48525F"/>
<path d="M175.263 8.03501V2.5044H176.254V3.30791H176.317C176.366 3.22443 176.446 3.10964 176.557 2.96355C176.675 2.81746 176.842 2.68876 177.058 2.57745C177.273 2.45919 177.545 2.40005 177.872 2.40005C178.275 2.40005 178.62 2.49397 178.905 2.6818C179.19 2.86268 179.406 3.10964 179.552 3.42269C179.705 3.73575 179.781 4.08706 179.781 4.47664V8.03501H178.79V4.53925C178.79 4.17054 178.686 3.86445 178.477 3.62096C178.275 3.37747 177.979 3.25573 177.59 3.25573C177.277 3.25573 177.023 3.33573 176.828 3.49574C176.633 3.64879 176.487 3.85401 176.39 4.11141C176.299 4.36185 176.254 4.62969 176.254 4.91491V8.03501H175.263Z" fill="#48525F"/>
<path d="M173.158 1.4505C172.971 1.4505 172.814 1.38789 172.689 1.26267C172.571 1.13745 172.511 0.987876 172.511 0.813958C172.511 0.633083 172.571 0.480035 172.689 0.354813C172.814 0.229593 172.971 0.166982 173.158 0.166982C173.339 0.166982 173.492 0.229593 173.618 0.354813C173.743 0.480035 173.805 0.633083 173.805 0.813958C173.805 0.987876 173.743 1.13745 173.618 1.26267C173.492 1.38789 173.339 1.4505 173.158 1.4505ZM172.668 8.03505V2.50444H173.659V8.03505H172.668Z" fill="#48525F"/>
<path d="M166.828 8.03505V0.104371H167.819V4.71669L170.021 2.50444H171.315L168.769 5.0193L171.367 8.03505H170.104L167.819 5.3741V8.03505H166.828Z" fill="#48525F"/>
<path d="M162.647 8.13936C162.056 8.13936 161.558 8.0037 161.155 7.73239C160.752 7.45412 160.445 7.09585 160.237 6.65757C160.028 6.2193 159.924 5.75668 159.924 5.26971C159.924 4.77578 160.028 4.31316 160.237 3.88184C160.445 3.44356 160.752 3.08877 161.155 2.81746C161.558 2.53919 162.056 2.40005 162.647 2.40005C163.239 2.40005 163.736 2.53919 164.139 2.81746C164.543 3.08877 164.849 3.44356 165.058 3.88184C165.266 4.31316 165.371 4.77578 165.371 5.26971C165.371 5.75668 165.266 6.2193 165.058 6.65757C164.849 7.09585 164.543 7.45412 164.139 7.73239C163.736 8.0037 163.239 8.13936 162.647 8.13936ZM162.647 7.27325C163.023 7.27325 163.336 7.17933 163.586 6.9915C163.844 6.79671 164.035 6.54627 164.16 6.24017C164.292 5.93407 164.359 5.61059 164.359 5.26971C164.359 4.92187 164.292 4.59838 164.16 4.29924C164.035 3.99315 163.844 3.74618 163.586 3.55835C163.336 3.36356 163.023 3.26617 162.647 3.26617C162.279 3.26617 161.965 3.36356 161.708 3.55835C161.451 3.74618 161.256 3.99315 161.124 4.29924C160.998 4.59838 160.936 4.92187 160.936 5.26971C160.936 5.61059 160.998 5.93407 161.124 6.24017C161.256 6.54627 161.451 6.79671 161.708 6.9915C161.965 7.17933 162.279 7.27325 162.647 7.27325Z" fill="#48525F"/>
<path d="M156.003 8.13936C155.412 8.13936 154.914 8.0037 154.511 7.73239C154.107 7.45412 153.801 7.09585 153.593 6.65757C153.384 6.2193 153.279 5.75668 153.279 5.26971C153.279 4.77578 153.384 4.31316 153.593 3.88184C153.801 3.44356 154.107 3.08877 154.511 2.81746C154.914 2.53919 155.412 2.40005 156.003 2.40005C156.594 2.40005 157.092 2.53919 157.495 2.81746C157.899 3.08877 158.205 3.44356 158.414 3.88184C158.622 4.31316 158.727 4.77578 158.727 5.26971C158.727 5.75668 158.622 6.2193 158.414 6.65757C158.205 7.09585 157.899 7.45412 157.495 7.73239C157.092 8.0037 156.594 8.13936 156.003 8.13936ZM156.003 7.27325C156.379 7.27325 156.692 7.17933 156.942 6.9915C157.2 6.79671 157.391 6.54627 157.516 6.24017C157.648 5.93407 157.714 5.61059 157.714 5.26971C157.714 4.92187 157.648 4.59838 157.516 4.29924C157.391 3.99315 157.2 3.74618 156.942 3.55835C156.692 3.36356 156.379 3.26617 156.003 3.26617C155.634 3.26617 155.321 3.36356 155.064 3.55835C154.806 3.74618 154.612 3.99315 154.48 4.29924C154.354 4.59838 154.292 4.92187 154.292 5.26971C154.292 5.61059 154.354 5.93407 154.48 6.24017C154.612 6.54627 154.806 6.79671 155.064 6.9915C155.321 7.17933 155.634 7.27325 156.003 7.27325Z" fill="#48525F"/>
<path d="M149.603 8.13936C149.151 8.13936 148.755 8.05936 148.414 7.89935C148.073 7.73239 147.788 7.51325 147.558 7.24194C147.335 6.96367 147.165 6.6541 147.047 6.31322C146.935 5.97234 146.88 5.6245 146.88 5.26971C146.88 4.91491 146.935 4.57055 147.047 4.23663C147.158 3.89575 147.325 3.58618 147.548 3.30791C147.777 3.02964 148.062 2.8105 148.403 2.6505C148.744 2.48353 149.144 2.40005 149.603 2.40005C150.049 2.40005 150.417 2.46614 150.709 2.59832C151.002 2.7305 151.235 2.89746 151.409 3.09921C151.589 3.29399 151.722 3.49226 151.805 3.69401C151.896 3.88879 151.955 4.05228 151.982 4.18446C152.01 4.31663 152.024 4.38272 152.024 4.38272H151.064C151.064 4.38272 151.047 4.32707 151.012 4.21576C150.977 4.0975 150.911 3.96532 150.814 3.81923C150.716 3.67314 150.57 3.54444 150.375 3.43313C150.181 3.31486 149.923 3.25573 149.603 3.25573C149.221 3.25573 148.897 3.35313 148.633 3.54791C148.375 3.73575 148.181 3.98271 148.048 4.28881C147.923 4.5949 147.861 4.92187 147.861 5.26971C147.861 5.61754 147.923 5.94451 148.048 6.25061C148.181 6.5567 148.375 6.80714 148.633 7.00193C148.897 7.18977 149.221 7.28368 149.603 7.28368C149.923 7.28368 150.181 7.22803 150.375 7.11672C150.57 6.99845 150.716 6.86628 150.814 6.72019C150.911 6.57409 150.977 6.44539 151.012 6.33409C151.047 6.21582 151.064 6.15669 151.064 6.15669H152.024C152.024 6.15669 152.01 6.22278 151.982 6.35496C151.955 6.48714 151.896 6.6541 151.805 6.85584C151.722 7.05063 151.589 7.2489 151.409 7.45064C151.235 7.64543 151.002 7.80891 150.709 7.94109C150.417 8.07327 150.049 8.13936 149.603 8.13936Z" fill="#48525F"/>
<path d="M138.597 8.03501V2.5044H139.589V3.30791H139.651C139.7 3.22443 139.78 3.10964 139.891 2.96355C140.009 2.81746 140.176 2.68876 140.392 2.57745C140.608 2.45919 140.879 2.40005 141.206 2.40005C141.61 2.40005 141.954 2.49397 142.239 2.6818C142.524 2.86268 142.74 3.10964 142.886 3.42269C143.039 3.73575 143.116 4.08706 143.116 4.47664V8.03501H142.124V4.53925C142.124 4.17054 142.02 3.86445 141.811 3.62096C141.61 3.37747 141.314 3.25573 140.924 3.25573C140.611 3.25573 140.357 3.33573 140.163 3.49574C139.968 3.64879 139.822 3.85401 139.724 4.11141C139.634 4.36185 139.589 4.62969 139.589 4.91491V8.03501H138.597Z" fill="#48525F"/>
<path d="M136.493 1.4505C136.305 1.4505 136.148 1.38789 136.023 1.26267C135.905 1.13745 135.846 0.987876 135.846 0.813958C135.846 0.633083 135.905 0.480035 136.023 0.354813C136.148 0.229593 136.305 0.166982 136.493 0.166982C136.674 0.166982 136.827 0.229593 136.952 0.354813C137.077 0.480035 137.14 0.633083 137.14 0.813958C137.14 0.987876 137.077 1.13745 136.952 1.26267C136.827 1.38789 136.674 1.4505 136.493 1.4505ZM136.002 8.03505V2.50444H136.994V8.03505H136.002Z" fill="#48525F"/>
<path d="M129.709 8.13936C129.257 8.13936 128.864 8.05936 128.53 7.89935C128.203 7.73239 127.932 7.50978 127.716 7.23151C127.507 6.95324 127.351 6.64714 127.246 6.31322C127.142 5.97234 127.09 5.6245 127.09 5.26971C127.09 4.92187 127.138 4.57751 127.236 4.23663C127.34 3.89575 127.497 3.58618 127.705 3.30791C127.921 3.02964 128.189 2.8105 128.509 2.6505C128.836 2.48353 129.222 2.40005 129.667 2.40005C130.14 2.40005 130.558 2.50788 130.919 2.72354C131.281 2.9392 131.566 3.25921 131.775 3.68357C131.984 4.10793 132.088 4.64012 132.088 5.28014V5.57232H128.092C128.112 5.88538 128.185 6.17408 128.311 6.43844C128.443 6.69584 128.627 6.90454 128.864 7.06454C129.1 7.21759 129.382 7.29412 129.709 7.29412C129.994 7.29412 130.224 7.2489 130.398 7.15846C130.579 7.06107 130.721 6.94976 130.826 6.82454C130.93 6.69932 130.999 6.59149 131.034 6.50105C131.076 6.40365 131.097 6.35496 131.097 6.35496H132.026C132.026 6.35496 132.008 6.41757 131.973 6.54279C131.939 6.66105 131.876 6.80715 131.786 6.98106C131.695 7.15498 131.563 7.33238 131.389 7.51325C131.215 7.68717 130.992 7.83674 130.721 7.96196C130.45 8.08023 130.112 8.13936 129.709 8.13936ZM128.102 4.80013H131.118C131.104 4.43838 131.027 4.14619 130.888 3.92358C130.749 3.69401 130.572 3.52357 130.356 3.41226C130.14 3.30095 129.911 3.2453 129.667 3.2453C129.229 3.2453 128.871 3.38791 128.592 3.67314C128.314 3.95141 128.151 4.32707 128.102 4.80013Z" fill="#48525F"/>
<path d="M117.88 8.03501V2.5044H118.871V3.30791H118.913C118.969 3.20356 119.056 3.08181 119.174 2.94268C119.292 2.79659 119.452 2.67137 119.654 2.56701C119.863 2.45571 120.124 2.40005 120.437 2.40005C120.847 2.40005 121.191 2.50093 121.47 2.70267C121.755 2.89746 121.967 3.16182 122.106 3.49574H122.117C122.27 3.18964 122.485 2.93224 122.764 2.72354C123.049 2.50788 123.418 2.40005 123.87 2.40005C124.468 2.40005 124.927 2.60528 125.247 3.01572C125.574 3.41922 125.738 3.94097 125.738 4.58099V8.03501H124.746V4.63317C124.746 4.22272 124.649 3.89227 124.454 3.64183C124.259 3.38443 123.978 3.25573 123.609 3.25573C123.289 3.25573 123.031 3.34269 122.837 3.51661C122.649 3.69053 122.513 3.90619 122.43 4.16359C122.346 4.42098 122.305 4.67838 122.305 4.93578V8.03501H121.313V4.63317C121.313 4.22272 121.216 3.89227 121.021 3.64183C120.833 3.38443 120.551 3.25573 120.176 3.25573C119.856 3.25573 119.598 3.34269 119.404 3.51661C119.216 3.69053 119.08 3.90966 118.997 4.17402C118.913 4.43142 118.871 4.68534 118.871 4.93578V8.03501H117.88Z" fill="#48525F"/>
<path d="M112.2 8.13936C111.776 8.13936 111.425 8.08023 111.146 7.96196C110.875 7.8437 110.659 7.69761 110.499 7.52369C110.339 7.34281 110.221 7.16542 110.145 6.9915C110.068 6.81062 110.019 6.66105 109.999 6.54279C109.978 6.42452 109.967 6.36539 109.967 6.36539H110.969C110.969 6.36539 110.979 6.41409 111 6.51148C111.028 6.60192 111.08 6.70975 111.157 6.83497C111.24 6.95324 111.366 7.06107 111.532 7.15846C111.706 7.2489 111.936 7.29412 112.221 7.29412C112.548 7.29412 112.802 7.21759 112.983 7.06454C113.164 6.90454 113.254 6.70975 113.254 6.48018C113.254 6.27843 113.181 6.11843 113.035 6.00016C112.896 5.8819 112.694 5.79146 112.43 5.72885L111.679 5.55145C111.4 5.48189 111.139 5.38797 110.896 5.26971C110.652 5.15144 110.454 4.99144 110.301 4.78969C110.155 4.58099 110.082 4.32359 110.082 4.01749C110.082 3.54444 110.259 3.15834 110.614 2.8592C110.969 2.5531 111.432 2.40005 112.002 2.40005C112.385 2.40005 112.701 2.45571 112.952 2.56701C113.202 2.67137 113.4 2.80354 113.546 2.96355C113.7 3.12355 113.811 3.28356 113.88 3.44356C113.957 3.60357 114.006 3.73922 114.026 3.85053C114.047 3.95488 114.058 4.00706 114.058 4.00706H113.098C113.098 4.00706 113.087 3.9688 113.066 3.89227C113.046 3.80879 112.997 3.71835 112.92 3.62096C112.851 3.51661 112.743 3.42617 112.597 3.34965C112.451 3.26617 112.256 3.22443 112.013 3.22443C111.679 3.22443 111.435 3.30095 111.282 3.454C111.129 3.60705 111.052 3.77401 111.052 3.95488C111.052 4.1288 111.122 4.27141 111.261 4.38272C111.407 4.48707 111.595 4.56708 111.825 4.62273L112.586 4.80013C113.059 4.91143 113.449 5.09579 113.755 5.35319C114.068 5.60363 114.225 5.96538 114.225 6.43844C114.225 6.74453 114.145 7.02976 113.985 7.29412C113.825 7.55152 113.595 7.75674 113.296 7.90979C112.997 8.06284 112.632 8.13936 112.2 8.13936Z" fill="#48525F"/>
<path d="M103.473 10.0803V2.5044H104.464V3.38095H104.527C104.61 3.24878 104.722 3.10616 104.861 2.95311C105.007 2.80007 105.198 2.67137 105.435 2.56701C105.671 2.45571 105.963 2.40005 106.311 2.40005C106.729 2.40005 107.094 2.48353 107.407 2.6505C107.72 2.8105 107.981 3.02964 108.19 3.30791C108.398 3.57922 108.555 3.88532 108.659 4.2262C108.764 4.56708 108.816 4.91491 108.816 5.26971C108.816 5.6245 108.764 5.97234 108.659 6.31322C108.555 6.6541 108.398 6.96367 108.19 7.24194C107.981 7.51325 107.72 7.73239 107.407 7.89935C107.094 8.05936 106.729 8.13936 106.311 8.13936C105.963 8.13936 105.671 8.08371 105.435 7.9724C105.198 7.86109 105.007 7.72891 104.861 7.57586C104.722 7.42282 104.61 7.28368 104.527 7.15846H104.464V10.0803H103.473ZM104.485 5.26971C104.485 5.60363 104.544 5.92712 104.663 6.24017C104.788 6.54627 104.972 6.80019 105.216 7.00193C105.466 7.19672 105.776 7.29412 106.144 7.29412C106.52 7.29412 106.83 7.19672 107.073 7.00193C107.324 6.80019 107.508 6.54627 107.626 6.24017C107.751 5.92712 107.814 5.60363 107.814 5.26971C107.814 4.92883 107.751 4.60534 107.626 4.29924C107.508 3.99315 107.324 3.7427 107.073 3.54791C106.83 3.34617 106.52 3.2453 106.144 3.2453C105.776 3.2453 105.466 3.34617 105.216 3.54791C104.972 3.7427 104.788 3.99315 104.663 4.29924C104.544 4.60534 104.485 4.92883 104.485 5.26971Z" fill="#48525F"/>
<path d="M100.813 8.03505L100.824 0.104371H101.805V8.03505H100.813Z" fill="#48525F"/>
<path d="M96.977 8.13936C96.5248 8.13936 96.1317 8.05936 95.7978 7.89935C95.4708 7.73239 95.1995 7.50978 94.9838 7.23151C94.7751 6.95324 94.6186 6.64714 94.5143 6.31322C94.4099 5.97234 94.3577 5.6245 94.3577 5.26971C94.3577 4.92187 94.4064 4.57751 94.5038 4.23663C94.6082 3.89575 94.7647 3.58618 94.9734 3.30791C95.1891 3.02964 95.4569 2.8105 95.7769 2.6505C96.1039 2.48353 96.49 2.40005 96.9352 2.40005C97.4083 2.40005 97.8257 2.50788 98.1874 2.72354C98.5492 2.9392 98.8344 3.25921 99.0431 3.68357C99.2518 4.10793 99.3562 4.64012 99.3562 5.28014V5.57232H95.3595C95.3804 5.88538 95.4534 6.17408 95.5786 6.43844C95.7108 6.69584 95.8952 6.90454 96.1317 7.06454C96.3682 7.21759 96.65 7.29412 96.977 7.29412C97.2622 7.29412 97.4918 7.2489 97.6657 7.15846C97.8465 7.06107 97.9892 6.94976 98.0935 6.82454C98.1979 6.69932 98.2674 6.59149 98.3022 6.50105C98.344 6.40365 98.3648 6.35496 98.3648 6.35496H99.2935C99.2935 6.35496 99.2762 6.41757 99.2414 6.54279C99.2066 6.66105 99.144 6.80715 99.0535 6.98106C98.9631 7.15498 98.8309 7.33238 98.657 7.51325C98.4831 7.68717 98.2605 7.83674 97.9892 7.96196C97.7178 8.08023 97.3804 8.13936 96.977 8.13936ZM95.3699 4.80013H98.3857C98.3718 4.43838 98.2953 4.14619 98.1561 3.92358C98.017 3.69401 97.8396 3.52357 97.6239 3.41226C97.4083 3.30095 97.1787 3.2453 96.9352 3.2453C96.4969 3.2453 96.1387 3.38791 95.8604 3.67314C95.5821 3.95141 95.4186 4.32707 95.3699 4.80013Z" fill="#48525F"/>
<path d="M88.4827 8.03505V0.104371H89.4741V3.30795H89.5367C89.5854 3.22447 89.6654 3.10968 89.7767 2.96359C89.895 2.8175 90.0619 2.6888 90.2776 2.57749C90.4932 2.45923 90.7645 2.40009 91.0915 2.40009C91.495 2.40009 91.8394 2.49401 92.1246 2.68184C92.4098 2.86272 92.6255 3.10968 92.7716 3.42273C92.9246 3.73579 93.0011 4.0871 93.0011 4.47668V8.03505H92.0098V4.53929C92.0098 4.17058 91.9054 3.86449 91.6967 3.621C91.495 3.37752 91.1993 3.25577 90.8098 3.25577C90.4967 3.25577 90.2428 3.33577 90.048 3.49578C89.8532 3.64883 89.7071 3.85405 89.6097 4.11145C89.5193 4.36189 89.4741 4.62973 89.4741 4.91495V8.03505H88.4827Z" fill="#48525F"/>
<path d="M80.0983 10.0699C79.9383 10.0699 79.8027 10.0629 79.6914 10.049C79.5801 10.0351 79.5244 10.0281 79.5244 10.0281V9.18289C79.5244 9.18289 79.5801 9.18637 79.6914 9.19333C79.8096 9.20724 79.9349 9.2142 80.067 9.2142C80.4775 9.2142 80.8114 9.12724 81.0688 8.95332C81.3332 8.78636 81.5558 8.50809 81.7366 8.11851L79.5975 2.50442H80.6305L82.2271 6.82456L83.8341 2.50442H84.8776L82.7384 8.04546C82.4671 8.74114 82.1158 9.25246 81.6845 9.57942C81.2601 9.90639 80.7314 10.0699 80.0983 10.0699Z" fill="#48525F"/>
<path d="M77.3343 8.03505L77.3447 0.104371H78.3256V8.03505H77.3343Z" fill="#48525F"/>
<path d="M74.6745 8.03505L74.685 0.104371H75.6659V8.03505H74.6745Z" fill="#48525F"/>
<path d="M70.2752 2.40005C70.623 2.40005 70.9152 2.45571 71.1517 2.56701C71.3882 2.67832 71.5795 2.8105 71.7256 2.96355C71.8717 3.10964 71.983 3.24878 72.0596 3.38095H72.1222V2.5044H73.1135V8.03501H72.1222V7.15846H72.0596C71.983 7.29064 71.8717 7.43325 71.7256 7.5863C71.5795 7.73935 71.3882 7.87153 71.1517 7.98283C70.9152 8.08718 70.623 8.13936 70.2752 8.13936C69.8578 8.13936 69.4925 8.05936 69.1795 7.89935C68.8664 7.73239 68.6055 7.51325 68.3968 7.24194C68.1881 6.96367 68.0316 6.6541 67.9273 6.31322C67.8229 5.97234 67.7707 5.6245 67.7707 5.26971C67.7707 4.91491 67.8229 4.56708 67.9273 4.2262C68.0316 3.88532 68.1881 3.57922 68.3968 3.30791C68.6055 3.02964 68.8664 2.8105 69.1795 2.6505C69.4925 2.48353 69.8578 2.40005 70.2752 2.40005ZM70.4421 3.2453C70.0734 3.2453 69.7638 3.34617 69.5134 3.54791C69.263 3.7427 69.0751 3.99315 68.9499 4.29924C68.8316 4.60534 68.7725 4.92883 68.7725 5.26971C68.7725 5.60363 68.8316 5.92712 68.9499 6.24017C69.0751 6.54627 69.263 6.80019 69.5134 7.00193C69.7638 7.19672 70.0734 7.29412 70.4421 7.29412C70.8108 7.29412 71.1169 7.19672 71.3604 7.00193C71.6109 6.80019 71.7952 6.54627 71.9135 6.24017C72.0387 5.92712 72.1013 5.60363 72.1013 5.26971C72.1013 4.92883 72.0387 4.60534 71.9135 4.29924C71.7952 3.99315 71.6109 3.7427 71.3604 3.54791C71.1169 3.34617 70.8108 3.2453 70.4421 3.2453Z" fill="#48525F"/>
<path d="M64.1941 8.13936C63.7419 8.13936 63.3488 8.05936 63.0149 7.89935C62.6879 7.73239 62.4166 7.50978 62.201 7.23151C61.9923 6.95324 61.8357 6.64714 61.7314 6.31322C61.627 5.97234 61.5748 5.6245 61.5748 5.26971C61.5748 4.92187 61.6235 4.57751 61.7209 4.23663C61.8253 3.89575 61.9818 3.58618 62.1905 3.30791C62.4062 3.02964 62.674 2.8105 62.994 2.6505C63.321 2.48353 63.7071 2.40005 64.1523 2.40005C64.6254 2.40005 65.0428 2.50788 65.4045 2.72354C65.7663 2.9392 66.0515 3.25921 66.2602 3.68357C66.4689 4.10793 66.5733 4.64012 66.5733 5.28014V5.57232H62.5766C62.5975 5.88538 62.6705 6.17408 62.7958 6.43844C62.9279 6.69584 63.1123 6.90454 63.3488 7.06454C63.5853 7.21759 63.8671 7.29412 64.1941 7.29412C64.4793 7.29412 64.7089 7.2489 64.8828 7.15846C65.0637 7.06107 65.2063 6.94976 65.3106 6.82454C65.415 6.69932 65.4845 6.59149 65.5193 6.50105C65.5611 6.40365 65.5819 6.35496 65.5819 6.35496H66.5107C66.5107 6.35496 66.4933 6.41757 66.4585 6.54279C66.4237 6.66105 66.3611 6.80715 66.2706 6.98106C66.1802 7.15498 66.048 7.33238 65.8741 7.51325C65.7002 7.68717 65.4776 7.83674 65.2063 7.96196C64.9349 8.08023 64.5975 8.13936 64.1941 8.13936ZM62.5871 4.80013H65.6028C65.5889 4.43838 65.5124 4.14619 65.3732 3.92358C65.2341 3.69401 65.0567 3.52357 64.841 3.41226C64.6254 3.30095 64.3958 3.2453 64.1523 3.2453C63.714 3.2453 63.3558 3.38791 63.0775 3.67314C62.7992 3.95141 62.6358 4.32707 62.5871 4.80013Z" fill="#48525F"/>
<path d="M58.0106 8.03501V2.5044H59.0019V3.19312H59.0436C59.1619 2.98442 59.3358 2.80007 59.5654 2.64006C59.795 2.48006 60.1185 2.40005 60.5359 2.40005C60.6541 2.40005 60.762 2.40701 60.8594 2.42092C60.9567 2.42788 61.0054 2.43136 61.0054 2.43136V3.38095C61.0054 3.38095 60.9498 3.37747 60.8385 3.37052C60.7341 3.3566 60.6228 3.34965 60.5046 3.34965C60.0245 3.34965 59.6524 3.48878 59.388 3.76705C59.1306 4.03836 59.0019 4.4836 59.0019 5.10275V8.03501H58.0106Z" fill="#48525F"/>
<path d="M51.8737 8.13936C51.4215 8.13936 51.0285 8.05936 50.6945 7.89935C50.3676 7.73239 50.0963 7.50978 49.8806 7.23151C49.6719 6.95324 49.5154 6.64714 49.411 6.31322C49.3067 5.97234 49.2545 5.6245 49.2545 5.26971C49.2545 4.92187 49.3032 4.57751 49.4006 4.23663C49.5049 3.89575 49.6615 3.58618 49.8702 3.30791C50.0858 3.02964 50.3537 2.8105 50.6737 2.6505C51.0006 2.48353 51.3867 2.40005 51.832 2.40005C52.305 2.40005 52.7224 2.50788 53.0842 2.72354C53.4459 2.9392 53.7312 3.25921 53.9399 3.68357C54.1486 4.10793 54.2529 4.64012 54.2529 5.28014V5.57232H50.2563C50.2771 5.88538 50.3502 6.17408 50.4754 6.43844C50.6076 6.69584 50.7919 6.90454 51.0285 7.06454C51.265 7.21759 51.5467 7.29412 51.8737 7.29412C52.1589 7.29412 52.3885 7.2489 52.5624 7.15846C52.7433 7.06107 52.8859 6.94976 52.9903 6.82454C53.0946 6.69932 53.1642 6.59149 53.199 6.50105C53.2407 6.40365 53.2616 6.35496 53.2616 6.35496H54.1903C54.1903 6.35496 54.1729 6.41757 54.1381 6.54279C54.1033 6.66105 54.0407 6.80715 53.9503 6.98106C53.8599 7.15498 53.7277 7.33238 53.5538 7.51325C53.3798 7.68717 53.1572 7.83674 52.8859 7.96196C52.6146 8.08023 52.2772 8.13936 51.8737 8.13936ZM50.2667 4.80013H53.2824C53.2685 4.43838 53.192 4.14619 53.0529 3.92358C52.9137 3.69401 52.7363 3.52357 52.5207 3.41226C52.305 3.30095 52.0755 3.2453 51.832 3.2453C51.3937 3.2453 51.0354 3.38791 50.7572 3.67314C50.4789 3.95141 50.3154 4.32707 50.2667 4.80013Z" fill="#48525F"/>
<path d="M42.7069 10.0803V2.5044H43.6983V3.38095H43.7609C43.8443 3.24878 43.9557 3.10616 44.0948 2.95311C44.2409 2.80007 44.4322 2.67137 44.6687 2.56701C44.9053 2.45571 45.1974 2.40005 45.5453 2.40005C45.9627 2.40005 46.3279 2.48353 46.641 2.6505C46.954 2.8105 47.2149 3.02964 47.4236 3.30791C47.6323 3.57922 47.7888 3.88532 47.8932 4.2262C47.9975 4.56708 48.0497 4.91491 48.0497 5.26971C48.0497 5.6245 47.9975 5.97234 47.8932 6.31322C47.7888 6.6541 47.6323 6.96367 47.4236 7.24194C47.2149 7.51325 46.954 7.73239 46.641 7.89935C46.3279 8.05936 45.9627 8.13936 45.5453 8.13936C45.1974 8.13936 44.9053 8.08371 44.6687 7.9724C44.4322 7.86109 44.2409 7.72891 44.0948 7.57586C43.9557 7.42282 43.8443 7.28368 43.7609 7.15846H43.6983V10.0803H42.7069ZM43.7191 5.26971C43.7191 5.60363 43.7783 5.92712 43.8965 6.24017C44.0217 6.54627 44.2061 6.80019 44.4496 7.00193C44.7 7.19672 45.0096 7.29412 45.3783 7.29412C45.754 7.29412 46.0635 7.19672 46.307 7.00193C46.5575 6.80019 46.7418 6.54627 46.8601 6.24017C46.9853 5.92712 47.0479 5.60363 47.0479 5.26971C47.0479 4.92883 46.9853 4.60534 46.8601 4.29924C46.7418 3.99315 46.5575 3.7427 46.307 3.54791C46.0635 3.34617 45.754 3.2453 45.3783 3.2453C45.0096 3.2453 44.7 3.34617 44.4496 3.54791C44.2061 3.7427 44.0217 3.99315 43.8965 4.29924C43.7783 4.60534 43.7191 4.92883 43.7191 5.26971Z" fill="#48525F"/>
<path d="M40.498 1.4505C40.3102 1.4505 40.1537 1.38789 40.0284 1.26267C39.9102 1.13745 39.851 0.987876 39.851 0.813958C39.851 0.633083 39.9102 0.480035 40.0284 0.354813C40.1537 0.229593 40.3102 0.166982 40.498 0.166982C40.6789 0.166982 40.8319 0.229593 40.9572 0.354813C41.0824 0.480035 41.145 0.633083 41.145 0.813958C41.145 0.987876 41.0824 1.13745 40.9572 1.26267C40.8319 1.38789 40.6789 1.4505 40.498 1.4505ZM40.0076 8.03505V2.50444H40.9989V8.03505H40.0076Z" fill="#48525F"/>
<path d="M36.0707 8.13936C35.6185 8.13936 35.222 8.05936 34.8811 7.89935C34.5402 7.73239 34.255 7.51325 34.0254 7.24194C33.8028 6.96367 33.6324 6.6541 33.5141 6.31322C33.4028 5.97234 33.3471 5.6245 33.3471 5.26971C33.3471 4.91491 33.4028 4.57055 33.5141 4.23663C33.6254 3.89575 33.7924 3.58618 34.015 3.30791C34.2445 3.02964 34.5298 2.8105 34.8706 2.6505C35.2115 2.48353 35.6115 2.40005 36.0707 2.40005C36.5159 2.40005 36.8846 2.46614 37.1768 2.59832C37.469 2.7305 37.702 2.89746 37.876 3.09921C38.0568 3.29399 38.189 3.49226 38.2725 3.69401C38.3629 3.88879 38.4221 4.05228 38.4499 4.18446C38.4777 4.31663 38.4916 4.38272 38.4916 4.38272H37.5316C37.5316 4.38272 37.5142 4.32707 37.4794 4.21576C37.4446 4.0975 37.3785 3.96532 37.2812 3.81923C37.1838 3.67314 37.0377 3.54444 36.8429 3.43313C36.6481 3.31486 36.3907 3.25573 36.0707 3.25573C35.6881 3.25573 35.3646 3.35313 35.1002 3.54791C34.8428 3.73575 34.648 3.98271 34.5159 4.28881C34.3906 4.5949 34.328 4.92187 34.328 5.26971C34.328 5.61754 34.3906 5.94451 34.5159 6.25061C34.648 6.5567 34.8428 6.80714 35.1002 7.00193C35.3646 7.18977 35.6881 7.28368 36.0707 7.28368C36.3907 7.28368 36.6481 7.22803 36.8429 7.11672C37.0377 6.99845 37.1838 6.86628 37.2812 6.72019C37.3785 6.57409 37.4446 6.44539 37.4794 6.33409C37.5142 6.21582 37.5316 6.15669 37.5316 6.15669H38.4916C38.4916 6.15669 38.4777 6.22278 38.4499 6.35496C38.4221 6.48714 38.3629 6.6541 38.2725 6.85584C38.189 7.05063 38.0568 7.2489 37.876 7.45064C37.702 7.64543 37.469 7.80891 37.1768 7.94109C36.8846 8.07327 36.5159 8.13936 36.0707 8.13936Z" fill="#48525F"/>
<path d="M29.7705 8.13936C29.3183 8.13936 28.9252 8.05936 28.5913 7.89935C28.2643 7.73239 27.993 7.50978 27.7773 7.23151C27.5686 6.95324 27.4121 6.64714 27.3078 6.31322C27.2034 5.97234 27.1512 5.6245 27.1512 5.26971C27.1512 4.92187 27.1999 4.57751 27.2973 4.23663C27.4017 3.89575 27.5582 3.58618 27.7669 3.30791C27.9826 3.02964 28.2504 2.8105 28.5704 2.6505C28.8974 2.48353 29.2835 2.40005 29.7287 2.40005C30.2018 2.40005 30.6192 2.50788 30.9809 2.72354C31.3427 2.9392 31.6279 3.25921 31.8366 3.68357C32.0453 4.10793 32.1497 4.64012 32.1497 5.28014V5.57232H28.153C28.1739 5.88538 28.2469 6.17408 28.3721 6.43844C28.5043 6.69584 28.6887 6.90454 28.9252 7.06454C29.1617 7.21759 29.4435 7.29412 29.7705 7.29412C30.0557 7.29412 30.2852 7.2489 30.4592 7.15846C30.64 7.06107 30.7827 6.94976 30.887 6.82454C30.9914 6.69932 31.0609 6.59149 31.0957 6.50105C31.1374 6.40365 31.1583 6.35496 31.1583 6.35496H32.087C32.087 6.35496 32.0697 6.41757 32.0349 6.54279C32.0001 6.66105 31.9375 6.80715 31.847 6.98106C31.7566 7.15498 31.6244 7.33238 31.4505 7.51325C31.2766 7.68717 31.054 7.83674 30.7827 7.96196C30.5113 8.08023 30.1739 8.13936 29.7705 8.13936ZM28.1634 4.80013H31.1792C31.1653 4.43838 31.0888 4.14619 30.9496 3.92358C30.8105 3.69401 30.6331 3.52357 30.4174 3.41226C30.2018 3.30095 29.9722 3.2453 29.7287 3.2453C29.2904 3.2453 28.9322 3.38791 28.6539 3.67314C28.3756 3.95141 28.2121 4.32707 28.1634 4.80013Z" fill="#48525F"/>
<path d="M23.587 8.03501V2.5044H24.5783V3.19312H24.62C24.7383 2.98442 24.9122 2.80007 25.1418 2.64006C25.3714 2.48006 25.6949 2.40005 26.1123 2.40005C26.2305 2.40005 26.3383 2.40701 26.4357 2.42092C26.5331 2.42788 26.5818 2.43136 26.5818 2.43136V3.38095C26.5818 3.38095 26.5262 3.37747 26.4149 3.37052C26.3105 3.3566 26.1992 3.34965 26.0809 3.34965C25.6009 3.34965 25.2287 3.48878 24.9644 3.76705C24.707 4.03836 24.5783 4.4836 24.5783 5.10275V8.03501H23.587Z" fill="#48525F"/>
<path d="M17.9074 8.13936C17.483 8.13936 17.1317 8.08023 16.8535 7.96196C16.5822 7.8437 16.3665 7.69761 16.2065 7.52369C16.0465 7.34281 15.9282 7.16542 15.8517 6.9915C15.7752 6.81062 15.7265 6.66105 15.7056 6.54279C15.6847 6.42452 15.6743 6.36539 15.6743 6.36539H16.6761C16.6761 6.36539 16.6865 6.41409 16.7074 6.51148C16.7352 6.60192 16.7874 6.70975 16.8639 6.83497C16.9474 6.95324 17.0726 7.06107 17.2396 7.15846C17.4135 7.2489 17.6431 7.29412 17.9283 7.29412C18.2552 7.29412 18.5092 7.21759 18.69 7.06454C18.8709 6.90454 18.9614 6.70975 18.9614 6.48018C18.9614 6.27843 18.8883 6.11843 18.7422 6.00016C18.6031 5.8819 18.4013 5.79146 18.137 5.72885L17.3857 5.55145C17.1074 5.48189 16.8465 5.38797 16.603 5.26971C16.3595 5.15144 16.1613 4.99144 16.0082 4.78969C15.8621 4.58099 15.7891 4.32359 15.7891 4.01749C15.7891 3.54444 15.9665 3.15834 16.3213 2.8592C16.6761 2.5531 17.1387 2.40005 17.7091 2.40005C18.0918 2.40005 18.4083 2.45571 18.6587 2.56701C18.9092 2.67137 19.1074 2.80354 19.2535 2.96355C19.4066 3.12355 19.5179 3.28356 19.5875 3.44356C19.664 3.60357 19.7127 3.73922 19.7336 3.85053C19.7544 3.95488 19.7649 4.00706 19.7649 4.00706H18.8048C18.8048 4.00706 18.7944 3.9688 18.7735 3.89227C18.7527 3.80879 18.704 3.71835 18.6274 3.62096C18.5579 3.51661 18.45 3.42617 18.3039 3.34965C18.1579 3.26617 17.9631 3.22443 17.7196 3.22443C17.3857 3.22443 17.1422 3.30095 16.9891 3.454C16.8361 3.60705 16.7595 3.77401 16.7595 3.95488C16.7595 4.1288 16.8291 4.27141 16.9683 4.38272C17.1143 4.48707 17.3022 4.56708 17.5317 4.62273L18.2935 4.80013C18.7666 4.91143 19.1561 5.09579 19.4622 5.35319C19.7753 5.60363 19.9318 5.96538 19.9318 6.43844C19.9318 6.74453 19.8518 7.02976 19.6918 7.29412C19.5318 7.55152 19.3022 7.75674 19.0031 7.90979C18.704 8.06284 18.3387 8.13936 17.9074 8.13936Z" fill="#48525F"/>
<path d="M13.7785 1.4505C13.5906 1.4505 13.4341 1.38789 13.3089 1.26267C13.1906 1.13745 13.1315 0.987876 13.1315 0.813958C13.1315 0.633083 13.1906 0.480035 13.3089 0.354813C13.4341 0.229593 13.5906 0.166982 13.7785 0.166982C13.9593 0.166982 14.1124 0.229593 14.2376 0.354813C14.3628 0.480035 14.4254 0.633083 14.4254 0.813958C14.4254 0.987876 14.3628 1.13745 14.2376 1.26267C14.1124 1.38789 13.9593 1.4505 13.7785 1.4505ZM13.288 8.03505V2.50444H14.2793V8.03505H13.288Z" fill="#48525F"/>
<path d="M7.15216 8.03505V0.104371H8.1435V3.30795H8.20611C8.2548 3.22447 8.33481 3.10968 8.44611 2.96359C8.56438 2.8175 8.73134 2.6888 8.947 2.57749C9.16266 2.45923 9.43397 2.40009 9.76094 2.40009C10.1644 2.40009 10.5088 2.49401 10.794 2.68184C11.0792 2.86272 11.2949 3.10968 11.441 3.42273C11.594 3.73579 11.6706 4.0871 11.6706 4.47668V8.03505H10.6792V4.53929C10.6792 4.17058 10.5749 3.86449 10.3662 3.621C10.1644 3.37752 9.86877 3.25577 9.47919 3.25577C9.16614 3.25577 8.91222 3.33577 8.71743 3.49578C8.52264 3.64883 8.37655 3.85405 8.27915 4.11145C8.18872 4.36189 8.1435 4.62973 8.1435 4.91495V8.03505H7.15216Z" fill="#48525F"/>
<path d="M2.41051 8.03503V1.21047H0V0.313053H5.84366V1.21047H3.43315V8.03503H2.41051Z" fill="#48525F"/>
</svg>
