<svg width="4" height="8" viewBox="0 0 4 8" fill="none" xmlns="http://www.w3.org/2000/svg">
<path d="M3.07689 7.9644C2.42996 7.9644 1.94081 7.79873 1.60945 7.46737C1.28598 7.13601 1.12425 6.67053 1.12425 6.07094V2.49701H0V1.57395H1.12425V0H2.2485V1.57395H3.77511V2.49701H2.2485V6.07094C2.2485 6.38651 2.33528 6.61925 2.50885 6.76915C2.68242 6.91116 2.93488 6.98217 3.26623 6.98217C3.4398 6.98217 3.60548 6.97033 3.76327 6.94667C3.92106 6.923 3.99996 6.91116 3.99996 6.91116V7.86973C3.99996 7.86973 3.90923 7.88551 3.72777 7.91707C3.54631 7.94863 3.32935 7.9644 3.07689 7.9644Z" fill="#48525F"/>
</svg>
