<svg width="51" height="10" viewBox="0 0 51 10" fill="none" xmlns="http://www.w3.org/2000/svg">
<path d="M46.2482 7.78126V2.20818H47.4469V3.01786H47.51C47.5591 2.91971 47.6432 2.80054 47.7623 2.66034C47.8815 2.51312 48.0463 2.38344 48.2566 2.27127C48.4739 2.15911 48.7473 2.10303 49.0768 2.10303C49.4904 2.10303 49.8374 2.19767 50.1178 2.38694C50.3982 2.57621 50.6085 2.82858 50.7487 3.14404C50.8959 3.4595 50.9695 3.8065 50.9695 4.18505V7.78126H49.7708V4.31123C49.7708 3.97474 49.6761 3.69083 49.4868 3.4595C49.3046 3.22816 49.0312 3.11249 48.6667 3.11249C48.3792 3.11249 48.1444 3.1861 47.9621 3.33331C47.7869 3.47352 47.6572 3.65929 47.5731 3.89062C47.489 4.11495 47.4469 4.3568 47.4469 4.61617V7.78126H46.2482Z" fill="#0A2533"/>
<path d="M41.8377 2.10303C42.1882 2.10303 42.4791 2.15911 42.7105 2.27127C42.9488 2.38344 43.1381 2.51312 43.2783 2.66034C43.4185 2.80755 43.5201 2.93373 43.5832 3.03889H43.6463V2.20818H44.8451V7.78126H43.6463V6.95056H43.5832C43.5201 7.05571 43.4185 7.18189 43.2783 7.32911C43.1381 7.47632 42.9488 7.60601 42.7105 7.71817C42.4791 7.83033 42.1882 7.88642 41.8377 7.88642C41.4171 7.88642 41.0491 7.8058 40.7336 7.64456C40.4252 7.47632 40.1658 7.2555 39.9555 6.9821C39.7452 6.7017 39.5874 6.38974 39.4823 6.04625C39.3841 5.70275 39.3351 5.35224 39.3351 4.99472C39.3351 4.6372 39.3841 4.2867 39.4823 3.9432C39.5874 3.5997 39.7452 3.29125 39.9555 3.01786C40.1658 2.73745 40.4252 2.51663 40.7336 2.35539C41.0491 2.18715 41.4171 2.10303 41.8377 2.10303ZM42.1006 3.10198C41.7571 3.10198 41.4697 3.19661 41.2383 3.38589C41.007 3.56815 40.8317 3.80299 40.7126 4.09041C40.6004 4.37783 40.5443 4.67926 40.5443 4.99472C40.5443 5.31018 40.6004 5.61162 40.7126 5.89903C40.8317 6.18645 41.007 6.4248 41.2383 6.61407C41.4697 6.79633 41.7571 6.88747 42.1006 6.88747C42.4441 6.88747 42.728 6.79633 42.9523 6.61407C43.1837 6.4248 43.3554 6.18645 43.4676 5.89903C43.5867 5.61162 43.6463 5.31018 43.6463 4.99472C43.6463 4.67926 43.5867 4.37783 43.4676 4.09041C43.3554 3.80299 43.1837 3.56815 42.9523 3.38589C42.728 3.19661 42.4441 3.10198 42.1006 3.10198Z" fill="#0A2533"/>
<path d="M35.5379 7.78126V2.20818H36.7366V2.94425H36.7787C36.8838 2.72693 37.0486 2.53415 37.2729 2.36591C37.5042 2.19066 37.8372 2.10303 38.2718 2.10303C38.405 2.10303 38.5172 2.11004 38.6083 2.12406C38.7065 2.13808 38.7555 2.14509 38.7555 2.14509V3.30177C38.7555 3.30177 38.703 3.29476 38.5978 3.28074C38.4927 3.26672 38.3735 3.25971 38.2403 3.25971C37.7496 3.25971 37.3745 3.39991 37.1152 3.68032C36.8628 3.95371 36.7366 4.39886 36.7366 5.01575V7.78126H35.5379Z" fill="#0A2533"/>
<path d="M31.43 7.78128V1.07256H29.0115V0H35.0683V1.07256H32.6498V7.78128H31.43Z" fill="#0A2533"/>
<path d="M22.7559 9.99998C22.2722 9.99998 21.8727 9.93689 21.5572 9.81071C21.2417 9.68452 20.9894 9.52679 20.8001 9.33752C20.6108 9.15526 20.4706 8.96948 20.3795 8.78021C20.2884 8.59795 20.2288 8.44372 20.2007 8.31754C20.1727 8.19136 20.1587 8.12827 20.1587 8.12827H21.3469C21.3469 8.12827 21.3609 8.17033 21.389 8.25445C21.417 8.34558 21.4766 8.44723 21.5677 8.55939C21.6659 8.67856 21.8096 8.78021 21.9988 8.86433C22.1881 8.95547 22.437 9.00103 22.7454 9.00103C23.11 9.00103 23.4009 8.92742 23.6182 8.78021C23.8425 8.64001 24.0002 8.45073 24.0914 8.21239C24.1895 7.98105 24.2386 7.72869 24.2386 7.45529V6.82437H24.186C24.1089 6.94355 23.9967 7.07674 23.8495 7.22395C23.7093 7.36416 23.52 7.48684 23.2817 7.59199C23.0434 7.69714 22.7559 7.74972 22.4195 7.74972C21.9988 7.74972 21.6308 7.6691 21.3153 7.50787C21.0069 7.34663 20.7475 7.13282 20.5372 6.86644C20.3339 6.59304 20.1797 6.2881 20.0746 5.95161C19.9694 5.61512 19.9168 5.27162 19.9168 4.92112C19.9168 4.57061 19.9694 4.23061 20.0746 3.90114C20.1797 3.56465 20.3339 3.26321 20.5372 2.99683C20.7475 2.72343 21.0069 2.50611 21.3153 2.34488C21.6308 2.18365 21.9988 2.10303 22.4195 2.10303C22.7559 2.10303 23.0434 2.15561 23.2817 2.26076C23.52 2.3589 23.7128 2.48158 23.86 2.62879C24.0073 2.76899 24.1159 2.90219 24.186 3.02837H24.2386V2.20818H25.4373V7.44477C25.4373 7.9425 25.3357 8.38414 25.1324 8.7697C24.9291 9.15526 24.6277 9.45669 24.2281 9.67401C23.8285 9.89132 23.3378 9.99998 22.7559 9.99998ZM22.6928 6.76128C23.0363 6.76128 23.3238 6.67366 23.5551 6.4984C23.7864 6.31614 23.9582 6.0848 24.0703 5.8044C24.1825 5.52399 24.2386 5.22956 24.2386 4.92112C24.2386 4.61267 24.1825 4.31824 24.0703 4.03783C23.9582 3.75743 23.7864 3.5296 23.5551 3.35434C23.3238 3.17909 23.0363 3.09146 22.6928 3.09146C22.3423 3.09146 22.0514 3.17909 21.8201 3.35434C21.5887 3.5296 21.417 3.75743 21.3048 4.03783C21.1927 4.31824 21.1366 4.61267 21.1366 4.92112C21.1366 5.22956 21.1927 5.52399 21.3048 5.8044C21.417 6.0848 21.5887 6.31614 21.8201 6.4984C22.0514 6.67366 22.3423 6.76128 22.6928 6.76128Z" fill="#0A2533"/>
<path d="M13.922 7.78126V2.20818H15.1208V3.01786H15.1839C15.2329 2.91971 15.317 2.80054 15.4362 2.66034C15.5554 2.51312 15.7201 2.38344 15.9304 2.27127C16.1478 2.15911 16.4211 2.10303 16.7506 2.10303C17.1642 2.10303 17.5112 2.19767 17.7916 2.38694C18.072 2.57621 18.2823 2.82858 18.4225 3.14404C18.5698 3.4595 18.6434 3.8065 18.6434 4.18505V7.78126H17.4446V4.31123C17.4446 3.97474 17.35 3.69083 17.1607 3.4595C16.9785 3.22816 16.7051 3.11249 16.3405 3.11249C16.0531 3.11249 15.8183 3.1861 15.636 3.33331C15.4608 3.47352 15.3311 3.65929 15.2469 3.89062C15.1628 4.11495 15.1208 4.3568 15.1208 4.61617V7.78126H13.922Z" fill="#0A2533"/>
<path d="M9.51157 2.10303C9.86208 2.10303 10.153 2.15911 10.3843 2.27127C10.6227 2.38344 10.812 2.51312 10.9522 2.66034C11.0924 2.80755 11.194 2.93373 11.2571 3.03889H11.3202V2.20818H12.5189V7.78126H11.3202V6.95056H11.2571C11.194 7.05571 11.0924 7.18189 10.9522 7.32911C10.812 7.47632 10.6227 7.60601 10.3843 7.71817C10.153 7.83033 9.86208 7.88642 9.51157 7.88642C9.09096 7.88642 8.72293 7.8058 8.40747 7.64456C8.09903 7.47632 7.83965 7.2555 7.62935 6.9821C7.41904 6.7017 7.26131 6.38974 7.15616 6.04625C7.05802 5.70275 7.00895 5.35224 7.00895 4.99472C7.00895 4.6372 7.05802 4.2867 7.15616 3.9432C7.26131 3.5997 7.41904 3.29125 7.62935 3.01786C7.83965 2.73745 8.09903 2.51663 8.40747 2.35539C8.72293 2.18715 9.09096 2.10303 9.51157 2.10303ZM9.77446 3.10198C9.43096 3.10198 9.14354 3.19661 8.91221 3.38589C8.68087 3.56815 8.50562 3.80299 8.38644 4.09041C8.27428 4.37783 8.2182 4.67926 8.2182 4.99472C8.2182 5.31018 8.27428 5.61162 8.38644 5.89903C8.50562 6.18645 8.68087 6.4248 8.91221 6.61407C9.14354 6.79633 9.43096 6.88747 9.77446 6.88747C10.118 6.88747 10.4019 6.79633 10.6262 6.61407C10.8575 6.4248 11.0293 6.18645 11.1414 5.89903C11.2606 5.61162 11.3202 5.31018 11.3202 4.99472C11.3202 4.67926 11.2606 4.37783 11.1414 4.09041C11.0293 3.80299 10.8575 3.56815 10.6262 3.38589C10.4019 3.19661 10.118 3.10198 9.77446 3.10198Z" fill="#0A2533"/>
<path d="M0 7.78128V0H3.19663C3.69436 0 4.11847 0.0911321 4.46898 0.273396C4.8265 0.44865 5.09639 0.683491 5.27865 0.977918C5.46793 1.27234 5.56257 1.59481 5.56257 1.94532C5.56257 2.31686 5.49246 2.6218 5.35226 2.86015C5.21907 3.09148 5.06484 3.27024 4.88959 3.39642C4.71434 3.52261 4.56362 3.61023 4.43743 3.65931V3.7224C4.61269 3.77147 4.81248 3.86611 5.0368 4.00631C5.26113 4.1395 5.45391 4.33579 5.61514 4.59516C5.78339 4.84753 5.86751 5.17701 5.86751 5.5836C5.86751 5.94812 5.77988 6.29863 5.60463 6.63512C5.42937 6.97161 5.14897 7.24851 4.76341 7.46583C4.38486 7.67613 3.88714 7.78128 3.27024 7.78128H0ZM3.08097 1.05152H1.23028V3.30179H3.08097C3.52962 3.30179 3.85559 3.18612 4.05889 2.95478C4.26218 2.72345 4.36383 2.46407 4.36383 2.17666C4.36383 1.88924 4.26218 1.62986 4.05889 1.39853C3.85559 1.16719 3.52962 1.05152 3.08097 1.05152ZM3.1756 4.26919H1.23028V6.72976H3.1756C3.5191 6.72976 3.79951 6.67368 4.01682 6.56151C4.23414 6.44234 4.39187 6.28812 4.49001 6.09884C4.58815 5.90957 4.63722 5.70978 4.63722 5.49947C4.63722 5.28917 4.58815 5.09288 4.49001 4.91062C4.39187 4.72135 4.23414 4.56712 4.01682 4.44795C3.79951 4.32878 3.5191 4.26919 3.1756 4.26919Z" fill="#0A2533"/>
</svg>
