<svg width="5" height="6" viewBox="0 0 5 6" fill="none" xmlns="http://www.w3.org/2000/svg">
<path d="M2.62002 5.74108C2.16769 5.74108 1.77452 5.66105 1.44049 5.501C1.11342 5.33399 0.842025 5.1113 0.6263 4.83295C0.417533 4.55459 0.260958 4.2484 0.156575 3.91437C0.0521916 3.57339 0 3.22544 0 2.87054C0 2.5226 0.0487128 2.17813 0.146137 1.83715C0.250521 1.49616 0.407095 1.18649 0.615862 0.908135C0.831587 0.629779 1.0995 0.410574 1.41961 0.25052C1.74668 0.0835067 2.1329 0 2.57827 0C3.05147 0 3.469 0.107863 3.83087 0.323588C4.19273 0.539314 4.47804 0.859422 4.68681 1.28391C4.89558 1.70841 4.99996 2.24076 4.99996 2.88098V3.17325H1.00208C1.02296 3.4864 1.09602 3.7752 1.22128 4.03963C1.3535 4.29711 1.53791 4.50588 1.77452 4.66593C2.01112 4.81903 2.29295 4.89558 2.62002 4.89558C2.90534 4.89558 3.13498 4.85034 3.30895 4.75988C3.48988 4.66245 3.63254 4.55111 3.73692 4.42585C3.8413 4.30059 3.91089 4.19273 3.94569 4.10226C3.98744 4.00484 4.00832 3.95613 4.00832 3.95613H4.93733C4.93733 3.95613 4.91993 4.01876 4.88514 4.14402C4.85034 4.26232 4.78772 4.40845 4.69725 4.58243C4.60678 4.7564 4.47456 4.93385 4.30059 5.11478C4.12662 5.28875 3.90393 5.43837 3.63254 5.56363C3.36114 5.68193 3.02364 5.74108 2.62002 5.74108ZM1.01252 2.40082H4.0292C4.01528 2.03895 3.93873 1.74668 3.79955 1.524C3.66037 1.29435 3.48292 1.12386 3.2672 1.01252C3.05147 0.901176 2.82183 0.845505 2.57827 0.845505C2.13986 0.845505 1.78147 0.988162 1.50312 1.27348C1.22476 1.55183 1.06123 1.92761 1.01252 2.40082Z" fill="#48525F"/>
</svg>
