<svg width="5" height="6" viewBox="0 0 5 6" fill="none" xmlns="http://www.w3.org/2000/svg">
<path d="M2.33456 6.00004C1.89092 6.00004 1.52365 5.93822 1.23274 5.81459C0.949098 5.69095 0.723641 5.53822 0.556368 5.3564C0.389094 5.16731 0.265457 4.98185 0.185457 4.80003C0.105456 4.61094 0.0545458 4.45458 0.0327275 4.33094C0.0109092 4.2073 0 4.14548 0 4.14548H1.04728C1.04728 4.14548 1.05819 4.19639 1.08001 4.29821C1.1091 4.39276 1.16364 4.50549 1.24365 4.6364C1.33092 4.76003 1.46183 4.87276 1.63638 4.97458C1.81819 5.06913 2.0582 5.1164 2.35638 5.1164C2.6982 5.1164 2.96366 5.0364 3.15275 4.8764C3.34184 4.70912 3.43639 4.50549 3.43639 4.26549C3.43639 4.05457 3.36002 3.8873 3.2073 3.76366C3.06184 3.64003 2.85093 3.54548 2.57456 3.48003L1.7891 3.29457C1.49819 3.22184 1.22546 3.12366 0.970917 3.00002C0.716369 2.87638 0.509095 2.70911 0.349094 2.4982C0.196366 2.28002 0.120002 2.01092 0.120002 1.69092C0.120002 1.19637 0.305457 0.792733 0.676369 0.480004C1.04728 0.160001 1.53092 0 2.12729 0C2.52729 0 2.8582 0.0581823 3.12002 0.174547C3.38184 0.283639 3.58912 0.421821 3.74184 0.589095C3.90185 0.756369 4.01821 0.923643 4.09094 1.09092C4.17094 1.25819 4.22185 1.40001 4.24367 1.51637C4.26549 1.62547 4.27639 1.68001 4.27639 1.68001H3.27275C3.27275 1.68001 3.26184 1.64001 3.24002 1.56001C3.2182 1.47274 3.16729 1.37819 3.08729 1.27637C3.01457 1.16728 2.90184 1.07273 2.74911 0.992734C2.59638 0.905461 2.39274 0.861824 2.1382 0.861824C1.7891 0.861824 1.53456 0.941825 1.37456 1.10183C1.21455 1.26183 1.13455 1.43637 1.13455 1.62547C1.13455 1.80729 1.20728 1.95638 1.35274 2.07274C1.50546 2.18183 1.70183 2.26547 1.94183 2.32365L2.7382 2.50911C3.23275 2.62547 3.64003 2.8182 3.96003 3.08729C4.2873 3.34911 4.45094 3.7273 4.45094 4.22185C4.45094 4.54185 4.36731 4.84003 4.20003 5.1164C4.03276 5.38549 3.79275 5.60004 3.48002 5.76004C3.16729 5.92004 2.78547 6.00004 2.33456 6.00004Z" fill="#48525F"/>
</svg>
