<svg width="22" height="22" viewBox="0 0 22 22" fill="none" xmlns="http://www.w3.org/2000/svg">
<path fill-rule="evenodd" clip-rule="evenodd" d="M10.9989 4.05104C11.9636 3.0795 13.2083 2.73347 14.4021 2.75074C17.2714 2.79225 20.1673 5.13373 20.1673 8.52564C20.1673 11.7883 18.0805 14.5046 16.0165 16.3513C14.9721 17.2856 13.901 18.0274 13.0312 18.5383C12.5965 18.7935 12.2047 18.9955 11.8851 19.1361C11.7258 19.2062 11.5763 19.2646 11.4432 19.3069C11.3274 19.3436 11.1641 19.3881 11.0004 19.3881C10.8366 19.3881 10.6734 19.3436 10.5576 19.3069C10.4244 19.2646 10.275 19.2062 10.1157 19.1361C9.79603 18.9955 9.40425 18.7935 8.96958 18.5383C8.09972 18.0274 7.02861 17.2856 5.98427 16.3513C3.92027 14.5046 1.83344 11.7883 1.83344 8.52565C1.83344 5.14174 4.72265 2.75067 7.6086 2.75067C8.77002 2.75067 10.0267 3.08139 10.9989 4.05104ZM14.3822 4.12559C13.2842 4.10971 12.261 4.48246 11.5724 5.51537C11.4449 5.70663 11.2302 5.82151 11.0004 5.82151C10.7705 5.82151 10.5559 5.70663 10.4283 5.51538C9.74387 4.48871 8.70207 4.12567 7.6086 4.12567C5.40689 4.12567 3.20844 5.97417 3.20844 8.52565C3.20844 11.1984 4.93736 13.5696 6.90109 15.3266C7.87062 16.194 8.86637 16.8831 9.66589 17.3526C10.0659 17.5875 10.4095 17.7632 10.6694 17.8776C10.8 17.935 10.9014 17.9734 10.9733 17.9962C10.9835 17.9995 10.9925 18.0022 11.0004 18.0045C11.0082 18.0022 11.0172 17.9995 11.0275 17.9962C11.0993 17.9734 11.2008 17.935 11.3313 17.8776C11.5913 17.7632 11.9348 17.5875 12.3349 17.3526C13.1344 16.8831 14.1301 16.194 15.0997 15.3265C17.0634 13.5696 18.7923 11.1984 18.7923 8.52564C18.7923 5.98219 16.6006 4.15769 14.3822 4.12559Z" fill="#040509"/>
</svg>
