<svg width="13" height="13" viewBox="0 0 13 13" fill="none" xmlns="http://www.w3.org/2000/svg">
<path d="M10.5563 5.18818C9.99337 5.97952 9.65565 6.81741 9.56558 7.67857C9.40798 9.0285 8.68749 10.1922 7.56172 10.8905C6.90878 11.2861 6.16578 11.4956 5.42277 11.4956C3.89173 11.4956 2.47327 10.6345 1.73026 9.23798C0.672046 7.25963 1.32499 4.67614 3.17124 3.48913C3.64406 3.18655 4.1394 2.97708 4.67977 2.88398C5.37774 2.76761 6.07571 2.44176 6.7962 1.90645C6.86375 1.8599 6.9313 1.81335 6.99884 1.7668C7.53921 1.46423 8.14712 1.27803 8.75503 1.27803C9.65565 1.27803 10.4437 1.69697 10.8264 2.39521C11.2993 3.20983 11.1867 4.28047 10.5563 5.18818Z" stroke="#0A2533" stroke-width="0.390625"/>
<path d="M5.85059 5.63042C5.73802 5.60714 5.60292 5.67697 5.58041 5.79334C5.55789 5.90971 5.62544 6.04936 5.73802 6.07264C6.27838 6.21228 6.61611 6.79415 6.48102 7.35274C6.45851 7.46912 6.52605 7.60876 6.63863 7.63204C6.66114 7.63204 6.68366 7.63204 6.68366 7.63204C6.77372 7.63204 6.8863 7.56222 6.90881 7.44584C7.13396 6.67778 6.63863 5.83989 5.85059 5.63042Z" fill="#0A2533"/>
<ellipse cx="5.5016" cy="7.10832" rx="2.50662" ry="2.59116" stroke="#0A2533" stroke-width="0.390625"/>
</svg>
