<svg width="6" height="8" viewBox="0 0 6 8" fill="none" xmlns="http://www.w3.org/2000/svg">
<path d="M2.82667 8C2.35734 8 1.96622 7.936 1.65333 7.808C1.34044 7.68711 1.088 7.53067 0.896 7.33867C0.711111 7.15378 0.572444 6.96889 0.48 6.784C0.387556 6.59911 0.327116 6.44267 0.298672 6.31467C0.270227 6.19378 0.256 6.13333 0.256 6.13333H1.26933C1.26933 6.13333 1.28712 6.18311 1.32267 6.28267C1.35823 6.38222 1.42577 6.496 1.52533 6.624C1.63199 6.752 1.78845 6.86578 1.99467 6.96533C2.20089 7.06489 2.47823 7.11467 2.82667 7.11467C3.23912 7.11467 3.56266 7.03289 3.79733 6.86933C4.03199 6.71289 4.19912 6.50667 4.29867 6.25067C4.40534 5.99467 4.45867 5.72444 4.45867 5.44V4.78933H4.40533C4.33422 4.91022 4.22044 5.04889 4.064 5.20533C3.91467 5.35467 3.71556 5.48622 3.46667 5.6C3.21778 5.70667 2.91199 5.76 2.54933 5.76C2.12266 5.76 1.74933 5.67822 1.42933 5.51467C1.10933 5.35111 0.842661 5.13067 0.629328 4.85333C0.423106 4.576 0.266667 4.26667 0.16 3.92533C0.0533333 3.584 0 3.23556 0 2.88C0 2.52444 0.0533333 2.176 0.16 1.83467C0.266667 1.49333 0.423106 1.184 0.629328 0.906667C0.842661 0.629334 1.10933 0.408889 1.42933 0.245333C1.74933 0.0817779 2.12266 0 2.54933 0C2.91199 0 3.21778 0.0568889 3.46667 0.170667C3.71556 0.277333 3.91467 0.405333 4.064 0.554667C4.22044 0.704 4.33422 0.842667 4.40533 0.970667H4.45867V0.106667H5.472V5.42933C5.472 6.21867 5.24089 6.84444 4.77867 7.30667C4.32356 7.76889 3.67289 8 2.82667 8ZM2.74133 4.896C3.11822 4.896 3.43111 4.8 3.68 4.608C3.936 4.40889 4.12444 4.15644 4.24533 3.85067C4.37333 3.54489 4.43733 3.22133 4.43733 2.88C4.43733 2.53867 4.37333 2.21511 4.24533 1.90933C4.12444 1.59644 3.936 1.344 3.68 1.152C3.43111 0.96 3.11822 0.864 2.74133 0.864C2.36444 0.864 2.048 0.96 1.792 1.152C1.536 1.344 1.344 1.59644 1.216 1.90933C1.09511 2.21511 1.03467 2.53867 1.03467 2.88C1.03467 3.22133 1.09511 3.54489 1.216 3.85067C1.344 4.15644 1.536 4.40889 1.792 4.608C2.048 4.8 2.36444 4.896 2.74133 4.896Z" fill="#48525F"/>
</svg>
