<svg width="6" height="8" viewBox="0 0 6 8" fill="none" xmlns="http://www.w3.org/2000/svg">
<path d="M0.606891 7.99996C0.437696 7.99996 0.294249 7.9926 0.176548 7.97789C0.0588476 7.96318 0 7.95582 0 7.95582V7.06203C0 7.06203 0.0588476 7.06571 0.176548 7.07307C0.301605 7.08778 0.434018 7.09513 0.573787 7.09513C1.00781 7.09513 1.36091 7.00318 1.63309 6.81927C1.91263 6.64272 2.14803 6.34847 2.33929 5.93652L0.0772383 0H1.16965L2.85791 4.56825L4.55721 0H5.66066L3.3986 5.85928C3.1117 6.59491 2.74022 7.13559 2.28413 7.48134C1.83539 7.82708 1.27631 7.99996 0.606891 7.99996Z" fill="#48525F"/>
</svg>
