<svg width="6" height="8" viewBox="0 0 6 8" fill="none" xmlns="http://www.w3.org/2000/svg">
<path d="M0 8.00004V0.108696H1.03262V1.02174H1.09783C1.18479 0.884063 1.30073 0.735511 1.44566 0.57609C1.59784 0.416669 1.79711 0.28261 2.04349 0.173914C2.28987 0.0579714 2.59422 0 2.95654 0C3.39133 0 3.77176 0.0869571 4.09785 0.260871C4.42394 0.427538 4.69568 0.6558 4.91307 0.945657C5.13046 1.22827 5.29351 1.54711 5.40221 1.90218C5.5109 2.25726 5.56525 2.61958 5.56525 2.98915C5.56525 3.35871 5.5109 3.72103 5.40221 4.07611C5.29351 4.43118 5.13046 4.75365 4.91307 5.0435C4.69568 5.32612 4.42394 5.55438 4.09785 5.72829C3.77176 5.89496 3.39133 5.97829 2.95654 5.97829C2.59422 5.97829 2.28987 5.92032 2.04349 5.80438C1.79711 5.68844 1.59784 5.55075 1.44566 5.39133C1.30073 5.23191 1.18479 5.08698 1.09783 4.95655H1.03262V8.00004H0ZM1.05435 2.98915C1.05435 3.33697 1.11595 3.67393 1.23914 4.00002C1.36957 4.31886 1.56161 4.58336 1.81523 4.7935C2.0761 4.9964 2.39856 5.09785 2.78262 5.09785C3.17393 5.09785 3.4964 4.9964 3.75002 4.7935C4.01089 4.58336 4.20292 4.31886 4.32611 4.00002C4.45655 3.67393 4.52177 3.33697 4.52177 2.98915C4.52177 2.63407 4.45655 2.29711 4.32611 1.97827C4.20292 1.65943 4.01089 1.39856 3.75002 1.19566C3.4964 0.985513 3.17393 0.880439 2.78262 0.880439C2.39856 0.880439 2.0761 0.985513 1.81523 1.19566C1.56161 1.39856 1.36957 1.65943 1.23914 1.97827C1.11595 2.29711 1.05435 2.63407 1.05435 2.98915Z" fill="#48525F"/>
</svg>
