<svg width="6" height="6" viewBox="0 0 6 6" fill="none" xmlns="http://www.w3.org/2000/svg">
<path d="M2.84729 6.00004C2.37456 6.00004 1.96001 5.91641 1.60365 5.74913C1.24728 5.57458 0.949096 5.34549 0.709095 5.06185C0.476366 4.77094 0.298185 4.4473 0.174548 4.09094C0.0581836 3.73457 0 3.37093 0 3.00002C0 2.62911 0.0581836 2.26911 0.174548 1.92001C0.290912 1.56365 0.465459 1.24001 0.698188 0.949098C0.93819 0.658186 1.23637 0.429094 1.59274 0.26182C1.9491 0.0872734 2.36729 0 2.84729 0C3.31275 0 3.69821 0.0690913 4.00367 0.207274C4.30912 0.345457 4.55276 0.520004 4.73458 0.730915C4.92367 0.934552 5.06186 1.14183 5.14913 1.35274C5.24367 1.55637 5.30549 1.72729 5.33458 1.86547C5.36367 2.00365 5.37822 2.07274 5.37822 2.07274H4.37458C4.37458 2.07274 4.35639 2.01456 4.32003 1.8982C4.28367 1.77456 4.21457 1.63638 4.11276 1.48365C4.01094 1.33092 3.85821 1.19637 3.65457 1.08001C3.45093 0.95637 3.18184 0.894552 2.84729 0.894552C2.44729 0.894552 2.10911 0.996371 1.83274 1.20001C1.56365 1.39637 1.36001 1.65456 1.22183 1.97456C1.09092 2.29456 1.02546 2.63638 1.02546 3.00002C1.02546 3.36366 1.09092 3.70548 1.22183 4.02548C1.36001 4.34549 1.56365 4.60731 1.83274 4.81094C2.10911 5.00731 2.44729 5.10549 2.84729 5.10549C3.18184 5.10549 3.45093 5.04731 3.65457 4.93094C3.85821 4.80731 4.01094 4.66912 4.11276 4.5164C4.21457 4.36367 4.28367 4.22912 4.32003 4.11276C4.35639 3.98912 4.37458 3.9273 4.37458 3.9273H5.37822C5.37822 3.9273 5.36367 3.99639 5.33458 4.13458C5.30549 4.27276 5.24367 4.4473 5.14913 4.65822C5.06186 4.86185 4.92367 5.06913 4.73458 5.28004C4.55276 5.48368 4.30912 5.65459 4.00367 5.79277C3.69821 5.93095 3.31275 6.00004 2.84729 6.00004Z" fill="#48525F"/>
</svg>
