<svg width="13" height="13" viewBox="0 0 13 13" fill="none" xmlns="http://www.w3.org/2000/svg">
<path d="M7.51331 4.76862L3.77987 11.4532" stroke="#0A2533" stroke-width="0.390625" stroke-linecap="round" stroke-linejoin="round"/>
<path d="M6.58486 10.2343C5.88167 10.4291 4.75857 9.84798 4.75857 9.84798C4.75857 9.84798 5.46468 8.54916 6.25157 8.39356C6.94645 8.25615 7.97961 8.9558 7.97961 8.9558C7.97961 8.9558 7.28804 10.0395 6.58486 10.2343Z" stroke="#0A2533" stroke-width="0.390625" stroke-linecap="round" stroke-linejoin="round"/>
<path d="M8.15757 7.41838C7.45438 7.61316 6.33128 7.03206 6.33128 7.03206C6.33128 7.03206 7.03739 5.73324 7.82428 5.57763C8.51916 5.44022 9.55232 6.13987 9.55232 6.13987C9.55232 6.13987 8.86075 7.22361 8.15757 7.41838Z" stroke="#0A2533" stroke-width="0.390625" stroke-linecap="round" stroke-linejoin="round"/>
<path d="M9.06902 3.70685C8.70502 4.35857 7.51338 4.76861 7.51338 4.76861C7.51338 4.76861 7.12423 3.33407 7.57421 2.64886C7.97157 2.04377 9.18071 1.7833 9.18071 1.7833C9.18071 1.7833 9.43301 3.05512 9.06902 3.70685Z" stroke="#0A2533" stroke-width="0.390625" stroke-linecap="round" stroke-linejoin="round"/>
<path d="M3.35172 8.30464C3.54014 9.03154 4.58852 9.74643 4.58852 9.74643C4.58852 9.74643 5.32357 8.46489 5.06049 7.68263C4.82817 6.99185 3.72544 6.41675 3.72544 6.41675C3.72544 6.41675 3.1633 7.57773 3.35172 8.30464Z" stroke="#0A2533" stroke-width="0.390625" stroke-linecap="round" stroke-linejoin="round"/>
<path d="M4.92431 5.48871C5.11273 6.21561 6.16111 6.9305 6.16111 6.9305C6.16111 6.9305 6.89616 5.64896 6.63308 4.86671C6.40076 4.17592 5.29803 3.60082 5.29803 3.60082C5.29803 3.60082 4.73589 4.76181 4.92431 5.48871Z" stroke="#0A2533" stroke-width="0.390625" stroke-linecap="round" stroke-linejoin="round"/>
</svg>
