<svg width="6" height="6" viewBox="0 0 6 6" fill="none" xmlns="http://www.w3.org/2000/svg">
<path d="M2.84729 6.00004C2.22911 6.00004 1.70911 5.85822 1.28729 5.57459C0.865466 5.28367 0.545458 4.90913 0.327275 4.45094C0.109092 3.99276 0 3.50912 0 3.00002C0 2.48365 0.109092 2.00001 0.327275 1.5491C0.545458 1.09092 0.865466 0.720005 1.28729 0.436367C1.70911 0.145456 2.22911 0 2.84729 0C3.46548 0 3.98548 0.145456 4.4073 0.436367C4.82912 0.720005 5.14913 1.09092 5.36731 1.5491C5.58549 2.00001 5.69459 2.48365 5.69459 3.00002C5.69459 3.50912 5.58549 3.99276 5.36731 4.45094C5.14913 4.90913 4.82912 5.28367 4.4073 5.57459C3.98548 5.85822 3.46548 6.00004 2.84729 6.00004ZM2.84729 5.09458C3.24002 5.09458 3.5673 4.9964 3.82912 4.80003C4.09821 4.5964 4.29822 4.33458 4.42913 4.01457C4.56731 3.69457 4.63639 3.35639 4.63639 3.00002C4.63639 2.63638 4.56731 2.2982 4.42913 1.98547C4.29822 1.66547 4.09821 1.40728 3.82912 1.21092C3.5673 1.00728 3.24002 0.905461 2.84729 0.905461C2.46184 0.905461 2.13456 1.00728 1.86547 1.21092C1.59638 1.40728 1.39274 1.66547 1.25456 1.98547C1.12365 2.2982 1.05819 2.63638 1.05819 3.00002C1.05819 3.35639 1.12365 3.69457 1.25456 4.01457C1.39274 4.33458 1.59638 4.5964 1.86547 4.80003C2.13456 4.9964 2.46184 5.09458 2.84729 5.09458Z" fill="#48525F"/>
</svg>
