<svg width="64" height="11" viewBox="0 0 64 11" fill="none" xmlns="http://www.w3.org/2000/svg">
<path d="M58.7031 8.64271V7.91898L60.4023 6.34567C60.8778 5.90514 61.2939 5.52056 61.6505 5.19191C62.0141 4.85627 62.2973 4.53112 62.5001 4.21646C62.7029 3.90179 62.8042 3.55567 62.8042 3.17807C62.8042 2.86341 62.7273 2.59769 62.5735 2.38093C62.4266 2.16416 62.2344 1.99983 61.9966 1.88795C61.7659 1.76908 61.5246 1.70965 61.2729 1.70965C60.9442 1.70965 60.675 1.76559 60.4653 1.87747C60.2555 1.98935 60.0946 2.1292 59.9828 2.29702C59.8709 2.45784 59.7905 2.62217 59.7415 2.78999C59.6926 2.95081 59.6646 3.08717 59.6576 3.19905C59.6506 3.31093 59.6471 3.36687 59.6471 3.36687H58.6612C58.6612 3.36687 58.6647 3.30393 58.6717 3.17807C58.6787 3.05221 58.7031 2.89138 58.7451 2.69559C58.794 2.4998 58.871 2.29352 58.9758 2.07675C59.0807 1.85299 59.2276 1.64322 59.4164 1.44743C59.6122 1.25164 59.8604 1.09081 60.1611 0.964944C60.4687 0.839079 60.8428 0.776147 61.2834 0.776147C61.7309 0.776147 62.1469 0.870546 62.5315 1.05934C62.9231 1.24115 63.2378 1.51036 63.4755 1.86698C63.7133 2.2166 63.8321 2.64664 63.8321 3.15709C63.8321 3.62559 63.7133 4.05213 63.4755 4.43672C63.2448 4.81431 62.9371 5.18492 62.5525 5.54853C62.1679 5.91214 61.7484 6.30372 61.2939 6.72327L60.224 7.70921H64V8.64271H58.7031Z" fill="#48525F"/>
<path d="M51.8712 8.64271V7.91898L53.5703 6.34567C54.0458 5.90514 54.4619 5.52056 54.8185 5.19191C55.1821 4.85627 55.4653 4.53112 55.6681 4.21646C55.8709 3.90179 55.9723 3.55567 55.9723 3.17807C55.9723 2.86341 55.8953 2.59769 55.7415 2.38093C55.5947 2.16416 55.4024 1.99983 55.1646 1.88795C54.9339 1.76908 54.6926 1.70965 54.4409 1.70965C54.1123 1.70965 53.843 1.76559 53.6333 1.87747C53.4235 1.98935 53.2627 2.1292 53.1508 2.29702C53.0389 2.45784 52.9585 2.62217 52.9095 2.78999C52.8606 2.95081 52.8326 3.08717 52.8256 3.19905C52.8186 3.31093 52.8151 3.36687 52.8151 3.36687H51.8292C51.8292 3.36687 51.8327 3.30393 51.8397 3.17807C51.8467 3.05221 51.8712 2.89138 51.9131 2.69559C51.9621 2.4998 52.039 2.29352 52.1439 2.07675C52.2488 1.85299 52.3956 1.64322 52.5844 1.44743C52.7802 1.25164 53.0284 1.09081 53.3291 0.964944C53.6368 0.839079 54.0109 0.776147 54.4514 0.776147C54.8989 0.776147 55.315 0.870546 55.6995 1.05934C56.0911 1.24115 56.4058 1.51036 56.6435 1.86698C56.8813 2.2166 57.0002 2.64664 57.0002 3.15709C57.0002 3.62559 56.8813 4.05213 56.6435 4.43672C56.4128 4.81431 56.1051 5.18492 55.7205 5.54853C55.3359 5.91214 54.9164 6.30372 54.4619 6.72327L53.392 7.70921H57.168V8.64271H51.8712Z" fill="#48525F"/>
<path d="M47.4787 8.73715C46.9962 8.73715 46.5696 8.63226 46.199 8.42248C45.8284 8.20572 45.5173 7.91553 45.2655 7.55192C45.0208 7.18132 44.832 6.75477 44.6991 6.27229C44.5733 5.78981 44.5104 5.28285 44.5104 4.75142C44.5104 4.213 44.5733 3.70604 44.6991 3.23055C44.832 2.74807 45.0208 2.32153 45.2655 1.95093C45.5173 1.58033 45.8284 1.29014 46.199 1.08036C46.5696 0.870587 46.9962 0.765699 47.4787 0.765699C47.9611 0.765699 48.3877 0.870587 48.7583 1.08036C49.1289 1.29014 49.4366 1.58033 49.6813 1.95093C49.933 2.32153 50.1218 2.74807 50.2477 3.23055C50.3806 3.70604 50.447 4.213 50.447 4.75142C50.447 5.28285 50.3806 5.78981 50.2477 6.27229C50.1218 6.75477 49.933 7.18132 49.6813 7.55192C49.4366 7.91553 49.1289 8.20572 48.7583 8.42248C48.3877 8.63226 47.9611 8.73715 47.4787 8.73715ZM47.4787 7.79316C48.0311 7.79316 48.4856 7.53793 48.8422 7.02748C49.2058 6.51004 49.3876 5.75135 49.3876 4.75142C49.3876 3.7515 49.2058 2.99631 48.8422 2.48585C48.4856 1.9754 48.0311 1.72018 47.4787 1.72018C46.9263 1.72018 46.4682 1.9754 46.1046 2.48585C45.748 2.99631 45.5697 3.7515 45.5697 4.75142C45.5697 5.74436 45.748 6.49955 46.1046 7.01699C46.4682 7.53444 46.9263 7.79316 47.4787 7.79316Z" fill="#48525F"/>
<path d="M37.951 8.64271V7.91898L39.6502 6.34567C40.1257 5.90514 40.5418 5.52056 40.8984 5.19191C41.262 4.85627 41.5452 4.53112 41.748 4.21646C41.9507 3.90179 42.0521 3.55567 42.0521 3.17807C42.0521 2.86341 41.9752 2.59769 41.8214 2.38093C41.6745 2.16416 41.4822 1.99983 41.2445 1.88795C41.0137 1.76908 40.7725 1.70965 40.5208 1.70965C40.1921 1.70965 39.9229 1.76559 39.7131 1.87747C39.5034 1.98935 39.3425 2.1292 39.2307 2.29702C39.1188 2.45784 39.0384 2.62217 38.9894 2.78999C38.9405 2.95081 38.9125 3.08717 38.9055 3.19905C38.8985 3.31093 38.895 3.36687 38.895 3.36687H37.9091C37.9091 3.36687 37.9126 3.30393 37.9196 3.17807C37.9266 3.05221 37.951 2.89138 37.993 2.69559C38.0419 2.4998 38.1189 2.29352 38.2237 2.07675C38.3286 1.85299 38.4755 1.64322 38.6643 1.44743C38.8601 1.25164 39.1083 1.09081 39.409 0.964944C39.7166 0.839079 40.0907 0.776147 40.5313 0.776147C40.9788 0.776147 41.3948 0.870546 41.7794 1.05934C42.171 1.24115 42.4857 1.51036 42.7234 1.86698C42.9612 2.2166 43.08 2.64664 43.08 3.15709C43.08 3.62559 42.9612 4.05213 42.7234 4.43672C42.4927 4.81431 42.185 5.18492 41.8004 5.54853C41.4158 5.91214 40.9963 6.30372 40.5418 6.72327L39.4719 7.70921H43.2479V8.64271H37.951Z" fill="#48525F"/>
<path d="M32.7683 10.2265L36.4079 0H37.3624L33.7228 10.2265H32.7683Z" fill="#48525F"/>
<path d="M28.9116 8.74759C28.4151 8.74759 27.9816 8.6532 27.611 8.4644C27.2474 8.2756 26.9467 8.01688 26.709 7.68823C26.4712 7.35259 26.2929 6.9715 26.1741 6.54496C26.0622 6.11842 26.0062 5.6709 26.0062 5.2024C26.0062 4.81781 26.0482 4.41924 26.1321 4.00668C26.216 3.59412 26.3454 3.19555 26.5202 2.81096C26.702 2.42638 26.9397 2.08374 27.2334 1.78307C27.5341 1.4754 27.8942 1.23066 28.3138 1.04885C28.7403 0.86705 29.2368 0.776147 29.8032 0.776147C30.0269 0.776147 30.2297 0.790132 30.4115 0.818102C30.6003 0.83908 30.7506 0.863553 30.8625 0.891523C30.9744 0.919493 31.0303 0.933478 31.0303 0.933478V1.87747C31.0303 1.87747 30.9674 1.86348 30.8415 1.83551C30.7157 1.80754 30.5549 1.78307 30.3591 1.76209C30.1703 1.73412 29.978 1.72013 29.7822 1.72013C29.3556 1.72013 28.9885 1.78656 28.6809 1.91942C28.3802 2.04529 28.125 2.2166 27.9152 2.43337C27.7124 2.64314 27.5481 2.8739 27.4222 3.12563C27.3033 3.37036 27.2159 3.6151 27.16 3.85984C27.1041 4.09758 27.0726 4.30386 27.0656 4.47867C27.1145 4.39477 27.2124 4.27939 27.3593 4.13255C27.5061 3.9857 27.7124 3.85285 27.9781 3.73397C28.2438 3.6151 28.583 3.55567 28.9955 3.55567C29.5689 3.55567 30.0444 3.68153 30.422 3.93326C30.7996 4.178 31.0828 4.49616 31.2716 4.88774C31.4674 5.27932 31.5653 5.69187 31.5653 6.12541C31.5653 6.55894 31.4674 6.97849 31.2716 7.38406C31.0758 7.78263 30.7821 8.11128 30.3905 8.37C29.9989 8.62173 29.506 8.74759 28.9116 8.74759ZM28.8906 7.86654C29.1703 7.86654 29.4361 7.80361 29.6878 7.67774C29.9465 7.55188 30.1563 7.36308 30.3171 7.11135C30.4849 6.85263 30.5688 6.53447 30.5688 6.15687C30.5688 5.77229 30.4849 5.45413 30.3171 5.2024C30.1563 4.94368 29.9465 4.75138 29.6878 4.62552C29.4361 4.49965 29.1703 4.43672 28.8906 4.43672C28.6109 4.43672 28.3417 4.49965 28.083 4.62552C27.8313 4.75138 27.6215 4.94368 27.4537 5.2024C27.2929 5.45413 27.2124 5.77229 27.2124 6.15687C27.2124 6.53447 27.2929 6.85263 27.4537 7.11135C27.6215 7.36308 27.8313 7.55188 28.083 7.67774C28.3417 7.80361 28.6109 7.86654 28.8906 7.86654Z" fill="#48525F"/>
<path d="M21.6767 8.73715C21.1942 8.73715 20.7677 8.63226 20.3971 8.42248C20.0265 8.20572 19.7153 7.91553 19.4636 7.55192C19.2189 7.18132 19.0301 6.75477 18.8972 6.27229C18.7713 5.78981 18.7084 5.28285 18.7084 4.75142C18.7084 4.213 18.7713 3.70604 18.8972 3.23055C19.0301 2.74807 19.2189 2.32153 19.4636 1.95093C19.7153 1.58033 20.0265 1.29014 20.3971 1.08036C20.7677 0.870587 21.1942 0.765699 21.6767 0.765699C22.1592 0.765699 22.5857 0.870587 22.9563 1.08036C23.3269 1.29014 23.6346 1.58033 23.8794 1.95093C24.1311 2.32153 24.3199 2.74807 24.4457 3.23055C24.5786 3.70604 24.645 4.213 24.645 4.75142C24.645 5.28285 24.5786 5.78981 24.4457 6.27229C24.3199 6.75477 24.1311 7.18132 23.8794 7.55192C23.6346 7.91553 23.3269 8.20572 22.9563 8.42248C22.5857 8.63226 22.1592 8.73715 21.6767 8.73715ZM21.6767 7.79316C22.2291 7.79316 22.6836 7.53793 23.0403 7.02748C23.4039 6.51004 23.5857 5.75135 23.5857 4.75142C23.5857 3.7515 23.4039 2.99631 23.0403 2.48585C22.6836 1.9754 22.2291 1.72018 21.6767 1.72018C21.1243 1.72018 20.6663 1.9754 20.3027 2.48585C19.9461 2.99631 19.7678 3.7515 19.7678 4.75142C19.7678 5.74436 19.9461 6.49955 20.3027 7.01699C20.6663 7.53444 21.1243 7.79316 21.6767 7.79316Z" fill="#48525F"/>
<path d="M13.2759 10.2265L16.9155 0H17.87L14.2304 10.2265H13.2759Z" fill="#48525F"/>
<path d="M6.87394 8.64271V7.91898L8.57312 6.34567C9.04861 5.90514 9.46466 5.52056 9.82128 5.19191C10.1849 4.85627 10.4681 4.53112 10.6709 4.21646C10.8736 3.90179 10.975 3.55567 10.975 3.17807C10.975 2.86341 10.8981 2.59769 10.7443 2.38093C10.5974 2.16416 10.4052 1.99983 10.1674 1.88795C9.93665 1.76908 9.69541 1.70965 9.44368 1.70965C9.11504 1.70965 8.84582 1.76559 8.63605 1.87747C8.42627 1.98935 8.26545 2.1292 8.15357 2.29702C8.04169 2.45784 7.96127 2.62217 7.91233 2.78999C7.86338 2.95081 7.83541 3.08717 7.82842 3.19905C7.82142 3.31093 7.81793 3.36687 7.81793 3.36687H6.83198C6.83198 3.36687 6.83548 3.30393 6.84247 3.17807C6.84947 3.05221 6.87394 2.89138 6.91589 2.69559C6.96484 2.4998 7.04176 2.29352 7.14665 2.07675C7.25153 1.85299 7.39838 1.64322 7.58717 1.44743C7.78296 1.25164 8.0312 1.09081 8.33188 0.964944C8.63955 0.839079 9.01364 0.776147 9.45417 0.776147C9.90169 0.776147 10.3177 0.870546 10.7023 1.05934C11.0939 1.24115 11.4086 1.51036 11.6463 1.86698C11.8841 2.2166 12.0029 2.64664 12.0029 3.15709C12.0029 3.62559 11.8841 4.05213 11.6463 4.43672C11.4156 4.81431 11.1079 5.18492 10.7233 5.54853C10.3387 5.91214 9.91917 6.30372 9.46466 6.72327L8.39481 7.70921H12.1708V8.64271H6.87394Z" fill="#48525F"/>
<path d="M0.0419549 8.64271V7.91898L1.74113 6.34567C2.21662 5.90514 2.63268 5.52056 2.98929 5.19191C3.3529 4.85627 3.6361 4.53112 3.83888 4.21646C4.04166 3.90179 4.14305 3.55567 4.14305 3.17807C4.14305 2.86341 4.06614 2.59769 3.9123 2.38093C3.76546 2.16416 3.57317 1.99983 3.33542 1.88795C3.10467 1.76908 2.86343 1.70965 2.6117 1.70965C2.28305 1.70965 2.01384 1.76559 1.80406 1.87747C1.59429 1.98935 1.43346 2.1292 1.32158 2.29702C1.2097 2.45784 1.12929 2.62217 1.08034 2.78999C1.03139 2.95081 1.00342 3.08717 0.996431 3.19905C0.989438 3.31093 0.985942 3.36687 0.985942 3.36687H0C0 3.36687 0.00349619 3.30393 0.0104886 3.17807C0.0174812 3.05221 0.0419549 2.89138 0.0839099 2.69559C0.132857 2.4998 0.209775 2.29352 0.314662 2.07675C0.41955 1.85299 0.566392 1.64322 0.75519 1.44743C0.95098 1.25164 1.19921 1.09081 1.49989 0.964944C1.80756 0.839079 2.18166 0.776147 2.62219 0.776147C3.06971 0.776147 3.48576 0.870546 3.87035 1.05934C4.26193 1.24115 4.57659 1.51036 4.81433 1.86698C5.05208 2.2166 5.17095 2.64664 5.17095 3.15709C5.17095 3.62559 5.05208 4.05213 4.81433 4.43672C4.58358 4.81431 4.27591 5.18492 3.89132 5.54853C3.50674 5.91214 3.08719 6.30372 2.63268 6.72327L1.56282 7.70921H5.33877V8.64271H0.0419549Z" fill="#48525F"/>
</svg>
