<svg width="60" height="70" viewBox="0 0 60 70" fill="none" xmlns="http://www.w3.org/2000/svg" xmlns:xlink="http://www.w3.org/1999/xlink">
<path d="M5.924,28.491C5.867,28.773 6.05,29.047 6.332,29.104C6.614,29.161 6.888,28.979 6.945,28.697L5.924,28.491ZM29.853,6.891L29.853,7.412L29.853,6.891ZM52.76,28.697C52.817,28.979 53.092,29.161 53.374,29.104C53.656,29.047 53.838,28.773 53.781,28.491L52.76,28.697ZM6.945,28.697C8.172,22.616 11.112,17.213 15.275,13.355L14.567,12.591C10.23,16.611 7.19,22.216 5.924,28.491L6.945,28.697ZM15.275,13.355C19.437,9.499 24.574,7.412 29.853,7.412L29.853,6.37C24.292,6.37 18.906,8.57 14.567,12.591L15.275,13.355ZM29.853,7.412C35.132,7.412 40.269,9.499 44.43,13.355L45.138,12.591C40.799,8.57 35.413,6.37 29.853,6.37L29.853,7.412ZM44.43,13.355C48.593,17.213 51.534,22.616 52.76,28.697L53.781,28.491C52.516,22.216 49.476,16.611 45.138,12.591L44.43,13.355Z" fill="#000000"/>
<line x1="-0.226" y1="28.073" x2="59.716" y2="28.073" stroke="#000000" stroke-width="0.521" stroke-miterlimit="3.999327" stroke-linecap="round" stroke-linejoin="round"/>
<line x1="22.118" y1="39.396" x2="37.372" y2="39.396" stroke="#000000" stroke-width="0.521" stroke-miterlimit="3.999327" stroke-linecap="round" stroke-linejoin="round"/>
<path d="M13.115,58.297C13.261,58.05 13.178,57.73 12.93,57.584C12.683,57.438 12.363,57.521 12.217,57.768L13.115,58.297ZM5.987,68.336C5.841,68.584 5.923,68.904 6.171,69.05C6.419,69.196 6.738,69.113 6.884,68.865L5.987,68.336ZM12.217,57.768L5.987,68.336L6.884,68.865L13.115,58.297L12.217,57.768Z" fill="#000000"/>
<path d="M47.271,57.762C47.121,57.516 46.801,57.439 46.555,57.588C46.31,57.738 46.232,58.059 46.382,58.304L47.271,57.762ZM52.827,68.872C52.977,69.118 53.297,69.195 53.543,69.046C53.789,68.896 53.866,68.575 53.716,68.33L52.827,68.872ZM46.382,58.304L52.827,68.872L53.716,68.33L47.271,57.762L46.382,58.304Z" fill="#000000"/>
</svg>
