<svg width="60" height="72" viewBox="0 0 60 72" fill="none" xmlns="http://www.w3.org/2000/svg" xmlns:xlink="http://www.w3.org/1999/xlink">
<path d="M5.924,29.698C5.867,29.98 6.049,30.254 6.331,30.311C6.613,30.368 6.888,30.186 6.945,29.904L5.924,29.698ZM29.852,8.098L29.852,8.619L29.852,8.098ZM52.76,29.904C52.817,30.186 53.091,30.368 53.373,30.311C53.655,30.254 53.838,29.98 53.781,29.698L52.76,29.904ZM6.945,29.904C8.171,23.823 11.112,18.42 15.275,14.562L14.567,13.798C10.229,17.818 7.189,23.423 5.924,29.698L6.945,29.904ZM15.275,14.562C19.436,10.706 24.573,8.619 29.852,8.619L29.852,7.577C24.292,7.577 18.906,9.777 14.567,13.798L15.275,14.562ZM29.852,8.619C35.131,8.619 40.269,10.706 44.43,14.562L45.138,13.798C40.799,9.777 35.413,7.577 29.852,7.577L29.852,8.619ZM44.43,14.562C48.593,18.42 51.533,23.823 52.76,29.904L53.781,29.698C52.515,23.423 49.475,17.818 45.138,13.798L44.43,14.562Z" fill="#000000"/>
<line x1="-0.226" y1="29.28" x2="59.716" y2="29.28" stroke="#000000" stroke-width="0.521" stroke-miterlimit="3.999327" stroke-linecap="round" stroke-linejoin="round"/>
<line x1="22.119" y1="40.603" x2="37.373" y2="40.603" stroke="#000000" stroke-width="0.521" stroke-miterlimit="3.999327" stroke-linecap="round" stroke-linejoin="round"/>
<path d="M13.114,59.505C13.26,59.257 13.178,58.937 12.93,58.791C12.682,58.645 12.363,58.728 12.217,58.975L13.114,59.505ZM5.987,69.543C5.84,69.791 5.923,70.111 6.171,70.257C6.418,70.403 6.738,70.32 6.884,70.073L5.987,69.543ZM12.217,58.975L5.987,69.543L6.884,70.073L13.114,59.505L12.217,58.975Z" fill="#000000"/>
<path d="M47.27,58.969C47.121,58.723 46.8,58.646 46.554,58.796C46.309,58.945 46.231,59.266 46.381,59.511L47.27,58.969ZM52.826,70.079C52.976,70.325 53.297,70.403 53.542,70.253C53.788,70.103 53.865,69.783 53.716,69.537L52.826,70.079ZM46.381,59.511L52.826,70.079L53.716,69.537L47.27,58.969L46.381,59.511Z" fill="#000000"/>
</svg>
