<svg width="26" height="26" viewBox="0 0 26 26" fill="none" xmlns="http://www.w3.org/2000/svg" xmlns:xlink="http://www.w3.org/1999/xlink">
<path d="M10.017,3.006L10.02,2.615C9.859,2.614 9.713,2.712 9.654,2.861L10.017,3.006ZM17.54,7.032L17.816,6.754L17.816,6.754L17.54,7.032ZM21.639,14.54L21.787,14.902C21.937,14.84 22.033,14.693 22.03,14.531L21.639,14.54ZM2.936,20.821L2.573,20.677L2.573,20.677L2.936,20.821ZM3.929,21.791L3.781,21.429L3.781,21.429L3.929,21.791ZM10.014,3.396C10.61,3.401 13.545,3.619 17.265,7.309L17.816,6.754C13.943,2.914 10.81,2.621 10.02,2.615L10.014,3.396ZM17.265,7.309C20.976,10.989 21.235,13.949 21.249,14.549L22.03,14.531C22.012,13.742 21.678,10.586 17.816,6.754L17.265,7.309ZM3.781,21.429C3.617,21.497 3.471,21.439 3.382,21.352L2.837,21.911C3.093,22.162 3.56,22.365 4.078,22.152L3.781,21.429ZM3.382,21.352C3.294,21.266 3.236,21.126 3.299,20.965L2.573,20.677C2.366,21.198 2.58,21.661 2.837,21.911L3.382,21.352ZM3.299,20.965L10.38,3.15L9.654,2.861L2.573,20.677L3.299,20.965ZM4.077,22.152L21.787,14.902L21.491,14.179L3.781,21.429L4.077,22.152Z" fill="#0A2533"/>
<path d="M17.052,14.64L16.723,14.85L16.723,14.85L17.052,14.64ZM17.05,14.637L17.38,14.427L17.38,14.427L17.05,14.637ZM16.535,13.64L16.913,13.539L16.913,13.539L16.535,13.64ZM16.483,12.538L16.874,12.555L16.874,12.555L16.483,12.538ZM16.24,10.842L15.903,11.038L15.903,11.038L16.24,10.842ZM14.919,9.816L14.738,10.163L14.738,10.163L14.919,9.816ZM14.916,9.815L15.097,9.469L15.097,9.469L14.916,9.815ZM14.915,9.814L15.095,9.468L15.095,9.468L14.915,9.814ZM13.943,9.19L13.668,9.467L13.668,9.468L13.943,9.19ZM13.313,8.225L13.658,8.042L13.658,8.042L13.313,8.225ZM13.313,8.224L12.967,8.407L12.967,8.407L13.313,8.224ZM12.278,6.912L12.084,7.251L12.084,7.251L12.278,6.912ZM10.568,6.67L10.585,7.061L10.585,7.061L10.568,6.67ZM10.568,6.67L10.551,6.28L10.551,6.28L10.568,6.67ZM10.565,6.671L10.581,7.061L10.581,7.061L10.565,6.671ZM9.456,6.619L9.556,6.241L9.556,6.241L9.456,6.619ZM8.448,6.107L8.241,6.438L8.241,6.438L8.448,6.107ZM18,15.66C17.873,15.197 17.604,14.779 17.381,14.43L16.723,14.85C16.958,15.219 17.156,15.537 17.247,15.867L18,15.66ZM17.381,14.43L17.38,14.427L16.721,14.847L16.723,14.85L17.381,14.43ZM17.38,14.427C17.151,14.069 16.982,13.798 16.913,13.539L16.158,13.742C16.265,14.14 16.511,14.518 16.721,14.847L17.38,14.427ZM16.913,13.539C16.845,13.288 16.855,12.975 16.874,12.555L16.093,12.521C16.076,12.905 16.053,13.351 16.158,13.742L16.913,13.539ZM16.874,12.555C16.898,11.996 16.941,11.268 16.578,10.645L15.903,11.038C16.13,11.429 16.12,11.911 16.093,12.521L16.874,12.555ZM16.578,10.645C16.228,10.045 15.586,9.723 15.099,9.47L14.738,10.163C15.274,10.441 15.688,10.669 15.903,11.038L16.578,10.645ZM15.099,9.47L15.097,9.469L14.736,10.162L14.738,10.163L15.099,9.47ZM15.097,9.469L15.095,9.468L14.734,10.161L14.736,10.162L15.097,9.469ZM15.095,9.468C14.726,9.276 14.419,9.112 14.218,8.913L13.668,9.468C13.97,9.767 14.395,9.984 14.734,10.161L15.095,9.468ZM14.218,8.913C14.017,8.713 13.852,8.409 13.658,8.042L12.968,8.407C13.146,8.745 13.365,9.167 13.668,9.467L14.218,8.913ZM13.658,8.042L13.658,8.041L12.967,8.407L12.968,8.408L13.658,8.042ZM13.658,8.042C13.402,7.558 13.077,6.919 12.472,6.573L12.084,7.251C12.457,7.464 12.686,7.876 12.967,8.407L13.658,8.042ZM12.472,6.573C11.847,6.214 11.116,6.256 10.552,6.28L10.585,7.061C11.2,7.034 11.689,7.024 12.084,7.251L12.472,6.573ZM10.552,6.28L10.551,6.28L10.584,7.061L10.585,7.061L10.552,6.28ZM10.551,6.28L10.548,6.28L10.581,7.061L10.584,7.061L10.551,6.28ZM10.548,6.28C10.127,6.298 9.81,6.308 9.556,6.241L9.356,6.996C9.748,7.1 10.194,7.077 10.581,7.061L10.548,6.28ZM9.556,6.241C9.293,6.172 9.018,6.003 8.656,5.776L8.241,6.438C8.574,6.647 8.955,6.891 9.356,6.996L9.556,6.241ZM8.656,5.776L8.656,5.776L8.24,6.437L8.241,6.438L8.656,5.776Z" fill="#0A2533"/>
<path d="M10.797,9.735C10.797,9.829 10.727,9.883 10.667,9.883L10.667,10.664C11.182,10.664 11.578,10.236 11.578,9.735L10.797,9.735ZM10.667,9.883C10.607,9.883 10.537,9.829 10.537,9.735L9.755,9.735C9.755,10.236 10.151,10.664 10.667,10.664L10.667,9.883ZM10.537,9.735C10.537,9.641 10.607,9.587 10.667,9.587L10.667,8.806C10.151,8.806 9.755,9.234 9.755,9.735L10.537,9.735ZM10.667,9.587C10.727,9.587 10.797,9.641 10.797,9.735L11.578,9.735C11.578,9.234 11.182,8.806 10.667,8.806L10.667,9.587ZM14.268,14.93C14.268,15.024 14.198,15.078 14.138,15.078L14.138,15.86C14.653,15.86 15.049,15.431 15.049,14.93L14.268,14.93ZM14.138,15.078C14.078,15.078 14.008,15.024 14.008,14.93L13.226,14.93C13.226,15.431 13.622,15.86 14.138,15.86L14.138,15.078ZM14.008,14.93C14.008,14.837 14.078,14.783 14.138,14.783L14.138,14.001C13.622,14.001 13.226,14.43 13.226,14.93L14.008,14.93ZM14.138,14.783C14.198,14.783 14.268,14.837 14.268,14.93L15.049,14.93C15.049,14.43 14.653,14.001 14.138,14.001L14.138,14.783ZM11.104,15.225C11.104,15.319 11.033,15.373 10.974,15.373L10.974,16.154C11.489,16.154 11.885,15.726 11.885,15.225L11.104,15.225ZM10.974,15.373C10.914,15.373 10.843,15.319 10.843,15.225L10.062,15.225C10.062,15.726 10.458,16.154 10.974,16.154L10.974,15.373ZM10.843,15.225C10.843,15.131 10.914,15.077 10.974,15.077L10.974,14.296C10.458,14.296 10.062,14.724 10.062,15.225L10.843,15.225ZM10.974,15.077C11.033,15.077 11.104,15.131 11.104,15.225L11.885,15.225C11.885,14.724 11.489,14.296 10.974,14.296L10.974,15.077ZM7.016,17.903C7.016,17.997 6.945,18.051 6.886,18.051L6.886,18.832C7.401,18.832 7.797,18.404 7.797,17.903L7.016,17.903ZM6.886,18.051C6.826,18.051 6.755,17.997 6.755,17.903L5.974,17.903C5.974,18.404 6.37,18.832 6.886,18.832L6.886,18.051ZM6.755,17.903C6.755,17.809 6.826,17.755 6.886,17.755L6.886,16.974C6.37,16.974 5.974,17.402 5.974,17.903L6.755,17.903ZM6.886,17.755C6.945,17.755 7.016,17.809 7.016,17.903L7.797,17.903C7.797,17.402 7.401,16.974 6.886,16.974L6.886,17.755ZM8.057,13.477C8.057,13.571 7.987,13.625 7.927,13.625L7.927,14.406C8.443,14.406 8.839,13.978 8.839,13.477L8.057,13.477ZM7.927,13.625C7.867,13.625 7.797,13.571 7.797,13.477L7.016,13.477C7.016,13.978 7.412,14.406 7.927,14.406L7.927,13.625ZM7.797,13.477C7.797,13.383 7.867,13.33 7.927,13.33L7.927,12.548C7.412,12.548 7.016,12.977 7.016,13.477L7.797,13.477ZM7.927,13.33C7.987,13.33 8.057,13.383 8.057,13.477L8.839,13.477C8.839,12.977 8.443,12.548 7.927,12.548L7.927,13.33Z" fill="#0A2533"/>
</svg>
