<svg width="56" height="70" viewBox="0 0 56 70" fill="none" xmlns="http://www.w3.org/2000/svg" xmlns:xlink="http://www.w3.org/1999/xlink">
<path d="M55.387,30.649L55.387,69.147L0.097,69.147L0.097,30.649L3.362,30.649C6.417,30.631 9.366,29.354 11.68,27.048C13.994,24.742 15.521,21.558 15.987,18.068L39.496,18.068C40.003,21.537 41.542,24.693 43.847,26.99C46.152,29.287 49.079,30.581 52.122,30.649L55.387,30.649Z" fill="url(#pf_0_i_3601_817;3494_577)" stroke="#000000" stroke-width="0.521" stroke-miterlimit="3.999327" stroke-linecap="round" stroke-linejoin="round"/>
<path d="M39.496,18.069L39.496,18.59C39.784,18.59 40.017,18.357 40.017,18.069L39.496,18.069ZM15.987,18.069L15.466,18.069C15.466,18.357 15.7,18.59 15.987,18.59L15.987,18.069ZM27.742,0.222C30.695,0.222 33.545,1.577 35.66,4.021L36.448,3.34C34.153,0.688 31.024,-0.82 27.742,-0.82L27.742,0.222ZM35.66,4.021C37.776,6.468 38.976,9.8 38.976,13.288L40.017,13.288C40.017,9.569 38.74,5.989 36.448,3.34L35.66,4.021ZM38.976,13.288L38.976,18.069L40.017,18.069L40.017,13.288L38.976,13.288ZM39.496,17.548L15.987,17.548L15.987,18.59L39.496,18.59L39.496,17.548ZM16.508,18.069L16.508,13.288L15.466,13.288L15.466,18.069L16.508,18.069ZM16.508,13.288C16.508,9.8 17.707,6.468 19.824,4.021L19.036,3.34C16.744,5.989 15.466,9.569 15.466,13.288L16.508,13.288ZM19.824,4.021C21.938,1.577 24.789,0.222 27.742,0.222L27.742,-0.82C24.46,-0.82 21.33,0.688 19.036,3.34L19.824,4.021Z" fill="#000000"/>
<path d="M36.449,55.56L36.449,56.081C36.736,56.081 36.969,55.848 36.969,55.56L36.449,55.56ZM19.034,55.56L18.513,55.56C18.513,55.848 18.747,56.081 19.034,56.081L19.034,55.56ZM27.741,42.493C29.886,42.493 31.961,43.478 33.504,45.261L34.292,44.58C32.569,42.588 30.215,41.452 27.741,41.452L27.741,42.493ZM33.504,45.261C35.05,47.047 35.928,49.484 35.928,52.037L36.969,52.037C36.969,49.252 36.013,46.569 34.292,44.58L33.504,45.261ZM35.928,52.037L35.928,55.56L36.969,55.56L36.969,52.037L35.928,52.037ZM36.449,55.039L19.034,55.039L19.034,56.081L36.449,56.081L36.449,55.039ZM19.555,55.56L19.555,52.037L18.513,52.037L18.513,55.56L19.555,55.56ZM19.555,52.037C19.555,49.484 20.433,47.047 21.978,45.261L21.191,44.58C19.47,46.569 18.513,49.252 18.513,52.037L19.555,52.037ZM21.978,45.261C23.521,43.478 25.597,42.493 27.741,42.493L27.741,41.452C25.268,41.452 22.913,42.588 21.191,44.58L21.978,45.261Z" transform="rotate(360 27.741 48.766)" fill="#000000"/>
<defs>
<linearGradient id="pf_0_i_3601_817;3494_577" x1="25.13" y1="-0.3" x2="44.721" y2="67.637" gradientUnits="userSpaceOnUse">
<stop stop-color="#0083DA" stop-opacity="0"/>
<stop offset="1" stop-color="#3BADF5"/>
</linearGradient>
</defs>
</svg>
