<svg width="32" height="32" viewBox="0 0 32 32" fill="none" xmlns="http://www.w3.org/2000/svg" xmlns:xlink="http://www.w3.org/1999/xlink">
<path d="M17.778,14.222L30.222,14.222C31.204,14.222 32,15.018 32,16C32,16.982 31.204,17.778 30.222,17.778L17.778,17.778L17.778,30.222C17.778,31.204 16.982,32 16,32C15.018,32 14.222,31.204 14.222,30.222L14.222,17.778L1.778,17.778C0.796,17.778 0,16.982 0,16C0,15.018 0.796,14.222 1.778,14.222L14.222,14.222L14.222,1.778C14.222,0.796 15.018,0 16,0C16.982,0 17.778,0.796 17.778,1.778L17.778,14.222Z" clip-rule="evenodd" fill-rule="evenodd" fill="#FFFFFF"/>
</svg>
