<svg width="60" height="60" viewBox="0 0 60 60" fill="none" xmlns="http://www.w3.org/2000/svg" xmlns:xlink="http://www.w3.org/1999/xlink">
<path d="M30.8,44.61C34.229,42.862 47.5,35.271 47.5,22.5C47.5,12.835 39.665,5 30,5C20.335,5 12.5,12.835 12.5,22.5C12.5,35.271 25.771,42.862 29.2,44.61C29.707,44.869 30.293,44.869 30.8,44.61ZM30,30C34.142,30 37.5,26.642 37.5,22.5C37.5,18.358 34.142,15 30,15C25.858,15 22.5,18.358 22.5,22.5C22.5,26.642 25.858,30 30,30Z" clip-rule="evenodd" fill-rule="evenodd" fill="#000000"/>
<path d="M46.348,39.644C45.461,38.986 44.208,39.171 43.55,40.058C42.891,40.945 43.076,42.198 43.963,42.856L46.348,39.644ZM47.5,45L45.5,45L47.5,45ZM45.155,48.75L43.963,47.144L45.155,48.75ZM14.845,48.75L13.652,50.356L14.845,48.75ZM12.5,45L10.5,45L12.5,45ZM16.037,42.856C16.924,42.198 17.109,40.945 16.45,40.058C15.792,39.171 14.539,38.986 13.652,39.644L16.037,42.856ZM43.963,42.856C45.233,43.799 45.5,44.567 45.5,45L49.5,45C49.5,42.8 48.15,40.982 46.348,39.644L43.963,42.856ZM45.5,45C45.5,45.433 45.233,46.201 43.963,47.144L46.348,50.356C48.15,49.018 49.5,47.2 49.5,45L45.5,45ZM43.963,47.144C42.711,48.074 40.775,48.934 38.27,49.554L39.23,53.437C42.045,52.74 44.528,51.707 46.348,50.356L43.963,47.144ZM38.27,49.554C35.784,50.169 32.929,50.5 30,50.5L30,54.5C33.215,54.5 36.395,54.138 39.23,53.437L38.27,49.554ZM30,50.5C27.071,50.5 24.216,50.169 21.73,49.554L20.77,53.437C23.605,54.138 26.785,54.5 30,54.5L30,50.5ZM21.73,49.554C19.225,48.934 17.289,48.074 16.037,47.144L13.652,50.356C15.472,51.707 17.955,52.74 20.77,53.437L21.73,49.554ZM16.037,47.144C14.767,46.201 14.5,45.433 14.5,45L10.5,45C10.5,47.2 11.85,49.018 13.652,50.356L16.037,47.144ZM14.5,45C14.5,44.567 14.767,43.799 16.037,42.856L13.652,39.644C11.85,40.982 10.5,42.8 10.5,45L14.5,45Z" fill="#000000"/>
</svg>
