<svg width="44" height="44" viewBox="0 0 44 44" fill="none" xmlns="http://www.w3.org/2000/svg" xmlns:xlink="http://www.w3.org/1999/xlink">
<path d="M8.667,0.416L34.667,0.416C38.974,0.416 42.467,3.908 42.467,8.216L42.467,34.216C42.467,38.523 38.974,42.016 34.667,42.016L8.667,42.016C4.359,42.016 0.867,38.523 0.867,34.216L0.867,8.216C0.867,3.908 4.359,0.416 8.667,0.416ZM8.667,3.016C5.795,3.016 3.467,5.344 3.467,8.216L3.467,34.216C3.467,37.087 5.795,39.416 8.667,39.416L34.667,39.416C37.538,39.416 39.867,37.087 39.867,34.216L39.867,8.216C39.867,5.344 37.538,3.016 34.667,3.016L8.667,3.016Z" clip-rule="evenodd" fill-rule="evenodd" fill="#B5B5BE"/>
</svg>
