<svg width="38" height="34" viewBox="0 0 38 34" fill="none" xmlns="http://www.w3.org/2000/svg" xmlns:xlink="http://www.w3.org/1999/xlink">
<path d="M26.734,2.935L26.734,4.935L26.734,2.935ZM20.656,5.453L22.07,6.867L22.071,6.867L20.656,5.453ZM19,7.109L17.586,8.524C18.367,9.305 19.633,9.305 20.414,8.524L19,7.109ZM17.344,5.453L15.929,6.867L15.929,6.867L17.344,5.453ZM5.187,17.609L3.773,19.024L3.773,19.024L5.187,17.609ZM6.844,19.266L5.429,20.68L6.844,19.266ZM19,31.422L17.586,32.836C18.367,33.617 19.633,33.617 20.414,32.836L19,31.422ZM32.812,17.609L31.399,16.195L31.398,16.195L32.812,17.609ZM34.227,4.039C33.243,3.055 32.075,2.274 30.79,1.741L29.258,5.437C30.059,5.768 30.786,6.254 31.398,6.867L34.227,4.039ZM30.79,1.741C29.504,1.209 28.126,0.935 26.734,0.935L26.734,4.935C27.6,4.935 28.458,5.105 29.258,5.437L30.79,1.741ZM26.734,0.935C25.343,0.935 23.965,1.209 22.679,1.741L24.21,5.437C25.01,5.105 25.868,4.935 26.734,4.935L26.734,0.935ZM22.679,1.741C21.393,2.274 20.225,3.055 19.242,4.039L22.071,6.867C22.683,6.254 23.41,5.768 24.21,5.437L22.679,1.741ZM19.242,4.039L17.586,5.695L20.414,8.524L22.07,6.867L19.242,4.039ZM20.414,5.695L18.758,4.039L15.929,6.867L17.586,8.524L20.414,5.695ZM18.758,4.039C16.771,2.052 14.076,0.935 11.266,0.935L11.266,4.935C13.015,4.935 14.693,5.63 15.929,6.867L18.758,4.039ZM11.266,0.935C8.455,0.935 5.76,2.052 3.773,4.039L6.602,6.867C7.839,5.63 9.516,4.935 11.266,4.935L11.266,0.935ZM3.773,4.039C1.786,6.026 0.67,8.721 0.67,11.531L4.67,11.531C4.67,9.782 5.365,8.104 6.602,6.867L3.773,4.039ZM0.67,11.531C0.67,14.341 1.786,17.036 3.773,19.024L6.602,16.195C5.365,14.958 4.67,13.28 4.67,11.531L0.67,11.531ZM3.773,19.024L5.429,20.68L8.258,17.851L6.602,16.195L3.773,19.024ZM5.429,20.68L17.586,32.836L20.414,30.008L8.258,17.851L5.429,20.68ZM20.414,32.836L32.57,20.68L29.742,17.851L17.586,30.008L20.414,32.836ZM32.57,20.68L34.227,19.024L31.398,16.195L29.742,17.851L32.57,20.68ZM34.226,19.024C35.211,18.04 35.991,16.872 36.524,15.586L32.829,14.055C32.497,14.855 32.011,15.582 31.399,16.195L34.226,19.024ZM36.524,15.586C37.057,14.301 37.331,12.923 37.331,11.531L33.331,11.531C33.331,12.397 33.16,13.255 32.829,14.055L36.524,15.586ZM37.331,11.531C37.331,10.14 37.057,8.762 36.524,7.476L32.829,9.007C33.16,9.807 33.331,10.665 33.331,11.531L37.331,11.531ZM36.524,7.476C35.991,6.19 35.211,5.022 34.226,4.039L31.399,6.868C32.011,7.48 32.497,8.207 32.829,9.007L36.524,7.476Z" fill="#FFFFFF"/>
</svg>
