<svg width="52" height="32" viewBox="0 0 52 32" fill="none" xmlns="http://www.w3.org/2000/svg" xmlns:xlink="http://www.w3.org/1999/xlink">
<path d="M44.308,0.542L6.598,0.542C4.898,0.542 3.268,1.141 2.065,2.209C0.863,3.276 0.188,4.724 0.188,6.233L0.188,20.467C0.188,23.612 3.056,26.159 6.194,26.159L16.218,26.159C20.243,26.159 22.906,31.787 25.251,31.787C27.597,31.787 30.695,26.159 34.308,26.159L44.308,26.159C46.008,26.159 47.639,25.559 48.841,24.491C50.043,23.424 50.718,21.976 50.718,20.467L50.718,6.233C50.718,4.724 50.043,3.276 48.841,2.209C47.639,1.141 46.008,0.542 44.308,0.542Z" clip-rule="evenodd" fill-rule="evenodd" fill="#F05161"/>
</svg>
