<svg width="25" height="26" viewBox="0 0 25 26" fill="none" xmlns="http://www.w3.org/2000/svg">
<path d="M12.7498 4.93035C14.5767 4.90224 16.3434 5.58283 17.6792 6.82929L21.2773 3.31091C18.9689 1.14784 15.9131 -0.0382753 12.7498 0.00094242C10.3863 0.000396293 8.06929 0.657342 6.0578 1.89831C4.04632 3.13928 2.4197 4.91535 1.35986 7.02789L5.48261 10.2288C5.98672 8.69594 6.95927 7.36003 8.26311 6.40943C9.56695 5.45882 11.1363 4.94148 12.7498 4.93035Z" fill="#EA4335"/>
<path d="M24.9896 13.0338C25.0046 12.1574 24.914 11.2823 24.7199 10.4275H12.75V15.1596H19.777C19.6437 15.9892 19.344 16.7833 18.8959 17.4941C18.4477 18.2049 17.8605 18.8178 17.1694 19.2958L21.1929 22.4121C22.4468 21.2014 23.4329 19.7413 24.0875 18.1259C24.7421 16.5106 25.0507 14.7758 24.9932 13.0338H24.9896Z" fill="#4285F4"/>
<path d="M5.49743 15.2719C5.21867 14.4603 5.07496 13.6084 5.07203 12.7502C5.07712 11.8934 5.21567 11.0426 5.48271 10.2285L1.35996 7.02764C0.46577 8.80294 0 10.7631 0 12.7508C0 14.7386 0.46577 16.6987 1.35996 18.474L5.49743 15.2719Z" fill="#FBBC05"/>
<path d="M12.7501 25.4999C15.8557 25.5877 18.877 24.4826 21.193 22.4118L17.1695 19.2955C15.865 20.1701 14.32 20.6158 12.7501 20.5705C11.138 20.5609 9.56974 20.0439 8.26794 19.0929C6.96614 18.1418 5.99686 16.805 5.4976 15.2721L1.37485 18.4742C2.43183 20.5858 4.05579 22.3614 6.06485 23.6023C8.07391 24.8431 10.3887 25.5002 12.7501 25.4999Z" fill="#34A853"/>
</svg>
