<svg width="6" height="6" viewBox="0 0 6 6" fill="none" xmlns="http://www.w3.org/2000/svg">
<path d="M2.6182 0C2.98184 0 3.2873 0.0581823 3.53457 0.174547C3.78185 0.290911 3.98184 0.429094 4.13457 0.589095C4.2873 0.741823 4.40367 0.887279 4.48367 1.02546H4.54912V0.109092H5.5855V5.89095H4.54912V4.97458H4.48367C4.40367 5.11276 4.2873 5.26186 4.13457 5.42186C3.98184 5.58186 3.78185 5.72004 3.53457 5.83641C3.2873 5.9455 2.98184 6.00004 2.6182 6.00004C2.18183 6.00004 1.80001 5.91641 1.47274 5.74913C1.14546 5.57458 0.872733 5.34549 0.65455 5.06185C0.436367 4.77094 0.272729 4.4473 0.163638 4.09094C0.0545458 3.73457 0 3.37093 0 3.00002C0 2.62911 0.0545458 2.26547 0.163638 1.9091C0.272729 1.55274 0.436367 1.23274 0.65455 0.949098C0.872733 0.658186 1.14546 0.429094 1.47274 0.26182C1.80001 0.0872734 2.18183 0 2.6182 0ZM2.79274 0.883643C2.40729 0.883643 2.08365 0.989098 1.82183 1.20001C1.56001 1.40365 1.36365 1.66547 1.23274 1.98547C1.1091 2.30547 1.04728 2.64365 1.04728 3.00002C1.04728 3.34911 1.1091 3.6873 1.23274 4.01457C1.36365 4.33458 1.56001 4.60003 1.82183 4.81094C2.08365 5.01458 2.40729 5.1164 2.79274 5.1164C3.1782 5.1164 3.49821 5.01458 3.75276 4.81094C4.01458 4.60003 4.2073 4.33458 4.33094 4.01457C4.46185 3.6873 4.5273 3.34911 4.5273 3.00002C4.5273 2.64365 4.46185 2.30547 4.33094 1.98547C4.2073 1.66547 4.01458 1.40365 3.75276 1.20001C3.49821 0.989098 3.1782 0.883643 2.79274 0.883643Z" fill="#48525F"/>
</svg>
