<svg width="32" height="32" viewBox="0 0 32 32" fill="none" xmlns="http://www.w3.org/2000/svg">
<path d="M12.1372 17.0234L15.2029 19.9933L6.66283 28.2665C6.46154 28.4615 6.22256 28.6162 5.95956 28.7217C5.69655 28.8272 5.41467 28.8815 5.13 28.8815C4.84533 28.8815 4.56347 28.8272 4.30047 28.7217C4.03747 28.6161 3.79849 28.4614 3.5972 28.2664C3.19066 27.8726 2.96226 27.3385 2.96226 26.7815C2.96226 26.2246 3.19064 25.6904 3.59717 25.2966L12.1372 17.0234Z" fill="url(#paint0_linear_3602_2197)" stroke="black" stroke-width="2" stroke-linecap="round" stroke-linejoin="round"/>
<path d="M15.3199 19.9029C27.2941 16.7029 29.8748 12.2028 29.7715 9.00284C29.7715 7.41154 29.119 5.88544 27.9575 4.76023C26.796 3.63501 25.2206 3.00284 23.578 3.00284C20.1715 2.90284 15.6296 5.40284 12.2231 17.0028" stroke="black" stroke-width="2" stroke-linecap="round" stroke-linejoin="round"/>
<path d="M13.978 18.3027C18.2103 9.20269 21.8232 5.10268 24.92 4.10268C25.4347 3.92151 25.9932 3.89133 26.5256 4.01582C27.058 4.14032 27.5407 4.41398 27.9135 4.80269C28.3266 5.15578 28.6176 5.62347 28.7469 6.14229C28.8761 6.6611 28.8374 7.20593 28.6361 7.70271C27.6038 10.7027 23.3716 14.2027 13.978 18.3027Z" stroke="black" stroke-width="2" stroke-linecap="round" stroke-linejoin="round"/>
<defs>
<linearGradient id="paint0_linear_3602_2197" x1="10.5813" y1="18.5514" x2="14.0659" y2="24.6404" gradientUnits="userSpaceOnUse">
<stop stop-color="#FFA654"/>
<stop offset="1" stop-color="#F26702"/>
</linearGradient>
</defs>
</svg>
