<svg width="6" height="9" viewBox="0 0 6 9" fill="none" xmlns="http://www.w3.org/2000/svg">
<path d="M2.80518 8.99996C2.33765 8.99996 1.92856 8.91034 1.57791 8.73112C1.22727 8.54411 0.93506 8.29866 0.701295 7.99476C0.46753 7.68308 0.292206 7.33633 0.175324 6.95451C0.0584413 6.57269 0 6.18309 0 5.78568C0 5.38828 0.0584413 4.99868 0.175324 4.61686C0.292206 4.23504 0.46753 3.89219 0.701295 3.58829C0.93506 3.27661 1.22727 3.03115 1.57791 2.85193C1.92856 2.66492 2.33765 2.57142 2.80518 2.57142C3.19479 2.57142 3.52206 2.63375 3.78699 2.75843C4.05193 2.8831 4.26622 3.03115 4.42985 3.20258C4.59349 3.36622 4.71816 3.52206 4.80387 3.67011H4.874V0H5.98438V8.88307H4.874V7.90126H4.80387C4.71816 8.04931 4.59349 8.20905 4.42985 8.38048C4.26622 8.5519 4.05193 8.69996 3.78699 8.82463C3.52206 8.94151 3.19479 8.99996 2.80518 8.99996ZM2.9922 8.05321C3.40518 8.05321 3.74803 7.94412 4.02075 7.72594C4.30127 7.49996 4.50778 7.21555 4.64024 6.87269C4.7805 6.52204 4.85063 6.15971 4.85063 5.78568C4.85063 5.40387 4.7805 5.04153 4.64024 4.69868C4.50778 4.35582 4.30127 4.0753 4.02075 3.85712C3.74803 3.63115 3.40518 3.51816 2.9922 3.51816C2.57921 3.51816 2.23245 3.63115 1.95193 3.85712C1.67141 4.0753 1.46103 4.35582 1.32077 4.69868C1.1883 5.04153 1.12207 5.40387 1.12207 5.78568C1.12207 6.15971 1.1883 6.52204 1.32077 6.87269C1.46103 7.21555 1.67141 7.49996 1.95193 7.72594C2.23245 7.94412 2.57921 8.05321 2.9922 8.05321Z" fill="#48525F"/>
</svg>
