<svg width="2" height="8" viewBox="0 0 2 8" fill="none" xmlns="http://www.w3.org/2000/svg">
<path d="M0.192255 5.85311L0.149527 0H1.16422L1.10013 5.85311H0.192255ZM0.662208 7.99996C0.469952 7.99996 0.309739 7.93587 0.181569 7.8077C0.0605196 7.67953 0 7.52644 0 7.34843C0 7.16329 0.0605196 7.00664 0.181569 6.87847C0.309739 6.7503 0.469952 6.68621 0.662208 6.68621C0.847342 6.68621 1.00401 6.7503 1.13218 6.87847C1.26035 7.00664 1.32443 7.16329 1.32443 7.34843C1.32443 7.52644 1.26035 7.67953 1.13218 7.8077C1.00401 7.93587 0.847342 7.99996 0.662208 7.99996Z" fill="#48525F"/>
</svg>
