<svg width="18" height="19" viewBox="0 0 18 19" fill="none" xmlns="http://www.w3.org/2000/svg">
<path d="M9 18.5898C8.14286 18.5898 3.27857 13.654 1.35 10.5959C1.07143 10.2203 0.814286 9.73749 0.578571 9.20099L0.514286 9.04004C0.471428 8.90592 0.407143 8.77179 0.364286 8.58402C0.321429 8.44989 0.278572 8.28894 0.235714 8.12799C0.0857144 7.48419 0 6.89404 0 6.33071C0 2.84346 2.27143 0 5.05714 0C6.6 0 8.05714 0.885227 9 2.38743C9.94286 0.885227 11.4 0 12.9429 0C15.7286 0 18 2.84346 18 6.33071C18 6.94769 17.8929 7.51102 17.7643 8.10117C17.7429 8.28894 17.6786 8.44989 17.6357 8.61084L17.6143 8.66449C17.5929 8.71814 17.5714 8.77179 17.55 8.82544C17.5286 8.87909 17.5071 8.95957 17.4643 9.04004V9.06687L17.4214 9.20099C17.1857 9.76432 16.9286 10.2203 16.65 10.6227C14.7214 13.654 9.85714 18.5898 9 18.5898ZM1.56429 8.66449C1.75714 9.09369 1.95 9.44242 2.14286 9.71067L2.16429 9.76432C4.13571 12.8492 8.14286 16.6584 9 17.1949C9.85714 16.6315 13.8643 12.8492 15.8143 9.73749L15.8357 9.68384C16.05 9.41559 16.2429 9.06687 16.4143 8.63767V8.58402L16.5 8.42307C16.5214 8.36942 16.5429 8.31577 16.5643 8.23529C16.5857 8.18164 16.6071 8.10117 16.6286 8.02069C16.65 7.91339 16.6929 7.83292 16.6929 7.75244V7.72562C16.8 7.21594 16.8857 6.75991 16.8857 6.27706C16.8857 3.51408 15.1071 1.2876 12.9 1.2876C11.4429 1.2876 10.1357 2.2533 9.42857 3.86281L9 4.98946L8.52857 3.94328C7.82143 2.33378 6.51429 1.36808 5.05714 1.36808C2.85 1.34125 1.07143 3.56773 1.07143 6.33071C1.07143 6.75991 1.13571 7.24276 1.26429 7.72562L1.28571 7.80609C1.30714 7.88657 1.32857 7.99387 1.37143 8.10117L1.39286 8.12799C1.41429 8.23529 1.45714 8.34259 1.52143 8.44989L1.60714 8.61084V8.66449H1.56429Z" fill="#FF785B"/>
</svg>
