<svg width="36" height="36" viewBox="0 0 36 36" fill="none" xmlns="http://www.w3.org/2000/svg">
<path d="M6 14C6 10.2288 6 8.34315 7.17158 7.17157C8.34315 6 10.2288 6 14 6H22C25.7712 6 27.6569 6 28.8284 7.17157C30 8.34315 30 10.2288 30 14V28C30 28.9428 30 29.4142 29.7071 29.7071C29.4142 30 28.9428 30 28 30H14C10.2288 30 8.34315 30 7.17158 28.8284C6 27.6569 6 25.7712 6 22V14Z" stroke="#CCD2E3" stroke-width="2"/>
<path d="M22.5 15L13.5 15" stroke="#CCD2E3" stroke-width="2" stroke-linecap="round" stroke-linejoin="round"/>
<path d="M22.5 21H18" stroke="#CCD2E3" stroke-width="2" stroke-linecap="round" stroke-linejoin="round"/>
</svg>
