<svg width="13" height="13" viewBox="0 0 13 13" fill="none" xmlns="http://www.w3.org/2000/svg">
<path d="M8.95963 3.78588C7.04999 1.89183 5.52379 1.76336 5.17494 1.76074L1.61322 10.7224C1.54506 10.8939 1.61347 11.0455 1.70037 11.1303C1.78727 11.2151 1.94132 11.2806 2.11285 11.2103L11.0214 7.56287C11.0136 7.2135 10.8644 5.67506 8.95963 3.78588Z" stroke="#0A2533" stroke-width="0.390625" stroke-linejoin="round"/>
<path d="M9.00151 8.17835C8.94656 7.9789 8.8291 7.79367 8.7139 7.61319C8.60324 7.43969 8.4986 7.27591 8.45409 7.11027C8.41057 6.94887 8.419 6.7579 8.42793 6.55584C8.44088 6.2616 8.45421 5.95738 8.30557 5.70243C8.16333 5.45833 7.89698 5.32 7.63955 5.18604C7.46123 5.09324 7.27674 4.99732 7.14997 4.87172C7.02334 4.74599 6.92663 4.56313 6.83306 4.38614C6.698 4.13069 6.55841 3.8665 6.31243 3.72556C6.0555 3.57825 5.7489 3.59147 5.45199 3.60419C5.24814 3.61293 5.05573 3.62128 4.89299 3.57825C4.72599 3.53409 4.56074 3.43032 4.38594 3.32055" stroke="#0A2533" stroke-width="0.390625"/>
<path d="M5.76396 5.14586C5.76396 5.29544 5.64666 5.4167 5.50196 5.4167C5.35726 5.4167 5.23997 5.29544 5.23997 5.14586C5.23997 4.99629 5.35726 4.87503 5.50196 4.87503C5.64666 4.87503 5.76396 4.99629 5.76396 5.14586Z" stroke="#0A2533" stroke-width="0.390625"/>
<path d="M7.50995 7.75928C7.50995 7.90885 7.39265 8.03011 7.24795 8.03011C7.10326 8.03011 6.98596 7.90885 6.98596 7.75928C6.98596 7.6097 7.10326 7.48844 7.24795 7.48844C7.39265 7.48844 7.50995 7.6097 7.50995 7.75928Z" stroke="#0A2533" stroke-width="0.390625"/>
<path d="M5.91827 7.90744C5.91827 8.05702 5.80097 8.17828 5.65627 8.17828C5.51158 8.17828 5.39428 8.05702 5.39428 7.90744C5.39428 7.75787 5.51158 7.63661 5.65627 7.63661C5.80097 7.63661 5.91827 7.75787 5.91827 7.90744Z" stroke="#0A2533" stroke-width="0.390625"/>
<path d="M3.86186 9.25459C3.86186 9.40417 3.74456 9.52543 3.59987 9.52543C3.45517 9.52543 3.33787 9.40417 3.33787 9.25459C3.33787 9.10502 3.45517 8.98376 3.59987 8.98376C3.74456 8.98376 3.86186 9.10502 3.86186 9.25459Z" stroke="#0A2533" stroke-width="0.390625"/>
<path d="M4.38586 7.02827C4.38586 7.17785 4.26856 7.2991 4.12386 7.2991C3.97916 7.2991 3.86186 7.17785 3.86186 7.02827C3.86186 6.87869 3.97916 6.75744 4.12386 6.75744C4.26856 6.75744 4.38586 6.87869 4.38586 7.02827Z" stroke="#0A2533" stroke-width="0.390625"/>
</svg>
