<svg width="54" height="10" viewBox="0 0 54 10" fill="none" xmlns="http://www.w3.org/2000/svg">
<path d="M51.3396 9.92168C50.8597 9.92168 50.4632 9.85909 50.1503 9.73389C49.8373 9.6087 49.5869 9.4522 49.3991 9.26441C49.2113 9.08357 49.0722 8.89926 48.9818 8.71146C48.8913 8.53063 48.8322 8.37761 48.8044 8.25242C48.7766 8.12722 48.7627 8.06462 48.7627 8.06462H49.9416C49.9416 8.06462 49.9555 8.10636 49.9833 8.18982C50.0111 8.28024 50.0703 8.38109 50.1607 8.49237C50.2581 8.61061 50.4006 8.71146 50.5884 8.79493C50.7762 8.88535 51.0231 8.93056 51.3292 8.93056C51.6908 8.93056 51.9795 8.85753 52.1951 8.71146C52.4177 8.57236 52.5742 8.38457 52.6646 8.14809C52.762 7.91856 52.8106 7.66817 52.8106 7.39692V6.77094H52.7585C52.682 6.88918 52.5707 7.02133 52.4246 7.16739C52.2855 7.3065 52.0977 7.42822 51.8613 7.53255C51.6248 7.63687 51.3396 7.68904 51.0058 7.68904C50.5884 7.68904 50.2233 7.60905 49.9103 7.44908C49.6043 7.28911 49.3469 7.07697 49.1383 6.81267C48.9366 6.54142 48.7835 6.23886 48.6792 5.90501C48.5749 5.57116 48.5227 5.23035 48.5227 4.88258C48.5227 4.53482 48.5749 4.19749 48.6792 3.87059C48.7835 3.53674 48.9366 3.23766 49.1383 2.97336C49.3469 2.70211 49.6043 2.48649 49.9103 2.32652C50.2233 2.16655 50.5884 2.08656 51.0058 2.08656C51.3396 2.08656 51.6248 2.13873 51.8613 2.24306C52.0977 2.34043 52.289 2.46215 52.4351 2.60821C52.5811 2.74731 52.6889 2.87946 52.7585 3.00466H52.8106V2.19089H54V7.38648C54 7.88031 53.8991 8.31849 53.6974 8.70103C53.4957 9.08357 53.1967 9.38265 52.8002 9.59826C52.4038 9.81388 51.9169 9.92168 51.3396 9.92168ZM51.277 6.70834C51.6178 6.70834 51.903 6.6214 52.1325 6.44752C52.362 6.26669 52.5324 6.03716 52.6437 5.75895C52.755 5.48074 52.8106 5.18862 52.8106 4.88258C52.8106 4.57655 52.755 4.28443 52.6437 4.00622C52.5324 3.72801 52.362 3.50196 52.1325 3.32808C51.903 3.1542 51.6178 3.06726 51.277 3.06726C50.9292 3.06726 50.6406 3.1542 50.4111 3.32808C50.1816 3.50196 50.0111 3.72801 49.8999 4.00622C49.7886 4.28443 49.7329 4.57655 49.7329 4.88258C49.7329 5.18862 49.7886 5.48074 49.8999 5.75895C50.0111 6.03716 50.1816 6.26669 50.4111 6.44752C50.6406 6.6214 50.9292 6.70834 51.277 6.70834Z" fill="#0A2533"/>
<path d="M42.5749 7.72034V2.19089H43.7642V2.99423H43.8268C43.8755 2.89685 43.959 2.77861 44.0772 2.63951C44.1954 2.49345 44.3589 2.36477 44.5675 2.25349C44.7832 2.14221 45.0544 2.08656 45.3813 2.08656C45.7917 2.08656 46.136 2.18046 46.4142 2.36825C46.6924 2.55604 46.901 2.80643 47.0401 3.11942C47.1862 3.43241 47.2592 3.7767 47.2592 4.15228V7.72034H46.0699V4.27748C46.0699 3.94362 45.976 3.66193 45.7882 3.43241C45.6074 3.20288 45.3361 3.08812 44.9744 3.08812C44.6893 3.08812 44.4563 3.16115 44.2754 3.30721C44.1015 3.44632 43.9729 3.63063 43.8894 3.86016C43.8059 4.08273 43.7642 4.32268 43.7642 4.58003V7.72034H42.5749Z" fill="#0A2533"/>
<path d="M38.1989 2.08656C38.5467 2.08656 38.8353 2.14221 39.0649 2.25349C39.3014 2.36477 39.4891 2.49345 39.6283 2.63951C39.7674 2.78557 39.8682 2.91076 39.9308 3.01509H39.9934V2.19089H41.1828V7.72034H39.9934V6.89614H39.9308C39.8682 7.00047 39.7674 7.12566 39.6283 7.27172C39.4891 7.41778 39.3014 7.54646 39.0649 7.65774C38.8353 7.76902 38.5467 7.82467 38.1989 7.82467C37.7816 7.82467 37.4165 7.74468 37.1035 7.58471C36.7975 7.41778 36.5401 7.19869 36.3314 6.92744C36.1228 6.64922 35.9663 6.33971 35.862 5.99891C35.7646 5.6581 35.7159 5.31033 35.7159 4.95561C35.7159 4.6009 35.7646 4.25313 35.862 3.91232C35.9663 3.57151 36.1228 3.26548 36.3314 2.99423C36.5401 2.71602 36.7975 2.49692 37.1035 2.33695C37.4165 2.17003 37.7816 2.08656 38.1989 2.08656ZM38.4598 3.07769C38.119 3.07769 37.8338 3.17159 37.6043 3.35938C37.3747 3.54022 37.2009 3.77322 37.0826 4.05838C36.9713 4.34355 36.9157 4.64263 36.9157 4.95561C36.9157 5.2686 36.9713 5.56768 37.0826 5.85285C37.2009 6.13801 37.3747 6.37449 37.6043 6.56228C37.8338 6.74312 38.119 6.83354 38.4598 6.83354C38.8006 6.83354 39.0823 6.74312 39.3048 6.56228C39.5344 6.37449 39.7048 6.13801 39.816 5.85285C39.9343 5.56768 39.9934 5.2686 39.9934 4.95561C39.9934 4.64263 39.9343 4.34355 39.816 4.05838C39.7048 3.77322 39.5344 3.54022 39.3048 3.35938C39.0823 3.17159 38.8006 3.07769 38.4598 3.07769Z" fill="#0A2533"/>
<path d="M31.7975 7.82467C31.1923 7.82467 30.6811 7.68904 30.2638 7.41778C29.8535 7.14653 29.5405 6.79181 29.3248 6.35363C29.1162 5.91544 29.0119 5.44944 29.0119 4.95561C29.0119 4.46179 29.1162 3.99579 29.3248 3.5576C29.5405 3.11942 29.8535 2.7647 30.2638 2.49345C30.6811 2.22219 31.1923 2.08656 31.7975 2.08656C32.3956 2.08656 32.8999 2.22219 33.3102 2.49345C33.7275 2.7647 34.0405 3.11942 34.2492 3.5576C34.4648 3.99579 34.5726 4.46179 34.5726 4.95561C34.5726 5.44944 34.4648 5.91544 34.2492 6.35363C34.0405 6.79181 33.7275 7.14653 33.3102 7.41778C32.8999 7.68904 32.3956 7.82467 31.7975 7.82467ZM31.7975 6.81267C32.1383 6.81267 32.4234 6.72573 32.653 6.55185C32.8894 6.37797 33.0668 6.14844 33.185 5.86328C33.3102 5.57811 33.3728 5.27556 33.3728 4.95561C33.3728 4.62872 33.3102 4.32616 33.185 4.04795C33.0668 3.76279 32.8894 3.53326 32.653 3.35938C32.4234 3.1855 32.1383 3.09856 31.7975 3.09856C31.4566 3.09856 31.168 3.1855 30.9315 3.35938C30.695 3.53326 30.5177 3.76279 30.3994 4.04795C30.2812 4.32616 30.2221 4.62872 30.2221 4.95561C30.2221 5.27556 30.2812 5.57811 30.3994 5.86328C30.5177 6.14844 30.695 6.37797 30.9315 6.55185C31.168 6.72573 31.4566 6.81267 31.7975 6.81267Z" fill="#0A2533"/>
<path d="M21.7523 7.72036V0H22.9729V3.25507H26.4262V0H27.6469V7.72036H26.4262V4.34009H22.9729V7.72036H21.7523Z" fill="#0A2533"/>
<path d="M15.4755 7.82467C15.0095 7.82467 14.6026 7.74468 14.2548 7.58471C13.9071 7.41778 13.6184 7.19869 13.3889 6.92744C13.1594 6.64922 12.9855 6.33971 12.8673 5.99891C12.756 5.6581 12.7003 5.31033 12.7003 4.95561C12.7003 4.6009 12.756 4.25313 12.8673 3.91232C12.9855 3.57151 13.1594 3.26548 13.3889 2.99423C13.6184 2.71602 13.9071 2.49692 14.2548 2.33695C14.6026 2.17003 15.0095 2.08656 15.4755 2.08656C15.9345 2.08656 16.3136 2.15612 16.6127 2.29522C16.9187 2.42737 17.1621 2.5943 17.343 2.796C17.5238 2.9977 17.6594 3.19941 17.7499 3.40111C17.8403 3.60281 17.8959 3.77322 17.9168 3.91232C17.9446 4.05143 17.9585 4.12098 17.9585 4.12098H16.8318C16.8318 4.12098 16.8144 4.06882 16.7796 3.96449C16.7518 3.86016 16.6927 3.73844 16.6022 3.59934C16.5118 3.46023 16.3762 3.33851 16.1953 3.23418C16.0215 3.12985 15.785 3.07769 15.4859 3.07769C15.1312 3.07769 14.8356 3.16811 14.5991 3.34895C14.3626 3.52283 14.1818 3.75235 14.0566 4.03752C13.9384 4.32268 13.8792 4.62872 13.8792 4.95561C13.8792 5.28251 13.9384 5.58854 14.0566 5.87371C14.1818 6.15888 14.3626 6.39188 14.5991 6.57272C14.8356 6.7466 15.1312 6.83354 15.4859 6.83354C15.785 6.83354 16.0215 6.78137 16.1953 6.67705C16.3762 6.57272 16.5118 6.451 16.6022 6.31189C16.6927 6.17279 16.7518 6.05107 16.7796 5.94674C16.8144 5.84241 16.8318 5.79025 16.8318 5.79025H17.9585C17.9585 5.79025 17.9446 5.8598 17.9168 5.99891C17.8959 6.13801 17.8403 6.30842 17.7499 6.51012C17.6594 6.71182 17.5238 6.91353 17.343 7.11523C17.1621 7.31693 16.9187 7.48734 16.6127 7.62644C16.3136 7.75859 15.9345 7.82467 15.4755 7.82467Z" fill="#0A2533"/>
<path d="M8.78187 7.82467C8.17676 7.82467 7.66554 7.68904 7.24823 7.41778C6.83787 7.14653 6.52488 6.79181 6.30927 6.35363C6.10061 5.91544 5.99628 5.44944 5.99628 4.95561C5.99628 4.46179 6.10061 3.99579 6.30927 3.5576C6.52488 3.11942 6.83787 2.7647 7.24823 2.49345C7.66554 2.22219 8.17676 2.08656 8.78187 2.08656C9.38002 2.08656 9.88428 2.22219 10.2946 2.49345C10.712 2.7647 11.0249 3.11942 11.2336 3.5576C11.4492 3.99579 11.557 4.46179 11.557 4.95561C11.557 5.44944 11.4492 5.91544 11.2336 6.35363C11.0249 6.79181 10.712 7.14653 10.2946 7.41778C9.88428 7.68904 9.38002 7.82467 8.78187 7.82467ZM8.78187 6.81267C9.12268 6.81267 9.40784 6.72573 9.63737 6.55185C9.87385 6.37797 10.0512 6.14844 10.1694 5.86328C10.2946 5.57811 10.3572 5.27556 10.3572 4.95561C10.3572 4.62872 10.2946 4.32616 10.1694 4.04795C10.0512 3.76279 9.87385 3.53326 9.63737 3.35938C9.40784 3.1855 9.12268 3.09856 8.78187 3.09856C8.44106 3.09856 8.15241 3.1855 7.91593 3.35938C7.67946 3.53326 7.5021 3.76279 7.38386 4.04795C7.26562 4.32616 7.2065 4.62872 7.2065 4.95561C7.2065 5.27556 7.26562 5.57811 7.38386 5.86328C7.5021 6.14844 7.67946 6.37797 7.91593 6.55185C8.15241 6.72573 8.44106 6.81267 8.78187 6.81267Z" fill="#0A2533"/>
<path d="M0 7.72036V0H1.22065V6.6562H5.12256V7.72036H0Z" fill="#0A2533"/>
</svg>
