<svg width="5" height="6" viewBox="0 0 5 6" fill="none" xmlns="http://www.w3.org/2000/svg">
<path d="M1.92222 6C1.33703 6 0.870365 5.81852 0.522217 5.45556C0.174069 5.09259 0 4.58889 0 3.94445V0H1.05555V3.88889C1.05555 4.27407 1.15926 4.57037 1.36667 4.77778C1.58148 4.98519 1.86295 5.08889 2.2111 5.08889C2.56666 5.08889 2.85185 4.9963 3.06667 4.81111C3.28148 4.62593 3.43704 4.38889 3.53333 4.1C3.62963 3.81111 3.67777 3.51482 3.67777 3.21111V0H4.73333V5.88889H3.67777V5.04445H3.6111C3.56666 5.13333 3.48148 5.25556 3.35555 5.41111C3.22962 5.55926 3.05185 5.6963 2.82222 5.82222C2.59259 5.94074 2.29259 6 1.92222 6Z" fill="#48525F"/>
</svg>
