<svg width="12" height="12" viewBox="0 0 12 12" fill="none" xmlns="http://www.w3.org/2000/svg">
<path d="M0.874999 12L2.125 12C2.6075 12 3 11.6075 3 11.125L3 10.942C3.756 11.327 5.473 12 8.2655 12L9.0655 12C10.2245 12 11.2085 11.171 11.405 10.029L11.965 6.779C12.084 6.0855 11.8925 5.3805 11.4405 4.8435C10.989 4.3075 10.327 4 9.6255 4L7.3575 4C7.499 3.62 7.6405 3.066 7.6405 2.375C7.6405 0.496501 6.5775 5.75023e-07 6.0155 5.25892e-07C4.9775 4.35147e-07 4.8905 0.968 4.8905 1.875C4.8905 2.982 3.649 3.902 2.9935 4.311C2.96 3.859 2.5855 3.5 2.125 3.5L0.875 3.5C0.3925 3.5 -3.40293e-07 3.8925 -3.82475e-07 4.375L-9.72578e-07 11.125C-1.01476e-06 11.6075 0.392499 12 0.874999 12ZM5.6405 1.875C5.6405 0.75 5.831 0.750001 6.0155 0.750001C6.3675 0.750001 6.8905 1.183 6.8905 2.375C6.8905 3.483 6.4565 4.162 6.4535 4.167C6.377 4.282 6.3695 4.43 6.435 4.552C6.5 4.674 6.6275 4.75 6.7655 4.75L9.6255 4.75C10.1055 4.75 10.558 4.96 10.867 5.3265C11.1765 5.6935 11.3075 6.1765 11.226 6.651L10.666 9.901C10.5315 10.682 9.8585 11.2495 9.0655 11.2495L8.2655 11.2495C4.864 11.25 3.16 10.186 3 10.0805L3 5.1755C3.4165 4.9545 5.6405 3.6895 5.6405 1.875ZM0.75 4.375C0.75 4.306 0.806 4.25 0.875 4.25L2.125 4.25C2.194 4.25 2.25 4.306 2.25 4.375L2.25 11.125C2.25 11.193 2.193 11.25 2.125 11.25L0.874999 11.25C0.805999 11.25 0.749999 11.194 0.749999 11.125L0.75 4.375Z" fill="#34495E"/>
</svg>
