<svg width="4" height="9" viewBox="0 0 4 9" fill="none" xmlns="http://www.w3.org/2000/svg">
<path d="M1.01688 8.99995V3.71686H0V2.80518H1.01688V2.04544C1.01688 1.71817 1.07532 1.39869 1.1922 1.08701C1.30908 0.767528 1.50388 0.506491 1.77661 0.303895C2.04933 0.101298 2.41947 0 2.887 0C3.11298 0 3.29219 0.0194804 3.42465 0.0584412C3.56491 0.0896099 3.63504 0.105194 3.63504 0.105194V0.981813C3.63504 0.981813 3.57271 0.970125 3.44804 0.946749C3.33116 0.91558 3.19478 0.899996 3.03894 0.899996C2.6805 0.899996 2.43895 1.00909 2.31427 1.22727C2.1896 1.44545 2.12726 1.71817 2.12726 2.04544V2.80518H3.56491V3.71686H2.12726V8.99995H1.01688Z" fill="#48525F"/>
</svg>
