<svg width="13" height="13" viewBox="0 0 13 13" fill="none" xmlns="http://www.w3.org/2000/svg">
<g clip-path="url(#clip0_3580_1158)">
<path d="M9.41025 10.8536C8.57602 11.708 7.46838 12.1769 6.28773 12.1769C5.10707 12.1769 3.99943 11.708 3.16521 10.8536C2.33409 10.0009 1.87581 8.87037 1.87581 7.66756C1.87581 6.969 2.02805 6.29935 2.32788 5.67626C2.61993 5.06763 3.05491 4.52323 3.5831 4.10409C3.91995 3.83783 4.22548 3.53169 4.49344 3.19195C4.88182 2.70215 5.1863 2.15615 5.39758 1.57C5.48424 1.32821 5.54721 1.07805 5.58555 0.823261C5.95994 1.17977 6.27375 1.61015 6.53629 2.1144C7.05515 3.11968 7.29439 4.01416 7.24779 4.77536C7.23665 4.95463 7.26498 5.13418 7.33063 5.30052C7.39628 5.46685 7.49756 5.61563 7.62684 5.73568C7.73888 5.8403 7.8699 5.92086 8.01231 5.97269C8.15472 6.02451 8.30568 6.04657 8.4564 6.03759C8.76244 6.02153 9.04362 5.88181 9.24868 5.64575C9.4553 5.40647 9.63395 5.16238 9.78309 4.91346C10.0006 5.20092 10.1823 5.51407 10.3268 5.8513C10.5738 6.42621 10.6996 7.03805 10.6996 7.66756C10.6996 8.87037 10.2414 10.0025 9.41025 10.8536Z" stroke="#0A2533" stroke-width="0.390625" stroke-linejoin="round"/>
<path d="M7.14997 9.91747C6.81516 10.2604 6.37061 10.4486 5.89677 10.4486C5.42292 10.4486 4.97837 10.2604 4.64356 9.91747C4.31 9.57524 4.12607 9.1215 4.12607 8.63876C4.12607 8.3584 4.18717 8.08963 4.3075 7.83956C4.42472 7.59529 4.59929 7.3768 4.81128 7.20858C4.94647 7.10172 5.0691 6.97885 5.17664 6.8425C5.33251 6.64592 5.45472 6.42679 5.53951 6.19154C5.57429 6.0945 5.59957 5.9941 5.61495 5.89184C5.76521 6.03492 5.89115 6.20765 5.99652 6.41003C6.20477 6.8135 6.30078 7.17249 6.28208 7.47799C6.27761 7.54994 6.28898 7.622 6.31533 7.68876C6.34168 7.75552 6.38232 7.81523 6.43421 7.86341C6.47917 7.9054 6.53176 7.93773 6.58892 7.95853C6.64607 7.97933 6.70666 7.98819 6.76715 7.98458C6.88998 7.97813 7.00283 7.92206 7.08513 7.82732C7.16805 7.73128 7.23975 7.63332 7.29961 7.53342C7.38689 7.64879 7.45984 7.77447 7.51783 7.90981C7.61696 8.14055 7.66746 8.38611 7.66746 8.63876C7.66746 9.1215 7.48353 9.57588 7.14997 9.91747Z" stroke="#0A2533" stroke-width="0.390625" stroke-linejoin="round"/>
</g>
<defs>
<clipPath id="clip0_3580_1158">
<rect width="12.5" height="12.9216" fill="white" transform="scale(1.00606)"/>
</clipPath>
</defs>
</svg>
