<svg width="60" height="70" viewBox="0 0 60 70" fill="none" xmlns="http://www.w3.org/2000/svg" xmlns:xlink="http://www.w3.org/1999/xlink">
<path d="M5.926,28.74C5.869,29.022 6.051,29.297 6.333,29.354C6.615,29.41 6.89,29.228 6.947,28.946L5.926,28.74ZM29.854,7.141L29.854,7.661L29.854,7.141ZM52.762,28.946C52.819,29.228 53.093,29.41 53.375,29.354C53.657,29.297 53.84,29.022 53.783,28.74L52.762,28.946ZM6.947,28.946C8.173,22.866 11.114,17.463 15.277,13.605L14.569,12.84C10.231,16.86 7.191,22.465 5.926,28.74L6.947,28.946ZM15.277,13.605C19.438,9.748 24.575,7.661 29.854,7.661L29.854,6.62C24.293,6.62 18.908,8.819 14.569,12.84L15.277,13.605ZM29.854,7.661C35.133,7.661 40.27,9.748 44.432,13.605L45.14,12.84C40.8,8.819 35.415,6.62 29.854,6.62L29.854,7.661ZM44.432,13.605C48.595,17.463 51.535,22.866 52.762,28.946L53.783,28.74C52.517,22.465 49.477,16.86 45.14,12.84L44.432,13.605Z" fill="#000000"/>
<line x1="-0.224" y1="28.322" x2="59.717" y2="28.322" stroke="#000000" stroke-width="0.521" stroke-miterlimit="3.999327" stroke-linecap="round" stroke-linejoin="round"/>
<line x1="22.12" y1="39.645" x2="37.374" y2="39.645" stroke="#000000" stroke-width="0.521" stroke-miterlimit="3.999327" stroke-linecap="round" stroke-linejoin="round"/>
<path d="M13.116,58.547C13.262,58.299 13.179,57.98 12.932,57.834C12.684,57.688 12.365,57.77 12.219,58.018L13.116,58.547ZM5.988,68.586C5.842,68.834 5.924,69.153 6.172,69.299C6.42,69.445 6.739,69.363 6.885,69.115L5.988,68.586ZM12.219,58.018L5.988,68.586L6.885,69.115L13.116,58.547L12.219,58.018Z" fill="#000000"/>
<path d="M47.272,58.012C47.122,57.766 46.802,57.688 46.556,57.838C46.311,57.988 46.233,58.308 46.383,58.554L47.272,58.012ZM52.828,69.122C52.978,69.368 53.298,69.445 53.544,69.295C53.789,69.146 53.867,68.825 53.717,68.58L52.828,69.122ZM46.383,58.554L52.828,69.122L53.717,68.58L47.272,58.012L46.383,58.554Z" fill="#000000"/>
</svg>
