<svg width="232" height="268" viewBox="0 0 232 268" fill="none" xmlns="http://www.w3.org/2000/svg" xmlns:xlink="http://www.w3.org/1999/xlink">
<path d="M24.114,110.044C23.896,111.126 24.597,112.181 25.679,112.4C26.762,112.618 27.817,111.917 28.035,110.835L24.114,110.044ZM116,27.102L116,29.102L116,27.102ZM203.965,110.835C204.183,111.917 205.238,112.618 206.321,112.4C207.403,112.181 208.104,111.126 207.886,110.044L203.965,110.835ZM28.035,110.835C32.745,87.486 44.037,66.738 60.023,51.923L57.304,48.989C40.648,64.425 28.974,85.948 24.114,110.044L28.035,110.835ZM60.023,51.923C76.002,37.115 95.729,29.102 116,29.102L116,25.102C94.646,25.102 73.967,33.547 57.304,48.989L60.023,51.923ZM116,29.102C136.271,29.102 155.998,37.115 171.977,51.923L174.696,48.989C158.033,33.547 137.354,25.102 116,25.102L116,29.102ZM171.977,51.923C187.963,66.738 199.255,87.486 203.965,110.835L207.886,110.044C203.026,85.948 191.352,64.425 174.696,48.989L171.977,51.923Z" fill="#000000"/>
<line x1="0.5" y1="108.439" x2="230.675" y2="108.439" stroke="#000000" stroke-width="2" stroke-miterlimit="3.999327" stroke-linecap="round" stroke-linejoin="round"/>
<line x1="86.3" y1="151.919" x2="144.875" y2="151.919" stroke="#000000" stroke-width="2" stroke-miterlimit="3.999327" stroke-linecap="round" stroke-linejoin="round"/>
<path d="M51.725,224.502C52.286,223.551 51.969,222.324 51.018,221.763C50.066,221.202 48.84,221.519 48.279,222.471L51.725,224.502ZM24.354,263.052C23.793,264.003 24.11,265.229 25.061,265.79C26.013,266.351 27.239,266.035 27.8,265.083L24.354,263.052ZM48.279,222.471L24.354,263.052L27.8,265.083L51.725,224.502L48.279,222.471Z" fill="#000000"/>
<path d="M182.885,222.445C182.31,221.502 181.079,221.204 180.136,221.779C179.193,222.354 178.895,223.585 179.47,224.528L182.885,222.445ZM204.22,265.109C204.795,266.052 206.026,266.35 206.969,265.775C207.912,265.2 208.21,263.969 207.635,263.026L204.22,265.109ZM179.47,224.528L204.22,265.109L207.635,263.026L182.885,222.445L179.47,224.528Z" fill="#000000"/>
</svg>
