<svg width="60" height="72" viewBox="0 0 60 72" fill="none" xmlns="http://www.w3.org/2000/svg" xmlns:xlink="http://www.w3.org/1999/xlink">
<path d="M5.926,29.427C5.869,29.709 6.051,29.984 6.333,30.041C6.615,30.098 6.89,29.915 6.947,29.633L5.926,29.427ZM29.854,7.819L29.854,8.339L29.854,7.819ZM52.762,29.633C52.819,29.915 53.093,30.098 53.375,30.041C53.657,29.984 53.84,29.709 53.783,29.427L52.762,29.633ZM6.947,29.633C8.173,23.55 11.114,18.145 15.277,14.285L14.569,13.521C10.231,17.543 7.191,23.15 5.926,29.427L6.947,29.633ZM15.277,14.285C19.438,10.427 24.575,8.339 29.854,8.339L29.854,7.298C24.293,7.298 18.908,9.498 14.569,13.521L15.277,14.285ZM29.854,8.339C35.133,8.339 40.27,10.427 44.432,14.285L45.14,13.521C40.8,9.498 35.415,7.298 29.854,7.298L29.854,8.339ZM44.432,14.285C48.595,18.145 51.535,23.55 52.762,29.633L53.783,29.427C52.517,23.15 49.477,17.543 45.14,13.521L44.432,14.285Z" fill="#000000"/>
<line x1="-0.224" y1="29.009" x2="59.718" y2="29.009" stroke="#000000" stroke-width="0.521" stroke-miterlimit="3.999327" stroke-linecap="round" stroke-linejoin="round"/>
<line x1="22.12" y1="40.337" x2="37.374" y2="40.337" stroke="#000000" stroke-width="0.521" stroke-miterlimit="3.999327" stroke-linecap="round" stroke-linejoin="round"/>
<path d="M13.116,59.246C13.262,58.999 13.18,58.679 12.932,58.533C12.684,58.387 12.365,58.47 12.219,58.718L13.116,59.246ZM5.988,69.29C5.842,69.538 5.925,69.857 6.172,70.003C6.42,70.149 6.739,70.067 6.885,69.819L5.988,69.29ZM12.219,58.718L5.988,69.29L6.885,69.819L13.116,59.246L12.219,58.718Z" fill="#000000"/>
<path d="M47.272,58.711C47.122,58.465 46.802,58.387 46.556,58.537C46.311,58.687 46.233,59.007 46.383,59.253L47.272,58.711ZM52.828,69.826C52.978,70.071 53.298,70.149 53.544,69.999C53.79,69.849 53.867,69.529 53.718,69.283L52.828,69.826ZM46.383,59.253L52.828,69.826L53.718,69.283L47.272,58.711L46.383,59.253Z" fill="#000000"/>
</svg>
