<svg width="60" height="72" viewBox="0 0 60 72" fill="none" xmlns="http://www.w3.org/2000/svg" xmlns:xlink="http://www.w3.org/1999/xlink">
<path d="M5.924,29.698C5.867,29.98 6.05,30.255 6.332,30.311C6.614,30.368 6.888,30.186 6.945,29.904L5.924,29.698ZM29.853,8.098L29.853,8.619L29.853,8.098ZM52.76,29.904C52.817,30.186 53.092,30.368 53.374,30.311C53.656,30.255 53.838,29.98 53.781,29.698L52.76,29.904ZM6.945,29.904C8.172,23.823 11.112,18.42 15.275,14.562L14.567,13.798C10.23,17.818 7.19,23.423 5.924,29.698L6.945,29.904ZM15.275,14.562C19.437,10.706 24.574,8.619 29.853,8.619L29.853,7.578C24.292,7.578 18.906,9.777 14.567,13.798L15.275,14.562ZM29.853,8.619C35.132,8.619 40.269,10.706 44.43,14.562L45.138,13.798C40.799,9.777 35.413,7.578 29.853,7.578L29.853,8.619ZM44.43,14.562C48.593,18.42 51.534,23.823 52.76,29.904L53.781,29.698C52.516,23.423 49.476,17.818 45.138,13.798L44.43,14.562Z" fill="#000000"/>
<line x1="-0.226" y1="29.28" x2="59.716" y2="29.28" stroke="#000000" stroke-width="0.521" stroke-miterlimit="3.999327" stroke-linecap="round" stroke-linejoin="round"/>
<line x1="22.118" y1="40.603" x2="37.372" y2="40.603" stroke="#000000" stroke-width="0.521" stroke-miterlimit="3.999327" stroke-linecap="round" stroke-linejoin="round"/>
<path d="M13.115,59.505C13.261,59.257 13.178,58.938 12.93,58.792C12.683,58.645 12.363,58.728 12.217,58.976L13.115,59.505ZM5.987,69.544C5.841,69.792 5.923,70.111 6.171,70.257C6.419,70.403 6.738,70.321 6.884,70.073L5.987,69.544ZM12.217,58.976L5.987,69.544L6.884,70.073L13.115,59.505L12.217,58.976Z" fill="#000000"/>
<path d="M47.271,58.969C47.121,58.724 46.801,58.646 46.555,58.796C46.31,58.946 46.232,59.266 46.382,59.512L47.271,58.969ZM52.827,70.08C52.977,70.325 53.297,70.403 53.543,70.253C53.789,70.103 53.866,69.783 53.716,69.537L52.827,70.08ZM46.382,59.512L52.827,70.08L53.716,69.537L47.271,58.969L46.382,59.512Z" fill="#000000"/>
</svg>
