<svg width="60" height="60" viewBox="0 0 60 60" fill="none" xmlns="http://www.w3.org/2000/svg" xmlns:xlink="http://www.w3.org/1999/xlink">
<path d="M48.315,14.444L49.978,13.333L49.978,13.333L48.315,14.444ZM48.315,40.556L49.978,41.667L49.978,41.667L48.315,40.556ZM45.556,43.315L46.667,44.978L46.667,44.978L45.556,43.315ZM35,44.997L34.991,42.997C33.89,43.001 33,43.895 33,44.997L35,44.997ZM35,45L36.789,45.894C36.928,45.617 37,45.31 37,45L35,45ZM25,45L23,45C23,45.31 23.072,45.617 23.211,45.894L25,45ZM25,44.997L27,44.997C27,43.895 26.11,43.001 25.009,42.997L25,44.997ZM14.444,43.315L13.333,44.978L13.333,44.978L14.444,43.315ZM11.685,40.556L10.022,41.667L10.022,41.667L11.685,40.556ZM11.685,14.444L13.348,15.555L13.348,15.555L11.685,14.444ZM14.444,11.685L15.555,13.348L15.555,13.348L14.444,11.685ZM45.556,11.685L46.667,10.022L46.667,10.022L45.556,11.685ZM52,27.5C52,24.03 52.002,21.278 51.779,19.082C51.552,16.853 51.076,14.978 49.978,13.333L46.652,15.555C47.238,16.433 47.605,17.574 47.8,19.487C47.998,21.433 48,23.947 48,27.5L52,27.5ZM49.978,41.667C51.076,40.022 51.552,38.147 51.779,35.918C52.002,33.722 52,30.97 52,27.5L48,27.5C48,31.053 47.998,33.567 47.8,35.513C47.605,37.426 47.238,38.567 46.652,39.445L49.978,41.667ZM46.667,44.978C47.977,44.102 49.102,42.977 49.978,41.667L46.652,39.445C46.068,40.318 45.318,41.068 44.445,41.652L46.667,44.978ZM35.009,46.997C37.696,46.985 39.91,46.934 41.748,46.68C43.619,46.421 45.231,45.937 46.667,44.978L44.445,41.652C43.678,42.164 42.708,42.509 41.201,42.718C39.661,42.931 37.698,42.985 34.991,42.997L35.009,46.997ZM37,45L37,44.997L33,44.997L33,45L37,45ZM33.578,52.317L36.789,45.894L33.211,44.106L30,50.528L33.578,52.317ZM26.422,52.317C27.896,55.265 32.104,55.265 33.578,52.317L30,50.528L30,50.528L26.422,52.317ZM23.211,45.894L26.422,52.317L30,50.528L26.789,44.106L23.211,45.894ZM23,44.997L23,45L27,45L27,44.997L23,44.997ZM13.333,44.978C14.769,45.937 16.381,46.421 18.252,46.68C20.09,46.934 22.304,46.985 24.991,46.997L25.009,42.997C22.302,42.985 20.339,42.931 18.799,42.718C17.292,42.509 16.323,42.164 15.555,41.652L13.333,44.978ZM10.022,41.667C10.898,42.977 12.023,44.102 13.333,44.978L15.555,41.652C14.682,41.068 13.932,40.318 13.348,39.445L10.022,41.667ZM8,27.5C8,30.97 7.998,33.722 8.221,35.918C8.448,38.147 8.924,40.022 10.022,41.667L13.348,39.445C12.762,38.567 12.395,37.426 12.2,35.513C12.002,33.567 12,31.053 12,27.5L8,27.5ZM10.022,13.333C8.924,14.978 8.448,16.853 8.221,19.082C7.998,21.278 8,24.03 8,27.5L12,27.5C12,23.947 12.002,21.433 12.2,19.487C12.395,17.574 12.762,16.433 13.348,15.555L10.022,13.333ZM13.333,10.022C12.023,10.898 10.898,12.023 10.022,13.333L13.348,15.555C13.932,14.682 14.682,13.932 15.555,13.348L13.333,10.022ZM27.5,8C24.03,8 21.278,7.998 19.082,8.221C16.853,8.448 14.978,8.924 13.333,10.022L15.555,13.348C16.433,12.762 17.574,12.395 19.487,12.2C21.433,12.002 23.947,12 27.5,12L27.5,8ZM32.5,8L27.5,8L27.5,12L32.5,12L32.5,8ZM46.667,10.022C45.022,8.924 43.147,8.448 40.918,8.221C38.722,7.998 35.97,8 32.5,8L32.5,12C36.053,12 38.567,12.002 40.513,12.2C42.426,12.395 43.567,12.762 44.445,13.348L46.667,10.022ZM49.978,13.333C49.102,12.023 47.977,10.898 46.667,10.022L44.445,13.348C45.318,13.932 46.068,14.682 46.652,15.555L49.978,13.333Z" fill="#000000"/>
<circle cx="40" cy="27.5" r="2.5" fill="#000000" stroke="#000000" stroke-width="1" stroke-miterlimit="3.999327" stroke-linecap="round"/>
<circle cx="30" cy="27.5" r="2.5" fill="#000000" stroke="#000000" stroke-width="1" stroke-miterlimit="3.999327" stroke-linecap="round"/>
<circle cx="20" cy="27.5" r="2.5" fill="#000000" stroke="#000000" stroke-width="1" stroke-miterlimit="3.999327" stroke-linecap="round"/>
</svg>
