<svg width="72" height="72" viewBox="0 0 72 72" fill="none" xmlns="http://www.w3.org/2000/svg" xmlns:xlink="http://www.w3.org/1999/xlink">
<path d="M57.657,57.657L56.243,56.243L57.657,57.657ZM12.586,59.414L11.172,60.828L12.586,59.414ZM57.657,14.343L56.243,15.757L57.657,14.343ZM44,10L28,10L28,14L44,14L44,10ZM10,28L10,56L14,56L14,28L10,28ZM16,62L44,62L44,58L16,58L16,62ZM62,44L62,28L58,28L58,44L62,44ZM44,62C47.715,62 50.702,62.004 53.045,61.689C55.445,61.367 57.466,60.676 59.071,59.071L56.243,56.243C55.505,56.981 54.468,57.462 52.512,57.725C50.497,57.996 47.828,58 44,58L44,62ZM58,44C58,47.828 57.996,50.497 57.725,52.512C57.462,54.468 56.981,55.505 56.243,56.243L59.071,59.071C60.676,57.466 61.367,55.445 61.689,53.045C62.004,50.702 62,47.715 62,44L58,44ZM10,56C10,56.886 9.996,57.752 10.091,58.461C10.194,59.227 10.445,60.102 11.172,60.828L14,58C14.141,58.141 14.099,58.251 14.055,57.928C14.004,57.548 14,56.999 14,56L10,56ZM16,58C15.001,58 14.452,57.996 14.072,57.945C13.749,57.901 13.859,57.859 14,58L11.172,60.828C11.898,61.555 12.773,61.806 13.539,61.909C14.248,62.004 15.114,62 16,62L16,58ZM28,10C24.285,10 21.298,9.996 18.955,10.311C16.555,10.633 14.534,11.324 12.929,12.929L15.757,15.757C16.495,15.019 17.532,14.538 19.488,14.275C21.503,14.004 24.172,14 28,14L28,10ZM14,28C14,24.172 14.004,21.503 14.275,19.488C14.538,17.532 15.019,16.495 15.757,15.757L12.929,12.929C11.324,14.534 10.633,16.555 10.311,18.955C9.996,21.298 10,24.285 10,28L14,28ZM44,14C47.828,14 50.497,14.004 52.512,14.275C54.468,14.538 55.505,15.019 56.243,15.757L59.071,12.929C57.466,11.324 55.445,10.633 53.045,10.311C50.702,9.996 47.715,10 44,10L44,14ZM62,28C62,24.285 62.004,21.298 61.689,18.955C61.367,16.555 60.676,14.534 59.071,12.929L56.243,15.757C56.981,16.495 57.462,17.532 57.725,19.488C57.996,21.503 58,24.172 58,28L62,28Z" transform="rotate(360 36 36)" fill="#CCD2E3"/>
<line x1="45" y1="28" x2="27" y2="28" stroke="#CCD2E3" stroke-width="2" stroke-miterlimit="3.999327" stroke-linecap="round" stroke-linejoin="round"/>
<line x1="45" y1="40" x2="36" y2="40" stroke="#CCD2E3" stroke-width="2" stroke-miterlimit="3.999327" stroke-linecap="round" stroke-linejoin="round"/>
</svg>
