<svg width="18" height="16" viewBox="0 0 18 16" fill="none" xmlns="http://www.w3.org/2000/svg" xmlns:xlink="http://www.w3.org/1999/xlink">
<path d="M17.805,0.488C17.969,0.348 17.99,0.102 17.851,-0.063C17.712,-0.228 17.466,-0.249 17.301,-0.11L17.805,0.488ZM0.196,14.323C0.031,14.462 0.011,14.708 0.15,14.873C0.289,15.038 0.535,15.059 0.7,14.92L0.196,14.323ZM17.301,-0.11L0.196,14.323L0.7,14.92L17.805,0.488L17.301,-0.11Z" fill="#000000"/>
<path d="M17.307,14.929C17.472,15.068 17.719,15.047 17.858,14.882C17.997,14.717 17.976,14.471 17.811,14.332L17.307,14.929ZM0.693,-0.115C0.528,-0.255 0.281,-0.234 0.142,-0.069C0.003,0.096 0.024,0.342 0.189,0.482L0.693,-0.115ZM17.811,14.332L0.693,-0.115L0.189,0.482L17.307,14.929L17.811,14.332Z" fill="#000000"/>
</svg>
