<svg width="72" height="72" viewBox="0 0 72 72" fill="none" xmlns="http://www.w3.org/2000/svg" xmlns:xlink="http://www.w3.org/1999/xlink">
<path d="M27.51,46.74C26.94,46.74 26.37,46.53 25.92,46.08C25.05,45.21 25.05,43.77 25.92,42.9L42.9,25.92C43.77,25.05 45.21,25.05 46.08,25.92C46.95,26.79 46.95,28.23 46.08,29.1L29.1,46.08C28.68,46.53 28.08,46.74 27.51,46.74Z" fill="#FFFFFF"/>
<path d="M44.49,46.74C43.92,46.74 43.35,46.53 42.9,46.08L25.92,29.1C25.05,28.23 25.05,26.79 25.92,25.92C26.79,25.05 28.23,25.05 29.1,25.92L46.08,42.9C46.95,43.77 46.95,45.21 46.08,46.08C45.63,46.53 45.06,46.74 44.49,46.74Z" fill="#FFFFFF"/>
</svg>
