<svg width="20" height="18" viewBox="0 0 20 18" fill="none" xmlns="http://www.w3.org/2000/svg" xmlns:xlink="http://www.w3.org/1999/xlink">
<path d="M18.283,0.372C18.435,0.219 18.435,-0.028 18.283,-0.18C18.13,-0.333 17.883,-0.333 17.73,-0.18L18.283,0.372ZM0.301,17.249C0.148,17.402 0.148,17.649 0.301,17.802C0.453,17.954 0.701,17.954 0.853,17.802L0.301,17.249ZM17.73,-0.18L0.301,17.249L0.853,17.802L18.283,0.372L17.73,-0.18Z" fill="#000000"/>
<path d="M17.737,17.813C17.89,17.965 18.137,17.965 18.29,17.813C18.442,17.66 18.442,17.413 18.29,17.26L17.737,17.813ZM0.846,-0.187C0.693,-0.34 0.446,-0.34 0.293,-0.187C0.141,-0.035 0.141,0.212 0.293,0.365L0.846,-0.187ZM18.29,17.26L0.846,-0.187L0.293,0.365L17.737,17.813L18.29,17.26Z" fill="#000000"/>
</svg>
