<svg width="42" height="42" viewBox="0 0 42 42" fill="none" xmlns="http://www.w3.org/2000/svg" xmlns:xlink="http://www.w3.org/1999/xlink">
<path d="M5.366,31.274C-1.789,24.12 -1.789,12.52 5.366,5.366C12.52,-1.789 24.12,-1.789 31.274,5.366C37.814,11.905 38.376,22.159 32.961,29.336L40.189,36.565C42.074,38.45 39.246,41.279 37.36,39.393L30.218,32.251C23.021,38.412 12.178,38.087 5.366,31.274ZM28.446,8.194C22.853,2.602 13.787,2.602 8.194,8.194C2.602,13.787 2.602,22.853 8.194,28.446C13.787,34.038 22.853,34.038 28.446,28.446C34.038,22.853 34.038,13.787 28.446,8.194Z" clip-rule="evenodd" fill-rule="evenodd" fill="#92929D"/>
</svg>
