<svg width="60" height="60" viewBox="0 0 60 60" fill="none" xmlns="http://www.w3.org/2000/svg" xmlns:xlink="http://www.w3.org/1999/xlink">
<path d="M45.5,17.5C45.5,17.859 45.339,18.369 44.701,19.014C44.055,19.669 43.022,20.35 41.587,20.965C38.723,22.192 34.628,23 30,23L30,27C35.037,27 39.692,26.129 43.162,24.642C44.894,23.899 46.423,22.964 47.548,21.824C48.682,20.675 49.5,19.212 49.5,17.5L45.5,17.5ZM30,23C25.372,23 21.277,22.192 18.413,20.965C16.978,20.35 15.945,19.669 15.299,19.014C14.661,18.369 14.5,17.859 14.5,17.5L10.5,17.5C10.5,19.212 11.318,20.675 12.452,21.824C13.577,22.964 15.106,23.899 16.838,24.642C20.308,26.129 24.963,27 30,27L30,23ZM14.5,17.5C14.5,17.141 14.661,16.631 15.299,15.986C15.945,15.331 16.978,14.65 18.413,14.035C21.277,12.808 25.372,12 30,12L30,8C24.963,8 20.308,8.871 16.838,10.358C15.106,11.101 13.577,12.036 12.452,13.176C11.318,14.325 10.5,15.788 10.5,17.5L14.5,17.5ZM30,12C34.628,12 38.723,12.808 41.587,14.035C43.022,14.65 44.055,15.331 44.701,15.986C45.339,16.631 45.5,17.141 45.5,17.5L49.5,17.5C49.5,15.788 48.682,14.325 47.548,13.176C46.423,12.036 44.894,11.101 43.162,10.358C39.692,8.871 35.037,8 30,8L30,12Z" fill="#000000"/>
<path d="M14.468,17.142C14.27,16.055 13.229,15.335 12.142,15.532C11.055,15.73 10.335,16.771 10.532,17.858L14.468,17.142ZM49.468,17.858C49.665,16.771 48.945,15.73 47.858,15.532C46.771,15.335 45.73,16.055 45.532,17.142L49.468,17.858ZM41.048,43.623C40.267,44.404 40.267,45.671 41.048,46.452C41.829,47.233 43.096,47.233 43.877,46.452L41.048,43.623ZM17.491,44.948L15.523,45.306L17.491,44.948ZM17.537,45.037L18.952,43.623L17.537,45.037ZM42.509,44.948L40.542,44.59L40.542,44.59L42.509,44.948ZM45.532,17.142L40.542,44.59L44.477,45.306L49.468,17.858L45.532,17.142ZM19.458,44.59L14.468,17.142L10.532,17.858L15.523,45.306L19.458,44.59ZM41.048,43.623C34.947,49.725 25.053,49.725 18.952,43.623L16.123,46.452C23.787,54.116 36.213,54.116 43.877,46.452L41.048,43.623ZM15.523,45.306C15.602,45.74 15.811,46.14 16.123,46.452L18.952,43.623C19.215,43.886 19.392,44.224 19.458,44.59L15.523,45.306ZM40.542,44.59C40.608,44.224 40.785,43.887 41.048,43.623L43.877,46.452C44.189,46.14 44.398,45.74 44.477,45.306L40.542,44.59Z" fill="#000000"/>
</svg>
