<svg width="88" height="88" viewBox="0 0 88 88" fill="none" xmlns="http://www.w3.org/2000/svg" xmlns:xlink="http://www.w3.org/1999/xlink">
<circle cx="43" cy="44" r="44" fill="#F7D674"/>
<path d="M82.404,63.594C75.196,78.06 60.26,88 43,88C25.74,88 10.804,78.06 3.596,63.594L82.404,63.594Z" fill="#F7AD3B"/>
<path d="M56.923,37.592C60.697,32.992 62.011,27.989 59.797,25.775C58.008,23.986 54.4,24.5 50.655,26.753C50.366,20.169 47.604,15.005 44.237,15.005C40.87,15.005 38.107,20.169 37.818,26.753C34.073,24.501 30.465,23.986 28.676,25.775C26.462,27.989 27.776,32.993 31.551,37.592C30.377,37.613 29.384,37.961 28.676,38.668C26.159,41.186 28.2,47.307 33.234,52.341C36.936,56.043 41.224,58.123 44.237,57.965C47.249,58.123 51.537,56.043 55.239,52.341C60.273,47.307 62.314,41.186 59.797,38.668C59.089,37.96 58.096,37.613 56.923,37.592L56.923,37.592ZM44.024,45.078C44.095,45.076 44.166,45.075 44.237,45.072C44.307,45.075 44.378,45.076 44.449,45.078C44.378,45.163 44.306,45.249 44.237,45.336C44.168,45.249 44.095,45.163 44.024,45.078Z" fill="#23C77D"/>
<path d="M27.873,30.809C27.343,28.698 27.566,26.885 28.676,25.775C30.465,23.986 34.073,24.501 37.818,26.753C38.107,20.169 40.87,15.005 44.237,15.005C45.313,15.005 46.327,15.535 47.219,16.468C43.975,17.715 41.383,22.628 40.561,28.968C40.395,30.251 39.046,30.999 37.869,30.464C33.824,28.626 30.163,28.48 28.182,30.46C28.072,30.571 27.971,30.688 27.873,30.809Z" fill="#03AD6B"/>
<path d="M31.656,21.88L31.656,71.724C31.656,73.622 30.117,75.161 28.219,75.161L11.937,75.161C10.366,73.595 8.914,71.911 7.594,70.124L7.594,21.88C7.594,19.981 9.133,18.442 11.031,18.442L28.219,18.442C30.117,18.442 31.656,19.981 31.656,21.88L31.656,21.88Z" fill="#DCDCE1"/>
<path d="M28.219,75.161L14.469,75.161C12.57,75.161 11.031,73.622 11.031,71.724L11.031,21.88C11.031,19.981 12.57,18.442 14.469,18.442L28.219,18.442C30.117,18.442 31.656,19.981 31.656,21.88L31.656,71.724C31.656,73.622 30.117,75.161 28.219,75.161Z" fill="#F0EFF4"/>
<path d="M26.906,25.317L27.359,25.317C27.834,25.317 28.219,25.702 28.219,26.177L28.219,71.724L12.75,71.724C11.801,71.724 11.031,70.954 11.031,70.005L11.031,29.614C11.031,29.14 11.416,28.755 11.891,28.755L12.344,28.755C14.872,28.755 17.364,28.166 19.625,27.036C21.886,25.906 24.378,25.317 26.906,25.317L26.906,25.317Z" fill="#75C24B"/>
<path d="M27.359,25.317L26.906,25.317C24.378,25.317 21.886,25.906 19.625,27.036C18.002,27.848 16.258,28.378 14.469,28.614L14.469,30.474C15.418,30.474 16.188,31.243 16.188,32.192C16.188,33.142 15.418,33.911 14.469,33.911L14.469,40.786C15.418,40.786 16.188,41.556 16.188,42.505C16.188,43.454 15.418,44.224 14.469,44.224L14.469,64.849C15.418,64.849 16.188,65.618 16.188,66.567C16.188,67.517 15.418,68.286 14.469,68.286L14.469,71.724L28.219,71.724L28.219,26.177C28.219,25.702 27.834,25.317 27.359,25.317L27.359,25.317ZM17.906,61.875C16.957,61.875 16.188,61.106 16.188,60.156C16.188,59.207 16.957,58.438 17.906,58.438C18.856,58.438 19.625,59.207 19.625,60.156C19.625,61.106 18.856,61.875 17.906,61.875ZM21.344,49.844C20.394,49.844 19.625,49.074 19.625,48.125C19.625,47.176 20.394,46.406 21.344,46.406C22.293,46.406 23.063,47.176 23.063,48.125C23.063,49.074 22.293,49.844 21.344,49.844ZM23.063,37.349C22.113,37.349 21.344,36.579 21.344,35.63C21.344,34.681 22.113,33.911 23.063,33.911C24.012,33.911 24.781,34.681 24.781,35.63C24.781,36.579 24.012,37.349 23.063,37.349Z" fill="#8CD246"/>
<path d="M31.656,11.567L31.656,21.88L7.594,21.88L7.594,11.567C7.594,9.669 9.133,8.13 11.031,8.13L14.469,8.13L14.469,6.411L23.063,6.411L23.063,8.13L28.219,8.13C30.117,8.13 31.656,9.669 31.656,11.567Z" fill="#D73247"/>
<path d="M31.656,11.567L31.656,21.88L11.031,21.88L11.031,11.567C11.031,9.669 12.57,8.13 14.469,8.13L18.113,8.13C18.588,8.13 18.972,7.745 18.972,7.271C18.972,6.796 18.588,6.411 18.113,6.411L13.609,6.411C13.135,6.411 12.75,6.026 12.75,5.552C12.75,5.077 13.135,4.692 13.609,4.692L21.344,4.692C22.293,4.692 23.062,5.462 23.062,6.411L23.062,8.13L28.219,8.13C30.117,8.13 31.656,9.669 31.656,11.567Z" fill="#EC3C52"/>
<path d="M73.977,53.416C71.785,59.436 65.78,62.777 60.562,60.878C55.344,58.979 52.891,52.559 55.082,46.539C56.847,41.689 61.088,38.58 65.398,38.547L74.567,13.353C76.235,15.07 77.763,16.923 79.135,18.893L71.212,40.663C74.492,43.459 75.742,48.566 73.977,53.416L73.977,53.416Z" fill="#BB5335"/>
<path d="M58.533,59.82C54.748,57.18 53.198,51.713 55.082,46.539C56.847,41.689 61.088,38.58 65.398,38.547L74.567,13.353C75.334,14.143 76.07,14.962 76.776,15.807L68.054,39.769C67.835,40.372 67.3,40.809 66.663,40.885C62.713,41.351 58.983,44.342 57.356,48.813C55.913,52.777 56.484,56.915 58.533,59.82Z" fill="#A0452C"/>
<path d="M42.892,34.682C49.192,40.74 61.273,45.015 75.42,45.624C77.243,45.702 78.735,48.046 78.749,50.942L78.749,50.997C78.749,60.986 65.998,69.085 50.268,69.085C34.539,69.085 21.788,60.986 21.788,50.997C21.788,43.15 29.658,36.47 40.66,33.966C41.432,33.79 42.224,34.039 42.892,34.682L42.892,34.682Z" fill="#FFF5F5"/>
<path d="M56.734,68.616C54.657,68.923 52.493,69.084 50.268,69.084C34.539,69.084 21.788,60.986 21.788,50.997C21.788,43.149 29.658,36.47 40.66,33.966C41.034,33.881 41.413,33.896 41.779,34.007C35.55,37.706 31.656,42.971 31.656,48.814C31.656,58.517 42.394,66.627 56.734,68.616L56.734,68.616Z" fill="#FBF1D1"/>
<path d="M26.849,70.441C23.484,65.583 20.981,59.673 19.658,53.13C19.455,52.123 20.228,51.183 21.255,51.183L79.283,51.183C80.31,51.183 81.083,52.123 80.88,53.13C79.557,59.673 77.054,65.583 73.689,70.441C70.04,75.708 64.04,78.85 57.633,78.85L42.904,78.85C36.498,78.85 30.497,75.708 26.849,70.441L26.849,70.441Z" fill="#D73247"/>
<path d="M57.633,78.85L48.482,78.85C42.075,78.85 36.075,75.708 32.427,70.441C28.731,65.105 26.075,58.501 24.88,51.183L79.283,51.183C80.309,51.183 81.083,52.123 80.879,53.13C79.557,59.673 77.053,65.583 73.688,70.441C70.04,75.708 64.04,78.85 57.633,78.85L57.633,78.85Z" fill="#EC3C52"/>
<path d="M78.063,72.059C78.063,79.724 71.522,85.938 63.453,85.938C55.384,85.938 48.844,79.724 48.844,72.059C48.844,69.355 49.657,66.833 51.065,64.699C52.492,62.536 53.239,60.01 53.227,57.419C53.227,57.404 53.227,57.39 53.227,57.376C53.227,52.01 57.805,47.661 63.453,47.661C69.101,47.661 73.68,52.01 73.68,57.376L73.68,57.419C73.668,60.01 74.414,62.536 75.841,64.699C77.249,66.833 78.063,69.355 78.063,72.059L78.063,72.059Z" fill="#8CD246"/>
<path d="M65.081,85.85C64.545,85.906 64.004,85.938 63.453,85.938C55.384,85.938 48.844,79.724 48.844,72.059C48.844,69.355 49.657,66.833 51.065,64.699C52.492,62.536 53.239,60.01 53.227,57.419C53.227,57.404 53.227,57.39 53.227,57.376C53.227,52.01 57.805,47.661 63.453,47.661C64.007,47.661 64.55,47.704 65.081,47.785C60.206,48.525 56.481,52.537 56.481,57.376L56.481,57.419C56.493,60.01 55.746,62.536 54.32,64.699C52.912,66.833 52.098,69.355 52.098,72.059C52.098,79.201 57.778,85.081 65.081,85.85L65.081,85.85Z" fill="#75C24B"/>
<path d="M75.871,72.059C75.871,78.503 70.301,83.746 63.453,83.746C56.606,83.746 51.035,78.503 51.035,72.059C51.035,69.877 51.678,67.749 52.894,65.905C54.559,63.382 55.432,60.444 55.418,57.408L55.418,57.376C55.418,53.228 59.023,49.853 63.453,49.853C67.884,49.853 71.488,53.228 71.488,57.376L71.488,57.409C71.474,60.444 72.347,63.382 74.012,65.905C75.229,67.749 75.871,69.877 75.871,72.059Z" fill="#D6EA9F"/>
<path d="M67.018,83.253C61.026,81.794 56.328,77.007 55.589,70.854C55.262,68.127 55.745,65.372 56.988,62.885C58.69,59.482 59.339,55.679 58.866,51.888L58.861,51.847C58.837,51.644 58.822,51.442 58.811,51.24C60.124,50.367 61.724,49.853 63.453,49.853C67.884,49.853 71.488,53.228 71.488,57.376L71.488,57.409C71.474,60.444 72.347,63.382 74.012,65.905C75.229,67.749 75.871,69.877 75.871,72.059C75.871,77.337 72.134,81.807 67.018,83.253L67.018,83.253Z" fill="#E3F0BE"/>
<path d="M67.836,72.789C67.836,76.016 65.873,78.633 63.453,78.633C61.033,78.633 59.07,76.016 59.07,72.789C59.07,69.562 61.033,66.945 63.453,66.945C65.873,66.945 67.836,69.562 67.836,72.789Z" fill="#BB5335"/>
<path d="M67.836,72.789C67.836,75.89 66.024,78.426 63.735,78.62C62.676,77.286 61.992,75.171 61.992,72.789C61.992,70.407 62.676,68.292 63.735,66.959C66.024,67.153 67.836,69.688 67.836,72.789Z" fill="#D25E3E"/>
</svg>
