<svg width="88" height="88" viewBox="0 0 88 88" fill="none" xmlns="http://www.w3.org/2000/svg" xmlns:xlink="http://www.w3.org/1999/xlink">
<path d="M9.692,71.55C3.443,63.779 -0.222,53.841 0.008,43.04C0.517,19.168 20.163,-0.022 44.04,0C68.321,0.022 87.998,19.713 87.998,44C87.998,54.435 84.363,64.02 78.293,71.563C77.882,72.073 77.225,72.315 76.581,72.197C65.871,70.236 54.206,69.158 42,69.158C30.821,69.158 20.096,70.063 10.142,71.722C9.972,71.75 9.8,71.685 9.692,71.55L9.692,71.55Z" fill="#23C77D"/>
<path d="M40.735,34.618C44.51,30.019 45.824,25.016 43.61,22.801C41.821,21.013 38.213,21.527 34.468,23.779C34.179,17.196 31.416,12.031 28.05,12.031C24.683,12.031 21.92,17.196 21.63,23.78C17.886,21.527 14.277,21.013 12.489,22.802C10.275,25.016 11.588,30.019 15.364,34.618C14.19,34.639 13.197,34.987 12.489,35.695C9.972,38.212 12.012,44.334 17.046,49.368C20.748,53.07 25.037,55.15 28.05,54.992C31.061,55.15 35.35,53.07 39.052,49.368C44.086,44.334 46.127,38.212 43.61,35.695C42.902,34.987 41.909,34.639 40.735,34.618L40.735,34.618ZM27.837,42.104C27.908,42.103 27.979,42.102 28.05,42.098C28.119,42.101 28.191,42.103 28.262,42.104C28.191,42.191 28.118,42.276 28.05,42.362C27.98,42.276 27.908,42.191 27.837,42.104Z" fill="#03AD6B"/>
<path d="M66.711,49.198C67.525,50.043 67.982,50.991 67.982,51.992C67.982,55.552 62.211,58.437 55.091,58.437C51.146,58.437 47.617,57.55 45.254,56.155C44.683,57.35 43.999,58.326 43.235,59.014C41.216,61.255 36.713,62.817 31.478,62.817C24.359,62.817 18.587,59.931 18.587,56.371C18.587,55.37 19.043,54.422 19.858,53.577C13.937,52.995 10.098,50.386 10.098,47.255C10.098,44.725 12.385,42.538 16.626,41.482C12.175,36.622 10.476,31.017 12.857,28.636C15.238,26.256 20.843,27.954 25.703,32.405C26.759,28.164 28.946,25.249 31.475,25.249C34.607,25.249 37.216,29.716 37.798,35.637C38.644,34.823 39.592,34.366 40.593,34.366C40.77,34.366 40.944,34.384 41.118,34.412C42.299,31.701 44.037,29.987 45.977,29.987C46.978,29.987 47.926,30.443 48.771,31.258C49.354,25.337 51.962,20.869 55.094,20.869C57.623,20.869 59.81,23.784 60.866,28.025C65.726,23.574 71.331,21.876 73.712,24.257C76.093,26.638 74.394,32.242 69.944,37.103C74.184,38.158 77.099,40.345 77.099,42.875C77.099,46.007 72.632,48.615 66.711,49.198L66.711,49.198Z" fill="#00824D"/>
<path d="M53.066,61.875C46.896,61.875 41.895,56.873 41.895,50.703L41.895,11.172C41.895,5.002 46.896,0 53.066,0C59.236,0 64.238,5.002 64.238,11.172L64.238,50.703C64.238,56.873 59.236,61.875 53.066,61.875Z" fill="#F7C32A"/>
<path d="M64.238,11.172L64.238,50.703C64.238,56.873 59.236,61.875 53.066,61.875C51.802,61.875 50.588,61.662 49.454,61.275C47.846,59.339 46.879,56.853 46.879,54.141L46.879,42.109C46.879,40.685 48.033,39.531 49.457,39.531L58.223,39.531C59.21,39.531 60.003,38.699 59.938,37.698C59.878,36.785 59.079,36.094 58.164,36.094L49.457,36.094C48.033,36.094 46.879,34.94 46.879,33.516C46.879,32.092 48.033,30.938 49.457,30.938L58.223,30.938C59.21,30.938 60.003,30.106 59.937,29.105C59.878,28.191 59.079,27.5 58.164,27.5L49.457,27.5C48.033,27.5 46.879,26.346 46.879,24.922C46.879,23.498 48.033,22.344 49.457,22.344L58.223,22.344C59.21,22.344 60.003,21.512 59.937,20.511C59.878,19.597 59.079,18.906 58.164,18.906L49.457,18.906C48.033,18.906 46.879,17.752 46.879,16.328C46.879,14.904 48.033,13.75 49.457,13.75L58.223,13.75C59.21,13.75 60.003,12.918 59.937,11.917C59.878,11.003 59.079,10.313 58.164,10.313L49.457,10.313C48.033,10.313 46.879,9.158 46.879,7.734C46.879,5.022 47.846,2.536 49.454,0.6C50.588,0.213 51.802,0 53.066,0C59.236,0 64.238,5.002 64.238,11.172Z" fill="#F7D674"/>
<path d="M49.236,38.577C48.446,39.037 47.971,39.892 47.971,40.805C47.971,41.718 48.446,42.573 49.236,43.033C49.985,43.468 50.488,44.28 50.488,45.209L50.488,80.155C50.488,81.545 49.362,82.672 47.971,82.672L26.58,82.672C25.189,82.672 24.063,81.545 24.063,80.155L24.063,45.209C24.063,44.28 24.566,43.468 25.315,43.033C26.104,42.573 26.58,41.718 26.58,40.805C26.58,39.892 26.105,39.037 25.315,38.577C24.566,38.142 24.063,37.33 24.063,36.401L24.063,31.367C24.063,27.56 26.88,24.411 30.544,23.892C31.16,23.805 31.613,23.27 31.613,22.649L31.613,17.525L42.938,17.525L42.938,22.649C42.938,23.27 43.391,23.805 44.007,23.892C47.67,24.411 50.488,27.56 50.488,31.367L50.488,36.401C50.488,37.33 49.985,38.142 49.236,38.577L49.236,38.577Z" fill="#E1EFF4"/>
<path d="M50.488,31.367L50.488,36.4C50.488,37.33 49.985,38.141 49.235,38.577C48.446,39.037 47.971,39.892 47.971,40.805C47.971,41.718 48.446,42.573 49.235,43.032C49.985,43.468 50.488,44.28 50.488,45.209L50.488,80.67C50.488,82.061 49.362,83.187 47.971,83.187L28.051,83.187C27.836,82.817 27.711,82.388 27.711,81.929L27.711,46.467C27.711,45.538 28.215,44.726 28.964,44.291C29.754,43.831 30.228,42.977 30.228,42.063C30.228,41.15 29.754,40.295 28.964,39.836C28.215,39.399 27.711,38.588 27.711,37.659L27.711,32.625C27.711,28.818 30.529,25.669 34.194,25.15C34.809,25.063 35.262,24.528 35.262,23.907L35.262,18.783L42.938,18.783L42.938,22.648C42.938,23.27 43.391,23.805 44.007,23.892C47.67,24.411 50.488,27.56 50.488,31.367L50.488,31.367Z" fill="#FFF5F5"/>
<path d="M46.637,33.381C46.861,33.381 47.049,33.559 47.049,33.783L47.049,33.788L47.049,38.224C47.049,39.043 46.527,39.758 45.752,40.143C44.934,40.548 44.442,41.301 44.442,42.106C44.442,42.912 44.934,43.665 45.752,44.07C46.527,44.454 47.049,45.17 47.049,45.989L47.049,78.156C47.049,79.381 45.882,80.374 44.442,80.374L30.108,80.374C28.669,80.374 27.502,79.381 27.502,78.156L27.502,45.989C27.502,45.17 28.024,44.454 28.799,44.07C29.617,43.665 30.108,42.912 30.108,42.106C30.108,41.301 29.617,40.548 28.799,40.143C28.024,39.758 27.502,39.043 27.502,38.224L27.502,33.788C27.502,33.786 27.502,33.784 27.502,33.783C27.502,33.559 27.69,33.381 27.914,33.381L46.637,33.381Z" fill="#16BADB"/>
<path d="M44.197,15.469L44.197,19.582C44.197,20.53 43.427,21.3 42.478,21.3L32.073,21.3C31.123,21.3 30.354,20.53 30.354,19.582L30.354,15.469C30.354,14.519 31.123,13.75 32.073,13.75L42.478,13.75C43.427,13.75 44.197,14.519 44.197,15.469Z" fill="#F45751"/>
<path d="M34.318,13.757L34.318,21.293C33.437,21.218 32.746,20.481 32.746,19.582L32.746,15.469C32.746,14.568 33.437,13.831 34.318,13.757ZM36.206,21.3L37.936,21.3L37.936,13.75L36.206,13.75L36.206,21.3ZM43.441,14.045L43.441,21.005C43.897,20.695 44.197,20.174 44.197,19.582L44.197,15.469C44.197,14.877 43.897,14.355 43.441,14.045L43.441,14.045ZM39.823,21.3L41.554,21.3L41.554,13.75L39.823,13.75L39.823,21.3Z" fill="#F56D59"/>
<path d="M78.375,71.464C70.312,81.543 57.911,88 44,88C30.089,88 17.688,81.543 9.625,71.464L9.625,44.792C9.625,43.785 10.441,42.969 11.448,42.969C11.931,42.969 12.395,43.161 12.737,43.503L15.155,45.92C15.423,46.189 15.858,46.189 16.127,45.92L18.166,43.88C18.75,43.296 19.542,42.969 20.367,42.969C21.192,42.969 21.984,43.297 22.567,43.88L24.608,45.92C24.876,46.189 25.311,46.189 25.58,45.92L27.62,43.88C28.203,43.296 28.995,42.969 29.82,42.969C30.645,42.969 31.437,43.297 32.02,43.88L34.06,45.92C34.329,46.189 34.764,46.189 35.033,45.92L37.073,43.88C37.656,43.296 38.448,42.969 39.273,42.969C40.099,42.969 40.89,43.297 41.474,43.88L43.513,45.92C43.782,46.189 44.218,46.189 44.485,45.92L46.526,43.88C47.109,43.296 47.901,42.969 48.726,42.969C49.551,42.969 50.343,43.297 50.927,43.88L52.966,45.92C53.235,46.189 53.67,46.189 53.939,45.92L55.978,43.88C56.562,43.296 57.354,42.969 58.179,42.969C59.004,42.969 59.796,43.297 60.379,43.88L62.419,45.92C62.688,46.189 63.123,46.189 63.392,45.92L65.431,43.88C66.015,43.296 66.806,42.969 67.632,42.969C68.457,42.969 69.249,43.297 69.832,43.88L71.872,45.92C72.141,46.189 72.576,46.189 72.845,45.92L75.262,43.503C75.604,43.161 76.067,42.969 76.551,42.969C77.558,42.969 78.374,43.785 78.374,44.792L78.374,71.464L78.375,71.464Z" fill="#F7B95F"/>
<path d="M23.485,79.23C30.102,84.189 38.162,87.327 46.922,87.901C45.956,87.964 44.982,88 44,88C30.089,88 17.688,81.543 9.625,71.464L9.625,44.792C9.625,43.785 10.441,42.969 11.448,42.969C11.931,42.969 12.395,43.161 12.737,43.503L15.155,45.92C15.245,46.01 15.354,46.067 15.469,46.097L15.469,63.055C15.469,69.403 18.405,75.424 23.485,79.23L23.485,79.23Z" fill="#F7AD3B"/>
</svg>
