<svg width="94" height="94" viewBox="0 0 94 94" fill="none" xmlns="http://www.w3.org/2000/svg" xmlns:xlink="http://www.w3.org/1999/xlink">
<path d="M4,-1C1.239,-1 -1,1.239 -1,4C-1,6.761 1.239,9 4,9L4,-1ZM64.104,28.896L67.64,25.36L64.104,28.896ZM82.53,56.472L87.149,54.559L82.53,56.472ZM84,89C84,91.761 86.239,94 89,94C91.761,94 94,91.761 94,89L84,89ZM4,9C14.506,9 24.909,11.069 34.615,15.09L38.442,5.851C27.522,1.328 15.819,-1 4,-1L4,9ZM34.615,15.09C44.321,19.11 53.14,25.003 60.569,32.431L67.64,25.36C59.282,17.003 49.361,10.374 38.442,5.851L34.615,15.09ZM60.569,32.431C67.997,39.86 73.89,48.679 77.91,58.385L87.149,54.559C82.626,43.639 75.997,33.718 67.64,25.36L60.569,32.431ZM77.91,58.385C81.931,68.091 84,78.494 84,89L94,89C94,77.181 91.672,65.478 87.149,54.559L77.91,58.385Z" fill="#FF917A"/>
</svg>
