<svg width="76" height="78" viewBox="0 0 76 78" fill="none" xmlns="http://www.w3.org/2000/svg" xmlns:xlink="http://www.w3.org/1999/xlink">
<path d="M76,38.164C76,59.264 58.987,76.37 38,76.37C17.013,76.37 0,59.264 0,38.164C0,17.063 17.013,-0.042 38,-0.042C58.987,-0.042 76,17.063 76,38.164Z" fill="#FFFFFF" stroke="#FF785B" stroke-width="2" stroke-miterlimit="3.999327"/>
<path d="M38,57.783C36.286,57.783 26.557,47.913 22.7,41.798C22.143,41.047 21.629,40.081 21.157,39.008L21.029,38.686C20.943,38.418 20.814,38.15 20.729,37.774C20.643,37.506 20.557,37.184 20.471,36.863C20.171,35.575 20,34.395 20,33.269C20,26.295 24.543,20.609 30.114,20.609C33.2,20.609 36.114,22.38 38,25.383C39.886,22.38 42.8,20.609 45.886,20.609C51.457,20.609 56,26.295 56,33.269C56,34.502 55.786,35.629 55.529,36.809C55.486,37.184 55.357,37.506 55.271,37.828L55.229,37.935C55.186,38.043 55.143,38.15 55.1,38.257C55.057,38.365 55.014,38.525 54.929,38.686L54.929,38.74L54.843,39.008C54.371,40.135 53.857,41.047 53.3,41.851C49.443,47.913 39.714,57.783 38,57.783ZM23.129,37.935C23.514,38.794 23.9,39.491 24.286,40.027L24.329,40.135C28.271,46.303 36.286,53.92 38,54.993C39.714,53.867 47.729,46.303 51.629,40.081L51.671,39.974C52.1,39.437 52.486,38.74 52.829,37.882L52.829,37.774L53,37.453C53.043,37.345 53.086,37.238 53.129,37.077C53.171,36.97 53.214,36.809 53.257,36.648C53.3,36.433 53.386,36.273 53.386,36.112L53.386,36.058C53.6,35.039 53.771,34.127 53.771,33.161C53.771,27.636 50.214,23.184 45.8,23.184C42.886,23.184 40.271,25.115 38.857,28.334L38,30.587L37.057,28.495C35.643,25.276 33.029,23.345 30.114,23.345C25.7,23.291 22.143,27.744 22.143,33.269C22.143,34.127 22.271,35.092 22.529,36.058L22.571,36.219C22.614,36.38 22.657,36.594 22.743,36.809L22.786,36.863C22.829,37.077 22.914,37.292 23.043,37.506L23.214,37.828L23.214,37.935L23.129,37.935Z" fill="#FF785B"/>
</svg>
