<svg width="18" height="24" viewBox="0 0 18 24" fill="none" xmlns="http://www.w3.org/2000/svg" xmlns:xlink="http://www.w3.org/1999/xlink">
<path d="M15.04,20.191L14.761,19.918L14.761,19.918L15.04,20.191ZM2.626,20.191L2.346,20.463L2.346,20.464L2.626,20.191ZM0.961,9.898L1.313,10.068L1.313,10.067L0.961,9.898ZM3.456,6.773L3.214,6.467L3.213,6.467L3.456,6.773ZM5.266,4.96L4.96,4.717L4.959,4.718L5.266,4.96ZM7.063,1.735L7.431,1.868L7.431,1.867L7.063,1.735ZM7.437,0.251L7.706,-0.032C7.601,-0.132 7.448,-0.166 7.31,-0.119C7.172,-0.071 7.072,0.049 7.051,0.193L7.437,0.251ZM9.327,2.818L9.674,2.639L9.673,2.637L9.327,2.818ZM10.741,8.108L11.131,8.132L11.131,8.131L10.741,8.108ZM11.495,10.017L11.762,9.731L11.761,9.73L11.495,10.017ZM13.144,10.617L13.124,10.227L13.121,10.227L13.144,10.617ZM14.719,9.838L15.014,10.094L15.015,10.093L14.719,9.838ZM15.781,8.382L16.093,8.146C16.015,8.043 15.89,7.985 15.76,7.992C15.631,7.999 15.513,8.07 15.446,8.181L15.781,8.382ZM16.862,10.246L16.503,10.4L16.503,10.401L16.862,10.246ZM14.761,19.918C13.175,21.542 11.074,22.431 8.833,22.431L8.833,23.212C11.286,23.212 13.589,22.237 15.32,20.464L14.761,19.918ZM8.833,22.431C6.592,22.431 4.491,21.542 2.905,19.918L2.346,20.464C4.077,22.237 6.379,23.212 8.833,23.212L8.833,22.431ZM2.905,19.918C1.325,18.297 0.453,16.147 0.453,13.857L-0.328,13.857C-0.328,16.349 0.622,18.695 2.346,20.463L2.905,19.918ZM0.453,13.857C0.453,12.526 0.743,11.253 1.313,10.068L0.609,9.729C-0.013,11.021 -0.328,12.41 -0.328,13.857L0.453,13.857ZM1.313,10.067C1.868,8.911 2.695,7.876 3.699,7.079L3.213,6.467C2.117,7.337 1.215,8.466 0.609,9.729L1.313,10.067ZM3.698,7.08C4.392,6.531 5.021,5.901 5.573,5.202L4.959,4.718C4.445,5.37 3.86,5.956 3.214,6.467L3.698,7.08ZM5.572,5.202C6.37,4.196 6.996,3.073 7.431,1.868L6.696,1.603C6.29,2.728 5.706,3.776 4.96,4.717L5.572,5.202ZM7.431,1.867C7.612,1.363 7.743,0.841 7.823,0.309L7.051,0.193C6.978,0.674 6.859,1.147 6.696,1.604L7.431,1.867ZM7.168,0.534C7.877,1.209 8.476,2.028 8.981,2.998L9.673,2.637C9.135,1.602 8.486,0.711 7.706,-0.032L7.168,0.534ZM8.98,2.997C9.994,4.961 10.438,6.667 10.352,8.084L11.131,8.131C11.23,6.522 10.723,4.671 9.674,2.639L8.98,2.997ZM10.352,8.083C10.326,8.497 10.391,8.911 10.543,9.295L11.269,9.008C11.16,8.731 11.113,8.431 11.131,8.132L10.352,8.083ZM10.543,9.295C10.694,9.679 10.929,10.024 11.229,10.303L11.761,9.73C11.547,9.532 11.379,9.285 11.269,9.008L10.543,9.295ZM11.228,10.302C11.489,10.545 11.795,10.734 12.128,10.855L12.395,10.121C12.162,10.036 11.946,9.904 11.762,9.731L11.228,10.302ZM12.128,10.855C12.461,10.976 12.814,11.028 13.167,11.007L13.121,10.227C12.875,10.241 12.628,10.206 12.395,10.121L12.128,10.855ZM13.165,11.007C13.882,10.969 14.539,10.641 15.014,10.094L14.424,9.582C14.084,9.973 13.623,10.2 13.124,10.227L13.165,11.007ZM15.015,10.093C15.439,9.602 15.807,9.099 16.117,8.583L15.446,8.181C15.163,8.655 14.821,9.122 14.423,9.583L15.015,10.093ZM15.47,8.618C15.883,9.164 16.228,9.759 16.503,10.4L17.221,10.093C16.922,9.393 16.545,8.743 16.093,8.146L15.47,8.618ZM16.503,10.401C16.973,11.495 17.213,12.658 17.213,13.857L17.994,13.857C17.994,12.553 17.733,11.284 17.221,10.092L16.503,10.401ZM17.213,13.857C17.213,16.147 16.341,18.3 14.761,19.918L15.32,20.464C17.044,18.698 17.994,16.349 17.994,13.857L17.213,13.857Z" fill="#0A2533"/>
<path d="M10.547,18.33L10.268,18.057L10.268,18.057L10.547,18.33ZM5.564,18.33L5.285,18.602L5.285,18.603L5.564,18.33ZM4.896,14.199L5.248,14.368L5.249,14.368L4.896,14.199ZM5.898,12.945L5.656,12.638L5.655,12.639L5.898,12.945ZM6.624,12.217L6.318,11.974L6.317,11.975L6.624,12.217ZM7.345,10.923L7.713,11.055L7.713,11.055L7.345,10.923ZM7.495,10.327L7.765,10.044C7.659,9.944 7.507,9.91 7.369,9.958C7.231,10.005 7.131,10.125 7.109,10.269L7.495,10.327ZM8.254,11.357L8.601,11.178L8.6,11.177L8.254,11.357ZM8.822,13.48L9.212,13.504L9.212,13.504L8.822,13.48ZM9.124,14.246L9.391,13.961L9.39,13.96L9.124,14.246ZM9.786,14.487L9.765,14.097L9.763,14.097L9.786,14.487ZM10.418,14.175L10.713,14.431L10.714,14.43L10.418,14.175ZM10.844,13.59L11.156,13.355C11.078,13.251 10.953,13.193 10.823,13.2C10.694,13.207 10.576,13.278 10.509,13.39L10.844,13.59ZM11.278,14.339L10.919,14.492L10.919,14.493L11.278,14.339ZM10.268,18.057C9.675,18.664 8.891,18.995 8.056,18.995L8.056,19.776C9.104,19.776 10.088,19.359 10.826,18.603L10.268,18.057ZM8.056,18.995C7.22,18.995 6.437,18.664 5.844,18.057L5.285,18.603C6.023,19.359 7.007,19.776 8.056,19.776L8.056,18.995ZM5.844,18.057C5.253,17.45 4.926,16.646 4.926,15.788L4.145,15.788C4.145,16.848 4.55,17.848 5.285,18.602L5.844,18.057ZM4.926,15.788C4.926,15.289 5.035,14.812 5.248,14.368L4.544,14.03C4.279,14.58 4.145,15.172 4.145,15.788L4.926,15.788ZM5.249,14.368C5.456,13.936 5.765,13.548 6.141,13.251L5.655,12.639C5.187,13.01 4.803,13.491 4.544,14.03L5.249,14.368ZM6.14,13.251C6.433,13.02 6.698,12.754 6.931,12.459L6.317,11.975C6.122,12.222 5.9,12.445 5.656,12.638L6.14,13.251ZM6.93,12.46C7.266,12.036 7.53,11.563 7.713,11.055L6.978,10.79C6.824,11.218 6.602,11.616 6.318,11.974L6.93,12.46ZM7.713,11.055C7.791,10.838 7.847,10.613 7.882,10.385L7.109,10.269C7.082,10.447 7.038,10.622 6.978,10.791L7.713,11.055ZM7.226,10.61C7.489,10.861 7.715,11.168 7.908,11.538L8.6,11.177C8.374,10.742 8.099,10.362 7.765,10.044L7.226,10.61ZM7.907,11.536C8.303,12.304 8.463,12.945 8.432,13.456L9.212,13.504C9.255,12.8 9.033,12.014 8.601,11.178L7.907,11.536ZM8.432,13.456C8.419,13.656 8.451,13.856 8.524,14.043L9.251,13.756C9.22,13.677 9.206,13.591 9.212,13.504L8.432,13.456ZM8.524,14.043C8.598,14.229 8.712,14.397 8.858,14.533L9.39,13.96C9.33,13.905 9.282,13.835 9.251,13.756L8.524,14.043ZM8.858,14.532C8.985,14.651 9.134,14.743 9.298,14.803L9.565,14.068C9.502,14.045 9.442,14.009 9.391,13.961L8.858,14.532ZM9.298,14.803C9.462,14.862 9.635,14.888 9.809,14.877L9.763,14.097C9.696,14.101 9.629,14.092 9.565,14.068L9.298,14.803ZM9.806,14.877C10.16,14.859 10.482,14.697 10.713,14.431L10.123,13.918C10.027,14.029 9.901,14.09 9.765,14.097L9.806,14.877ZM10.714,14.43C10.892,14.224 11.048,14.011 11.18,13.791L10.509,13.39C10.403,13.567 10.274,13.744 10.122,13.919L10.714,14.43ZM10.533,13.826C10.687,14.03 10.816,14.252 10.919,14.492L11.637,14.185C11.51,13.887 11.349,13.61 11.156,13.355L10.533,13.826ZM10.919,14.493C11.095,14.903 11.185,15.338 11.185,15.788L11.966,15.788C11.966,15.233 11.855,14.692 11.637,14.184L10.919,14.493ZM11.185,15.788C11.185,16.647 10.859,17.452 10.268,18.057L10.826,18.603C11.562,17.85 11.966,16.848 11.966,15.788L11.185,15.788Z" fill="#0A2533"/>
</svg>
