<svg width="20" height="26" viewBox="0 0 20 26" fill="none" xmlns="http://www.w3.org/2000/svg" xmlns:xlink="http://www.w3.org/1999/xlink">
<path d="M15.083,21.082L14.803,20.809L14.803,20.809L15.083,21.082ZM2.668,21.082L2.388,21.354L2.388,21.355L2.668,21.082ZM1.003,10.79L1.355,10.959L1.355,10.959L1.003,10.79ZM3.498,7.664L3.256,7.358L3.256,7.358L3.498,7.664ZM5.308,5.851L5.002,5.608L5.001,5.609L5.308,5.851ZM7.106,2.627L7.473,2.759L7.473,2.758L7.106,2.627ZM7.479,1.142L7.749,0.859C7.643,0.759 7.49,0.725 7.353,0.773C7.215,0.82 7.115,0.94 7.093,1.084L7.479,1.142ZM9.369,3.709L9.716,3.53L9.716,3.528L9.369,3.709ZM10.784,8.999L11.174,9.023L11.174,9.023L10.784,8.999ZM11.537,10.908L11.804,10.622L11.803,10.621L11.537,10.908ZM13.186,11.508L13.166,11.118L13.163,11.118L13.186,11.508ZM14.761,10.729L15.056,10.985L15.057,10.984L14.761,10.729ZM15.824,9.273L16.135,9.037C16.057,8.934 15.932,8.876 15.803,8.883C15.673,8.89 15.555,8.961 15.489,9.072L15.824,9.273ZM16.905,11.138L16.546,11.291L16.546,11.292L16.905,11.138ZM14.803,20.809C13.217,22.433 11.116,23.322 8.875,23.322L8.875,24.103C11.329,24.103 13.631,23.128 15.362,21.355L14.803,20.809ZM8.875,23.322C6.634,23.322 4.533,22.433 2.947,20.809L2.388,21.355C4.119,23.128 6.422,24.103 8.875,24.103L8.875,23.322ZM2.947,20.809C1.367,19.188 0.495,17.038 0.495,14.748L-0.286,14.748C-0.286,17.24 0.664,19.586 2.388,21.354L2.947,20.809ZM0.495,14.748C0.495,13.418 0.785,12.144 1.355,10.959L0.651,10.62C0.03,11.912 -0.286,13.301 -0.286,14.748L0.495,14.748ZM1.355,10.959C1.91,9.802 2.738,8.767 3.741,7.97L3.256,7.358C2.159,8.228 1.257,9.357 0.651,10.621L1.355,10.959ZM3.741,7.971C4.434,7.422 5.063,6.792 5.615,6.093L5.001,5.609C4.488,6.261 3.902,6.847 3.256,7.358L3.741,7.971ZM5.614,6.094C6.413,5.087 7.039,3.964 7.473,2.759L6.738,2.494C6.333,3.619 5.748,4.668 5.002,5.608L5.614,6.094ZM7.473,2.758C7.654,2.254 7.786,1.732 7.866,1.2L7.093,1.084C7.021,1.565 6.902,2.038 6.738,2.495L7.473,2.758ZM7.21,1.425C7.919,2.1 8.518,2.919 9.023,3.889L9.716,3.528C9.177,2.493 8.528,1.602 7.749,0.859L7.21,1.425ZM9.022,3.888C10.036,5.852 10.481,7.558 10.394,8.975L11.174,9.023C11.272,7.413 10.766,5.562 9.716,3.53L9.022,3.888ZM10.394,8.974C10.368,9.388 10.433,9.802 10.585,10.186L11.312,9.899C11.202,9.622 11.155,9.322 11.174,9.023L10.394,8.974ZM10.585,10.186C10.737,10.57 10.971,10.915 11.271,11.194L11.803,10.621C11.589,10.423 11.421,10.176 11.312,9.899L10.585,10.186ZM11.271,11.193C11.531,11.437 11.837,11.625 12.17,11.746L12.437,11.012C12.204,10.927 11.989,10.795 11.804,10.622L11.271,11.193ZM12.17,11.746C12.503,11.867 12.856,11.919 13.21,11.898L13.163,11.118C12.917,11.133 12.67,11.097 12.437,11.012L12.17,11.746ZM13.207,11.898C13.924,11.86 14.581,11.532 15.056,10.985L14.466,10.473C14.126,10.864 13.665,11.092 13.166,11.118L13.207,11.898ZM15.057,10.984C15.481,10.493 15.85,9.99 16.159,9.474L15.489,9.072C15.205,9.546 14.863,10.013 14.466,10.474L15.057,10.984ZM15.512,9.509C15.925,10.055 16.271,10.65 16.546,11.291L17.264,10.984C16.964,10.285 16.587,9.634 16.135,9.037L15.512,9.509ZM16.546,11.292C17.016,12.386 17.255,13.55 17.255,14.748L18.036,14.748C18.036,13.444 17.776,12.175 17.263,10.983L16.546,11.292ZM17.255,14.748C17.255,17.039 16.383,19.191 14.803,20.809L15.362,21.355C17.086,19.589 18.036,17.24 18.036,14.748L17.255,14.748Z" fill="#0A2533"/>
<path d="M10.589,19.221L10.31,18.948L10.31,18.948L10.589,19.221ZM5.607,19.221L5.327,19.493L5.327,19.494L5.607,19.221ZM4.939,15.09L5.291,15.259L5.291,15.259L4.939,15.09ZM5.94,13.836L5.698,13.529L5.697,13.53L5.94,13.836ZM6.666,13.108L6.36,12.865L6.36,12.866L6.666,13.108ZM7.388,11.814L7.755,11.946L7.755,11.946L7.388,11.814ZM7.538,11.218L7.807,10.935C7.702,10.835 7.549,10.801 7.411,10.849C7.273,10.896 7.173,11.016 7.151,11.16L7.538,11.218ZM8.296,12.248L8.643,12.069L8.643,12.068L8.296,12.248ZM8.864,14.371L9.254,14.395L9.254,14.395L8.864,14.371ZM9.166,15.137L9.433,14.852L9.432,14.851L9.166,15.137ZM9.828,15.378L9.808,14.988L9.805,14.988L9.828,15.378ZM10.46,15.066L10.755,15.322L10.756,15.321L10.46,15.066ZM10.887,14.481L11.198,14.246C11.12,14.142 10.995,14.084 10.866,14.091C10.736,14.098 10.618,14.169 10.552,14.281L10.887,14.481ZM11.321,15.23L10.961,15.383L10.962,15.384L11.321,15.23ZM10.31,18.948C9.717,19.555 8.934,19.886 8.098,19.886L8.098,20.667C9.146,20.667 10.13,20.25 10.869,19.494L10.31,18.948ZM8.098,19.886C7.262,19.886 6.479,19.555 5.886,18.948L5.327,19.494C6.065,20.25 7.05,20.667 8.098,20.667L8.098,19.886ZM5.886,18.948C5.295,18.341 4.969,17.537 4.969,16.679L4.187,16.679C4.187,17.739 4.592,18.739 5.327,19.493L5.886,18.948ZM4.969,16.679C4.969,16.18 5.077,15.703 5.291,15.259L4.587,14.921C4.322,15.471 4.187,16.063 4.187,16.679L4.969,16.679ZM5.291,15.259C5.498,14.827 5.808,14.439 6.183,14.142L5.697,13.53C5.23,13.901 4.845,14.382 4.586,14.921L5.291,15.259ZM6.182,14.142C6.475,13.911 6.741,13.645 6.973,13.35L6.36,12.866C6.165,13.113 5.942,13.336 5.698,13.529L6.182,14.142ZM6.972,13.351C7.308,12.927 7.572,12.454 7.755,11.946L7.02,11.681C6.866,12.109 6.644,12.507 6.36,12.865L6.972,13.351ZM7.755,11.946C7.833,11.729 7.89,11.504 7.924,11.276L7.151,11.16C7.125,11.338 7.081,11.513 7.02,11.682L7.755,11.946ZM7.268,11.501C7.532,11.752 7.757,12.059 7.95,12.429L8.643,12.068C8.416,11.633 8.141,11.253 7.807,10.935L7.268,11.501ZM7.949,12.427C8.345,13.195 8.505,13.836 8.474,14.347L9.254,14.395C9.297,13.691 9.075,12.905 8.643,12.069L7.949,12.427ZM8.474,14.347C8.462,14.547 8.493,14.747 8.567,14.934L9.293,14.647C9.262,14.568 9.248,14.482 9.254,14.395L8.474,14.347ZM8.567,14.934C8.64,15.12 8.754,15.288 8.901,15.424L9.432,14.851C9.372,14.796 9.325,14.726 9.293,14.647L8.567,14.934ZM8.9,15.423C9.027,15.542 9.177,15.634 9.34,15.694L9.607,14.959C9.544,14.936 9.484,14.9 9.433,14.852L8.9,15.423ZM9.34,15.694C9.504,15.753 9.678,15.779 9.851,15.768L9.805,14.988C9.738,14.992 9.671,14.983 9.607,14.959L9.34,15.694ZM9.849,15.768C10.202,15.75 10.524,15.588 10.755,15.322L10.165,14.809C10.069,14.92 9.943,14.981 9.808,14.988L9.849,15.768ZM10.756,15.321C10.934,15.115 11.09,14.902 11.222,14.682L10.552,14.281C10.445,14.458 10.316,14.635 10.165,14.81L10.756,15.321ZM10.575,14.717C10.729,14.921 10.859,15.143 10.961,15.383L11.68,15.076C11.552,14.778 11.391,14.501 11.198,14.246L10.575,14.717ZM10.962,15.384C11.138,15.794 11.227,16.229 11.227,16.679L12.009,16.679C12.009,16.124 11.897,15.583 11.679,15.075L10.962,15.384ZM11.227,16.679C11.227,17.538 10.901,18.343 10.31,18.948L10.869,19.494C11.604,18.741 12.009,17.739 12.009,16.679L11.227,16.679Z" fill="#0A2533"/>
</svg>
