<svg width="16" height="20" viewBox="0 0 16 20" fill="none" xmlns="http://www.w3.org/2000/svg" xmlns:xlink="http://www.w3.org/1999/xlink">
<path d="M-0.357,9.98C-0.325,7.716 0.454,5.775 1.985,4.168C2.029,4.122 2.07,4.07 2.114,4.021C2.646,3.419 3.539,3.309 4.18,3.771C4.836,4.241 5.061,5.118 4.692,5.849C4.605,6.026 4.473,6.188 4.335,6.325C2.989,7.688 2.462,9.323 2.936,11.233C3.39,13.057 4.543,14.252 6.259,14.796C7.924,15.322 9.478,14.992 10.831,13.855C11.99,12.883 12.584,11.581 12.605,10.026C12.622,8.798 12.212,7.713 11.448,6.778C11.352,6.659 11.22,6.57 11.118,6.457C10.687,5.992 10.57,5.439 10.755,4.834C10.945,4.223 11.372,3.856 11.975,3.734C12.447,3.639 12.871,3.768 13.252,4.073C13.919,4.605 14.373,5.314 14.774,6.063C15.47,7.364 15.784,8.77 15.734,10.258C15.675,12.073 15.099,13.693 14.013,15.111C12.985,16.449 11.691,17.4 10.12,17.879C7.465,18.692 4.988,18.264 2.763,16.523C1.317,15.392 0.369,13.889 -0.099,12.067C-0.278,11.386 -0.354,10.689 -0.357,9.98Z" transform="rotate(360 7.691 10.881)" fill="#FF917A" stroke="#FFFFFF" stroke-width="0.4" stroke-miterlimit="3.999327"/>
<path d="M6.113,5.005C6.113,3.881 6.11,3.488 6.113,2.364C6.116,1.722 6.403,1.236 6.935,0.93C7.457,0.631 8.001,0.643 8.51,0.964C8.999,1.27 9.271,1.737 9.271,2.339C9.277,4.6 9.277,5.395 9.271,7.656C9.268,8.497 8.657,9.193 7.86,9.273C7.035,9.358 6.297,8.802 6.133,7.965C6.11,7.846 6.107,7.724 6.107,7.601C6.113,6.492 6.113,6.115 6.113,5.005Z" transform="rotate(360 7.691 4.998)" fill="#FF917A" stroke="#FFFFFF" stroke-width="0.4" stroke-miterlimit="3.999327"/>
</svg>
