<svg width="20" height="26" viewBox="0 0 20 26" fill="none" xmlns="http://www.w3.org/2000/svg" xmlns:xlink="http://www.w3.org/1999/xlink">
<path d="M7.99,7.488C7.99,7.272 7.815,7.097 7.599,7.097C7.383,7.097 7.208,7.272 7.208,7.488L7.99,7.488ZM7.208,22.708C7.208,22.924 7.383,23.099 7.599,23.099C7.815,23.099 7.99,22.924 7.99,22.708L7.208,22.708ZM7.208,7.488L7.208,22.708L7.99,22.708L7.99,7.488L7.208,7.488Z" transform="rotate(61.659 7.599 15.098)" fill="#0A2533"/>
<path d="M6.674,20.068L6.283,20.073C6.284,20.18 6.329,20.281 6.408,20.354C6.486,20.427 6.591,20.465 6.697,20.458L6.674,20.068ZM10.219,18.867L9.941,18.593L9.941,18.593L10.219,18.867ZM11.401,15.262L11.791,15.284C11.797,15.181 11.762,15.079 11.693,15.002C11.624,14.924 11.527,14.878 11.424,14.872L11.401,15.262ZM7.856,16.063L7.598,15.769L7.856,16.063ZM6.674,20.068C6.697,20.458 6.697,20.458 6.698,20.458C6.698,20.458 6.698,20.458 6.698,20.458C6.698,20.458 6.698,20.458 6.698,20.458C6.699,20.458 6.7,20.458 6.7,20.458C6.702,20.458 6.704,20.458 6.707,20.457C6.713,20.457 6.721,20.457 6.731,20.456C6.751,20.454 6.781,20.452 6.818,20.449C6.893,20.442 6.999,20.432 7.13,20.416C7.391,20.384 7.75,20.33 8.145,20.242C8.91,20.071 9.896,19.752 10.498,19.14L9.941,18.593C9.51,19.03 8.724,19.312 7.974,19.48C7.611,19.561 7.278,19.611 7.035,19.64C6.914,19.655 6.816,19.665 6.75,19.67C6.716,19.673 6.69,19.675 6.674,19.677C6.665,19.677 6.659,19.678 6.655,19.678C6.653,19.678 6.652,19.678 6.651,19.678C6.65,19.678 6.65,19.678 6.65,19.678C6.65,19.678 6.65,19.678 6.65,19.678C6.65,19.678 6.65,19.678 6.65,19.678C6.65,19.678 6.65,19.678 6.674,20.068ZM10.498,19.14C11.098,18.53 11.411,17.53 11.579,16.753C11.666,16.353 11.718,15.988 11.75,15.723C11.765,15.59 11.776,15.482 11.782,15.407C11.785,15.369 11.788,15.339 11.789,15.318C11.79,15.308 11.79,15.3 11.791,15.294C11.791,15.291 11.791,15.289 11.791,15.287C11.791,15.287 11.791,15.286 11.791,15.286C11.791,15.285 11.791,15.285 11.791,15.285C11.791,15.285 11.791,15.285 11.791,15.285C11.791,15.285 11.791,15.284 11.401,15.262C11.011,15.239 11.011,15.239 11.011,15.239C11.011,15.239 11.011,15.239 11.011,15.239C11.011,15.239 11.011,15.239 11.011,15.239C11.011,15.239 11.011,15.239 11.011,15.239C11.011,15.24 11.011,15.242 11.011,15.244C11.011,15.248 11.01,15.254 11.01,15.263C11.008,15.28 11.006,15.306 11.004,15.34C10.998,15.409 10.988,15.508 10.974,15.632C10.945,15.879 10.895,16.218 10.816,16.588C10.651,17.351 10.372,18.154 9.941,18.593L10.498,19.14ZM11.401,15.262C11.424,14.872 11.424,14.872 11.423,14.872C11.423,14.872 11.423,14.872 11.423,14.872C11.423,14.872 11.423,14.872 11.423,14.872C11.422,14.872 11.421,14.871 11.421,14.871C11.419,14.871 11.417,14.871 11.414,14.871C11.408,14.871 11.401,14.87 11.39,14.87C11.37,14.869 11.341,14.868 11.304,14.867C11.231,14.865 11.125,14.863 10.996,14.864C10.738,14.865 10.381,14.877 9.988,14.92C9.228,15.004 8.233,15.211 7.598,15.769L8.113,16.356C8.552,15.971 9.329,15.778 10.073,15.697C10.433,15.657 10.761,15.646 11,15.645C11.12,15.644 11.216,15.646 11.282,15.648C11.314,15.649 11.34,15.65 11.356,15.65C11.364,15.651 11.37,15.651 11.374,15.651C11.376,15.651 11.378,15.652 11.378,15.652C11.379,15.652 11.379,15.652 11.379,15.652C11.379,15.652 11.379,15.652 11.379,15.652C11.379,15.652 11.379,15.652 11.379,15.652C11.379,15.652 11.379,15.652 11.401,15.262ZM7.598,15.769C7.23,16.093 6.975,16.539 6.795,16.996C6.614,17.455 6.498,17.952 6.424,18.402C6.349,18.854 6.314,19.269 6.297,19.571C6.289,19.723 6.286,19.846 6.284,19.933C6.283,19.976 6.283,20.01 6.283,20.034C6.283,20.046 6.283,20.055 6.283,20.062C6.283,20.065 6.283,20.067 6.283,20.069C6.283,20.07 6.283,20.071 6.283,20.071C6.283,20.072 6.283,20.072 6.283,20.072C6.283,20.072 6.283,20.072 6.283,20.072C6.283,20.073 6.283,20.073 6.674,20.068C7.064,20.064 7.064,20.064 7.064,20.064C7.064,20.064 7.064,20.064 7.064,20.064C7.064,20.064 7.064,20.064 7.064,20.064C7.064,20.064 7.064,20.063 7.064,20.063C7.064,20.062 7.064,20.06 7.064,20.058C7.064,20.053 7.064,20.046 7.064,20.036C7.064,20.016 7.065,19.986 7.065,19.947C7.067,19.869 7.07,19.754 7.078,19.614C7.093,19.331 7.125,18.946 7.194,18.53C7.263,18.112 7.367,17.674 7.522,17.282C7.677,16.888 7.874,16.567 8.113,16.356L7.598,15.769Z" transform="rotate(61.659 9.037 17.661)" fill="#0A2533"/>
<path d="M9.8,14.47L9.41,14.475C9.411,14.582 9.456,14.683 9.534,14.756C9.612,14.829 9.717,14.867 9.824,14.86L9.8,14.47ZM13.346,13.269L13.067,12.995L13.067,12.995L13.346,13.269ZM14.528,9.664L14.918,9.687C14.924,9.583 14.888,9.481 14.819,9.404C14.751,9.326 14.654,9.28 14.55,9.274L14.528,9.664ZM10.982,10.465L10.724,10.171L10.982,10.465ZM9.8,14.47C9.824,14.86 9.824,14.86 9.824,14.86C9.824,14.86 9.824,14.86 9.824,14.86C9.824,14.86 9.825,14.86 9.825,14.86C9.825,14.86 9.826,14.86 9.827,14.86C9.828,14.86 9.831,14.86 9.834,14.86C9.839,14.859 9.847,14.859 9.857,14.858C9.878,14.856 9.907,14.854 9.944,14.851C10.019,14.844 10.126,14.834 10.256,14.818C10.517,14.786 10.877,14.732 11.271,14.644C12.037,14.473 13.023,14.154 13.624,13.543L13.067,12.995C12.637,13.432 11.85,13.714 11.101,13.882C10.738,13.963 10.404,14.013 10.162,14.042C10.041,14.057 9.943,14.067 9.876,14.073C9.843,14.075 9.817,14.077 9.8,14.079C9.792,14.079 9.785,14.08 9.781,14.08C9.779,14.08 9.778,14.08 9.777,14.08C9.777,14.08 9.777,14.08 9.776,14.08C9.776,14.08 9.776,14.08 9.776,14.08C9.776,14.08 9.776,14.08 9.776,14.08C9.777,14.08 9.777,14.08 9.8,14.47ZM13.624,13.543C14.225,12.932 14.538,11.932 14.706,11.155C14.792,10.755 14.845,10.39 14.876,10.125C14.892,9.992 14.902,9.884 14.908,9.809C14.912,9.771 14.914,9.741 14.915,9.72C14.916,9.71 14.917,9.702 14.917,9.696C14.917,9.693 14.917,9.691 14.917,9.69C14.918,9.689 14.918,9.688 14.918,9.688C14.918,9.687 14.918,9.687 14.918,9.687C14.918,9.687 14.918,9.687 14.918,9.687C14.918,9.687 14.918,9.687 14.528,9.664C14.138,9.641 14.138,9.641 14.138,9.641C14.138,9.641 14.138,9.641 14.138,9.641C14.138,9.641 14.138,9.641 14.138,9.641C14.138,9.641 14.138,9.641 14.138,9.642C14.138,9.642 14.138,9.644 14.137,9.646C14.137,9.65 14.137,9.656 14.136,9.665C14.135,9.682 14.133,9.708 14.13,9.742C14.124,9.811 14.115,9.91 14.1,10.034C14.071,10.281 14.022,10.62 13.942,10.99C13.777,11.753 13.499,12.556 13.067,12.995L13.624,13.543ZM14.528,9.664C14.55,9.274 14.55,9.274 14.55,9.274C14.55,9.274 14.55,9.274 14.55,9.274C14.549,9.274 14.549,9.274 14.549,9.274C14.549,9.274 14.548,9.274 14.547,9.274C14.545,9.273 14.543,9.273 14.54,9.273C14.535,9.273 14.527,9.273 14.517,9.272C14.497,9.271 14.468,9.27 14.431,9.269C14.357,9.267 14.252,9.265 14.122,9.266C13.864,9.267 13.508,9.279 13.115,9.322C12.355,9.406 11.359,9.614 10.724,10.171L11.24,10.758C11.678,10.373 12.455,10.181 13.2,10.099C13.559,10.06 13.888,10.048 14.127,10.047C14.246,10.046 14.342,10.048 14.408,10.05C14.441,10.051 14.466,10.052 14.483,10.053C14.491,10.053 14.497,10.053 14.501,10.053C14.503,10.054 14.504,10.054 14.505,10.054C14.505,10.054 14.505,10.054 14.506,10.054C14.506,10.054 14.506,10.054 14.506,10.054C14.506,10.054 14.505,10.054 14.505,10.054C14.505,10.054 14.505,10.054 14.528,9.664ZM10.724,10.171C10.356,10.495 10.101,10.941 9.921,11.398C9.74,11.858 9.624,12.354 9.55,12.804C9.475,13.256 9.44,13.671 9.424,13.973C9.416,14.125 9.412,14.248 9.411,14.335C9.41,14.378 9.41,14.412 9.41,14.436C9.409,14.448 9.409,14.457 9.41,14.464C9.41,14.467 9.41,14.469 9.41,14.471C9.41,14.472 9.41,14.473 9.41,14.474C9.41,14.474 9.41,14.474 9.41,14.474C9.41,14.474 9.41,14.474 9.41,14.475C9.41,14.475 9.41,14.475 9.8,14.47C10.191,14.466 10.191,14.466 10.191,14.466C10.191,14.466 10.191,14.466 10.191,14.466C10.191,14.466 10.191,14.466 10.191,14.466C10.191,14.466 10.191,14.465 10.191,14.465C10.191,14.464 10.191,14.462 10.191,14.46C10.191,14.455 10.191,14.448 10.191,14.438C10.191,14.418 10.191,14.388 10.192,14.349C10.193,14.271 10.196,14.156 10.204,14.016C10.219,13.734 10.252,13.348 10.321,12.932C10.39,12.514 10.494,12.076 10.648,11.684C10.804,11.29 11,10.969 11.24,10.758L10.724,10.171Z" transform="rotate(61.659 12.164 12.063)" fill="#0A2533"/>
<path d="M10.617,7.904L10.227,7.909C10.228,8.016 10.273,8.117 10.351,8.19C10.43,8.263 10.535,8.301 10.641,8.294L10.617,7.904ZM14.141,6.695L13.861,6.423L13.861,6.423L14.141,6.695ZM15.316,3.069L15.706,3.092C15.718,2.876 15.554,2.691 15.338,2.679L15.316,3.069ZM11.792,3.875L11.532,3.583L11.792,3.875ZM10.617,7.904C10.641,8.294 10.641,8.294 10.641,8.294C10.642,8.294 10.642,8.294 10.642,8.294C10.642,8.294 10.642,8.294 10.642,8.294C10.643,8.294 10.644,8.294 10.644,8.294C10.646,8.294 10.648,8.294 10.651,8.293C10.657,8.293 10.665,8.292 10.675,8.292C10.695,8.29 10.724,8.288 10.761,8.285C10.836,8.278 10.942,8.267 11.072,8.251C11.331,8.219 11.689,8.165 12.081,8.077C12.842,7.904 13.823,7.583 14.421,6.968L13.861,6.423C13.433,6.863 12.653,7.146 11.908,7.315C11.548,7.396 11.217,7.446 10.976,7.476C10.856,7.491 10.759,7.5 10.692,7.506C10.659,7.509 10.633,7.511 10.617,7.513C10.608,7.513 10.602,7.514 10.598,7.514C10.596,7.514 10.595,7.514 10.594,7.514C10.594,7.514 10.593,7.514 10.593,7.514C10.593,7.514 10.593,7.514 10.593,7.514C10.593,7.514 10.593,7.514 10.593,7.514C10.593,7.514 10.593,7.514 10.617,7.904ZM14.421,6.968C15.018,6.354 15.328,5.349 15.495,4.568C15.581,4.166 15.633,3.799 15.664,3.532C15.68,3.399 15.69,3.29 15.696,3.214C15.7,3.176 15.702,3.146 15.703,3.125C15.704,3.115 15.705,3.107 15.705,3.101C15.705,3.098 15.705,3.096 15.705,3.095C15.705,3.094 15.706,3.093 15.706,3.093C15.706,3.092 15.706,3.092 15.706,3.092C15.706,3.092 15.706,3.092 15.706,3.092C15.706,3.092 15.706,3.092 15.316,3.069C14.926,3.046 14.926,3.046 14.926,3.046C14.926,3.046 14.926,3.046 14.926,3.046C14.926,3.046 14.926,3.046 14.926,3.046C14.926,3.046 14.926,3.047 14.926,3.047C14.926,3.048 14.925,3.049 14.925,3.051C14.925,3.056 14.925,3.062 14.924,3.071C14.923,3.088 14.921,3.114 14.918,3.149C14.912,3.217 14.903,3.318 14.888,3.442C14.859,3.691 14.81,4.032 14.731,4.405C14.567,5.173 14.29,5.981 13.861,6.423L14.421,6.968ZM15.316,3.069C15.338,2.679 15.338,2.679 15.338,2.679C15.338,2.679 15.338,2.679 15.338,2.679C15.338,2.679 15.337,2.679 15.337,2.679C15.337,2.679 15.336,2.679 15.335,2.679C15.334,2.679 15.331,2.679 15.329,2.678C15.323,2.678 15.315,2.678 15.305,2.677C15.285,2.676 15.256,2.675 15.22,2.674C15.146,2.672 15.041,2.67 14.913,2.671C14.656,2.672 14.301,2.685 13.911,2.728C13.155,2.812 12.164,3.021 11.532,3.583L12.052,4.167C12.487,3.78 13.258,3.586 13.997,3.504C14.354,3.465 14.68,3.453 14.917,3.452C15.036,3.451 15.131,3.453 15.196,3.455C15.229,3.456 15.254,3.457 15.27,3.458C15.279,3.458 15.285,3.458 15.288,3.459C15.29,3.459 15.292,3.459 15.292,3.459C15.293,3.459 15.293,3.459 15.293,3.459C15.293,3.459 15.293,3.459 15.293,3.459C15.293,3.459 15.293,3.459 15.293,3.459C15.293,3.459 15.293,3.459 15.316,3.069ZM11.532,3.583C11.166,3.908 10.913,4.357 10.735,4.816C10.555,5.278 10.44,5.777 10.366,6.229C10.292,6.683 10.257,7.101 10.241,7.405C10.233,7.557 10.229,7.681 10.228,7.768C10.227,7.812 10.227,7.846 10.227,7.87C10.227,7.882 10.227,7.891 10.227,7.897C10.227,7.901 10.227,7.903 10.227,7.905C10.227,7.906 10.227,7.907 10.227,7.907C10.227,7.908 10.227,7.908 10.227,7.908C10.227,7.908 10.227,7.908 10.227,7.908C10.227,7.908 10.227,7.909 10.617,7.904C11.008,7.9 11.008,7.9 11.008,7.9C11.008,7.9 11.008,7.9 11.008,7.9C11.008,7.9 11.008,7.9 11.008,7.9C11.008,7.9 11.008,7.899 11.008,7.899C11.008,7.898 11.008,7.896 11.008,7.894C11.008,7.889 11.008,7.882 11.008,7.872C11.008,7.852 11.008,7.821 11.009,7.782C11.01,7.703 11.014,7.588 11.021,7.447C11.036,7.162 11.069,6.774 11.137,6.355C11.206,5.935 11.309,5.493 11.463,5.099C11.618,4.702 11.813,4.378 12.052,4.167L11.532,3.583Z" transform="rotate(-30.964 12.966 5.483)" fill="#0A2533"/>
<path d="M2.276,17.443L1.885,17.448C1.887,17.555 1.932,17.657 2.01,17.729C2.088,17.802 2.193,17.84 2.3,17.833L2.276,17.443ZM5.822,16.242L5.543,15.968L5.543,15.968L5.822,16.242ZM7.004,12.637L7.394,12.66C7.4,12.556 7.364,12.455 7.295,12.377C7.226,12.3 7.129,12.253 7.026,12.247L7.004,12.637ZM3.458,13.438L3.2,13.144L3.458,13.438ZM2.276,17.443C2.3,17.833 2.3,17.833 2.3,17.833C2.3,17.833 2.3,17.833 2.3,17.833C2.3,17.833 2.3,17.833 2.301,17.833C2.301,17.833 2.302,17.833 2.303,17.833C2.304,17.833 2.307,17.833 2.309,17.833C2.315,17.832 2.323,17.832 2.333,17.831C2.354,17.83 2.383,17.827 2.42,17.824C2.495,17.817 2.601,17.807 2.732,17.791C2.993,17.759 3.353,17.705 3.747,17.617C4.513,17.446 5.499,17.127 6.1,16.516L5.543,15.968C5.113,16.406 4.326,16.687 3.577,16.855C3.214,16.936 2.88,16.986 2.638,17.015C2.517,17.03 2.419,17.04 2.352,17.046C2.318,17.049 2.293,17.051 2.276,17.052C2.267,17.052 2.261,17.053 2.257,17.053C2.255,17.053 2.254,17.053 2.253,17.053C2.253,17.053 2.252,17.053 2.252,17.053C2.252,17.054 2.252,17.054 2.252,17.053C2.252,17.053 2.252,17.053 2.252,17.053C2.252,17.053 2.252,17.053 2.276,17.443ZM6.1,16.516C6.701,15.905 7.014,14.905 7.181,14.128C7.268,13.728 7.321,13.363 7.352,13.098C7.368,12.966 7.378,12.857 7.384,12.782C7.388,12.744 7.39,12.714 7.391,12.694C7.392,12.683 7.393,12.675 7.393,12.669C7.393,12.667 7.393,12.664 7.393,12.663C7.393,12.662 7.393,12.661 7.393,12.661C7.393,12.66 7.393,12.66 7.393,12.66C7.394,12.66 7.394,12.66 7.394,12.66C7.394,12.66 7.394,12.66 7.004,12.637C6.614,12.614 6.614,12.614 6.614,12.614C6.614,12.614 6.614,12.614 6.614,12.614C6.614,12.614 6.614,12.614 6.614,12.614C6.614,12.614 6.614,12.614 6.614,12.615C6.614,12.616 6.613,12.617 6.613,12.619C6.613,12.623 6.613,12.629 6.612,12.638C6.611,12.655 6.609,12.682 6.606,12.716C6.6,12.784 6.591,12.884 6.576,13.007C6.547,13.254 6.498,13.593 6.418,13.963C6.253,14.727 5.975,15.529 5.543,15.968L6.1,16.516ZM7.004,12.637C7.026,12.247 7.026,12.247 7.026,12.247C7.026,12.247 7.026,12.247 7.026,12.247C7.025,12.247 7.025,12.247 7.025,12.247C7.024,12.247 7.024,12.247 7.023,12.247C7.021,12.247 7.019,12.246 7.016,12.246C7.011,12.246 7.003,12.246 6.993,12.245C6.973,12.244 6.944,12.243 6.907,12.242C6.833,12.24 6.728,12.238 6.598,12.239C6.34,12.24 5.984,12.252 5.591,12.296C4.831,12.379 3.835,12.587 3.2,13.144L3.716,13.731C4.154,13.346 4.931,13.154 5.676,13.072C6.035,13.033 6.364,13.021 6.603,13.02C6.722,13.019 6.818,13.021 6.884,13.023C6.917,13.024 6.942,13.025 6.958,13.026C6.967,13.026 6.973,13.026 6.977,13.027C6.979,13.027 6.98,13.027 6.981,13.027C6.981,13.027 6.981,13.027 6.981,13.027C6.981,13.027 6.981,13.027 6.981,13.027C6.981,13.027 6.981,13.027 6.981,13.027C6.981,13.027 6.981,13.027 7.004,12.637ZM3.2,13.144C2.832,13.468 2.577,13.915 2.397,14.371C2.216,14.831 2.1,15.327 2.026,15.777C1.951,16.229 1.916,16.645 1.9,16.947C1.892,17.098 1.888,17.222 1.886,17.308C1.886,17.351 1.885,17.386 1.885,17.409C1.885,17.421 1.885,17.43 1.885,17.437C1.885,17.44 1.885,17.443 1.885,17.444C1.885,17.445 1.885,17.446 1.885,17.447C1.885,17.447 1.885,17.447 1.885,17.447C1.885,17.447 1.885,17.448 1.885,17.448C1.885,17.448 1.885,17.448 2.276,17.443C2.667,17.439 2.667,17.439 2.667,17.439C2.667,17.439 2.667,17.439 2.667,17.439C2.667,17.439 2.667,17.439 2.667,17.439C2.667,17.439 2.667,17.439 2.667,17.438C2.667,17.437 2.667,17.435 2.667,17.433C2.667,17.428 2.667,17.421 2.667,17.411C2.667,17.391 2.667,17.361 2.668,17.322C2.669,17.244 2.672,17.13 2.68,16.989C2.695,16.707 2.728,16.321 2.797,15.905C2.866,15.487 2.97,15.049 3.124,14.658C3.28,14.263 3.476,13.942 3.716,13.731L3.2,13.144Z" transform="rotate(-298.34 4.64 15.036)" fill="#0A2533"/>
<path d="M5.403,11.845L5.012,11.85C5.013,11.957 5.058,12.059 5.137,12.131C5.215,12.204 5.32,12.242 5.426,12.235L5.403,11.845ZM8.948,10.644L8.67,10.37L8.67,10.37L8.948,10.644ZM10.13,7.039L10.52,7.062C10.526,6.958 10.491,6.857 10.422,6.779C10.353,6.702 10.256,6.655 10.153,6.649L10.13,7.039ZM6.585,7.84L6.327,7.547L6.585,7.84ZM5.403,11.845C5.426,12.235 5.426,12.235 5.427,12.235C5.427,12.235 5.427,12.235 5.427,12.235C5.427,12.235 5.427,12.235 5.427,12.235C5.428,12.235 5.429,12.235 5.429,12.235C5.431,12.235 5.433,12.235 5.436,12.235C5.442,12.234 5.45,12.234 5.46,12.233C5.48,12.232 5.51,12.229 5.547,12.226C5.622,12.219 5.728,12.209 5.859,12.193C6.12,12.161 6.479,12.108 6.874,12.019C7.639,11.848 8.625,11.529 9.227,10.918L8.67,10.37C8.239,10.808 7.453,11.09 6.703,11.257C6.34,11.338 6.007,11.388 5.764,11.418C5.643,11.432 5.545,11.442 5.479,11.448C5.445,11.451 5.42,11.453 5.403,11.454C5.394,11.455 5.388,11.455 5.384,11.455C5.382,11.455 5.381,11.455 5.38,11.456C5.379,11.456 5.379,11.456 5.379,11.456C5.379,11.456 5.379,11.456 5.379,11.456C5.379,11.456 5.379,11.456 5.379,11.456C5.379,11.456 5.379,11.456 5.403,11.845ZM9.227,10.918C9.827,10.307 10.14,9.307 10.308,8.53C10.395,8.13 10.447,7.765 10.479,7.5C10.494,7.368 10.505,7.26 10.511,7.184C10.514,7.146 10.517,7.116 10.518,7.096C10.519,7.085 10.519,7.077 10.52,7.072C10.52,7.069 10.52,7.066 10.52,7.065C10.52,7.064 10.52,7.063 10.52,7.063C10.52,7.063 10.52,7.062 10.52,7.062C10.52,7.062 10.52,7.062 10.52,7.062C10.52,7.062 10.52,7.062 10.13,7.039C9.74,7.016 9.74,7.016 9.74,7.016C9.74,7.016 9.74,7.016 9.74,7.016C9.74,7.016 9.74,7.016 9.74,7.016C9.74,7.016 9.74,7.016 9.74,7.017C9.74,7.018 9.74,7.019 9.74,7.021C9.74,7.025 9.739,7.032 9.739,7.04C9.737,7.057 9.735,7.084 9.733,7.118C9.727,7.186 9.717,7.286 9.703,7.409C9.674,7.656 9.624,7.996 9.545,8.365C9.38,9.129 9.101,9.931 8.67,10.37L9.227,10.918ZM10.13,7.039C10.153,6.649 10.153,6.649 10.152,6.649C10.152,6.649 10.152,6.649 10.152,6.649C10.152,6.649 10.152,6.649 10.152,6.649C10.151,6.649 10.15,6.649 10.15,6.649C10.148,6.649 10.146,6.649 10.143,6.648C10.137,6.648 10.13,6.648 10.119,6.647C10.099,6.646 10.07,6.645 10.033,6.644C9.96,6.642 9.854,6.64 9.725,6.641C9.467,6.642 9.11,6.655 8.717,6.698C7.957,6.781 6.962,6.989 6.327,7.547L6.842,8.133C7.281,7.748 8.058,7.556 8.802,7.474C9.162,7.435 9.49,7.424 9.729,7.422C9.849,7.421 9.945,7.423 10.011,7.425C10.043,7.426 10.069,7.427 10.085,7.428C10.093,7.428 10.099,7.428 10.103,7.429C10.105,7.429 10.107,7.429 10.107,7.429C10.108,7.429 10.108,7.429 10.108,7.429C10.108,7.429 10.108,7.429 10.108,7.429C10.108,7.429 10.108,7.429 10.108,7.429C10.108,7.429 10.108,7.429 10.13,7.039ZM6.327,7.547C5.959,7.87 5.704,8.317 5.524,8.773C5.343,9.233 5.227,9.729 5.153,10.179C5.078,10.631 5.043,11.047 5.026,11.349C5.018,11.5 5.015,11.624 5.013,11.71C5.012,11.754 5.012,11.788 5.012,11.811C5.012,11.823 5.012,11.832 5.012,11.839C5.012,11.842 5.012,11.845 5.012,11.847C5.012,11.847 5.012,11.848 5.012,11.849C5.012,11.849 5.012,11.849 5.012,11.849C5.012,11.85 5.012,11.85 5.012,11.85C5.012,11.85 5.012,11.85 5.403,11.845C5.793,11.841 5.793,11.841 5.793,11.841C5.793,11.841 5.793,11.841 5.793,11.841C5.793,11.841 5.793,11.841 5.793,11.841C5.793,11.841 5.793,11.841 5.793,11.84C5.793,11.839 5.793,11.838 5.793,11.835C5.793,11.831 5.793,11.823 5.793,11.813C5.793,11.793 5.794,11.763 5.794,11.724C5.796,11.646 5.799,11.532 5.807,11.391C5.822,11.109 5.854,10.723 5.923,10.307C5.992,9.889 6.096,9.451 6.251,9.06C6.406,8.665 6.603,8.344 6.842,8.133L6.327,7.547Z" transform="rotate(-298.341 7.766 9.438)" fill="#0A2533"/>
</svg>
