<svg width="20" height="26" viewBox="0 0 20 26" fill="none" xmlns="http://www.w3.org/2000/svg" xmlns:xlink="http://www.w3.org/1999/xlink">
<path d="M7.991,7.488C7.991,7.272 7.816,7.097 7.6,7.097C7.384,7.097 7.209,7.272 7.209,7.488L7.991,7.488ZM7.209,22.708C7.209,22.924 7.384,23.099 7.6,23.099C7.816,23.099 7.991,22.924 7.991,22.708L7.209,22.708ZM7.209,7.488L7.209,22.708L7.991,22.708L7.991,7.488L7.209,7.488Z" transform="rotate(61.659 7.6 15.098)" fill="#0A2533"/>
<path d="M6.674,20.068L6.284,20.072C6.285,20.179 6.33,20.281 6.408,20.354C6.487,20.427 6.591,20.464 6.698,20.458L6.674,20.068ZM10.22,18.866L9.942,18.592L9.942,18.592L10.22,18.866ZM11.402,15.261L11.792,15.284C11.798,15.181 11.763,15.079 11.694,15.002C11.625,14.924 11.528,14.877 11.424,14.871L11.402,15.261ZM7.856,16.062L7.599,15.769L7.856,16.062ZM6.674,20.068C6.698,20.458 6.698,20.458 6.698,20.458C6.698,20.458 6.698,20.458 6.699,20.458C6.699,20.458 6.699,20.458 6.699,20.458C6.7,20.458 6.7,20.458 6.701,20.458C6.703,20.458 6.705,20.457 6.708,20.457C6.713,20.457 6.721,20.456 6.732,20.456C6.752,20.454 6.781,20.452 6.819,20.448C6.893,20.442 7,20.431 7.131,20.415C7.391,20.384 7.751,20.33 8.145,20.242C8.911,20.071 9.897,19.752 10.499,19.14L9.942,18.592C9.511,19.03 8.724,19.312 7.975,19.479C7.612,19.56 7.279,19.61 7.036,19.64C6.915,19.655 6.817,19.664 6.75,19.67C6.717,19.673 6.691,19.675 6.674,19.676C6.666,19.677 6.66,19.677 6.656,19.678C6.654,19.678 6.652,19.678 6.651,19.678C6.651,19.678 6.651,19.678 6.651,19.678C6.651,19.678 6.651,19.678 6.651,19.678C6.651,19.678 6.651,19.678 6.651,19.678C6.651,19.678 6.651,19.678 6.674,20.068ZM10.499,19.14C11.099,18.53 11.412,17.53 11.58,16.753C11.666,16.353 11.719,15.988 11.75,15.723C11.766,15.59 11.776,15.482 11.783,15.406C11.786,15.368 11.788,15.339 11.79,15.318C11.79,15.308 11.791,15.3 11.791,15.294C11.792,15.291 11.792,15.289 11.792,15.287C11.792,15.286 11.792,15.286 11.792,15.285C11.792,15.285 11.792,15.285 11.792,15.285C11.792,15.285 11.792,15.284 11.792,15.284C11.792,15.284 11.792,15.284 11.402,15.261C11.012,15.238 11.012,15.238 11.012,15.238C11.012,15.238 11.012,15.238 11.012,15.238C11.012,15.238 11.012,15.238 11.012,15.238C11.012,15.238 11.012,15.239 11.012,15.239C11.012,15.24 11.012,15.241 11.012,15.243C11.011,15.248 11.011,15.254 11.01,15.263C11.009,15.28 11.007,15.306 11.004,15.34C10.999,15.408 10.989,15.508 10.975,15.631C10.945,15.878 10.896,16.218 10.816,16.588C10.651,17.351 10.373,18.154 9.942,18.592L10.499,19.14ZM11.402,15.261C11.424,14.871 11.424,14.871 11.424,14.871C11.424,14.871 11.424,14.871 11.424,14.871C11.424,14.871 11.424,14.871 11.423,14.871C11.423,14.871 11.422,14.871 11.421,14.871C11.42,14.871 11.418,14.871 11.415,14.871C11.409,14.871 11.401,14.87 11.391,14.87C11.371,14.869 11.342,14.868 11.305,14.867C11.231,14.864 11.126,14.863 10.997,14.863C10.739,14.865 10.382,14.877 9.989,14.92C9.229,15.003 8.233,15.211 7.599,15.769L8.114,16.356C8.553,15.971 9.33,15.778 10.074,15.697C10.434,15.657 10.762,15.646 11.001,15.645C11.12,15.644 11.217,15.646 11.282,15.648C11.315,15.649 11.34,15.65 11.357,15.65C11.365,15.651 11.371,15.651 11.375,15.651C11.377,15.651 11.378,15.651 11.379,15.651C11.379,15.651 11.38,15.651 11.38,15.651C11.38,15.651 11.38,15.651 11.38,15.651C11.38,15.651 11.38,15.651 11.38,15.651C11.38,15.651 11.38,15.651 11.402,15.261ZM7.599,15.769C7.23,16.092 6.975,16.539 6.796,16.995C6.614,17.455 6.499,17.952 6.424,18.402C6.35,18.854 6.315,19.269 6.298,19.571C6.29,19.722 6.286,19.846 6.285,19.933C6.284,19.976 6.284,20.01 6.284,20.034C6.284,20.046 6.284,20.055 6.284,20.061C6.284,20.065 6.284,20.067 6.284,20.069C6.284,20.07 6.284,20.071 6.284,20.071C6.284,20.071 6.284,20.072 6.284,20.072C6.284,20.072 6.284,20.072 6.284,20.072C6.284,20.072 6.284,20.072 6.674,20.068C7.065,20.063 7.065,20.064 7.065,20.064C7.065,20.064 7.065,20.064 7.065,20.064C7.065,20.064 7.065,20.064 7.065,20.064C7.065,20.063 7.065,20.063 7.065,20.063C7.065,20.062 7.065,20.06 7.065,20.058C7.065,20.053 7.065,20.046 7.065,20.036C7.065,20.016 7.065,19.986 7.066,19.947C7.067,19.868 7.071,19.754 7.078,19.613C7.094,19.331 7.126,18.945 7.195,18.529C7.264,18.112 7.368,17.673 7.522,17.282C7.678,16.887 7.875,16.566 8.114,16.356L7.599,15.769Z" transform="rotate(61.659 9.038 17.661)" fill="#0A2533"/>
<path d="M9.801,14.47L9.41,14.474C9.412,14.581 9.457,14.683 9.535,14.756C9.613,14.829 9.718,14.866 9.825,14.86L9.801,14.47ZM13.347,13.268L13.068,12.994L13.068,12.994L13.347,13.268ZM14.528,9.663L14.918,9.686C14.924,9.583 14.889,9.481 14.82,9.404C14.751,9.326 14.654,9.279 14.551,9.273L14.528,9.663ZM10.983,10.465L10.725,10.171L10.983,10.465ZM9.801,14.47C9.825,14.86 9.825,14.86 9.825,14.86C9.825,14.86 9.825,14.86 9.825,14.86C9.825,14.86 9.825,14.86 9.826,14.86C9.826,14.86 9.827,14.86 9.828,14.86C9.829,14.86 9.831,14.859 9.834,14.859C9.84,14.859 9.848,14.858 9.858,14.858C9.878,14.856 9.908,14.854 9.945,14.851C10.02,14.844 10.126,14.834 10.257,14.818C10.518,14.786 10.878,14.732 11.272,14.644C12.037,14.473 13.024,14.154 13.625,13.542L13.068,12.994C12.638,13.432 11.851,13.714 11.102,13.881C10.739,13.963 10.405,14.012 10.163,14.042C10.042,14.057 9.944,14.066 9.877,14.072C9.843,14.075 9.818,14.077 9.801,14.078C9.792,14.079 9.786,14.08 9.782,14.08C9.78,14.08 9.779,14.08 9.778,14.08C9.778,14.08 9.777,14.08 9.777,14.08C9.777,14.08 9.777,14.08 9.777,14.08C9.777,14.08 9.777,14.08 9.777,14.08C9.777,14.08 9.777,14.08 9.801,14.47ZM13.625,13.542C14.226,12.932 14.538,11.932 14.706,11.155C14.793,10.755 14.846,10.39 14.877,10.125C14.893,9.992 14.903,9.884 14.909,9.808C14.912,9.771 14.915,9.741 14.916,9.72C14.917,9.71 14.917,9.702 14.918,9.696C14.918,9.693 14.918,9.691 14.918,9.689C14.918,9.689 14.918,9.688 14.918,9.687C14.918,9.687 14.918,9.687 14.918,9.687C14.918,9.687 14.918,9.687 14.918,9.686C14.918,9.686 14.918,9.686 14.528,9.663C14.139,9.641 14.139,9.641 14.139,9.64C14.139,9.64 14.139,9.64 14.139,9.64C14.139,9.64 14.139,9.64 14.139,9.64C14.139,9.641 14.138,9.641 14.138,9.641C14.138,9.642 14.138,9.644 14.138,9.646C14.138,9.65 14.138,9.656 14.137,9.665C14.136,9.682 14.134,9.708 14.131,9.742C14.125,9.81 14.116,9.91 14.101,10.033C14.072,10.281 14.023,10.62 13.943,10.99C13.778,11.753 13.5,12.556 13.068,12.994L13.625,13.542ZM14.528,9.663C14.551,9.273 14.551,9.273 14.551,9.273C14.551,9.273 14.55,9.273 14.55,9.273C14.55,9.273 14.55,9.273 14.55,9.273C14.549,9.273 14.549,9.273 14.548,9.273C14.546,9.273 14.544,9.273 14.541,9.273C14.536,9.273 14.528,9.272 14.518,9.272C14.497,9.271 14.468,9.27 14.432,9.269C14.358,9.267 14.252,9.265 14.123,9.265C13.865,9.267 13.508,9.279 13.116,9.322C12.356,9.405 11.36,9.613 10.725,10.171L11.241,10.758C11.679,10.373 12.456,10.18 13.201,10.099C13.56,10.059 13.889,10.048 14.128,10.047C14.247,10.046 14.343,10.048 14.409,10.05C14.442,10.051 14.467,10.052 14.483,10.052C14.492,10.053 14.498,10.053 14.502,10.053C14.503,10.053 14.505,10.053 14.506,10.053C14.506,10.053 14.506,10.053 14.506,10.053C14.506,10.053 14.506,10.053 14.506,10.053C14.506,10.053 14.506,10.053 14.506,10.053C14.506,10.053 14.506,10.053 14.528,9.663ZM10.725,10.171C10.357,10.495 10.102,10.941 9.922,11.398C9.741,11.857 9.625,12.354 9.551,12.804C9.476,13.256 9.441,13.671 9.425,13.973C9.416,14.124 9.413,14.248 9.411,14.335C9.411,14.378 9.41,14.412 9.41,14.436C9.41,14.448 9.41,14.457 9.41,14.463C9.41,14.467 9.41,14.469 9.41,14.471C9.41,14.472 9.41,14.473 9.41,14.473C9.41,14.474 9.41,14.474 9.41,14.474C9.41,14.474 9.41,14.474 9.41,14.474C9.41,14.474 9.41,14.474 9.801,14.47C10.192,14.466 10.192,14.466 10.192,14.466C10.192,14.466 10.192,14.466 10.192,14.466C10.192,14.466 10.192,14.466 10.192,14.466C10.192,14.466 10.192,14.465 10.192,14.465C10.192,14.464 10.192,14.462 10.192,14.46C10.191,14.455 10.191,14.448 10.191,14.438C10.192,14.418 10.192,14.388 10.192,14.349C10.194,14.27 10.197,14.156 10.205,14.015C10.22,13.733 10.253,13.348 10.322,12.931C10.391,12.514 10.495,12.076 10.649,11.684C10.804,11.289 11.001,10.968 11.241,10.758L10.725,10.171Z" transform="rotate(61.659 12.165 12.063)" fill="#0A2533"/>
<path d="M10.618,7.904L10.228,7.908C10.229,8.015 10.274,8.117 10.352,8.19C10.43,8.263 10.535,8.3 10.642,8.294L10.618,7.904ZM14.142,6.695L13.862,6.423L13.862,6.423L14.142,6.695ZM15.316,3.069L15.706,3.091C15.719,2.876 15.554,2.691 15.339,2.679L15.316,3.069ZM11.793,3.875L11.533,3.583L11.793,3.875ZM10.618,7.904C10.642,8.294 10.642,8.294 10.642,8.294C10.642,8.294 10.642,8.294 10.642,8.294C10.643,8.294 10.643,8.294 10.643,8.294C10.644,8.294 10.644,8.294 10.645,8.294C10.647,8.293 10.649,8.293 10.652,8.293C10.657,8.293 10.665,8.292 10.675,8.291C10.696,8.29 10.725,8.288 10.762,8.284C10.836,8.278 10.942,8.267 11.072,8.251C11.332,8.219 11.689,8.165 12.082,8.076C12.843,7.904 13.824,7.583 14.422,6.967L13.862,6.423C13.434,6.863 12.653,7.146 11.909,7.314C11.549,7.396 11.218,7.446 10.977,7.476C10.856,7.491 10.759,7.5 10.693,7.506C10.66,7.509 10.634,7.511 10.617,7.512C10.609,7.513 10.603,7.513 10.599,7.514C10.597,7.514 10.596,7.514 10.595,7.514C10.594,7.514 10.594,7.514 10.594,7.514C10.594,7.514 10.594,7.514 10.594,7.514C10.594,7.514 10.594,7.514 10.594,7.514C10.594,7.514 10.594,7.514 10.618,7.904ZM14.422,6.967C15.018,6.354 15.329,5.349 15.496,4.568C15.582,4.165 15.634,3.798 15.665,3.532C15.681,3.399 15.691,3.29 15.697,3.214C15.7,3.176 15.703,3.146 15.704,3.125C15.705,3.115 15.705,3.107 15.706,3.101C15.706,3.098 15.706,3.096 15.706,3.094C15.706,3.094 15.706,3.093 15.706,3.092C15.706,3.092 15.706,3.092 15.706,3.092C15.706,3.092 15.706,3.092 15.706,3.091C15.706,3.091 15.706,3.091 15.316,3.069C14.926,3.046 14.926,3.046 14.926,3.046C14.926,3.046 14.926,3.046 14.926,3.046C14.926,3.046 14.926,3.046 14.926,3.046C14.926,3.046 14.926,3.046 14.926,3.047C14.926,3.048 14.926,3.049 14.926,3.051C14.926,3.055 14.925,3.062 14.925,3.07C14.924,3.088 14.922,3.114 14.919,3.149C14.913,3.217 14.904,3.318 14.889,3.442C14.86,3.69 14.811,4.032 14.732,4.404C14.568,5.173 14.291,5.981 13.862,6.423L14.422,6.967ZM15.316,3.069C15.339,2.679 15.339,2.679 15.339,2.679C15.339,2.679 15.339,2.679 15.339,2.679C15.338,2.679 15.338,2.679 15.338,2.679C15.337,2.679 15.337,2.679 15.336,2.679C15.334,2.678 15.332,2.678 15.329,2.678C15.324,2.678 15.316,2.678 15.306,2.677C15.286,2.676 15.257,2.675 15.22,2.674C15.147,2.672 15.042,2.67 14.914,2.671C14.657,2.672 14.302,2.684 13.911,2.728C13.156,2.812 12.165,3.021 11.533,3.583L12.052,4.166C12.487,3.78 13.258,3.586 13.998,3.504C14.354,3.465 14.681,3.453 14.918,3.452C15.036,3.451 15.132,3.453 15.197,3.455C15.23,3.456 15.255,3.457 15.271,3.458C15.279,3.458 15.285,3.458 15.289,3.458C15.291,3.459 15.292,3.459 15.293,3.459C15.294,3.459 15.294,3.459 15.294,3.459C15.294,3.459 15.294,3.459 15.294,3.459C15.294,3.459 15.294,3.459 15.294,3.459C15.294,3.459 15.294,3.459 15.316,3.069ZM11.533,3.583C11.167,3.908 10.914,4.357 10.736,4.816C10.556,5.278 10.441,5.776 10.367,6.229C10.293,6.683 10.258,7.101 10.242,7.404C10.234,7.557 10.23,7.681 10.228,7.768C10.228,7.812 10.227,7.846 10.227,7.87C10.227,7.881 10.227,7.891 10.227,7.897C10.227,7.9 10.227,7.903 10.227,7.905C10.227,7.906 10.228,7.907 10.228,7.907C10.228,7.907 10.228,7.908 10.228,7.908C10.228,7.908 10.228,7.908 10.228,7.908C10.228,7.908 10.228,7.908 10.618,7.904C11.009,7.899 11.009,7.9 11.009,7.9C11.009,7.9 11.009,7.9 11.009,7.9C11.009,7.9 11.009,7.9 11.009,7.9C11.009,7.899 11.009,7.899 11.009,7.899C11.009,7.898 11.009,7.896 11.009,7.894C11.009,7.889 11.009,7.881 11.009,7.871C11.009,7.851 11.009,7.821 11.01,7.782C11.011,7.703 11.014,7.588 11.022,7.446C11.037,7.162 11.07,6.774 11.138,6.355C11.207,5.935 11.31,5.493 11.464,5.099C11.618,4.701 11.814,4.378 12.052,4.166L11.533,3.583Z" transform="rotate(-30.964 12.967 5.482)" fill="#0A2533"/>
<path d="M2.277,17.443L1.886,17.448C1.887,17.555 1.932,17.656 2.01,17.729C2.089,17.802 2.193,17.84 2.3,17.833L2.277,17.443ZM5.822,16.242L5.544,15.968L5.544,15.968L5.822,16.242ZM7.004,12.637L7.394,12.659C7.4,12.556 7.365,12.454 7.296,12.377C7.227,12.299 7.13,12.253 7.026,12.247L7.004,12.637ZM3.458,13.438L3.201,13.144L3.458,13.438ZM2.277,17.443C2.3,17.833 2.3,17.833 2.3,17.833C2.3,17.833 2.3,17.833 2.301,17.833C2.301,17.833 2.301,17.833 2.301,17.833C2.302,17.833 2.302,17.833 2.303,17.833C2.305,17.833 2.307,17.833 2.31,17.832C2.315,17.832 2.323,17.832 2.334,17.831C2.354,17.829 2.383,17.827 2.421,17.824C2.495,17.817 2.602,17.807 2.733,17.791C2.994,17.759 3.353,17.705 3.748,17.617C4.513,17.446 5.499,17.127 6.101,16.515L5.544,15.968C5.113,16.405 4.326,16.687 3.577,16.855C3.214,16.936 2.881,16.986 2.638,17.015C2.517,17.03 2.419,17.04 2.352,17.045C2.319,17.048 2.293,17.05 2.276,17.052C2.268,17.052 2.262,17.053 2.258,17.053C2.256,17.053 2.254,17.053 2.254,17.053C2.253,17.053 2.253,17.053 2.253,17.053C2.253,17.053 2.253,17.053 2.253,17.053C2.253,17.053 2.253,17.053 2.253,17.053C2.253,17.053 2.253,17.053 2.277,17.443ZM6.101,16.515C6.701,15.905 7.014,14.905 7.182,14.128C7.268,13.728 7.321,13.363 7.352,13.098C7.368,12.965 7.378,12.857 7.385,12.782C7.388,12.744 7.39,12.714 7.392,12.693C7.392,12.683 7.393,12.675 7.393,12.669C7.394,12.666 7.394,12.664 7.394,12.662C7.394,12.662 7.394,12.661 7.394,12.661C7.394,12.66 7.394,12.66 7.394,12.66C7.394,12.66 7.394,12.66 7.394,12.66C7.394,12.66 7.394,12.659 7.004,12.637C6.614,12.614 6.614,12.614 6.614,12.614C6.614,12.614 6.614,12.614 6.614,12.614C6.614,12.614 6.614,12.614 6.614,12.614C6.614,12.614 6.614,12.614 6.614,12.614C6.614,12.615 6.614,12.617 6.614,12.619C6.614,12.623 6.613,12.629 6.612,12.638C6.611,12.655 6.609,12.681 6.606,12.715C6.601,12.784 6.591,12.883 6.577,13.007C6.547,13.254 6.498,13.593 6.418,13.963C6.253,14.726 5.975,15.529 5.544,15.968L6.101,16.515ZM7.004,12.637C7.026,12.247 7.026,12.247 7.026,12.247C7.026,12.247 7.026,12.247 7.026,12.247C7.026,12.247 7.026,12.247 7.025,12.247C7.025,12.247 7.024,12.246 7.023,12.246C7.022,12.246 7.02,12.246 7.017,12.246C7.011,12.246 7.003,12.245 6.993,12.245C6.973,12.244 6.944,12.243 6.907,12.242C6.833,12.24 6.728,12.238 6.599,12.239C6.341,12.24 5.984,12.252 5.591,12.295C4.831,12.379 3.835,12.586 3.201,13.144L3.716,13.731C4.155,13.346 4.932,13.153 5.676,13.072C6.036,13.032 6.364,13.021 6.603,13.02C6.722,13.019 6.819,13.021 6.884,13.023C6.917,13.024 6.942,13.025 6.959,13.025C6.967,13.026 6.973,13.026 6.977,13.026C6.979,13.026 6.98,13.027 6.981,13.027C6.982,13.027 6.982,13.027 6.982,13.027C6.982,13.027 6.982,13.027 6.982,13.027C6.982,13.027 6.982,13.027 6.982,13.027C6.982,13.027 6.982,13.027 7.004,12.637ZM3.201,13.144C2.832,13.468 2.578,13.914 2.398,14.371C2.216,14.83 2.101,15.327 2.026,15.777C1.952,16.229 1.917,16.644 1.9,16.946C1.892,17.098 1.888,17.221 1.887,17.308C1.886,17.351 1.886,17.385 1.886,17.409C1.886,17.421 1.886,17.43 1.886,17.437C1.886,17.44 1.886,17.442 1.886,17.444C1.886,17.445 1.886,17.446 1.886,17.446C1.886,17.447 1.886,17.447 1.886,17.447C1.886,17.447 1.886,17.447 1.886,17.447C1.886,17.448 1.886,17.448 2.277,17.443C2.667,17.439 2.667,17.439 2.667,17.439C2.667,17.439 2.667,17.439 2.667,17.439C2.667,17.439 2.667,17.439 2.667,17.439C2.667,17.439 2.667,17.438 2.667,17.438C2.667,17.437 2.667,17.435 2.667,17.433C2.667,17.428 2.667,17.421 2.667,17.411C2.667,17.391 2.667,17.361 2.668,17.322C2.669,17.244 2.673,17.129 2.68,16.989C2.696,16.706 2.728,16.321 2.797,15.905C2.866,15.487 2.97,15.049 3.124,14.657C3.28,14.263 3.477,13.942 3.716,13.731L3.201,13.144Z" transform="rotate(-298.34 4.64 15.036)" fill="#0A2533"/>
<path d="M5.403,11.845L5.012,11.85C5.014,11.957 5.059,12.059 5.137,12.131C5.215,12.204 5.32,12.242 5.427,12.235L5.403,11.845ZM8.949,10.644L8.67,10.37L8.67,10.37L8.949,10.644ZM10.131,7.039L10.52,7.062C10.527,6.958 10.491,6.857 10.422,6.779C10.353,6.702 10.256,6.655 10.153,6.649L10.131,7.039ZM6.585,7.84L6.327,7.547L6.585,7.84ZM5.403,11.845C5.427,12.235 5.427,12.235 5.427,12.235C5.427,12.235 5.427,12.235 5.427,12.235C5.427,12.235 5.427,12.235 5.428,12.235C5.428,12.235 5.429,12.235 5.43,12.235C5.431,12.235 5.433,12.235 5.436,12.235C5.442,12.234 5.45,12.234 5.46,12.233C5.481,12.232 5.51,12.229 5.547,12.226C5.622,12.219 5.728,12.209 5.859,12.193C6.12,12.161 6.48,12.108 6.874,12.019C7.639,11.848 8.626,11.529 9.227,10.918L8.67,10.37C8.24,10.808 7.453,11.09 6.704,11.257C6.341,11.338 6.007,11.388 5.765,11.418C5.644,11.432 5.546,11.442 5.479,11.448C5.445,11.451 5.42,11.453 5.403,11.454C5.394,11.455 5.388,11.455 5.384,11.455C5.382,11.455 5.381,11.455 5.38,11.456C5.38,11.456 5.379,11.456 5.379,11.456C5.379,11.456 5.379,11.456 5.379,11.456C5.379,11.456 5.379,11.456 5.379,11.456C5.379,11.456 5.379,11.456 5.403,11.845ZM9.227,10.918C9.828,10.307 10.14,9.307 10.308,8.53C10.395,8.13 10.448,7.765 10.479,7.5C10.495,7.368 10.505,7.26 10.511,7.184C10.514,7.146 10.517,7.116 10.518,7.096C10.519,7.085 10.519,7.077 10.52,7.072C10.52,7.069 10.52,7.066 10.52,7.065C10.52,7.064 10.52,7.063 10.52,7.063C10.52,7.063 10.52,7.062 10.52,7.062C10.52,7.062 10.52,7.062 10.52,7.062C10.52,7.062 10.52,7.062 10.131,7.039C9.741,7.016 9.741,7.016 9.741,7.016C9.741,7.016 9.741,7.016 9.741,7.016C9.741,7.016 9.741,7.016 9.741,7.016C9.741,7.016 9.741,7.016 9.741,7.017C9.74,7.018 9.74,7.019 9.74,7.021C9.74,7.025 9.74,7.032 9.739,7.04C9.738,7.057 9.736,7.084 9.733,7.118C9.727,7.186 9.718,7.286 9.703,7.409C9.674,7.656 9.625,7.996 9.545,8.365C9.38,9.129 9.102,9.931 8.67,10.37L9.227,10.918ZM10.131,7.039C10.153,6.649 10.153,6.649 10.153,6.649C10.153,6.649 10.153,6.649 10.152,6.649C10.152,6.649 10.152,6.649 10.152,6.649C10.151,6.649 10.151,6.649 10.15,6.649C10.148,6.649 10.146,6.649 10.143,6.648C10.138,6.648 10.13,6.648 10.12,6.647C10.099,6.646 10.07,6.645 10.034,6.644C9.96,6.642 9.855,6.64 9.725,6.641C9.467,6.642 9.111,6.655 8.718,6.698C7.958,6.781 6.962,6.989 6.327,7.547L6.843,8.133C7.281,7.748 8.058,7.556 8.803,7.474C9.162,7.435 9.491,7.424 9.73,7.422C9.849,7.421 9.945,7.423 10.011,7.425C10.044,7.426 10.069,7.427 10.085,7.428C10.094,7.428 10.1,7.428 10.104,7.429C10.105,7.429 10.107,7.429 10.108,7.429C10.108,7.429 10.108,7.429 10.108,7.429C10.108,7.429 10.108,7.429 10.108,7.429C10.108,7.429 10.108,7.429 10.108,7.429C10.108,7.429 10.108,7.429 10.131,7.039ZM6.327,7.547C5.959,7.87 5.704,8.317 5.524,8.773C5.343,9.233 5.227,9.729 5.153,10.179C5.078,10.631 5.043,11.047 5.027,11.349C5.018,11.5 5.015,11.624 5.013,11.71C5.013,11.754 5.012,11.788 5.012,11.811C5.012,11.823 5.012,11.832 5.012,11.839C5.012,11.842 5.012,11.845 5.012,11.847C5.012,11.847 5.012,11.848 5.012,11.849C5.012,11.849 5.012,11.849 5.012,11.849C5.012,11.85 5.012,11.85 5.012,11.85C5.012,11.85 5.012,11.85 5.403,11.845C5.794,11.841 5.794,11.841 5.794,11.841C5.794,11.841 5.794,11.841 5.794,11.841C5.794,11.841 5.794,11.841 5.794,11.841C5.794,11.841 5.794,11.841 5.794,11.84C5.794,11.839 5.794,11.838 5.794,11.835C5.794,11.831 5.794,11.823 5.794,11.813C5.794,11.793 5.794,11.763 5.794,11.724C5.796,11.646 5.799,11.532 5.807,11.391C5.822,11.109 5.855,10.723 5.924,10.307C5.993,9.889 6.097,9.451 6.251,9.06C6.406,8.665 6.603,8.344 6.843,8.133L6.327,7.547Z" transform="rotate(-298.341 7.767 9.438)" fill="#0A2533"/>
</svg>
