<svg width="20" height="26" viewBox="0 0 20 26" fill="none" xmlns="http://www.w3.org/2000/svg" xmlns:xlink="http://www.w3.org/1999/xlink">
<path d="M15.082,21.082L14.803,20.809L14.803,20.809L15.082,21.082ZM2.667,21.082L2.388,21.354L2.388,21.355L2.667,21.082ZM1.003,10.79L1.355,10.959L1.355,10.959L1.003,10.79ZM3.498,7.664L3.256,7.358L3.255,7.358L3.498,7.664ZM5.308,5.851L5.002,5.608L5.001,5.609L5.308,5.851ZM7.105,2.627L7.473,2.759L7.473,2.758L7.105,2.627ZM7.479,1.142L7.748,0.859C7.643,0.759 7.49,0.725 7.352,0.773C7.214,0.82 7.114,0.94 7.092,1.084L7.479,1.142ZM9.369,3.709L9.716,3.53L9.715,3.528L9.369,3.709ZM10.783,8.999L11.173,9.023L11.173,9.023L10.783,8.999ZM11.537,10.908L11.803,10.622L11.803,10.621L11.537,10.908ZM13.186,11.508L13.165,11.118L13.163,11.118L13.186,11.508ZM14.761,10.729L15.056,10.985L15.057,10.984L14.761,10.729ZM15.823,9.273L16.135,9.037C16.056,8.934 15.932,8.876 15.802,8.883C15.673,8.89 15.555,8.961 15.488,9.072L15.823,9.273ZM16.904,11.138L16.545,11.291L16.545,11.292L16.904,11.138ZM14.803,20.809C13.217,22.433 11.115,23.322 8.875,23.322L8.875,24.103C11.328,24.103 13.63,23.128 15.362,21.355L14.803,20.809ZM8.875,23.322C6.634,23.322 4.532,22.433 2.947,20.809L2.388,21.355C4.119,23.128 6.421,24.103 8.875,24.103L8.875,23.322ZM2.947,20.809C1.366,19.188 0.495,17.038 0.495,14.748L-0.287,14.748C-0.287,17.24 0.664,19.586 2.388,21.354L2.947,20.809ZM0.495,14.748C0.495,13.418 0.784,12.144 1.355,10.959L0.651,10.62C0.029,11.912 -0.287,13.301 -0.287,14.748L0.495,14.748ZM1.355,10.959C1.91,9.802 2.737,8.767 3.741,7.97L3.255,7.358C2.159,8.228 1.257,9.357 0.651,10.621L1.355,10.959ZM3.74,7.971C4.434,7.422 5.063,6.792 5.614,6.093L5.001,5.609C4.487,6.261 3.901,6.847 3.256,7.358L3.74,7.971ZM5.614,6.094C6.412,5.087 7.038,3.964 7.473,2.759L6.738,2.494C6.332,3.619 5.748,4.668 5.002,5.608L5.614,6.094ZM7.473,2.758C7.654,2.254 7.785,1.732 7.865,1.2L7.092,1.084C7.02,1.565 6.901,2.038 6.737,2.495L7.473,2.758ZM7.209,1.425C7.918,2.1 8.517,2.919 9.022,3.889L9.715,3.528C9.176,2.493 8.528,1.602 7.748,0.859L7.209,1.425ZM9.022,3.888C10.035,5.852 10.48,7.558 10.393,8.975L11.173,9.023C11.272,7.413 10.765,5.562 9.716,3.53L9.022,3.888ZM10.393,8.974C10.368,9.388 10.433,9.802 10.585,10.186L11.311,9.899C11.202,9.622 11.154,9.322 11.173,9.023L10.393,8.974ZM10.585,10.186C10.736,10.57 10.971,10.915 11.271,11.194L11.803,10.621C11.589,10.423 11.421,10.176 11.311,9.899L10.585,10.186ZM11.27,11.193C11.531,11.437 11.836,11.625 12.169,11.746L12.437,11.012C12.203,10.927 11.988,10.795 11.803,10.622L11.27,11.193ZM12.169,11.746C12.503,11.867 12.856,11.919 13.209,11.898L13.163,11.118C12.916,11.133 12.67,11.097 12.437,11.012L12.169,11.746ZM13.206,11.898C13.924,11.86 14.581,11.532 15.056,10.985L14.466,10.473C14.126,10.864 13.665,11.092 13.165,11.118L13.206,11.898ZM15.057,10.984C15.48,10.493 15.849,9.99 16.158,9.474L15.488,9.072C15.204,9.546 14.863,10.013 14.465,10.474L15.057,10.984ZM15.512,9.509C15.925,10.055 16.27,10.65 16.545,11.291L17.263,10.984C16.964,10.285 16.586,9.634 16.135,9.037L15.512,9.509ZM16.545,11.292C17.015,12.386 17.255,13.55 17.255,14.748L18.036,14.748C18.036,13.444 17.775,12.175 17.263,10.983L16.545,11.292ZM17.255,14.748C17.255,17.039 16.383,19.191 14.803,20.809L15.362,21.355C17.086,19.589 18.036,17.24 18.036,14.748L17.255,14.748Z" fill="#0A2533"/>
<path d="M10.588,19.221L10.309,18.948L10.309,18.948L10.588,19.221ZM5.606,19.221L5.326,19.493L5.326,19.494L5.606,19.221ZM4.938,15.09L5.29,15.259L5.29,15.259L4.938,15.09ZM5.939,13.836L5.697,13.529L5.696,13.53L5.939,13.836ZM6.666,13.108L6.36,12.865L6.359,12.866L6.666,13.108ZM7.387,11.814L7.754,11.946L7.755,11.946L7.387,11.814ZM7.537,11.218L7.806,10.935C7.701,10.835 7.548,10.801 7.41,10.849C7.272,10.896 7.172,11.016 7.151,11.16L7.537,11.218ZM8.296,12.248L8.643,12.069L8.642,12.068L8.296,12.248ZM8.863,14.371L9.253,14.395L9.253,14.395L8.863,14.371ZM9.166,15.137L9.432,14.852L9.431,14.851L9.166,15.137ZM9.827,15.378L9.807,14.988L9.804,14.988L9.827,15.378ZM10.46,15.066L10.754,15.322L10.755,15.321L10.46,15.066ZM10.886,14.481L11.197,14.246C11.119,14.142 10.995,14.084 10.865,14.091C10.735,14.098 10.618,14.169 10.551,14.281L10.886,14.481ZM11.32,15.23L10.961,15.383L10.961,15.384L11.32,15.23ZM10.309,18.948C9.716,19.555 8.933,19.886 8.097,19.886L8.097,20.667C9.146,20.667 10.13,20.25 10.868,19.494L10.309,18.948ZM8.097,19.886C7.262,19.886 6.478,19.555 5.885,18.948L5.326,19.494C6.065,20.25 7.049,20.667 8.097,20.667L8.097,19.886ZM5.886,18.948C5.294,18.341 4.968,17.537 4.968,16.679L4.187,16.679C4.187,17.739 4.591,18.739 5.326,19.493L5.886,18.948ZM4.968,16.679C4.968,16.18 5.076,15.703 5.29,15.259L4.586,14.921C4.321,15.471 4.187,16.063 4.187,16.679L4.968,16.679ZM5.29,15.259C5.497,14.827 5.807,14.439 6.182,14.142L5.696,13.53C5.229,13.901 4.844,14.382 4.586,14.921L5.29,15.259ZM6.182,14.142C6.474,13.911 6.74,13.645 6.972,13.35L6.359,12.866C6.164,13.113 5.942,13.336 5.697,13.529L6.182,14.142ZM6.972,13.351C7.308,12.927 7.571,12.454 7.754,11.946L7.02,11.681C6.865,12.109 6.643,12.507 6.36,12.865L6.972,13.351ZM7.755,11.946C7.832,11.729 7.889,11.504 7.923,11.276L7.151,11.16C7.124,11.338 7.08,11.513 7.019,11.682L7.755,11.946ZM7.268,11.501C7.531,11.752 7.757,12.059 7.949,12.429L8.642,12.068C8.416,11.633 8.14,11.253 7.806,10.935L7.268,11.501ZM7.948,12.427C8.345,13.195 8.505,13.836 8.473,14.347L9.253,14.395C9.296,13.691 9.074,12.905 8.643,12.069L7.948,12.427ZM8.473,14.347C8.461,14.547 8.492,14.747 8.566,14.934L9.293,14.647C9.261,14.568 9.248,14.482 9.253,14.395L8.473,14.347ZM8.566,14.934C8.639,15.12 8.753,15.288 8.9,15.424L9.431,14.851C9.372,14.796 9.324,14.726 9.293,14.647L8.566,14.934ZM8.899,15.423C9.026,15.542 9.176,15.634 9.34,15.694L9.607,14.959C9.543,14.936 9.484,14.9 9.432,14.852L8.899,15.423ZM9.34,15.694C9.503,15.753 9.677,15.779 9.851,15.768L9.804,14.988C9.737,14.992 9.67,14.983 9.607,14.959L9.34,15.694ZM9.848,15.768C10.201,15.75 10.524,15.588 10.754,15.322L10.165,14.809C10.068,14.92 9.942,14.981 9.807,14.988L9.848,15.768ZM10.755,15.321C10.933,15.115 11.089,14.902 11.221,14.682L10.551,14.281C10.445,14.458 10.316,14.635 10.164,14.81L10.755,15.321ZM10.574,14.717C10.729,14.921 10.858,15.143 10.961,15.383L11.679,15.076C11.551,14.778 11.39,14.501 11.197,14.246L10.574,14.717ZM10.961,15.384C11.137,15.794 11.227,16.229 11.227,16.679L12.008,16.679C12.008,16.124 11.897,15.583 11.679,15.075L10.961,15.384ZM11.227,16.679C11.227,17.538 10.9,18.343 10.309,18.948L10.868,19.494C11.603,18.741 12.008,17.739 12.008,16.679L11.227,16.679Z" fill="#0A2533"/>
</svg>
