<svg width="56" height="72" viewBox="0 0 56 72" fill="none" xmlns="http://www.w3.org/2000/svg" xmlns:xlink="http://www.w3.org/1999/xlink">
<path d="M55.412,31.814L55.412,70.312L0.842,70.312L0.842,31.814L4.064,31.814C7.08,31.796 9.991,30.519 12.274,28.213C14.558,25.907 16.065,22.723 16.525,19.233L39.728,19.233C40.229,22.702 41.747,25.857 44.022,28.154C46.298,30.451 49.186,31.746 52.189,31.814L55.412,31.814Z" fill="url(#pf_0_i_3548_633;3494_577)" stroke="#000000" stroke-width="0.521" stroke-miterlimit="3.999327" stroke-linecap="round" stroke-linejoin="round"/>
<path d="M39.728,19.233L39.728,19.754C40.016,19.754 40.249,19.521 40.249,19.233L39.728,19.233ZM16.525,19.233L16.004,19.233C16.004,19.521 16.238,19.754 16.525,19.754L16.525,19.233ZM28.127,1.386C31.037,1.386 33.848,2.739 35.934,5.183L36.726,4.506C34.462,1.854 31.371,0.344 28.127,0.344L28.127,1.386ZM35.934,5.183C38.023,7.629 39.207,10.962 39.207,14.452L40.249,14.452C40.249,10.735 38.989,7.156 36.726,4.506L35.934,5.183ZM39.207,14.452L39.207,19.233L40.249,19.233L40.249,14.452L39.207,14.452ZM39.728,18.712L16.525,18.712L16.525,19.754L39.728,19.754L39.728,18.712ZM17.046,19.233L17.046,14.452L16.004,14.452L16.004,19.233L17.046,19.233ZM17.046,14.452C17.046,10.962 18.231,7.629 20.319,5.183L19.527,4.506C17.265,7.156 16.004,10.735 16.004,14.452L17.046,14.452ZM20.319,5.183C22.406,2.739 25.217,1.386 28.127,1.386L28.127,0.344C24.883,0.344 21.792,1.854 19.527,4.506L20.319,5.183Z" fill="#000000"/>
<path d="M36.721,56.724L36.721,57.245C37.008,57.245 37.241,57.012 37.241,56.724L36.721,56.724ZM19.533,56.724L19.012,56.724C19.012,57.012 19.245,57.245 19.533,57.245L19.533,56.724ZM28.127,43.657C30.239,43.657 32.285,44.639 33.807,46.423L34.6,45.746C32.899,43.755 30.573,42.616 28.127,42.616L28.127,43.657ZM33.807,46.423C35.332,48.209 36.2,50.646 36.2,53.201L37.241,53.201C37.241,50.418 36.298,47.736 34.6,45.746L33.807,46.423ZM36.2,53.201L36.2,56.724L37.241,56.724L37.241,53.201L36.2,53.201ZM36.721,56.203L19.533,56.203L19.533,57.245L36.721,57.245L36.721,56.203ZM20.054,56.724L20.054,53.201L19.012,53.201L19.012,56.724L20.054,56.724ZM20.054,53.201C20.054,50.646 20.921,48.209 22.446,46.423L21.654,45.746C19.955,47.736 19.012,50.418 19.012,53.201L20.054,53.201ZM22.446,46.423C23.969,44.639 26.015,43.657 28.127,43.657L28.127,42.616C25.68,42.616 23.355,43.755 21.654,45.746L22.446,46.423Z" transform="rotate(360 28.127 49.93)" fill="#000000"/>
<defs>
<linearGradient id="pf_0_i_3548_633;3494_577" x1="25.549" y1="0.865" x2="44.885" y2="68.802" gradientUnits="userSpaceOnUse">
<stop stop-color="#0083DA" stop-opacity="0"/>
<stop offset="1" stop-color="#3BADF5"/>
</linearGradient>
</defs>
</svg>
