<svg width="56" height="70" viewBox="0 0 56 70" fill="none" xmlns="http://www.w3.org/2000/svg" xmlns:xlink="http://www.w3.org/1999/xlink">
<path d="M55.41,30.607L55.41,69.104L0.839,69.104L0.839,30.607L4.062,30.607C7.077,30.588 9.988,29.311 12.272,27.005C14.556,24.7 16.063,21.516 16.523,18.026L39.726,18.026C40.226,21.495 41.745,24.65 44.02,26.947C46.295,29.244 49.184,30.538 52.187,30.607L55.41,30.607Z" fill="url(#pf_0_i_3505_784;3494_577)" stroke="#000000" stroke-width="0.521" stroke-miterlimit="3.999327" stroke-linecap="round" stroke-linejoin="round"/>
<path d="M39.726,18.026L39.726,18.546C40.014,18.546 40.247,18.313 40.247,18.026L39.726,18.026ZM16.523,18.026L16.002,18.026C16.002,18.313 16.235,18.546 16.523,18.546L16.523,18.026ZM28.124,0.178C31.034,0.178 33.845,1.531 35.932,3.975L36.724,3.299C34.459,0.647 31.369,-0.863 28.124,-0.863L28.124,0.178ZM35.932,3.975C38.021,6.422 39.205,9.755 39.205,13.245L40.247,13.245C40.247,9.527 38.987,5.949 36.724,3.299L35.932,3.975ZM39.205,13.245L39.205,18.026L40.247,18.026L40.247,13.245L39.205,13.245ZM39.726,17.505L16.523,17.505L16.523,18.546L39.726,18.546L39.726,17.505ZM17.044,18.026L17.044,13.245L16.002,13.245L16.002,18.026L17.044,18.026ZM17.044,13.245C17.044,9.755 18.228,6.422 20.317,3.975L19.525,3.299C17.262,5.949 16.002,9.527 16.002,13.245L17.044,13.245ZM20.317,3.975C22.404,1.531 25.215,0.178 28.124,0.178L28.124,-0.863C24.88,-0.863 21.79,0.647 19.525,3.299L20.317,3.975Z" fill="#000000"/>
<path d="M36.719,55.517L36.719,56.038C37.007,56.038 37.24,55.804 37.24,55.517L36.719,55.517ZM19.531,55.517L19.011,55.517C19.011,55.804 19.244,56.038 19.531,56.038L19.531,55.517ZM28.125,42.45C30.237,42.45 32.283,43.432 33.806,45.215L34.598,44.539C32.897,42.547 30.572,41.408 28.125,41.408L28.125,42.45ZM33.806,45.215C35.331,47.001 36.198,49.439 36.198,51.994L37.24,51.994C37.24,49.211 36.297,46.528 34.598,44.539L33.806,45.215ZM36.198,51.994L36.198,55.517L37.24,55.517L37.24,51.994L36.198,51.994ZM36.719,54.996L19.531,54.996L19.531,56.038L36.719,56.038L36.719,54.996ZM20.052,55.517L20.052,51.994L19.011,51.994L19.011,55.517L20.052,55.517ZM20.052,51.994C20.052,49.439 20.92,47.001 22.445,45.215L21.652,44.539C19.954,46.528 19.011,49.211 19.011,51.994L20.052,51.994ZM22.445,45.215C23.967,43.432 26.013,42.45 28.125,42.45L28.125,41.408C25.679,41.408 23.353,42.547 21.652,44.539L22.445,45.215Z" transform="rotate(360 28.125 48.723)" fill="#000000"/>
<defs>
<linearGradient id="pf_0_i_3505_784;3494_577" x1="25.546" y1="-0.343" x2="44.882" y2="67.594" gradientUnits="userSpaceOnUse">
<stop stop-color="#0083DA" stop-opacity="0"/>
<stop offset="1" stop-color="#3BADF5"/>
</linearGradient>
</defs>
</svg>
