<svg width="212" height="268" viewBox="0 0 212 268" fill="none" xmlns="http://www.w3.org/2000/svg" xmlns:xlink="http://www.w3.org/1999/xlink">
<path d="M210.3,120.169L210.3,268L0.75,268L0.75,120.169L13.125,120.169C24.704,120.098 35.881,115.195 44.651,106.34C53.421,97.486 59.209,85.26 60.975,71.858L150.075,71.858C151.995,85.179 157.827,97.295 166.564,106.116C175.3,114.937 186.392,119.907 197.925,120.169L210.3,120.169Z" fill="url(#pf_0_3494_577)" stroke="#000000" stroke-width="2" stroke-miterlimit="3.999327" stroke-linecap="round" stroke-linejoin="round"/>
<path d="M150.075,71.858L150.075,73.858C151.179,73.858 152.075,72.963 152.075,71.858L150.075,71.858ZM60.975,71.858L58.975,71.858C58.975,72.963 59.87,73.858 60.975,73.858L60.975,71.858ZM105.525,3.324C116.699,3.324 127.492,8.52 135.505,17.905L138.547,15.308C129.851,5.122 117.982,-0.676 105.525,-0.676L105.525,3.324ZM135.505,17.905C143.527,27.299 148.075,40.099 148.075,53.5L152.075,53.5C152.075,39.225 147.236,25.483 138.547,15.308L135.505,17.905ZM148.075,53.5L148.075,71.858L152.075,71.858L152.075,53.5L148.075,53.5ZM150.075,69.858L60.975,69.858L60.975,73.858L150.075,73.858L150.075,69.858ZM62.975,71.858L62.975,53.5L58.975,53.5L58.975,71.858L62.975,71.858ZM62.975,53.5C62.975,40.099 67.523,27.299 75.544,17.905L72.502,15.308C63.814,25.483 58.975,39.225 58.975,53.5L62.975,53.5ZM75.544,17.905C83.557,8.52 94.351,3.324 105.525,3.324L105.525,-0.676C93.068,-0.676 81.199,5.122 72.502,15.308L75.544,17.905Z" fill="#000000"/>
<path d="M138.525,215.824L138.525,217.824C139.63,217.824 140.525,216.929 140.525,215.824L138.525,215.824ZM72.525,215.824L70.525,215.824C70.525,216.929 71.42,217.824 72.525,217.824L72.525,215.824ZM105.525,165.648C113.636,165.648 121.492,169.419 127.339,176.267L130.381,173.67C123.85,166.021 114.919,161.648 105.525,161.648L105.525,165.648ZM127.339,176.267C133.194,183.124 136.525,192.484 136.525,202.297L140.525,202.297C140.525,191.61 136.903,181.308 130.381,173.67L127.339,176.267ZM136.525,202.297L136.525,215.824L140.525,215.824L140.525,202.297L136.525,202.297ZM138.525,213.824L72.525,213.824L72.525,217.824L138.525,217.824L138.525,213.824ZM74.525,215.824L74.525,202.297L70.525,202.297L70.525,215.824L74.525,215.824ZM74.525,202.297C74.525,192.484 77.856,183.124 83.711,176.267L80.669,173.67C74.147,181.308 70.525,191.61 70.525,202.297L74.525,202.297ZM83.711,176.267C89.558,169.419 97.414,165.648 105.525,165.648L105.525,161.648C96.131,161.648 87.2,166.021 80.669,173.67L83.711,176.267Z" transform="rotate(360 105.525 189.736)" fill="#000000"/>
<defs>
<linearGradient id="pf_0_3494_577" x1="95.625" y1="1.324" x2="169.875" y2="262.203" gradientUnits="userSpaceOnUse">
<stop stop-color="#0083DA" stop-opacity="0"/>
<stop offset="1" stop-color="#3BADF5"/>
</linearGradient>
</defs>
</svg>
