<svg width="56" height="70" viewBox="0 0 56 70" fill="none" xmlns="http://www.w3.org/2000/svg" xmlns:xlink="http://www.w3.org/1999/xlink">
<path d="M55.408,30.607L55.408,69.104L0.838,69.104L0.838,30.607L4.061,30.607C7.076,30.588 9.987,29.311 12.271,27.005C14.555,24.7 16.062,21.516 16.522,18.026L39.725,18.026C40.225,21.495 41.744,24.65 44.019,26.947C46.294,29.244 49.183,30.538 52.186,30.607L55.408,30.607Z" fill="url(#pf_0_i_3501_655;3494_577)" stroke="#000000" stroke-width="0.521" stroke-miterlimit="3.999327" stroke-linecap="round" stroke-linejoin="round"/>
<path d="M39.725,18.026L39.725,18.546C40.012,18.546 40.246,18.313 40.246,18.026L39.725,18.026ZM16.522,18.026L16.001,18.026C16.001,18.313 16.234,18.546 16.522,18.546L16.522,18.026ZM28.123,0.178C31.033,0.178 33.844,1.531 35.931,3.975L36.723,3.299C34.458,0.647 31.367,-0.863 28.123,-0.863L28.123,0.178ZM35.931,3.975C38.02,6.422 39.204,9.755 39.204,13.245L40.246,13.245C40.246,9.527 38.985,5.949 36.723,3.299L35.931,3.975ZM39.204,13.245L39.204,18.026L40.246,18.026L40.246,13.245L39.204,13.245ZM39.725,17.505L16.522,17.505L16.522,18.546L39.725,18.546L39.725,17.505ZM17.042,18.026L17.042,13.245L16.001,13.245L16.001,18.026L17.042,18.026ZM17.042,13.245C17.042,9.755 18.227,6.422 20.316,3.975L19.524,3.299C17.261,5.949 16.001,9.527 16.001,13.245L17.042,13.245ZM20.316,3.975C22.402,1.531 25.213,0.178 28.123,0.178L28.123,-0.863C24.879,-0.863 21.788,0.647 19.524,3.299L20.316,3.975Z" fill="#000000"/>
<path d="M36.718,55.517L36.718,56.038C37.005,56.038 37.239,55.804 37.239,55.517L36.718,55.517ZM19.53,55.517L19.009,55.517C19.009,55.804 19.243,56.038 19.53,56.038L19.53,55.517ZM28.124,42.45C30.236,42.45 32.282,43.432 33.805,45.215L34.597,44.539C32.896,42.547 30.57,41.408 28.124,41.408L28.124,42.45ZM33.805,45.215C35.329,47.001 36.197,49.439 36.197,51.994L37.239,51.994C37.239,49.211 36.295,46.528 34.597,44.539L33.805,45.215ZM36.197,51.994L36.197,55.517L37.239,55.517L37.239,51.994L36.197,51.994ZM36.718,54.996L19.53,54.996L19.53,56.038L36.718,56.038L36.718,54.996ZM20.051,55.517L20.051,51.994L19.009,51.994L19.009,55.517L20.051,55.517ZM20.051,51.994C20.051,49.439 20.919,47.001 22.443,45.215L21.651,44.539C19.953,46.528 19.009,49.211 19.009,51.994L20.051,51.994ZM22.443,45.215C23.966,43.432 26.012,42.45 28.124,42.45L28.124,41.408C25.678,41.408 23.352,42.547 21.651,44.539L22.443,45.215Z" transform="rotate(360 28.124 48.723)" fill="#000000"/>
<defs>
<linearGradient id="pf_0_i_3501_655;3494_577" x1="25.545" y1="-0.343" x2="44.881" y2="67.594" gradientUnits="userSpaceOnUse">
<stop stop-color="#0083DA" stop-opacity="0"/>
<stop offset="1" stop-color="#3BADF5"/>
</linearGradient>
</defs>
</svg>
