<svg width="56" height="72" viewBox="0 0 56 72" fill="none" xmlns="http://www.w3.org/2000/svg" xmlns:xlink="http://www.w3.org/1999/xlink">
<path d="M55.411,31.544L55.411,70.058L0.841,70.058L0.841,31.544L4.064,31.544C7.079,31.525 9.99,30.248 12.274,27.941C14.558,25.634 16.065,22.449 16.525,18.958L39.728,18.958C40.228,22.428 41.747,25.585 44.022,27.883C46.297,30.181 49.185,31.476 52.189,31.544L55.411,31.544Z" fill="url(#pf_0_i_3647_1565;3494_577)" stroke="#000000" stroke-width="0.521" stroke-miterlimit="3.999327" stroke-linecap="round" stroke-linejoin="round"/>
<path d="M39.728,18.958L39.728,19.479C40.015,19.479 40.249,19.245 40.249,18.958L39.728,18.958ZM16.525,18.958L16.004,18.958C16.004,19.245 16.237,19.479 16.525,19.479L16.525,18.958ZM28.126,1.103C31.036,1.103 33.847,2.456 35.934,4.901L36.726,4.225C34.461,1.572 31.37,0.061 28.126,0.061L28.126,1.103ZM35.934,4.901C38.022,7.349 39.207,10.684 39.207,14.175L40.249,14.175C40.249,10.456 38.988,6.876 36.726,4.225L35.934,4.901ZM39.207,14.175L39.207,18.958L40.249,18.958L40.249,14.175L39.207,14.175ZM39.728,18.437L16.525,18.437L16.525,19.479L39.728,19.479L39.728,18.437ZM17.045,18.958L17.045,14.175L16.004,14.175L16.004,18.958L17.045,18.958ZM17.045,14.175C17.045,10.684 18.23,7.349 20.319,4.901L19.527,4.225C17.264,6.876 16.004,10.456 16.004,14.175L17.045,14.175ZM20.319,4.901C22.406,2.456 25.216,1.103 28.126,1.103L28.126,0.061C24.882,0.061 21.791,1.572 19.527,4.225L20.319,4.901Z" fill="#000000"/>
<path d="M36.72,56.465L36.72,56.986C37.008,56.986 37.241,56.752 37.241,56.465L36.72,56.465ZM19.532,56.465L19.012,56.465C19.012,56.752 19.245,56.986 19.532,56.986L19.532,56.465ZM28.126,43.392C30.238,43.392 32.284,44.375 33.807,46.159L34.599,45.483C32.898,43.49 30.573,42.351 28.126,42.351L28.126,43.392ZM33.807,46.159C35.332,47.945 36.199,50.384 36.199,52.941L37.241,52.941C37.241,50.156 36.298,47.473 34.599,45.483L33.807,46.159ZM36.199,52.941L36.199,56.465L37.241,56.465L37.241,52.941L36.199,52.941ZM36.72,55.944L19.532,55.944L19.532,56.986L36.72,56.986L36.72,55.944ZM20.053,56.465L20.053,52.941L19.012,52.941L19.012,56.465L20.053,56.465ZM20.053,52.941C20.053,50.384 20.921,47.945 22.446,46.159L21.653,45.483C19.955,47.473 19.012,50.156 19.012,52.941L20.053,52.941ZM22.446,46.159C23.968,44.375 26.014,43.392 28.126,43.392L28.126,42.351C25.68,42.351 23.354,43.49 21.653,45.483L22.446,46.159Z" transform="rotate(360 28.126 49.668)" fill="#000000"/>
<defs>
<linearGradient id="pf_0_i_3647_1565;3494_577" x1="25.548" y1="0.582" x2="44.884" y2="68.547" gradientUnits="userSpaceOnUse">
<stop stop-color="#0083DA" stop-opacity="0"/>
<stop offset="1" stop-color="#3BADF5"/>
</linearGradient>
</defs>
</svg>
