<svg width="56" height="70" viewBox="0 0 56 70" fill="none" xmlns="http://www.w3.org/2000/svg" xmlns:xlink="http://www.w3.org/1999/xlink">
<path d="M55.411,30.856L55.411,69.354L0.841,69.354L0.841,30.856L4.064,30.856C7.079,30.838 9.99,29.561 12.274,27.255C14.558,24.949 16.065,21.766 16.525,18.275L39.728,18.275C40.228,21.744 41.747,24.9 44.022,27.197C46.297,29.494 49.185,30.788 52.189,30.856L55.411,30.856Z" fill="url(#pf_0_i_3494_587;3494_577)" stroke="#000000" stroke-width="0.521" stroke-miterlimit="3.999327" stroke-linecap="round" stroke-linejoin="round"/>
<path d="M39.728,18.275L39.728,18.796C40.015,18.796 40.249,18.563 40.249,18.275L39.728,18.275ZM16.525,18.275L16.004,18.275C16.004,18.563 16.237,18.796 16.525,18.796L16.525,18.275ZM28.126,0.428C31.036,0.428 33.847,1.781 35.934,4.225L36.726,3.549C34.461,0.896 31.37,-0.614 28.126,-0.614L28.126,0.428ZM35.934,4.225C38.023,6.672 39.207,10.005 39.207,13.495L40.249,13.495C40.249,9.777 38.988,6.199 36.726,3.549L35.934,4.225ZM39.207,13.495L39.207,18.275L40.249,18.275L40.249,13.495L39.207,13.495ZM39.728,17.755L16.525,17.755L16.525,18.796L39.728,18.796L39.728,17.755ZM17.045,18.275L17.045,13.495L16.004,13.495L16.004,18.275L17.045,18.275ZM17.045,13.495C17.045,10.005 18.23,6.672 20.319,4.225L19.527,3.549C17.264,6.199 16.004,9.777 16.004,13.495L17.045,13.495ZM20.319,4.225C22.406,1.781 25.216,0.428 28.126,0.428L28.126,-0.614C24.882,-0.614 21.791,0.896 19.527,3.549L20.319,4.225Z" fill="#000000"/>
<path d="M36.72,55.767L36.72,56.287C37.008,56.287 37.241,56.054 37.241,55.767L36.72,55.767ZM19.532,55.767L19.012,55.767C19.012,56.054 19.245,56.287 19.532,56.287L19.532,55.767ZM28.126,42.7C30.238,42.7 32.284,43.682 33.807,45.465L34.599,44.789C32.898,42.797 30.572,41.658 28.126,41.658L28.126,42.7ZM33.807,45.465C35.332,47.251 36.199,49.688 36.199,52.244L37.241,52.244C37.241,49.461 36.297,46.778 34.599,44.789L33.807,45.465ZM36.199,52.244L36.199,55.767L37.241,55.767L37.241,52.244L36.199,52.244ZM36.72,55.246L19.532,55.246L19.532,56.287L36.72,56.287L36.72,55.246ZM20.053,55.767L20.053,52.244L19.012,52.244L19.012,55.767L20.053,55.767ZM20.053,52.244C20.053,49.688 20.921,47.251 22.446,45.465L21.653,44.789C19.955,46.778 19.012,49.461 19.012,52.244L20.053,52.244ZM22.446,45.465C23.968,43.682 26.014,42.7 28.126,42.7L28.126,41.658C25.68,41.658 23.354,42.797 21.653,44.789L22.446,45.465Z" transform="rotate(360 28.126 48.973)" fill="#000000"/>
<defs>
<linearGradient id="pf_0_i_3494_587;3494_577" x1="25.548" y1="-0.093" x2="44.884" y2="67.844" gradientUnits="userSpaceOnUse">
<stop stop-color="#0083DA" stop-opacity="0"/>
<stop offset="1" stop-color="#3BADF5"/>
</linearGradient>
</defs>
</svg>
