<svg width="26" height="26" viewBox="0 0 26 26" fill="none" xmlns="http://www.w3.org/2000/svg" xmlns:xlink="http://www.w3.org/1999/xlink">
<path d="M0.261,12.058L-0.111,12.177L-0.111,12.177L0.261,12.058ZM5.076,1.235L5.196,1.606L5.196,1.606L5.076,1.235ZM12.146,2.422L11.911,2.734C12.052,2.84 12.246,2.839 12.385,2.731L12.146,2.422ZM19.203,1.235L19.323,0.863L19.323,0.863L19.203,1.235ZM24.03,12.058L23.658,11.938L23.657,11.94L24.03,12.058ZM12.146,24.297L11.959,24.64C12.076,24.704 12.217,24.704 12.334,24.64L12.146,24.297ZM0.633,11.938C-0.719,7.718 0.88,2.997 5.196,1.606L4.956,0.863C0.113,2.423 -1.554,7.673 -0.111,12.177L0.633,11.938ZM5.196,1.606C7.483,0.868 10.01,1.304 11.911,2.734L12.381,2.11C10.277,0.527 7.486,0.046 4.956,0.863L5.196,1.606ZM12.385,2.731C14.176,1.346 16.798,0.873 19.084,1.607L19.323,0.863C16.796,0.052 13.905,0.568 11.907,2.113L12.385,2.731ZM19.084,1.606C23.4,2.997 25.008,7.719 23.658,11.938L24.402,12.177C25.844,7.672 24.165,2.423 19.323,0.863L19.084,1.606ZM23.657,11.94C22.606,15.283 19.712,18.282 17.026,20.467C15.69,21.554 14.421,22.427 13.486,23.028C13.018,23.329 12.635,23.561 12.369,23.718C12.236,23.797 12.133,23.856 12.063,23.896C12.028,23.916 12.001,23.931 11.984,23.941C11.975,23.945 11.968,23.949 11.964,23.951C11.962,23.953 11.96,23.953 11.959,23.954C11.959,23.954 11.959,23.954 11.958,23.955C11.958,23.955 11.958,23.955 11.958,23.955C11.958,23.955 11.958,23.955 12.146,24.297C12.334,24.64 12.334,24.64 12.334,24.639C12.334,24.639 12.334,24.639 12.335,24.639C12.335,24.639 12.336,24.639 12.336,24.638C12.338,24.638 12.34,24.636 12.342,24.635C12.347,24.632 12.355,24.628 12.364,24.623C12.384,24.612 12.412,24.596 12.449,24.575C12.522,24.534 12.629,24.472 12.766,24.391C13.04,24.23 13.432,23.992 13.908,23.686C14.862,23.072 16.156,22.182 17.519,21.073C20.232,18.867 23.28,15.746 24.403,12.175L23.657,11.94ZM12.146,24.297C12.333,23.954 12.333,23.954 12.333,23.954C12.333,23.954 12.333,23.954 12.333,23.954C12.332,23.954 12.332,23.954 12.332,23.953C12.331,23.953 12.329,23.952 12.327,23.951C12.323,23.949 12.316,23.945 12.308,23.94C12.29,23.93 12.264,23.916 12.229,23.896C12.16,23.857 12.057,23.798 11.925,23.721C11.661,23.566 11.28,23.337 10.816,23.039C9.886,22.444 8.624,21.579 7.292,20.497C4.617,18.323 1.72,15.324 0.633,11.938L-0.111,12.177C1.048,15.786 4.095,18.906 6.8,21.104C8.159,22.208 9.447,23.09 10.394,23.697C10.868,24.001 11.258,24.236 11.53,24.395C11.666,24.475 11.772,24.536 11.845,24.577C11.882,24.597 11.91,24.613 11.929,24.624C11.939,24.629 11.946,24.633 11.951,24.636C11.954,24.637 11.956,24.638 11.957,24.639C11.958,24.639 11.958,24.64 11.959,24.64C11.959,24.64 11.959,24.64 11.959,24.64C11.959,24.64 11.959,24.64 12.146,24.297Z" fill="#FFFFFF"/>
<path d="M17.475,5.308C17.269,5.242 17.049,5.354 16.983,5.56C16.916,5.765 17.029,5.985 17.234,6.051L17.475,5.308ZM19.461,8.865C19.479,9.08 19.667,9.24 19.882,9.223C20.097,9.205 20.257,9.017 20.24,8.802L19.461,8.865ZM17.234,6.051C18.477,6.453 19.356,7.563 19.461,8.865L20.24,8.802C20.109,7.185 19.018,5.807 17.475,5.308L17.234,6.051Z" fill="#FFFFFF"/>
</svg>
