<svg width="676" height="272" viewBox="0 0 676 272" fill="none" xmlns="http://www.w3.org/2000/svg" xmlns:xlink="http://www.w3.org/1999/xlink">
<path d="M0.521,5.521C0.521,2.644 2.853,0.312 5.729,0.312L669.271,0.312C672.147,0.312 674.479,2.644 674.479,5.521L674.479,266.458C674.479,269.334 672.147,271.666 669.271,271.666L5.729,271.666C2.853,271.666 0.521,269.334 0.521,266.458L0.521,5.521Z" fill="url(#pattern_0_3885_2932)"/>
<path d="M0.521,5.521C0.521,2.644 2.853,0.312 5.729,0.312L669.271,0.312C672.147,0.312 674.479,2.644 674.479,5.521L674.479,266.458C674.479,269.334 672.147,271.666 669.271,271.666L5.729,271.666C2.853,271.666 0.521,269.334 0.521,266.458L0.521,5.521Z" fill="#000000" fill-opacity="0.1"/>
</svg>
