<svg width="676" height="274" viewBox="0 0 676 274" fill="none" xmlns="http://www.w3.org/2000/svg" xmlns:xlink="http://www.w3.org/1999/xlink">
<path d="M0.521,5.875C0.521,2.998 2.853,0.667 5.729,0.667L669.271,0.667C672.147,0.667 674.479,2.998 674.479,5.875L674.479,266.813C674.479,269.689 672.147,272.021 669.271,272.021L5.729,272.021C2.853,272.021 0.521,269.689 0.521,266.813L0.521,5.875Z" fill="url(#pattern_0_3885_3053)"/>
<path d="M0.521,5.875C0.521,2.998 2.853,0.667 5.729,0.667L669.271,0.667C672.147,0.667 674.479,2.998 674.479,5.875L674.479,266.813C674.479,269.689 672.147,272.021 669.271,272.021L5.729,272.021C2.853,272.021 0.521,269.689 0.521,266.813L0.521,5.875Z" fill="#000000" fill-opacity="0.1"/>
</svg>
