<svg width="36" height="34" viewBox="0 0 36 34" fill="none" xmlns="http://www.w3.org/2000/svg" xmlns:xlink="http://www.w3.org/1999/xlink">
<path d="M17.998,2.576C19.862,0.699 22.266,0.031 24.572,0.064C30.115,0.144 35.71,4.667 35.71,11.22C35.71,17.523 31.678,22.77 27.691,26.338C25.674,28.143 23.604,29.576 21.924,30.563C21.084,31.056 20.327,31.446 19.71,31.718C19.402,31.853 19.113,31.966 18.856,32.047C18.633,32.118 18.317,32.204 18.001,32.204C17.685,32.204 17.369,32.118 17.145,32.047C16.888,31.966 16.6,31.853 16.292,31.718C15.674,31.446 14.917,31.056 14.078,30.563C12.397,29.576 10.328,28.143 8.311,26.338C4.323,22.77 0.292,17.523 0.292,11.22C0.292,4.683 5.873,0.064 11.449,0.064C13.692,0.064 16.12,0.703 17.998,2.576ZM24.534,2.72C22.413,2.689 20.436,3.409 19.106,5.405C18.86,5.774 18.445,5.996 18.001,5.996C17.557,5.996 17.142,5.774 16.896,5.405C15.574,3.421 13.561,2.72 11.449,2.72C7.195,2.72 2.948,6.291 2.948,11.22C2.948,16.383 6.288,20.964 10.082,24.358C11.955,26.034 13.878,27.365 15.423,28.272C16.196,28.726 16.859,29.065 17.362,29.286C17.614,29.397 17.81,29.471 17.948,29.515C17.968,29.522 17.986,29.527 18.001,29.531C18.016,29.527 18.033,29.522 18.053,29.515C18.192,29.471 18.388,29.397 18.64,29.286C19.142,29.065 19.806,28.726 20.579,28.272C22.123,27.365 24.047,26.034 25.92,24.358C29.713,20.964 33.053,16.383 33.053,11.22C33.053,6.307 28.819,2.782 24.534,2.72Z" clip-rule="evenodd" fill-rule="evenodd" fill="#040509"/>
</svg>
