<svg width="50" height="50" viewBox="0 0 50 50" fill="none" xmlns="http://www.w3.org/2000/svg" xmlns:xlink="http://www.w3.org/1999/xlink">
<path d="M22.501,3.562C21.77,4.39 21.848,5.654 22.677,6.385C23.505,7.116 24.769,7.037 25.499,6.209L22.501,3.562ZM25.499,16.791C24.769,15.963 23.505,15.884 22.677,16.615C21.848,17.346 21.77,18.61 22.501,19.438L25.499,16.791ZM1.5,46.5L-0.5,46.5C-0.5,47.605 0.395,48.5 1.5,48.5L1.5,46.5ZM46.5,46.5L46.5,48.5C47.605,48.5 48.5,47.605 48.5,46.5L46.5,46.5ZM22.999,29.276C22.042,29.829 21.716,31.052 22.269,32.008C22.822,32.964 24.045,33.291 25.001,32.738L22.999,29.276ZM24.5,11.5C24.5,15.918 20.918,19.5 16.5,19.5L16.5,23.5C23.127,23.5 28.5,18.127 28.5,11.5L24.5,11.5ZM16.5,19.5C12.082,19.5 8.5,15.918 8.5,11.5L4.5,11.5C4.5,18.127 9.873,23.5 16.5,23.5L16.5,19.5ZM8.5,11.5C8.5,7.082 12.082,3.5 16.5,3.5L16.5,-0.5C9.873,-0.5 4.5,4.873 4.5,11.5L8.5,11.5ZM16.5,3.5C20.918,3.5 24.5,7.082 24.5,11.5L28.5,11.5C28.5,4.873 23.127,-0.5 16.5,-0.5L16.5,3.5ZM25.499,6.209C26.968,4.545 29.111,3.5 31.5,3.5L31.5,-0.5C27.916,-0.5 24.696,1.074 22.501,3.562L25.499,6.209ZM31.5,3.5C35.918,3.5 39.5,7.082 39.5,11.5L43.5,11.5C43.5,4.873 38.127,-0.5 31.5,-0.5L31.5,3.5ZM39.5,11.5C39.5,15.918 35.918,19.5 31.5,19.5L31.5,23.5C38.127,23.5 43.5,18.127 43.5,11.5L39.5,11.5ZM31.5,19.5C29.111,19.5 26.968,18.455 25.499,16.791L22.501,19.438C24.696,21.926 27.916,23.5 31.5,23.5L31.5,19.5ZM3.5,44C3.5,36.82 9.32,31 16.5,31L16.5,27C7.111,27 -0.5,34.611 -0.5,44L3.5,44ZM16.5,31C23.68,31 29.5,36.82 29.5,44L33.5,44C33.5,34.611 25.889,27 16.5,27L16.5,31ZM-0.5,44L-0.5,46.5L3.5,46.5L3.5,44L-0.5,44ZM1.5,48.5L31.5,48.5L31.5,44.5L1.5,44.5L1.5,48.5ZM33.5,46.5L33.5,44L29.5,44L29.5,46.5L33.5,46.5ZM31.5,48.5L46.5,48.5L46.5,44.5L31.5,44.5L31.5,48.5ZM48.5,46.5L48.5,44L44.5,44L44.5,46.5L48.5,46.5ZM48.5,44C48.5,34.611 40.889,27 31.5,27L31.5,31C38.68,31 44.5,36.82 44.5,44L48.5,44ZM31.5,27C28.407,27 25.501,27.828 22.999,29.276L25.001,32.738C26.912,31.633 29.129,31 31.5,31L31.5,27Z" fill="#0F172A"/>
</svg>
