<svg width="50" height="44" viewBox="0 0 50 44" fill="none" xmlns="http://www.w3.org/2000/svg" xmlns:xlink="http://www.w3.org/1999/xlink">
<path d="M21.687,34.666C22.056,35.708 23.198,36.254 24.24,35.886C25.281,35.518 25.827,34.375 25.459,33.334L21.687,34.666ZM7.541,33.334C7.173,34.375 7.719,35.518 8.76,35.886C9.802,36.254 10.944,35.708 11.312,34.666L7.541,33.334ZM31.5,19.5C30.395,19.5 29.5,20.395 29.5,21.5C29.5,22.605 30.395,23.5 31.5,23.5L31.5,19.5ZM39,23.5C40.105,23.5 41,22.605 41,21.5C41,20.395 40.105,19.5 39,19.5L39,23.5ZM31.5,29.5C30.395,29.5 29.5,30.395 29.5,31.5C29.5,32.605 30.395,33.5 31.5,33.5L31.5,29.5ZM36.5,33.5C37.605,33.5 38.5,32.605 38.5,31.5C38.5,30.395 37.605,29.5 36.5,29.5L36.5,33.5ZM44.5,14L44.5,36.5L48.5,36.5L48.5,14L44.5,14ZM41.5,39.5L6.5,39.5L6.5,43.5L41.5,43.5L41.5,39.5ZM3.5,36.5L3.5,14L-0.5,14L-0.5,36.5L3.5,36.5ZM6.5,11L19,11L19,7L6.5,7L6.5,11ZM29,11L41.5,11L41.5,7L29,7L29,11ZM6.5,39.5C4.843,39.5 3.5,38.157 3.5,36.5L-0.5,36.5C-0.5,40.366 2.634,43.5 6.5,43.5L6.5,39.5ZM44.5,36.5C44.5,38.157 43.157,39.5 41.5,39.5L41.5,43.5C45.366,43.5 48.5,40.366 48.5,36.5L44.5,36.5ZM48.5,14C48.5,10.134 45.366,7 41.5,7L41.5,11C43.157,11 44.5,12.343 44.5,14L48.5,14ZM3.5,14C3.5,12.343 4.843,11 6.5,11L6.5,7C2.634,7 -0.5,10.134 -0.5,14L3.5,14ZM19.5,24C19.5,25.657 18.157,27 16.5,27L16.5,31C20.366,31 23.5,27.866 23.5,24L19.5,24ZM16.5,27C14.843,27 13.5,25.657 13.5,24L9.5,24C9.5,27.866 12.634,31 16.5,31L16.5,27ZM13.5,24C13.5,22.343 14.843,21 16.5,21L16.5,17C12.634,17 9.5,20.134 9.5,24L13.5,24ZM16.5,21C18.157,21 19.5,22.343 19.5,24L23.5,24C23.5,20.134 20.366,17 16.5,17L16.5,21ZM16.5,31C18.892,31 20.931,32.528 21.687,34.666L25.459,33.334C24.156,29.646 20.64,27 16.5,27L16.5,31ZM11.312,34.666C12.068,32.528 14.108,31 16.5,31L16.5,27C12.361,27 8.844,29.646 7.541,33.334L11.312,34.666ZM31.5,23.5L39,23.5L39,19.5L31.5,19.5L31.5,23.5ZM31.5,33.5L36.5,33.5L36.5,29.5L31.5,29.5L31.5,33.5ZM27,6.5L27,9L31,9L31,6.5L27,6.5ZM21,9L21,6.5L17,6.5L17,9L21,9ZM24,12C22.343,12 21,10.657 21,9L17,9C17,12.866 20.134,16 24,16L24,12ZM27,9C27,10.657 25.657,12 24,12L24,16C27.866,16 31,12.866 31,9L27,9ZM24,3.5C25.657,3.5 27,4.843 27,6.5L31,6.5C31,2.634 27.866,-0.5 24,-0.5L24,3.5ZM24,-0.5C20.134,-0.5 17,2.634 17,6.5L21,6.5C21,4.843 22.343,3.5 24,3.5L24,-0.5Z" fill="#0F172A"/>
</svg>
