<svg width="50" height="44" viewBox="0 0 50 44" fill="none" xmlns="http://www.w3.org/2000/svg" xmlns:xlink="http://www.w3.org/1999/xlink">
<path d="M20.086,33.414C20.867,34.195 22.133,34.195 22.914,33.414C23.695,32.633 23.695,31.367 22.914,30.586L20.086,33.414ZM11.5,22L10.086,20.586C9.305,21.367 9.305,22.633 10.086,23.414L11.5,22ZM22.914,13.414C23.695,12.633 23.695,11.367 22.914,10.586C22.133,9.805 20.867,9.805 20.086,10.586L22.914,13.414ZM46.5,24C47.605,24 48.5,23.105 48.5,22C48.5,20.895 47.605,20 46.5,20L46.5,24ZM36,32C36,30.895 35.105,30 34,30C32.895,30 32,30.895 32,32L36,32ZM32,12C32,13.105 32.895,14 34,14C35.105,14 36,13.105 36,12L32,12ZM3.5,34.5L3.5,9.5L-0.5,9.5L-0.5,34.5L3.5,34.5ZM-0.5,34.5C-0.5,39.747 3.753,44 9,44L9,40C5.962,40 3.5,37.538 3.5,34.5L-0.5,34.5ZM3.5,9.5C3.5,6.462 5.962,4 9,4L9,0C3.753,0 -0.5,4.253 -0.5,9.5L3.5,9.5ZM22.914,30.586L12.914,20.586L10.086,23.414L20.086,33.414L22.914,30.586ZM12.914,23.414L22.914,13.414L20.086,10.586L10.086,20.586L12.914,23.414ZM11.5,24L46.5,24L46.5,20L11.5,20L11.5,24ZM9,44L26.5,44L26.5,40L9,40L9,44ZM36,34.5L36,32L32,32L32,34.5L36,34.5ZM9,4L26.5,4L26.5,0L9,0L9,4ZM32,9.5L32,12L36,12L36,9.5L32,9.5ZM26.5,4C29.538,4 32,6.462 32,9.5L36,9.5C36,4.253 31.747,0 26.5,0L26.5,4ZM26.5,44C31.747,44 36,39.747 36,34.5L32,34.5C32,37.538 29.538,40 26.5,40L26.5,44Z" fill="#0F172A"/>
</svg>
