<svg width="46" height="90" viewBox="0 0 46 90" fill="none" xmlns="http://www.w3.org/2000/svg" xmlns:xlink="http://www.w3.org/1999/xlink">
<path d="M18.346,14.096C19.451,14.096 20.346,13.201 20.346,12.096C20.346,10.992 19.451,10.096 18.346,10.096L18.346,14.096ZM39.906,52.123C39.906,51.018 39.01,50.123 37.906,50.123C36.801,50.123 35.906,51.018 35.906,52.123L39.906,52.123ZM34.448,5.021L36.245,5.899L36.245,5.899L34.448,5.021ZM41.363,19.172L39.566,18.294L41.363,19.172ZM13.456,47.978L11.659,47.1C11.526,47.373 11.456,47.673 11.456,47.978L13.456,47.978ZM13.456,62.129L11.456,62.129C11.456,63.234 12.352,64.129 13.456,64.129L13.456,62.129ZM20.372,62.129L20.372,64.129C21.136,64.129 21.833,63.694 22.168,63.007L20.372,62.129ZM33.016,85.145L6.122,85.145L6.122,89.145L33.016,89.145L33.016,85.145ZM3.232,77.139L3.232,22.103L-0.768,22.103L-0.768,77.139L3.232,77.139ZM6.122,14.096L18.346,14.096L18.346,10.096L6.122,10.096L6.122,14.096ZM35.906,52.123L35.906,77.139L39.906,77.139L39.906,52.123L35.906,52.123ZM6.122,85.145C5.961,85.145 5.25,84.952 4.461,83.336C3.736,81.854 3.232,79.665 3.232,77.139L-0.768,77.139C-0.768,80.139 -0.178,82.954 0.867,85.093C1.847,87.099 3.581,89.145 6.122,89.145L6.122,85.145ZM33.016,89.145C35.556,89.145 37.29,87.099 38.27,85.093C39.316,82.954 39.906,80.139 39.906,77.139L35.906,77.139C35.906,79.665 35.401,81.854 34.676,83.336C33.887,84.952 33.176,85.145 33.016,85.145L33.016,89.145ZM3.232,22.103C3.232,19.577 3.736,17.388 4.461,15.905C5.25,14.29 5.961,14.096 6.122,14.096L6.122,10.096C3.581,10.096 1.847,12.143 0.867,14.149C-0.178,16.288 -0.768,19.103 -0.768,22.103L3.232,22.103ZM36.245,5.899C37.069,4.212 37.794,4.09 37.906,4.09C38.017,4.09 38.742,4.212 39.566,5.899L43.16,4.143C42.075,1.922 40.297,0.09 37.906,0.09C35.514,0.09 33.736,1.922 32.651,4.143L36.245,5.899ZM39.566,5.899C40.352,7.507 40.795,9.747 40.795,12.096C40.795,14.445 40.352,16.686 39.566,18.294L43.16,20.05C44.284,17.75 44.795,14.869 44.795,12.096C44.795,9.324 44.284,6.442 43.16,4.143L39.566,5.899ZM32.651,4.143L11.659,47.1L15.253,48.856L36.245,5.899L32.651,4.143ZM11.456,47.978L11.456,62.129L15.456,62.129L15.456,47.978L11.456,47.978ZM39.566,18.294L18.575,61.251L22.168,63.007L43.16,20.05L39.566,18.294ZM20.372,60.129L13.456,60.129L13.456,64.129L20.372,64.129L20.372,60.129Z" fill="#000000"/>
</svg>
