<svg width="88" height="88" viewBox="0 0 88 88" fill="none" xmlns="http://www.w3.org/2000/svg" xmlns:xlink="http://www.w3.org/1999/xlink">
<path d="M70.334,77C70.334,78.105 71.229,79 72.334,79C73.438,79 74.334,78.105 74.334,77L70.334,77ZM57.667,55L57.667,53L57.667,55ZM28.334,55L28.334,53L28.334,55ZM13.667,69.667L11.667,69.667L13.667,69.667ZM11.667,77C11.667,78.105 12.562,79 13.667,79C14.772,79 15.667,78.105 15.667,77L11.667,77ZM74.334,77L74.334,69.667L70.334,69.667L70.334,77L74.334,77ZM74.334,69.667C74.334,65.246 72.578,61.007 69.452,57.882L66.624,60.71C68.999,63.085 70.334,66.307 70.334,69.667L74.334,69.667ZM69.452,57.882C66.327,54.756 62.087,53 57.667,53L57.667,57C61.026,57 64.248,58.335 66.624,60.71L69.452,57.882ZM57.667,53L28.334,53L28.334,57L57.667,57L57.667,53ZM28.334,53C23.913,53 19.674,54.756 16.549,57.882L19.377,60.71C21.752,58.335 24.974,57 28.334,57L28.334,53ZM16.549,57.882C13.423,61.007 11.667,65.246 11.667,69.667L15.667,69.667C15.667,66.307 17.002,63.085 19.377,60.71L16.549,57.882ZM11.667,69.667L11.667,77L15.667,77L15.667,69.667L11.667,69.667Z" fill="#8C8CA1"/>
<path d="M55.666,25.667C55.666,32.662 49.995,38.333 43,38.333L43,42.333C52.204,42.333 59.666,34.871 59.666,25.667L55.666,25.667ZM43,38.333C36.004,38.333 30.333,32.662 30.333,25.667L26.333,25.667C26.333,34.871 33.795,42.333 43,42.333L43,38.333ZM30.333,25.667C30.333,18.671 36.004,13 43,13L43,9C33.795,9 26.333,16.462 26.333,25.667L30.333,25.667ZM43,13C49.995,13 55.666,18.671 55.666,25.667L59.666,25.667C59.666,16.462 52.204,9 43,9L43,13Z" fill="#8C8CA1"/>
</svg>
