<svg width="26" height="24" viewBox="0 0 26 24" fill="none" xmlns="http://www.w3.org/2000/svg" xmlns:xlink="http://www.w3.org/1999/xlink">
<path d="M11.999,2.524C13.314,1.199 15.011,0.728 16.639,0.751C20.552,0.808 24.501,4.001 24.501,8.626C24.501,13.075 21.655,16.779 18.841,19.297C17.417,20.571 15.956,21.583 14.77,22.279C14.177,22.628 13.643,22.903 13.207,23.095C12.99,23.19 12.786,23.27 12.604,23.328C12.447,23.378 12.224,23.438 12.001,23.438C11.777,23.438 11.555,23.378 11.397,23.328C11.215,23.27 11.011,23.19 10.794,23.095C10.358,22.903 9.824,22.628 9.231,22.279C8.045,21.583 6.585,20.571 5.16,19.297C2.346,16.779 -0.5,13.075 -0.5,8.626C-0.5,4.012 3.44,0.751 7.375,0.751C8.959,0.751 10.673,1.202 11.999,2.524ZM16.612,2.626C15.115,2.604 13.72,3.113 12.781,4.521C12.607,4.782 12.314,4.938 12.001,4.938C11.687,4.938 11.394,4.782 11.221,4.521C10.287,3.121 8.867,2.626 7.375,2.626C4.373,2.626 1.375,5.147 1.375,8.626C1.375,12.271 3.733,15.504 6.411,17.9C7.733,19.083 9.091,20.022 10.181,20.663C10.726,20.983 11.195,21.223 11.549,21.379C11.727,21.457 11.866,21.509 11.964,21.54C11.978,21.545 11.99,21.548 12.001,21.552C12.011,21.548 12.024,21.545 12.038,21.54C12.136,21.509 12.274,21.457 12.452,21.379C12.806,21.223 13.275,20.983 13.82,20.663C14.911,20.022 16.268,19.083 17.591,17.9C20.268,15.504 22.626,12.271 22.626,8.626C22.626,5.158 19.637,2.67 16.612,2.626Z" clip-rule="evenodd" fill-rule="evenodd" fill="#040509"/>
</svg>
