<svg width="50" height="50" viewBox="0 0 50 50" fill="none" xmlns="http://www.w3.org/2000/svg" xmlns:xlink="http://www.w3.org/1999/xlink">
<path d="M0.086,22.586C-0.695,23.367 -0.695,24.633 0.086,25.414C0.867,26.195 2.133,26.195 2.914,25.414L0.086,22.586ZM24,1.5L25.414,0.086C24.633,-0.695 23.367,-0.695 22.586,0.086L24,1.5ZM45.086,25.414C45.867,26.195 47.133,26.195 47.914,25.414C48.695,24.633 48.695,23.367 47.914,22.586L45.086,25.414ZM2.914,25.414L7.914,20.414L5.086,17.586L0.086,22.586L2.914,25.414ZM7.914,20.414L25.414,2.914L22.586,0.086L5.086,17.586L7.914,20.414ZM22.586,2.914L40.086,20.414L42.914,17.586L25.414,0.086L22.586,2.914ZM40.086,20.414L45.086,25.414L47.914,22.586L42.914,17.586L40.086,20.414ZM4.5,19L4.5,44L8.5,44L8.5,19L4.5,19ZM9,48.5L16.5,48.5L16.5,44.5L9,44.5L9,48.5ZM21,44L21,34L17,34L17,44L21,44ZM21.5,33.5L26.5,33.5L26.5,29.5L21.5,29.5L21.5,33.5ZM27,34L27,44L31,44L31,34L27,34ZM31.5,48.5L39,48.5L39,44.5L31.5,44.5L31.5,48.5ZM43.5,44L43.5,19L39.5,19L39.5,44L43.5,44ZM39,48.5C41.485,48.5 43.5,46.485 43.5,44L39.5,44C39.5,44.276 39.276,44.5 39,44.5L39,48.5ZM27,44C27,46.485 29.015,48.5 31.5,48.5L31.5,44.5C31.224,44.5 31,44.276 31,44L27,44ZM26.5,33.5C26.776,33.5 27,33.724 27,34L31,34C31,31.515 28.985,29.5 26.5,29.5L26.5,33.5ZM21,34C21,33.724 21.224,33.5 21.5,33.5L21.5,29.5C19.015,29.5 17,31.515 17,34L21,34ZM16.5,48.5C18.985,48.5 21,46.485 21,44L17,44C17,44.276 16.776,44.5 16.5,44.5L16.5,48.5ZM4.5,44C4.5,46.485 6.515,48.5 9,48.5L9,44.5C8.724,44.5 8.5,44.276 8.5,44L4.5,44ZM16.5,48.5L31.5,48.5L31.5,44.5L16.5,44.5L16.5,48.5Z" fill="#0F172A"/>
</svg>
