<svg width="58" height="48" viewBox="0 0 58 48" fill="none" xmlns="http://www.w3.org/2000/svg" xmlns:xlink="http://www.w3.org/1999/xlink">
<path d="M52.841,23.843C52.841,36.576 40.913,46.899 26.199,46.899C11.485,46.899 -0.443,36.576 -0.443,23.843C-0.443,11.109 11.485,0.787 26.199,0.787C40.913,0.787 52.841,11.109 52.841,23.843Z" transform="rotate(0 26.199 23.843)" fill="#ECF0F1"/>
<path d="M37.261,13.084C35.987,12.272 34.51,11.839 33.001,11.833C31.692,11.846 30.405,12.166 29.243,12.767C28.08,13.368 27.074,14.232 26.306,15.292C25.538,14.231 24.533,13.365 23.37,12.765C22.207,12.164 20.919,11.844 19.61,11.833C18.099,11.839 16.619,12.273 15.343,13.084C11.238,15.645 9.833,21.32 12.202,25.75C14.137,29.372 22.296,35.657 25.246,37.851C25.555,38.08 25.929,38.204 26.313,38.204C26.697,38.204 27.071,38.08 27.38,37.851C30.323,35.643 38.489,29.372 40.424,25.75C42.771,21.312 41.366,15.638 37.261,13.084ZM39.181,25.103C37.71,27.811 31.699,32.89 26.534,36.739C26.463,36.791 26.378,36.82 26.291,36.82C26.206,36.82 26.123,36.791 26.055,36.739C20.905,32.89 14.858,27.811 13.408,25.103C11.378,21.298 12.569,16.44 16.057,14.261C17.117,13.593 18.343,13.236 19.596,13.231C20.689,13.24 21.765,13.507 22.735,14.011C23.706,14.515 24.543,15.241 25.18,16.131L26.291,17.603L27.409,16.131C28.045,15.242 28.881,14.516 29.85,14.012C30.819,13.508 31.894,13.24 32.986,13.231C34.239,13.235 35.466,13.592 36.525,14.261C40.02,16.433 41.212,21.29 39.181,25.095L39.181,25.103Z" transform="rotate(0 26.305 25.018)" fill="#4D4D4F"/>
</svg>
