<svg width="12" height="16" viewBox="0 0 12 16" fill="none" xmlns="http://www.w3.org/2000/svg" xmlns:xlink="http://www.w3.org/1999/xlink">
<path d="M10.853,0.589C11.036,0.474 11.091,0.233 10.977,0.05C10.862,-0.133 10.621,-0.188 10.439,-0.074L10.853,0.589ZM0.229,6.778L0.022,6.447C-0.09,6.517 -0.159,6.639 -0.161,6.771C-0.164,6.903 -0.099,7.027 0.01,7.101L0.229,6.778ZM10.427,14.157C10.605,14.278 10.848,14.231 10.969,14.053C11.09,13.874 11.043,13.631 10.865,13.51L10.427,14.157ZM10.439,-0.074L0.022,6.447L0.436,7.109L10.853,0.589L10.439,-0.074ZM0.01,7.101L10.427,14.157L10.865,13.51L0.448,6.455L0.01,7.101Z" fill="#111719"/>
</svg>
