<svg width="12" height="18" viewBox="0 0 12 18" fill="none" xmlns="http://www.w3.org/2000/svg" xmlns:xlink="http://www.w3.org/1999/xlink">
<path d="M10.875,1.089C11.05,0.962 11.089,0.718 10.962,0.543C10.835,0.369 10.591,0.33 10.416,0.457L10.875,1.089ZM0.229,8.335L0,8.019C-0.1,8.091 -0.159,8.205 -0.162,8.328C-0.164,8.45 -0.109,8.567 -0.012,8.642L0.229,8.335ZM10.404,16.825C10.574,16.959 10.82,16.929 10.953,16.76C11.086,16.59 11.057,16.344 10.887,16.211L10.404,16.825ZM10.416,0.457L0,8.019L0.458,8.651L10.875,1.089L10.416,0.457ZM-0.012,8.642L10.404,16.825L10.887,16.211L0.47,8.028L-0.012,8.642Z" fill="#111719"/>
</svg>
