<svg width="12" height="14" viewBox="0 0 12 14" fill="none" xmlns="http://www.w3.org/2000/svg" xmlns:xlink="http://www.w3.org/1999/xlink">
<path d="M10.007,1.535C10.194,1.428 10.259,1.19 10.153,1.002C10.046,0.815 9.807,0.75 9.62,0.857L10.007,1.535ZM-0.604,7.135L-0.797,6.796C-0.917,6.864 -0.992,6.99 -0.994,7.128C-0.996,7.266 -0.926,7.395 -0.809,7.467L-0.604,7.135ZM9.608,13.894C9.792,14.007 10.032,13.95 10.146,13.766C10.259,13.583 10.202,13.342 10.018,13.229L9.608,13.894ZM9.62,0.857L-0.797,6.796L-0.41,7.474L10.007,1.535L9.62,0.857ZM-0.809,7.467L9.608,13.894L10.018,13.229L-0.398,6.802L-0.809,7.467Z" fill="#111719"/>
</svg>
