<svg width="60" height="60" viewBox="0 0 60 60" fill="none" xmlns="http://www.w3.org/2000/svg" xmlns:xlink="http://www.w3.org/1999/xlink">
<path d="M18.379,28.364L19.97,27.152L18.379,28.364ZM18.793,18.742L18.4,16.78L18.793,18.742ZM24.881,17.214L25.647,19.061L24.881,17.214ZM41.259,41.207L39.297,40.815L41.259,41.207ZM42.786,35.119L44.634,35.884L42.786,35.119ZM16.24,19.252L15.848,17.291L16.24,19.252ZM15.011,19.562L14.145,17.759L15.011,19.562ZM40.438,44.989L42.241,45.855L40.438,44.989ZM37.941,45.998L38.636,44.123L38.636,44.123L37.941,45.998ZM50.181,17.681L48.767,19.095L50.181,17.681ZM51.917,20.058L53.907,19.861L51.917,20.058ZM39.942,8.083L39.745,10.074L39.942,8.083ZM40.905,11.233L48.767,19.095L51.595,16.267L43.733,8.405L40.905,11.233ZM49.017,21.619L44.347,28.623L47.676,30.842L52.345,23.838L49.017,21.619ZM31.377,15.653L38.381,10.983L36.162,7.655L29.158,12.324L31.377,15.653ZM16.633,21.213L19.185,20.703L18.4,16.78L15.848,17.291L16.633,21.213ZM39.297,40.815L38.787,43.367L42.709,44.152L43.22,41.6L39.297,40.815ZM38.002,43.684C35.348,41.847 34.071,40.962 32.848,40.03L30.424,43.212C31.736,44.212 33.099,45.155 35.725,46.973L38.002,43.684ZM13.027,24.275C14.845,26.901 15.788,28.264 16.788,29.576L19.97,27.152C19.038,25.929 18.153,24.652 16.316,21.998L13.027,24.275ZM32.848,40.03C27.997,36.334 23.666,32.003 19.97,27.152L16.788,29.576C20.701,34.712 25.288,39.299 30.424,43.212L32.848,40.03ZM29.158,12.324C26.47,14.116 25.342,14.858 24.116,15.366L25.647,19.061C27.317,18.369 28.814,17.361 31.377,15.653L29.158,12.324ZM19.185,20.703C22.205,20.099 23.976,19.753 25.647,19.061L24.116,15.366C22.89,15.874 21.568,16.147 18.4,16.78L19.185,20.703ZM44.347,28.623C42.639,31.186 41.631,32.683 40.939,34.353L44.634,35.884C45.142,34.658 45.884,33.53 47.676,30.842L44.347,28.623ZM43.22,41.6C43.853,38.432 44.126,37.11 44.634,35.884L40.939,34.353C40.247,36.024 39.901,37.795 39.297,40.815L43.22,41.6ZM15.848,17.291C15.321,17.396 14.66,17.511 14.145,17.759L15.877,21.364C15.799,21.402 15.777,21.397 15.928,21.36C16.077,21.325 16.283,21.283 16.633,21.213L15.848,17.291ZM16.316,21.998C16.113,21.704 15.993,21.532 15.911,21.403C15.828,21.272 15.847,21.283 15.877,21.364L12.126,22.755C12.325,23.29 12.721,23.833 13.027,24.275L16.316,21.998ZM14.145,17.759C12.283,18.653 11.408,20.818 12.126,22.755L15.877,21.364L15.877,21.364L14.145,17.759ZM38.787,43.367C38.717,43.717 38.675,43.923 38.64,44.072C38.603,44.223 38.598,44.201 38.636,44.123L42.241,45.855C42.489,45.34 42.604,44.679 42.709,44.152L38.787,43.367ZM35.725,46.973C36.167,47.279 36.71,47.675 37.245,47.874L38.636,44.123C38.717,44.153 38.728,44.172 38.598,44.089C38.468,44.007 38.296,43.887 38.002,43.684L35.725,46.973ZM38.636,44.123L38.636,44.123L37.245,47.874C39.182,48.592 41.347,47.717 42.241,45.855L38.636,44.123ZM48.767,19.095C49.358,19.686 49.67,20.003 49.863,20.25C50.022,20.454 49.943,20.417 49.926,20.255L53.907,19.861C53.82,18.987 53.428,18.316 53.015,17.788C52.635,17.302 52.115,16.786 51.595,16.267L48.767,19.095ZM52.345,23.838C52.753,23.227 53.162,22.619 53.439,22.069C53.74,21.469 53.993,20.735 53.907,19.861L49.926,20.255C49.91,20.092 49.981,20.041 49.865,20.272C49.724,20.552 49.48,20.924 49.017,21.619L52.345,23.838ZM43.733,8.405C43.214,7.885 42.698,7.365 42.212,6.985C41.684,6.572 41.013,6.18 40.139,6.093L39.745,10.074C39.583,10.057 39.546,9.978 39.75,10.137C39.997,10.33 40.314,10.642 40.905,11.233L43.733,8.405ZM38.381,10.983C39.076,10.52 39.448,10.276 39.728,10.135C39.959,10.019 39.908,10.09 39.745,10.074L40.139,6.093C39.265,6.007 38.531,6.26 37.931,6.561C37.381,6.838 36.773,7.247 36.162,7.655L38.381,10.983Z" fill="#000000"/>
<path d="M16.125,49.83C16.125,50.935 17.02,51.83 18.125,51.83C19.23,51.83 20.125,50.935 20.125,49.83L16.125,49.83ZM20.125,33.92C20.125,32.815 19.23,31.92 18.125,31.92C17.02,31.92 16.125,32.815 16.125,33.92L20.125,33.92ZM20.125,49.83L20.125,33.92L16.125,33.92L16.125,49.83L20.125,49.83Z" transform="rotate(90 18.125 41.875)" fill="#000000"/>
</svg>
