<svg width="60" height="60" viewBox="0 0 60 60" fill="none" xmlns="http://www.w3.org/2000/svg" xmlns:xlink="http://www.w3.org/1999/xlink">
<path d="M10,23C10,19.229 10,17.343 11.172,16.172C12.343,15 14.229,15 18,15L42,15C45.771,15 47.657,15 48.828,16.172C50,17.343 50,19.229 50,23L50,31C50,32.886 50,33.828 49.414,34.414C48.828,35 47.886,35 46,35L43.1,35C42.817,35 42.676,35 42.588,34.912C42.5,34.824 42.5,34.683 42.5,34.4L42.5,31.5C42.5,29.614 42.5,28.672 41.914,28.086C41.328,27.5 40.386,27.5 38.5,27.5L21.5,27.5C19.614,27.5 18.672,27.5 18.086,28.086C17.5,28.672 17.5,29.614 17.5,31.5L17.5,34.4C17.5,34.683 17.5,34.824 17.412,34.912C17.324,35 17.183,35 16.9,35L12,35C11.057,35 10.586,35 10.293,34.707C10,34.414 10,33.943 10,33L10,23Z" fill="#000000"/>
<path d="M18.977,27.5L38.5,27.5C40.386,27.5 41.328,27.5 41.914,28.086C42.5,28.672 42.5,29.614 42.5,31.5L42.5,48.5C42.5,50.386 42.5,51.328 41.914,51.914C41.328,52.5 40.386,52.5 38.5,52.5L18.977,52.5C18.308,52.5 17.973,52.5 17.824,52.28C17.676,52.061 17.8,51.75 18.049,51.129L19.851,46.621C19.925,46.438 19.961,46.346 19.961,46.25C19.961,46.154 19.925,46.062 19.851,45.879L17.649,40.371C17.575,40.188 17.539,40.096 17.539,40C17.539,39.904 17.575,39.812 17.649,39.629L19.851,34.121C19.925,33.938 19.961,33.846 19.961,33.75C19.961,33.654 19.925,33.562 19.851,33.379L18.049,28.871C17.8,28.25 17.676,27.939 17.824,27.72C17.973,27.5 18.308,27.5 18.977,27.5Z" transform="rotate(-180 30 40)" fill="#7E869E" fill-opacity="0.25"/>
<line x1="23.75" y1="35.25" x2="33.75" y2="35.25" stroke="#000000" stroke-width="1" stroke-miterlimit="3.999327" stroke-linecap="round"/>
<line x1="23.75" y1="42.75" x2="36.25" y2="42.75" stroke="#000000" stroke-width="1" stroke-miterlimit="3.999327" stroke-linecap="round"/>
<path d="M17.5,11.5C17.5,9.614 17.5,8.672 18.086,8.086C18.672,7.5 19.614,7.5 21.5,7.5L38.5,7.5C40.386,7.5 41.328,7.5 41.914,8.086C42.5,8.672 42.5,9.614 42.5,11.5L42.5,11.9C42.5,12.183 42.5,12.324 42.412,12.412C42.324,12.5 42.183,12.5 41.9,12.5L18.1,12.5C17.817,12.5 17.676,12.5 17.588,12.412C17.5,12.324 17.5,12.183 17.5,11.9L17.5,11.5Z" fill="#000000"/>
</svg>
