<svg width="114" height="110" viewBox="0 0 114 110" fill="none" xmlns="http://www.w3.org/2000/svg" xmlns:xlink="http://www.w3.org/1999/xlink">
<path d="M79.75,50.417C79.75,65.019 67.472,76.917 52.25,76.917L52.25,78.917C68.508,78.917 81.75,66.19 81.75,50.417L79.75,50.417ZM52.25,76.917C37.028,76.917 24.75,65.019 24.75,50.417L22.75,50.417C22.75,66.19 35.992,78.917 52.25,78.917L52.25,76.917ZM24.75,50.417C24.75,35.815 37.028,23.917 52.25,23.917L52.25,21.917C35.992,21.917 22.75,34.643 22.75,50.417L24.75,50.417ZM52.25,23.917C67.472,23.917 79.75,35.815 79.75,50.417L81.75,50.417C81.75,34.643 68.508,21.917 52.25,21.917L52.25,23.917Z" fill="#654D28" fill-opacity="0.4"/>
<path d="M52.25,37.667C52.802,37.667 53.25,37.219 53.25,36.667C53.25,36.114 52.802,35.667 52.25,35.667L52.25,37.667ZM46.797,37.713L46.426,36.785L46.797,37.713ZM42.174,40.694L41.479,39.974L42.174,40.694ZM39.085,45.155L38.166,44.76L39.085,45.155ZM37,50.417C37,50.969 37.448,51.417 38,51.417C38.552,51.417 39,50.969 39,50.417L37,50.417ZM52.25,35.667C50.252,35.667 48.273,36.046 46.426,36.785L47.168,38.642C48.778,37.998 50.505,37.667 52.25,37.667L52.25,35.667ZM46.426,36.785C44.578,37.523 42.897,38.607 41.479,39.974L42.868,41.414C44.097,40.228 45.558,39.286 47.168,38.642L46.426,36.785ZM41.479,39.974C40.062,41.342 38.935,42.968 38.166,44.76L40.004,45.549C40.667,44.005 41.639,42.599 42.868,41.414L41.479,39.974ZM38.166,44.76C37.396,46.553 37,48.475 37,50.417L39,50.417C39,48.747 39.341,47.094 40.004,45.549L38.166,44.76Z" fill="#654D28" fill-opacity="0.4"/>
<path d="M94.306,92.386C94.703,92.77 95.336,92.759 95.72,92.361C96.103,91.964 96.092,91.331 95.694,90.947L94.306,92.386ZM81.444,77.197C81.047,76.814 80.414,76.825 80.03,77.222C79.647,77.62 79.658,78.253 80.056,78.636L81.444,77.197ZM95.694,90.947L81.444,77.197L80.056,78.636L94.306,92.386L95.694,90.947Z" fill="#654D28" fill-opacity="0.4"/>
</svg>
