<svg width="42" height="44" viewBox="0 0 42 44" fill="none" xmlns="http://www.w3.org/2000/svg" xmlns:xlink="http://www.w3.org/1999/xlink">
<path d="M7,0.416L33,0.416C37.308,0.416 40.8,3.908 40.8,8.216L40.8,34.216C40.8,38.524 37.308,42.016 33,42.016L7,42.016C2.692,42.016 -0.8,38.524 -0.8,34.216L-0.8,8.216C-0.8,3.908 2.692,0.416 7,0.416ZM7,3.016C4.128,3.016 1.8,5.344 1.8,8.216L1.8,34.216C1.8,37.088 4.128,39.416 7,39.416L33,39.416C35.872,39.416 38.2,37.088 38.2,34.216L38.2,8.216C38.2,5.344 35.872,3.016 33,3.016L7,3.016Z" clip-rule="evenodd" fill-rule="evenodd" fill="#B5B5BE"/>
</svg>
