<svg width="630" height="210" viewBox="0 0 630 210" fill="none" xmlns="http://www.w3.org/2000/svg" xmlns:xlink="http://www.w3.org/1999/xlink">
<path d="M3.432,24.157C4.571,24.053 5.727,24 6.897,24C25.465,24 40.517,37.431 40.517,54C40.517,70.569 25.465,84 6.897,84C4.594,84 2.345,83.793 0.172,83.4L0.172,170C0.172,192.091 18.081,210 40.172,210L590,210C612.09,210 630,192.091 630,170L630,40C630,17.909 612.092,0 590,0L40.172,0C23.709,0 9.569,9.946 3.432,24.157Z" clip-rule="evenodd" fill-rule="evenodd" fill="#FAFAFB"/>
</svg>
