<svg width="84" height="84" viewBox="0 0 84 84" fill="none" xmlns="http://www.w3.org/2000/svg" xmlns:xlink="http://www.w3.org/1999/xlink">
<path d="M68.438,24.136L73.276,19.297L62.612,8.633L57.773,13.471L68.438,24.136ZM62.332,30.242L51.667,19.577L11.774,59.471L9.319,72.59L22.438,70.135L62.332,30.242ZM79.64,13.45C82.869,16.679 82.869,21.916 79.64,25.145L27.599,77.186C26.983,77.802 26.196,78.217 25.34,78.377L4.71,82.237C1.727,82.795 -0.886,80.182 -0.328,77.199L3.532,56.569C3.692,55.713 4.107,54.926 4.723,54.31L56.764,2.269C59.993,-0.96 65.23,-0.96 68.459,2.269L79.64,13.45ZM77.765,82.312L42.956,82.312C37.227,82.312 37.227,73.632 42.956,73.632L77.765,73.632C83.494,73.632 83.494,82.312 77.765,82.312Z" clip-rule="evenodd" fill-rule="evenodd" fill="#92929D"/>
</svg>
