<svg width="26" height="26" viewBox="0 0 26 26" fill="none" xmlns="http://www.w3.org/2000/svg" xmlns:xlink="http://www.w3.org/1999/xlink">
<path d="M13,25.75C20.042,25.75 25.75,20.042 25.75,13C25.75,5.958 20.042,0.25 13,0.25C5.958,0.25 0.25,5.958 0.25,13C0.25,20.042 5.958,25.75 13,25.75ZM20.203,10.03C20.91,9.182 20.796,7.921 19.947,7.214C19.098,6.506 17.837,6.621 17.13,7.47L12.851,12.605C12.158,13.437 11.768,13.898 11.456,14.181L11.445,14.191L11.432,14.182C11.096,13.928 10.666,13.504 9.9,12.739L8.748,11.586C7.966,10.805 6.7,10.805 5.919,11.586C5.138,12.367 5.138,13.633 5.919,14.414L7.072,15.567L7.154,15.649C7.807,16.302 8.435,16.93 9.019,17.372C9.674,17.867 10.531,18.333 11.63,18.283C12.729,18.233 13.541,17.692 14.148,17.14C14.69,16.647 15.259,15.964 15.85,15.254L15.924,15.165L20.203,10.03Z" clip-rule="evenodd" fill-rule="evenodd" fill="#000000"/>
</svg>
