<svg width="50" height="50" viewBox="0 0 50 50" fill="none" xmlns="http://www.w3.org/2000/svg" xmlns:xlink="http://www.w3.org/1999/xlink">
<path d="M24.758,9.188C28.357,9.132 31.838,10.47 34.469,12.919L41.558,6.006C37.01,1.756 30.99,-0.575 24.758,-0.497C20.102,-0.499 15.538,0.792 11.575,3.23C7.612,5.669 4.408,9.158 2.32,13.309L10.442,19.598C11.435,16.586 13.351,13.961 15.919,12.094C18.488,10.226 21.58,9.21 24.758,9.188L24.758,9.188Z" fill="#EA4335"/>
<path d="M48.871,25.109C48.901,23.387 48.722,21.668 48.34,19.988L24.759,19.988L24.759,29.286L38.602,29.286C38.339,30.916 37.749,32.476 36.866,33.873C35.983,35.269 34.827,36.473 33.465,37.413L41.392,43.535C43.862,41.157 45.804,38.288 47.094,35.114C48.384,31.94 48.991,28.532 48.878,25.109L48.871,25.109Z" fill="#4285F4"/>
<path d="M10.471,29.507C9.922,27.912 9.638,26.238 9.633,24.552C9.643,22.869 9.916,21.197 10.442,19.597L2.32,13.308C0.558,16.796 -0.359,20.648 -0.359,24.553C-0.359,28.459 0.558,32.31 2.32,35.798L10.471,29.507Z" fill="#FBBC05"/>
<path d="M24.759,49.602C30.877,49.775 36.829,47.604 41.392,43.535L33.466,37.412C30.896,39.13 27.852,40.006 24.759,39.917C21.583,39.898 18.494,38.882 15.929,37.014C13.365,35.145 11.455,32.519 10.472,29.507L2.35,35.798C4.432,39.947 7.631,43.436 11.589,45.874C15.547,48.312 20.107,49.603 24.759,49.602Z" fill="#34A853"/>
</svg>
