<svg width="34" height="26" viewBox="0 0 34 26" fill="none" xmlns="http://www.w3.org/2000/svg" xmlns:xlink="http://www.w3.org/1999/xlink">
<path d="M32.689,12.791C32.689,19.51 25.765,25.102 17.02,25.102L17.02,25.883C26.016,25.883 33.47,20.103 33.47,12.791L32.689,12.791ZM17.02,25.102C8.276,25.102 1.352,19.51 1.352,12.791L0.571,12.791C0.571,20.103 8.025,25.883 17.02,25.883L17.02,25.102ZM1.352,12.791C1.352,6.072 8.276,0.48 17.02,0.48L17.02,-0.301C8.025,-0.301 0.571,5.479 0.571,12.791L1.352,12.791ZM17.02,0.48C25.765,0.48 32.689,6.072 32.689,12.791L33.47,12.791C33.47,5.479 26.016,-0.301 17.02,-0.301L17.02,0.48Z" fill="#748189"/>
<path d="M22.812,17.185C23.007,17.277 23.239,17.193 23.332,16.998C23.424,16.803 23.34,16.57 23.145,16.478L22.812,17.185ZM16.433,13.743L16.042,13.743C16.042,13.894 16.13,14.032 16.266,14.096L16.433,13.743ZM16.824,7.087C16.824,6.872 16.649,6.697 16.433,6.697C16.217,6.697 16.042,6.872 16.042,7.087L16.824,7.087ZM23.145,16.478L16.6,13.39L16.266,14.096L22.812,17.185L23.145,16.478ZM16.824,13.743L16.824,7.087L16.042,7.087L16.042,13.743L16.824,13.743Z" fill="#748189"/>
</svg>
