<svg width="28" height="22" viewBox="0 0 28 22" fill="none" xmlns="http://www.w3.org/2000/svg" xmlns:xlink="http://www.w3.org/1999/xlink">
<path d="M25.713,11C25.713,13.62 24.326,16.019 22.029,17.776C19.731,19.533 16.54,20.631 13,20.631L13,21.412C16.697,21.412 20.058,20.266 22.503,18.397C24.949,16.526 26.495,13.915 26.495,11L25.713,11ZM13,20.631C9.459,20.631 6.268,19.533 3.971,17.776C1.674,16.019 0.286,13.62 0.286,11L-0.495,11C-0.495,13.915 1.05,16.526 3.496,18.397C5.941,20.266 9.303,21.412 13,21.412L13,20.631ZM0.286,11C0.286,8.38 1.674,5.981 3.971,4.225C6.268,2.468 9.459,1.37 13,1.37L13,0.589C9.303,0.589 5.941,1.734 3.496,3.604C1.05,5.474 -0.495,8.086 -0.495,11L0.286,11ZM13,1.37C16.54,1.37 19.731,2.468 22.029,4.225C24.326,5.981 25.713,8.38 25.713,11L26.495,11C26.495,8.086 24.949,5.474 22.503,3.604C20.058,1.734 16.697,0.589 13,0.589L13,1.37Z" fill="#748189"/>
<path d="M17.699,14.543C17.895,14.633 18.127,14.546 18.216,14.35C18.306,14.154 18.219,13.922 18.023,13.832L17.699,14.543ZM12.52,11.751L12.129,11.751C12.129,11.904 12.219,12.043 12.358,12.107L12.52,11.751ZM12.911,6.5C12.911,6.285 12.736,6.11 12.52,6.11C12.304,6.11 12.129,6.285 12.129,6.5L12.911,6.5ZM18.023,13.832L12.682,11.396L12.358,12.107L17.699,14.543L18.023,13.832ZM12.911,11.751L12.911,6.5L12.129,6.5L12.129,11.751L12.911,11.751Z" fill="#748189"/>
</svg>
