<svg width="28" height="24" viewBox="0 0 28 24" fill="none" xmlns="http://www.w3.org/2000/svg" xmlns:xlink="http://www.w3.org/1999/xlink">
<path d="M25.713,11.001C25.713,17.127 20.069,22.173 13,22.173L13,22.954C20.406,22.954 26.495,17.647 26.495,11.001L25.713,11.001ZM13,22.173C5.93,22.173 0.286,17.127 0.286,11.001L-0.495,11.001C-0.495,17.647 5.594,22.954 13,22.954L13,22.173ZM0.286,11.001C0.286,4.875 5.93,-0.171 13,-0.171L13,-0.952C5.594,-0.952 -0.495,4.354 -0.495,11.001L0.286,11.001ZM13,-0.171C20.069,-0.171 25.713,4.875 25.713,11.001L26.495,11.001C26.495,4.354 20.406,-0.952 13,-0.952L13,-0.171Z" fill="#748189"/>
<path d="M17.679,15.024C17.87,15.125 18.106,15.052 18.207,14.861C18.307,14.67 18.234,14.434 18.043,14.333L17.679,15.024ZM12.52,11.867L12.13,11.867C12.13,12.012 12.21,12.146 12.338,12.213L12.52,11.867ZM12.911,5.809C12.911,5.593 12.736,5.418 12.52,5.418C12.305,5.418 12.13,5.593 12.13,5.809L12.911,5.809ZM18.043,14.333L12.702,11.522L12.338,12.213L17.679,15.024L18.043,14.333ZM12.911,11.867L12.911,5.809L12.13,5.809L12.13,11.867L12.911,11.867Z" fill="#748189"/>
</svg>
