<svg width="54" height="56" viewBox="0 0 54 56" fill="none" xmlns="http://www.w3.org/2000/svg" xmlns:xlink="http://www.w3.org/1999/xlink">
<path d="M51.585,52.976L38.745,39.293C42.189,35.073 44.274,29.567 44.274,23.55C44.274,10.304 34.164,-0.458 21.745,-0.458C9.315,-0.458 -0.784,10.316 -0.784,23.55C-0.784,36.784 9.326,47.558 21.745,47.558C27.392,47.558 32.559,45.336 36.519,41.665L49.359,55.349C49.664,55.673 50.074,55.848 50.472,55.848C50.87,55.848 51.281,55.686 51.585,55.349C52.194,54.699 52.194,53.626 51.585,52.976ZM2.367,23.55C2.367,12.164 11.06,2.913 21.733,2.913C32.418,2.913 41.1,12.176 41.1,23.55C41.1,34.923 32.418,44.2 21.733,44.2C11.06,44.2 2.367,34.936 2.367,23.55Z" fill="#5E5959"/>
</svg>
