<svg width="12" height="12" viewBox="0 0 12 12" fill="none" xmlns="http://www.w3.org/2000/svg" xmlns:xlink="http://www.w3.org/1999/xlink">
<path d="M5.153,11.625C4.222,11.625 3.41,11.465 2.715,11.146C2.021,10.812 1.444,10.375 0.986,9.833C0.528,9.278 0.181,8.66 -0.056,7.979C-0.278,7.298 -0.389,6.604 -0.389,5.896C-0.389,5.187 -0.278,4.493 -0.056,3.812C0.181,3.132 0.528,2.521 0.986,1.979C1.444,1.423 2.021,0.986 2.715,0.667C3.41,0.333 4.222,0.167 5.153,0.167C6.069,0.167 6.826,0.305 7.424,0.583C8.035,0.847 8.521,1.18 8.882,1.583C9.243,1.986 9.514,2.389 9.694,2.792C9.875,3.194 9.986,3.535 10.028,3.812C10.083,4.09 10.111,4.229 10.111,4.229L7.861,4.229C7.861,4.229 7.826,4.125 7.757,3.917C7.701,3.708 7.583,3.465 7.403,3.187C7.222,2.91 6.951,2.667 6.59,2.458C6.243,2.25 5.771,2.146 5.174,2.146C4.465,2.146 3.875,2.326 3.403,2.687C2.931,3.035 2.569,3.493 2.319,4.062C2.083,4.632 1.965,5.243 1.965,5.896C1.965,6.548 2.083,7.16 2.319,7.729C2.569,8.298 2.931,8.764 3.403,9.125C3.875,9.472 4.465,9.646 5.174,9.646C5.771,9.646 6.243,9.542 6.59,9.333C6.951,9.125 7.222,8.882 7.403,8.604C7.583,8.326 7.701,8.083 7.757,7.875C7.826,7.667 7.861,7.562 7.861,7.562L10.111,7.562C10.111,7.562 10.083,7.701 10.028,7.979C9.986,8.257 9.875,8.597 9.694,9C9.514,9.403 9.243,9.805 8.882,10.208C8.521,10.611 8.035,10.951 7.424,11.229C6.826,11.493 6.069,11.625 5.153,11.625Z" fill="#0A2533"/>
</svg>
