<svg width="38" height="38" viewBox="0 0 38 38" fill="none" xmlns="http://www.w3.org/2000/svg" xmlns:xlink="http://www.w3.org/1999/xlink">
<path d="M18.333,37.438C16.595,37.438 6.727,27.482 2.815,21.313C2.25,20.555 1.729,19.581 1.25,18.499L1.12,18.174C1.033,17.904 0.903,17.633 0.816,17.254C0.729,16.984 0.642,16.659 0.555,16.335C0.251,15.036 0.077,13.845 0.077,12.709C0.077,5.674 4.684,-0.062 10.335,-0.062C13.465,-0.062 16.421,1.724 18.333,4.754C20.246,1.724 23.202,-0.062 26.331,-0.062C31.982,-0.062 36.59,5.674 36.59,12.709C36.59,13.954 36.373,15.09 36.112,16.28C36.068,16.659 35.938,16.984 35.851,17.309L35.808,17.417C35.764,17.525 35.721,17.633 35.677,17.741C35.634,17.85 35.59,18.012 35.503,18.174L35.503,18.229L35.416,18.499C34.938,19.635 34.417,20.555 33.851,21.367C29.939,27.482 20.072,37.438 18.333,37.438ZM3.25,17.417C3.641,18.283 4.032,18.986 4.424,19.527L4.467,19.635C8.466,25.858 16.595,33.542 18.333,34.625C20.072,33.488 28.201,25.858 32.156,19.581L32.2,19.473C32.634,18.932 33.026,18.229 33.373,17.363L33.373,17.254L33.547,16.93C33.591,16.822 33.634,16.713 33.678,16.551C33.721,16.443 33.765,16.28 33.808,16.118C33.851,15.902 33.938,15.739 33.938,15.577L33.938,15.523C34.156,14.495 34.33,13.575 34.33,12.601C34.33,7.027 30.722,2.536 26.245,2.536C23.289,2.536 20.637,4.484 19.203,7.731L18.333,10.003L17.377,7.893C15.943,4.646 13.291,2.698 10.335,2.698C5.858,2.644 2.25,7.135 2.25,12.709C2.25,13.575 2.381,14.549 2.641,15.523L2.685,15.685C2.728,15.848 2.772,16.064 2.859,16.28L2.902,16.335C2.946,16.551 3.033,16.767 3.163,16.984L3.337,17.309L3.337,17.417L3.25,17.417Z" fill="#FFC6BA"/>
</svg>
