<svg width="6" height="12" viewBox="0 0 6 12" fill="none" xmlns="http://www.w3.org/2000/svg" xmlns:xlink="http://www.w3.org/1999/xlink">
<path d="M-0.811,11.729L-0.811,0.687L1.168,0.687L1.168,2.062L1.251,2.062C1.488,1.646 1.835,1.278 2.293,0.958C2.751,0.639 3.397,0.479 4.231,0.479C4.467,0.479 4.682,0.493 4.876,0.521C5.071,0.535 5.168,0.542 5.168,0.542L5.168,2.437C5.168,2.437 5.057,2.43 4.835,2.417C4.626,2.389 4.404,2.375 4.168,2.375C3.21,2.375 2.467,2.653 1.939,3.208C1.425,3.75 1.168,4.639 1.168,5.875L1.168,11.729L-0.811,11.729Z" fill="#48525F"/>
</svg>
