<svg width="8" height="18" viewBox="0 0 8 18" fill="none" xmlns="http://www.w3.org/2000/svg" xmlns:xlink="http://www.w3.org/1999/xlink">
<path d="M1.452,16.083L1.452,6.667L-0.36,6.667L-0.36,5.042L1.452,5.042L1.452,3.687C1.452,3.104 1.556,2.535 1.765,1.979C1.973,1.41 2.32,0.944 2.806,0.583C3.292,0.222 3.952,0.042 4.785,0.042C5.188,0.042 5.508,0.076 5.744,0.146C5.994,0.201 6.119,0.229 6.119,0.229L6.119,1.792C6.119,1.792 6.008,1.771 5.785,1.729C5.577,1.673 5.334,1.646 5.056,1.646C4.417,1.646 3.987,1.84 3.765,2.229C3.542,2.618 3.431,3.104 3.431,3.687L3.431,5.042L5.994,5.042L5.994,6.667L3.431,6.667L3.431,16.083L1.452,16.083Z" fill="#48525F"/>
</svg>
