<svg width="12" height="16" viewBox="0 0 12 16" fill="none" xmlns="http://www.w3.org/2000/svg" xmlns:xlink="http://www.w3.org/1999/xlink">
<path d="M0.895,15.812L0.895,0.687L2.874,0.687L2.874,2.437L2.999,2.437C3.165,2.173 3.388,1.889 3.665,1.583C3.957,1.278 4.339,1.021 4.811,0.812C5.283,0.59 5.867,0.479 6.561,0.479C7.395,0.479 8.124,0.646 8.749,0.979C9.374,1.298 9.895,1.736 10.311,2.292C10.728,2.833 11.04,3.444 11.249,4.125C11.457,4.805 11.561,5.5 11.561,6.208C11.561,6.917 11.457,7.611 11.249,8.292C11.04,8.972 10.728,9.59 10.311,10.146C9.895,10.687 9.374,11.125 8.749,11.458C8.124,11.778 7.395,11.937 6.561,11.937C5.867,11.937 5.283,11.826 4.811,11.604C4.339,11.382 3.957,11.118 3.665,10.812C3.388,10.507 3.165,10.229 2.999,9.979L2.874,9.979L2.874,15.812L0.895,15.812ZM2.915,6.208C2.915,6.875 3.033,7.521 3.27,8.146C3.52,8.757 3.888,9.264 4.374,9.667C4.874,10.055 5.492,10.25 6.228,10.25C6.978,10.25 7.596,10.055 8.082,9.667C8.582,9.264 8.95,8.757 9.186,8.146C9.436,7.521 9.561,6.875 9.561,6.208C9.561,5.528 9.436,4.882 9.186,4.271C8.95,3.66 8.582,3.16 8.082,2.771C7.596,2.368 6.978,2.167 6.228,2.167C5.492,2.167 4.874,2.368 4.374,2.771C3.888,3.16 3.52,3.66 3.27,4.271C3.033,4.882 2.915,5.528 2.915,6.208Z" fill="#48525F"/>
</svg>
