<svg width="12" height="12" viewBox="0 0 12 12" fill="none" xmlns="http://www.w3.org/2000/svg" xmlns:xlink="http://www.w3.org/1999/xlink">
<path d="M5.746,11.625C4.538,11.625 3.517,11.354 2.683,10.812C1.864,10.271 1.239,9.562 0.808,8.687C0.392,7.812 0.183,6.882 0.183,5.896C0.183,4.91 0.392,3.979 0.808,3.104C1.239,2.229 1.864,1.521 2.683,0.979C3.517,0.437 4.538,0.167 5.746,0.167C6.94,0.167 7.947,0.437 8.767,0.979C9.6,1.521 10.225,2.229 10.642,3.104C11.072,3.979 11.288,4.91 11.288,5.896C11.288,6.882 11.072,7.812 10.642,8.687C10.225,9.562 9.6,10.271 8.767,10.812C7.947,11.354 6.94,11.625 5.746,11.625ZM5.746,9.604C6.426,9.604 6.996,9.43 7.454,9.083C7.926,8.736 8.281,8.278 8.517,7.708C8.767,7.139 8.892,6.535 8.892,5.896C8.892,5.243 8.767,4.639 8.517,4.083C8.281,3.514 7.926,3.055 7.454,2.708C6.996,2.361 6.426,2.187 5.746,2.187C5.065,2.187 4.489,2.361 4.017,2.708C3.544,3.055 3.19,3.514 2.954,4.083C2.718,4.639 2.6,5.243 2.6,5.896C2.6,6.535 2.718,7.139 2.954,7.708C3.19,8.278 3.544,8.736 4.017,9.083C4.489,9.43 5.065,9.604 5.746,9.604Z" fill="#0A2533"/>
</svg>
