<svg width="36" height="36" viewBox="0 0 36 36" fill="none" xmlns="http://www.w3.org/2000/svg" xmlns:xlink="http://www.w3.org/1999/xlink">
<path d="M17.197,35.699C15.552,35.699 6.218,26.28 2.517,20.445C1.983,19.729 1.489,18.807 1.037,17.783L0.914,17.476C0.832,17.22 0.708,16.964 0.626,16.606C0.544,16.35 0.461,16.043 0.379,15.736C0.091,14.507 -0.073,13.381 -0.073,12.306C-0.073,5.652 4.286,0.226 9.631,0.226C12.591,0.226 15.387,1.915 17.197,4.782C19.006,1.915 21.802,0.226 24.763,0.226C30.108,0.226 34.466,5.652 34.466,12.306C34.466,13.484 34.261,14.559 34.014,15.685C33.973,16.043 33.85,16.35 33.767,16.657L33.726,16.76C33.685,16.862 33.644,16.964 33.603,17.067C33.562,17.169 33.521,17.323 33.439,17.476L33.439,17.527L33.356,17.783C32.904,18.858 32.411,19.729 31.876,20.496C28.175,26.28 18.841,35.699 17.197,35.699ZM2.929,16.76C3.299,17.579 3.669,18.244 4.039,18.756L4.08,18.858C7.863,24.745 15.552,32.013 17.197,33.037C18.841,31.962 26.531,24.745 30.272,18.807L30.314,18.705C30.725,18.193 31.095,17.527 31.424,16.708L31.424,16.606L31.588,16.299C31.629,16.197 31.67,16.094 31.712,15.941C31.753,15.838 31.794,15.685 31.835,15.531C31.876,15.326 31.958,15.173 31.958,15.019L31.958,14.968C32.164,13.996 32.328,13.125 32.328,12.204C32.328,6.932 28.915,2.683 24.68,2.683C21.884,2.683 19.376,4.526 18.019,7.597L17.197,9.747L16.292,7.751C14.935,4.679 12.427,2.837 9.631,2.837C5.396,2.785 1.983,7.034 1.983,12.306C1.983,13.125 2.106,14.047 2.353,14.968L2.394,15.122C2.435,15.275 2.476,15.48 2.559,15.685L2.6,15.736C2.641,15.941 2.723,16.145 2.846,16.35L3.011,16.657L3.011,16.76L2.929,16.76Z" fill="#FFC6BA"/>
</svg>
