<svg width="12" height="14" viewBox="0 0 12 14" fill="none" xmlns="http://www.w3.org/2000/svg" xmlns:xlink="http://www.w3.org/1999/xlink">
<path d="M6.152,12.292C5.249,12.292 4.465,12.132 3.798,11.812C3.145,11.479 2.603,11.035 2.173,10.479C1.756,9.924 1.444,9.312 1.235,8.646C1.027,7.965 0.923,7.271 0.923,6.562C0.923,5.868 1.02,5.18 1.215,4.5C1.423,3.819 1.735,3.201 2.152,2.646C2.583,2.09 3.117,1.653 3.756,1.333C4.409,1 5.18,0.833 6.069,0.833C7.013,0.833 7.846,1.049 8.569,1.479C9.291,1.91 9.86,2.549 10.277,3.396C10.694,4.243 10.902,5.305 10.902,6.583L10.902,7.167L2.923,7.167C2.965,7.792 3.11,8.368 3.36,8.896C3.624,9.41 3.992,9.826 4.465,10.146C4.937,10.451 5.499,10.604 6.152,10.604C6.721,10.604 7.18,10.514 7.527,10.333C7.888,10.139 8.173,9.917 8.381,9.667C8.59,9.417 8.728,9.201 8.798,9.021C8.881,8.826 8.923,8.729 8.923,8.729L10.777,8.729C10.777,8.729 10.742,8.854 10.673,9.104C10.603,9.34 10.478,9.632 10.298,9.979C10.117,10.326 9.853,10.68 9.506,11.042C9.159,11.389 8.715,11.687 8.173,11.937C7.631,12.174 6.958,12.292 6.152,12.292ZM2.944,5.625L8.965,5.625C8.937,4.903 8.784,4.319 8.506,3.875C8.228,3.417 7.874,3.076 7.444,2.854C7.013,2.632 6.555,2.521 6.069,2.521C5.194,2.521 4.478,2.805 3.923,3.375C3.367,3.93 3.041,4.68 2.944,5.625Z" fill="#48525F"/>
</svg>
