<svg width="12" height="16" viewBox="0 0 12 16" fill="none" xmlns="http://www.w3.org/2000/svg" xmlns:xlink="http://www.w3.org/1999/xlink">
<path d="M5.335,15.458C4.377,15.458 3.585,15.333 2.96,15.083C2.335,14.833 1.835,14.521 1.46,14.146C1.085,13.785 0.807,13.417 0.627,13.042C0.446,12.68 0.328,12.375 0.273,12.125C0.217,11.875 0.189,11.75 0.189,11.75L2.544,11.75C2.544,11.75 2.571,11.833 2.627,12C2.682,12.18 2.8,12.382 2.981,12.604C3.175,12.84 3.46,13.042 3.835,13.208C4.21,13.389 4.703,13.479 5.314,13.479C6.037,13.479 6.613,13.333 7.044,13.042C7.488,12.764 7.8,12.389 7.981,11.917C8.175,11.458 8.273,10.958 8.273,10.417L8.273,9.167L8.169,9.167C8.016,9.403 7.794,9.667 7.502,9.958C7.224,10.236 6.849,10.479 6.377,10.687C5.905,10.896 5.335,11 4.669,11C3.835,11 3.106,10.84 2.481,10.521C1.87,10.201 1.356,9.778 0.939,9.25C0.537,8.708 0.231,8.104 0.023,7.437C-0.186,6.771 -0.29,6.09 -0.29,5.396C-0.29,4.701 -0.186,4.028 0.023,3.375C0.231,2.708 0.537,2.111 0.939,1.583C1.356,1.042 1.87,0.611 2.481,0.292C3.106,-0.028 3.835,-0.188 4.669,-0.188C5.335,-0.188 5.905,-0.083 6.377,0.125C6.849,0.319 7.231,0.562 7.523,0.854C7.814,1.132 8.03,1.396 8.169,1.646L8.273,1.646L8.273,0.021L10.648,0.021L10.648,10.396C10.648,11.382 10.446,12.257 10.044,13.021C9.641,13.785 9.044,14.382 8.252,14.812C7.46,15.243 6.488,15.458 5.335,15.458ZM5.21,9.042C5.891,9.042 6.46,8.868 6.919,8.521C7.377,8.16 7.717,7.701 7.939,7.146C8.162,6.59 8.273,6.007 8.273,5.396C8.273,4.785 8.162,4.201 7.939,3.646C7.717,3.09 7.377,2.639 6.919,2.292C6.46,1.944 5.891,1.771 5.21,1.771C4.516,1.771 3.939,1.944 3.481,2.292C3.023,2.639 2.682,3.09 2.46,3.646C2.238,4.201 2.127,4.785 2.127,5.396C2.127,6.007 2.238,6.59 2.46,7.146C2.682,7.701 3.023,8.16 3.481,8.521C3.939,8.868 4.516,9.042 5.21,9.042Z" fill="#0A2533"/>
</svg>
