<svg width="54" height="54" viewBox="0 0 54 54" fill="none" xmlns="http://www.w3.org/2000/svg" xmlns:xlink="http://www.w3.org/1999/xlink">
<path d="M2.735,10.254L51.098,10.254C52.126,10.254 52.958,9.302 52.958,8.128L52.958,2.813C52.958,1.639 52.126,0.688 51.098,0.688L2.735,0.688C1.708,0.688 0.875,1.639 0.875,2.813L0.875,8.128C0.875,9.302 1.708,10.254 2.735,10.254ZM2.735,31.512L51.098,31.512C52.126,31.512 52.958,30.561 52.958,29.387L52.958,24.072C52.958,22.898 52.126,21.946 51.098,21.946L2.735,21.946C1.708,21.946 0.875,22.898 0.875,24.072L0.875,29.387C0.875,30.561 1.708,31.512 2.735,31.512ZM2.735,52.771L51.098,52.771C52.126,52.771 52.958,51.819 52.958,50.645L52.958,45.33C52.958,44.156 52.126,43.204 51.098,43.204L2.735,43.204C1.708,43.204 0.875,44.156 0.875,45.33L0.875,50.645C0.875,51.819 1.708,52.771 2.735,52.771Z" fill="#FFFFFF"/>
</svg>
