<svg width="12" height="12" viewBox="0 0 12 12" fill="none" xmlns="http://www.w3.org/2000/svg" xmlns:xlink="http://www.w3.org/1999/xlink">
<path d="M5.612,11.937C4.431,11.937 3.438,11.667 2.633,11.125C1.827,10.569 1.216,9.854 0.799,8.979C0.383,8.104 0.174,7.18 0.174,6.208C0.174,5.222 0.383,4.298 0.799,3.437C1.216,2.562 1.827,1.854 2.633,1.312C3.438,0.757 4.431,0.479 5.612,0.479C6.792,0.479 7.785,0.757 8.591,1.312C9.397,1.854 10.008,2.562 10.424,3.437C10.841,4.298 11.049,5.222 11.049,6.208C11.049,7.18 10.841,8.104 10.424,8.979C10.008,9.854 9.397,10.569 8.591,11.125C7.785,11.667 6.792,11.937 5.612,11.937ZM5.612,10.208C6.362,10.208 6.987,10.021 7.487,9.646C8.001,9.257 8.383,8.757 8.633,8.146C8.897,7.535 9.028,6.889 9.028,6.208C9.028,5.514 8.897,4.868 8.633,4.271C8.383,3.66 8.001,3.167 7.487,2.792C6.987,2.403 6.362,2.208 5.612,2.208C4.876,2.208 4.251,2.403 3.737,2.792C3.223,3.167 2.834,3.66 2.57,4.271C2.32,4.868 2.195,5.514 2.195,6.208C2.195,6.889 2.32,7.535 2.57,8.146C2.834,8.757 3.223,9.257 3.737,9.646C4.251,10.021 4.876,10.208 5.612,10.208Z" fill="#48525F"/>
</svg>
