<svg width="10" height="16" viewBox="0 0 10 16" fill="none" xmlns="http://www.w3.org/2000/svg" xmlns:xlink="http://www.w3.org/1999/xlink">
<path d="M4.113,15.937C3.279,15.937 2.55,15.778 1.925,15.458C1.3,15.125 0.779,14.687 0.363,14.146C-0.054,13.59 -0.366,12.972 -0.575,12.292C-0.783,11.611 -0.887,10.917 -0.887,10.208C-0.887,9.5 -0.783,8.805 -0.575,8.125C-0.366,7.444 -0.054,6.833 0.363,6.292C0.779,5.736 1.3,5.299 1.925,4.979C2.55,4.646 3.279,4.479 4.113,4.479C4.807,4.479 5.391,4.59 5.863,4.812C6.335,5.035 6.717,5.299 7.009,5.604C7.3,5.896 7.523,6.174 7.675,6.437L7.8,6.437L7.8,-0.104L9.779,-0.104L9.779,15.729L7.8,15.729L7.8,13.979L7.675,13.979C7.523,14.243 7.3,14.528 7.009,14.833C6.717,15.139 6.335,15.403 5.863,15.625C5.391,15.833 4.807,15.937 4.113,15.937ZM4.446,14.25C5.182,14.25 5.793,14.055 6.279,13.667C6.779,13.264 7.148,12.757 7.384,12.146C7.634,11.521 7.759,10.875 7.759,10.208C7.759,9.528 7.634,8.882 7.384,8.271C7.148,7.66 6.779,7.16 6.279,6.771C5.793,6.368 5.182,6.167 4.446,6.167C3.71,6.167 3.092,6.368 2.592,6.771C2.092,7.16 1.717,7.66 1.467,8.271C1.231,8.882 1.113,9.528 1.113,10.208C1.113,10.875 1.231,11.521 1.467,12.146C1.717,12.757 2.092,13.264 2.592,13.667C3.092,14.055 3.71,14.25 4.446,14.25Z" fill="#48525F"/>
</svg>
