<svg width="36" height="36" viewBox="0 0 36 36" fill="none" xmlns="http://www.w3.org/2000/svg" xmlns:xlink="http://www.w3.org/1999/xlink">
<path d="M18.072,35.865C16.427,35.865 7.094,26.447 3.393,20.611C2.858,19.895 2.365,18.973 1.913,17.95L1.789,17.643C1.707,17.387 1.584,17.131 1.502,16.772C1.419,16.516 1.337,16.209 1.255,15.902C0.967,14.674 0.802,13.548 0.802,12.473C0.802,5.818 5.161,0.392 10.506,0.392C13.467,0.392 16.263,2.082 18.072,4.948C19.881,2.082 22.677,0.392 25.638,0.392C30.983,0.392 35.342,5.818 35.342,12.473C35.342,13.65 35.136,14.725 34.89,15.851C34.848,16.209 34.725,16.516 34.643,16.824L34.602,16.926C34.561,17.028 34.52,17.131 34.478,17.233C34.437,17.335 34.396,17.489 34.314,17.643L34.314,17.694L34.232,17.95C33.779,19.025 33.286,19.895 32.751,20.663C29.051,26.447 19.717,35.865 18.072,35.865ZM3.804,16.926C4.174,17.745 4.544,18.41 4.914,18.922L4.955,19.025C8.738,24.911 16.427,32.18 18.072,33.204C19.717,32.129 27.406,24.911 31.148,18.973L31.189,18.871C31.6,18.359 31.97,17.694 32.299,16.875L32.299,16.772L32.464,16.465C32.505,16.363 32.546,16.26 32.587,16.107C32.628,16.005 32.669,15.851 32.71,15.697C32.751,15.493 32.834,15.339 32.834,15.186L32.834,15.134C33.039,14.162 33.204,13.292 33.204,12.37C33.204,7.098 29.791,2.849 25.556,2.849C22.76,2.849 20.252,4.692 18.895,7.763L18.072,9.913L17.168,7.917C15.811,4.846 13.302,3.003 10.506,3.003C6.271,2.952 2.858,7.2 2.858,12.473C2.858,13.292 2.982,14.213 3.228,15.134L3.27,15.288C3.311,15.441 3.352,15.646 3.434,15.851L3.475,15.902C3.516,16.107 3.599,16.312 3.722,16.516L3.886,16.824L3.886,16.926L3.804,16.926Z" fill="#FFC6BA"/>
</svg>
