<svg width="8" height="14" viewBox="0 0 8 14" fill="none" xmlns="http://www.w3.org/2000/svg" xmlns:xlink="http://www.w3.org/1999/xlink">
<path d="M0.936,12.083L0.936,1.042L2.915,1.042L2.915,2.417L2.999,2.417C3.235,2 3.582,1.632 4.04,1.312C4.499,0.993 5.144,0.833 5.978,0.833C6.214,0.833 6.429,0.847 6.624,0.875C6.818,0.889 6.915,0.896 6.915,0.896L6.915,2.792C6.915,2.792 6.804,2.785 6.582,2.771C6.374,2.743 6.151,2.729 5.915,2.729C4.957,2.729 4.214,3.007 3.686,3.562C3.172,4.104 2.915,4.993 2.915,6.229L2.915,12.083L0.936,12.083Z" fill="#48525F"/>
</svg>
