<svg width="12" height="16" viewBox="0 0 12 16" fill="none" xmlns="http://www.w3.org/2000/svg" xmlns:xlink="http://www.w3.org/1999/xlink">
<path d="M5.326,15.021C4.368,15.021 3.521,14.812 2.785,14.396C2.048,13.965 1.43,13.389 0.93,12.667C0.444,11.93 0.069,11.083 -0.195,10.125C-0.445,9.167 -0.57,8.16 -0.57,7.104C-0.57,6.035 -0.445,5.028 -0.195,4.083C0.069,3.125 0.444,2.278 0.93,1.542C1.43,0.805 2.048,0.229 2.785,-0.188C3.521,-0.604 4.368,-0.813 5.326,-0.813C6.285,-0.813 7.132,-0.604 7.868,-0.188C8.604,0.229 9.215,0.805 9.701,1.542C10.201,2.278 10.576,3.125 10.826,4.083C11.09,5.028 11.222,6.035 11.222,7.104C11.222,8.16 11.09,9.167 10.826,10.125C10.576,11.083 10.201,11.93 9.701,12.667C9.215,13.389 8.604,13.965 7.868,14.396C7.132,14.812 6.285,15.021 5.326,15.021ZM5.326,13.146C6.423,13.146 7.326,12.639 8.035,11.625C8.757,10.597 9.118,9.09 9.118,7.104C9.118,5.118 8.757,3.618 8.035,2.604C7.326,1.59 6.423,1.083 5.326,1.083C4.229,1.083 3.319,1.59 2.597,2.604C1.889,3.618 1.535,5.118 1.535,7.104C1.535,9.076 1.889,10.576 2.597,11.604C3.319,12.632 4.229,13.146 5.326,13.146Z" fill="#48525F"/>
</svg>
