<svg width="12" height="14" viewBox="0 0 12 14" fill="none" xmlns="http://www.w3.org/2000/svg" xmlns:xlink="http://www.w3.org/1999/xlink">
<path d="M5.485,12.292C4.582,12.292 3.798,12.132 3.131,11.812C2.478,11.479 1.936,11.035 1.506,10.479C1.089,9.924 0.777,9.312 0.568,8.646C0.36,7.965 0.256,7.271 0.256,6.562C0.256,5.868 0.353,5.18 0.548,4.5C0.756,3.819 1.068,3.201 1.485,2.646C1.916,2.09 2.45,1.653 3.089,1.333C3.742,1 4.513,0.833 5.402,0.833C6.346,0.833 7.179,1.049 7.902,1.479C8.624,1.91 9.193,2.549 9.61,3.396C10.027,4.243 10.235,5.305 10.235,6.583L10.235,7.167L2.256,7.167C2.298,7.792 2.443,8.368 2.693,8.896C2.957,9.41 3.325,9.826 3.798,10.146C4.27,10.451 4.832,10.604 5.485,10.604C6.054,10.604 6.513,10.514 6.86,10.333C7.221,10.139 7.506,9.917 7.714,9.667C7.923,9.417 8.061,9.201 8.131,9.021C8.214,8.826 8.256,8.729 8.256,8.729L10.11,8.729C10.11,8.729 10.075,8.854 10.006,9.104C9.936,9.34 9.811,9.632 9.631,9.979C9.45,10.326 9.186,10.68 8.839,11.042C8.492,11.389 8.048,11.687 7.506,11.937C6.964,12.174 6.291,12.292 5.485,12.292ZM2.277,5.625L8.298,5.625C8.27,4.903 8.117,4.319 7.839,3.875C7.561,3.417 7.207,3.076 6.777,2.854C6.346,2.632 5.888,2.521 5.402,2.521C4.527,2.521 3.811,2.805 3.256,3.375C2.7,3.93 2.374,4.68 2.277,5.625Z" fill="#48525F"/>
</svg>
