<svg width="12" height="12" viewBox="0 0 12 12" fill="none" xmlns="http://www.w3.org/2000/svg" xmlns:xlink="http://www.w3.org/1999/xlink">
<path d="M5.485,11.937C4.582,11.937 3.798,11.778 3.131,11.458C2.478,11.125 1.936,10.68 1.506,10.125C1.089,9.569 0.777,8.958 0.568,8.292C0.36,7.611 0.256,6.917 0.256,6.208C0.256,5.514 0.353,4.826 0.548,4.146C0.756,3.465 1.068,2.847 1.485,2.292C1.916,1.736 2.45,1.298 3.089,0.979C3.742,0.646 4.513,0.479 5.402,0.479C6.346,0.479 7.179,0.694 7.902,1.125C8.624,1.555 9.193,2.194 9.61,3.042C10.027,3.889 10.235,4.951 10.235,6.229L10.235,6.812L2.256,6.812C2.298,7.437 2.443,8.014 2.693,8.542C2.957,9.055 3.325,9.472 3.798,9.792C4.27,10.097 4.832,10.25 5.485,10.25C6.054,10.25 6.513,10.16 6.86,9.979C7.221,9.785 7.506,9.562 7.714,9.312C7.923,9.062 8.061,8.847 8.131,8.667C8.214,8.472 8.256,8.375 8.256,8.375L10.11,8.375C10.11,8.375 10.075,8.5 10.006,8.75C9.936,8.986 9.811,9.278 9.631,9.625C9.45,9.972 9.186,10.326 8.839,10.687C8.492,11.035 8.048,11.333 7.506,11.583C6.964,11.819 6.291,11.937 5.485,11.937ZM2.277,5.271L8.298,5.271C8.27,4.548 8.117,3.965 7.839,3.521C7.561,3.062 7.207,2.722 6.777,2.5C6.346,2.278 5.888,2.167 5.402,2.167C4.527,2.167 3.811,2.451 3.256,3.021C2.7,3.576 2.374,4.326 2.277,5.271Z" fill="#48525F"/>
</svg>
