<svg width="4" height="16" viewBox="0 0 4 16" fill="none" xmlns="http://www.w3.org/2000/svg" xmlns:xlink="http://www.w3.org/1999/xlink">
<path d="M0.966,2.583C0.591,2.583 0.279,2.458 0.029,2.208C-0.207,1.958 -0.325,1.66 -0.325,1.312C-0.325,0.951 -0.207,0.646 0.029,0.396C0.279,0.146 0.591,0.021 0.966,0.021C1.328,0.021 1.633,0.146 1.883,0.396C2.133,0.646 2.258,0.951 2.258,1.312C2.258,1.66 2.133,1.958 1.883,2.208C1.633,2.458 1.328,2.583 0.966,2.583ZM-0.013,15.729L-0.013,4.687L1.966,4.687L1.966,15.729L-0.013,15.729Z" fill="#48525F"/>
</svg>
