<svg width="10" height="14" viewBox="0 0 10 14" fill="none" xmlns="http://www.w3.org/2000/svg" xmlns:xlink="http://www.w3.org/1999/xlink">
<path d="M6.401,13.937C5.262,13.937 4.401,13.646 3.817,13.062C3.248,12.479 2.963,11.66 2.963,10.604L2.963,4.312L0.984,4.312L0.984,2.687L2.963,2.687L2.963,-0.083L4.942,-0.083L4.942,2.687L7.63,2.687L7.63,4.312L4.942,4.312L4.942,10.604C4.942,11.16 5.095,11.569 5.401,11.833C5.706,12.083 6.151,12.208 6.734,12.208C7.039,12.208 7.331,12.187 7.609,12.146C7.887,12.104 8.026,12.083 8.026,12.083L8.026,13.771C8.026,13.771 7.866,13.798 7.546,13.854C7.227,13.91 6.845,13.937 6.401,13.937Z" fill="#48525F"/>
</svg>
