<svg width="10" height="16" viewBox="0 0 10 16" fill="none" xmlns="http://www.w3.org/2000/svg" xmlns:xlink="http://www.w3.org/1999/xlink">
<path d="M0.748,15.729L0.748,-0.104L2.727,-0.104L2.727,6.292L2.852,6.292C2.949,6.125 3.109,5.896 3.331,5.604C3.567,5.312 3.901,5.055 4.331,4.833C4.762,4.597 5.304,4.479 5.956,4.479C6.762,4.479 7.449,4.667 8.019,5.042C8.588,5.403 9.019,5.896 9.311,6.521C9.616,7.146 9.769,7.847 9.769,8.625L9.769,15.729L7.79,15.729L7.79,8.75C7.79,8.014 7.581,7.403 7.165,6.917C6.762,6.43 6.172,6.187 5.394,6.187C4.769,6.187 4.262,6.347 3.873,6.667C3.484,6.972 3.192,7.382 2.998,7.896C2.817,8.396 2.727,8.93 2.727,9.5L2.727,15.729L0.748,15.729Z" fill="#48525F"/>
</svg>
