<svg width="12" height="14" viewBox="0 0 12 14" fill="none" xmlns="http://www.w3.org/2000/svg" xmlns:xlink="http://www.w3.org/1999/xlink">
<path d="M5.051,12.292C3.871,12.292 2.878,12.021 2.072,11.479C1.267,10.924 0.655,10.208 0.239,9.333C-0.178,8.458 -0.386,7.535 -0.386,6.562C-0.386,5.576 -0.178,4.653 0.239,3.792C0.655,2.917 1.267,2.208 2.072,1.667C2.878,1.111 3.871,0.833 5.051,0.833C6.232,0.833 7.225,1.111 8.03,1.667C8.836,2.208 9.447,2.917 9.864,3.792C10.28,4.653 10.489,5.576 10.489,6.562C10.489,7.535 10.28,8.458 9.864,9.333C9.447,10.208 8.836,10.924 8.03,11.479C7.225,12.021 6.232,12.292 5.051,12.292ZM5.051,10.562C5.801,10.562 6.426,10.375 6.926,10C7.44,9.611 7.822,9.111 8.072,8.5C8.336,7.889 8.468,7.243 8.468,6.562C8.468,5.868 8.336,5.222 8.072,4.625C7.822,4.014 7.44,3.521 6.926,3.146C6.426,2.757 5.801,2.562 5.051,2.562C4.315,2.562 3.69,2.757 3.176,3.146C2.662,3.521 2.273,4.014 2.01,4.625C1.76,5.222 1.635,5.868 1.635,6.562C1.635,7.243 1.76,7.889 2.01,8.5C2.273,9.111 2.662,9.611 3.176,10C3.69,10.375 4.315,10.562 5.051,10.562Z" fill="#48525F"/>
</svg>
