<svg width="6" height="14" viewBox="0 0 6 14" fill="none" xmlns="http://www.w3.org/2000/svg" xmlns:xlink="http://www.w3.org/1999/xlink">
<path d="M-0.726,12.083L-0.726,1.042L1.254,1.042L1.254,2.417L1.337,2.417C1.573,2 1.92,1.632 2.379,1.312C2.837,0.993 3.483,0.833 4.316,0.833C4.552,0.833 4.767,0.847 4.962,0.875C5.156,0.889 5.254,0.896 5.254,0.896L5.254,2.792C5.254,2.792 5.142,2.785 4.92,2.771C4.712,2.743 4.49,2.729 4.254,2.729C3.295,2.729 2.552,3.007 2.024,3.562C1.511,4.104 1.254,4.993 1.254,6.229L1.254,12.083L-0.726,12.083Z" fill="#48525F"/>
</svg>
