<svg width="8" height="12" viewBox="0 0 8 12" fill="none" xmlns="http://www.w3.org/2000/svg" xmlns:xlink="http://www.w3.org/1999/xlink">
<path d="M0.722,11.729L0.722,0.687L2.701,0.687L2.701,2.062L2.785,2.062C3.021,1.646 3.368,1.278 3.826,0.958C4.285,0.639 4.93,0.479 5.764,0.479C6,0.479 6.215,0.493 6.41,0.521C6.604,0.535 6.701,0.542 6.701,0.542L6.701,2.437C6.701,2.437 6.59,2.43 6.368,2.417C6.16,2.389 5.937,2.375 5.701,2.375C4.743,2.375 4,2.653 3.472,3.208C2.958,3.75 2.701,4.639 2.701,5.875L2.701,11.729L0.722,11.729Z" fill="#48525F"/>
</svg>
