<svg width="10" height="18" viewBox="0 0 10 18" fill="none" xmlns="http://www.w3.org/2000/svg" xmlns:xlink="http://www.w3.org/1999/xlink">
<path d="M4.113,16.291C3.279,16.291 2.55,16.132 1.925,15.812C1.3,15.479 0.779,15.041 0.363,14.5C-0.054,13.944 -0.366,13.326 -0.575,12.646C-0.783,11.965 -0.887,11.271 -0.887,10.562C-0.887,9.854 -0.783,9.159 -0.575,8.479C-0.366,7.798 -0.054,7.187 0.363,6.646C0.779,6.09 1.3,5.653 1.925,5.333C2.55,5 3.279,4.833 4.113,4.833C4.807,4.833 5.391,4.944 5.863,5.166C6.335,5.389 6.717,5.653 7.009,5.958C7.3,6.25 7.523,6.528 7.675,6.791L7.8,6.791L7.8,0.25L9.779,0.25L9.779,16.083L7.8,16.083L7.8,14.333L7.675,14.333C7.523,14.597 7.3,14.882 7.009,15.187C6.717,15.493 6.335,15.757 5.863,15.979C5.391,16.187 4.807,16.291 4.113,16.291ZM4.446,14.604C5.182,14.604 5.793,14.409 6.279,14.021C6.779,13.618 7.148,13.111 7.384,12.5C7.634,11.875 7.759,11.229 7.759,10.562C7.759,9.882 7.634,9.236 7.384,8.625C7.148,8.014 6.779,7.514 6.279,7.125C5.793,6.722 5.182,6.521 4.446,6.521C3.71,6.521 3.092,6.722 2.592,7.125C2.092,7.514 1.717,8.014 1.467,8.625C1.231,9.236 1.113,9.882 1.113,10.562C1.113,11.229 1.231,11.875 1.467,12.5C1.717,13.111 2.092,13.618 2.592,14.021C3.092,14.409 3.71,14.604 4.446,14.604Z" fill="#48525F"/>
</svg>
