<svg width="12" height="16" viewBox="0 0 12 16" fill="none" xmlns="http://www.w3.org/2000/svg" xmlns:xlink="http://www.w3.org/1999/xlink">
<path d="M0.344,15.187L0.344,13.75L3.719,10.625C4.663,9.75 5.49,8.986 6.198,8.333C6.92,7.666 7.483,7.021 7.885,6.396C8.288,5.771 8.49,5.083 8.49,4.333C8.49,3.708 8.337,3.18 8.031,2.75C7.74,2.319 7.358,1.993 6.885,1.771C6.427,1.534 5.948,1.416 5.448,1.416C4.795,1.416 4.26,1.528 3.844,1.75C3.427,1.972 3.108,2.25 2.885,2.583C2.663,2.903 2.504,3.229 2.406,3.562C2.309,3.882 2.254,4.153 2.24,4.375C2.226,4.597 2.219,4.708 2.219,4.708L0.26,4.708C0.26,4.708 0.267,4.583 0.281,4.333C0.295,4.083 0.344,3.764 0.427,3.375C0.524,2.986 0.677,2.576 0.885,2.146C1.094,1.701 1.385,1.284 1.76,0.896C2.149,0.507 2.642,0.187 3.24,-0.063C3.851,-0.313 4.594,-0.438 5.469,-0.438C6.358,-0.438 7.184,-0.25 7.948,0.125C8.726,0.486 9.351,1.021 9.823,1.729C10.295,2.423 10.531,3.278 10.531,4.291C10.531,5.222 10.295,6.069 9.823,6.833C9.365,7.583 8.754,8.319 7.99,9.041C7.226,9.764 6.392,10.541 5.49,11.375L3.365,13.333L10.865,13.333L10.865,15.187L0.344,15.187Z" fill="#48525F"/>
</svg>
