<svg width="12" height="12" viewBox="0 0 12 12" fill="none" xmlns="http://www.w3.org/2000/svg" xmlns:xlink="http://www.w3.org/1999/xlink">
<path d="M4.913,11.937C3.733,11.937 2.739,11.667 1.934,11.125C1.128,10.569 0.517,9.854 0.101,8.979C-0.316,8.104 -0.524,7.18 -0.524,6.208C-0.524,5.222 -0.316,4.298 0.101,3.437C0.517,2.562 1.128,1.854 1.934,1.312C2.739,0.757 3.733,0.479 4.913,0.479C6.094,0.479 7.087,0.757 7.892,1.312C8.698,1.854 9.309,2.562 9.726,3.437C10.142,4.298 10.351,5.222 10.351,6.208C10.351,7.18 10.142,8.104 9.726,8.979C9.309,9.854 8.698,10.569 7.892,11.125C7.087,11.667 6.094,11.937 4.913,11.937ZM4.913,10.208C5.663,10.208 6.288,10.021 6.788,9.646C7.302,9.257 7.684,8.757 7.934,8.146C8.198,7.535 8.33,6.889 8.33,6.208C8.33,5.514 8.198,4.868 7.934,4.271C7.684,3.66 7.302,3.167 6.788,2.792C6.288,2.403 5.663,2.208 4.913,2.208C4.177,2.208 3.552,2.403 3.038,2.792C2.524,3.167 2.135,3.66 1.871,4.271C1.621,4.868 1.496,5.514 1.496,6.208C1.496,6.889 1.621,7.535 1.871,8.146C2.135,8.757 2.524,9.257 3.038,9.646C3.552,10.021 4.177,10.208 4.913,10.208Z" fill="#48525F"/>
</svg>
