<svg width="4" height="16" viewBox="0 0 4 16" fill="none" xmlns="http://www.w3.org/2000/svg" xmlns:xlink="http://www.w3.org/1999/xlink">
<path d="M1.962,2.583C1.587,2.583 1.274,2.458 1.024,2.208C0.788,1.958 0.67,1.66 0.67,1.312C0.67,0.951 0.788,0.646 1.024,0.396C1.274,0.146 1.587,0.021 1.962,0.021C2.323,0.021 2.628,0.146 2.878,0.396C3.128,0.646 3.253,0.951 3.253,1.312C3.253,1.66 3.128,1.958 2.878,2.208C2.628,2.458 2.323,2.583 1.962,2.583ZM0.982,15.729L0.982,4.687L2.962,4.687L2.962,15.729L0.982,15.729Z" fill="#48525F"/>
</svg>
