<svg width="36" height="38" viewBox="0 0 36 38" fill="none" xmlns="http://www.w3.org/2000/svg" xmlns:xlink="http://www.w3.org/1999/xlink">
<path d="M17.197,36.241C15.552,36.241 6.218,26.822 2.517,20.987C1.983,20.27 1.489,19.349 1.037,18.325L0.914,18.018C0.832,17.762 0.708,17.506 0.626,17.148C0.544,16.892 0.461,16.585 0.379,16.277C0.091,15.049 -0.073,13.923 -0.073,12.848C-0.073,6.193 4.286,0.768 9.631,0.768C12.591,0.768 15.387,2.457 17.197,5.323C19.006,2.457 21.802,0.768 24.763,0.768C30.108,0.768 34.466,6.193 34.466,12.848C34.466,14.025 34.261,15.1 34.014,16.226C33.973,16.585 33.85,16.892 33.767,17.199L33.726,17.301C33.685,17.404 33.644,17.506 33.603,17.608C33.562,17.711 33.521,17.864 33.439,18.018L33.439,18.069L33.356,18.325C32.904,19.4 32.411,20.27 31.876,21.038C28.175,26.822 18.841,36.241 17.197,36.241ZM2.929,17.301C3.299,18.12 3.669,18.786 4.039,19.297L4.08,19.4C7.863,25.286 15.552,32.555 17.197,33.579C18.841,32.504 26.531,25.286 30.272,19.349L30.314,19.246C30.725,18.734 31.095,18.069 31.424,17.25L31.424,17.148L31.588,16.84C31.629,16.738 31.67,16.636 31.712,16.482C31.753,16.38 31.794,16.226 31.835,16.073C31.876,15.868 31.958,15.714 31.958,15.561L31.958,15.51C32.164,14.537 32.328,13.667 32.328,12.745C32.328,7.473 28.915,3.225 24.68,3.225C21.884,3.225 19.376,5.067 18.019,8.139L17.197,10.288L16.292,8.292C14.935,5.221 12.427,3.378 9.631,3.378C5.396,3.327 1.983,7.576 1.983,12.848C1.983,13.667 2.106,14.588 2.353,15.51L2.394,15.663C2.435,15.817 2.476,16.021 2.559,16.226L2.6,16.277C2.641,16.482 2.723,16.687 2.846,16.892L3.011,17.199L3.011,17.301L2.929,17.301Z" fill="#FFC6BA"/>
</svg>
