<svg width="12" height="14" viewBox="0 0 12 14" fill="none" xmlns="http://www.w3.org/2000/svg" xmlns:xlink="http://www.w3.org/1999/xlink">
<path d="M6.178,12.292C4.997,12.292 4.004,12.021 3.199,11.479C2.393,10.924 1.782,10.208 1.365,9.333C0.949,8.458 0.74,7.535 0.74,6.562C0.74,5.576 0.949,4.653 1.365,3.792C1.782,2.917 2.393,2.208 3.199,1.667C4.004,1.111 4.997,0.833 6.178,0.833C7.358,0.833 8.351,1.111 9.157,1.667C9.962,2.208 10.574,2.917 10.99,3.792C11.407,4.653 11.615,5.576 11.615,6.562C11.615,7.535 11.407,8.458 10.99,9.333C10.574,10.208 9.962,10.924 9.157,11.479C8.351,12.021 7.358,12.292 6.178,12.292ZM6.178,10.562C6.928,10.562 7.553,10.375 8.053,10C8.567,9.611 8.949,9.111 9.199,8.5C9.462,7.889 9.594,7.243 9.594,6.562C9.594,5.868 9.462,5.222 9.199,4.625C8.949,4.014 8.567,3.521 8.053,3.146C7.553,2.757 6.928,2.562 6.178,2.562C5.442,2.562 4.817,2.757 4.303,3.146C3.789,3.521 3.4,4.014 3.136,4.625C2.886,5.222 2.761,5.868 2.761,6.562C2.761,7.243 2.886,7.889 3.136,8.5C3.4,9.111 3.789,9.611 4.303,10C4.817,10.375 5.442,10.562 6.178,10.562Z" fill="#48525F"/>
</svg>
