<svg width="10" height="16" viewBox="0 0 10 16" fill="none" xmlns="http://www.w3.org/2000/svg" xmlns:xlink="http://www.w3.org/1999/xlink">
<path d="M0.111,15.729L0.111,-0.104L2.09,-0.104L2.09,6.292L2.215,6.292C2.312,6.125 2.472,5.896 2.694,5.604C2.931,5.312 3.264,5.055 3.694,4.833C4.125,4.597 4.667,4.479 5.319,4.479C6.125,4.479 6.812,4.667 7.382,5.042C7.951,5.403 8.382,5.896 8.674,6.521C8.979,7.146 9.132,7.847 9.132,8.625L9.132,15.729L7.153,15.729L7.153,8.75C7.153,8.014 6.944,7.403 6.528,6.917C6.125,6.43 5.535,6.187 4.757,6.187C4.132,6.187 3.625,6.347 3.236,6.667C2.847,6.972 2.556,7.382 2.361,7.896C2.181,8.396 2.09,8.93 2.09,9.5L2.09,15.729L0.111,15.729Z" fill="#48525F"/>
</svg>
