<svg width="10" height="12" viewBox="0 0 10 12" fill="none" xmlns="http://www.w3.org/2000/svg" xmlns:xlink="http://www.w3.org/1999/xlink">
<path d="M4.536,11.937C3.439,11.937 2.564,11.597 1.911,10.917C1.258,10.236 0.932,9.292 0.932,8.083L0.932,0.687L2.911,0.687L2.911,7.979C2.911,8.701 3.105,9.257 3.494,9.646C3.897,10.035 4.425,10.229 5.077,10.229C5.744,10.229 6.279,10.055 6.682,9.708C7.084,9.361 7.376,8.917 7.557,8.375C7.737,7.833 7.827,7.278 7.827,6.708L7.827,0.687L9.807,0.687L9.807,11.729L7.827,11.729L7.827,10.146L7.702,10.146C7.619,10.312 7.459,10.542 7.223,10.833C6.987,11.111 6.654,11.368 6.223,11.604C5.793,11.826 5.23,11.937 4.536,11.937Z" fill="#48525F"/>
</svg>
