<svg width="36" height="36" viewBox="0 0 36 36" fill="none" xmlns="http://www.w3.org/2000/svg" xmlns:xlink="http://www.w3.org/1999/xlink">
<path d="M17.197,34.782C15.552,34.782 6.218,25.363 2.517,19.528C1.983,18.812 1.489,17.89 1.037,16.866L0.914,16.559C0.832,16.303 0.708,16.047 0.626,15.689C0.544,15.433 0.461,15.126 0.379,14.819C0.091,13.59 -0.073,12.464 -0.073,11.389C-0.073,4.735 4.286,-0.691 9.631,-0.691C12.591,-0.691 15.387,0.998 17.197,3.865C19.006,0.998 21.802,-0.691 24.763,-0.691C30.108,-0.691 34.466,4.735 34.466,11.389C34.466,12.567 34.261,13.642 34.014,14.768C33.973,15.126 33.85,15.433 33.767,15.74L33.726,15.843C33.685,15.945 33.644,16.047 33.603,16.15C33.562,16.252 33.521,16.406 33.439,16.559L33.439,16.61L33.356,16.866C32.904,17.941 32.411,18.812 31.876,19.579C28.175,25.363 18.841,34.782 17.197,34.782ZM2.929,15.843C3.299,16.662 3.669,17.327 4.039,17.839L4.08,17.941C7.863,23.828 15.552,31.096 17.197,32.12C18.841,31.045 26.531,23.828 30.272,17.89L30.314,17.788C30.725,17.276 31.095,16.61 31.424,15.791L31.424,15.689L31.588,15.382C31.629,15.28 31.67,15.177 31.712,15.024C31.753,14.921 31.794,14.768 31.835,14.614C31.876,14.409 31.958,14.256 31.958,14.102L31.958,14.051C32.164,13.079 32.328,12.208 32.328,11.287C32.328,6.015 28.915,1.766 24.68,1.766C21.884,1.766 19.376,3.609 18.019,6.68L17.197,8.83L16.292,6.834C14.935,3.762 12.427,1.92 9.631,1.92C5.396,1.868 1.983,6.117 1.983,11.389C1.983,12.208 2.106,13.13 2.353,14.051L2.394,14.205C2.435,14.358 2.476,14.563 2.559,14.768L2.6,14.819C2.641,15.024 2.723,15.228 2.846,15.433L3.011,15.74L3.011,15.843L2.929,15.843Z" fill="#FFC6BA"/>
</svg>
