<svg width="10" height="10" viewBox="0 0 10 10" fill="none" xmlns="http://www.w3.org/2000/svg" xmlns:xlink="http://www.w3.org/1999/xlink">
<path d="M9.196,6.3C9.738,5.455 9.955,4.474 9.811,3.508C9.668,2.542 9.172,1.646 8.401,0.958C7.63,0.27 6.627,-0.172 5.547,-0.298C4.467,-0.424 3.371,-0.228 2.429,0.26C1.486,0.748 0.75,1.5 0.334,2.401C-0.082,3.301 -0.154,4.299 0.128,5.24C0.41,6.181 1.032,7.012 1.896,7.605C2.76,8.198 3.818,8.519 4.907,8.519C5.788,8.518 6.652,8.306 7.409,7.904L9.574,8.347L9.196,6.3Z" fill="#FFFFFF"/>
</svg>
