<svg width="12" height="12" viewBox="0 0 12 12" fill="none" xmlns="http://www.w3.org/2000/svg" xmlns:xlink="http://www.w3.org/1999/xlink">
<path d="M5.095,-0.188C5.789,-0.188 6.366,-0.077 6.824,0.146C7.296,0.368 7.671,0.625 7.949,0.917C8.227,1.208 8.428,1.458 8.553,1.667L8.678,1.667L8.678,0.021L11.053,0.021L11.053,11.062L8.678,11.062L8.678,9.417L8.553,9.417C8.428,9.625 8.227,9.875 7.949,10.167C7.671,10.458 7.296,10.715 6.824,10.937C6.366,11.16 5.789,11.271 5.095,11.271C4.261,11.271 3.532,11.111 2.907,10.792C2.296,10.458 1.782,10.021 1.366,9.479C0.949,8.923 0.636,8.305 0.428,7.625C0.234,6.944 0.136,6.25 0.136,5.542C0.136,4.833 0.234,4.139 0.428,3.458C0.636,2.778 0.949,2.167 1.366,1.625C1.782,1.069 2.296,0.632 2.907,0.312C3.532,-0.021 4.261,-0.188 5.095,-0.188ZM5.616,1.792C4.935,1.792 4.366,1.979 3.907,2.354C3.449,2.715 3.102,3.18 2.866,3.75C2.643,4.319 2.532,4.917 2.532,5.542C2.532,6.167 2.643,6.764 2.866,7.333C3.102,7.903 3.449,8.375 3.907,8.75C4.366,9.111 4.935,9.292 5.616,9.292C6.296,9.292 6.859,9.111 7.303,8.75C7.761,8.375 8.102,7.903 8.324,7.333C8.56,6.764 8.678,6.167 8.678,5.542C8.678,4.917 8.56,4.319 8.324,3.75C8.102,3.18 7.761,2.715 7.303,2.354C6.859,1.979 6.296,1.792 5.616,1.792Z" fill="#0A2533"/>
</svg>
