<svg width="12" height="12" viewBox="0 0 12 12" fill="none" xmlns="http://www.w3.org/2000/svg" xmlns:xlink="http://www.w3.org/1999/xlink">
<path d="M4.529,0.167C5.223,0.167 5.8,0.278 6.258,0.5C6.73,0.722 7.105,0.979 7.383,1.271C7.661,1.562 7.862,1.812 7.987,2.021L8.112,2.021L8.112,0.375L10.487,0.375L10.487,11.417L8.112,11.417L8.112,9.771L7.987,9.771C7.862,9.979 7.661,10.229 7.383,10.521C7.105,10.812 6.73,11.069 6.258,11.292C5.8,11.514 5.223,11.625 4.529,11.625C3.696,11.625 2.966,11.465 2.341,11.146C1.73,10.812 1.216,10.375 0.8,9.833C0.383,9.278 0.071,8.66 -0.138,7.979C-0.332,7.298 -0.429,6.604 -0.429,5.896C-0.429,5.187 -0.332,4.493 -0.138,3.812C0.071,3.132 0.383,2.521 0.8,1.979C1.216,1.423 1.73,0.986 2.341,0.667C2.966,0.333 3.696,0.167 4.529,0.167ZM5.05,2.146C4.369,2.146 3.8,2.333 3.341,2.708C2.883,3.069 2.536,3.535 2.3,4.104C2.077,4.673 1.966,5.271 1.966,5.896C1.966,6.521 2.077,7.118 2.3,7.687C2.536,8.257 2.883,8.729 3.341,9.104C3.8,9.465 4.369,9.646 5.05,9.646C5.73,9.646 6.293,9.465 6.737,9.104C7.196,8.729 7.536,8.257 7.758,7.687C7.994,7.118 8.112,6.521 8.112,5.896C8.112,5.271 7.994,4.673 7.758,4.104C7.536,3.535 7.196,3.069 6.737,2.708C6.293,2.333 5.73,2.146 5.05,2.146Z" fill="#0A2533"/>
</svg>
