<svg width="16" height="14" viewBox="0 0 16 14" fill="none" xmlns="http://www.w3.org/2000/svg" xmlns:xlink="http://www.w3.org/1999/xlink">
<path d="M-0.372,12.083L-0.372,1.042L1.607,1.042L1.607,2.646L1.69,2.646C1.802,2.437 1.975,2.194 2.211,1.917C2.447,1.625 2.767,1.375 3.17,1.167C3.586,0.944 4.107,0.833 4.732,0.833C5.552,0.833 6.239,1.035 6.795,1.437C7.364,1.826 7.788,2.354 8.065,3.021L8.086,3.021C8.392,2.41 8.822,1.896 9.378,1.479C9.947,1.049 10.683,0.833 11.586,0.833C12.781,0.833 13.697,1.243 14.336,2.062C14.989,2.868 15.315,3.91 15.315,5.187L15.315,12.083L13.336,12.083L13.336,5.292C13.336,4.472 13.142,3.812 12.753,3.312C12.364,2.799 11.802,2.542 11.065,2.542C10.427,2.542 9.913,2.715 9.524,3.062C9.149,3.41 8.878,3.84 8.711,4.354C8.545,4.868 8.461,5.382 8.461,5.896L8.461,12.083L6.482,12.083L6.482,5.292C6.482,4.472 6.288,3.812 5.899,3.312C5.524,2.799 4.961,2.542 4.211,2.542C3.572,2.542 3.058,2.715 2.67,3.062C2.295,3.41 2.024,3.847 1.857,4.375C1.69,4.889 1.607,5.396 1.607,5.896L1.607,12.083L-0.372,12.083Z" fill="#48525F"/>
</svg>
