<svg width="12" height="14" viewBox="0 0 12 14" fill="none" xmlns="http://www.w3.org/2000/svg" xmlns:xlink="http://www.w3.org/1999/xlink">
<path d="M4.794,12.292C3.613,12.292 2.62,12.021 1.815,11.479C1.009,10.924 0.398,10.208 -0.019,9.333C-0.435,8.458 -0.644,7.535 -0.644,6.562C-0.644,5.576 -0.435,4.653 -0.019,3.792C0.398,2.917 1.009,2.208 1.815,1.667C2.62,1.111 3.613,0.833 4.794,0.833C5.975,0.833 6.968,1.111 7.773,1.667C8.579,2.208 9.19,2.917 9.606,3.792C10.023,4.653 10.231,5.576 10.231,6.562C10.231,7.535 10.023,8.458 9.606,9.333C9.19,10.208 8.579,10.924 7.773,11.479C6.968,12.021 5.975,12.292 4.794,12.292ZM4.794,10.562C5.544,10.562 6.169,10.375 6.669,10C7.183,9.611 7.565,9.111 7.815,8.5C8.079,7.889 8.211,7.243 8.211,6.562C8.211,5.868 8.079,5.222 7.815,4.625C7.565,4.014 7.183,3.521 6.669,3.146C6.169,2.757 5.544,2.562 4.794,2.562C4.058,2.562 3.433,2.757 2.919,3.146C2.405,3.521 2.016,4.014 1.752,4.625C1.502,5.222 1.377,5.868 1.377,6.562C1.377,7.243 1.502,7.889 1.752,8.5C2.016,9.111 2.405,9.611 2.919,10C3.433,10.375 4.058,10.562 4.794,10.562Z" fill="#48525F"/>
</svg>
