<svg width="4" height="6" viewBox="0 0 4 6" fill="none" xmlns="http://www.w3.org/2000/svg" xmlns:xlink="http://www.w3.org/1999/xlink">
<path d="M3.797,2.219C3.802,2.631 3.669,3.035 3.415,3.38C3.161,3.725 2.798,3.996 2.371,4.157C1.944,4.319 1.472,4.364 1.017,4.287C0.561,4.21 0.141,4.015 -0.19,3.726C-0.521,3.437 -0.748,3.067 -0.842,2.663C-0.936,2.26 -0.894,1.84 -0.72,1.458C-0.545,1.076 -0.247,0.748 0.137,0.517C0.52,0.285 0.973,0.16 1.437,0.157C2.057,0.153 2.654,0.368 3.096,0.755C3.539,1.141 3.791,1.668 3.797,2.219L3.797,2.219Z" fill="#F05161"/>
</svg>
