<svg width="10" height="14" viewBox="0 0 10 14" fill="none" xmlns="http://www.w3.org/2000/svg" xmlns:xlink="http://www.w3.org/1999/xlink">
<path d="M4.587,12.292C3.684,12.292 2.9,12.132 2.233,11.812C1.58,11.479 1.038,11.035 0.608,10.479C0.191,9.924 -0.121,9.312 -0.33,8.646C-0.538,7.965 -0.642,7.271 -0.642,6.562C-0.642,5.868 -0.545,5.18 -0.35,4.5C-0.142,3.819 0.17,3.201 0.587,2.646C1.018,2.09 1.552,1.653 2.191,1.333C2.844,1 3.615,0.833 4.504,0.833C5.448,0.833 6.282,1.049 7.004,1.479C7.726,1.91 8.295,2.549 8.712,3.396C9.129,4.243 9.337,5.305 9.337,6.583L9.337,7.167L1.358,7.167C1.4,7.792 1.545,8.368 1.795,8.896C2.059,9.41 2.427,9.826 2.9,10.146C3.372,10.451 3.934,10.604 4.587,10.604C5.157,10.604 5.615,10.514 5.962,10.333C6.323,10.139 6.608,9.917 6.816,9.667C7.025,9.417 7.163,9.201 7.233,9.021C7.316,8.826 7.358,8.729 7.358,8.729L9.212,8.729C9.212,8.729 9.177,8.854 9.108,9.104C9.038,9.34 8.913,9.632 8.733,9.979C8.552,10.326 8.288,10.68 7.941,11.042C7.594,11.389 7.15,11.687 6.608,11.937C6.066,12.174 5.393,12.292 4.587,12.292ZM1.379,5.625L7.4,5.625C7.372,4.903 7.219,4.319 6.941,3.875C6.663,3.417 6.309,3.076 5.879,2.854C5.448,2.632 4.99,2.521 4.504,2.521C3.629,2.521 2.913,2.805 2.358,3.375C1.802,3.93 1.476,4.68 1.379,5.625Z" fill="#48525F"/>
</svg>
