<svg width="12" height="18" viewBox="0 0 12 18" fill="none" xmlns="http://www.w3.org/2000/svg" xmlns:xlink="http://www.w3.org/1999/xlink">
<path d="M0.895,16.167L0.895,1.042L2.874,1.042L2.874,2.792L2.999,2.792C3.165,2.528 3.388,2.243 3.665,1.937C3.957,1.632 4.339,1.375 4.811,1.167C5.283,0.944 5.867,0.833 6.561,0.833C7.395,0.833 8.124,1 8.749,1.333C9.374,1.653 9.895,2.09 10.311,2.646C10.728,3.187 11.04,3.799 11.249,4.479C11.457,5.16 11.561,5.854 11.561,6.562C11.561,7.271 11.457,7.965 11.249,8.646C11.04,9.326 10.728,9.944 10.311,10.5C9.895,11.042 9.374,11.479 8.749,11.812C8.124,12.132 7.395,12.292 6.561,12.292C5.867,12.292 5.283,12.18 4.811,11.958C4.339,11.736 3.957,11.472 3.665,11.167C3.388,10.861 3.165,10.583 2.999,10.333L2.874,10.333L2.874,16.167L0.895,16.167ZM2.915,6.562C2.915,7.229 3.033,7.875 3.27,8.5C3.52,9.111 3.888,9.618 4.374,10.021C4.874,10.41 5.492,10.604 6.228,10.604C6.978,10.604 7.596,10.41 8.082,10.021C8.582,9.618 8.95,9.111 9.186,8.5C9.436,7.875 9.561,7.229 9.561,6.562C9.561,5.882 9.436,5.236 9.186,4.625C8.95,4.014 8.582,3.514 8.082,3.125C7.596,2.722 6.978,2.521 6.228,2.521C5.492,2.521 4.874,2.722 4.374,3.125C3.888,3.514 3.52,4.014 3.27,4.625C3.033,5.236 2.915,5.882 2.915,6.562Z" fill="#48525F"/>
</svg>
