<svg width="12" height="16" viewBox="0 0 12 16" fill="none" xmlns="http://www.w3.org/2000/svg" xmlns:xlink="http://www.w3.org/1999/xlink">
<path d="M5.697,15.041C4.711,15.041 3.849,14.854 3.113,14.479C2.391,14.104 1.794,13.59 1.322,12.937C0.849,12.271 0.495,11.514 0.259,10.666C0.037,9.819 -0.074,8.93 -0.074,8C-0.074,7.236 0.009,6.444 0.176,5.625C0.342,4.805 0.599,4.014 0.947,3.25C1.308,2.486 1.78,1.805 2.363,1.208C2.961,0.597 3.676,0.111 4.509,-0.25C5.356,-0.611 6.342,-0.792 7.467,-0.792C7.912,-0.792 8.315,-0.764 8.676,-0.709C9.051,-0.667 9.349,-0.618 9.572,-0.563C9.794,-0.507 9.905,-0.479 9.905,-0.479L9.905,1.396C9.905,1.396 9.78,1.368 9.53,1.312C9.28,1.257 8.961,1.208 8.572,1.166C8.197,1.111 7.815,1.083 7.426,1.083C6.579,1.083 5.849,1.215 5.238,1.479C4.641,1.729 4.134,2.069 3.717,2.5C3.315,2.916 2.988,3.375 2.738,3.875C2.502,4.361 2.329,4.847 2.217,5.333C2.106,5.805 2.044,6.215 2.03,6.562C2.127,6.396 2.322,6.166 2.613,5.875C2.905,5.583 3.315,5.319 3.842,5.083C4.37,4.847 5.044,4.729 5.863,4.729C7.002,4.729 7.947,4.979 8.697,5.479C9.447,5.965 10.009,6.597 10.384,7.375C10.773,8.153 10.967,8.972 10.967,9.833C10.967,10.694 10.773,11.528 10.384,12.333C9.995,13.125 9.412,13.778 8.634,14.291C7.856,14.791 6.877,15.041 5.697,15.041ZM5.655,13.291C6.211,13.291 6.738,13.166 7.238,12.916C7.752,12.666 8.169,12.291 8.488,11.791C8.822,11.278 8.988,10.646 8.988,9.896C8.988,9.132 8.822,8.5 8.488,8C8.169,7.486 7.752,7.104 7.238,6.854C6.738,6.604 6.211,6.479 5.655,6.479C5.099,6.479 4.565,6.604 4.051,6.854C3.551,7.104 3.134,7.486 2.801,8C2.481,8.5 2.322,9.132 2.322,9.896C2.322,10.646 2.481,11.278 2.801,11.791C3.134,12.291 3.551,12.666 4.051,12.916C4.565,13.166 5.099,13.291 5.655,13.291Z" fill="#48525F"/>
</svg>
