<svg width="12" height="16" viewBox="0 0 12 16" fill="none" xmlns="http://www.w3.org/2000/svg" xmlns:xlink="http://www.w3.org/1999/xlink">
<path d="M0.695,15.187L0.695,13.75L4.07,10.625C5.014,9.75 5.841,8.986 6.549,8.333C7.271,7.666 7.834,7.021 8.237,6.396C8.639,5.771 8.841,5.083 8.841,4.333C8.841,3.708 8.688,3.18 8.382,2.75C8.091,2.319 7.709,1.993 7.237,1.771C6.778,1.534 6.299,1.416 5.799,1.416C5.146,1.416 4.612,1.528 4.195,1.75C3.778,1.972 3.459,2.25 3.237,2.583C3.014,2.903 2.855,3.229 2.757,3.562C2.66,3.882 2.605,4.153 2.591,4.375C2.577,4.597 2.57,4.708 2.57,4.708L0.612,4.708C0.612,4.708 0.619,4.583 0.632,4.333C0.646,4.083 0.695,3.764 0.778,3.375C0.875,2.986 1.028,2.576 1.237,2.146C1.445,1.701 1.737,1.284 2.112,0.896C2.5,0.507 2.994,0.187 3.591,-0.063C4.202,-0.313 4.945,-0.438 5.82,-0.438C6.709,-0.438 7.535,-0.25 8.299,0.125C9.077,0.486 9.702,1.021 10.174,1.729C10.646,2.423 10.882,3.278 10.882,4.291C10.882,5.222 10.646,6.069 10.174,6.833C9.716,7.583 9.105,8.319 8.341,9.041C7.577,9.764 6.744,10.541 5.841,11.375L3.716,13.333L11.216,13.333L11.216,15.187L0.695,15.187Z" fill="#48525F"/>
</svg>
