<svg width="12" height="18" viewBox="0 0 12 18" fill="none" xmlns="http://www.w3.org/2000/svg" xmlns:xlink="http://www.w3.org/1999/xlink">
<path d="M6.351,16.104C5.434,16.104 4.67,15.979 4.059,15.729C3.448,15.493 2.955,15.187 2.58,14.812C2.219,14.451 1.948,14.09 1.768,13.729C1.587,13.368 1.469,13.062 1.413,12.812C1.358,12.576 1.33,12.458 1.33,12.458L3.309,12.458C3.309,12.458 3.344,12.555 3.413,12.75C3.483,12.944 3.615,13.167 3.809,13.417C4.018,13.667 4.323,13.889 4.726,14.083C5.129,14.278 5.67,14.375 6.351,14.375C7.156,14.375 7.788,14.215 8.247,13.896C8.705,13.59 9.031,13.187 9.226,12.687C9.434,12.187 9.538,11.66 9.538,11.104L9.538,9.833L9.434,9.833C9.295,10.069 9.073,10.34 8.768,10.646C8.476,10.937 8.087,11.194 7.601,11.417C7.115,11.625 6.518,11.729 5.809,11.729C4.976,11.729 4.247,11.569 3.622,11.25C2.997,10.93 2.476,10.5 2.059,9.958C1.656,9.417 1.351,8.812 1.143,8.146C0.934,7.479 0.83,6.798 0.83,6.104C0.83,5.41 0.934,4.729 1.143,4.062C1.351,3.396 1.656,2.792 2.059,2.25C2.476,1.708 2.997,1.278 3.622,0.958C4.247,0.639 4.976,0.479 5.809,0.479C6.518,0.479 7.115,0.59 7.601,0.812C8.087,1.021 8.476,1.271 8.768,1.562C9.073,1.854 9.295,2.125 9.434,2.375L9.538,2.375L9.538,0.687L11.518,0.687L11.518,11.083C11.518,12.625 11.066,13.847 10.163,14.75C9.275,15.653 8.004,16.104 6.351,16.104ZM6.184,10.042C6.92,10.042 7.531,9.854 8.018,9.479C8.518,9.09 8.886,8.597 9.122,8C9.372,7.403 9.497,6.771 9.497,6.104C9.497,5.437 9.372,4.805 9.122,4.208C8.886,3.597 8.518,3.104 8.018,2.729C7.531,2.354 6.92,2.167 6.184,2.167C5.448,2.167 4.83,2.354 4.33,2.729C3.83,3.104 3.455,3.597 3.205,4.208C2.969,4.805 2.851,5.437 2.851,6.104C2.851,6.771 2.969,7.403 3.205,8C3.455,8.597 3.83,9.09 4.33,9.479C4.83,9.854 5.448,10.042 6.184,10.042Z" fill="#48525F"/>
</svg>
