<svg width="10" height="16" viewBox="0 0 10 16" fill="none" xmlns="http://www.w3.org/2000/svg" xmlns:xlink="http://www.w3.org/1999/xlink">
<path d="M-0.7,14.833L-0.7,13.396L2.675,10.271C3.62,9.396 4.446,8.632 5.154,7.979C5.877,7.312 6.439,6.666 6.842,6.041C7.245,5.416 7.446,4.729 7.446,3.979C7.446,3.354 7.293,2.826 6.988,2.396C6.696,1.965 6.314,1.639 5.842,1.416C5.383,1.18 4.904,1.062 4.404,1.062C3.752,1.062 3.217,1.173 2.8,1.396C2.383,1.618 2.064,1.896 1.842,2.229C1.62,2.548 1.46,2.875 1.363,3.208C1.265,3.528 1.21,3.798 1.196,4.021C1.182,4.243 1.175,4.354 1.175,4.354L-0.783,4.354C-0.783,4.354 -0.776,4.229 -0.762,3.979C-0.748,3.729 -0.7,3.41 -0.617,3.021C-0.519,2.632 -0.367,2.222 -0.158,1.791C0.05,1.347 0.342,0.93 0.717,0.541C1.106,0.153 1.599,-0.167 2.196,-0.417C2.807,-0.667 3.55,-0.792 4.425,-0.792C5.314,-0.792 6.14,-0.604 6.904,-0.229C7.682,0.132 8.307,0.666 8.779,1.375C9.252,2.069 9.488,2.923 9.488,3.937C9.488,4.868 9.252,5.715 8.779,6.479C8.321,7.229 7.71,7.965 6.946,8.687C6.182,9.41 5.349,10.187 4.446,11.021L2.321,12.979L9.821,12.979L9.821,14.833L-0.7,14.833Z" fill="#48525F"/>
</svg>
