<svg width="4" height="16" viewBox="0 0 4 16" fill="none" xmlns="http://www.w3.org/2000/svg" xmlns:xlink="http://www.w3.org/1999/xlink">
<path d="M1.273,11.729L1.19,0.312L3.169,0.312L3.044,11.729L1.273,11.729ZM2.19,15.917C1.815,15.917 1.503,15.792 1.253,15.542C1.016,15.292 0.898,14.993 0.898,14.646C0.898,14.285 1.016,13.979 1.253,13.729C1.503,13.479 1.815,13.354 2.19,13.354C2.551,13.354 2.857,13.479 3.107,13.729C3.357,13.979 3.482,14.285 3.482,14.646C3.482,14.993 3.357,15.292 3.107,15.542C2.857,15.792 2.551,15.917 2.19,15.917Z" fill="#48525F"/>
</svg>
