<svg width="12" height="12" viewBox="0 0 12 12" fill="none" xmlns="http://www.w3.org/2000/svg" xmlns:xlink="http://www.w3.org/1999/xlink">
<path d="M5.782,11.937C4.88,11.937 4.095,11.778 3.428,11.458C2.775,11.125 2.234,10.68 1.803,10.125C1.387,9.569 1.074,8.958 0.866,8.292C0.657,7.611 0.553,6.917 0.553,6.208C0.553,5.514 0.65,4.826 0.845,4.146C1.053,3.465 1.366,2.847 1.782,2.292C2.213,1.736 2.748,1.298 3.387,0.979C4.039,0.646 4.81,0.479 5.699,0.479C6.644,0.479 7.477,0.694 8.199,1.125C8.921,1.555 9.491,2.194 9.907,3.042C10.324,3.889 10.532,4.951 10.532,6.229L10.532,6.812L2.553,6.812C2.595,7.437 2.741,8.014 2.991,8.542C3.255,9.055 3.623,9.472 4.095,9.792C4.567,10.097 5.13,10.25 5.782,10.25C6.352,10.25 6.81,10.16 7.157,9.979C7.519,9.785 7.803,9.562 8.012,9.312C8.22,9.062 8.359,8.847 8.428,8.667C8.512,8.472 8.553,8.375 8.553,8.375L10.407,8.375C10.407,8.375 10.373,8.5 10.303,8.75C10.234,8.986 10.109,9.278 9.928,9.625C9.748,9.972 9.484,10.326 9.137,10.687C8.789,11.035 8.345,11.333 7.803,11.583C7.262,11.819 6.588,11.937 5.782,11.937ZM2.574,5.271L8.595,5.271C8.567,4.548 8.414,3.965 8.137,3.521C7.859,3.062 7.505,2.722 7.074,2.5C6.644,2.278 6.185,2.167 5.699,2.167C4.824,2.167 4.109,2.451 3.553,3.021C2.998,3.576 2.671,4.326 2.574,5.271Z" fill="#48525F"/>
</svg>
