<svg width="12" height="16" viewBox="0 0 12 16" fill="none" xmlns="http://www.w3.org/2000/svg" xmlns:xlink="http://www.w3.org/1999/xlink">
<path d="M4.967,15.396C3.884,15.396 2.94,15.201 2.134,14.812C1.342,14.409 0.724,13.875 0.28,13.208C-0.164,12.528 -0.387,11.764 -0.387,10.916C-0.387,10.166 -0.255,9.548 0.009,9.062C0.273,8.562 0.579,8.166 0.926,7.875C1.287,7.569 1.599,7.354 1.863,7.229C2.127,7.104 2.259,7.041 2.259,7.041L2.259,6.937C2.259,6.937 2.148,6.889 1.926,6.791C1.704,6.68 1.44,6.5 1.134,6.25C0.842,6 0.586,5.666 0.363,5.25C0.141,4.833 0.03,4.319 0.03,3.708C0.03,2.916 0.231,2.208 0.634,1.583C1.037,0.958 1.606,0.465 2.342,0.104C3.092,-0.257 3.967,-0.438 4.967,-0.438C5.967,-0.438 6.836,-0.257 7.572,0.104C8.322,0.465 8.898,0.958 9.301,1.583C9.704,2.208 9.905,2.916 9.905,3.708C9.905,4.319 9.794,4.833 9.572,5.25C9.349,5.666 9.086,6 8.78,6.25C8.488,6.5 8.231,6.68 8.009,6.791C7.787,6.889 7.676,6.937 7.676,6.937L7.676,7.041C7.676,7.041 7.808,7.104 8.072,7.229C8.336,7.354 8.641,7.569 8.988,7.875C9.349,8.166 9.662,8.562 9.926,9.062C10.19,9.548 10.322,10.166 10.322,10.916C10.322,11.764 10.099,12.528 9.655,13.208C9.211,13.875 8.586,14.409 7.78,14.812C6.988,15.201 6.051,15.396 4.967,15.396ZM4.967,6.25C5.634,6.25 6.19,6.125 6.634,5.875C7.079,5.625 7.412,5.305 7.634,4.916C7.856,4.528 7.967,4.132 7.967,3.729C7.967,3.298 7.856,2.889 7.634,2.5C7.412,2.111 7.079,1.798 6.634,1.562C6.19,1.312 5.634,1.187 4.967,1.187C4.315,1.187 3.759,1.312 3.301,1.562C2.856,1.798 2.523,2.111 2.301,2.5C2.079,2.889 1.967,3.298 1.967,3.729C1.967,4.132 2.079,4.528 2.301,4.916C2.523,5.305 2.856,5.625 3.301,5.875C3.759,6.125 4.315,6.25 4.967,6.25ZM4.967,13.75C5.717,13.75 6.342,13.604 6.842,13.312C7.356,13.021 7.738,12.646 7.988,12.187C8.252,11.715 8.384,11.229 8.384,10.729C8.384,10.243 8.259,9.784 8.009,9.354C7.759,8.909 7.377,8.548 6.863,8.271C6.363,7.979 5.731,7.833 4.967,7.833C4.204,7.833 3.565,7.979 3.051,8.271C2.551,8.548 2.176,8.909 1.926,9.354C1.676,9.784 1.551,10.243 1.551,10.729C1.551,11.229 1.676,11.715 1.926,12.187C2.19,12.646 2.572,13.021 3.072,13.312C3.586,13.604 4.217,13.75 4.967,13.75Z" fill="#48525F"/>
</svg>
