<svg width="54" height="58" viewBox="0 0 54 58" fill="none" xmlns="http://www.w3.org/2000/svg" xmlns:xlink="http://www.w3.org/1999/xlink">
<path d="M51.586,53.726L38.745,40.042C42.19,35.822 44.275,30.317 44.275,24.299C44.275,11.053 34.165,0.291 21.746,0.291C9.315,0.291 -0.784,11.065 -0.784,24.299C-0.784,37.533 9.327,48.307 21.746,48.307C27.393,48.307 32.56,46.085 36.519,42.414L49.36,56.098C49.665,56.422 50.075,56.597 50.473,56.597C50.871,56.597 51.281,56.435 51.586,56.098C52.195,55.449 52.195,54.375 51.586,53.726ZM2.368,24.299C2.368,12.913 11.061,3.662 21.734,3.662C32.419,3.662 41.1,12.925 41.1,24.299C41.1,35.673 32.419,44.949 21.734,44.949C11.061,44.949 2.368,35.685 2.368,24.299Z" fill="#5E5959"/>
</svg>
