<svg width="12" height="16" viewBox="0 0 12 16" fill="none" xmlns="http://www.w3.org/2000/svg" xmlns:xlink="http://www.w3.org/1999/xlink">
<path d="M0.568,15.792C0.248,15.792 -0.023,15.778 -0.245,15.75C-0.467,15.722 -0.578,15.708 -0.578,15.708L-0.578,14.021C-0.578,14.021 -0.467,14.028 -0.245,14.042C-0.009,14.069 0.241,14.083 0.505,14.083C1.325,14.083 1.991,13.91 2.505,13.562C3.033,13.229 3.477,12.673 3.839,11.896L-0.432,0.687L1.63,0.687L4.818,9.312L8.026,0.687L10.109,0.687L5.839,11.75C5.297,13.139 4.595,14.16 3.734,14.812C2.887,15.465 1.832,15.792 0.568,15.792Z" fill="#48525F"/>
</svg>
