<svg width="10" height="12" viewBox="0 0 10 12" fill="none" xmlns="http://www.w3.org/2000/svg" xmlns:xlink="http://www.w3.org/1999/xlink">
<path d="M4.29,11.937C3.193,11.937 2.318,11.597 1.665,10.917C1.012,10.236 0.686,9.292 0.686,8.083L0.686,0.687L2.665,0.687L2.665,7.979C2.665,8.701 2.86,9.257 3.249,9.646C3.651,10.035 4.179,10.229 4.832,10.229C5.499,10.229 6.033,10.055 6.436,9.708C6.839,9.361 7.13,8.917 7.311,8.375C7.492,7.833 7.582,7.278 7.582,6.708L7.582,0.687L9.561,0.687L9.561,11.729L7.582,11.729L7.582,10.146L7.457,10.146C7.374,10.312 7.214,10.542 6.978,10.833C6.742,11.111 6.408,11.368 5.978,11.604C5.547,11.826 4.985,11.937 4.29,11.937Z" fill="#48525F"/>
</svg>
