<svg width="10" height="12" viewBox="0 0 10 12" fill="none" xmlns="http://www.w3.org/2000/svg" xmlns:xlink="http://www.w3.org/1999/xlink">
<path d="M-0.121,11.062L-0.121,0.021L2.254,0.021L2.254,1.625L2.379,1.625C2.476,1.43 2.643,1.194 2.879,0.917C3.115,0.625 3.442,0.368 3.858,0.146C4.289,-0.077 4.831,-0.188 5.483,-0.188C6.303,-0.188 6.99,0 7.546,0.375C8.101,0.75 8.518,1.25 8.796,1.875C9.087,2.5 9.233,3.187 9.233,3.937L9.233,11.062L6.858,11.062L6.858,4.187C6.858,3.521 6.671,2.958 6.296,2.5C5.935,2.042 5.393,1.812 4.671,1.812C4.101,1.812 3.636,1.958 3.275,2.25C2.928,2.528 2.671,2.896 2.504,3.354C2.337,3.798 2.254,4.278 2.254,4.792L2.254,11.062L-0.121,11.062Z" fill="#0A2533"/>
</svg>
