<svg width="10" height="12" viewBox="0 0 10 12" fill="none" xmlns="http://www.w3.org/2000/svg" xmlns:xlink="http://www.w3.org/1999/xlink">
<path d="M0.163,11.729L0.163,0.687L2.142,0.687L2.142,2.292L2.267,2.292C2.364,2.125 2.524,1.896 2.746,1.604C2.983,1.312 3.316,1.055 3.746,0.833C4.177,0.597 4.719,0.479 5.371,0.479C6.177,0.479 6.864,0.667 7.434,1.042C8.003,1.403 8.434,1.896 8.726,2.521C9.031,3.146 9.184,3.847 9.184,4.625L9.184,11.729L7.205,11.729L7.205,4.75C7.205,4.014 6.996,3.403 6.58,2.917C6.177,2.43 5.587,2.187 4.809,2.187C4.184,2.187 3.677,2.347 3.288,2.667C2.899,2.972 2.608,3.382 2.413,3.896C2.233,4.396 2.142,4.93 2.142,5.5L2.142,11.729L0.163,11.729Z" fill="#48525F"/>
</svg>
