<svg width="32" height="28" viewBox="0 0 32 28" fill="none" xmlns="http://www.w3.org/2000/svg" xmlns:xlink="http://www.w3.org/1999/xlink">
<path d="M27.136,1.606C25.862,0.794 24.385,0.361 22.876,0.354C21.567,0.368 20.28,0.688 19.118,1.289C17.955,1.89 16.949,2.754 16.181,3.814C15.413,2.753 14.408,1.887 13.245,1.286C12.082,0.686 10.794,0.366 9.485,0.354C7.973,0.361 6.494,0.795 5.218,1.606C1.113,4.167 -0.293,9.842 2.076,14.272C4.011,17.894 12.171,24.179 15.121,26.372C15.429,26.602 15.804,26.726 16.188,26.726C16.572,26.726 16.946,26.602 17.255,26.372C20.198,24.164 28.364,17.894 30.299,14.272C32.646,9.834 31.241,4.16 27.136,1.606ZM29.056,13.625C27.585,16.333 21.574,21.412 16.409,25.261C16.338,25.313 16.253,25.341 16.166,25.342C16.081,25.341 15.998,25.313 15.93,25.261C10.78,21.412 4.732,16.333 3.283,13.625C1.252,9.82 2.444,4.962 5.932,2.783C6.991,2.115 8.218,1.758 9.471,1.753C10.564,1.762 11.64,2.029 12.61,2.533C13.581,3.037 14.418,3.763 15.055,4.653L16.166,6.125L17.284,4.653C17.92,3.764 18.756,3.038 19.725,2.534C20.694,2.03 21.769,1.762 22.861,1.753C24.114,1.757 25.341,2.114 26.4,2.783C29.895,4.955 31.087,9.812 29.056,13.617L29.056,13.625Z" transform="rotate(0 16.18 13.54)" fill="#4D4D4F"/>
</svg>
