<svg width="6" height="14" viewBox="0 0 6 14" fill="none" xmlns="http://www.w3.org/2000/svg" xmlns:xlink="http://www.w3.org/1999/xlink">
<path d="M-0.811,12.083L-0.811,1.042L1.168,1.042L1.168,2.417L1.251,2.417C1.488,2 1.835,1.632 2.293,1.312C2.751,0.993 3.397,0.833 4.231,0.833C4.467,0.833 4.682,0.847 4.876,0.875C5.071,0.889 5.168,0.896 5.168,0.896L5.168,2.792C5.168,2.792 5.057,2.785 4.835,2.771C4.626,2.743 4.404,2.729 4.168,2.729C3.21,2.729 2.467,3.007 1.939,3.562C1.425,4.104 1.168,4.993 1.168,6.229L1.168,12.083L-0.811,12.083Z" fill="#48525F"/>
</svg>
