<svg width="6" height="14" viewBox="0 0 6 14" fill="none" xmlns="http://www.w3.org/2000/svg" xmlns:xlink="http://www.w3.org/1999/xlink">
<path d="M-0.003,12.083L-0.003,1.042L1.976,1.042L1.976,2.417L2.06,2.417C2.296,2 2.643,1.632 3.101,1.312C3.56,0.993 4.205,0.833 5.039,0.833C5.275,0.833 5.49,0.847 5.685,0.875C5.879,0.889 5.976,0.896 5.976,0.896L5.976,2.792C5.976,2.792 5.865,2.785 5.643,2.771C5.435,2.743 5.212,2.729 4.976,2.729C4.018,2.729 3.275,3.007 2.747,3.562C2.233,4.104 1.976,4.993 1.976,6.229L1.976,12.083L-0.003,12.083Z" fill="#48525F"/>
</svg>
