<svg width="12" height="14" viewBox="0 0 12 14" fill="none" xmlns="http://www.w3.org/2000/svg" xmlns:xlink="http://www.w3.org/1999/xlink">
<path d="M5.422,0.833C6.116,0.833 6.7,0.944 7.172,1.167C7.644,1.389 8.026,1.653 8.318,1.958C8.609,2.25 8.832,2.528 8.984,2.792L9.109,2.792L9.109,1.042L11.089,1.042L11.089,12.083L9.109,12.083L9.109,10.333L8.984,10.333C8.832,10.597 8.609,10.882 8.318,11.187C8.026,11.493 7.644,11.757 7.172,11.979C6.7,12.187 6.116,12.292 5.422,12.292C4.589,12.292 3.859,12.132 3.234,11.812C2.609,11.479 2.089,11.042 1.672,10.5C1.255,9.944 0.943,9.326 0.734,8.646C0.526,7.965 0.422,7.271 0.422,6.562C0.422,5.854 0.526,5.16 0.734,4.479C0.943,3.799 1.255,3.187 1.672,2.646C2.089,2.09 2.609,1.653 3.234,1.333C3.859,1 4.589,0.833 5.422,0.833ZM5.755,2.521C5.019,2.521 4.401,2.722 3.901,3.125C3.401,3.514 3.026,4.014 2.776,4.625C2.54,5.236 2.422,5.882 2.422,6.562C2.422,7.229 2.54,7.875 2.776,8.5C3.026,9.111 3.401,9.618 3.901,10.021C4.401,10.41 5.019,10.604 5.755,10.604C6.491,10.604 7.102,10.41 7.589,10.021C8.089,9.618 8.457,9.111 8.693,8.5C8.943,7.875 9.068,7.229 9.068,6.562C9.068,5.882 8.943,5.236 8.693,4.625C8.457,4.014 8.089,3.514 7.589,3.125C7.102,2.722 6.491,2.521 5.755,2.521Z" fill="#48525F"/>
</svg>
