<svg width="28" height="30" viewBox="0 0 28 30" fill="none" xmlns="http://www.w3.org/2000/svg" xmlns:xlink="http://www.w3.org/1999/xlink">
<path d="M26.358,11.13C25.709,8.416 24.243,5.966 22.158,4.11C20.074,2.255 17.471,1.082 14.7,0.751C11.929,0.42 9.123,0.946 6.66,2.258C4.197,3.571 2.196,5.606 0.925,8.091C-0.346,10.575 -0.825,13.39 -0.447,16.155C-0.07,18.92 1.146,21.503 3.036,23.556C4.926,25.609 7.4,27.033 10.125,27.637C12.849,28.241 15.694,27.996 18.274,26.934C18.649,26.772 19.068,26.744 19.461,26.855L23.304,27.953C23.495,28.015 23.695,28.048 23.897,28.05C24.194,28.049 24.487,27.982 24.755,27.855C25.023,27.728 25.261,27.543 25.45,27.314C25.639,27.085 25.776,26.818 25.85,26.53C25.924,26.243 25.935,25.942 25.88,25.651L25.074,21.533C25.02,21.154 25.085,20.767 25.26,20.427C26.719,17.556 27.108,14.261 26.358,11.13ZM23.844,19.754C23.502,20.403 23.387,21.148 23.516,21.87L24.295,26.005C24.308,26.078 24.301,26.153 24.276,26.222C24.251,26.292 24.209,26.354 24.154,26.403C24.099,26.456 24.032,26.492 23.959,26.509C23.886,26.527 23.809,26.523 23.737,26.501L19.93,25.296C19.644,25.205 19.345,25.157 19.045,25.155C18.583,25.16 18.126,25.254 17.699,25.429C15.082,26.498 12.172,26.613 9.479,25.754C6.785,24.895 4.479,23.118 2.963,20.732C1.447,18.346 0.817,15.503 1.184,12.7C1.551,9.896 2.891,7.311 4.97,5.396C7.049,3.48 9.734,2.356 12.558,2.219C15.382,2.082 18.164,2.942 20.418,4.648C22.672,6.354 24.256,8.797 24.892,11.552C25.527,14.306 25.175,17.197 23.897,19.718L23.844,19.754Z" fill="#4D4D4F"/>
</svg>
