<svg width="10" height="12" viewBox="0 0 10 12" fill="none" xmlns="http://www.w3.org/2000/svg" xmlns:xlink="http://www.w3.org/1999/xlink">
<path d="M4.418,11.937C3.515,11.937 2.73,11.778 2.063,11.458C1.411,11.125 0.869,10.68 0.438,10.125C0.022,9.569 -0.291,8.958 -0.499,8.292C-0.707,7.611 -0.812,6.917 -0.812,6.208C-0.812,5.514 -0.714,4.826 -0.52,4.146C-0.312,3.465 0.001,2.847 0.418,2.292C0.848,1.736 1.383,1.298 2.022,0.979C2.675,0.646 3.445,0.479 4.334,0.479C5.279,0.479 6.112,0.694 6.834,1.125C7.557,1.555 8.126,2.194 8.543,3.042C8.959,3.889 9.168,4.951 9.168,6.229L9.168,6.812L1.188,6.812C1.23,7.437 1.376,8.014 1.626,8.542C1.89,9.055 2.258,9.472 2.73,9.792C3.202,10.097 3.765,10.25 4.418,10.25C4.987,10.25 5.445,10.16 5.793,9.979C6.154,9.785 6.438,9.562 6.647,9.312C6.855,9.062 6.994,8.847 7.063,8.667C7.147,8.472 7.188,8.375 7.188,8.375L9.043,8.375C9.043,8.375 9.008,8.5 8.938,8.75C8.869,8.986 8.744,9.278 8.563,9.625C8.383,9.972 8.119,10.326 7.772,10.687C7.425,11.035 6.98,11.333 6.438,11.583C5.897,11.819 5.223,11.937 4.418,11.937ZM1.209,5.271L7.23,5.271C7.202,4.548 7.05,3.965 6.772,3.521C6.494,3.062 6.14,2.722 5.709,2.5C5.279,2.278 4.82,2.167 4.334,2.167C3.459,2.167 2.744,2.451 2.188,3.021C1.633,3.576 1.307,4.326 1.209,5.271Z" fill="#48525F"/>
</svg>
