<svg width="50" height="50" viewBox="0 0 50 50" fill="none" xmlns="http://www.w3.org/2000/svg" xmlns:xlink="http://www.w3.org/1999/xlink">
<path d="M49.564,47.45L37.414,35.299C40.673,31.552 42.646,26.663 42.646,21.319C42.646,9.557 33.079,0 21.327,0C9.564,0 0.008,9.568 0.008,21.319C0.008,33.071 9.575,42.639 21.327,42.639C26.671,42.639 31.56,40.665 35.307,37.406L47.458,49.557C47.746,49.845 48.134,50 48.511,50C48.888,50 49.276,49.856 49.564,49.557C50.141,48.98 50.141,48.027 49.564,47.45ZM2.99,21.319C2.99,11.208 11.216,2.993 21.316,2.993C31.427,2.993 39.642,11.22 39.642,21.319C39.642,31.419 31.427,39.656 21.316,39.656C11.216,39.656 2.99,31.43 2.99,21.319Z" fill="#5E5959"/>
</svg>
