<svg width="10" height="12" viewBox="0 0 10 12" fill="none" xmlns="http://www.w3.org/2000/svg" xmlns:xlink="http://www.w3.org/1999/xlink">
<path d="M-0.904,11.729L-0.904,0.687L1.075,0.687L1.075,2.292L1.2,2.292C1.297,2.125 1.457,1.896 1.679,1.604C1.915,1.312 2.249,1.055 2.679,0.833C3.11,0.597 3.652,0.479 4.304,0.479C5.11,0.479 5.797,0.667 6.367,1.042C6.936,1.403 7.367,1.896 7.658,2.521C7.964,3.146 8.117,3.847 8.117,4.625L8.117,11.729L6.138,11.729L6.138,4.75C6.138,4.014 5.929,3.403 5.513,2.917C5.11,2.43 4.52,2.187 3.742,2.187C3.117,2.187 2.61,2.347 2.221,2.667C1.832,2.972 1.54,3.382 1.346,3.896C1.165,4.396 1.075,4.93 1.075,5.5L1.075,11.729L-0.904,11.729Z" fill="#48525F"/>
</svg>
