<svg width="36" height="36" viewBox="0 0 36 36" fill="none" xmlns="http://www.w3.org/2000/svg" xmlns:xlink="http://www.w3.org/1999/xlink">
<path d="M17.197,35.323C15.552,35.323 6.218,25.904 2.517,20.069C1.983,19.353 1.489,18.431 1.037,17.407L0.914,17.1C0.832,16.844 0.708,16.588 0.626,16.23C0.544,15.974 0.461,15.667 0.379,15.36C0.091,14.131 -0.073,13.005 -0.073,11.93C-0.073,5.276 4.286,-0.15 9.631,-0.15C12.591,-0.15 15.387,1.539 17.197,4.406C19.006,1.539 21.802,-0.15 24.763,-0.15C30.108,-0.15 34.466,5.276 34.466,11.93C34.466,13.108 34.261,14.183 34.014,15.309C33.973,15.667 33.85,15.974 33.767,16.281L33.726,16.384C33.685,16.486 33.644,16.588 33.603,16.691C33.562,16.793 33.521,16.947 33.439,17.1L33.439,17.151L33.356,17.407C32.904,18.482 32.411,19.353 31.876,20.12C28.175,25.904 18.841,35.323 17.197,35.323ZM2.929,16.384C3.299,17.203 3.669,17.868 4.039,18.38L4.08,18.482C7.863,24.369 15.552,31.637 17.197,32.661C18.841,31.586 26.531,24.369 30.272,18.431L30.314,18.329C30.725,17.817 31.095,17.151 31.424,16.332L31.424,16.23L31.588,15.923C31.629,15.821 31.67,15.718 31.712,15.565C31.753,15.462 31.794,15.309 31.835,15.155C31.876,14.95 31.958,14.797 31.958,14.643L31.958,14.592C32.164,13.62 32.328,12.749 32.328,11.828C32.328,6.556 28.915,2.307 24.68,2.307C21.884,2.307 19.376,4.15 18.019,7.221L17.197,9.371L16.292,7.375C14.935,4.303 12.427,2.461 9.631,2.461C5.396,2.409 1.983,6.658 1.983,11.93C1.983,12.749 2.106,13.671 2.353,14.592L2.394,14.746C2.435,14.899 2.476,15.104 2.559,15.309L2.6,15.36C2.641,15.565 2.723,15.769 2.846,15.974L3.011,16.281L3.011,16.384L2.929,16.384Z" fill="#FFC6BA"/>
</svg>
