<svg width="10" height="14" viewBox="0 0 10 14" fill="none" xmlns="http://www.w3.org/2000/svg" xmlns:xlink="http://www.w3.org/1999/xlink">
<path d="M4.418,12.292C3.515,12.292 2.73,12.132 2.063,11.812C1.411,11.479 0.869,11.035 0.438,10.479C0.022,9.924 -0.291,9.312 -0.499,8.646C-0.707,7.965 -0.812,7.271 -0.812,6.562C-0.812,5.868 -0.714,5.18 -0.52,4.5C-0.312,3.819 0.001,3.201 0.418,2.646C0.848,2.09 1.383,1.653 2.022,1.333C2.675,1 3.445,0.833 4.334,0.833C5.279,0.833 6.112,1.049 6.834,1.479C7.557,1.91 8.126,2.549 8.543,3.396C8.959,4.243 9.168,5.305 9.168,6.583L9.168,7.167L1.188,7.167C1.23,7.792 1.376,8.368 1.626,8.896C1.89,9.41 2.258,9.826 2.73,10.146C3.202,10.451 3.765,10.604 4.418,10.604C4.987,10.604 5.445,10.514 5.793,10.333C6.154,10.139 6.438,9.917 6.647,9.667C6.855,9.417 6.994,9.201 7.063,9.021C7.147,8.826 7.188,8.729 7.188,8.729L9.043,8.729C9.043,8.729 9.008,8.854 8.938,9.104C8.869,9.34 8.744,9.632 8.563,9.979C8.383,10.326 8.119,10.68 7.772,11.042C7.425,11.389 6.98,11.687 6.438,11.937C5.897,12.174 5.223,12.292 4.418,12.292ZM1.209,5.625L7.23,5.625C7.202,4.903 7.05,4.319 6.772,3.875C6.494,3.417 6.14,3.076 5.709,2.854C5.279,2.632 4.82,2.521 4.334,2.521C3.459,2.521 2.744,2.805 2.188,3.375C1.633,3.93 1.307,4.68 1.209,5.625Z" fill="#48525F"/>
</svg>
