<svg width="12" height="14" viewBox="0 0 12 14" fill="none" xmlns="http://www.w3.org/2000/svg" xmlns:xlink="http://www.w3.org/1999/xlink">
<path d="M6.196,12.292C5.015,12.292 4.022,12.021 3.217,11.479C2.411,10.924 1.8,10.208 1.383,9.333C0.967,8.458 0.758,7.535 0.758,6.562C0.758,5.576 0.967,4.653 1.383,3.792C1.8,2.917 2.411,2.208 3.217,1.667C4.022,1.111 5.015,0.833 6.196,0.833C7.376,0.833 8.369,1.111 9.175,1.667C9.981,2.208 10.592,2.917 11.008,3.792C11.425,4.653 11.633,5.576 11.633,6.562C11.633,7.535 11.425,8.458 11.008,9.333C10.592,10.208 9.981,10.924 9.175,11.479C8.369,12.021 7.376,12.292 6.196,12.292ZM6.196,10.562C6.946,10.562 7.571,10.375 8.071,10C8.585,9.611 8.967,9.111 9.217,8.5C9.481,7.889 9.612,7.243 9.612,6.562C9.612,5.868 9.481,5.222 9.217,4.625C8.967,4.014 8.585,3.521 8.071,3.146C7.571,2.757 6.946,2.562 6.196,2.562C5.46,2.562 4.835,2.757 4.321,3.146C3.807,3.521 3.418,4.014 3.154,4.625C2.904,5.222 2.779,5.868 2.779,6.562C2.779,7.243 2.904,7.889 3.154,8.5C3.418,9.111 3.807,9.611 4.321,10C4.835,10.375 5.46,10.562 6.196,10.562Z" fill="#48525F"/>
</svg>
