<svg width="36" height="38" viewBox="0 0 36 38" fill="none" xmlns="http://www.w3.org/2000/svg" xmlns:xlink="http://www.w3.org/1999/xlink">
<path d="M17.448,36.407C15.803,36.407 6.469,26.988 2.768,21.153C2.234,20.437 1.741,19.515 1.288,18.491L1.165,18.184C1.083,17.928 0.959,17.672 0.877,17.314C0.795,17.058 0.713,16.751 0.63,16.444C0.343,15.215 0.178,14.089 0.178,13.014C0.178,6.36 4.537,0.934 9.882,0.934C12.843,0.934 15.639,2.623 17.448,5.49C19.257,2.623 22.053,0.934 25.014,0.934C30.359,0.934 34.717,6.36 34.717,13.014C34.717,14.192 34.512,15.267 34.265,16.393C34.224,16.751 34.101,17.058 34.018,17.365L33.977,17.468C33.936,17.57 33.895,17.672 33.854,17.775C33.813,17.877 33.772,18.031 33.69,18.184L33.69,18.235L33.607,18.491C33.155,19.566 32.662,20.437 32.127,21.204C28.426,26.988 19.093,36.407 17.448,36.407ZM3.18,17.468C3.55,18.287 3.92,18.952 4.29,19.464L4.331,19.566C8.114,25.453 15.803,32.721 17.448,33.745C19.093,32.67 26.782,25.453 30.523,19.515L30.565,19.413C30.976,18.901 31.346,18.235 31.675,17.416L31.675,17.314L31.839,17.007C31.88,16.905 31.921,16.802 31.963,16.649C32.004,16.546 32.045,16.393 32.086,16.239C32.127,16.034 32.209,15.881 32.209,15.727L32.209,15.676C32.415,14.704 32.579,13.833 32.579,12.912C32.579,7.64 29.166,3.391 24.931,3.391C22.135,3.391 19.627,5.234 18.27,8.305L17.448,10.455L16.543,8.459C15.186,5.387 12.678,3.545 9.882,3.545C5.647,3.493 2.234,7.742 2.234,13.014C2.234,13.833 2.357,14.755 2.604,15.676L2.645,15.83C2.686,15.983 2.727,16.188 2.81,16.393L2.851,16.444C2.892,16.649 2.974,16.853 3.097,17.058L3.262,17.365L3.262,17.468L3.18,17.468Z" fill="#FFC6BA"/>
</svg>
