<svg width="12" height="16" viewBox="0 0 12 16" fill="none" xmlns="http://www.w3.org/2000/svg" xmlns:xlink="http://www.w3.org/1999/xlink">
<path d="M2.009,15.792C1.69,15.792 1.419,15.778 1.197,15.75C0.974,15.722 0.863,15.708 0.863,15.708L0.863,14.021C0.863,14.021 0.974,14.028 1.197,14.042C1.433,14.069 1.683,14.083 1.947,14.083C2.766,14.083 3.433,13.91 3.947,13.562C4.474,13.229 4.919,12.673 5.28,11.896L1.009,0.687L3.072,0.687L6.259,9.312L9.467,0.687L11.551,0.687L7.28,11.75C6.738,13.139 6.037,14.16 5.176,14.812C4.329,15.465 3.273,15.792 2.009,15.792Z" fill="#48525F"/>
</svg>
