<svg width="10" height="18" viewBox="0 0 10 18" fill="none" xmlns="http://www.w3.org/2000/svg" xmlns:xlink="http://www.w3.org/1999/xlink">
<path d="M-0.263,16.083L-0.263,0.25L1.716,0.25L1.716,6.646L1.841,6.646C1.939,6.479 2.098,6.25 2.321,5.958C2.557,5.666 2.89,5.409 3.321,5.187C3.751,4.951 4.293,4.833 4.946,4.833C5.751,4.833 6.439,5.021 7.008,5.396C7.578,5.757 8.008,6.25 8.3,6.875C8.605,7.5 8.758,8.201 8.758,8.979L8.758,16.083L6.779,16.083L6.779,9.104C6.779,8.368 6.571,7.757 6.154,7.271C5.751,6.784 5.161,6.541 4.383,6.541C3.758,6.541 3.251,6.701 2.862,7.021C2.473,7.326 2.182,7.736 1.987,8.25C1.807,8.75 1.716,9.284 1.716,9.854L1.716,16.083L-0.263,16.083Z" fill="#48525F"/>
</svg>
