<svg width="10" height="14" viewBox="0 0 10 14" fill="none" xmlns="http://www.w3.org/2000/svg" xmlns:xlink="http://www.w3.org/1999/xlink">
<path d="M5.195,12.292C4.293,12.292 3.508,12.132 2.841,11.812C2.189,11.479 1.647,11.035 1.216,10.479C0.8,9.924 0.487,9.312 0.279,8.646C0.07,7.965 -0.034,7.271 -0.034,6.562C-0.034,5.868 0.064,5.18 0.258,4.5C0.466,3.819 0.779,3.201 1.195,2.646C1.626,2.09 2.161,1.653 2.8,1.333C3.452,1 4.223,0.833 5.112,0.833C6.057,0.833 6.89,1.049 7.612,1.479C8.334,1.91 8.904,2.549 9.32,3.396C9.737,4.243 9.945,5.305 9.945,6.583L9.945,7.167L1.966,7.167C2.008,7.792 2.154,8.368 2.404,8.896C2.668,9.41 3.036,9.826 3.508,10.146C3.98,10.451 4.543,10.604 5.195,10.604C5.765,10.604 6.223,10.514 6.57,10.333C6.932,10.139 7.216,9.917 7.425,9.667C7.633,9.417 7.772,9.201 7.841,9.021C7.925,8.826 7.966,8.729 7.966,8.729L9.82,8.729C9.82,8.729 9.786,8.854 9.716,9.104C9.647,9.34 9.522,9.632 9.341,9.979C9.161,10.326 8.897,10.68 8.55,11.042C8.202,11.389 7.758,11.687 7.216,11.937C6.675,12.174 6.001,12.292 5.195,12.292ZM1.987,5.625L8.008,5.625C7.98,4.903 7.827,4.319 7.55,3.875C7.272,3.417 6.918,3.076 6.487,2.854C6.057,2.632 5.598,2.521 5.112,2.521C4.237,2.521 3.522,2.805 2.966,3.375C2.411,3.93 2.084,4.68 1.987,5.625Z" fill="#48525F"/>
</svg>
