<svg width="12" height="18" viewBox="0 0 12 18" fill="none" xmlns="http://www.w3.org/2000/svg" xmlns:xlink="http://www.w3.org/1999/xlink">
<path d="M0.721,16.167L0.721,1.042L2.7,1.042L2.7,2.792L2.825,2.792C2.992,2.528 3.214,2.243 3.492,1.937C3.784,1.632 4.166,1.375 4.638,1.167C5.11,0.944 5.693,0.833 6.388,0.833C7.221,0.833 7.95,1 8.575,1.333C9.2,1.653 9.721,2.09 10.138,2.646C10.555,3.187 10.867,3.799 11.075,4.479C11.284,5.16 11.388,5.854 11.388,6.562C11.388,7.271 11.284,7.965 11.075,8.646C10.867,9.326 10.555,9.944 10.138,10.5C9.721,11.042 9.2,11.479 8.575,11.812C7.95,12.132 7.221,12.292 6.388,12.292C5.693,12.292 5.11,12.18 4.638,11.958C4.166,11.736 3.784,11.472 3.492,11.167C3.214,10.861 2.992,10.583 2.825,10.333L2.7,10.333L2.7,16.167L0.721,16.167ZM2.742,6.562C2.742,7.229 2.86,7.875 3.096,8.5C3.346,9.111 3.714,9.618 4.2,10.021C4.7,10.41 5.318,10.604 6.055,10.604C6.805,10.604 7.423,10.41 7.909,10.021C8.409,9.618 8.777,9.111 9.013,8.5C9.263,7.875 9.388,7.229 9.388,6.562C9.388,5.882 9.263,5.236 9.013,4.625C8.777,4.014 8.409,3.514 7.909,3.125C7.423,2.722 6.805,2.521 6.055,2.521C5.318,2.521 4.7,2.722 4.2,3.125C3.714,3.514 3.346,4.014 3.096,4.625C2.86,5.236 2.742,5.882 2.742,6.562Z" fill="#48525F"/>
</svg>
