<svg width="264" height="246" viewBox="0 0 264 246" fill="none" xmlns="http://www.w3.org/2000/svg" xmlns:xlink="http://www.w3.org/1999/xlink">
<path d="M260.977,218.826C252.407,211.634 244.901,203.39 238.667,194.314C231.859,181.786 227.779,168.105 226.667,154.073L226.667,112.745C226.725,90.706 218.231,69.405 202.779,52.844C187.328,36.284 165.983,25.603 142.755,22.81L142.755,12.018C142.755,9.056 141.505,6.215 139.28,4.121C137.054,2.026 134.036,0.85 130.889,0.85C127.742,0.85 124.723,2.026 122.498,4.121C120.272,6.215 119.022,9.056 119.022,12.018L119.022,22.978C96.002,25.972 74.915,36.717 59.667,53.222C44.418,69.727 36.042,90.873 36.089,112.745L36.089,154.073C34.975,168.105 30.896,181.786 24.089,194.314C17.963,203.37 10.579,211.612 2.133,218.826C1.185,219.61 0.425,220.576 -0.096,221.658C-0.617,222.74 -0.887,223.914 -0.889,225.1L-0.889,236.478C-0.889,238.698 0.048,240.826 1.715,242.394C3.382,243.964 5.643,244.844 8,244.844L255.111,244.844C257.469,244.844 259.729,243.964 261.397,242.394C263.063,240.826 263.999,238.698 263.999,236.478L263.999,225.1C263.999,223.914 263.727,222.74 263.207,221.658C262.685,220.576 261.925,219.61 260.977,218.826ZM17.6,228.112C25.87,220.594 33.152,212.168 39.289,203.014C47.863,187.884 52.866,171.19 53.955,154.073L53.955,112.745C53.603,102.94 55.35,93.169 59.094,84.013C62.837,74.858 68.5,66.504 75.744,59.451C82.989,52.398 91.668,46.789 101.264,42.958C110.86,39.127 121.176,37.153 131.6,37.153C142.023,37.153 152.34,39.127 161.936,42.958C171.532,46.789 180.211,52.398 187.455,59.451C194.7,66.504 200.363,74.858 204.107,84.013C207.849,93.169 209.597,102.94 209.245,112.745L209.245,154.073C210.333,171.19 215.337,187.884 223.911,203.014C230.047,212.168 237.329,220.594 245.599,228.112L17.6,228.112Z" fill="#3D3D3D"/>
</svg>
