<svg width="12" height="16" viewBox="0 0 12 16" fill="none" xmlns="http://www.w3.org/2000/svg" xmlns:xlink="http://www.w3.org/1999/xlink">
<path d="M5.619,15.375C4.661,15.375 3.814,15.167 3.078,14.75C2.341,14.319 1.723,13.743 1.223,13.021C0.737,12.285 0.362,11.437 0.098,10.479C-0.152,9.521 -0.277,8.514 -0.277,7.458C-0.277,6.389 -0.152,5.382 0.098,4.437C0.362,3.479 0.737,2.632 1.223,1.896C1.723,1.16 2.341,0.583 3.078,0.167C3.814,-0.25 4.661,-0.458 5.619,-0.458C6.578,-0.458 7.425,-0.25 8.161,0.167C8.897,0.583 9.508,1.16 9.994,1.896C10.494,2.632 10.869,3.479 11.119,4.437C11.383,5.382 11.515,6.389 11.515,7.458C11.515,8.514 11.383,9.521 11.119,10.479C10.869,11.437 10.494,12.285 9.994,13.021C9.508,13.743 8.897,14.319 8.161,14.75C7.425,15.167 6.578,15.375 5.619,15.375ZM5.619,13.5C6.716,13.5 7.619,12.993 8.328,11.979C9.05,10.951 9.411,9.444 9.411,7.458C9.411,5.472 9.05,3.972 8.328,2.958C7.619,1.944 6.716,1.437 5.619,1.437C4.522,1.437 3.612,1.944 2.89,2.958C2.182,3.972 1.828,5.472 1.828,7.458C1.828,9.43 2.182,10.93 2.89,11.958C3.612,12.986 4.522,13.5 5.619,13.5Z" fill="#48525F"/>
</svg>
