<svg width="12" height="16" viewBox="0 0 12 16" fill="none" xmlns="http://www.w3.org/2000/svg" xmlns:xlink="http://www.w3.org/1999/xlink">
<path d="M-0.076,14.833L-0.076,13.396L3.299,10.271C4.244,9.396 5.07,8.632 5.778,7.979C6.501,7.312 7.063,6.666 7.466,6.041C7.869,5.416 8.07,4.729 8.07,3.979C8.07,3.354 7.917,2.826 7.612,2.396C7.32,1.965 6.938,1.639 6.466,1.416C6.007,1.18 5.528,1.062 5.028,1.062C4.376,1.062 3.841,1.173 3.424,1.396C3.007,1.618 2.688,1.896 2.466,2.229C2.244,2.548 2.084,2.875 1.987,3.208C1.889,3.528 1.834,3.798 1.82,4.021C1.806,4.243 1.799,4.354 1.799,4.354L-0.159,4.354C-0.159,4.354 -0.152,4.229 -0.138,3.979C-0.124,3.729 -0.076,3.41 0.007,3.021C0.105,2.632 0.257,2.222 0.466,1.791C0.674,1.347 0.966,0.93 1.341,0.541C1.73,0.153 2.223,-0.167 2.82,-0.417C3.431,-0.667 4.174,-0.792 5.049,-0.792C5.938,-0.792 6.764,-0.604 7.528,-0.229C8.306,0.132 8.931,0.666 9.403,1.375C9.876,2.069 10.112,2.923 10.112,3.937C10.112,4.868 9.876,5.715 9.403,6.479C8.945,7.229 8.334,7.965 7.57,8.687C6.806,9.41 5.973,10.187 5.07,11.021L2.945,12.979L10.445,12.979L10.445,14.833L-0.076,14.833Z" fill="#48525F"/>
</svg>
