<svg width="10" height="14" viewBox="0 0 10 14" fill="none" xmlns="http://www.w3.org/2000/svg" xmlns:xlink="http://www.w3.org/1999/xlink">
<path d="M-0.635,12.083L-0.635,1.042L1.344,1.042L1.344,2.646L1.469,2.646C1.566,2.479 1.726,2.25 1.948,1.958C2.184,1.667 2.518,1.41 2.948,1.187C3.379,0.951 3.92,0.833 4.573,0.833C5.379,0.833 6.066,1.021 6.636,1.396C7.205,1.757 7.636,2.25 7.927,2.875C8.233,3.5 8.386,4.201 8.386,4.979L8.386,12.083L6.406,12.083L6.406,5.104C6.406,4.368 6.198,3.757 5.781,3.271C5.379,2.785 4.788,2.542 4.011,2.542C3.386,2.542 2.879,2.701 2.49,3.021C2.101,3.326 1.809,3.736 1.615,4.25C1.434,4.75 1.344,5.285 1.344,5.854L1.344,12.083L-0.635,12.083Z" fill="#48525F"/>
</svg>
