<svg width="16" height="12" viewBox="0 0 16 12" fill="none" xmlns="http://www.w3.org/2000/svg" xmlns:xlink="http://www.w3.org/1999/xlink">
<path d="M-0.773,11.729L-0.773,0.687L1.206,0.687L1.206,2.292L1.29,2.292C1.401,2.083 1.574,1.84 1.81,1.562C2.047,1.271 2.366,1.021 2.769,0.812C3.185,0.59 3.706,0.479 4.331,0.479C5.151,0.479 5.838,0.68 6.394,1.083C6.963,1.472 7.387,2 7.665,2.667L7.685,2.667C7.991,2.055 8.421,1.542 8.977,1.125C9.546,0.694 10.283,0.479 11.185,0.479C12.38,0.479 13.297,0.889 13.935,1.708C14.588,2.514 14.915,3.555 14.915,4.833L14.915,11.729L12.935,11.729L12.935,4.937C12.935,4.118 12.741,3.458 12.352,2.958C11.963,2.444 11.401,2.187 10.665,2.187C10.026,2.187 9.512,2.361 9.123,2.708C8.748,3.055 8.477,3.486 8.31,4C8.144,4.514 8.06,5.028 8.06,5.542L8.06,11.729L6.081,11.729L6.081,4.937C6.081,4.118 5.887,3.458 5.498,2.958C5.123,2.444 4.56,2.187 3.81,2.187C3.172,2.187 2.658,2.361 2.269,2.708C1.894,3.055 1.623,3.493 1.456,4.021C1.29,4.535 1.206,5.042 1.206,5.542L1.206,11.729L-0.773,11.729Z" fill="#48525F"/>
</svg>
