<svg width="10" height="12" viewBox="0 0 10 12" fill="none" xmlns="http://www.w3.org/2000/svg" xmlns:xlink="http://www.w3.org/1999/xlink">
<path d="M4.427,11.937C3.58,11.937 2.878,11.819 2.323,11.583C1.781,11.347 1.351,11.055 1.031,10.708C0.712,10.347 0.476,9.993 0.323,9.646C0.17,9.285 0.073,8.986 0.031,8.75C-0.01,8.514 -0.031,8.396 -0.031,8.396L1.969,8.396C1.969,8.396 1.99,8.493 2.031,8.687C2.087,8.868 2.191,9.083 2.344,9.333C2.51,9.569 2.76,9.785 3.094,9.979C3.441,10.16 3.899,10.25 4.469,10.25C5.122,10.25 5.628,10.097 5.99,9.792C6.351,9.472 6.531,9.083 6.531,8.625C6.531,8.222 6.385,7.903 6.094,7.667C5.816,7.43 5.413,7.25 4.885,7.125L3.385,6.771C2.83,6.632 2.309,6.444 1.823,6.208C1.337,5.972 0.941,5.653 0.635,5.25C0.344,4.833 0.198,4.319 0.198,3.708C0.198,2.764 0.552,1.993 1.26,1.396C1.969,0.785 2.892,0.479 4.031,0.479C4.795,0.479 5.427,0.59 5.927,0.812C6.427,1.021 6.823,1.285 7.115,1.604C7.42,1.923 7.642,2.243 7.781,2.562C7.934,2.882 8.031,3.153 8.073,3.375C8.115,3.583 8.135,3.687 8.135,3.687L6.219,3.687C6.219,3.687 6.198,3.611 6.156,3.458C6.115,3.292 6.017,3.111 5.865,2.917C5.726,2.708 5.51,2.528 5.219,2.375C4.927,2.208 4.538,2.125 4.052,2.125C3.385,2.125 2.899,2.278 2.594,2.583C2.288,2.889 2.135,3.222 2.135,3.583C2.135,3.93 2.274,4.215 2.552,4.437C2.844,4.646 3.219,4.805 3.677,4.917L5.198,5.271C6.142,5.493 6.92,5.861 7.531,6.375C8.156,6.875 8.469,7.597 8.469,8.542C8.469,9.153 8.309,9.722 7.99,10.25C7.67,10.764 7.212,11.173 6.615,11.479C6.017,11.785 5.288,11.937 4.427,11.937Z" fill="#48525F"/>
</svg>
