<svg width="12" height="12" viewBox="0 0 12 12" fill="none" xmlns="http://www.w3.org/2000/svg" xmlns:xlink="http://www.w3.org/1999/xlink">
<path d="M5.786,11.625C4.578,11.625 3.557,11.354 2.724,10.812C1.904,10.271 1.279,9.562 0.849,8.687C0.432,7.812 0.224,6.882 0.224,5.896C0.224,4.91 0.432,3.979 0.849,3.104C1.279,2.229 1.904,1.521 2.724,0.979C3.557,0.437 4.578,0.167 5.786,0.167C6.981,0.167 7.988,0.437 8.807,0.979C9.641,1.521 10.266,2.229 10.682,3.104C11.113,3.979 11.328,4.91 11.328,5.896C11.328,6.882 11.113,7.812 10.682,8.687C10.266,9.562 9.641,10.271 8.807,10.812C7.988,11.354 6.981,11.625 5.786,11.625ZM5.786,9.604C6.467,9.604 7.036,9.43 7.495,9.083C7.967,8.736 8.321,8.278 8.557,7.708C8.807,7.139 8.932,6.535 8.932,5.896C8.932,5.243 8.807,4.639 8.557,4.083C8.321,3.514 7.967,3.055 7.495,2.708C7.036,2.361 6.467,2.187 5.786,2.187C5.106,2.187 4.529,2.361 4.057,2.708C3.585,3.055 3.231,3.514 2.995,4.083C2.759,4.639 2.641,5.243 2.641,5.896C2.641,6.535 2.759,7.139 2.995,7.708C3.231,8.278 3.585,8.736 4.057,9.083C4.529,9.43 5.106,9.604 5.786,9.604Z" fill="#0A2533"/>
</svg>
