<svg width="10" height="12" viewBox="0 0 10 12" fill="none" xmlns="http://www.w3.org/2000/svg" xmlns:xlink="http://www.w3.org/1999/xlink">
<path d="M4.894,11.937C3.991,11.937 3.206,11.778 2.54,11.458C1.887,11.125 1.345,10.68 0.915,10.125C0.498,9.569 0.186,8.958 -0.023,8.292C-0.231,7.611 -0.335,6.917 -0.335,6.208C-0.335,5.514 -0.238,4.826 -0.044,4.146C0.165,3.465 0.477,2.847 0.894,2.292C1.325,1.736 1.859,1.298 2.498,0.979C3.151,0.646 3.922,0.479 4.811,0.479C5.755,0.479 6.588,0.694 7.311,1.125C8.033,1.555 8.602,2.194 9.019,3.042C9.436,3.889 9.644,4.951 9.644,6.229L9.644,6.812L1.665,6.812C1.706,7.437 1.852,8.014 2.102,8.542C2.366,9.055 2.734,9.472 3.206,9.792C3.679,10.097 4.241,10.25 4.894,10.25C5.463,10.25 5.922,10.16 6.269,9.979C6.63,9.785 6.915,9.562 7.123,9.312C7.331,9.062 7.47,8.847 7.54,8.667C7.623,8.472 7.665,8.375 7.665,8.375L9.519,8.375C9.519,8.375 9.484,8.5 9.415,8.75C9.345,8.986 9.22,9.278 9.04,9.625C8.859,9.972 8.595,10.326 8.248,10.687C7.901,11.035 7.456,11.333 6.915,11.583C6.373,11.819 5.7,11.937 4.894,11.937ZM1.686,5.271L7.706,5.271C7.679,4.548 7.526,3.965 7.248,3.521C6.97,3.062 6.616,2.722 6.186,2.5C5.755,2.278 5.297,2.167 4.811,2.167C3.936,2.167 3.22,2.451 2.665,3.021C2.109,3.576 1.783,4.326 1.686,5.271Z" fill="#48525F"/>
</svg>
