<svg width="2" height="16" viewBox="0 0 2 16" fill="none" xmlns="http://www.w3.org/2000/svg" xmlns:xlink="http://www.w3.org/1999/xlink">
<path d="M0.378,2.583C0.003,2.583 -0.31,2.458 -0.56,2.208C-0.796,1.958 -0.914,1.66 -0.914,1.312C-0.914,0.951 -0.796,0.646 -0.56,0.396C-0.31,0.146 0.003,0.021 0.378,0.021C0.739,0.021 1.044,0.146 1.294,0.396C1.544,0.646 1.669,0.951 1.669,1.312C1.669,1.66 1.544,1.958 1.294,2.208C1.044,2.458 0.739,2.583 0.378,2.583ZM-0.602,15.729L-0.602,4.687L1.378,4.687L1.378,15.729L-0.602,15.729Z" fill="#48525F"/>
</svg>
