<svg width="4" height="18" viewBox="0 0 4 18" fill="none" xmlns="http://www.w3.org/2000/svg" xmlns:xlink="http://www.w3.org/1999/xlink">
<path d="M0.894,2.937C0.519,2.937 0.207,2.812 -0.043,2.562C-0.279,2.312 -0.397,2.014 -0.397,1.666C-0.397,1.305 -0.279,1 -0.043,0.75C0.207,0.5 0.519,0.375 0.894,0.375C1.256,0.375 1.561,0.5 1.811,0.75C2.061,1 2.186,1.305 2.186,1.666C2.186,2.014 2.061,2.312 1.811,2.562C1.561,2.812 1.256,2.937 0.894,2.937ZM-0.085,16.083L-0.085,5.041L1.894,5.041L1.894,16.083L-0.085,16.083Z" fill="#48525F"/>
</svg>
