<svg width="12" height="18" viewBox="0 0 12 18" fill="none" xmlns="http://www.w3.org/2000/svg" xmlns:xlink="http://www.w3.org/1999/xlink">
<path d="M6.351,16.458C5.434,16.458 4.67,16.333 4.059,16.083C3.448,15.847 2.955,15.542 2.58,15.167C2.219,14.805 1.948,14.444 1.768,14.083C1.587,13.722 1.469,13.417 1.413,13.167C1.358,12.93 1.33,12.812 1.33,12.812L3.309,12.812C3.309,12.812 3.344,12.91 3.413,13.104C3.483,13.299 3.615,13.521 3.809,13.771C4.018,14.021 4.323,14.243 4.726,14.437C5.129,14.632 5.67,14.729 6.351,14.729C7.156,14.729 7.788,14.569 8.247,14.25C8.705,13.944 9.031,13.542 9.226,13.042C9.434,12.542 9.538,12.014 9.538,11.458L9.538,10.187L9.434,10.187C9.295,10.424 9.073,10.694 8.768,11C8.476,11.292 8.087,11.549 7.601,11.771C7.115,11.979 6.518,12.083 5.809,12.083C4.976,12.083 4.247,11.924 3.622,11.604C2.997,11.285 2.476,10.854 2.059,10.312C1.656,9.771 1.351,9.167 1.143,8.5C0.934,7.833 0.83,7.153 0.83,6.458C0.83,5.764 0.934,5.083 1.143,4.417C1.351,3.75 1.656,3.146 2.059,2.604C2.476,2.062 2.997,1.632 3.622,1.312C4.247,0.993 4.976,0.833 5.809,0.833C6.518,0.833 7.115,0.944 7.601,1.167C8.087,1.375 8.476,1.625 8.768,1.917C9.073,2.208 9.295,2.479 9.434,2.729L9.538,2.729L9.538,1.042L11.518,1.042L11.518,11.437C11.518,12.979 11.066,14.201 10.163,15.104C9.275,16.007 8.004,16.458 6.351,16.458ZM6.184,10.396C6.92,10.396 7.531,10.208 8.018,9.833C8.518,9.444 8.886,8.951 9.122,8.354C9.372,7.757 9.497,7.125 9.497,6.458C9.497,5.792 9.372,5.16 9.122,4.562C8.886,3.951 8.518,3.458 8.018,3.083C7.531,2.708 6.92,2.521 6.184,2.521C5.448,2.521 4.83,2.708 4.33,3.083C3.83,3.458 3.455,3.951 3.205,4.562C2.969,5.16 2.851,5.792 2.851,6.458C2.851,7.125 2.969,7.757 3.205,8.354C3.455,8.951 3.83,9.444 4.33,9.833C4.83,10.208 5.448,10.396 6.184,10.396Z" fill="#48525F"/>
</svg>
