<svg width="6" height="18" viewBox="0 0 6 18" fill="none" xmlns="http://www.w3.org/2000/svg" xmlns:xlink="http://www.w3.org/1999/xlink">
<path d="M1.319,16.083L1.319,6.667L-0.494,6.667L-0.494,5.042L1.319,5.042L1.319,3.687C1.319,3.104 1.423,2.535 1.631,1.979C1.84,1.41 2.187,0.944 2.673,0.583C3.159,0.222 3.819,0.042 4.652,0.042C5.055,0.042 5.374,0.076 5.611,0.146C5.861,0.201 5.986,0.229 5.986,0.229L5.986,1.792C5.986,1.792 5.874,1.771 5.652,1.729C5.444,1.673 5.201,1.646 4.923,1.646C4.284,1.646 3.854,1.84 3.631,2.229C3.409,2.618 3.298,3.104 3.298,3.687L3.298,5.042L5.861,5.042L5.861,6.667L3.298,6.667L3.298,16.083L1.319,16.083Z" fill="#48525F"/>
</svg>
