<svg width="12" height="14" viewBox="0 0 12 14" fill="none" xmlns="http://www.w3.org/2000/svg" xmlns:xlink="http://www.w3.org/1999/xlink">
<path d="M5.447,12.292C4.266,12.292 3.273,12.021 2.467,11.479C1.662,10.924 1.051,10.208 0.634,9.333C0.217,8.458 0.009,7.535 0.009,6.562C0.009,5.576 0.217,4.653 0.634,3.792C1.051,2.917 1.662,2.208 2.467,1.667C3.273,1.111 4.266,0.833 5.447,0.833C6.627,0.833 7.62,1.111 8.426,1.667C9.231,2.208 9.842,2.917 10.259,3.792C10.676,4.653 10.884,5.576 10.884,6.562C10.884,7.535 10.676,8.458 10.259,9.333C9.842,10.208 9.231,10.924 8.426,11.479C7.62,12.021 6.627,12.292 5.447,12.292ZM5.447,10.562C6.197,10.562 6.822,10.375 7.322,10C7.835,9.611 8.217,9.111 8.467,8.5C8.731,7.889 8.863,7.243 8.863,6.562C8.863,5.868 8.731,5.222 8.467,4.625C8.217,4.014 7.835,3.521 7.322,3.146C6.822,2.757 6.197,2.562 5.447,2.562C4.71,2.562 4.085,2.757 3.572,3.146C3.058,3.521 2.669,4.014 2.405,4.625C2.155,5.222 2.03,5.868 2.03,6.562C2.03,7.243 2.155,7.889 2.405,8.5C2.669,9.111 3.058,9.611 3.572,10C4.085,10.375 4.71,10.562 5.447,10.562Z" fill="#48525F"/>
</svg>
