<svg width="10" height="14" viewBox="0 0 10 14" fill="none" xmlns="http://www.w3.org/2000/svg" xmlns:xlink="http://www.w3.org/1999/xlink">
<path d="M5.07,12.292C4.167,12.292 3.382,12.132 2.715,11.812C2.063,11.479 1.521,11.035 1.09,10.479C0.674,9.924 0.361,9.312 0.153,8.646C-0.056,7.965 -0.16,7.271 -0.16,6.562C-0.16,5.868 -0.062,5.18 0.132,4.5C0.34,3.819 0.653,3.201 1.07,2.646C1.5,2.09 2.035,1.653 2.674,1.333C3.326,1 4.097,0.833 4.986,0.833C5.931,0.833 6.764,1.049 7.486,1.479C8.208,1.91 8.778,2.549 9.195,3.396C9.611,4.243 9.82,5.305 9.82,6.583L9.82,7.167L1.84,7.167C1.882,7.792 2.028,8.368 2.278,8.896C2.542,9.41 2.91,9.826 3.382,10.146C3.854,10.451 4.417,10.604 5.07,10.604C5.639,10.604 6.097,10.514 6.445,10.333C6.806,10.139 7.09,9.917 7.299,9.667C7.507,9.417 7.646,9.201 7.715,9.021C7.799,8.826 7.84,8.729 7.84,8.729L9.695,8.729C9.695,8.729 9.66,8.854 9.59,9.104C9.521,9.34 9.396,9.632 9.215,9.979C9.035,10.326 8.771,10.68 8.424,11.042C8.076,11.389 7.632,11.687 7.09,11.937C6.549,12.174 5.875,12.292 5.07,12.292ZM1.861,5.625L7.882,5.625C7.854,4.903 7.701,4.319 7.424,3.875C7.146,3.417 6.792,3.076 6.361,2.854C5.931,2.632 5.472,2.521 4.986,2.521C4.111,2.521 3.396,2.805 2.84,3.375C2.285,3.93 1.958,4.68 1.861,5.625Z" fill="#48525F"/>
</svg>
