<svg width="142" height="144" viewBox="0 0 142 144" fill="none" xmlns="http://www.w3.org/2000/svg" xmlns:xlink="http://www.w3.org/1999/xlink">
<path d="M70,144C63.323,144 25.433,105.766 10.411,82.078C8.241,79.169 6.238,75.428 4.402,71.273L3.901,70.026C3.567,68.987 3.066,67.948 2.732,66.493C2.399,65.454 2.065,64.208 1.731,62.961C0.562,57.974 -0.105,53.402 -0.105,49.039C-0.105,22.026 17.588,0 39.287,0C51.305,0 62.656,6.857 70,18.493C77.344,6.857 88.695,0 100.713,0C122.412,0 140.105,22.026 140.105,49.039C140.105,53.818 139.271,58.182 138.269,62.753C138.102,64.208 137.602,65.454 137.268,66.701L137.101,67.117C136.934,67.532 136.767,67.948 136.6,68.363C136.433,68.779 136.266,69.402 135.932,70.026L135.932,70.234L135.599,71.273C133.762,75.636 131.759,79.169 129.59,82.286C114.567,105.766 76.677,144 70,144ZM12.08,67.117C13.582,70.441 15.084,73.143 16.586,75.221L16.753,75.636C32.11,99.532 63.323,129.039 70,133.195C76.677,128.831 107.89,99.532 123.08,75.428L123.247,75.013C124.916,72.935 126.418,70.234 127.753,66.909L127.753,66.493L128.421,65.247C128.588,64.831 128.755,64.415 128.922,63.792C129.089,63.376 129.256,62.753 129.423,62.13C129.59,61.298 129.923,60.675 129.923,60.052L129.923,59.844C130.758,55.896 131.426,52.363 131.426,48.623C131.426,27.221 117.571,9.974 100.379,9.974C89.029,9.974 78.847,17.454 73.338,29.922L70,38.649L66.328,30.545C60.82,18.078 50.638,10.597 39.287,10.597C22.095,10.389 8.241,27.636 8.241,49.039C8.241,52.363 8.741,56.104 9.743,59.844L9.91,60.467C10.077,61.091 10.244,61.922 10.577,62.753L10.744,62.961C10.911,63.792 11.245,64.623 11.746,65.454L12.414,66.701L12.414,67.117L12.08,67.117Z" fill="#FF785B"/>
</svg>
