<svg width="12" height="16" viewBox="0 0 12 16" fill="none" xmlns="http://www.w3.org/2000/svg" xmlns:xlink="http://www.w3.org/1999/xlink">
<path d="M4.997,15.396C4.095,15.396 3.233,15.222 2.414,14.875C1.608,14.528 0.949,14 0.435,13.291C-0.065,12.569 -0.315,11.659 -0.315,10.562L1.622,10.562C1.622,11.271 1.782,11.854 2.101,12.312C2.435,12.771 2.858,13.111 3.372,13.333C3.9,13.555 4.442,13.666 4.997,13.666C5.595,13.666 6.143,13.555 6.643,13.333C7.143,13.097 7.546,12.757 7.851,12.312C8.157,11.868 8.31,11.333 8.31,10.708C8.31,9.889 8.039,9.243 7.497,8.771C6.956,8.284 6.233,8.041 5.331,8.041L3.247,8.041L3.247,6.437L5.331,6.437C6.081,6.437 6.72,6.215 7.247,5.771C7.789,5.326 8.06,4.722 8.06,3.958C8.06,3.403 7.914,2.93 7.622,2.541C7.345,2.139 6.97,1.826 6.497,1.604C6.039,1.382 5.539,1.271 4.997,1.271C4.483,1.271 3.983,1.389 3.497,1.625C3.025,1.847 2.636,2.187 2.331,2.646C2.025,3.104 1.872,3.687 1.872,4.396L-0.024,4.396C-0.024,3.312 0.22,2.416 0.706,1.708C1.206,0.986 1.838,0.451 2.601,0.104C3.379,-0.257 4.192,-0.438 5.039,-0.438C5.9,-0.438 6.706,-0.264 7.456,0.083C8.22,0.416 8.838,0.903 9.31,1.541C9.782,2.166 10.018,2.916 10.018,3.791C10.018,4.625 9.81,5.333 9.393,5.916C8.976,6.486 8.449,6.896 7.81,7.146L7.81,7.25C8.546,7.5 9.15,7.923 9.622,8.521C10.095,9.118 10.331,9.868 10.331,10.771C10.331,11.729 10.081,12.555 9.581,13.25C9.081,13.944 8.428,14.479 7.622,14.854C6.817,15.215 5.942,15.396 4.997,15.396Z" fill="#48525F"/>
</svg>
