<svg width="10" height="14" viewBox="0 0 10 14" fill="none" xmlns="http://www.w3.org/2000/svg" xmlns:xlink="http://www.w3.org/1999/xlink">
<path d="M5.067,12.292C4.164,12.292 3.38,12.132 2.713,11.812C2.06,11.479 1.518,11.035 1.088,10.479C0.671,9.924 0.359,9.312 0.15,8.646C-0.058,7.965 -0.162,7.271 -0.162,6.562C-0.162,5.868 -0.065,5.18 0.13,4.5C0.338,3.819 0.65,3.201 1.067,2.646C1.498,2.09 2.032,1.653 2.671,1.333C3.324,1 4.095,0.833 4.984,0.833C5.928,0.833 6.762,1.049 7.484,1.479C8.206,1.91 8.775,2.549 9.192,3.396C9.609,4.243 9.817,5.305 9.817,6.583L9.817,7.167L1.838,7.167C1.88,7.792 2.025,8.368 2.275,8.896C2.539,9.41 2.907,9.826 3.38,10.146C3.852,10.451 4.414,10.604 5.067,10.604C5.636,10.604 6.095,10.514 6.442,10.333C6.803,10.139 7.088,9.917 7.296,9.667C7.505,9.417 7.643,9.201 7.713,9.021C7.796,8.826 7.838,8.729 7.838,8.729L9.692,8.729C9.692,8.729 9.657,8.854 9.588,9.104C9.518,9.34 9.393,9.632 9.213,9.979C9.032,10.326 8.768,10.68 8.421,11.042C8.074,11.389 7.63,11.687 7.088,11.937C6.546,12.174 5.873,12.292 5.067,12.292ZM1.859,5.625L7.88,5.625C7.852,4.903 7.699,4.319 7.421,3.875C7.143,3.417 6.789,3.076 6.359,2.854C5.928,2.632 5.47,2.521 4.984,2.521C4.109,2.521 3.393,2.805 2.838,3.375C2.282,3.93 1.956,4.68 1.859,5.625Z" fill="#48525F"/>
</svg>
