<svg width="18" height="14" viewBox="0 0 18 14" fill="none" xmlns="http://www.w3.org/2000/svg" xmlns:xlink="http://www.w3.org/1999/xlink">
<path d="M0.754,12.083L0.754,1.042L2.734,1.042L2.734,2.646L2.817,2.646C2.928,2.437 3.102,2.194 3.338,1.917C3.574,1.625 3.893,1.375 4.296,1.167C4.713,0.944 5.234,0.833 5.859,0.833C6.678,0.833 7.365,1.035 7.921,1.437C8.49,1.826 8.914,2.354 9.192,3.021L9.213,3.021C9.518,2.41 9.949,1.896 10.504,1.479C11.074,1.049 11.81,0.833 12.713,0.833C13.907,0.833 14.824,1.243 15.463,2.062C16.115,2.868 16.442,3.91 16.442,5.187L16.442,12.083L14.463,12.083L14.463,5.292C14.463,4.472 14.268,3.812 13.879,3.312C13.491,2.799 12.928,2.542 12.192,2.542C11.553,2.542 11.039,2.715 10.65,3.062C10.275,3.41 10.004,3.84 9.838,4.354C9.671,4.868 9.588,5.382 9.588,5.896L9.588,12.083L7.609,12.083L7.609,5.292C7.609,4.472 7.414,3.812 7.025,3.312C6.65,2.799 6.088,2.542 5.338,2.542C4.699,2.542 4.185,2.715 3.796,3.062C3.421,3.41 3.15,3.847 2.984,4.375C2.817,4.889 2.734,5.396 2.734,5.896L2.734,12.083L0.754,12.083Z" fill="#48525F"/>
</svg>
