<svg width="26" height="48" viewBox="0 0 26 48" fill="none" xmlns="http://www.w3.org/2000/svg" xmlns:xlink="http://www.w3.org/1999/xlink">
<path d="M-0.414,43.586C-1.195,44.367 -1.195,45.633 -0.414,46.414C0.367,47.195 1.633,47.195 2.414,46.414L-0.414,43.586ZM23,23L24.414,24.414C25.195,23.633 25.195,22.367 24.414,21.586L23,23ZM2.414,-0.414C1.633,-1.195 0.367,-1.195 -0.414,-0.414C-1.195,0.367 -1.195,1.633 -0.414,2.414L2.414,-0.414ZM2.414,46.414L24.414,24.414L21.586,21.586L-0.414,43.586L2.414,46.414ZM24.414,21.586L2.414,-0.414L-0.414,2.414L21.586,24.414L24.414,21.586Z" fill="#000000"/>
</svg>
