<svg width="10" height="12" viewBox="0 0 10 12" fill="none" xmlns="http://www.w3.org/2000/svg" xmlns:xlink="http://www.w3.org/1999/xlink">
<path d="M5.067,11.937C4.164,11.937 3.38,11.778 2.713,11.458C2.06,11.125 1.518,10.68 1.088,10.125C0.671,9.569 0.359,8.958 0.15,8.292C-0.058,7.611 -0.162,6.917 -0.162,6.208C-0.162,5.514 -0.065,4.826 0.13,4.146C0.338,3.465 0.65,2.847 1.067,2.292C1.498,1.736 2.032,1.298 2.671,0.979C3.324,0.646 4.095,0.479 4.984,0.479C5.928,0.479 6.762,0.694 7.484,1.125C8.206,1.555 8.775,2.194 9.192,3.042C9.609,3.889 9.817,4.951 9.817,6.229L9.817,6.812L1.838,6.812C1.88,7.437 2.025,8.014 2.275,8.542C2.539,9.055 2.907,9.472 3.38,9.792C3.852,10.097 4.414,10.25 5.067,10.25C5.636,10.25 6.095,10.16 6.442,9.979C6.803,9.785 7.088,9.562 7.296,9.312C7.505,9.062 7.643,8.847 7.713,8.667C7.796,8.472 7.838,8.375 7.838,8.375L9.692,8.375C9.692,8.375 9.657,8.5 9.588,8.75C9.518,8.986 9.393,9.278 9.213,9.625C9.032,9.972 8.768,10.326 8.421,10.687C8.074,11.035 7.63,11.333 7.088,11.583C6.546,11.819 5.873,11.937 5.067,11.937ZM1.859,5.271L7.88,5.271C7.852,4.548 7.699,3.965 7.421,3.521C7.143,3.062 6.789,2.722 6.359,2.5C5.928,2.278 5.47,2.167 4.984,2.167C4.109,2.167 3.393,2.451 2.838,3.021C2.282,3.576 1.956,4.326 1.859,5.271Z" fill="#48525F"/>
</svg>
