<svg width="18" height="12" viewBox="0 0 18 12" fill="none" xmlns="http://www.w3.org/2000/svg" xmlns:xlink="http://www.w3.org/1999/xlink">
<path d="M0.802,11.729L0.802,0.687L2.781,0.687L2.781,2.292L2.864,2.292C2.975,2.083 3.149,1.84 3.385,1.562C3.621,1.271 3.941,1.021 4.343,0.812C4.76,0.59 5.281,0.479 5.906,0.479C6.725,0.479 7.413,0.68 7.968,1.083C8.538,1.472 8.961,2 9.239,2.667L9.26,2.667C9.566,2.055 9.996,1.542 10.552,1.125C11.121,0.694 11.857,0.479 12.76,0.479C13.955,0.479 14.871,0.889 15.51,1.708C16.163,2.514 16.489,3.555 16.489,4.833L16.489,11.729L14.51,11.729L14.51,4.937C14.51,4.118 14.316,3.458 13.927,2.958C13.538,2.444 12.975,2.187 12.239,2.187C11.6,2.187 11.086,2.361 10.698,2.708C10.323,3.055 10.052,3.486 9.885,4C9.718,4.514 9.635,5.028 9.635,5.542L9.635,11.729L7.656,11.729L7.656,4.937C7.656,4.118 7.461,3.458 7.073,2.958C6.698,2.444 6.135,2.187 5.385,2.187C4.746,2.187 4.232,2.361 3.843,2.708C3.468,3.055 3.198,3.493 3.031,4.021C2.864,4.535 2.781,5.042 2.781,5.542L2.781,11.729L0.802,11.729Z" fill="#48525F"/>
</svg>
