<svg width="8" height="14" viewBox="0 0 8 14" fill="none" xmlns="http://www.w3.org/2000/svg" xmlns:xlink="http://www.w3.org/1999/xlink">
<path d="M0.668,12.083L0.668,1.042L2.647,1.042L2.647,2.417L2.73,2.417C2.967,2 3.314,1.632 3.772,1.312C4.23,0.993 4.876,0.833 5.71,0.833C5.946,0.833 6.161,0.847 6.355,0.875C6.55,0.889 6.647,0.896 6.647,0.896L6.647,2.792C6.647,2.792 6.536,2.785 6.314,2.771C6.105,2.743 5.883,2.729 5.647,2.729C4.689,2.729 3.946,3.007 3.418,3.562C2.904,4.104 2.647,4.993 2.647,6.229L2.647,12.083L0.668,12.083Z" fill="#48525F"/>
</svg>
