<svg width="12" height="16" viewBox="0 0 12 16" fill="none" xmlns="http://www.w3.org/2000/svg" xmlns:xlink="http://www.w3.org/1999/xlink">
<path d="M0.87,14.833L0.87,13.396L4.245,10.271C5.19,9.396 6.016,8.632 6.724,7.979C7.447,7.312 8.009,6.666 8.412,6.041C8.815,5.416 9.016,4.729 9.016,3.979C9.016,3.354 8.863,2.826 8.558,2.396C8.266,1.965 7.884,1.639 7.412,1.416C6.954,1.18 6.474,1.062 5.974,1.062C5.322,1.062 4.787,1.173 4.37,1.396C3.954,1.618 3.634,1.896 3.412,2.229C3.19,2.548 3.03,2.875 2.933,3.208C2.835,3.528 2.78,3.798 2.766,4.021C2.752,4.243 2.745,4.354 2.745,4.354L0.787,4.354C0.787,4.354 0.794,4.229 0.808,3.979C0.822,3.729 0.87,3.41 0.954,3.021C1.051,2.632 1.204,2.222 1.412,1.791C1.62,1.347 1.912,0.93 2.287,0.541C2.676,0.153 3.169,-0.167 3.766,-0.417C4.377,-0.667 5.12,-0.792 5.995,-0.792C6.884,-0.792 7.71,-0.604 8.474,-0.229C9.252,0.132 9.877,0.666 10.349,1.375C10.822,2.069 11.058,2.923 11.058,3.937C11.058,4.868 10.822,5.715 10.349,6.479C9.891,7.229 9.28,7.965 8.516,8.687C7.752,9.41 6.919,10.187 6.016,11.021L3.891,12.979L11.391,12.979L11.391,14.833L0.87,14.833Z" fill="#48525F"/>
</svg>
