<svg width="10" height="12" viewBox="0 0 10 12" fill="none" xmlns="http://www.w3.org/2000/svg" xmlns:xlink="http://www.w3.org/1999/xlink">
<path d="M4.536,10.292C3.439,10.292 2.564,9.951 1.911,9.271C1.258,8.59 0.932,7.646 0.932,6.437L0.932,-0.958L2.911,-0.958L2.911,6.333C2.911,7.055 3.105,7.611 3.494,8C3.897,8.389 4.425,8.583 5.077,8.583C5.744,8.583 6.279,8.41 6.682,8.062C7.084,7.715 7.376,7.271 7.557,6.729C7.737,6.187 7.827,5.632 7.827,5.062L7.827,-0.958L9.807,-0.958L9.807,10.083L7.827,10.083L7.827,8.5L7.702,8.5C7.619,8.667 7.459,8.896 7.223,9.187C6.987,9.465 6.654,9.722 6.223,9.958C5.793,10.18 5.23,10.292 4.536,10.292Z" fill="#48525F"/>
</svg>
