<svg width="10" height="12" viewBox="0 0 10 12" fill="none" xmlns="http://www.w3.org/2000/svg" xmlns:xlink="http://www.w3.org/1999/xlink">
<path d="M-0.167,11.062L-0.167,0.021L2.208,0.021L2.208,1.625L2.333,1.625C2.43,1.43 2.597,1.194 2.833,0.917C3.069,0.625 3.396,0.368 3.812,0.146C4.243,-0.077 4.784,-0.188 5.437,-0.188C6.257,-0.188 6.944,0 7.5,0.375C8.055,0.75 8.472,1.25 8.75,1.875C9.041,2.5 9.187,3.187 9.187,3.937L9.187,11.062L6.812,11.062L6.812,4.187C6.812,3.521 6.625,2.958 6.25,2.5C5.889,2.042 5.347,1.812 4.625,1.812C4.055,1.812 3.59,1.958 3.229,2.25C2.882,2.528 2.625,2.896 2.458,3.354C2.291,3.798 2.208,4.278 2.208,4.792L2.208,11.062L-0.167,11.062Z" fill="#0A2533"/>
</svg>
