<svg width="10" height="14" viewBox="0 0 10 14" fill="none" xmlns="http://www.w3.org/2000/svg" xmlns:xlink="http://www.w3.org/1999/xlink">
<path d="M5.21,12.292C4.363,12.292 3.661,12.174 3.106,11.937C2.564,11.701 2.133,11.41 1.814,11.062C1.495,10.701 1.258,10.347 1.106,10C0.953,9.639 0.856,9.34 0.814,9.104C0.772,8.868 0.751,8.75 0.751,8.75L2.751,8.75C2.751,8.75 2.772,8.847 2.814,9.042C2.87,9.222 2.974,9.437 3.126,9.687C3.293,9.924 3.543,10.139 3.876,10.333C4.224,10.514 4.682,10.604 5.251,10.604C5.904,10.604 6.411,10.451 6.772,10.146C7.133,9.826 7.314,9.437 7.314,8.979C7.314,8.576 7.168,8.257 6.876,8.021C6.599,7.785 6.196,7.604 5.668,7.479L4.168,7.125C3.613,6.986 3.092,6.799 2.606,6.562C2.12,6.326 1.724,6.007 1.418,5.604C1.126,5.187 0.981,4.674 0.981,4.062C0.981,3.118 1.335,2.347 2.043,1.75C2.751,1.139 3.675,0.833 4.814,0.833C5.578,0.833 6.21,0.944 6.71,1.167C7.21,1.375 7.606,1.639 7.897,1.958C8.203,2.278 8.425,2.597 8.564,2.917C8.717,3.236 8.814,3.507 8.856,3.729C8.897,3.937 8.918,4.042 8.918,4.042L7.001,4.042C7.001,4.042 6.981,3.965 6.939,3.812C6.897,3.646 6.8,3.465 6.647,3.271C6.508,3.062 6.293,2.882 6.001,2.729C5.71,2.562 5.321,2.479 4.835,2.479C4.168,2.479 3.682,2.632 3.376,2.937C3.071,3.243 2.918,3.576 2.918,3.937C2.918,4.285 3.057,4.569 3.335,4.792C3.626,5 4.001,5.16 4.46,5.271L5.981,5.625C6.925,5.847 7.703,6.215 8.314,6.729C8.939,7.229 9.251,7.951 9.251,8.896C9.251,9.507 9.092,10.076 8.772,10.604C8.453,11.118 7.995,11.528 7.397,11.833C6.8,12.139 6.071,12.292 5.21,12.292Z" fill="#48525F"/>
</svg>
