<svg width="36" height="36" viewBox="0 0 36 36" fill="none" xmlns="http://www.w3.org/2000/svg" xmlns:xlink="http://www.w3.org/1999/xlink">
<path d="M17.989,34.782C16.344,34.782 7.01,25.363 3.31,19.528C2.775,18.812 2.282,17.89 1.83,16.866L1.706,16.559C1.624,16.303 1.501,16.047 1.418,15.689C1.336,15.433 1.254,15.126 1.172,14.819C0.884,13.59 0.719,12.464 0.719,11.389C0.719,4.735 5.078,-0.691 10.423,-0.691C13.384,-0.691 16.18,0.998 17.989,3.865C19.798,0.998 22.594,-0.691 25.555,-0.691C30.9,-0.691 35.259,4.735 35.259,11.389C35.259,12.567 35.053,13.642 34.807,14.768C34.765,15.126 34.642,15.433 34.56,15.74L34.519,15.843C34.478,15.945 34.437,16.047 34.395,16.15C34.354,16.252 34.313,16.406 34.231,16.559L34.231,16.61L34.149,16.866C33.696,17.941 33.203,18.812 32.668,19.579C28.968,25.363 19.634,34.782 17.989,34.782ZM3.721,15.843C4.091,16.662 4.461,17.327 4.831,17.839L4.872,17.941C8.655,23.828 16.344,31.096 17.989,32.12C19.634,31.045 27.323,23.828 31.065,17.89L31.106,17.788C31.517,17.276 31.887,16.61 32.216,15.791L32.216,15.689L32.381,15.382C32.422,15.28 32.463,15.177 32.504,15.024C32.545,14.921 32.586,14.768 32.627,14.614C32.668,14.409 32.751,14.256 32.751,14.102L32.751,14.051C32.956,13.079 33.121,12.208 33.121,11.287C33.121,6.015 29.708,1.766 25.473,1.766C22.677,1.766 20.168,3.609 18.811,6.68L17.989,8.83L17.084,6.834C15.728,3.762 13.219,1.92 10.423,1.92C6.188,1.868 2.775,6.117 2.775,11.389C2.775,12.208 2.899,13.13 3.145,14.051L3.186,14.205C3.228,14.358 3.269,14.563 3.351,14.768L3.392,14.819C3.433,15.024 3.515,15.228 3.639,15.433L3.803,15.74L3.803,15.843L3.721,15.843Z" fill="#FFC6BA"/>
</svg>
