<svg width="12" height="12" viewBox="0 0 12 12" fill="none" xmlns="http://www.w3.org/2000/svg" xmlns:xlink="http://www.w3.org/1999/xlink">
<path d="M5.62,11.937C4.717,11.937 3.932,11.778 3.265,11.458C2.613,11.125 2.071,10.68 1.64,10.125C1.224,9.569 0.911,8.958 0.703,8.292C0.495,7.611 0.39,6.917 0.39,6.208C0.39,5.514 0.488,4.826 0.682,4.146C0.89,3.465 1.203,2.847 1.62,2.292C2.05,1.736 2.585,1.298 3.224,0.979C3.877,0.646 4.647,0.479 5.536,0.479C6.481,0.479 7.314,0.694 8.036,1.125C8.758,1.555 9.328,2.194 9.745,3.042C10.161,3.889 10.37,4.951 10.37,6.229L10.37,6.812L2.39,6.812C2.432,7.437 2.578,8.014 2.828,8.542C3.092,9.055 3.46,9.472 3.932,9.792C4.404,10.097 4.967,10.25 5.62,10.25C6.189,10.25 6.647,10.16 6.995,9.979C7.356,9.785 7.64,9.562 7.849,9.312C8.057,9.062 8.196,8.847 8.265,8.667C8.349,8.472 8.39,8.375 8.39,8.375L10.245,8.375C10.245,8.375 10.21,8.5 10.14,8.75C10.071,8.986 9.946,9.278 9.765,9.625C9.585,9.972 9.321,10.326 8.974,10.687C8.627,11.035 8.182,11.333 7.64,11.583C7.099,11.819 6.425,11.937 5.62,11.937ZM2.411,5.271L8.432,5.271C8.404,4.548 8.252,3.965 7.974,3.521C7.696,3.062 7.342,2.722 6.911,2.5C6.481,2.278 6.022,2.167 5.536,2.167C4.661,2.167 3.946,2.451 3.39,3.021C2.835,3.576 2.508,4.326 2.411,5.271Z" fill="#48525F"/>
</svg>
