<svg width="12" height="16" viewBox="0 0 12 16" fill="none" xmlns="http://www.w3.org/2000/svg" xmlns:xlink="http://www.w3.org/1999/xlink">
<path d="M0.568,14.146C0.248,14.146 -0.023,14.132 -0.245,14.104C-0.467,14.076 -0.578,14.062 -0.578,14.062L-0.578,12.375C-0.578,12.375 -0.467,12.382 -0.245,12.396C-0.009,12.423 0.241,12.437 0.505,12.437C1.325,12.437 1.991,12.264 2.505,11.917C3.033,11.583 3.477,11.028 3.839,10.25L-0.432,-0.958L1.63,-0.958L4.818,7.667L8.026,-0.958L10.109,-0.958L5.839,10.104C5.297,11.493 4.595,12.514 3.734,13.167C2.887,13.819 1.832,14.146 0.568,14.146Z" fill="#48525F"/>
</svg>
