<svg width="10" height="12" viewBox="0 0 10 12" fill="none" xmlns="http://www.w3.org/2000/svg" xmlns:xlink="http://www.w3.org/1999/xlink">
<path d="M-0.733,11.417L-0.733,0.375L1.642,0.375L1.642,1.979L1.767,1.979C1.864,1.785 2.031,1.548 2.267,1.271C2.503,0.979 2.83,0.722 3.246,0.5C3.677,0.278 4.218,0.167 4.871,0.167C5.691,0.167 6.378,0.354 6.934,0.729C7.489,1.104 7.906,1.604 8.184,2.229C8.475,2.854 8.621,3.542 8.621,4.292L8.621,11.417L6.246,11.417L6.246,4.542C6.246,3.875 6.059,3.312 5.684,2.854C5.323,2.396 4.781,2.167 4.059,2.167C3.489,2.167 3.024,2.312 2.663,2.604C2.316,2.882 2.059,3.25 1.892,3.708C1.725,4.153 1.642,4.632 1.642,5.146L1.642,11.417L-0.733,11.417Z" fill="#0A2533"/>
</svg>
