<svg width="4" height="18" viewBox="0 0 4 18" fill="none" xmlns="http://www.w3.org/2000/svg" xmlns:xlink="http://www.w3.org/1999/xlink">
<path d="M1.962,2.937C1.587,2.937 1.274,2.812 1.024,2.562C0.788,2.312 0.67,2.014 0.67,1.666C0.67,1.305 0.788,1 1.024,0.75C1.274,0.5 1.587,0.375 1.962,0.375C2.323,0.375 2.628,0.5 2.878,0.75C3.128,1 3.253,1.305 3.253,1.666C3.253,2.014 3.128,2.312 2.878,2.562C2.628,2.812 2.323,2.937 1.962,2.937ZM0.982,16.083L0.982,5.041L2.962,5.041L2.962,16.083L0.982,16.083Z" fill="#48525F"/>
</svg>
