<svg width="10" height="18" viewBox="0 0 10 18" fill="none" xmlns="http://www.w3.org/2000/svg" xmlns:xlink="http://www.w3.org/1999/xlink">
<path d="M4.619,16.458C3.703,16.458 2.939,16.333 2.328,16.083C1.717,15.847 1.224,15.542 0.849,15.167C0.488,14.805 0.217,14.444 0.036,14.083C-0.144,13.722 -0.262,13.417 -0.318,13.167C-0.374,12.93 -0.401,12.812 -0.401,12.812L1.578,12.812C1.578,12.812 1.613,12.91 1.682,13.104C1.751,13.299 1.883,13.521 2.078,13.771C2.286,14.021 2.592,14.243 2.994,14.437C3.397,14.632 3.939,14.729 4.619,14.729C5.425,14.729 6.057,14.569 6.515,14.25C6.974,13.944 7.3,13.542 7.494,13.042C7.703,12.542 7.807,12.014 7.807,11.458L7.807,10.187L7.703,10.187C7.564,10.424 7.342,10.694 7.036,11C6.744,11.292 6.356,11.549 5.869,11.771C5.383,11.979 4.786,12.083 4.078,12.083C3.244,12.083 2.515,11.924 1.89,11.604C1.265,11.285 0.744,10.854 0.328,10.312C-0.075,9.771 -0.381,9.167 -0.589,8.5C-0.797,7.833 -0.901,7.153 -0.901,6.458C-0.901,5.764 -0.797,5.083 -0.589,4.417C-0.381,3.75 -0.075,3.146 0.328,2.604C0.744,2.062 1.265,1.632 1.89,1.312C2.515,0.993 3.244,0.833 4.078,0.833C4.786,0.833 5.383,0.944 5.869,1.167C6.356,1.375 6.744,1.625 7.036,1.917C7.342,2.208 7.564,2.479 7.703,2.729L7.807,2.729L7.807,1.042L9.786,1.042L9.786,11.437C9.786,12.979 9.335,14.201 8.432,15.104C7.543,16.007 6.272,16.458 4.619,16.458ZM4.453,10.396C5.189,10.396 5.8,10.208 6.286,9.833C6.786,9.444 7.154,8.951 7.39,8.354C7.64,7.757 7.765,7.125 7.765,6.458C7.765,5.792 7.64,5.16 7.39,4.562C7.154,3.951 6.786,3.458 6.286,3.083C5.8,2.708 5.189,2.521 4.453,2.521C3.717,2.521 3.099,2.708 2.599,3.083C2.099,3.458 1.724,3.951 1.474,4.562C1.238,5.16 1.119,5.792 1.119,6.458C1.119,7.125 1.238,7.757 1.474,8.354C1.724,8.951 2.099,9.444 2.599,9.833C3.099,10.208 3.717,10.396 4.453,10.396Z" fill="#48525F"/>
</svg>
