<svg width="12" height="16" viewBox="0 0 12 16" fill="none" xmlns="http://www.w3.org/2000/svg" xmlns:xlink="http://www.w3.org/1999/xlink">
<path d="M0.354,14.833L0.354,13.396L3.729,10.271C4.674,9.396 5.5,8.632 6.208,7.979C6.93,7.312 7.493,6.666 7.896,6.041C8.299,5.416 8.5,4.729 8.5,3.979C8.5,3.354 8.347,2.826 8.042,2.396C7.75,1.965 7.368,1.639 6.896,1.416C6.437,1.18 5.958,1.062 5.458,1.062C4.805,1.062 4.271,1.173 3.854,1.396C3.437,1.618 3.118,1.896 2.896,2.229C2.674,2.548 2.514,2.875 2.417,3.208C2.319,3.528 2.264,3.798 2.25,4.021C2.236,4.243 2.229,4.354 2.229,4.354L0.271,4.354C0.271,4.354 0.278,4.229 0.292,3.979C0.305,3.729 0.354,3.41 0.437,3.021C0.535,2.632 0.687,2.222 0.896,1.791C1.104,1.347 1.396,0.93 1.771,0.541C2.16,0.153 2.653,-0.167 3.25,-0.417C3.861,-0.667 4.604,-0.792 5.479,-0.792C6.368,-0.792 7.194,-0.604 7.958,-0.229C8.736,0.132 9.361,0.666 9.833,1.375C10.305,2.069 10.542,2.923 10.542,3.937C10.542,4.868 10.305,5.715 9.833,6.479C9.375,7.229 8.764,7.965 8,8.687C7.236,9.41 6.403,10.187 5.5,11.021L3.375,12.979L10.875,12.979L10.875,14.833L0.354,14.833Z" fill="#48525F"/>
</svg>
