<svg width="8" height="12" viewBox="0 0 8 12" fill="none" xmlns="http://www.w3.org/2000/svg" xmlns:xlink="http://www.w3.org/1999/xlink">
<path d="M0.668,11.729L0.668,0.687L2.647,0.687L2.647,2.062L2.73,2.062C2.967,1.646 3.314,1.278 3.772,0.958C4.23,0.639 4.876,0.479 5.71,0.479C5.946,0.479 6.161,0.493 6.355,0.521C6.55,0.535 6.647,0.542 6.647,0.542L6.647,2.437C6.647,2.437 6.536,2.43 6.314,2.417C6.105,2.389 5.883,2.375 5.647,2.375C4.689,2.375 3.946,2.653 3.418,3.208C2.904,3.75 2.647,4.639 2.647,5.875L2.647,11.729L0.668,11.729Z" fill="#48525F"/>
</svg>
