<svg width="12" height="16" viewBox="0 0 12 16" fill="none" xmlns="http://www.w3.org/2000/svg" xmlns:xlink="http://www.w3.org/1999/xlink">
<path d="M-0.076,15.187L-0.076,13.75L3.299,10.625C4.244,9.75 5.07,8.986 5.778,8.333C6.501,7.666 7.063,7.021 7.466,6.396C7.869,5.771 8.07,5.083 8.07,4.333C8.07,3.708 7.917,3.18 7.612,2.75C7.32,2.319 6.938,1.993 6.466,1.771C6.007,1.534 5.528,1.416 5.028,1.416C4.376,1.416 3.841,1.528 3.424,1.75C3.007,1.972 2.688,2.25 2.466,2.583C2.244,2.903 2.084,3.229 1.987,3.562C1.889,3.882 1.834,4.153 1.82,4.375C1.806,4.597 1.799,4.708 1.799,4.708L-0.159,4.708C-0.159,4.708 -0.152,4.583 -0.138,4.333C-0.124,4.083 -0.076,3.764 0.007,3.375C0.105,2.986 0.257,2.576 0.466,2.146C0.674,1.701 0.966,1.284 1.341,0.896C1.73,0.507 2.223,0.187 2.82,-0.063C3.431,-0.313 4.174,-0.438 5.049,-0.438C5.938,-0.438 6.764,-0.25 7.528,0.125C8.306,0.486 8.931,1.021 9.403,1.729C9.876,2.423 10.112,3.278 10.112,4.291C10.112,5.222 9.876,6.069 9.403,6.833C8.945,7.583 8.334,8.319 7.57,9.041C6.806,9.764 5.973,10.541 5.07,11.375L2.945,13.333L10.445,13.333L10.445,15.187L-0.076,15.187Z" fill="#48525F"/>
</svg>
