<svg width="12" height="16" viewBox="0 0 12 16" fill="none" xmlns="http://www.w3.org/2000/svg" xmlns:xlink="http://www.w3.org/1999/xlink">
<path d="M-0.349,14.833L-0.349,13.396L3.026,10.271C3.971,9.396 4.797,8.632 5.505,7.979C6.228,7.312 6.79,6.666 7.193,6.041C7.596,5.416 7.797,4.729 7.797,3.979C7.797,3.354 7.644,2.826 7.339,2.396C7.047,1.965 6.665,1.639 6.193,1.416C5.735,1.18 5.255,1.062 4.755,1.062C4.103,1.062 3.568,1.173 3.151,1.396C2.735,1.618 2.415,1.896 2.193,2.229C1.971,2.548 1.811,2.875 1.714,3.208C1.616,3.528 1.561,3.798 1.547,4.021C1.533,4.243 1.526,4.354 1.526,4.354L-0.432,4.354C-0.432,4.354 -0.425,4.229 -0.411,3.979C-0.397,3.729 -0.349,3.41 -0.265,3.021C-0.168,2.632 -0.015,2.222 0.193,1.791C0.401,1.347 0.693,0.93 1.068,0.541C1.457,0.153 1.95,-0.167 2.547,-0.417C3.158,-0.667 3.901,-0.792 4.776,-0.792C5.665,-0.792 6.491,-0.604 7.255,-0.229C8.033,0.132 8.658,0.666 9.13,1.375C9.603,2.069 9.839,2.923 9.839,3.937C9.839,4.868 9.603,5.715 9.13,6.479C8.672,7.229 8.061,7.965 7.297,8.687C6.533,9.41 5.7,10.187 4.797,11.021L2.672,12.979L10.172,12.979L10.172,14.833L-0.349,14.833Z" fill="#48525F"/>
</svg>
