<svg width="8" height="12" viewBox="0 0 8 12" fill="none" xmlns="http://www.w3.org/2000/svg" xmlns:xlink="http://www.w3.org/1999/xlink">
<path d="M0.549,11.729L0.549,0.687L2.528,0.687L2.528,2.062L2.611,2.062C2.847,1.646 3.195,1.278 3.653,0.958C4.111,0.639 4.757,0.479 5.59,0.479C5.827,0.479 6.042,0.493 6.236,0.521C6.431,0.535 6.528,0.542 6.528,0.542L6.528,2.437C6.528,2.437 6.417,2.43 6.195,2.417C5.986,2.389 5.764,2.375 5.528,2.375C4.57,2.375 3.827,2.653 3.299,3.208C2.785,3.75 2.528,4.639 2.528,5.875L2.528,11.729L0.549,11.729Z" fill="#48525F"/>
</svg>
