<svg width="6" height="12" viewBox="0 0 6 12" fill="none" xmlns="http://www.w3.org/2000/svg" xmlns:xlink="http://www.w3.org/1999/xlink">
<path d="M-0.003,11.729L-0.003,0.687L1.976,0.687L1.976,2.062L2.06,2.062C2.296,1.646 2.643,1.278 3.101,0.958C3.56,0.639 4.205,0.479 5.039,0.479C5.275,0.479 5.49,0.493 5.685,0.521C5.879,0.535 5.976,0.542 5.976,0.542L5.976,2.437C5.976,2.437 5.865,2.43 5.643,2.417C5.435,2.389 5.212,2.375 4.976,2.375C4.018,2.375 3.275,2.653 2.747,3.208C2.233,3.75 1.976,4.639 1.976,5.875L1.976,11.729L-0.003,11.729Z" fill="#48525F"/>
</svg>
