<svg width="34" height="36" viewBox="0 0 34 36" fill="none" xmlns="http://www.w3.org/2000/svg" xmlns:xlink="http://www.w3.org/1999/xlink">
<path d="M16.406,34.782C14.761,34.782 5.428,25.363 1.727,19.528C1.192,18.812 0.699,17.89 0.247,16.866L0.123,16.559C0.041,16.303 -0.082,16.047 -0.165,15.689C-0.247,15.433 -0.329,15.126 -0.411,14.819C-0.699,13.59 -0.864,12.464 -0.864,11.389C-0.864,4.735 3.495,-0.691 8.84,-0.691C11.801,-0.691 14.597,0.998 16.406,3.865C18.215,0.998 21.011,-0.691 23.972,-0.691C29.317,-0.691 33.676,4.735 33.676,11.389C33.676,12.567 33.47,13.642 33.224,14.768C33.182,15.126 33.059,15.433 32.977,15.74L32.936,15.843C32.895,15.945 32.854,16.047 32.812,16.15C32.771,16.252 32.73,16.406 32.648,16.559L32.648,16.61L32.566,16.866C32.113,17.941 31.62,18.812 31.085,19.579C27.385,25.363 18.051,34.782 16.406,34.782ZM2.138,15.843C2.508,16.662 2.878,17.327 3.248,17.839L3.289,17.941C7.072,23.828 14.761,31.096 16.406,32.12C18.051,31.045 25.74,23.828 29.482,17.89L29.523,17.788C29.934,17.276 30.304,16.61 30.633,15.791L30.633,15.689L30.798,15.382C30.839,15.28 30.88,15.177 30.921,15.024C30.962,14.921 31.003,14.768 31.044,14.614C31.085,14.409 31.168,14.256 31.168,14.102L31.168,14.051C31.373,13.079 31.538,12.208 31.538,11.287C31.538,6.015 28.125,1.766 23.89,1.766C21.094,1.766 18.585,3.609 17.229,6.68L16.406,8.83L15.502,6.834C14.145,3.762 11.636,1.92 8.84,1.92C4.605,1.868 1.192,6.117 1.192,11.389C1.192,12.208 1.316,13.13 1.562,14.051L1.604,14.205C1.645,14.358 1.686,14.563 1.768,14.768L1.809,14.819C1.85,15.024 1.932,15.228 2.056,15.433L2.22,15.74L2.22,15.843L2.138,15.843Z" fill="#FFC6BA"/>
</svg>
