<svg width="12" height="12" viewBox="0 0 12 12" fill="none" xmlns="http://www.w3.org/2000/svg" xmlns:xlink="http://www.w3.org/1999/xlink">
<path d="M8,5C8,5.921 7.254,6.667 6.334,6.667L6.334,10.667C9.463,10.667 12,8.13 12,5L8,5ZM6.334,6.667C5.413,6.667 4.667,5.921 4.667,5L0.667,5C0.667,8.13 3.204,10.667 6.334,10.667L6.334,6.667ZM4.667,5C4.667,4.08 5.413,3.333 6.334,3.333L6.334,-0.667C3.204,-0.667 0.667,1.871 0.667,5L4.667,5ZM6.334,3.333C7.254,3.333 8,4.08 8,5L12,5C12,1.871 9.463,-0.667 6.334,-0.667L6.334,3.333Z" fill="#C00033"/>
</svg>
