<svg width="10" height="12" viewBox="0 0 10 12" fill="none" xmlns="http://www.w3.org/2000/svg" xmlns:xlink="http://www.w3.org/1999/xlink">
<path d="M-0.214,11.729L-0.214,0.687L1.765,0.687L1.765,2.292L1.89,2.292C1.988,2.125 2.147,1.896 2.369,1.604C2.606,1.312 2.939,1.055 3.369,0.833C3.8,0.597 4.342,0.479 4.994,0.479C5.8,0.479 6.488,0.667 7.057,1.042C7.626,1.403 8.057,1.896 8.349,2.521C8.654,3.146 8.807,3.847 8.807,4.625L8.807,11.729L6.828,11.729L6.828,4.75C6.828,4.014 6.619,3.403 6.203,2.917C5.8,2.43 5.21,2.187 4.432,2.187C3.807,2.187 3.3,2.347 2.911,2.667C2.522,2.972 2.231,3.382 2.036,3.896C1.856,4.396 1.765,4.93 1.765,5.5L1.765,11.729L-0.214,11.729Z" fill="#48525F"/>
</svg>
