<svg width="12" height="12" viewBox="0 0 12 12" fill="none" xmlns="http://www.w3.org/2000/svg" xmlns:xlink="http://www.w3.org/1999/xlink">
<path d="M5.141,-0.188C5.835,-0.188 6.412,-0.077 6.87,0.146C7.342,0.368 7.717,0.625 7.995,0.917C8.273,1.208 8.474,1.458 8.599,1.667L8.724,1.667L8.724,0.021L11.099,0.021L11.099,11.062L8.724,11.062L8.724,9.417L8.599,9.417C8.474,9.625 8.273,9.875 7.995,10.167C7.717,10.458 7.342,10.715 6.87,10.937C6.412,11.16 5.835,11.271 5.141,11.271C4.308,11.271 3.578,11.111 2.953,10.792C2.342,10.458 1.828,10.021 1.412,9.479C0.995,8.923 0.683,8.305 0.474,7.625C0.28,6.944 0.183,6.25 0.183,5.542C0.183,4.833 0.28,4.139 0.474,3.458C0.683,2.778 0.995,2.167 1.412,1.625C1.828,1.069 2.342,0.632 2.953,0.312C3.578,-0.021 4.308,-0.188 5.141,-0.188ZM5.662,1.792C4.981,1.792 4.412,1.979 3.953,2.354C3.495,2.715 3.148,3.18 2.912,3.75C2.69,4.319 2.578,4.917 2.578,5.542C2.578,6.167 2.69,6.764 2.912,7.333C3.148,7.903 3.495,8.375 3.953,8.75C4.412,9.111 4.981,9.292 5.662,9.292C6.342,9.292 6.905,9.111 7.349,8.75C7.808,8.375 8.148,7.903 8.37,7.333C8.606,6.764 8.724,6.167 8.724,5.542C8.724,4.917 8.606,4.319 8.37,3.75C8.148,3.18 7.808,2.715 7.349,2.354C6.905,1.979 6.342,1.792 5.662,1.792Z" fill="#0A2533"/>
</svg>
