<svg width="12" height="14" viewBox="0 0 12 14" fill="none" xmlns="http://www.w3.org/2000/svg" xmlns:xlink="http://www.w3.org/1999/xlink">
<path d="M6.136,12.292C5.233,12.292 4.442,12.132 3.761,11.812C3.081,11.479 2.511,11.042 2.053,10.5C1.608,9.944 1.268,9.326 1.032,8.646C0.81,7.965 0.699,7.271 0.699,6.562C0.699,5.854 0.81,5.167 1.032,4.5C1.254,3.819 1.588,3.201 2.032,2.646C2.49,2.09 3.06,1.653 3.74,1.333C4.421,1 5.22,0.833 6.136,0.833C7.025,0.833 7.761,0.965 8.345,1.229C8.928,1.493 9.393,1.826 9.74,2.229C10.101,2.618 10.365,3.014 10.532,3.417C10.713,3.805 10.831,4.132 10.886,4.396C10.942,4.66 10.97,4.792 10.97,4.792L9.053,4.792C9.053,4.792 9.018,4.68 8.949,4.458C8.879,4.222 8.747,3.958 8.553,3.667C8.358,3.375 8.067,3.118 7.678,2.896C7.289,2.66 6.775,2.542 6.136,2.542C5.372,2.542 4.727,2.736 4.199,3.125C3.685,3.5 3.296,3.993 3.032,4.604C2.782,5.215 2.657,5.868 2.657,6.562C2.657,7.257 2.782,7.91 3.032,8.521C3.296,9.132 3.685,9.632 4.199,10.021C4.727,10.396 5.372,10.583 6.136,10.583C6.775,10.583 7.289,10.472 7.678,10.25C8.067,10.014 8.358,9.75 8.553,9.458C8.747,9.167 8.879,8.91 8.949,8.687C9.018,8.451 9.053,8.333 9.053,8.333L10.97,8.333C10.97,8.333 10.942,8.465 10.886,8.729C10.831,8.993 10.713,9.326 10.532,9.729C10.365,10.118 10.101,10.514 9.74,10.917C9.393,11.305 8.928,11.632 8.345,11.896C7.761,12.16 7.025,12.292 6.136,12.292Z" fill="#48525F"/>
</svg>
