<svg width="4" height="18" viewBox="0 0 4 18" fill="none" xmlns="http://www.w3.org/2000/svg" xmlns:xlink="http://www.w3.org/1999/xlink">
<path d="M1.959,2.937C1.584,2.937 1.272,2.812 1.022,2.562C0.786,2.312 0.667,2.014 0.667,1.666C0.667,1.305 0.786,1 1.022,0.75C1.272,0.5 1.584,0.375 1.959,0.375C2.32,0.375 2.626,0.5 2.876,0.75C3.126,1 3.251,1.305 3.251,1.666C3.251,2.014 3.126,2.312 2.876,2.562C2.626,2.812 2.32,2.937 1.959,2.937ZM0.98,16.083L0.98,5.041L2.959,5.041L2.959,16.083L0.98,16.083Z" fill="#48525F"/>
</svg>
