<svg width="52" height="32" viewBox="0 0 52 32" fill="none" xmlns="http://www.w3.org/2000/svg" xmlns:xlink="http://www.w3.org/1999/xlink">
<path d="M44.201,0.54L5.729,0.54C3.994,0.54 2.33,1.14 1.104,2.207C-0.123,3.275 -0.812,4.723 -0.812,6.233L-0.812,20.468C-0.812,23.613 2.115,26.161 5.317,26.161L15.545,26.161C19.653,26.161 22.369,31.79 24.763,31.79C27.156,31.79 30.318,26.161 34.005,26.161L44.201,26.161C45.936,26.161 47.601,25.561 48.829,24.494C50.057,23.426 50.748,21.978 50.75,20.468L50.75,6.233C50.748,4.722 50.057,3.274 48.829,2.207C47.601,1.14 45.936,0.54 44.201,0.54L44.201,0.54Z" clip-rule="evenodd" fill-rule="evenodd" fill="#F05161"/>
</svg>
