<svg width="10" height="12" viewBox="0 0 10 12" fill="none" xmlns="http://www.w3.org/2000/svg" xmlns:xlink="http://www.w3.org/1999/xlink">
<path d="M-0.635,11.729L-0.635,0.687L1.344,0.687L1.344,2.292L1.469,2.292C1.566,2.125 1.726,1.896 1.948,1.604C2.184,1.312 2.518,1.055 2.948,0.833C3.379,0.597 3.92,0.479 4.573,0.479C5.379,0.479 6.066,0.667 6.636,1.042C7.205,1.403 7.636,1.896 7.927,2.521C8.233,3.146 8.386,3.847 8.386,4.625L8.386,11.729L6.406,11.729L6.406,4.75C6.406,4.014 6.198,3.403 5.781,2.917C5.379,2.43 4.788,2.187 4.011,2.187C3.386,2.187 2.879,2.347 2.49,2.667C2.101,2.972 1.809,3.382 1.615,3.896C1.434,4.396 1.344,4.93 1.344,5.5L1.344,11.729L-0.635,11.729Z" fill="#48525F"/>
</svg>
