<svg width="134" height="138" viewBox="0 0 134 138" fill="none" xmlns="http://www.w3.org/2000/svg" xmlns:xlink="http://www.w3.org/1999/xlink">
<path d="M67.077,136.045C60.761,136.045 24.919,99.878 10.709,77.47C8.656,74.719 6.761,71.181 5.024,67.249L4.551,66.07C4.235,65.087 3.761,64.104 3.445,62.728C3.13,61.746 2.814,60.566 2.498,59.387C1.393,54.669 0.761,50.345 0.761,46.217C0.761,20.665 17.498,-0.171 38.024,-0.171C49.393,-0.171 60.13,6.316 67.077,17.323C74.024,6.316 84.761,-0.171 96.13,-0.171C116.656,-0.171 133.393,20.665 133.393,46.217C133.393,50.738 132.603,54.866 131.656,59.19C131.498,60.566 131.024,61.746 130.709,62.925L130.551,63.318C130.393,63.711 130.235,64.104 130.077,64.497C129.919,64.891 129.761,65.48 129.445,66.07L129.445,66.267L129.13,67.249C127.393,71.377 125.498,74.719 123.445,77.667C109.235,99.878 73.393,136.045 67.077,136.045ZM12.287,63.318C13.709,66.463 15.13,69.018 16.551,70.984L16.709,71.377C31.235,93.982 60.761,121.893 67.077,125.824C73.393,121.697 102.919,93.982 117.288,71.181L117.445,70.787C119.024,68.822 120.445,66.267 121.709,63.122L121.709,62.728L122.34,61.549C122.498,61.156 122.656,60.763 122.814,60.173C122.972,59.78 123.13,59.19 123.288,58.601C123.445,57.814 123.761,57.225 123.761,56.635L123.761,56.439C124.551,52.704 125.182,49.362 125.182,45.824C125.182,25.579 112.077,9.264 95.814,9.264C85.077,9.264 75.445,16.34 70.235,28.134L67.077,36.389L63.603,28.724C58.393,16.93 48.761,9.854 38.024,9.854C21.761,9.657 8.656,25.972 8.656,46.217C8.656,49.362 9.13,52.9 10.077,56.439L10.235,57.028C10.393,57.618 10.551,58.404 10.866,59.19L11.024,59.387C11.182,60.173 11.498,60.959 11.972,61.746L12.603,62.925L12.603,63.318L12.287,63.318Z" fill="#FF785B"/>
</svg>
