<svg width="36" height="38" viewBox="0 0 36 38" fill="none" xmlns="http://www.w3.org/2000/svg" xmlns:xlink="http://www.w3.org/1999/xlink">
<path d="M17.03,36.407C15.386,36.407 6.052,26.988 2.351,21.153C1.817,20.437 1.323,19.515 0.871,18.491L0.748,18.184C0.665,17.928 0.542,17.672 0.46,17.314C0.378,17.058 0.295,16.751 0.213,16.444C-0.075,15.215 -0.239,14.089 -0.239,13.014C-0.239,6.36 4.119,0.934 9.465,0.934C12.425,0.934 15.221,2.623 17.03,5.49C18.84,2.623 21.636,0.934 24.596,0.934C29.942,0.934 34.3,6.36 34.3,13.014C34.3,14.192 34.095,15.267 33.848,16.393C33.807,16.751 33.683,17.058 33.601,17.365L33.56,17.468C33.519,17.57 33.478,17.672 33.437,17.775C33.396,17.877 33.355,18.031 33.272,18.184L33.272,18.235L33.19,18.491C32.738,19.566 32.244,20.437 31.71,21.204C28.009,26.988 18.675,36.407 17.03,36.407ZM2.762,17.468C3.132,18.287 3.503,18.952 3.873,19.464L3.914,19.566C7.697,25.453 15.386,32.721 17.03,33.745C18.675,32.67 26.364,25.453 30.106,19.515L30.147,19.413C30.558,18.901 30.929,18.235 31.258,17.416L31.258,17.314L31.422,17.007C31.463,16.905 31.504,16.802 31.545,16.649C31.586,16.546 31.628,16.393 31.669,16.239C31.71,16.034 31.792,15.881 31.792,15.727L31.792,15.676C31.998,14.704 32.162,13.833 32.162,12.912C32.162,7.64 28.749,3.391 24.514,3.391C21.718,3.391 19.21,5.234 17.853,8.305L17.03,10.455L16.126,8.459C14.769,5.387 12.261,3.545 9.465,3.545C5.229,3.493 1.817,7.742 1.817,13.014C1.817,13.833 1.94,14.755 2.187,15.676L2.228,15.83C2.269,15.983 2.31,16.188 2.392,16.393L2.433,16.444C2.475,16.649 2.557,16.853 2.68,17.058L2.845,17.365L2.845,17.468L2.762,17.468Z" fill="#FFC6BA"/>
</svg>
