<svg width="10" height="14" viewBox="0 0 10 14" fill="none" xmlns="http://www.w3.org/2000/svg" xmlns:xlink="http://www.w3.org/1999/xlink">
<path d="M5.022,12.292C4.12,12.292 3.335,12.132 2.668,11.812C2.015,11.479 1.474,11.035 1.043,10.479C0.627,9.924 0.314,9.312 0.106,8.646C-0.103,7.965 -0.207,7.271 -0.207,6.562C-0.207,5.868 -0.11,5.18 0.085,4.5C0.293,3.819 0.606,3.201 1.022,2.646C1.453,2.09 1.988,1.653 2.627,1.333C3.279,1 4.05,0.833 4.939,0.833C5.883,0.833 6.717,1.049 7.439,1.479C8.161,1.91 8.731,2.549 9.147,3.396C9.564,4.243 9.772,5.305 9.772,6.583L9.772,7.167L1.793,7.167C1.835,7.792 1.981,8.368 2.231,8.896C2.495,9.41 2.863,9.826 3.335,10.146C3.807,10.451 4.37,10.604 5.022,10.604C5.592,10.604 6.05,10.514 6.397,10.333C6.758,10.139 7.043,9.917 7.252,9.667C7.46,9.417 7.599,9.201 7.668,9.021C7.752,8.826 7.793,8.729 7.793,8.729L9.647,8.729C9.647,8.729 9.613,8.854 9.543,9.104C9.474,9.34 9.349,9.632 9.168,9.979C8.988,10.326 8.724,10.68 8.377,11.042C8.029,11.389 7.585,11.687 7.043,11.937C6.502,12.174 5.828,12.292 5.022,12.292ZM1.814,5.625L7.835,5.625C7.807,4.903 7.654,4.319 7.377,3.875C7.099,3.417 6.745,3.076 6.314,2.854C5.883,2.632 5.425,2.521 4.939,2.521C4.064,2.521 3.349,2.805 2.793,3.375C2.238,3.93 1.911,4.68 1.814,5.625Z" fill="#48525F"/>
</svg>
