<svg width="12" height="14" viewBox="0 0 12 14" fill="none" xmlns="http://www.w3.org/2000/svg" xmlns:xlink="http://www.w3.org/1999/xlink">
<path d="M4.617,12.292C3.436,12.292 2.443,12.021 1.638,11.479C0.832,10.924 0.221,10.208 -0.196,9.333C-0.612,8.458 -0.821,7.535 -0.821,6.562C-0.821,5.576 -0.612,4.653 -0.196,3.792C0.221,2.917 0.832,2.208 1.638,1.667C2.443,1.111 3.436,0.833 4.617,0.833C5.797,0.833 6.79,1.111 7.596,1.667C8.401,2.208 9.013,2.917 9.429,3.792C9.846,4.653 10.054,5.576 10.054,6.562C10.054,7.535 9.846,8.458 9.429,9.333C9.013,10.208 8.401,10.924 7.596,11.479C6.79,12.021 5.797,12.292 4.617,12.292ZM4.617,10.562C5.367,10.562 5.992,10.375 6.492,10C7.006,9.611 7.388,9.111 7.638,8.5C7.901,7.889 8.033,7.243 8.033,6.562C8.033,5.868 7.901,5.222 7.638,4.625C7.388,4.014 7.006,3.521 6.492,3.146C5.992,2.757 5.367,2.562 4.617,2.562C3.881,2.562 3.256,2.757 2.742,3.146C2.228,3.521 1.839,4.014 1.575,4.625C1.325,5.222 1.2,5.868 1.2,6.562C1.2,7.243 1.325,7.889 1.575,8.5C1.839,9.111 2.228,9.611 2.742,10C3.256,10.375 3.881,10.562 4.617,10.562Z" fill="#48525F"/>
</svg>
