<svg width="12" height="12" viewBox="0 0 12 12" fill="none" xmlns="http://www.w3.org/2000/svg" xmlns:xlink="http://www.w3.org/1999/xlink">
<path d="M6.178,11.937C4.997,11.937 4.004,11.667 3.199,11.125C2.393,10.569 1.782,9.854 1.365,8.979C0.949,8.104 0.74,7.18 0.74,6.208C0.74,5.222 0.949,4.298 1.365,3.437C1.782,2.562 2.393,1.854 3.199,1.312C4.004,0.757 4.997,0.479 6.178,0.479C7.358,0.479 8.351,0.757 9.157,1.312C9.962,1.854 10.574,2.562 10.99,3.437C11.407,4.298 11.615,5.222 11.615,6.208C11.615,7.18 11.407,8.104 10.99,8.979C10.574,9.854 9.962,10.569 9.157,11.125C8.351,11.667 7.358,11.937 6.178,11.937ZM6.178,10.208C6.928,10.208 7.553,10.021 8.053,9.646C8.567,9.257 8.949,8.757 9.199,8.146C9.462,7.535 9.594,6.889 9.594,6.208C9.594,5.514 9.462,4.868 9.199,4.271C8.949,3.66 8.567,3.167 8.053,2.792C7.553,2.403 6.928,2.208 6.178,2.208C5.442,2.208 4.817,2.403 4.303,2.792C3.789,3.167 3.4,3.66 3.136,4.271C2.886,4.868 2.761,5.514 2.761,6.208C2.761,6.889 2.886,7.535 3.136,8.146C3.4,8.757 3.789,9.257 4.303,9.646C4.817,10.021 5.442,10.208 6.178,10.208Z" fill="#48525F"/>
</svg>
