<svg width="34" height="38" viewBox="0 0 34 38" fill="none" xmlns="http://www.w3.org/2000/svg" xmlns:xlink="http://www.w3.org/1999/xlink">
<path d="M16.406,36.241C14.761,36.241 5.428,26.822 1.727,20.987C1.192,20.27 0.699,19.349 0.247,18.325L0.123,18.018C0.041,17.762 -0.082,17.506 -0.165,17.148C-0.247,16.892 -0.329,16.585 -0.411,16.277C-0.699,15.049 -0.864,13.923 -0.864,12.848C-0.864,6.193 3.495,0.768 8.84,0.768C11.801,0.768 14.597,2.457 16.406,5.323C18.215,2.457 21.011,0.768 23.972,0.768C29.317,0.768 33.676,6.193 33.676,12.848C33.676,14.025 33.47,15.1 33.224,16.226C33.182,16.585 33.059,16.892 32.977,17.199L32.936,17.301C32.895,17.404 32.854,17.506 32.812,17.608C32.771,17.711 32.73,17.864 32.648,18.018L32.648,18.069L32.566,18.325C32.113,19.4 31.62,20.27 31.085,21.038C27.385,26.822 18.051,36.241 16.406,36.241ZM2.138,17.301C2.508,18.12 2.878,18.786 3.248,19.297L3.289,19.4C7.072,25.286 14.761,32.555 16.406,33.579C18.051,32.504 25.74,25.286 29.482,19.349L29.523,19.246C29.934,18.734 30.304,18.069 30.633,17.25L30.633,17.148L30.798,16.84C30.839,16.738 30.88,16.636 30.921,16.482C30.962,16.38 31.003,16.226 31.044,16.073C31.085,15.868 31.168,15.714 31.168,15.561L31.168,15.51C31.373,14.537 31.538,13.667 31.538,12.745C31.538,7.473 28.125,3.225 23.89,3.225C21.094,3.225 18.585,5.067 17.229,8.139L16.406,10.288L15.502,8.292C14.145,5.221 11.636,3.378 8.84,3.378C4.605,3.327 1.192,7.576 1.192,12.848C1.192,13.667 1.316,14.588 1.562,15.51L1.604,15.663C1.645,15.817 1.686,16.021 1.768,16.226L1.809,16.277C1.85,16.482 1.932,16.687 2.056,16.892L2.22,17.199L2.22,17.301L2.138,17.301Z" fill="#FFC6BA"/>
</svg>
