<svg width="10" height="14" viewBox="0 0 10 14" fill="none" xmlns="http://www.w3.org/2000/svg" xmlns:xlink="http://www.w3.org/1999/xlink">
<path d="M4.427,12.292C3.58,12.292 2.878,12.174 2.323,11.937C1.781,11.701 1.351,11.41 1.031,11.062C0.712,10.701 0.476,10.347 0.323,10C0.17,9.639 0.073,9.34 0.031,9.104C-0.01,8.868 -0.031,8.75 -0.031,8.75L1.969,8.75C1.969,8.75 1.99,8.847 2.031,9.042C2.087,9.222 2.191,9.437 2.344,9.687C2.51,9.924 2.76,10.139 3.094,10.333C3.441,10.514 3.899,10.604 4.469,10.604C5.122,10.604 5.628,10.451 5.99,10.146C6.351,9.826 6.531,9.437 6.531,8.979C6.531,8.576 6.385,8.257 6.094,8.021C5.816,7.785 5.413,7.604 4.885,7.479L3.385,7.125C2.83,6.986 2.309,6.799 1.823,6.562C1.337,6.326 0.941,6.007 0.635,5.604C0.344,5.187 0.198,4.674 0.198,4.062C0.198,3.118 0.552,2.347 1.26,1.75C1.969,1.139 2.892,0.833 4.031,0.833C4.795,0.833 5.427,0.944 5.927,1.167C6.427,1.375 6.823,1.639 7.115,1.958C7.42,2.278 7.642,2.597 7.781,2.917C7.934,3.236 8.031,3.507 8.073,3.729C8.115,3.937 8.135,4.042 8.135,4.042L6.219,4.042C6.219,4.042 6.198,3.965 6.156,3.812C6.115,3.646 6.017,3.465 5.865,3.271C5.726,3.062 5.51,2.882 5.219,2.729C4.927,2.562 4.538,2.479 4.052,2.479C3.385,2.479 2.899,2.632 2.594,2.937C2.288,3.243 2.135,3.576 2.135,3.937C2.135,4.285 2.274,4.569 2.552,4.792C2.844,5 3.219,5.16 3.677,5.271L5.198,5.625C6.142,5.847 6.92,6.215 7.531,6.729C8.156,7.229 8.469,7.951 8.469,8.896C8.469,9.507 8.309,10.076 7.99,10.604C7.67,11.118 7.212,11.528 6.615,11.833C6.017,12.139 5.288,12.292 4.427,12.292Z" fill="#48525F"/>
</svg>
