<svg width="34" height="36" viewBox="0 0 34 36" fill="none" xmlns="http://www.w3.org/2000/svg" xmlns:xlink="http://www.w3.org/1999/xlink">
<path d="M16.489,35.865C14.845,35.865 5.511,26.447 1.81,20.611C1.276,19.895 0.782,18.973 0.33,17.95L0.207,17.643C0.124,17.387 0.001,17.131 -0.081,16.772C-0.163,16.516 -0.246,16.209 -0.328,15.902C-0.616,14.674 -0.78,13.548 -0.78,12.473C-0.78,5.818 3.578,0.392 8.924,0.392C11.884,0.392 14.68,2.082 16.489,4.948C18.299,2.082 21.095,0.392 24.055,0.392C29.401,0.392 33.759,5.818 33.759,12.473C33.759,13.65 33.554,14.725 33.307,15.851C33.266,16.209 33.142,16.516 33.06,16.824L33.019,16.926C32.978,17.028 32.937,17.131 32.896,17.233C32.855,17.335 32.814,17.489 32.731,17.643L32.731,17.694L32.649,17.95C32.197,19.025 31.703,19.895 31.169,20.663C27.468,26.447 18.134,35.865 16.489,35.865ZM2.221,16.926C2.591,17.745 2.962,18.41 3.332,18.922L3.373,19.025C7.156,24.911 14.845,32.18 16.489,33.204C18.134,32.129 25.823,24.911 29.565,18.973L29.606,18.871C30.017,18.359 30.388,17.694 30.717,16.875L30.717,16.772L30.881,16.465C30.922,16.363 30.963,16.26 31.004,16.107C31.045,16.005 31.087,15.851 31.128,15.697C31.169,15.493 31.251,15.339 31.251,15.186L31.251,15.134C31.457,14.162 31.621,13.292 31.621,12.37C31.621,7.098 28.208,2.849 23.973,2.849C21.177,2.849 18.669,4.692 17.312,7.763L16.489,9.913L15.585,7.917C14.228,4.846 11.72,3.003 8.924,3.003C4.688,2.952 1.276,7.2 1.276,12.473C1.276,13.292 1.399,14.213 1.646,15.134L1.687,15.288C1.728,15.441 1.769,15.646 1.851,15.851L1.892,15.902C1.934,16.107 2.016,16.312 2.139,16.516L2.304,16.824L2.304,16.926L2.221,16.926Z" fill="#FFC6BA"/>
</svg>
