<svg width="86" height="60" viewBox="0 0 86 60" fill="none" xmlns="http://www.w3.org/2000/svg" xmlns:xlink="http://www.w3.org/1999/xlink">
<path d="M2.667,-0.333C1.562,-0.333 0.667,0.562 0.667,1.667C0.667,2.771 1.562,3.667 2.667,3.667L2.667,-0.333ZM17.334,1.667L19.295,1.274C19.108,0.339 18.287,-0.333 17.334,-0.333L17.334,1.667ZM27.16,50.763L29.122,50.374L29.121,50.371L27.16,50.763ZM34.494,56.667L34.494,54.667C34.481,54.667 34.468,54.667 34.455,54.667L34.494,56.667ZM70.134,56.667L70.172,54.667C70.159,54.667 70.146,54.667 70.134,54.667L70.134,56.667ZM77.467,50.763L79.429,51.153L79.432,51.138L77.467,50.763ZM83.334,20L85.298,20.374C85.41,19.789 85.255,19.184 84.875,18.725C84.495,18.266 83.93,18 83.334,18L83.334,20ZM21,18C19.896,18 19,18.895 19,20C19,21.104 19.896,22 21,22L21,18ZM2.667,3.667L17.334,3.667L17.334,-0.333L2.667,-0.333L2.667,3.667ZM15.373,2.059L25.199,51.156L29.121,50.371L19.295,1.274L15.373,2.059ZM25.199,51.153C25.625,53.301 26.794,55.231 28.501,56.605L31.009,53.489C30.034,52.704 29.366,51.601 29.122,50.374L25.199,51.153ZM28.501,56.605C30.207,57.979 32.342,58.708 34.532,58.666L34.455,54.667C33.204,54.691 31.984,54.274 31.009,53.489L28.501,56.605ZM34.494,58.667L70.134,58.667L70.134,54.667L34.494,54.667L34.494,58.667ZM70.095,58.666C72.285,58.708 74.42,57.979 76.127,56.605L73.619,53.489C72.644,54.274 71.423,54.691 70.172,54.667L70.095,58.666ZM76.127,56.605C77.833,55.231 79.002,53.301 79.429,51.153L75.505,50.374C75.261,51.601 74.594,52.704 73.619,53.489L76.127,56.605ZM79.432,51.138L85.298,20.374L81.369,19.625L75.502,50.389L79.432,51.138ZM83.334,18L21,18L21,22L83.334,22L83.334,18Z" fill="#C00033"/>
</svg>
