<svg width="8" height="14" viewBox="0 0 8 14" fill="none" xmlns="http://www.w3.org/2000/svg" xmlns:xlink="http://www.w3.org/1999/xlink">
<path d="M3.462,12.292C2.615,12.292 1.914,12.174 1.358,11.937C0.816,11.701 0.386,11.41 0.066,11.062C-0.253,10.701 -0.489,10.347 -0.642,10C-0.795,9.639 -0.892,9.34 -0.934,9.104C-0.975,8.868 -0.996,8.75 -0.996,8.75L1.004,8.75C1.004,8.75 1.025,8.847 1.066,9.042C1.122,9.222 1.226,9.437 1.379,9.687C1.546,9.924 1.796,10.139 2.129,10.333C2.476,10.514 2.934,10.604 3.504,10.604C4.157,10.604 4.664,10.451 5.025,10.146C5.386,9.826 5.566,9.437 5.566,8.979C5.566,8.576 5.421,8.257 5.129,8.021C4.851,7.785 4.448,7.604 3.921,7.479L2.421,7.125C1.865,6.986 1.344,6.799 0.858,6.562C0.372,6.326 -0.024,6.007 -0.329,5.604C-0.621,5.187 -0.767,4.674 -0.767,4.062C-0.767,3.118 -0.413,2.347 0.296,1.75C1.004,1.139 1.928,0.833 3.066,0.833C3.83,0.833 4.462,0.944 4.962,1.167C5.462,1.375 5.858,1.639 6.15,1.958C6.455,2.278 6.678,2.597 6.816,2.917C6.969,3.236 7.066,3.507 7.108,3.729C7.15,3.937 7.171,4.042 7.171,4.042L5.254,4.042C5.254,4.042 5.233,3.965 5.191,3.812C5.15,3.646 5.053,3.465 4.9,3.271C4.761,3.062 4.546,2.882 4.254,2.729C3.962,2.562 3.573,2.479 3.087,2.479C2.421,2.479 1.934,2.632 1.629,2.937C1.323,3.243 1.171,3.576 1.171,3.937C1.171,4.285 1.309,4.569 1.587,4.792C1.879,5 2.254,5.16 2.712,5.271L4.233,5.625C5.178,5.847 5.955,6.215 6.566,6.729C7.191,7.229 7.504,7.951 7.504,8.896C7.504,9.507 7.344,10.076 7.025,10.604C6.705,11.118 6.247,11.528 5.65,11.833C5.053,12.139 4.323,12.292 3.462,12.292Z" fill="#48525F"/>
</svg>
