<svg width="12" height="12" viewBox="0 0 12 12" fill="none" xmlns="http://www.w3.org/2000/svg" xmlns:xlink="http://www.w3.org/1999/xlink">
<path d="M4.794,11.937C3.613,11.937 2.62,11.667 1.815,11.125C1.009,10.569 0.398,9.854 -0.019,8.979C-0.435,8.104 -0.644,7.18 -0.644,6.208C-0.644,5.222 -0.435,4.298 -0.019,3.437C0.398,2.562 1.009,1.854 1.815,1.312C2.62,0.757 3.613,0.479 4.794,0.479C5.975,0.479 6.968,0.757 7.773,1.312C8.579,1.854 9.19,2.562 9.606,3.437C10.023,4.298 10.231,5.222 10.231,6.208C10.231,7.18 10.023,8.104 9.606,8.979C9.19,9.854 8.579,10.569 7.773,11.125C6.968,11.667 5.975,11.937 4.794,11.937ZM4.794,10.208C5.544,10.208 6.169,10.021 6.669,9.646C7.183,9.257 7.565,8.757 7.815,8.146C8.079,7.535 8.211,6.889 8.211,6.208C8.211,5.514 8.079,4.868 7.815,4.271C7.565,3.66 7.183,3.167 6.669,2.792C6.169,2.403 5.544,2.208 4.794,2.208C4.058,2.208 3.433,2.403 2.919,2.792C2.405,3.167 2.016,3.66 1.752,4.271C1.502,4.868 1.377,5.514 1.377,6.208C1.377,6.889 1.502,7.535 1.752,8.146C2.016,8.757 2.405,9.257 2.919,9.646C3.433,10.021 4.058,10.208 4.794,10.208Z" fill="#48525F"/>
</svg>
