<svg width="12" height="16" viewBox="0 0 12 16" fill="none" xmlns="http://www.w3.org/2000/svg" xmlns:xlink="http://www.w3.org/1999/xlink">
<path d="M0.354,15.187L0.354,13.75L3.729,10.625C4.674,9.75 5.5,8.986 6.208,8.333C6.93,7.666 7.493,7.021 7.896,6.396C8.299,5.771 8.5,5.083 8.5,4.333C8.5,3.708 8.347,3.18 8.042,2.75C7.75,2.319 7.368,1.993 6.896,1.771C6.437,1.534 5.958,1.416 5.458,1.416C4.805,1.416 4.271,1.528 3.854,1.75C3.437,1.972 3.118,2.25 2.896,2.583C2.674,2.903 2.514,3.229 2.417,3.562C2.319,3.882 2.264,4.153 2.25,4.375C2.236,4.597 2.229,4.708 2.229,4.708L0.271,4.708C0.271,4.708 0.278,4.583 0.292,4.333C0.305,4.083 0.354,3.764 0.437,3.375C0.535,2.986 0.687,2.576 0.896,2.146C1.104,1.701 1.396,1.284 1.771,0.896C2.16,0.507 2.653,0.187 3.25,-0.063C3.861,-0.313 4.604,-0.438 5.479,-0.438C6.368,-0.438 7.194,-0.25 7.958,0.125C8.736,0.486 9.361,1.021 9.833,1.729C10.305,2.423 10.542,3.278 10.542,4.291C10.542,5.222 10.305,6.069 9.833,6.833C9.375,7.583 8.764,8.319 8,9.041C7.236,9.764 6.403,10.541 5.5,11.375L3.375,13.333L10.875,13.333L10.875,15.187L0.354,15.187Z" fill="#48525F"/>
</svg>
