<svg width="10" height="16" viewBox="0 0 10 16" fill="none" xmlns="http://www.w3.org/2000/svg" xmlns:xlink="http://www.w3.org/1999/xlink">
<path d="M6.401,14.292C5.262,14.292 4.401,14 3.817,13.417C3.248,12.833 2.963,12.014 2.963,10.958L2.963,4.667L0.984,4.667L0.984,3.042L2.963,3.042L2.963,0.271L4.942,0.271L4.942,3.042L7.63,3.042L7.63,4.667L4.942,4.667L4.942,10.958C4.942,11.514 5.095,11.924 5.401,12.187C5.706,12.437 6.151,12.562 6.734,12.562C7.039,12.562 7.331,12.542 7.609,12.5C7.887,12.458 8.026,12.437 8.026,12.437L8.026,14.125C8.026,14.125 7.866,14.153 7.546,14.208C7.227,14.264 6.845,14.292 6.401,14.292Z" fill="#48525F"/>
</svg>
