<svg width="12" height="16" viewBox="0 0 12 16" fill="none" xmlns="http://www.w3.org/2000/svg" xmlns:xlink="http://www.w3.org/1999/xlink">
<path d="M0.039,15.812L0.039,0.687L2.018,0.687L2.018,2.437L2.143,2.437C2.309,2.173 2.532,1.889 2.809,1.583C3.101,1.278 3.483,1.021 3.955,0.812C4.427,0.59 5.011,0.479 5.705,0.479C6.539,0.479 7.268,0.646 7.893,0.979C8.518,1.298 9.039,1.736 9.455,2.292C9.872,2.833 10.184,3.444 10.393,4.125C10.601,4.805 10.705,5.5 10.705,6.208C10.705,6.917 10.601,7.611 10.393,8.292C10.184,8.972 9.872,9.59 9.455,10.146C9.039,10.687 8.518,11.125 7.893,11.458C7.268,11.778 6.539,11.937 5.705,11.937C5.011,11.937 4.427,11.826 3.955,11.604C3.483,11.382 3.101,11.118 2.809,10.812C2.532,10.507 2.309,10.229 2.143,9.979L2.018,9.979L2.018,15.812L0.039,15.812ZM2.059,6.208C2.059,6.875 2.177,7.521 2.414,8.146C2.664,8.757 3.032,9.264 3.518,9.667C4.018,10.055 4.636,10.25 5.372,10.25C6.122,10.25 6.74,10.055 7.226,9.667C7.726,9.264 8.094,8.757 8.33,8.146C8.58,7.521 8.705,6.875 8.705,6.208C8.705,5.528 8.58,4.882 8.33,4.271C8.094,3.66 7.726,3.16 7.226,2.771C6.74,2.368 6.122,2.167 5.372,2.167C4.636,2.167 4.018,2.368 3.518,2.771C3.032,3.16 2.664,3.66 2.414,4.271C2.177,4.882 2.059,5.528 2.059,6.208Z" fill="#48525F"/>
</svg>
