<svg width="34" height="36" viewBox="0 0 34 36" fill="none" xmlns="http://www.w3.org/2000/svg" xmlns:xlink="http://www.w3.org/1999/xlink">
<path d="M16.406,35.323C14.761,35.323 5.428,25.904 1.727,20.069C1.192,19.353 0.699,18.431 0.247,17.407L0.123,17.1C0.041,16.844 -0.082,16.588 -0.165,16.23C-0.247,15.974 -0.329,15.667 -0.411,15.36C-0.699,14.131 -0.864,13.005 -0.864,11.93C-0.864,5.276 3.495,-0.15 8.84,-0.15C11.801,-0.15 14.597,1.539 16.406,4.406C18.215,1.539 21.011,-0.15 23.972,-0.15C29.317,-0.15 33.676,5.276 33.676,11.93C33.676,13.108 33.47,14.183 33.224,15.309C33.182,15.667 33.059,15.974 32.977,16.281L32.936,16.384C32.895,16.486 32.854,16.588 32.812,16.691C32.771,16.793 32.73,16.947 32.648,17.1L32.648,17.151L32.566,17.407C32.113,18.482 31.62,19.353 31.085,20.12C27.385,25.904 18.051,35.323 16.406,35.323ZM2.138,16.384C2.508,17.203 2.878,17.868 3.248,18.38L3.289,18.482C7.072,24.369 14.761,31.637 16.406,32.661C18.051,31.586 25.74,24.369 29.482,18.431L29.523,18.329C29.934,17.817 30.304,17.151 30.633,16.332L30.633,16.23L30.798,15.923C30.839,15.821 30.88,15.718 30.921,15.565C30.962,15.462 31.003,15.309 31.044,15.155C31.085,14.95 31.168,14.797 31.168,14.643L31.168,14.592C31.373,13.62 31.538,12.749 31.538,11.828C31.538,6.556 28.125,2.307 23.89,2.307C21.094,2.307 18.585,4.15 17.229,7.221L16.406,9.371L15.502,7.375C14.145,4.303 11.636,2.461 8.84,2.461C4.605,2.409 1.192,6.658 1.192,11.93C1.192,12.749 1.316,13.671 1.562,14.592L1.604,14.746C1.645,14.899 1.686,15.104 1.768,15.309L1.809,15.36C1.85,15.565 1.932,15.769 2.056,15.974L2.22,16.281L2.22,16.384L2.138,16.384Z" fill="#FFC6BA"/>
</svg>
