<svg width="10" height="12" viewBox="0 0 10 12" fill="none" xmlns="http://www.w3.org/2000/svg" xmlns:xlink="http://www.w3.org/1999/xlink">
<path d="M0.522,11.729L0.522,0.687L2.501,0.687L2.501,2.292L2.626,2.292C2.723,2.125 2.883,1.896 3.105,1.604C3.341,1.312 3.675,1.055 4.105,0.833C4.536,0.597 5.078,0.479 5.73,0.479C6.536,0.479 7.223,0.667 7.793,1.042C8.362,1.403 8.793,1.896 9.084,2.521C9.39,3.146 9.543,3.847 9.543,4.625L9.543,11.729L7.564,11.729L7.564,4.75C7.564,4.014 7.355,3.403 6.939,2.917C6.536,2.43 5.946,2.187 5.168,2.187C4.543,2.187 4.036,2.347 3.647,2.667C3.258,2.972 2.966,3.382 2.772,3.896C2.591,4.396 2.501,4.93 2.501,5.5L2.501,11.729L0.522,11.729Z" fill="#48525F"/>
</svg>
