<svg width="10" height="14" viewBox="0 0 10 14" fill="none" xmlns="http://www.w3.org/2000/svg" xmlns:xlink="http://www.w3.org/1999/xlink">
<path d="M4.75,12.292C3.847,12.292 3.062,12.132 2.396,11.812C1.743,11.479 1.201,11.035 0.771,10.479C0.354,9.924 0.041,9.312 -0.167,8.646C-0.375,7.965 -0.479,7.271 -0.479,6.562C-0.479,5.868 -0.382,5.18 -0.188,4.5C0.021,3.819 0.333,3.201 0.75,2.646C1.18,2.09 1.715,1.653 2.354,1.333C3.007,1 3.777,0.833 4.666,0.833C5.611,0.833 6.444,1.049 7.166,1.479C7.889,1.91 8.458,2.549 8.875,3.396C9.291,4.243 9.5,5.305 9.5,6.583L9.5,7.167L1.521,7.167C1.562,7.792 1.708,8.368 1.958,8.896C2.222,9.41 2.59,9.826 3.062,10.146C3.534,10.451 4.097,10.604 4.75,10.604C5.319,10.604 5.777,10.514 6.125,10.333C6.486,10.139 6.771,9.917 6.979,9.667C7.187,9.417 7.326,9.201 7.396,9.021C7.479,8.826 7.521,8.729 7.521,8.729L9.375,8.729C9.375,8.729 9.34,8.854 9.271,9.104C9.201,9.34 9.076,9.632 8.896,9.979C8.715,10.326 8.451,10.68 8.104,11.042C7.757,11.389 7.312,11.687 6.771,11.937C6.229,12.174 5.555,12.292 4.75,12.292ZM1.541,5.625L7.562,5.625C7.534,4.903 7.382,4.319 7.104,3.875C6.826,3.417 6.472,3.076 6.041,2.854C5.611,2.632 5.152,2.521 4.666,2.521C3.791,2.521 3.076,2.805 2.521,3.375C1.965,3.93 1.639,4.68 1.541,5.625Z" fill="#48525F"/>
</svg>
