<svg width="2" height="18" viewBox="0 0 2 18" fill="none" xmlns="http://www.w3.org/2000/svg" xmlns:xlink="http://www.w3.org/1999/xlink">
<path d="M0.485,2.937C0.11,2.937 -0.203,2.812 -0.453,2.562C-0.689,2.312 -0.807,2.014 -0.807,1.666C-0.807,1.305 -0.689,1 -0.453,0.75C-0.203,0.5 0.11,0.375 0.485,0.375C0.846,0.375 1.151,0.5 1.401,0.75C1.651,1 1.776,1.305 1.776,1.666C1.776,2.014 1.651,2.312 1.401,2.562C1.151,2.812 0.846,2.937 0.485,2.937ZM-0.495,16.083L-0.495,5.041L1.485,5.041L1.485,16.083L-0.495,16.083Z" fill="#48525F"/>
</svg>
