<svg width="10" height="12" viewBox="0 0 10 12" fill="none" xmlns="http://www.w3.org/2000/svg" xmlns:xlink="http://www.w3.org/1999/xlink">
<path d="M4.75,11.937C3.847,11.937 3.062,11.778 2.396,11.458C1.743,11.125 1.201,10.68 0.771,10.125C0.354,9.569 0.041,8.958 -0.167,8.292C-0.375,7.611 -0.479,6.917 -0.479,6.208C-0.479,5.514 -0.382,4.826 -0.188,4.146C0.021,3.465 0.333,2.847 0.75,2.292C1.18,1.736 1.715,1.298 2.354,0.979C3.007,0.646 3.777,0.479 4.666,0.479C5.611,0.479 6.444,0.694 7.166,1.125C7.889,1.555 8.458,2.194 8.875,3.042C9.291,3.889 9.5,4.951 9.5,6.229L9.5,6.812L1.521,6.812C1.562,7.437 1.708,8.014 1.958,8.542C2.222,9.055 2.59,9.472 3.062,9.792C3.534,10.097 4.097,10.25 4.75,10.25C5.319,10.25 5.777,10.16 6.125,9.979C6.486,9.785 6.771,9.562 6.979,9.312C7.187,9.062 7.326,8.847 7.396,8.667C7.479,8.472 7.521,8.375 7.521,8.375L9.375,8.375C9.375,8.375 9.34,8.5 9.271,8.75C9.201,8.986 9.076,9.278 8.896,9.625C8.715,9.972 8.451,10.326 8.104,10.687C7.757,11.035 7.312,11.333 6.771,11.583C6.229,11.819 5.555,11.937 4.75,11.937ZM1.541,5.271L7.562,5.271C7.534,4.548 7.382,3.965 7.104,3.521C6.826,3.062 6.472,2.722 6.041,2.5C5.611,2.278 5.152,2.167 4.666,2.167C3.791,2.167 3.076,2.451 2.521,3.021C1.965,3.576 1.639,4.326 1.541,5.271Z" fill="#48525F"/>
</svg>
