<svg width="12" height="12" viewBox="0 0 12 12" fill="none" xmlns="http://www.w3.org/2000/svg" xmlns:xlink="http://www.w3.org/1999/xlink">
<path d="M5.447,11.937C4.266,11.937 3.273,11.667 2.467,11.125C1.662,10.569 1.051,9.854 0.634,8.979C0.217,8.104 0.009,7.18 0.009,6.208C0.009,5.222 0.217,4.298 0.634,3.437C1.051,2.562 1.662,1.854 2.467,1.312C3.273,0.757 4.266,0.479 5.447,0.479C6.627,0.479 7.62,0.757 8.426,1.312C9.231,1.854 9.842,2.562 10.259,3.437C10.676,4.298 10.884,5.222 10.884,6.208C10.884,7.18 10.676,8.104 10.259,8.979C9.842,9.854 9.231,10.569 8.426,11.125C7.62,11.667 6.627,11.937 5.447,11.937ZM5.447,10.208C6.197,10.208 6.822,10.021 7.322,9.646C7.835,9.257 8.217,8.757 8.467,8.146C8.731,7.535 8.863,6.889 8.863,6.208C8.863,5.514 8.731,4.868 8.467,4.271C8.217,3.66 7.835,3.167 7.322,2.792C6.822,2.403 6.197,2.208 5.447,2.208C4.71,2.208 4.085,2.403 3.572,2.792C3.058,3.167 2.669,3.66 2.405,4.271C2.155,4.868 2.03,5.514 2.03,6.208C2.03,6.889 2.155,7.535 2.405,8.146C2.669,8.757 3.058,9.257 3.572,9.646C4.085,10.021 4.71,10.208 5.447,10.208Z" fill="#48525F"/>
</svg>
