<svg width="12" height="12" viewBox="0 0 12 12" fill="none" xmlns="http://www.w3.org/2000/svg" xmlns:xlink="http://www.w3.org/1999/xlink">
<path d="M5.472,11.937C4.569,11.937 3.778,11.778 3.097,11.458C2.417,11.125 1.847,10.687 1.389,10.146C0.944,9.59 0.604,8.972 0.368,8.292C0.146,7.611 0.035,6.917 0.035,6.208C0.035,5.5 0.146,4.812 0.368,4.146C0.59,3.465 0.924,2.847 1.368,2.292C1.826,1.736 2.396,1.298 3.076,0.979C3.757,0.646 4.556,0.479 5.472,0.479C6.361,0.479 7.097,0.611 7.681,0.875C8.264,1.139 8.729,1.472 9.076,1.875C9.437,2.264 9.701,2.66 9.868,3.062C10.049,3.451 10.167,3.778 10.222,4.042C10.278,4.305 10.306,4.437 10.306,4.437L8.389,4.437C8.389,4.437 8.354,4.326 8.285,4.104C8.215,3.868 8.083,3.604 7.889,3.312C7.694,3.021 7.403,2.764 7.014,2.542C6.625,2.305 6.111,2.187 5.472,2.187C4.708,2.187 4.062,2.382 3.535,2.771C3.021,3.146 2.632,3.639 2.368,4.25C2.118,4.861 1.993,5.514 1.993,6.208C1.993,6.903 2.118,7.555 2.368,8.167C2.632,8.778 3.021,9.278 3.535,9.667C4.062,10.042 4.708,10.229 5.472,10.229C6.111,10.229 6.625,10.118 7.014,9.896C7.403,9.66 7.694,9.396 7.889,9.104C8.083,8.812 8.215,8.555 8.285,8.333C8.354,8.097 8.389,7.979 8.389,7.979L10.306,7.979C10.306,7.979 10.278,8.111 10.222,8.375C10.167,8.639 10.049,8.972 9.868,9.375C9.701,9.764 9.437,10.16 9.076,10.562C8.729,10.951 8.264,11.278 7.681,11.542C7.097,11.805 6.361,11.937 5.472,11.937Z" fill="#48525F"/>
</svg>
