<svg width="12" height="12" viewBox="0 0 12 12" fill="none" xmlns="http://www.w3.org/2000/svg" xmlns:xlink="http://www.w3.org/1999/xlink">
<path d="M6.136,11.937C5.233,11.937 4.442,11.778 3.761,11.458C3.081,11.125 2.511,10.687 2.053,10.146C1.608,9.59 1.268,8.972 1.032,8.292C0.81,7.611 0.699,6.917 0.699,6.208C0.699,5.5 0.81,4.812 1.032,4.146C1.254,3.465 1.588,2.847 2.032,2.292C2.49,1.736 3.06,1.298 3.74,0.979C4.421,0.646 5.22,0.479 6.136,0.479C7.025,0.479 7.761,0.611 8.345,0.875C8.928,1.139 9.393,1.472 9.74,1.875C10.101,2.264 10.365,2.66 10.532,3.062C10.713,3.451 10.831,3.778 10.886,4.042C10.942,4.305 10.97,4.437 10.97,4.437L9.053,4.437C9.053,4.437 9.018,4.326 8.949,4.104C8.879,3.868 8.747,3.604 8.553,3.312C8.358,3.021 8.067,2.764 7.678,2.542C7.289,2.305 6.775,2.187 6.136,2.187C5.372,2.187 4.727,2.382 4.199,2.771C3.685,3.146 3.296,3.639 3.032,4.25C2.782,4.861 2.657,5.514 2.657,6.208C2.657,6.903 2.782,7.555 3.032,8.167C3.296,8.778 3.685,9.278 4.199,9.667C4.727,10.042 5.372,10.229 6.136,10.229C6.775,10.229 7.289,10.118 7.678,9.896C8.067,9.66 8.358,9.396 8.553,9.104C8.747,8.812 8.879,8.555 8.949,8.333C9.018,8.097 9.053,7.979 9.053,7.979L10.97,7.979C10.97,7.979 10.942,8.111 10.886,8.375C10.831,8.639 10.713,8.972 10.532,9.375C10.365,9.764 10.101,10.16 9.74,10.562C9.393,10.951 8.928,11.278 8.345,11.542C7.761,11.805 7.025,11.937 6.136,11.937Z" fill="#48525F"/>
</svg>
