<svg width="38" height="38" viewBox="0 0 38 38" fill="none" xmlns="http://www.w3.org/2000/svg" xmlns:xlink="http://www.w3.org/1999/xlink">
<path d="M18.333,37.104C16.595,37.104 6.727,27.147 2.815,20.979C2.25,20.221 1.729,19.247 1.25,18.165L1.12,17.84C1.033,17.57 0.903,17.299 0.816,16.92C0.729,16.65 0.642,16.325 0.555,16C0.251,14.702 0.077,13.511 0.077,12.375C0.077,5.34 4.684,-0.396 10.335,-0.396C13.465,-0.396 16.421,1.39 18.333,4.42C20.246,1.39 23.202,-0.396 26.331,-0.396C31.982,-0.396 36.59,5.34 36.59,12.375C36.59,13.619 36.373,14.756 36.112,15.946C36.068,16.325 35.938,16.65 35.851,16.974L35.808,17.083C35.764,17.191 35.721,17.299 35.677,17.407C35.634,17.515 35.59,17.678 35.503,17.84L35.503,17.894L35.416,18.165C34.938,19.301 34.417,20.221 33.851,21.033C29.939,27.147 20.072,37.104 18.333,37.104ZM3.25,17.083C3.641,17.948 4.032,18.652 4.424,19.193L4.467,19.301C8.466,25.524 16.595,33.208 18.333,34.29C20.072,33.154 28.201,25.524 32.156,19.247L32.2,19.139C32.634,18.598 33.026,17.894 33.373,17.028L33.373,16.92L33.547,16.595C33.591,16.487 33.634,16.379 33.678,16.217C33.721,16.108 33.765,15.946 33.808,15.784C33.851,15.567 33.938,15.405 33.938,15.243L33.938,15.189C34.156,14.16 34.33,13.241 34.33,12.266C34.33,6.693 30.722,2.202 26.245,2.202C23.289,2.202 20.637,4.15 19.203,7.396L18.333,9.669L17.377,7.559C15.943,4.312 13.291,2.364 10.335,2.364C5.858,2.31 2.25,6.801 2.25,12.375C2.25,13.241 2.381,14.215 2.641,15.189L2.685,15.351C2.728,15.513 2.772,15.73 2.859,15.946L2.902,16C2.946,16.217 3.033,16.433 3.163,16.65L3.337,16.974L3.337,17.083L3.25,17.083Z" fill="#FF785B"/>
</svg>
