<svg width="8" height="14" viewBox="0 0 8 14" fill="none" xmlns="http://www.w3.org/2000/svg" xmlns:xlink="http://www.w3.org/1999/xlink">
<path d="M0.549,12.083L0.549,1.042L2.528,1.042L2.528,2.417L2.611,2.417C2.847,2 3.195,1.632 3.653,1.312C4.111,0.993 4.757,0.833 5.59,0.833C5.827,0.833 6.042,0.847 6.236,0.875C6.431,0.889 6.528,0.896 6.528,0.896L6.528,2.792C6.528,2.792 6.417,2.785 6.195,2.771C5.986,2.743 5.764,2.729 5.528,2.729C4.57,2.729 3.827,3.007 3.299,3.562C2.785,4.104 2.528,4.993 2.528,6.229L2.528,12.083L0.549,12.083Z" fill="#48525F"/>
</svg>
