<svg width="12" height="12" viewBox="0 0 12 12" fill="none" xmlns="http://www.w3.org/2000/svg" xmlns:xlink="http://www.w3.org/1999/xlink">
<path d="M5.422,0.479C6.116,0.479 6.7,0.59 7.172,0.812C7.644,1.035 8.026,1.298 8.318,1.604C8.609,1.896 8.832,2.173 8.984,2.437L9.109,2.437L9.109,0.687L11.089,0.687L11.089,11.729L9.109,11.729L9.109,9.979L8.984,9.979C8.832,10.243 8.609,10.528 8.318,10.833C8.026,11.139 7.644,11.403 7.172,11.625C6.7,11.833 6.116,11.937 5.422,11.937C4.589,11.937 3.859,11.778 3.234,11.458C2.609,11.125 2.089,10.687 1.672,10.146C1.255,9.59 0.943,8.972 0.734,8.292C0.526,7.611 0.422,6.917 0.422,6.208C0.422,5.5 0.526,4.805 0.734,4.125C0.943,3.444 1.255,2.833 1.672,2.292C2.089,1.736 2.609,1.298 3.234,0.979C3.859,0.646 4.589,0.479 5.422,0.479ZM5.755,2.167C5.019,2.167 4.401,2.368 3.901,2.771C3.401,3.16 3.026,3.66 2.776,4.271C2.54,4.882 2.422,5.528 2.422,6.208C2.422,6.875 2.54,7.521 2.776,8.146C3.026,8.757 3.401,9.264 3.901,9.667C4.401,10.055 5.019,10.25 5.755,10.25C6.491,10.25 7.102,10.055 7.589,9.667C8.089,9.264 8.457,8.757 8.693,8.146C8.943,7.521 9.068,6.875 9.068,6.208C9.068,5.528 8.943,4.882 8.693,4.271C8.457,3.66 8.089,3.16 7.589,2.771C7.102,2.368 6.491,2.167 5.755,2.167Z" fill="#48525F"/>
</svg>
