<svg width="10" height="14" viewBox="0 0 10 14" fill="none" xmlns="http://www.w3.org/2000/svg" xmlns:xlink="http://www.w3.org/1999/xlink">
<path d="M-0.904,12.083L-0.904,1.042L1.075,1.042L1.075,2.646L1.2,2.646C1.297,2.479 1.457,2.25 1.679,1.958C1.915,1.667 2.249,1.41 2.679,1.187C3.11,0.951 3.652,0.833 4.304,0.833C5.11,0.833 5.797,1.021 6.367,1.396C6.936,1.757 7.367,2.25 7.658,2.875C7.964,3.5 8.117,4.201 8.117,4.979L8.117,12.083L6.138,12.083L6.138,5.104C6.138,4.368 5.929,3.757 5.513,3.271C5.11,2.785 4.52,2.542 3.742,2.542C3.117,2.542 2.61,2.701 2.221,3.021C1.832,3.326 1.54,3.736 1.346,4.25C1.165,4.75 1.075,5.285 1.075,5.854L1.075,12.083L-0.904,12.083Z" fill="#48525F"/>
</svg>
