<svg width="2" height="16" viewBox="0 0 2 16" fill="none" xmlns="http://www.w3.org/2000/svg" xmlns:xlink="http://www.w3.org/1999/xlink">
<path d="M0.485,2.583C0.11,2.583 -0.203,2.458 -0.453,2.208C-0.689,1.958 -0.807,1.66 -0.807,1.312C-0.807,0.951 -0.689,0.646 -0.453,0.396C-0.203,0.146 0.11,0.021 0.485,0.021C0.846,0.021 1.151,0.146 1.401,0.396C1.651,0.646 1.776,0.951 1.776,1.312C1.776,1.66 1.651,1.958 1.401,2.208C1.151,2.458 0.846,2.583 0.485,2.583ZM-0.495,15.729L-0.495,4.687L1.485,4.687L1.485,15.729L-0.495,15.729Z" fill="#48525F"/>
</svg>
