<svg width="4" height="18" viewBox="0 0 4 18" fill="none" xmlns="http://www.w3.org/2000/svg" xmlns:xlink="http://www.w3.org/1999/xlink">
<path d="M1.273,12.083L1.19,0.667L3.169,0.667L3.044,12.083L1.273,12.083ZM2.19,16.271C1.815,16.271 1.503,16.146 1.253,15.896C1.016,15.646 0.898,15.347 0.898,15C0.898,14.639 1.016,14.333 1.253,14.083C1.503,13.833 1.815,13.708 2.19,13.708C2.551,13.708 2.857,13.833 3.107,14.083C3.357,14.333 3.482,14.639 3.482,15C3.482,15.347 3.357,15.646 3.107,15.896C2.857,16.146 2.551,16.271 2.19,16.271Z" fill="#48525F"/>
</svg>
