<svg width="10" height="14" viewBox="0 0 10 14" fill="none" xmlns="http://www.w3.org/2000/svg" xmlns:xlink="http://www.w3.org/1999/xlink">
<path d="M-0.214,12.083L-0.214,1.042L1.765,1.042L1.765,2.646L1.89,2.646C1.988,2.479 2.147,2.25 2.369,1.958C2.606,1.667 2.939,1.41 3.369,1.187C3.8,0.951 4.342,0.833 4.994,0.833C5.8,0.833 6.488,1.021 7.057,1.396C7.626,1.757 8.057,2.25 8.349,2.875C8.654,3.5 8.807,4.201 8.807,4.979L8.807,12.083L6.828,12.083L6.828,5.104C6.828,4.368 6.619,3.757 6.203,3.271C5.8,2.785 5.21,2.542 4.432,2.542C3.807,2.542 3.3,2.701 2.911,3.021C2.522,3.326 2.231,3.736 2.036,4.25C1.856,4.75 1.765,5.285 1.765,5.854L1.765,12.083L-0.214,12.083Z" fill="#48525F"/>
</svg>
