<svg width="16" height="14" viewBox="0 0 16 14" fill="none" xmlns="http://www.w3.org/2000/svg" xmlns:xlink="http://www.w3.org/1999/xlink">
<path d="M-0.773,12.083L-0.773,1.042L1.206,1.042L1.206,2.646L1.29,2.646C1.401,2.437 1.574,2.194 1.81,1.917C2.047,1.625 2.366,1.375 2.769,1.167C3.185,0.944 3.706,0.833 4.331,0.833C5.151,0.833 5.838,1.035 6.394,1.437C6.963,1.826 7.387,2.354 7.665,3.021L7.685,3.021C7.991,2.41 8.421,1.896 8.977,1.479C9.546,1.049 10.283,0.833 11.185,0.833C12.38,0.833 13.297,1.243 13.935,2.062C14.588,2.868 14.915,3.91 14.915,5.187L14.915,12.083L12.935,12.083L12.935,5.292C12.935,4.472 12.741,3.812 12.352,3.312C11.963,2.799 11.401,2.542 10.665,2.542C10.026,2.542 9.512,2.715 9.123,3.062C8.748,3.41 8.477,3.84 8.31,4.354C8.144,4.868 8.06,5.382 8.06,5.896L8.06,12.083L6.081,12.083L6.081,5.292C6.081,4.472 5.887,3.812 5.498,3.312C5.123,2.799 4.56,2.542 3.81,2.542C3.172,2.542 2.658,2.715 2.269,3.062C1.894,3.41 1.623,3.847 1.456,4.375C1.29,4.889 1.206,5.396 1.206,5.896L1.206,12.083L-0.773,12.083Z" fill="#48525F"/>
</svg>
