<svg width="8" height="14" viewBox="0 0 8 14" fill="none" xmlns="http://www.w3.org/2000/svg" xmlns:xlink="http://www.w3.org/1999/xlink">
<path d="M0.063,12.083L0.063,1.042L2.043,1.042L2.043,2.417L2.126,2.417C2.362,2 2.709,1.632 3.168,1.312C3.626,0.993 4.272,0.833 5.105,0.833C5.341,0.833 5.557,0.847 5.751,0.875C5.945,0.889 6.043,0.896 6.043,0.896L6.043,2.792C6.043,2.792 5.932,2.785 5.709,2.771C5.501,2.743 5.279,2.729 5.043,2.729C4.084,2.729 3.341,3.007 2.813,3.562C2.3,4.104 2.043,4.993 2.043,6.229L2.043,12.083L0.063,12.083Z" fill="#48525F"/>
</svg>
