<svg width="12" height="12" viewBox="0 0 12 12" fill="none" xmlns="http://www.w3.org/2000/svg" xmlns:xlink="http://www.w3.org/1999/xlink">
<path d="M4.877,11.937C3.696,11.937 2.703,11.667 1.898,11.125C1.092,10.569 0.481,9.854 0.064,8.979C-0.352,8.104 -0.561,7.18 -0.561,6.208C-0.561,5.222 -0.352,4.298 0.064,3.437C0.481,2.562 1.092,1.854 1.898,1.312C2.703,0.757 3.696,0.479 4.877,0.479C6.058,0.479 7.051,0.757 7.856,1.312C8.662,1.854 9.273,2.562 9.689,3.437C10.106,4.298 10.314,5.222 10.314,6.208C10.314,7.18 10.106,8.104 9.689,8.979C9.273,9.854 8.662,10.569 7.856,11.125C7.051,11.667 6.058,11.937 4.877,11.937ZM4.877,10.208C5.627,10.208 6.252,10.021 6.752,9.646C7.266,9.257 7.648,8.757 7.898,8.146C8.162,7.535 8.294,6.889 8.294,6.208C8.294,5.514 8.162,4.868 7.898,4.271C7.648,3.66 7.266,3.167 6.752,2.792C6.252,2.403 5.627,2.208 4.877,2.208C4.141,2.208 3.516,2.403 3.002,2.792C2.488,3.167 2.099,3.66 1.835,4.271C1.585,4.868 1.46,5.514 1.46,6.208C1.46,6.889 1.585,7.535 1.835,8.146C2.099,8.757 2.488,9.257 3.002,9.646C3.516,10.021 4.141,10.208 4.877,10.208Z" fill="#48525F"/>
</svg>
