<svg width="14" height="16" viewBox="0 0 14 16" fill="none" xmlns="http://www.w3.org/2000/svg" xmlns:xlink="http://www.w3.org/1999/xlink">
<path d="M6.576,15.021C5.617,15.021 4.77,14.812 4.034,14.396C3.298,13.965 2.68,13.389 2.18,12.667C1.694,11.93 1.319,11.083 1.055,10.125C0.805,9.167 0.68,8.16 0.68,7.104C0.68,6.035 0.805,5.028 1.055,4.083C1.319,3.125 1.694,2.278 2.18,1.542C2.68,0.805 3.298,0.229 4.034,-0.188C4.77,-0.604 5.617,-0.813 6.576,-0.813C7.534,-0.813 8.381,-0.604 9.117,-0.188C9.853,0.229 10.464,0.805 10.951,1.542C11.451,2.278 11.826,3.125 12.076,4.083C12.339,5.028 12.471,6.035 12.471,7.104C12.471,8.16 12.339,9.167 12.076,10.125C11.826,11.083 11.451,11.93 10.951,12.667C10.464,13.389 9.853,13.965 9.117,14.396C8.381,14.812 7.534,15.021 6.576,15.021ZM6.576,13.146C7.673,13.146 8.576,12.639 9.284,11.625C10.006,10.597 10.367,9.09 10.367,7.104C10.367,5.118 10.006,3.618 9.284,2.604C8.576,1.59 7.673,1.083 6.576,1.083C5.478,1.083 4.569,1.59 3.846,2.604C3.138,3.618 2.784,5.118 2.784,7.104C2.784,9.076 3.138,10.576 3.846,11.604C4.569,12.632 5.478,13.146 6.576,13.146Z" fill="#48525F"/>
</svg>
