<svg width="36" height="38" viewBox="0 0 36 38" fill="none" xmlns="http://www.w3.org/2000/svg" xmlns:xlink="http://www.w3.org/1999/xlink">
<path d="M17.333,37.438C15.594,37.438 5.727,27.482 1.815,21.313C1.25,20.555 0.728,19.581 0.25,18.499L0.12,18.174C0.033,17.904 -0.098,17.633 -0.185,17.254C-0.272,16.984 -0.359,16.659 -0.445,16.335C-0.75,15.036 -0.924,13.845 -0.924,12.709C-0.924,5.674 3.684,-0.062 9.335,-0.062C12.465,-0.062 15.42,1.724 17.333,4.754C19.246,1.724 22.201,-0.062 25.331,-0.062C30.982,-0.062 35.59,5.674 35.59,12.709C35.59,13.954 35.372,15.09 35.111,16.28C35.068,16.659 34.938,16.984 34.851,17.309L34.807,17.417C34.764,17.525 34.72,17.633 34.677,17.741C34.633,17.85 34.59,18.012 34.503,18.174L34.503,18.229L34.416,18.499C33.938,19.635 33.416,20.555 32.851,21.367C28.939,27.482 19.072,37.438 17.333,37.438ZM2.25,17.417C2.641,18.283 3.032,18.986 3.423,19.527L3.467,19.635C7.466,25.858 15.594,33.542 17.333,34.625C19.072,33.488 27.2,25.858 31.156,19.581L31.199,19.473C31.634,18.932 32.025,18.229 32.373,17.363L32.373,17.254L32.547,16.93C32.59,16.822 32.634,16.713 32.677,16.551C32.721,16.443 32.764,16.28 32.808,16.118C32.851,15.902 32.938,15.739 32.938,15.577L32.938,15.523C33.155,14.495 33.329,13.575 33.329,12.601C33.329,7.027 29.721,2.536 25.244,2.536C22.288,2.536 19.637,4.484 18.202,7.731L17.333,10.003L16.377,7.893C14.942,4.646 12.291,2.698 9.335,2.698C4.858,2.644 1.25,7.135 1.25,12.709C1.25,13.575 1.38,14.549 1.641,15.523L1.684,15.685C1.728,15.848 1.771,16.064 1.858,16.28L1.902,16.335C1.945,16.551 2.032,16.767 2.163,16.984L2.336,17.309L2.336,17.417L2.25,17.417Z" fill="#FFC6BA"/>
</svg>
