<svg width="72" height="82" viewBox="0 0 72 82" fill="none" xmlns="http://www.w3.org/2000/svg" xmlns:xlink="http://www.w3.org/1999/xlink">
<path d="M33.507,51.469C33.233,51.557 33.082,51.85 33.169,52.124C33.257,52.398 33.55,52.549 33.824,52.461L33.507,51.469ZM69.993,19.158L69.472,19.158L69.473,19.172L69.993,19.158ZM54.424,1.099L54.406,1.62L54.424,1.62L54.424,1.099ZM25.375,43.113C25.306,43.392 25.477,43.674 25.757,43.743C26.036,43.811 26.318,43.64 26.387,43.361L25.375,43.113ZM33.824,52.461C48.925,47.629 58.163,41.798 63.597,35.915C69.041,30.021 70.647,24.096 70.514,19.144L69.473,19.172C69.599,23.852 68.091,29.514 62.832,35.208C57.562,40.914 48.506,46.67 33.507,51.469L33.824,52.461ZM70.514,19.158C70.514,14.254 68.835,9.537 65.828,6.049L65.039,6.729C67.871,10.014 69.473,14.484 69.473,19.158L70.514,19.158ZM65.828,6.049C62.818,2.558 58.719,0.579 54.424,0.579L54.424,1.62C58.388,1.62 62.209,3.446 65.039,6.729L65.828,6.049ZM54.443,0.579C49.97,0.422 44.827,2.323 39.747,8.636C34.683,14.929 29.664,25.623 25.375,43.113L26.387,43.361C30.66,25.936 35.632,15.411 40.558,9.289C45.469,3.187 50.315,1.476 54.406,1.62L54.443,0.579Z" fill="#000000"/>
<path d="M30.292,47.15L29.807,46.961C29.728,47.163 29.783,47.393 29.945,47.538C30.106,47.682 30.341,47.712 30.533,47.611L30.292,47.15ZM57.798,4.41L57.985,4.896L58,4.89L57.798,4.41ZM65.323,6.517L64.916,6.843C64.927,6.856 64.938,6.869 64.95,6.881L65.323,6.517ZM67.139,15.246L66.645,15.078L66.638,15.102L67.139,15.246ZM30.778,47.338C36.09,33.661 41.005,23.767 45.549,16.926C50.101,10.073 54.243,6.343 57.985,4.896L57.61,3.924C53.568,5.487 49.276,9.432 44.681,16.349C40.079,23.278 35.133,33.249 29.807,46.961L30.778,47.338ZM58,4.89C59.186,4.39 60.47,4.308 61.693,4.65L61.974,3.647C60.521,3.24 58.997,3.34 57.595,3.93L58,4.89ZM61.693,4.65C62.918,4.993 64.041,5.751 64.916,6.843L65.729,6.192C64.73,4.944 63.426,4.054 61.974,3.647L61.693,4.65ZM64.95,6.881C65.914,7.868 66.601,9.183 66.908,10.655L67.927,10.443C67.584,8.792 66.808,7.292 65.695,6.153L64.95,6.881ZM66.908,10.655C67.214,12.127 67.122,13.672 66.646,15.079L67.632,15.413C68.169,13.829 68.271,12.094 67.927,10.443L66.908,10.655ZM66.638,15.102C65.378,19.488 62.145,24.3 56.25,29.568C50.358,34.834 41.836,40.529 30.051,46.688L30.533,47.611C42.362,41.43 50.965,35.688 56.944,30.344C62.921,25.003 66.305,20.033 67.64,15.389L66.638,15.102Z" fill="#000000"/>
</svg>
