<svg width="58" height="56" viewBox="0 0 58 56" fill="none" xmlns="http://www.w3.org/2000/svg" xmlns:xlink="http://www.w3.org/1999/xlink">
<path d="M26.123,33.874C25.056,34.159 24.422,35.255 24.708,36.322C24.993,37.389 26.089,38.023 27.156,37.738L26.123,33.874ZM55.543,14.006L53.543,14.006C53.543,14.027 53.543,14.049 53.544,14.07L55.543,14.006ZM43.156,2.006L43.097,4.005C43.117,4.005 43.136,4.006 43.156,4.006L43.156,2.006ZM18.527,29.442C18.216,30.502 18.823,31.613 19.883,31.925C20.943,32.236 22.054,31.629 22.365,30.569L18.527,29.442ZM27.156,37.738C39.287,34.496 46.904,30.537 51.491,26.389C56.138,22.187 57.666,17.789 57.542,13.941L53.544,14.07C53.626,16.623 52.677,19.924 48.808,23.422C44.879,26.975 37.941,30.715 26.123,33.874L27.156,37.738ZM57.543,14.006C57.543,10.272 56.011,6.704 53.306,4.084L50.523,6.957C52.465,8.838 53.543,11.374 53.543,14.006L57.543,14.006ZM53.306,4.084C50.604,1.466 46.951,0.006 43.156,0.006L43.156,4.006C45.931,4.006 48.58,5.074 50.523,6.957L53.306,4.084ZM43.215,0.007C39.217,-0.111 34.707,1.332 30.361,5.843C26.075,10.291 21.981,17.683 18.527,29.442L22.365,30.569C25.725,19.129 29.579,12.42 33.241,8.618C36.844,4.879 40.282,3.922 43.097,4.005L43.215,0.007Z" fill="#000000"/>
<path d="M23.956,32.605L22.143,31.762C21.792,32.516 21.944,33.408 22.525,34.003C23.106,34.597 23.994,34.771 24.756,34.438L23.956,32.605ZM45.84,4.205L46.454,6.109C46.471,6.103 46.487,6.098 46.504,6.092L45.84,4.205ZM51.827,5.605L50.383,6.99C50.429,7.037 50.477,7.083 50.528,7.126L51.827,5.605ZM53.272,11.405L51.419,10.654C51.405,10.687 51.393,10.721 51.381,10.755L53.272,11.405ZM25.77,33.449C29.966,24.426 33.811,17.981 37.315,13.575C40.834,9.151 43.887,6.938 46.454,6.109L45.225,2.302C41.599,3.473 37.943,6.36 34.184,11.085C30.411,15.83 26.411,22.584 22.143,31.762L25.77,33.449ZM46.504,6.092C47.173,5.856 47.901,5.817 48.596,5.979L49.507,2.084C48.071,1.749 46.566,1.83 45.176,2.319L46.504,6.092ZM48.596,5.979C49.29,6.141 49.91,6.496 50.383,6.99L53.27,4.221C52.253,3.16 50.942,2.42 49.507,2.084L48.596,5.979ZM50.528,7.126C51.043,7.566 51.397,8.141 51.553,8.768L55.434,7.801C55.073,6.352 54.263,5.057 53.126,4.085L50.528,7.126ZM51.553,8.768C51.709,9.394 51.663,10.051 51.419,10.654L55.126,12.157C55.687,10.772 55.795,9.25 55.434,7.801L51.553,8.768ZM51.381,10.755C50.537,13.208 48.268,16.16 43.689,19.578C39.136,22.976 32.476,26.705 23.156,30.772L24.756,34.438C34.224,30.306 41.189,26.435 46.081,22.783C50.947,19.151 53.943,15.603 55.163,12.056L51.381,10.755Z" fill="#000000"/>
</svg>
